<?xml version="1.0" encoding="utf-8" standalone="no"?>
<!DOCTYPE svg PUBLIC "-//W3C//DTD SVG 1.1//EN"
  "http://www.w3.org/Graphics/SVG/1.1/DTD/svg11.dtd">
<svg xmlns:xlink="http://www.w3.org/1999/xlink" width="2880pt" height="2880pt" viewBox="0 0 2880 2880" xmlns="http://www.w3.org/2000/svg" version="1.1">
 <metadata>
  <rdf:RDF xmlns:dc="http://purl.org/dc/elements/1.1/" xmlns:cc="http://creativecommons.org/ns#" xmlns:rdf="http://www.w3.org/1999/02/22-rdf-syntax-ns#">
   <cc:Work>
    <dc:type rdf:resource="http://purl.org/dc/dcmitype/StillImage"/>
    <dc:date>2024-02-24T15:22:36.080371</dc:date>
    <dc:format>image/svg+xml</dc:format>
    <dc:creator>
     <cc:Agent>
      <dc:title>Matplotlib v3.8.2, https://matplotlib.org/</dc:title>
     </cc:Agent>
    </dc:creator>
   </cc:Work>
  </rdf:RDF>
 </metadata>
 <defs>
  <style type="text/css">*{stroke-linejoin: round; stroke-linecap: butt}</style>
 </defs>
 <g id="figure_1">
  <g id="patch_1">
   <path d="M 0 2880 
L 2880 2880 
L 2880 0 
L 0 0 
z
" style="fill: #ffffff"/>
  </g>
  <g id="axes_1">
   <g id="patch_2">
    <path d="M 1363.48761 725.570513 
Q 1389.7008 494.771387 1415.888756 264.19444 
" clip-path="url(#p50c15c62f8)" style="fill: none; stroke: #000000; stroke-width: 0.2; stroke-linecap: round"/>
    <path d="M 1413.450131 267.943188 
L 1415.888756 264.19444 
L 1417.424579 268.394589 
z
" clip-path="url(#p50c15c62f8)" style="stroke: #000000; stroke-width: 0.2; stroke-linecap: round"/>
   </g>
   <g id="patch_3">
    <path d="M 1374.104156 732.49176 
Q 1590.891752 605.917401 1807.486245 479.455788 
" clip-path="url(#p50c15c62f8)" style="fill: none; stroke: #000000; stroke-width: 0.2; stroke-linecap: round"/>
    <path d="M 1803.023501 479.745479 
L 1807.486245 479.455788 
L 1805.040352 483.199797 
z
" clip-path="url(#p50c15c62f8)" style="stroke: #000000; stroke-width: 0.2; stroke-linecap: round"/>
   </g>
   <g id="patch_4">
    <path d="M 1353.246172 750.816754 
Q 1159.934277 1001.125293 966.759057 1251.256859 
" clip-path="url(#p50c15c62f8)" style="fill: none; stroke: #000000; stroke-width: 0.2; stroke-linecap: round"/>
    <path d="M 970.78689 1249.313522 
L 966.759057 1251.256859 
L 967.621087 1246.86859 
z
" clip-path="url(#p50c15c62f8)" style="stroke: #000000; stroke-width: 0.2; stroke-linecap: round"/>
   </g>
   <g id="patch_5">
    <path d="M 1371.09515 728.880764 
Q 1511.746412 564.725979 1652.252184 400.740996 
" clip-path="url(#p50c15c62f8)" style="fill: none; stroke: #000000; stroke-width: 0.2; stroke-linecap: round"/>
    <path d="M 1648.130828 402.477204 
L 1652.252184 400.740996 
L 1651.168337 405.079806 
z
" clip-path="url(#p50c15c62f8)" style="stroke: #000000; stroke-width: 0.2; stroke-linecap: round"/>
   </g>
   <g id="patch_6">
    <path d="M 1375.911266 737.767132 
Q 1537.266436 716.416908 1698.399931 695.096016 
" clip-path="url(#p50c15c62f8)" style="fill: none; stroke: #000000; stroke-width: 0.2; stroke-linecap: round"/>
    <path d="M 1694.172144 693.637997 
L 1698.399931 695.096016 
L 1694.696844 697.603434 
z
" clip-path="url(#p50c15c62f8)" style="stroke: #000000; stroke-width: 0.2; stroke-linecap: round"/>
   </g>
   <g id="patch_7">
    <path d="M 1350.236858 747.633265 
Q 1156.510157 880.793721 962.96773 1013.827515 
" clip-path="url(#p50c15c62f8)" style="fill: none; stroke: #000000; stroke-width: 0.2; stroke-linecap: round"/>
    <path d="M 967.397013 1013.209897 
L 962.96773 1013.827515 
L 965.131205 1009.913518 
z
" clip-path="url(#p50c15c62f8)" style="stroke: #000000; stroke-width: 0.2; stroke-linecap: round"/>
   </g>
   <g id="patch_8">
    <path d="M 1431.131694 253.733144 
Q 1713.204344 332.750659 1995.061676 411.707855 
" clip-path="url(#p50c15c62f8)" style="fill: none; stroke: #000000; stroke-width: 0.2; stroke-linecap: round"/>
    <path d="M 1991.749447 408.703003 
L 1995.061676 411.707855 
L 1990.670456 412.554727 
z
" clip-path="url(#p50c15c62f8)" style="stroke: #000000; stroke-width: 0.2; stroke-linecap: round"/>
   </g>
   <g id="patch_9">
    <path d="M 1429.891331 256.75722 
Q 1618.701534 361.064765 1807.316011 465.264181 
" clip-path="url(#p50c15c62f8)" style="fill: none; stroke: #000000; stroke-width: 0.2; stroke-linecap: round"/>
    <path d="M 1804.781895 461.579313 
L 1807.316011 465.264181 
L 1802.847647 465.080553 
z
" clip-path="url(#p50c15c62f8)" style="stroke: #000000; stroke-width: 0.2; stroke-linecap: round"/>
   </g>
   <g id="patch_10">
    <path d="M 1408.024452 260.400872 
Q 1317.661772 360.267532 1227.449121 459.968386 
" clip-path="url(#p50c15c62f8)" style="fill: none; stroke: #000000; stroke-width: 0.2; stroke-linecap: round"/>
    <path d="M 1231.615909 458.344233 
L 1227.449121 459.968386 
L 1228.649871 455.660463 
z
" clip-path="url(#p50c15c62f8)" style="stroke: #000000; stroke-width: 0.2; stroke-linecap: round"/>
   </g>
   <g id="patch_11">
    <path d="M 1415.914358 263.96902 
Q 1389.701168 494.768146 1363.513212 725.345093 
" clip-path="url(#p50c15c62f8)" style="fill: none; stroke: #000000; stroke-width: 0.2; stroke-linecap: round"/>
    <path d="M 1365.951837 721.596346 
L 1363.513212 725.345093 
L 1361.977389 721.144945 
z
" clip-path="url(#p50c15c62f8)" style="stroke: #000000; stroke-width: 0.2; stroke-linecap: round"/>
   </g>
   <g id="patch_12">
    <path d="M 1807.511641 465.372256 
Q 1618.701438 361.064712 1430.08696 256.865295 
" clip-path="url(#p50c15c62f8)" style="fill: none; stroke: #000000; stroke-width: 0.2; stroke-linecap: round"/>
    <path d="M 1432.621076 260.550163 
L 1430.08696 256.865295 
L 1434.555325 257.048923 
z
" clip-path="url(#p50c15c62f8)" style="stroke: #000000; stroke-width: 0.2; stroke-linecap: round"/>
   </g>
   <g id="patch_13">
    <path d="M 1833.438453 468.153446 
Q 1914.391111 443.897866 1995.12957 419.706465 
" clip-path="url(#p50c15c62f8)" style="fill: none; stroke: #000000; stroke-width: 0.2; stroke-linecap: round"/>
    <path d="M 1990.723831 418.938695 
L 1995.12957 419.706465 
L 1991.871911 422.770394 
z
" clip-path="url(#p50c15c62f8)" style="stroke: #000000; stroke-width: 0.2; stroke-linecap: round"/>
   </g>
   <g id="patch_14">
    <path d="M 1833.939596 473.856971 
Q 2224.987954 519.647533 2615.814223 565.412089 
" clip-path="url(#p50c15c62f8)" style="fill: none; stroke: #000000; stroke-width: 0.2; stroke-linecap: round"/>
    <path d="M 2612.073973 562.960452 
L 2615.814223 565.412089 
L 2611.608763 566.933308 
z
" clip-path="url(#p50c15c62f8)" style="stroke: #000000; stroke-width: 0.2; stroke-linecap: round"/>
   </g>
   <g id="patch_15">
    <path d="M 1805.749242 472.174724 
Q 1518.85172 471.416128 1232.177804 470.658123 
" clip-path="url(#p50c15c62f8)" style="fill: none; stroke: #000000; stroke-width: 0.2; stroke-linecap: round"/>
    <path d="M 1236.172502 472.668693 
L 1232.177804 470.658123 
L 1236.183079 468.668707 
z
" clip-path="url(#p50c15c62f8)" style="stroke: #000000; stroke-width: 0.2; stroke-linecap: round"/>
   </g>
   <g id="patch_16">
    <path d="M 1807.68021 479.342539 
Q 1590.892614 605.916897 1374.298121 732.378511 
" clip-path="url(#p50c15c62f8)" style="fill: none; stroke: #000000; stroke-width: 0.2; stroke-linecap: round"/>
    <path d="M 1378.760865 732.088819 
L 1374.298121 732.378511 
L 1376.744014 728.634501 
z
" clip-path="url(#p50c15c62f8)" style="stroke: #000000; stroke-width: 0.2; stroke-linecap: round"/>
   </g>
   <g id="patch_17">
    <path d="M 1807.349572 465.684546 
Q 1740.746457 431.023549 1674.341696 396.465777 
" clip-path="url(#p50c15c62f8)" style="fill: none; stroke: #000000; stroke-width: 0.2; stroke-linecap: round"/>
    <path d="M 1676.966686 400.086471 
L 1674.341696 396.465777 
L 1678.813245 396.538201 
z
" clip-path="url(#p50c15c62f8)" style="stroke: #000000; stroke-width: 0.2; stroke-linecap: round"/>
   </g>
   <g id="patch_18">
    <path d="M 966.621968 1251.434368 
Q 1159.933864 1001.125828 1353.109084 750.994262 
" clip-path="url(#p50c15c62f8)" style="fill: none; stroke: #000000; stroke-width: 0.2; stroke-linecap: round"/>
    <path d="M 1349.08125 752.937599 
L 1353.109084 750.994262 
L 1352.247053 755.382531 
z
" clip-path="url(#p50c15c62f8)" style="stroke: #000000; stroke-width: 0.2; stroke-linecap: round"/>
   </g>
   <g id="patch_19">
    <path d="M 954.679203 1276.381597 
Q 928.203619 1386.809629 901.780169 1497.020217 
" clip-path="url(#p50c15c62f8)" style="fill: none; stroke: #000000; stroke-width: 0.2; stroke-linecap: round"/>
    <path d="M 904.65764 1493.596745 
L 901.780169 1497.020217 
L 900.767874 1492.664157 
z
" clip-path="url(#p50c15c62f8)" style="stroke: #000000; stroke-width: 0.2; stroke-linecap: round"/>
   </g>
   <g id="patch_20">
    <path d="M 957.574387 1248.494432 
Q 954.553457 1142.296195 951.538885 1036.321474 
" clip-path="url(#p50c15c62f8)" style="fill: none; stroke: #000000; stroke-width: 0.2; stroke-linecap: round"/>
    <path d="M 949.653433 1040.376726 
L 951.538885 1036.321474 
L 953.651815 1040.262987 
z
" clip-path="url(#p50c15c62f8)" style="stroke: #000000; stroke-width: 0.2; stroke-linecap: round"/>
   </g>
   <g id="patch_21">
    <path d="M 950.620417 1274.709931 
Q 804.591172 1514.536914 658.678219 1754.17291 
" clip-path="url(#p50c15c62f8)" style="fill: none; stroke: #000000; stroke-width: 0.2; stroke-linecap: round"/>
    <path d="M 662.466748 1751.796558 
L 658.678219 1754.17291 
L 659.050255 1749.716276 
z
" clip-path="url(#p50c15c62f8)" style="stroke: #000000; stroke-width: 0.2; stroke-linecap: round"/>
   </g>
   <g id="patch_22">
    <path d="M 1675.701889 390.879395 
Q 1835.244639 402.708042 1994.564395 414.520157 
" clip-path="url(#p50c15c62f8)" style="fill: none; stroke: #000000; stroke-width: 0.2; stroke-linecap: round"/>
    <path d="M 1990.72322 412.229879 
L 1994.564395 414.520157 
L 1990.427468 416.218931 
z
" clip-path="url(#p50c15c62f8)" style="stroke: #000000; stroke-width: 0.2; stroke-linecap: round"/>
   </g>
   <g id="patch_23">
    <path d="M 1674.140894 396.361278 
Q 1740.744009 431.022275 1807.14877 465.580047 
" clip-path="url(#p50c15c62f8)" style="fill: none; stroke: #000000; stroke-width: 0.2; stroke-linecap: round"/>
    <path d="M 1804.523779 461.959353 
L 1807.14877 465.580047 
L 1802.67722 465.507623 
z
" clip-path="url(#p50c15c62f8)" style="stroke: #000000; stroke-width: 0.2; stroke-linecap: round"/>
   </g>
   <g id="patch_24">
    <path d="M 1652.394312 400.575117 
Q 1511.74305 564.729902 1371.237278 728.714885 
" clip-path="url(#p50c15c62f8)" style="fill: none; stroke: #000000; stroke-width: 0.2; stroke-linecap: round"/>
    <path d="M 1375.358635 726.978677 
L 1371.237278 728.714885 
L 1372.321125 724.376075 
z
" clip-path="url(#p50c15c62f8)" style="stroke: #000000; stroke-width: 0.2; stroke-linecap: round"/>
   </g>
   <g id="patch_25">
    <path d="M 1663.944473 403.781424 
Q 1687.119772 541.525336 1710.25797 679.04874 
" clip-path="url(#p50c15c62f8)" style="fill: none; stroke: #000000; stroke-width: 0.2; stroke-linecap: round"/>
    <path d="M 1711.566581 674.772346 
L 1710.25797 679.04874 
L 1707.622022 675.436015 
z
" clip-path="url(#p50c15c62f8)" style="stroke: #000000; stroke-width: 0.2; stroke-linecap: round"/>
   </g>
   <g id="patch_26">
    <path d="M 1722.958805 683.54236 
Q 1860.765656 554.398395 1998.409349 425.407333 
" clip-path="url(#p50c15c62f8)" style="fill: none; stroke: #000000; stroke-width: 0.2; stroke-linecap: round"/>
    <path d="M 1994.123072 426.683196 
L 1998.409349 425.407333 
L 1996.858273 429.601872 
z
" clip-path="url(#p50c15c62f8)" style="stroke: #000000; stroke-width: 0.2; stroke-linecap: round"/>
   </g>
   <g id="patch_27">
    <path d="M 1698.621289 695.066727 
Q 1537.266119 716.41695 1376.132624 737.737842 
" clip-path="url(#p50c15c62f8)" style="fill: none; stroke: #000000; stroke-width: 0.2; stroke-linecap: round"/>
    <path d="M 1380.36041 739.195861 
L 1376.132624 737.737842 
L 1379.835711 735.230424 
z
" clip-path="url(#p50c15c62f8)" style="stroke: #000000; stroke-width: 0.2; stroke-linecap: round"/>
   </g>
   <g id="patch_28">
    <path d="M 1710.294181 679.263959 
Q 1687.118882 541.520048 1663.980684 403.996644 
" clip-path="url(#p50c15c62f8)" style="fill: none; stroke: #000000; stroke-width: 0.2; stroke-linecap: round"/>
    <path d="M 1662.672073 408.273037 
L 1663.980684 403.996644 
L 1666.616632 407.609369 
z
" clip-path="url(#p50c15c62f8)" style="stroke: #000000; stroke-width: 0.2; stroke-linecap: round"/>
   </g>
   <g id="patch_29">
    <path d="M 957.28924 1009.231169 
Q 1084.470328 746.292975 1211.554052 483.556078 
" clip-path="url(#p50c15c62f8)" style="fill: none; stroke: #000000; stroke-width: 0.2; stroke-linecap: round"/>
    <path d="M 1208.011885 486.286107 
L 1211.554052 483.556078 
L 1211.612775 488.027829 
z
" clip-path="url(#p50c15c62f8)" style="stroke: #000000; stroke-width: 0.2; stroke-linecap: round"/>
   </g>
   <g id="patch_30">
    <path d="M 951.532543 1036.098513 
Q 954.553473 1142.296751 957.568044 1248.271471 
" clip-path="url(#p50c15c62f8)" style="fill: none; stroke: #000000; stroke-width: 0.2; stroke-linecap: round"/>
    <path d="M 959.453497 1244.21622 
L 957.568044 1248.271471 
L 955.455115 1244.329958 
z
" clip-path="url(#p50c15c62f8)" style="stroke: #000000; stroke-width: 0.2; stroke-linecap: round"/>
   </g>
   <g id="patch_31">
    <path d="M 962.785294 1013.952914 
Q 1156.511995 880.792458 1350.054422 747.758665 
" clip-path="url(#p50c15c62f8)" style="fill: none; stroke: #000000; stroke-width: 0.2; stroke-linecap: round"/>
    <path d="M 1345.625139 748.376283 
L 1350.054422 747.758665 
L 1347.890947 751.672662 
z
" clip-path="url(#p50c15c62f8)" style="stroke: #000000; stroke-width: 0.2; stroke-linecap: round"/>
   </g>
   <g id="patch_32">
    <path d="M 945.845823 1035.081739 
Q 801.169093 1394.203339 656.575922 1753.117532 
" clip-path="url(#p50c15c62f8)" style="fill: none; stroke: #000000; stroke-width: 0.2; stroke-linecap: round"/>
    <path d="M 659.925753 1750.154656 
L 656.575922 1753.117532 
L 656.21552 1748.659942 
z
" clip-path="url(#p50c15c62f8)" style="stroke: #000000; stroke-width: 0.2; stroke-linecap: round"/>
   </g>
   <g id="patch_33">
    <path d="M 1995.271808 411.76672 
Q 1713.199158 332.749206 1431.341826 253.792009 
" clip-path="url(#p50c15c62f8)" style="fill: none; stroke: #000000; stroke-width: 0.2; stroke-linecap: round"/>
    <path d="M 1434.654055 256.796862 
L 1431.341826 253.792009 
L 1435.733045 252.945137 
z
" clip-path="url(#p50c15c62f8)" style="stroke: #000000; stroke-width: 0.2; stroke-linecap: round"/>
   </g>
   <g id="patch_34">
    <path d="M 2022.632443 418.933336 
Q 2319.486931 491.33245 2616.12418 563.678582 
" clip-path="url(#p50c15c62f8)" style="fill: none; stroke: #000000; stroke-width: 0.2; stroke-linecap: round"/>
    <path d="M 2612.711971 560.787764 
L 2616.12418 563.678582 
L 2611.764201 564.673859 
z
" clip-path="url(#p50c15c62f8)" style="stroke: #000000; stroke-width: 0.2; stroke-linecap: round"/>
   </g>
   <g id="patch_35">
    <path d="M 1995.347446 419.641183 
Q 1914.394789 443.896764 1833.65633 468.088165 
" clip-path="url(#p50c15c62f8)" style="fill: none; stroke: #000000; stroke-width: 0.2; stroke-linecap: round"/>
    <path d="M 1838.062068 468.855935 
L 1833.65633 468.088165 
L 1836.913989 465.024236 
z
" clip-path="url(#p50c15c62f8)" style="stroke: #000000; stroke-width: 0.2; stroke-linecap: round"/>
   </g>
   <g id="patch_36">
    <path d="M 1994.789107 414.536817 
Q 1835.246356 402.70817 1675.9266 390.896055 
" clip-path="url(#p50c15c62f8)" style="fill: none; stroke: #000000; stroke-width: 0.2; stroke-linecap: round"/>
    <path d="M 1679.767776 393.186333 
L 1675.9266 390.896055 
L 1680.063528 389.197281 
z
" clip-path="url(#p50c15c62f8)" style="stroke: #000000; stroke-width: 0.2; stroke-linecap: round"/>
   </g>
   <g id="patch_37">
    <path d="M 1998.575283 425.251829 
Q 1860.768432 554.395794 1723.124739 683.386857 
" clip-path="url(#p50c15c62f8)" style="fill: none; stroke: #000000; stroke-width: 0.2; stroke-linecap: round"/>
    <path d="M 1727.411017 682.110994 
L 1723.124739 683.386857 
L 1724.675815 679.192317 
z
" clip-path="url(#p50c15c62f8)" style="stroke: #000000; stroke-width: 0.2; stroke-linecap: round"/>
   </g>
   <g id="patch_38">
    <path d="M 1227.296898 460.136619 
Q 1317.659577 360.269959 1407.872229 260.569105 
" clip-path="url(#p50c15c62f8)" style="fill: none; stroke: #000000; stroke-width: 0.2; stroke-linecap: round"/>
    <path d="M 1403.70544 262.193258 
L 1407.872229 260.569105 
L 1406.671478 264.877028 
z
" clip-path="url(#p50c15c62f8)" style="stroke: #000000; stroke-width: 0.2; stroke-linecap: round"/>
   </g>
   <g id="patch_39">
    <path d="M 1231.954505 470.657533 
Q 1518.852027 471.416129 1805.525943 472.174133 
" clip-path="url(#p50c15c62f8)" style="fill: none; stroke: #000000; stroke-width: 0.2; stroke-linecap: round"/>
    <path d="M 1801.531245 470.163564 
L 1805.525943 472.174133 
L 1801.520669 474.16355 
z
" clip-path="url(#p50c15c62f8)" style="stroke: #000000; stroke-width: 0.2; stroke-linecap: round"/>
   </g>
   <g id="patch_40">
    <path d="M 1211.652294 483.352969 
Q 1084.471205 746.291162 957.387482 1009.028059 
" clip-path="url(#p50c15c62f8)" style="fill: none; stroke: #000000; stroke-width: 0.2; stroke-linecap: round"/>
    <path d="M 960.929648 1006.29803 
L 957.387482 1009.028059 
L 957.328758 1004.556309 
z
" clip-path="url(#p50c15c62f8)" style="stroke: #000000; stroke-width: 0.2; stroke-linecap: round"/>
   </g>
   <g id="patch_41">
    <path d="M 658.56471 1754.359327 
Q 804.593955 1514.532344 950.506908 1274.896348 
" clip-path="url(#p50c15c62f8)" style="fill: none; stroke: #000000; stroke-width: 0.2; stroke-linecap: round"/>
    <path d="M 946.718379 1277.2727 
L 950.506908 1274.896348 
L 950.134872 1279.352983 
z
" clip-path="url(#p50c15c62f8)" style="stroke: #000000; stroke-width: 0.2; stroke-linecap: round"/>
   </g>
   <g id="patch_42">
    <path d="M 661.044992 1756.276546 
Q 774.820118 1638.713921 888.43974 1521.311976 
" clip-path="url(#p50c15c62f8)" style="fill: none; stroke: #000000; stroke-width: 0.2; stroke-linecap: round"/>
    <path d="M 884.220819 1522.795452 
L 888.43974 1521.311976 
L 887.095168 1525.577199 
z
" clip-path="url(#p50c15c62f8)" style="stroke: #000000; stroke-width: 0.2; stroke-linecap: round"/>
   </g>
   <g id="patch_43">
    <path d="M 656.493316 1753.322577 
Q 801.170045 1394.200977 945.763217 1035.286784 
" clip-path="url(#p50c15c62f8)" style="fill: none; stroke: #000000; stroke-width: 0.2; stroke-linecap: round"/>
    <path d="M 942.413386 1038.24966 
L 945.763217 1035.286784 
L 946.123619 1039.744374 
z
" clip-path="url(#p50c15c62f8)" style="stroke: #000000; stroke-width: 0.2; stroke-linecap: round"/>
   </g>
   <g id="patch_44">
    <path d="M 645.249245 1779.265935 
Q 450.562495 2198.262591 255.96997 2617.056462 
" clip-path="url(#p50c15c62f8)" style="fill: none; stroke: #000000; stroke-width: 0.2; stroke-linecap: round"/>
    <path d="M 259.469267 2614.271696 
L 255.96997 2617.056462 
L 255.841736 2612.586164 
z
" clip-path="url(#p50c15c62f8)" style="stroke: #000000; stroke-width: 0.2; stroke-linecap: round"/>
   </g>
   <g id="patch_45">
    <path d="M 901.728664 1497.235039 
Q 928.204248 1386.807006 954.627698 1276.596419 
" clip-path="url(#p50c15c62f8)" style="fill: none; stroke: #000000; stroke-width: 0.2; stroke-linecap: round"/>
    <path d="M 951.750228 1280.019891 
L 954.627698 1276.596419 
L 955.639994 1280.952479 
z
" clip-path="url(#p50c15c62f8)" style="stroke: #000000; stroke-width: 0.2; stroke-linecap: round"/>
   </g>
   <g id="patch_46">
    <path d="M 888.595085 1521.15146 
Q 774.819958 1638.714086 661.200336 1756.11603 
" clip-path="url(#p50c15c62f8)" style="fill: none; stroke: #000000; stroke-width: 0.2; stroke-linecap: round"/>
    <path d="M 665.419258 1754.632554 
L 661.200336 1756.11603 
L 662.544908 1751.850808 
z
" clip-path="url(#p50c15c62f8)" style="stroke: #000000; stroke-width: 0.2; stroke-linecap: round"/>
   </g>
   <g id="PathCollection_1">
    <defs>
     <path id="C0_0_fd50c22fed" d="M 0 14.142136 
C 3.750538 14.142136 7.347969 12.652031 10 10 
C 12.652031 7.347969 14.142136 3.750538 14.142136 -0 
C 14.142136 -3.750538 12.652031 -7.347969 10 -10 
C 7.347969 -12.652031 3.750538 -14.142136 0 -14.142136 
C -3.750538 -14.142136 -7.347969 -12.652031 -10 -10 
C -12.652031 -7.347969 -14.142136 -3.750538 -14.142136 0 
C -14.142136 3.750538 -12.652031 7.347969 -10 10 
C -7.347969 12.652031 -3.750538 14.142136 0 14.142136 
z
"/>
    </defs>
    <g clip-path="url(#p50c15c62f8)">
     <use xlink:href="#C0_0_fd50c22fed" x="1361.891681" y="739.622178" style="fill: #0000ff; stroke: #0000ff"/>
    </g>
    <g clip-path="url(#p50c15c62f8)">
     <use xlink:href="#C0_0_fd50c22fed" x="1417.510287" y="249.917355" style="fill: #ffa500; stroke: #ffa500"/>
    </g>
    <g clip-path="url(#p50c15c62f8)">
     <use xlink:href="#C0_0_fd50c22fed" x="1819.892685" y="472.212121" style="fill: #ffff00; stroke: #ffff00"/>
    </g>
    <g clip-path="url(#p50c15c62f8)">
     <use xlink:href="#C0_0_fd50c22fed" x="957.976459" y="1262.628944" style="fill: #ffa500; stroke: #ffa500"/>
    </g>
    <g clip-path="url(#p50c15c62f8)">
     <use xlink:href="#C0_0_fd50c22fed" x="1661.597781" y="389.833703" style="fill: #ffa500; stroke: #ffa500"/>
    </g>
    <g clip-path="url(#p50c15c62f8)">
     <use xlink:href="#C0_0_fd50c22fed" x="1712.640873" y="693.211681" style="fill: #ffff00; stroke: #ffff00"/>
    </g>
    <g clip-path="url(#p50c15c62f8)">
     <use xlink:href="#C0_0_fd50c22fed" x="951.130471" y="1021.964002" style="fill: #ffff00; stroke: #ffff00"/>
    </g>
    <g clip-path="url(#p50c15c62f8)">
     <use xlink:href="#C0_0_fd50c22fed" x="2008.893215" y="415.582509" style="fill: #0000ff; stroke: #0000ff"/>
    </g>
    <g clip-path="url(#p50c15c62f8)">
     <use xlink:href="#C0_0_fd50c22fed" x="2630.082645" y="567.082877" style="fill: #ffa500; stroke: #ffa500"/>
    </g>
    <g clip-path="url(#p50c15c62f8)">
     <use xlink:href="#C0_0_fd50c22fed" x="1217.811063" y="470.620136" style="fill: #0000ff; stroke: #0000ff"/>
    </g>
    <g clip-path="url(#p50c15c62f8)">
     <use xlink:href="#C0_0_fd50c22fed" x="651.208668" y="1766.440314" style="fill: #ffa500; stroke: #ffa500"/>
    </g>
    <g clip-path="url(#p50c15c62f8)">
     <use xlink:href="#C0_0_fd50c22fed" x="898.431408" y="1510.987692" style="fill: #ffff00; stroke: #ffff00"/>
    </g>
    <g clip-path="url(#p50c15c62f8)">
     <use xlink:href="#C0_0_fd50c22fed" x="249.917355" y="2630.082645" style="fill: #ffff00; stroke: #ffff00"/>
    </g>
   </g>
   <g id="text_1">
    <g clip-path="url(#p50c15c62f8)">
     <!-- VAL 26 -->
     <g transform="translate(1348.084181 741.829678) scale(0.08 -0.08)">
      <defs>
       <path id="DejaVuSans-56" d="M 1831 0 
L 50 4666 
L 709 4666 
L 2188 738 
L 3669 4666 
L 4325 4666 
L 2547 0 
L 1831 0 
z
" transform="scale(0.015625)"/>
       <path id="DejaVuSans-41" d="M 2188 4044 
L 1331 1722 
L 3047 1722 
L 2188 4044 
z
M 1831 4666 
L 2547 4666 
L 4325 0 
L 3669 0 
L 3244 1197 
L 1141 1197 
L 716 0 
L 50 0 
L 1831 4666 
z
" transform="scale(0.015625)"/>
       <path id="DejaVuSans-4c" d="M 628 4666 
L 1259 4666 
L 1259 531 
L 3531 531 
L 3531 0 
L 628 0 
L 628 4666 
z
" transform="scale(0.015625)"/>
       <path id="DejaVuSans-20" transform="scale(0.015625)"/>
       <path id="DejaVuSans-32" d="M 1228 531 
L 3431 531 
L 3431 0 
L 469 0 
L 469 531 
Q 828 903 1448 1529 
Q 2069 2156 2228 2338 
Q 2531 2678 2651 2914 
Q 2772 3150 2772 3378 
Q 2772 3750 2511 3984 
Q 2250 4219 1831 4219 
Q 1534 4219 1204 4116 
Q 875 4013 500 3803 
L 500 4441 
Q 881 4594 1212 4672 
Q 1544 4750 1819 4750 
Q 2544 4750 2975 4387 
Q 3406 4025 3406 3419 
Q 3406 3131 3298 2873 
Q 3191 2616 2906 2266 
Q 2828 2175 2409 1742 
Q 1991 1309 1228 531 
z
" transform="scale(0.015625)"/>
       <path id="DejaVuSans-36" d="M 2113 2584 
Q 1688 2584 1439 2293 
Q 1191 2003 1191 1497 
Q 1191 994 1439 701 
Q 1688 409 2113 409 
Q 2538 409 2786 701 
Q 3034 994 3034 1497 
Q 3034 2003 2786 2293 
Q 2538 2584 2113 2584 
z
M 3366 4563 
L 3366 3988 
Q 3128 4100 2886 4159 
Q 2644 4219 2406 4219 
Q 1781 4219 1451 3797 
Q 1122 3375 1075 2522 
Q 1259 2794 1537 2939 
Q 1816 3084 2150 3084 
Q 2853 3084 3261 2657 
Q 3669 2231 3669 1497 
Q 3669 778 3244 343 
Q 2819 -91 2113 -91 
Q 1303 -91 875 529 
Q 447 1150 447 2328 
Q 447 3434 972 4092 
Q 1497 4750 2381 4750 
Q 2619 4750 2861 4703 
Q 3103 4656 3366 4563 
z
" transform="scale(0.015625)"/>
      </defs>
      <use xlink:href="#DejaVuSans-56"/>
      <use xlink:href="#DejaVuSans-41" x="62.033203"/>
      <use xlink:href="#DejaVuSans-4c" x="130.441406"/>
      <use xlink:href="#DejaVuSans-20" x="186.154297"/>
      <use xlink:href="#DejaVuSans-32" x="217.941406"/>
      <use xlink:href="#DejaVuSans-36" x="281.564453"/>
     </g>
    </g>
   </g>
   <g id="text_2">
    <g clip-path="url(#p50c15c62f8)">
     <!-- ILE 3 -->
     <g transform="translate(1407.757787 252.124855) scale(0.08 -0.08)">
      <defs>
       <path id="DejaVuSans-49" d="M 628 4666 
L 1259 4666 
L 1259 0 
L 628 0 
L 628 4666 
z
" transform="scale(0.015625)"/>
       <path id="DejaVuSans-45" d="M 628 4666 
L 3578 4666 
L 3578 4134 
L 1259 4134 
L 1259 2753 
L 3481 2753 
L 3481 2222 
L 1259 2222 
L 1259 531 
L 3634 531 
L 3634 0 
L 628 0 
L 628 4666 
z
" transform="scale(0.015625)"/>
       <path id="DejaVuSans-33" d="M 2597 2516 
Q 3050 2419 3304 2112 
Q 3559 1806 3559 1356 
Q 3559 666 3084 287 
Q 2609 -91 1734 -91 
Q 1441 -91 1130 -33 
Q 819 25 488 141 
L 488 750 
Q 750 597 1062 519 
Q 1375 441 1716 441 
Q 2309 441 2620 675 
Q 2931 909 2931 1356 
Q 2931 1769 2642 2001 
Q 2353 2234 1838 2234 
L 1294 2234 
L 1294 2753 
L 1863 2753 
Q 2328 2753 2575 2939 
Q 2822 3125 2822 3475 
Q 2822 3834 2567 4026 
Q 2313 4219 1838 4219 
Q 1578 4219 1281 4162 
Q 984 4106 628 3988 
L 628 4550 
Q 988 4650 1302 4700 
Q 1616 4750 1894 4750 
Q 2613 4750 3031 4423 
Q 3450 4097 3450 3541 
Q 3450 3153 3228 2886 
Q 3006 2619 2597 2516 
z
" transform="scale(0.015625)"/>
      </defs>
      <use xlink:href="#DejaVuSans-49"/>
      <use xlink:href="#DejaVuSans-4c" x="29.492188"/>
      <use xlink:href="#DejaVuSans-45" x="85.205078"/>
      <use xlink:href="#DejaVuSans-20" x="148.388672"/>
      <use xlink:href="#DejaVuSans-33" x="180.175781"/>
     </g>
    </g>
   </g>
   <g id="text_3">
    <g clip-path="url(#p50c15c62f8)">
     <!-- LEU 15 -->
     <g transform="translate(1805.847685 474.419621) scale(0.08 -0.08)">
      <defs>
       <path id="DejaVuSans-55" d="M 556 4666 
L 1191 4666 
L 1191 1831 
Q 1191 1081 1462 751 
Q 1734 422 2344 422 
Q 2950 422 3222 751 
Q 3494 1081 3494 1831 
L 3494 4666 
L 4128 4666 
L 4128 1753 
Q 4128 841 3676 375 
Q 3225 -91 2344 -91 
Q 1459 -91 1007 375 
Q 556 841 556 1753 
L 556 4666 
z
" transform="scale(0.015625)"/>
       <path id="DejaVuSans-31" d="M 794 531 
L 1825 531 
L 1825 4091 
L 703 3866 
L 703 4441 
L 1819 4666 
L 2450 4666 
L 2450 531 
L 3481 531 
L 3481 0 
L 794 0 
L 794 531 
z
" transform="scale(0.015625)"/>
       <path id="DejaVuSans-35" d="M 691 4666 
L 3169 4666 
L 3169 4134 
L 1269 4134 
L 1269 2991 
Q 1406 3038 1543 3061 
Q 1681 3084 1819 3084 
Q 2600 3084 3056 2656 
Q 3513 2228 3513 1497 
Q 3513 744 3044 326 
Q 2575 -91 1722 -91 
Q 1428 -91 1123 -41 
Q 819 9 494 109 
L 494 744 
Q 775 591 1075 516 
Q 1375 441 1709 441 
Q 2250 441 2565 725 
Q 2881 1009 2881 1497 
Q 2881 1984 2565 2268 
Q 2250 2553 1709 2553 
Q 1456 2553 1204 2497 
Q 953 2441 691 2322 
L 691 4666 
z
" transform="scale(0.015625)"/>
      </defs>
      <use xlink:href="#DejaVuSans-4c"/>
      <use xlink:href="#DejaVuSans-45" x="55.712891"/>
      <use xlink:href="#DejaVuSans-55" x="118.896484"/>
      <use xlink:href="#DejaVuSans-20" x="192.089844"/>
      <use xlink:href="#DejaVuSans-31" x="223.876953"/>
      <use xlink:href="#DejaVuSans-35" x="287.5"/>
     </g>
    </g>
   </g>
   <g id="text_4">
    <g clip-path="url(#p50c15c62f8)">
     <!-- ILE 23 -->
     <g transform="translate(945.678959 1264.836444) scale(0.08 -0.08)">
      <use xlink:href="#DejaVuSans-49"/>
      <use xlink:href="#DejaVuSans-4c" x="29.492188"/>
      <use xlink:href="#DejaVuSans-45" x="85.205078"/>
      <use xlink:href="#DejaVuSans-20" x="148.388672"/>
      <use xlink:href="#DejaVuSans-32" x="180.175781"/>
      <use xlink:href="#DejaVuSans-33" x="243.798828"/>
     </g>
    </g>
   </g>
   <g id="text_5">
    <g clip-path="url(#p50c15c62f8)">
     <!-- ILE 30 -->
     <g transform="translate(1649.300281 392.041203) scale(0.08 -0.08)">
      <defs>
       <path id="DejaVuSans-30" d="M 2034 4250 
Q 1547 4250 1301 3770 
Q 1056 3291 1056 2328 
Q 1056 1369 1301 889 
Q 1547 409 2034 409 
Q 2525 409 2770 889 
Q 3016 1369 3016 2328 
Q 3016 3291 2770 3770 
Q 2525 4250 2034 4250 
z
M 2034 4750 
Q 2819 4750 3233 4129 
Q 3647 3509 3647 2328 
Q 3647 1150 3233 529 
Q 2819 -91 2034 -91 
Q 1250 -91 836 529 
Q 422 1150 422 2328 
Q 422 3509 836 4129 
Q 1250 4750 2034 4750 
z
" transform="scale(0.015625)"/>
      </defs>
      <use xlink:href="#DejaVuSans-49"/>
      <use xlink:href="#DejaVuSans-4c" x="29.492188"/>
      <use xlink:href="#DejaVuSans-45" x="85.205078"/>
      <use xlink:href="#DejaVuSans-20" x="148.388672"/>
      <use xlink:href="#DejaVuSans-33" x="180.175781"/>
      <use xlink:href="#DejaVuSans-30" x="243.798828"/>
     </g>
    </g>
   </g>
   <g id="text_6">
    <g clip-path="url(#p50c15c62f8)">
     <!-- LEU 43 -->
     <g transform="translate(1698.595873 695.419181) scale(0.08 -0.08)">
      <defs>
       <path id="DejaVuSans-34" d="M 2419 4116 
L 825 1625 
L 2419 1625 
L 2419 4116 
z
M 2253 4666 
L 3047 4666 
L 3047 1625 
L 3713 1625 
L 3713 1100 
L 3047 1100 
L 3047 0 
L 2419 0 
L 2419 1100 
L 313 1100 
L 313 1709 
L 2253 4666 
z
" transform="scale(0.015625)"/>
      </defs>
      <use xlink:href="#DejaVuSans-4c"/>
      <use xlink:href="#DejaVuSans-45" x="55.712891"/>
      <use xlink:href="#DejaVuSans-55" x="118.896484"/>
      <use xlink:href="#DejaVuSans-20" x="192.089844"/>
      <use xlink:href="#DejaVuSans-34" x="223.876953"/>
      <use xlink:href="#DejaVuSans-33" x="287.5"/>
     </g>
    </g>
   </g>
   <g id="text_7">
    <g clip-path="url(#p50c15c62f8)">
     <!-- LEU 56 -->
     <g transform="translate(937.085471 1024.171502) scale(0.08 -0.08)">
      <use xlink:href="#DejaVuSans-4c"/>
      <use xlink:href="#DejaVuSans-45" x="55.712891"/>
      <use xlink:href="#DejaVuSans-55" x="118.896484"/>
      <use xlink:href="#DejaVuSans-20" x="192.089844"/>
      <use xlink:href="#DejaVuSans-35" x="223.876953"/>
      <use xlink:href="#DejaVuSans-36" x="287.5"/>
     </g>
    </g>
   </g>
   <g id="text_8">
    <g clip-path="url(#p50c15c62f8)">
     <!-- VAL 5 -->
     <g transform="translate(1997.630715 417.790009) scale(0.08 -0.08)">
      <use xlink:href="#DejaVuSans-56"/>
      <use xlink:href="#DejaVuSans-41" x="62.033203"/>
      <use xlink:href="#DejaVuSans-4c" x="130.441406"/>
      <use xlink:href="#DejaVuSans-20" x="186.154297"/>
      <use xlink:href="#DejaVuSans-35" x="217.941406"/>
     </g>
    </g>
   </g>
   <g id="text_9">
    <g clip-path="url(#p50c15c62f8)">
     <!-- ILE 13 -->
     <g transform="translate(2617.785145 569.290377) scale(0.08 -0.08)">
      <use xlink:href="#DejaVuSans-49"/>
      <use xlink:href="#DejaVuSans-4c" x="29.492188"/>
      <use xlink:href="#DejaVuSans-45" x="85.205078"/>
      <use xlink:href="#DejaVuSans-20" x="148.388672"/>
      <use xlink:href="#DejaVuSans-31" x="180.175781"/>
      <use xlink:href="#DejaVuSans-33" x="243.798828"/>
     </g>
    </g>
   </g>
   <g id="text_10">
    <g clip-path="url(#p50c15c62f8)">
     <!-- VAL 17 -->
     <g transform="translate(1204.003563 472.827636) scale(0.08 -0.08)">
      <defs>
       <path id="DejaVuSans-37" d="M 525 4666 
L 3525 4666 
L 3525 4397 
L 1831 0 
L 1172 0 
L 2766 4134 
L 525 4134 
L 525 4666 
z
" transform="scale(0.015625)"/>
      </defs>
      <use xlink:href="#DejaVuSans-56"/>
      <use xlink:href="#DejaVuSans-41" x="62.033203"/>
      <use xlink:href="#DejaVuSans-4c" x="130.441406"/>
      <use xlink:href="#DejaVuSans-20" x="186.154297"/>
      <use xlink:href="#DejaVuSans-31" x="217.941406"/>
      <use xlink:href="#DejaVuSans-37" x="281.564453"/>
     </g>
    </g>
   </g>
   <g id="text_11">
    <g clip-path="url(#p50c15c62f8)">
     <!-- ILE 61 -->
     <g transform="translate(638.911168 1768.647814) scale(0.08 -0.08)">
      <use xlink:href="#DejaVuSans-49"/>
      <use xlink:href="#DejaVuSans-4c" x="29.492188"/>
      <use xlink:href="#DejaVuSans-45" x="85.205078"/>
      <use xlink:href="#DejaVuSans-20" x="148.388672"/>
      <use xlink:href="#DejaVuSans-36" x="180.175781"/>
      <use xlink:href="#DejaVuSans-31" x="243.798828"/>
     </g>
    </g>
   </g>
   <g id="text_12">
    <g clip-path="url(#p50c15c62f8)">
     <!-- LEU 50 -->
     <g transform="translate(884.386408 1513.195192) scale(0.08 -0.08)">
      <use xlink:href="#DejaVuSans-4c"/>
      <use xlink:href="#DejaVuSans-45" x="55.712891"/>
      <use xlink:href="#DejaVuSans-55" x="118.896484"/>
      <use xlink:href="#DejaVuSans-20" x="192.089844"/>
      <use xlink:href="#DejaVuSans-35" x="223.876953"/>
      <use xlink:href="#DejaVuSans-30" x="287.5"/>
     </g>
    </g>
   </g>
   <g id="text_13">
    <g clip-path="url(#p50c15c62f8)">
     <!-- LEU 67 -->
     <g transform="translate(235.872355 2632.290145) scale(0.08 -0.08)">
      <use xlink:href="#DejaVuSans-4c"/>
      <use xlink:href="#DejaVuSans-45" x="55.712891"/>
      <use xlink:href="#DejaVuSans-55" x="118.896484"/>
      <use xlink:href="#DejaVuSans-20" x="192.089844"/>
      <use xlink:href="#DejaVuSans-36" x="223.876953"/>
      <use xlink:href="#DejaVuSans-37" x="287.5"/>
     </g>
    </g>
   </g>
  </g>
  <g id="text_14">
   <!-- G_NMR -->
   <g transform="translate(1418.51625 66.50625) scale(0.12 -0.12)">
    <defs>
     <path id="DejaVuSans-47" d="M 3809 666 
L 3809 1919 
L 2778 1919 
L 2778 2438 
L 4434 2438 
L 4434 434 
Q 4069 175 3628 42 
Q 3188 -91 2688 -91 
Q 1594 -91 976 548 
Q 359 1188 359 2328 
Q 359 3472 976 4111 
Q 1594 4750 2688 4750 
Q 3144 4750 3555 4637 
Q 3966 4525 4313 4306 
L 4313 3634 
Q 3963 3931 3569 4081 
Q 3175 4231 2741 4231 
Q 1884 4231 1454 3753 
Q 1025 3275 1025 2328 
Q 1025 1384 1454 906 
Q 1884 428 2741 428 
Q 3075 428 3337 486 
Q 3600 544 3809 666 
z
" transform="scale(0.015625)"/>
     <path id="DejaVuSans-5f" d="M 3263 -1063 
L 3263 -1509 
L -63 -1509 
L -63 -1063 
L 3263 -1063 
z
" transform="scale(0.015625)"/>
     <path id="DejaVuSans-4e" d="M 628 4666 
L 1478 4666 
L 3547 763 
L 3547 4666 
L 4159 4666 
L 4159 0 
L 3309 0 
L 1241 3903 
L 1241 0 
L 628 0 
L 628 4666 
z
" transform="scale(0.015625)"/>
     <path id="DejaVuSans-4d" d="M 628 4666 
L 1569 4666 
L 2759 1491 
L 3956 4666 
L 4897 4666 
L 4897 0 
L 4281 0 
L 4281 4097 
L 3078 897 
L 2444 897 
L 1241 4097 
L 1241 0 
L 628 0 
L 628 4666 
z
" transform="scale(0.015625)"/>
     <path id="DejaVuSans-52" d="M 2841 2188 
Q 3044 2119 3236 1894 
Q 3428 1669 3622 1275 
L 4263 0 
L 3584 0 
L 2988 1197 
Q 2756 1666 2539 1819 
Q 2322 1972 1947 1972 
L 1259 1972 
L 1259 0 
L 628 0 
L 628 4666 
L 2053 4666 
Q 2853 4666 3247 4331 
Q 3641 3997 3641 3322 
Q 3641 2881 3436 2590 
Q 3231 2300 2841 2188 
z
M 1259 4147 
L 1259 2491 
L 2053 2491 
Q 2509 2491 2742 2702 
Q 2975 2913 2975 3322 
Q 2975 3731 2742 3939 
Q 2509 4147 2053 4147 
L 1259 4147 
z
" transform="scale(0.015625)"/>
    </defs>
    <use xlink:href="#DejaVuSans-47"/>
    <use xlink:href="#DejaVuSans-5f" x="77.490234"/>
    <use xlink:href="#DejaVuSans-4e" x="127.490234"/>
    <use xlink:href="#DejaVuSans-4d" x="202.294922"/>
    <use xlink:href="#DejaVuSans-52" x="288.574219"/>
   </g>
  </g>
 </g>
 <defs>
  <clipPath id="p50c15c62f8">
   <rect x="0" y="0" width="2880" height="2880"/>
  </clipPath>
 </defs>
</svg>
