<?xml version="1.0" encoding="utf-8" standalone="no"?>
<!DOCTYPE svg PUBLIC "-//W3C//DTD SVG 1.1//EN"
  "http://www.w3.org/Graphics/SVG/1.1/DTD/svg11.dtd">
<svg xmlns:xlink="http://www.w3.org/1999/xlink" width="2880pt" height="2880pt" viewBox="0 0 2880 2880" xmlns="http://www.w3.org/2000/svg" version="1.1">
 <metadata>
  <rdf:RDF xmlns:dc="http://purl.org/dc/elements/1.1/" xmlns:cc="http://creativecommons.org/ns#" xmlns:rdf="http://www.w3.org/1999/02/22-rdf-syntax-ns#">
   <cc:Work>
    <dc:type rdf:resource="http://purl.org/dc/dcmitype/StillImage"/>
    <dc:date>2024-02-24T15:22:41.410411</dc:date>
    <dc:format>image/svg+xml</dc:format>
    <dc:creator>
     <cc:Agent>
      <dc:title>Matplotlib v3.8.2, https://matplotlib.org/</dc:title>
     </cc:Agent>
    </dc:creator>
   </cc:Work>
  </rdf:RDF>
 </metadata>
 <defs>
  <style type="text/css">*{stroke-linejoin: round; stroke-linecap: butt}</style>
 </defs>
 <g id="figure_1">
  <g id="patch_1">
   <path d="M 0 2880 
L 2880 2880 
L 2880 0 
L 0 0 
z
" style="fill: #ffffff"/>
  </g>
  <g id="axes_1">
   <g id="patch_2">
    <path d="M 563.889863 996.08463 
Q 640.49442 844.500729 716.998122 693.116399 
" clip-path="url(#p6d887cabfd)" style="fill: none; stroke: #000000; stroke-width: 0.2; stroke-linecap: round"/>
    <path d="M 713.408963 695.784346 
L 716.998122 693.116399 
L 716.978984 697.588494 
z
" clip-path="url(#p6d887cabfd)" style="stroke: #000000; stroke-width: 0.2; stroke-linecap: round"/>
   </g>
   <g id="patch_3">
    <path d="M 570.509208 1003.138609 
Q 967.715038 833.01969 1364.71532 662.988804 
" clip-path="url(#p6d887cabfd)" style="fill: none; stroke: #000000; stroke-width: 0.2; stroke-linecap: round"/>
    <path d="M 1360.250964 662.725126 
L 1364.71532 662.988804 
L 1361.825764 666.402082 
z
" clip-path="url(#p6d887cabfd)" style="stroke: #000000; stroke-width: 0.2; stroke-linecap: round"/>
   </g>
   <g id="patch_4">
    <path d="M 554.920075 1022.607834 
Q 507.450255 1277.235615 460.021416 1531.643577 
" clip-path="url(#p6d887cabfd)" style="fill: none; stroke: #000000; stroke-width: 0.2; stroke-linecap: round"/>
    <path d="M 462.720624 1528.077869 
L 460.021416 1531.643577 
L 458.788374 1527.344786 
z
" clip-path="url(#p6d887cabfd)" style="stroke: #000000; stroke-width: 0.2; stroke-linecap: round"/>
   </g>
   <g id="patch_5">
    <path d="M 560.072263 994.792357 
Q 583.430246 867.86568 606.747759 741.158918 
" clip-path="url(#p6d887cabfd)" style="fill: none; stroke: #000000; stroke-width: 0.2; stroke-linecap: round"/>
    <path d="M 604.056836 744.730883 
L 606.747759 741.158918 
L 607.990777 745.454835 
z
" clip-path="url(#p6d887cabfd)" style="stroke: #000000; stroke-width: 0.2; stroke-linecap: round"/>
   </g>
   <g id="patch_6">
    <path d="M 548.361899 997.924913 
Q 403.715161 827.506189 259.213119 657.257943 
" clip-path="url(#p6d887cabfd)" style="fill: none; stroke: #000000; stroke-width: 0.2; stroke-linecap: round"/>
    <path d="M 260.276737 661.601756 
L 259.213119 657.257943 
L 263.326341 659.013337 
z
" clip-path="url(#p6d887cabfd)" style="stroke: #000000; stroke-width: 0.2; stroke-linecap: round"/>
   </g>
   <g id="patch_7">
    <path d="M 561.811957 1022.179138 
Q 620.541922 1206.206187 679.203903 1390.020213 
" clip-path="url(#p6d887cabfd)" style="fill: none; stroke: #000000; stroke-width: 0.2; stroke-linecap: round"/>
    <path d="M 679.893106 1385.601503 
L 679.203903 1390.020213 
L 676.082457 1386.817625 
z
" clip-path="url(#p6d887cabfd)" style="stroke: #000000; stroke-width: 0.2; stroke-linecap: round"/>
   </g>
   <g id="patch_8">
    <path d="M 736.515614 674.814062 
Q 962.752012 579.71465 1188.782274 484.701887 
" clip-path="url(#p6d887cabfd)" style="fill: none; stroke: #000000; stroke-width: 0.2; stroke-linecap: round"/>
    <path d="M 1184.319792 484.408196 
L 1188.782274 484.701887 
L 1185.869832 488.095658 
z
" clip-path="url(#p6d887cabfd)" style="stroke: #000000; stroke-width: 0.2; stroke-linecap: round"/>
   </g>
   <g id="patch_9">
    <path d="M 737.612983 679.798625 
Q 1050.700942 668.813574 1363.565433 657.836364 
" clip-path="url(#p6d887cabfd)" style="fill: none; stroke: #000000; stroke-width: 0.2; stroke-linecap: round"/>
    <path d="M 1359.497763 655.977853 
L 1363.565433 657.836364 
L 1359.638022 659.975393 
z
" clip-path="url(#p6d887cabfd)" style="stroke: #000000; stroke-width: 0.2; stroke-linecap: round"/>
   </g>
   <g id="patch_10">
    <path d="M 729.033613 693.303917 
Q 786.104658 826.939194 843.087882 960.368832 
" clip-path="url(#p6d887cabfd)" style="fill: none; stroke: #000000; stroke-width: 0.2; stroke-linecap: round"/>
    <path d="M 843.356177 955.904752 
L 843.087882 960.368832 
L 839.677594 957.475748 
z
" clip-path="url(#p6d887cabfd)" style="stroke: #000000; stroke-width: 0.2; stroke-linecap: round"/>
   </g>
   <g id="patch_11">
    <path d="M 717.099824 692.915153 
Q 640.495267 844.499053 563.991565 995.883383 
" clip-path="url(#p6d887cabfd)" style="fill: none; stroke: #000000; stroke-width: 0.2; stroke-linecap: round"/>
    <path d="M 567.580724 993.215436 
L 563.991565 995.883383 
L 564.010703 991.411288 
z
" clip-path="url(#p6d887cabfd)" style="stroke: #000000; stroke-width: 0.2; stroke-linecap: round"/>
   </g>
   <g id="patch_12">
    <path d="M 1363.786479 657.828609 
Q 1050.698519 668.813659 737.834029 679.790869 
" clip-path="url(#p6d887cabfd)" style="fill: none; stroke: #000000; stroke-width: 0.2; stroke-linecap: round"/>
    <path d="M 741.901698 681.649381 
L 737.834029 679.790869 
L 741.76144 677.651841 
z
" clip-path="url(#p6d887cabfd)" style="stroke: #000000; stroke-width: 0.2; stroke-linecap: round"/>
   </g>
   <g id="patch_13">
    <path d="M 1367.988385 647.269327 
Q 1289.97456 568.234325 1212.117818 489.358461 
" clip-path="url(#p6d887cabfd)" style="fill: none; stroke: #000000; stroke-width: 0.2; stroke-linecap: round"/>
    <path d="M 1213.504415 493.610207 
L 1212.117818 489.358461 
L 1216.351173 490.800231 
z
" clip-path="url(#p6d887cabfd)" style="stroke: #000000; stroke-width: 0.2; stroke-linecap: round"/>
   </g>
   <g id="patch_14">
    <path d="M 1391.370252 652.956904 
Q 2004.004691 453.624186 2616.426495 254.360653 
" clip-path="url(#p6d887cabfd)" style="fill: none; stroke: #000000; stroke-width: 0.2; stroke-linecap: round"/>
    <path d="M 2612.003964 253.696408 
L 2616.426495 254.360653 
L 2613.241581 257.500131 
z
" clip-path="url(#p6d887cabfd)" style="stroke: #000000; stroke-width: 0.2; stroke-linecap: round"/>
   </g>
   <g id="patch_15">
    <path d="M 1365.78119 664.587871 
Q 1113.324575 815.456957 861.059904 966.211335 
" clip-path="url(#p6d887cabfd)" style="fill: none; stroke: #000000; stroke-width: 0.2; stroke-linecap: round"/>
    <path d="M 865.519465 965.876203 
L 861.059904 966.211335 
L 863.467534 962.442607 
z
" clip-path="url(#p6d887cabfd)" style="stroke: #000000; stroke-width: 0.2; stroke-linecap: round"/>
   </g>
   <g id="patch_16">
    <path d="M 1364.924402 662.899256 
Q 967.718572 833.018176 570.71829 1003.049062 
" clip-path="url(#p6d887cabfd)" style="fill: none; stroke: #000000; stroke-width: 0.2; stroke-linecap: round"/>
    <path d="M 575.182646 1003.31274 
L 570.71829 1003.049062 
L 573.607846 999.635784 
z
" clip-path="url(#p6d887cabfd)" style="stroke: #000000; stroke-width: 0.2; stroke-linecap: round"/>
   </g>
   <g id="patch_17">
    <path d="M 1363.8399 658.609597 
Q 993.635575 692.179751 623.653944 725.729712 
" clip-path="url(#p6d887cabfd)" style="fill: none; stroke: #000000; stroke-width: 0.2; stroke-linecap: round"/>
    <path d="M 627.818218 727.360301 
L 623.653944 725.729712 
L 627.45698 723.376646 
z
" clip-path="url(#p6d887cabfd)" style="stroke: #000000; stroke-width: 0.2; stroke-linecap: round"/>
   </g>
   <g id="patch_18">
    <path d="M 459.98056 1531.86273 
Q 507.45038 1277.234948 554.879219 1022.826986 
" clip-path="url(#p6d887cabfd)" style="fill: none; stroke: #000000; stroke-width: 0.2; stroke-linecap: round"/>
    <path d="M 552.180011 1026.392695 
L 554.879219 1022.826986 
L 556.112261 1027.125778 
z
" clip-path="url(#p6d887cabfd)" style="stroke: #000000; stroke-width: 0.2; stroke-linecap: round"/>
   </g>
   <g id="patch_19">
    <path d="M 450.675083 1558.212321 
Q 379.584176 1690.013657 308.599421 1821.61819 
" clip-path="url(#p6d887cabfd)" style="fill: none; stroke: #000000; stroke-width: 0.2; stroke-linecap: round"/>
    <path d="M 312.258592 1819.047107 
L 308.599421 1821.61819 
L 308.738057 1817.148204 
z
" clip-path="url(#p6d887cabfd)" style="stroke: #000000; stroke-width: 0.2; stroke-linecap: round"/>
   </g>
   <g id="patch_20">
    <path d="M 469.368122 1538.241508 
Q 570.48056 1474.736292 671.403641 1411.350005 
" clip-path="url(#p6d887cabfd)" style="fill: none; stroke: #000000; stroke-width: 0.2; stroke-linecap: round"/>
    <path d="M 666.952594 1411.783803 
L 671.403641 1411.350005 
L 669.080051 1415.171122 
z
" clip-path="url(#p6d887cabfd)" style="stroke: #000000; stroke-width: 0.2; stroke-linecap: round"/>
   </g>
   <g id="patch_21">
    <path d="M 465.370882 1557.439205 
Q 600.90592 1755.65805 736.314747 1953.692313 
" clip-path="url(#p6d887cabfd)" style="fill: none; stroke: #000000; stroke-width: 0.2; stroke-linecap: round"/>
    <path d="M 735.707971 1949.261531 
L 736.314747 1953.692313 
L 732.406056 1951.519264 
z
" clip-path="url(#p6d887cabfd)" style="stroke: #000000; stroke-width: 0.2; stroke-linecap: round"/>
   </g>
   <g id="patch_22">
    <path d="M 622.393745 721.57063 
Q 905.684951 603.081831 1188.769867 484.679315 
" clip-path="url(#p6d887cabfd)" style="fill: none; stroke: #000000; stroke-width: 0.2; stroke-linecap: round"/>
    <path d="M 1184.307916 484.377668 
L 1188.769867 484.679315 
L 1185.851379 488.067888 
z
" clip-path="url(#p6d887cabfd)" style="stroke: #000000; stroke-width: 0.2; stroke-linecap: round"/>
   </g>
   <g id="patch_23">
    <path d="M 623.430223 725.749999 
Q 993.634548 692.179844 1363.616179 658.629884 
" clip-path="url(#p6d887cabfd)" style="fill: none; stroke: #000000; stroke-width: 0.2; stroke-linecap: round"/>
    <path d="M 1359.451905 656.999294 
L 1363.616179 658.629884 
L 1359.813143 660.982949 
z
" clip-path="url(#p6d887cabfd)" style="stroke: #000000; stroke-width: 0.2; stroke-linecap: round"/>
   </g>
   <g id="patch_24">
    <path d="M 606.788085 740.939787 
Q 583.430102 867.866463 560.112589 994.573226 
" clip-path="url(#p6d887cabfd)" style="fill: none; stroke: #000000; stroke-width: 0.2; stroke-linecap: round"/>
    <path d="M 562.803513 991.001261 
L 560.112589 994.573226 
L 558.869571 990.277308 
z
" clip-path="url(#p6d887cabfd)" style="stroke: #000000; stroke-width: 0.2; stroke-linecap: round"/>
   </g>
   <g id="patch_25">
    <path d="M 595.552214 723.928583 
Q 429.634455 686.666787 263.934869 649.453987 
" clip-path="url(#p6d887cabfd)" style="fill: none; stroke: #000000; stroke-width: 0.2; stroke-linecap: round"/>
    <path d="M 267.399415 652.28187 
L 263.934869 649.453987 
L 268.275903 648.37908 
z
" clip-path="url(#p6d887cabfd)" style="stroke: #000000; stroke-width: 0.2; stroke-linecap: round"/>
   </g>
   <g id="patch_26">
    <path d="M 263.846102 643.860327 
Q 725.969875 562.720675 1187.87341 481.619693 
" clip-path="url(#p6d887cabfd)" style="fill: none; stroke: #000000; stroke-width: 0.2; stroke-linecap: round"/>
    <path d="M 1183.587808 480.341565 
L 1187.87341 481.619693 
L 1184.279546 484.281298 
z
" clip-path="url(#p6d887cabfd)" style="stroke: #000000; stroke-width: 0.2; stroke-linecap: round"/>
   </g>
   <g id="patch_27">
    <path d="M 259.067374 657.08623 
Q 403.714112 827.504953 548.216154 997.753199 
" clip-path="url(#p6d887cabfd)" style="fill: none; stroke: #000000; stroke-width: 0.2; stroke-linecap: round"/>
    <path d="M 547.152536 993.409386 
L 548.216154 997.753199 
L 544.102932 995.997806 
z
" clip-path="url(#p6d887cabfd)" style="stroke: #000000; stroke-width: 0.2; stroke-linecap: round"/>
   </g>
   <g id="patch_28">
    <path d="M 263.713572 649.404288 
Q 429.631331 686.666085 595.330917 723.878884 
" clip-path="url(#p6d887cabfd)" style="fill: none; stroke: #000000; stroke-width: 0.2; stroke-linecap: round"/>
    <path d="M 591.866372 721.051001 
L 595.330917 723.878884 
L 590.989883 724.953791 
z
" clip-path="url(#p6d887cabfd)" style="stroke: #000000; stroke-width: 0.2; stroke-linecap: round"/>
   </g>
   <g id="patch_29">
    <path d="M 688.64122 1390.505537 
Q 766.15056 1188.644621 843.579746 986.992453 
" clip-path="url(#p6d887cabfd)" style="fill: none; stroke: #000000; stroke-width: 0.2; stroke-linecap: round"/>
    <path d="M 840.278824 990.009722 
L 843.579746 986.992453 
L 844.013009 991.443552 
z
" clip-path="url(#p6d887cabfd)" style="stroke: #000000; stroke-width: 0.2; stroke-linecap: round"/>
   </g>
   <g id="patch_30">
    <path d="M 671.592617 1411.231316 
Q 570.480179 1474.736532 469.557098 1538.122819 
" clip-path="url(#p6d887cabfd)" style="fill: none; stroke: #000000; stroke-width: 0.2; stroke-linecap: round"/>
    <path d="M 474.008145 1537.689021 
L 469.557098 1538.122819 
L 471.880688 1534.301702 
z
" clip-path="url(#p6d887cabfd)" style="stroke: #000000; stroke-width: 0.2; stroke-linecap: round"/>
   </g>
   <g id="patch_31">
    <path d="M 679.271983 1390.233536 
Q 620.542018 1206.206488 561.880036 1022.392462 
" clip-path="url(#p6d887cabfd)" style="fill: none; stroke: #000000; stroke-width: 0.2; stroke-linecap: round"/>
    <path d="M 561.190833 1026.811172 
L 561.880036 1022.392462 
L 565.001483 1025.59505 
z
" clip-path="url(#p6d887cabfd)" style="stroke: #000000; stroke-width: 0.2; stroke-linecap: round"/>
   </g>
   <g id="patch_32">
    <path d="M 685.095235 1417.771532 
Q 713.997346 1684.629194 742.875379 1951.264549 
" clip-path="url(#p6d887cabfd)" style="fill: none; stroke: #000000; stroke-width: 0.2; stroke-linecap: round"/>
    <path d="M 744.433048 1947.072454 
L 742.875379 1951.264549 
L 740.456304 1947.503156 
z
" clip-path="url(#p6d887cabfd)" style="stroke: #000000; stroke-width: 0.2; stroke-linecap: round"/>
   </g>
   <g id="patch_33">
    <path d="M 1188.988355 484.61526 
Q 962.751958 579.714673 736.721695 674.727435 
" clip-path="url(#p6d887cabfd)" style="fill: none; stroke: #000000; stroke-width: 0.2; stroke-linecap: round"/>
    <path d="M 741.184177 675.021126 
L 736.721695 674.727435 
L 739.634137 671.333664 
z
" clip-path="url(#p6d887cabfd)" style="stroke: #000000; stroke-width: 0.2; stroke-linecap: round"/>
   </g>
   <g id="patch_34">
    <path d="M 1215.991131 476.893236 
Q 1916.055275 364.525915 2615.898638 252.194031 
" clip-path="url(#p6d887cabfd)" style="fill: none; stroke: #000000; stroke-width: 0.2; stroke-linecap: round"/>
    <path d="M 2611.632227 250.853233 
L 2615.898638 252.194031 
L 2612.266153 254.802681 
z
" clip-path="url(#p6d887cabfd)" style="stroke: #000000; stroke-width: 0.2; stroke-linecap: round"/>
   </g>
   <g id="patch_35">
    <path d="M 1211.959508 489.198079 
Q 1289.973333 568.233081 1367.830075 647.108945 
" clip-path="url(#p6d887cabfd)" style="fill: none; stroke: #000000; stroke-width: 0.2; stroke-linecap: round"/>
    <path d="M 1366.443478 642.857199 
L 1367.830075 647.108945 
L 1363.59672 645.667175 
z
" clip-path="url(#p6d887cabfd)" style="stroke: #000000; stroke-width: 0.2; stroke-linecap: round"/>
   </g>
   <g id="patch_36">
    <path d="M 1188.980887 484.591054 
Q 905.689681 603.079853 622.604764 721.48237 
" clip-path="url(#p6d887cabfd)" style="fill: none; stroke: #000000; stroke-width: 0.2; stroke-linecap: round"/>
    <path d="M 627.066716 721.784016 
L 622.604764 721.48237 
L 625.523252 718.093796 
z
" clip-path="url(#p6d887cabfd)" style="stroke: #000000; stroke-width: 0.2; stroke-linecap: round"/>
   </g>
   <g id="patch_37">
    <path d="M 1188.097454 481.580356 
Q 725.973681 562.720007 264.070146 643.820989 
" clip-path="url(#p6d887cabfd)" style="fill: none; stroke: #000000; stroke-width: 0.2; stroke-linecap: round"/>
    <path d="M 268.355748 645.099118 
L 264.070146 643.820989 
L 267.66401 641.159385 
z
" clip-path="url(#p6d887cabfd)" style="stroke: #000000; stroke-width: 0.2; stroke-linecap: round"/>
   </g>
   <g id="patch_38">
    <path d="M 843.174001 960.570486 
Q 786.102956 826.935209 729.119732 693.50557 
" clip-path="url(#p6d887cabfd)" style="fill: none; stroke: #000000; stroke-width: 0.2; stroke-linecap: round"/>
    <path d="M 728.851437 697.969651 
L 729.119732 693.50557 
L 732.53002 696.398655 
z
" clip-path="url(#p6d887cabfd)" style="stroke: #000000; stroke-width: 0.2; stroke-linecap: round"/>
   </g>
   <g id="patch_39">
    <path d="M 860.870347 966.324615 
Q 1113.326962 815.45553 1365.591634 664.701151 
" clip-path="url(#p6d887cabfd)" style="fill: none; stroke: #000000; stroke-width: 0.2; stroke-linecap: round"/>
    <path d="M 1361.132072 665.036284 
L 1365.591634 664.701151 
L 1363.184003 668.46988 
z
" clip-path="url(#p6d887cabfd)" style="stroke: #000000; stroke-width: 0.2; stroke-linecap: round"/>
   </g>
   <g id="patch_40">
    <path d="M 843.660647 986.781759 
Q 766.151307 1188.642675 688.722121 1390.294843 
" clip-path="url(#p6d887cabfd)" style="fill: none; stroke: #000000; stroke-width: 0.2; stroke-linecap: round"/>
    <path d="M 692.023042 1387.277573 
L 688.722121 1390.294843 
L 688.288858 1385.843744 
z
" clip-path="url(#p6d887cabfd)" style="stroke: #000000; stroke-width: 0.2; stroke-linecap: round"/>
   </g>
   <g id="patch_41">
    <path d="M 736.440396 1953.876074 
Q 600.905358 1755.657229 465.496532 1557.622967 
" clip-path="url(#p6d887cabfd)" style="fill: none; stroke: #000000; stroke-width: 0.2; stroke-linecap: round"/>
    <path d="M 466.103307 1562.053748 
L 465.496532 1557.622967 
L 469.405222 1559.796015 
z
" clip-path="url(#p6d887cabfd)" style="stroke: #000000; stroke-width: 0.2; stroke-linecap: round"/>
   </g>
   <g id="patch_42">
    <path d="M 730.863514 1961.528309 
Q 523.099657 1899.905536 315.550176 1838.346347 
" clip-path="url(#p6d887cabfd)" style="fill: none; stroke: #000000; stroke-width: 0.2; stroke-linecap: round"/>
    <path d="M 318.816339 1841.401209 
L 315.550176 1838.346347 
L 319.953763 1837.566334 
z
" clip-path="url(#p6d887cabfd)" style="stroke: #000000; stroke-width: 0.2; stroke-linecap: round"/>
   </g>
   <g id="patch_43">
    <path d="M 742.899348 1951.485858 
Q 713.997237 1684.628196 685.119204 1417.992841 
" clip-path="url(#p6d887cabfd)" style="fill: none; stroke: #000000; stroke-width: 0.2; stroke-linecap: round"/>
    <path d="M 683.561535 1422.184937 
L 685.119204 1417.992841 
L 687.538279 1421.754234 
z
" clip-path="url(#p6d887cabfd)" style="stroke: #000000; stroke-width: 0.2; stroke-linecap: round"/>
   </g>
   <g id="patch_44">
    <path d="M 750.104131 1978.501193 
Q 890.183653 2297.815724 1030.173345 2616.925487 
" clip-path="url(#p6d887cabfd)" style="fill: none; stroke: #000000; stroke-width: 0.2; stroke-linecap: round"/>
    <path d="M 1030.397932 2612.458993 
L 1030.173345 2616.925487 
L 1026.734903 2614.065921 
z
" clip-path="url(#p6d887cabfd)" style="stroke: #000000; stroke-width: 0.2; stroke-linecap: round"/>
   </g>
   <g id="patch_45">
    <path d="M 308.493248 1821.815033 
Q 379.584155 1690.013696 450.56891 1558.409163 
" clip-path="url(#p6d887cabfd)" style="fill: none; stroke: #000000; stroke-width: 0.2; stroke-linecap: round"/>
    <path d="M 446.909739 1560.980247 
L 450.56891 1558.409163 
L 450.430274 1562.87915 
z
" clip-path="url(#p6d887cabfd)" style="stroke: #000000; stroke-width: 0.2; stroke-linecap: round"/>
   </g>
   <g id="patch_46">
    <path d="M 315.338661 1838.283612 
Q 523.102518 1899.906384 730.651999 1961.465573 
" clip-path="url(#p6d887cabfd)" style="fill: none; stroke: #000000; stroke-width: 0.2; stroke-linecap: round"/>
    <path d="M 727.385836 1958.410712 
L 730.651999 1961.465573 
L 726.248412 1962.245587 
z
" clip-path="url(#p6d887cabfd)" style="stroke: #000000; stroke-width: 0.2; stroke-linecap: round"/>
   </g>
   <g id="PathCollection_1">
    <defs>
     <path id="C0_0_fbaaa59fc9" d="M 0 14.142136 
C 3.750538 14.142136 7.347969 12.652031 10 10 
C 12.652031 7.347969 14.142136 3.750538 14.142136 -0 
C 14.142136 -3.750538 12.652031 -7.347969 10 -10 
C 7.347969 -12.652031 3.750538 -14.142136 0 -14.142136 
C -3.750538 -14.142136 -7.347969 -12.652031 -10 -10 
C -12.652031 -7.347969 -14.142136 -3.750538 -14.142136 0 
C -14.142136 3.750538 -12.652031 7.347969 -10 10 
C -7.347969 12.652031 -3.750538 14.142136 0 14.142136 
z
"/>
    </defs>
    <g clip-path="url(#p6d887cabfd)">
     <use xlink:href="#C0_0_fbaaa59fc9" x="557.511918" y="1008.705207" style="fill: #0000ff; stroke: #0000ff"/>
    </g>
    <g clip-path="url(#p6d887cabfd)">
     <use xlink:href="#C0_0_fbaaa59fc9" x="723.477769" y="680.294575" style="fill: #ffa500; stroke: #ffa500"/>
    </g>
    <g clip-path="url(#p6d887cabfd)">
     <use xlink:href="#C0_0_fbaaa59fc9" x="1377.921692" y="657.332659" style="fill: #ffff00; stroke: #ffff00"/>
    </g>
    <g clip-path="url(#p6d887cabfd)">
     <use xlink:href="#C0_0_fbaaa59fc9" x="457.388717" y="1545.765356" style="fill: #ffa500; stroke: #ffa500"/>
    </g>
    <g clip-path="url(#p6d887cabfd)">
     <use xlink:href="#C0_0_fbaaa59fc9" x="609.348431" y="727.026936" style="fill: #ffa500; stroke: #ffa500"/>
    </g>
    <g clip-path="url(#p6d887cabfd)">
     <use xlink:href="#C0_0_fbaaa59fc9" x="249.917355" y="646.305935" style="fill: #ffff00; stroke: #ffff00"/>
    </g>
    <g clip-path="url(#p6d887cabfd)">
     <use xlink:href="#C0_0_fbaaa59fc9" x="683.572022" y="1403.707467" style="fill: #ffff00; stroke: #ffff00"/>
    </g>
    <g clip-path="url(#p6d887cabfd)">
     <use xlink:href="#C0_0_fbaaa59fc9" x="1202.026201" y="479.134748" style="fill: #0000ff; stroke: #0000ff"/>
    </g>
    <g clip-path="url(#p6d887cabfd)">
     <use xlink:href="#C0_0_fbaaa59fc9" x="2630.082645" y="249.917355" style="fill: #ffa500; stroke: #ffa500"/>
    </g>
    <g clip-path="url(#p6d887cabfd)">
     <use xlink:href="#C0_0_fbaaa59fc9" x="848.729845" y="973.579828" style="fill: #0000ff; stroke: #0000ff"/>
    </g>
    <g clip-path="url(#p6d887cabfd)">
     <use xlink:href="#C0_0_fbaaa59fc9" x="744.422561" y="1965.549923" style="fill: #ffa500; stroke: #ffa500"/>
    </g>
    <g clip-path="url(#p6d887cabfd)">
     <use xlink:href="#C0_0_fbaaa59fc9" x="301.779614" y="1834.261997" style="fill: #ffff00; stroke: #ffff00"/>
    </g>
    <g clip-path="url(#p6d887cabfd)">
     <use xlink:href="#C0_0_fbaaa59fc9" x="1035.945235" y="2630.082645" style="fill: #ffff00; stroke: #ffff00"/>
    </g>
   </g>
   <g id="text_1">
    <g clip-path="url(#p6d887cabfd)">
     <!-- VAL 26 -->
     <g transform="translate(543.704418 1010.912707) scale(0.08 -0.08)">
      <defs>
       <path id="DejaVuSans-56" d="M 1831 0 
L 50 4666 
L 709 4666 
L 2188 738 
L 3669 4666 
L 4325 4666 
L 2547 0 
L 1831 0 
z
" transform="scale(0.015625)"/>
       <path id="DejaVuSans-41" d="M 2188 4044 
L 1331 1722 
L 3047 1722 
L 2188 4044 
z
M 1831 4666 
L 2547 4666 
L 4325 0 
L 3669 0 
L 3244 1197 
L 1141 1197 
L 716 0 
L 50 0 
L 1831 4666 
z
" transform="scale(0.015625)"/>
       <path id="DejaVuSans-4c" d="M 628 4666 
L 1259 4666 
L 1259 531 
L 3531 531 
L 3531 0 
L 628 0 
L 628 4666 
z
" transform="scale(0.015625)"/>
       <path id="DejaVuSans-20" transform="scale(0.015625)"/>
       <path id="DejaVuSans-32" d="M 1228 531 
L 3431 531 
L 3431 0 
L 469 0 
L 469 531 
Q 828 903 1448 1529 
Q 2069 2156 2228 2338 
Q 2531 2678 2651 2914 
Q 2772 3150 2772 3378 
Q 2772 3750 2511 3984 
Q 2250 4219 1831 4219 
Q 1534 4219 1204 4116 
Q 875 4013 500 3803 
L 500 4441 
Q 881 4594 1212 4672 
Q 1544 4750 1819 4750 
Q 2544 4750 2975 4387 
Q 3406 4025 3406 3419 
Q 3406 3131 3298 2873 
Q 3191 2616 2906 2266 
Q 2828 2175 2409 1742 
Q 1991 1309 1228 531 
z
" transform="scale(0.015625)"/>
       <path id="DejaVuSans-36" d="M 2113 2584 
Q 1688 2584 1439 2293 
Q 1191 2003 1191 1497 
Q 1191 994 1439 701 
Q 1688 409 2113 409 
Q 2538 409 2786 701 
Q 3034 994 3034 1497 
Q 3034 2003 2786 2293 
Q 2538 2584 2113 2584 
z
M 3366 4563 
L 3366 3988 
Q 3128 4100 2886 4159 
Q 2644 4219 2406 4219 
Q 1781 4219 1451 3797 
Q 1122 3375 1075 2522 
Q 1259 2794 1537 2939 
Q 1816 3084 2150 3084 
Q 2853 3084 3261 2657 
Q 3669 2231 3669 1497 
Q 3669 778 3244 343 
Q 2819 -91 2113 -91 
Q 1303 -91 875 529 
Q 447 1150 447 2328 
Q 447 3434 972 4092 
Q 1497 4750 2381 4750 
Q 2619 4750 2861 4703 
Q 3103 4656 3366 4563 
z
" transform="scale(0.015625)"/>
      </defs>
      <use xlink:href="#DejaVuSans-56"/>
      <use xlink:href="#DejaVuSans-41" x="62.033203"/>
      <use xlink:href="#DejaVuSans-4c" x="130.441406"/>
      <use xlink:href="#DejaVuSans-20" x="186.154297"/>
      <use xlink:href="#DejaVuSans-32" x="217.941406"/>
      <use xlink:href="#DejaVuSans-36" x="281.564453"/>
     </g>
    </g>
   </g>
   <g id="text_2">
    <g clip-path="url(#p6d887cabfd)">
     <!-- ILE 3 -->
     <g transform="translate(713.725269 682.502075) scale(0.08 -0.08)">
      <defs>
       <path id="DejaVuSans-49" d="M 628 4666 
L 1259 4666 
L 1259 0 
L 628 0 
L 628 4666 
z
" transform="scale(0.015625)"/>
       <path id="DejaVuSans-45" d="M 628 4666 
L 3578 4666 
L 3578 4134 
L 1259 4134 
L 1259 2753 
L 3481 2753 
L 3481 2222 
L 1259 2222 
L 1259 531 
L 3634 531 
L 3634 0 
L 628 0 
L 628 4666 
z
" transform="scale(0.015625)"/>
       <path id="DejaVuSans-33" d="M 2597 2516 
Q 3050 2419 3304 2112 
Q 3559 1806 3559 1356 
Q 3559 666 3084 287 
Q 2609 -91 1734 -91 
Q 1441 -91 1130 -33 
Q 819 25 488 141 
L 488 750 
Q 750 597 1062 519 
Q 1375 441 1716 441 
Q 2309 441 2620 675 
Q 2931 909 2931 1356 
Q 2931 1769 2642 2001 
Q 2353 2234 1838 2234 
L 1294 2234 
L 1294 2753 
L 1863 2753 
Q 2328 2753 2575 2939 
Q 2822 3125 2822 3475 
Q 2822 3834 2567 4026 
Q 2313 4219 1838 4219 
Q 1578 4219 1281 4162 
Q 984 4106 628 3988 
L 628 4550 
Q 988 4650 1302 4700 
Q 1616 4750 1894 4750 
Q 2613 4750 3031 4423 
Q 3450 4097 3450 3541 
Q 3450 3153 3228 2886 
Q 3006 2619 2597 2516 
z
" transform="scale(0.015625)"/>
      </defs>
      <use xlink:href="#DejaVuSans-49"/>
      <use xlink:href="#DejaVuSans-4c" x="29.492188"/>
      <use xlink:href="#DejaVuSans-45" x="85.205078"/>
      <use xlink:href="#DejaVuSans-20" x="148.388672"/>
      <use xlink:href="#DejaVuSans-33" x="180.175781"/>
     </g>
    </g>
   </g>
   <g id="text_3">
    <g clip-path="url(#p6d887cabfd)">
     <!-- LEU 15 -->
     <g transform="translate(1363.876692 659.540159) scale(0.08 -0.08)">
      <defs>
       <path id="DejaVuSans-55" d="M 556 4666 
L 1191 4666 
L 1191 1831 
Q 1191 1081 1462 751 
Q 1734 422 2344 422 
Q 2950 422 3222 751 
Q 3494 1081 3494 1831 
L 3494 4666 
L 4128 4666 
L 4128 1753 
Q 4128 841 3676 375 
Q 3225 -91 2344 -91 
Q 1459 -91 1007 375 
Q 556 841 556 1753 
L 556 4666 
z
" transform="scale(0.015625)"/>
       <path id="DejaVuSans-31" d="M 794 531 
L 1825 531 
L 1825 4091 
L 703 3866 
L 703 4441 
L 1819 4666 
L 2450 4666 
L 2450 531 
L 3481 531 
L 3481 0 
L 794 0 
L 794 531 
z
" transform="scale(0.015625)"/>
       <path id="DejaVuSans-35" d="M 691 4666 
L 3169 4666 
L 3169 4134 
L 1269 4134 
L 1269 2991 
Q 1406 3038 1543 3061 
Q 1681 3084 1819 3084 
Q 2600 3084 3056 2656 
Q 3513 2228 3513 1497 
Q 3513 744 3044 326 
Q 2575 -91 1722 -91 
Q 1428 -91 1123 -41 
Q 819 9 494 109 
L 494 744 
Q 775 591 1075 516 
Q 1375 441 1709 441 
Q 2250 441 2565 725 
Q 2881 1009 2881 1497 
Q 2881 1984 2565 2268 
Q 2250 2553 1709 2553 
Q 1456 2553 1204 2497 
Q 953 2441 691 2322 
L 691 4666 
z
" transform="scale(0.015625)"/>
      </defs>
      <use xlink:href="#DejaVuSans-4c"/>
      <use xlink:href="#DejaVuSans-45" x="55.712891"/>
      <use xlink:href="#DejaVuSans-55" x="118.896484"/>
      <use xlink:href="#DejaVuSans-20" x="192.089844"/>
      <use xlink:href="#DejaVuSans-31" x="223.876953"/>
      <use xlink:href="#DejaVuSans-35" x="287.5"/>
     </g>
    </g>
   </g>
   <g id="text_4">
    <g clip-path="url(#p6d887cabfd)">
     <!-- ILE 23 -->
     <g transform="translate(445.091217 1547.972856) scale(0.08 -0.08)">
      <use xlink:href="#DejaVuSans-49"/>
      <use xlink:href="#DejaVuSans-4c" x="29.492188"/>
      <use xlink:href="#DejaVuSans-45" x="85.205078"/>
      <use xlink:href="#DejaVuSans-20" x="148.388672"/>
      <use xlink:href="#DejaVuSans-32" x="180.175781"/>
      <use xlink:href="#DejaVuSans-33" x="243.798828"/>
     </g>
    </g>
   </g>
   <g id="text_5">
    <g clip-path="url(#p6d887cabfd)">
     <!-- ILE 30 -->
     <g transform="translate(597.050931 729.234436) scale(0.08 -0.08)">
      <defs>
       <path id="DejaVuSans-30" d="M 2034 4250 
Q 1547 4250 1301 3770 
Q 1056 3291 1056 2328 
Q 1056 1369 1301 889 
Q 1547 409 2034 409 
Q 2525 409 2770 889 
Q 3016 1369 3016 2328 
Q 3016 3291 2770 3770 
Q 2525 4250 2034 4250 
z
M 2034 4750 
Q 2819 4750 3233 4129 
Q 3647 3509 3647 2328 
Q 3647 1150 3233 529 
Q 2819 -91 2034 -91 
Q 1250 -91 836 529 
Q 422 1150 422 2328 
Q 422 3509 836 4129 
Q 1250 4750 2034 4750 
z
" transform="scale(0.015625)"/>
      </defs>
      <use xlink:href="#DejaVuSans-49"/>
      <use xlink:href="#DejaVuSans-4c" x="29.492188"/>
      <use xlink:href="#DejaVuSans-45" x="85.205078"/>
      <use xlink:href="#DejaVuSans-20" x="148.388672"/>
      <use xlink:href="#DejaVuSans-33" x="180.175781"/>
      <use xlink:href="#DejaVuSans-30" x="243.798828"/>
     </g>
    </g>
   </g>
   <g id="text_6">
    <g clip-path="url(#p6d887cabfd)">
     <!-- LEU 43 -->
     <g transform="translate(235.872355 648.513435) scale(0.08 -0.08)">
      <defs>
       <path id="DejaVuSans-34" d="M 2419 4116 
L 825 1625 
L 2419 1625 
L 2419 4116 
z
M 2253 4666 
L 3047 4666 
L 3047 1625 
L 3713 1625 
L 3713 1100 
L 3047 1100 
L 3047 0 
L 2419 0 
L 2419 1100 
L 313 1100 
L 313 1709 
L 2253 4666 
z
" transform="scale(0.015625)"/>
      </defs>
      <use xlink:href="#DejaVuSans-4c"/>
      <use xlink:href="#DejaVuSans-45" x="55.712891"/>
      <use xlink:href="#DejaVuSans-55" x="118.896484"/>
      <use xlink:href="#DejaVuSans-20" x="192.089844"/>
      <use xlink:href="#DejaVuSans-34" x="223.876953"/>
      <use xlink:href="#DejaVuSans-33" x="287.5"/>
     </g>
    </g>
   </g>
   <g id="text_7">
    <g clip-path="url(#p6d887cabfd)">
     <!-- LEU 56 -->
     <g transform="translate(669.527022 1405.914967) scale(0.08 -0.08)">
      <use xlink:href="#DejaVuSans-4c"/>
      <use xlink:href="#DejaVuSans-45" x="55.712891"/>
      <use xlink:href="#DejaVuSans-55" x="118.896484"/>
      <use xlink:href="#DejaVuSans-20" x="192.089844"/>
      <use xlink:href="#DejaVuSans-35" x="223.876953"/>
      <use xlink:href="#DejaVuSans-36" x="287.5"/>
     </g>
    </g>
   </g>
   <g id="text_8">
    <g clip-path="url(#p6d887cabfd)">
     <!-- VAL 5 -->
     <g transform="translate(1190.763701 481.342248) scale(0.08 -0.08)">
      <use xlink:href="#DejaVuSans-56"/>
      <use xlink:href="#DejaVuSans-41" x="62.033203"/>
      <use xlink:href="#DejaVuSans-4c" x="130.441406"/>
      <use xlink:href="#DejaVuSans-20" x="186.154297"/>
      <use xlink:href="#DejaVuSans-35" x="217.941406"/>
     </g>
    </g>
   </g>
   <g id="text_9">
    <g clip-path="url(#p6d887cabfd)">
     <!-- ILE 13 -->
     <g transform="translate(2617.785145 252.124855) scale(0.08 -0.08)">
      <use xlink:href="#DejaVuSans-49"/>
      <use xlink:href="#DejaVuSans-4c" x="29.492188"/>
      <use xlink:href="#DejaVuSans-45" x="85.205078"/>
      <use xlink:href="#DejaVuSans-20" x="148.388672"/>
      <use xlink:href="#DejaVuSans-31" x="180.175781"/>
      <use xlink:href="#DejaVuSans-33" x="243.798828"/>
     </g>
    </g>
   </g>
   <g id="text_10">
    <g clip-path="url(#p6d887cabfd)">
     <!-- VAL 17 -->
     <g transform="translate(834.922345 975.787328) scale(0.08 -0.08)">
      <defs>
       <path id="DejaVuSans-37" d="M 525 4666 
L 3525 4666 
L 3525 4397 
L 1831 0 
L 1172 0 
L 2766 4134 
L 525 4134 
L 525 4666 
z
" transform="scale(0.015625)"/>
      </defs>
      <use xlink:href="#DejaVuSans-56"/>
      <use xlink:href="#DejaVuSans-41" x="62.033203"/>
      <use xlink:href="#DejaVuSans-4c" x="130.441406"/>
      <use xlink:href="#DejaVuSans-20" x="186.154297"/>
      <use xlink:href="#DejaVuSans-31" x="217.941406"/>
      <use xlink:href="#DejaVuSans-37" x="281.564453"/>
     </g>
    </g>
   </g>
   <g id="text_11">
    <g clip-path="url(#p6d887cabfd)">
     <!-- ILE 61 -->
     <g transform="translate(732.125061 1967.757423) scale(0.08 -0.08)">
      <use xlink:href="#DejaVuSans-49"/>
      <use xlink:href="#DejaVuSans-4c" x="29.492188"/>
      <use xlink:href="#DejaVuSans-45" x="85.205078"/>
      <use xlink:href="#DejaVuSans-20" x="148.388672"/>
      <use xlink:href="#DejaVuSans-36" x="180.175781"/>
      <use xlink:href="#DejaVuSans-31" x="243.798828"/>
     </g>
    </g>
   </g>
   <g id="text_12">
    <g clip-path="url(#p6d887cabfd)">
     <!-- LEU 50 -->
     <g transform="translate(287.734614 1836.469497) scale(0.08 -0.08)">
      <use xlink:href="#DejaVuSans-4c"/>
      <use xlink:href="#DejaVuSans-45" x="55.712891"/>
      <use xlink:href="#DejaVuSans-55" x="118.896484"/>
      <use xlink:href="#DejaVuSans-20" x="192.089844"/>
      <use xlink:href="#DejaVuSans-35" x="223.876953"/>
      <use xlink:href="#DejaVuSans-30" x="287.5"/>
     </g>
    </g>
   </g>
   <g id="text_13">
    <g clip-path="url(#p6d887cabfd)">
     <!-- LEU 67 -->
     <g transform="translate(1021.900235 2632.290145) scale(0.08 -0.08)">
      <use xlink:href="#DejaVuSans-4c"/>
      <use xlink:href="#DejaVuSans-45" x="55.712891"/>
      <use xlink:href="#DejaVuSans-55" x="118.896484"/>
      <use xlink:href="#DejaVuSans-20" x="192.089844"/>
      <use xlink:href="#DejaVuSans-36" x="223.876953"/>
      <use xlink:href="#DejaVuSans-37" x="287.5"/>
     </g>
    </g>
   </g>
  </g>
  <g id="text_14">
   <!-- G_NMR -->
   <g transform="translate(1418.51625 66.50625) scale(0.12 -0.12)">
    <defs>
     <path id="DejaVuSans-47" d="M 3809 666 
L 3809 1919 
L 2778 1919 
L 2778 2438 
L 4434 2438 
L 4434 434 
Q 4069 175 3628 42 
Q 3188 -91 2688 -91 
Q 1594 -91 976 548 
Q 359 1188 359 2328 
Q 359 3472 976 4111 
Q 1594 4750 2688 4750 
Q 3144 4750 3555 4637 
Q 3966 4525 4313 4306 
L 4313 3634 
Q 3963 3931 3569 4081 
Q 3175 4231 2741 4231 
Q 1884 4231 1454 3753 
Q 1025 3275 1025 2328 
Q 1025 1384 1454 906 
Q 1884 428 2741 428 
Q 3075 428 3337 486 
Q 3600 544 3809 666 
z
" transform="scale(0.015625)"/>
     <path id="DejaVuSans-5f" d="M 3263 -1063 
L 3263 -1509 
L -63 -1509 
L -63 -1063 
L 3263 -1063 
z
" transform="scale(0.015625)"/>
     <path id="DejaVuSans-4e" d="M 628 4666 
L 1478 4666 
L 3547 763 
L 3547 4666 
L 4159 4666 
L 4159 0 
L 3309 0 
L 1241 3903 
L 1241 0 
L 628 0 
L 628 4666 
z
" transform="scale(0.015625)"/>
     <path id="DejaVuSans-4d" d="M 628 4666 
L 1569 4666 
L 2759 1491 
L 3956 4666 
L 4897 4666 
L 4897 0 
L 4281 0 
L 4281 4097 
L 3078 897 
L 2444 897 
L 1241 4097 
L 1241 0 
L 628 0 
L 628 4666 
z
" transform="scale(0.015625)"/>
     <path id="DejaVuSans-52" d="M 2841 2188 
Q 3044 2119 3236 1894 
Q 3428 1669 3622 1275 
L 4263 0 
L 3584 0 
L 2988 1197 
Q 2756 1666 2539 1819 
Q 2322 1972 1947 1972 
L 1259 1972 
L 1259 0 
L 628 0 
L 628 4666 
L 2053 4666 
Q 2853 4666 3247 4331 
Q 3641 3997 3641 3322 
Q 3641 2881 3436 2590 
Q 3231 2300 2841 2188 
z
M 1259 4147 
L 1259 2491 
L 2053 2491 
Q 2509 2491 2742 2702 
Q 2975 2913 2975 3322 
Q 2975 3731 2742 3939 
Q 2509 4147 2053 4147 
L 1259 4147 
z
" transform="scale(0.015625)"/>
    </defs>
    <use xlink:href="#DejaVuSans-47"/>
    <use xlink:href="#DejaVuSans-5f" x="77.490234"/>
    <use xlink:href="#DejaVuSans-4e" x="127.490234"/>
    <use xlink:href="#DejaVuSans-4d" x="202.294922"/>
    <use xlink:href="#DejaVuSans-52" x="288.574219"/>
   </g>
  </g>
 </g>
 <defs>
  <clipPath id="p6d887cabfd">
   <rect x="0" y="0" width="2880" height="2880"/>
  </clipPath>
 </defs>
</svg>
