<?xml version="1.0" encoding="utf-8" standalone="no"?>
<!DOCTYPE svg PUBLIC "-//W3C//DTD SVG 1.1//EN"
  "http://www.w3.org/Graphics/SVG/1.1/DTD/svg11.dtd">
<svg xmlns:xlink="http://www.w3.org/1999/xlink" width="2880pt" height="2880pt" viewBox="0 0 2880 2880" xmlns="http://www.w3.org/2000/svg" version="1.1">
 <metadata>
  <rdf:RDF xmlns:dc="http://purl.org/dc/elements/1.1/" xmlns:cc="http://creativecommons.org/ns#" xmlns:rdf="http://www.w3.org/1999/02/22-rdf-syntax-ns#">
   <cc:Work>
    <dc:type rdf:resource="http://purl.org/dc/dcmitype/StillImage"/>
    <dc:date>2024-02-24T15:22:27.236217</dc:date>
    <dc:format>image/svg+xml</dc:format>
    <dc:creator>
     <cc:Agent>
      <dc:title>Matplotlib v3.8.2, https://matplotlib.org/</dc:title>
     </cc:Agent>
    </dc:creator>
   </cc:Work>
  </rdf:RDF>
 </metadata>
 <defs>
  <style type="text/css">*{stroke-linejoin: round; stroke-linecap: butt}</style>
 </defs>
 <g id="figure_1">
  <g id="patch_1">
   <path d="M 0 2880 
L 2880 2880 
L 2880 0 
L 0 0 
z
" style="fill: #ffffff"/>
  </g>
  <g id="axes_1">
   <g id="patch_2">
    <path d="M 1508.165114 1315.815593 
Q 1623.749522 1620.928755 1739.254716 1925.832813 
" clip-path="url(#p98a9af08aa)" style="fill: none; stroke: #000000; stroke-width: 0.2; stroke-linecap: round"/>
    <path d="M 1739.707983 1921.383706 
L 1739.254716 1925.832813 
L 1735.967391 1922.800735 
z
" clip-path="url(#p98a9af08aa)" style="stroke: #000000; stroke-width: 0.2; stroke-linecap: round"/>
   </g>
   <g id="patch_3">
    <path d="M 1510.531674 1314.658454 
Q 1728.574734 1671.366884 1946.501172 2027.884527 
" clip-path="url(#p98a9af08aa)" style="fill: none; stroke: #000000; stroke-width: 0.2; stroke-linecap: round"/>
    <path d="M 1946.12144 2023.428542 
L 1946.501172 2027.884527 
L 1942.708545 2025.514722 
z
" clip-path="url(#p98a9af08aa)" style="stroke: #000000; stroke-width: 0.2; stroke-linecap: round"/>
   </g>
   <g id="patch_4">
    <path d="M 1490.419917 1296.453041 
Q 1225.595558 1168.815209 960.972629 1041.274462 
" clip-path="url(#p98a9af08aa)" style="fill: none; stroke: #000000; stroke-width: 0.2; stroke-linecap: round"/>
    <path d="M 963.707597 1044.812816 
L 960.972629 1041.274462 
L 965.444294 1041.2095 
z
" clip-path="url(#p98a9af08aa)" style="stroke: #000000; stroke-width: 0.2; stroke-linecap: round"/>
   </g>
   <g id="patch_5">
    <path d="M 1516.747845 1306.493394 
Q 1691.522794 1356.669028 1866.082817 1406.78296 
" clip-path="url(#p98a9af08aa)" style="fill: none; stroke: #000000; stroke-width: 0.2; stroke-linecap: round"/>
    <path d="M 1862.79 1403.756848 
L 1866.082817 1406.78296 
L 1861.686237 1407.601546 
z
" clip-path="url(#p98a9af08aa)" style="stroke: #000000; stroke-width: 0.2; stroke-linecap: round"/>
   </g>
   <g id="patch_6">
    <path d="M 1513.539315 1292.992081 
Q 1686.239644 1133.344953 1858.775776 973.849611 
" clip-path="url(#p98a9af08aa)" style="fill: none; stroke: #000000; stroke-width: 0.2; stroke-linecap: round"/>
    <path d="M 1854.480903 975.09623 
L 1858.775776 973.849611 
L 1857.196148 978.033481 
z
" clip-path="url(#p98a9af08aa)" style="stroke: #000000; stroke-width: 0.2; stroke-linecap: round"/>
   </g>
   <g id="patch_7">
    <path d="M 1489.229386 1300.126186 
Q 1307.013374 1267.872845 1125.017545 1235.658477 
" clip-path="url(#p98a9af08aa)" style="fill: none; stroke: #000000; stroke-width: 0.2; stroke-linecap: round"/>
    <path d="M 1128.607724 1238.32505 
L 1125.017545 1235.658477 
L 1129.304911 1234.386277 
z
" clip-path="url(#p98a9af08aa)" style="stroke: #000000; stroke-width: 0.2; stroke-linecap: round"/>
   </g>
   <g id="patch_8">
    <path d="M 1757.985314 1935.541291 
Q 1944.029481 1884.721241 2129.857945 1833.960114 
" clip-path="url(#p98a9af08aa)" style="fill: none; stroke: #000000; stroke-width: 0.2; stroke-linecap: round"/>
    <path d="M 2125.472301 1833.084827 
L 2129.857945 1833.960114 
L 2126.526329 1836.943457 
z
" clip-path="url(#p98a9af08aa)" style="stroke: #000000; stroke-width: 0.2; stroke-linecap: round"/>
   </g>
   <g id="patch_9">
    <path d="M 1757.085824 1945.398405 
Q 1849.169264 1989.705786 1941.051208 2033.916215 
" clip-path="url(#p98a9af08aa)" style="fill: none; stroke: #000000; stroke-width: 0.2; stroke-linecap: round"/>
    <path d="M 1938.313925 2030.379651 
L 1941.051208 2033.916215 
L 1936.579587 2033.984103 
z
" clip-path="url(#p98a9af08aa)" style="stroke: #000000; stroke-width: 0.2; stroke-linecap: round"/>
   </g>
   <g id="patch_10">
    <path d="M 1730.336409 1937.32238 
Q 1609.06567 1920.482336 1488.016413 1903.673049 
" clip-path="url(#p98a9af08aa)" style="fill: none; stroke: #000000; stroke-width: 0.2; stroke-linecap: round"/>
    <path d="M 1491.703309 1906.204214 
L 1488.016413 1903.673049 
L 1492.253483 1902.242231 
z
" clip-path="url(#p98a9af08aa)" style="stroke: #000000; stroke-width: 0.2; stroke-linecap: round"/>
   </g>
   <g id="patch_11">
    <path d="M 1739.334383 1926.043114 
Q 1623.749975 1620.929951 1508.244782 1316.025894 
" clip-path="url(#p98a9af08aa)" style="fill: none; stroke: #000000; stroke-width: 0.2; stroke-linecap: round"/>
    <path d="M 1507.791514 1320.475 
L 1508.244782 1316.025894 
L 1511.532107 1319.057972 
z
" clip-path="url(#p98a9af08aa)" style="stroke: #000000; stroke-width: 0.2; stroke-linecap: round"/>
   </g>
   <g id="patch_12">
    <path d="M 1941.253503 2034.013552 
Q 1849.170063 1989.706171 1757.288119 1945.495742 
" clip-path="url(#p98a9af08aa)" style="fill: none; stroke: #000000; stroke-width: 0.2; stroke-linecap: round"/>
    <path d="M 1760.025402 1949.032306 
L 1757.288119 1945.495742 
L 1761.75974 1945.427854 
z
" clip-path="url(#p98a9af08aa)" style="stroke: #000000; stroke-width: 0.2; stroke-linecap: round"/>
   </g>
   <g id="patch_13">
    <path d="M 1963.475929 2029.651728 
Q 2048.854911 1935.159407 2134.083982 1840.832998 
" clip-path="url(#p98a9af08aa)" style="fill: none; stroke: #000000; stroke-width: 0.2; stroke-linecap: round"/>
    <path d="M 2129.918337 1842.460082 
L 2134.083982 1840.832998 
L 2132.886262 1845.141764 
z
" clip-path="url(#p98a9af08aa)" style="stroke: #000000; stroke-width: 0.2; stroke-linecap: round"/>
   </g>
   <g id="patch_14">
    <path d="M 1964.64934 2049.440971 
Q 2292.039104 2335.113689 2619.260385 2620.639392 
" clip-path="url(#p98a9af08aa)" style="fill: none; stroke: #000000; stroke-width: 0.2; stroke-linecap: round"/>
    <path d="M 2617.561401 2616.50255 
L 2619.260385 2620.639392 
L 2614.931522 2619.516474 
z
" clip-path="url(#p98a9af08aa)" style="stroke: #000000; stroke-width: 0.2; stroke-linecap: round"/>
   </g>
   <g id="patch_15">
    <path d="M 1940.406475 2036.226708 
Q 1713.889738 1970.920571 1487.587858 1905.676379 
" clip-path="url(#p98a9af08aa)" style="fill: none; stroke: #000000; stroke-width: 0.2; stroke-linecap: round"/>
    <path d="M 1490.877266 1908.706196 
L 1487.587858 1905.676379 
L 1491.985356 1904.862743 
z
" clip-path="url(#p98a9af08aa)" style="stroke: #000000; stroke-width: 0.2; stroke-linecap: round"/>
   </g>
   <g id="patch_16">
    <path d="M 1946.618909 2028.077138 
Q 1728.575849 1671.368709 1510.64941 1314.851066 
" clip-path="url(#p98a9af08aa)" style="fill: none; stroke: #000000; stroke-width: 0.2; stroke-linecap: round"/>
    <path d="M 1511.029143 1319.307051 
L 1510.64941 1314.851066 
L 1514.442038 1317.220871 
z
" clip-path="url(#p98a9af08aa)" style="stroke: #000000; stroke-width: 0.2; stroke-linecap: round"/>
   </g>
   <g id="patch_17">
    <path d="M 1952.341542 2026.098817 
Q 1916.943875 1725.444255 1881.572353 1425.011766 
" clip-path="url(#p98a9af08aa)" style="fill: none; stroke: #000000; stroke-width: 0.2; stroke-linecap: round"/>
    <path d="M 1880.053783 1429.218183 
L 1881.572353 1425.011766 
L 1884.026345 1428.750472 
z
" clip-path="url(#p98a9af08aa)" style="stroke: #000000; stroke-width: 0.2; stroke-linecap: round"/>
   </g>
   <g id="patch_18">
    <path d="M 960.765426 1041.174596 
Q 1225.589786 1168.812427 1490.212714 1296.353175 
" clip-path="url(#p98a9af08aa)" style="fill: none; stroke: #000000; stroke-width: 0.2; stroke-linecap: round"/>
    <path d="M 1487.477746 1292.81482 
L 1490.212714 1296.353175 
L 1485.74105 1296.418136 
z
" clip-path="url(#p98a9af08aa)" style="stroke: #000000; stroke-width: 0.2; stroke-linecap: round"/>
   </g>
   <g id="patch_19">
    <path d="M 935.536213 1041.664379 
Q 768.19475 1130.43871 601.05082 1219.10825 
" clip-path="url(#p98a9af08aa)" style="fill: none; stroke: #000000; stroke-width: 0.2; stroke-linecap: round"/>
    <path d="M 605.521657 1219.000483 
L 601.05082 1219.10825 
L 603.647109 1215.46692 
z
" clip-path="url(#p98a9af08aa)" style="stroke: #000000; stroke-width: 0.2; stroke-linecap: round"/>
   </g>
   <g id="patch_20">
    <path d="M 957.012266 1045.96474 
Q 1029.450828 1134.096798 1101.747406 1222.056111 
" clip-path="url(#p98a9af08aa)" style="fill: none; stroke: #000000; stroke-width: 0.2; stroke-linecap: round"/>
    <path d="M 1100.752591 1217.696026 
L 1101.747406 1222.056111 
L 1097.662449 1220.235912 
z
" clip-path="url(#p98a9af08aa)" style="stroke: #000000; stroke-width: 0.2; stroke-linecap: round"/>
   </g>
   <g id="patch_21">
    <path d="M 938.608672 1024.491339 
Q 792.77827 861.265346 647.096845 698.206104 
" clip-path="url(#p98a9af08aa)" style="fill: none; stroke: #000000; stroke-width: 0.2; stroke-linecap: round"/>
    <path d="M 648.2704 702.521515 
L 647.096845 698.206104 
L 651.253307 699.856507 
z
" clip-path="url(#p98a9af08aa)" style="stroke: #000000; stroke-width: 0.2; stroke-linecap: round"/>
   </g>
   <g id="patch_22">
    <path d="M 1887.422827 1422.718794 
Q 2011.803334 1620.461305 2136.064785 1818.014539 
" clip-path="url(#p98a9af08aa)" style="fill: none; stroke: #000000; stroke-width: 0.2; stroke-linecap: round"/>
    <path d="M 2135.627997 1813.563784 
L 2136.064785 1818.014539 
L 2132.242108 1815.693516 
z
" clip-path="url(#p98a9af08aa)" style="stroke: #000000; stroke-width: 0.2; stroke-linecap: round"/>
   </g>
   <g id="patch_23">
    <path d="M 1881.54663 1424.79328 
Q 1916.944297 1725.447842 1952.315819 2025.880331 
" clip-path="url(#p98a9af08aa)" style="fill: none; stroke: #000000; stroke-width: 0.2; stroke-linecap: round"/>
    <path d="M 1953.834389 2021.673914 
L 1952.315819 2025.880331 
L 1949.861827 2022.141625 
z
" clip-path="url(#p98a9af08aa)" style="stroke: #000000; stroke-width: 0.2; stroke-linecap: round"/>
   </g>
   <g id="patch_24">
    <path d="M 1866.300497 1406.845453 
Q 1691.525548 1356.669819 1516.965525 1306.555887 
" clip-path="url(#p98a9af08aa)" style="fill: none; stroke: #000000; stroke-width: 0.2; stroke-linecap: round"/>
    <path d="M 1520.258342 1309.581999 
L 1516.965525 1306.555887 
L 1521.362105 1305.737301 
z
" clip-path="url(#p98a9af08aa)" style="stroke: #000000; stroke-width: 0.2; stroke-linecap: round"/>
   </g>
   <g id="patch_25">
    <path d="M 1879.558367 1396.609329 
Q 1874.607795 1187.424428 1869.662514 978.463072 
" clip-path="url(#p98a9af08aa)" style="fill: none; stroke: #000000; stroke-width: 0.2; stroke-linecap: round"/>
    <path d="M 1867.757711 982.509271 
L 1869.662514 978.463072 
L 1871.756591 982.414634 
z
" clip-path="url(#p98a9af08aa)" style="stroke: #000000; stroke-width: 0.2; stroke-linecap: round"/>
   </g>
   <g id="patch_26">
    <path d="M 1873.594259 977.58282 
Q 2006.518512 1397.138454 2139.375231 1816.480924 
" clip-path="url(#p98a9af08aa)" style="fill: none; stroke: #000000; stroke-width: 0.2; stroke-linecap: round"/>
    <path d="M 2140.073727 1812.063673 
L 2139.375231 1816.480924 
L 2136.260528 1813.271776 
z
" clip-path="url(#p98a9af08aa)" style="stroke: #000000; stroke-width: 0.2; stroke-linecap: round"/>
   </g>
   <g id="patch_27">
    <path d="M 1858.938658 973.69904 
Q 1686.238328 1133.346169 1513.702196 1292.841511 
" clip-path="url(#p98a9af08aa)" style="fill: none; stroke: #000000; stroke-width: 0.2; stroke-linecap: round"/>
    <path d="M 1517.99707 1291.594892 
L 1513.702196 1292.841511 
L 1515.281825 1288.657641 
z
" clip-path="url(#p98a9af08aa)" style="stroke: #000000; stroke-width: 0.2; stroke-linecap: round"/>
   </g>
   <g id="patch_28">
    <path d="M 1869.657194 978.238298 
Q 1874.607766 1187.423198 1879.553048 1396.384554 
" clip-path="url(#p98a9af08aa)" style="fill: none; stroke: #000000; stroke-width: 0.2; stroke-linecap: round"/>
    <path d="M 1881.45785 1392.338355 
L 1879.553048 1396.384554 
L 1877.45897 1392.432993 
z
" clip-path="url(#p98a9af08aa)" style="stroke: #000000; stroke-width: 0.2; stroke-linecap: round"/>
   </g>
   <g id="patch_29">
    <path d="M 1117.615467 1245.581691 
Q 1292.326976 1567.425812 1466.931805 1889.073414 
" clip-path="url(#p98a9af08aa)" style="fill: none; stroke: #000000; stroke-width: 0.2; stroke-linecap: round"/>
    <path d="M 1466.781186 1884.603816 
L 1466.931805 1889.073414 
L 1463.265754 1886.51215 
z
" clip-path="url(#p98a9af08aa)" style="stroke: #000000; stroke-width: 0.2; stroke-linecap: round"/>
   </g>
   <g id="patch_30">
    <path d="M 1101.886933 1222.225865 
Q 1029.448371 1134.093808 957.151792 1046.134495 
" clip-path="url(#p98a9af08aa)" style="fill: none; stroke: #000000; stroke-width: 0.2; stroke-linecap: round"/>
    <path d="M 958.146608 1050.49458 
L 957.151792 1046.134495 
L 961.23675 1047.954693 
z
" clip-path="url(#p98a9af08aa)" style="stroke: #000000; stroke-width: 0.2; stroke-linecap: round"/>
   </g>
   <g id="patch_31">
    <path d="M 1124.795222 1235.619125 
Q 1307.011235 1267.872466 1489.007063 1300.086834 
" clip-path="url(#p98a9af08aa)" style="fill: none; stroke: #000000; stroke-width: 0.2; stroke-linecap: round"/>
    <path d="M 1485.416884 1297.420261 
L 1489.007063 1300.086834 
L 1484.719697 1301.359033 
z
" clip-path="url(#p98a9af08aa)" style="stroke: #000000; stroke-width: 0.2; stroke-linecap: round"/>
   </g>
   <g id="patch_32">
    <path d="M 1101.600805 1222.469682 
Q 874.197958 960.324231 646.941636 698.34769 
" clip-path="url(#p98a9af08aa)" style="fill: none; stroke: #000000; stroke-width: 0.2; stroke-linecap: round"/>
    <path d="M 648.051963 702.6798 
L 646.941636 698.34769 
L 651.07352 700.058695 
z
" clip-path="url(#p98a9af08aa)" style="stroke: #000000; stroke-width: 0.2; stroke-linecap: round"/>
   </g>
   <g id="patch_33">
    <path d="M 2130.072683 1833.901455 
Q 1944.028516 1884.721505 1758.200052 1935.482632 
" clip-path="url(#p98a9af08aa)" style="fill: none; stroke: #000000; stroke-width: 0.2; stroke-linecap: round"/>
    <path d="M 1762.585696 1936.357919 
L 1758.200052 1935.482632 
L 1761.531668 1932.49929 
z
" clip-path="url(#p98a9af08aa)" style="stroke: #000000; stroke-width: 0.2; stroke-linecap: round"/>
   </g>
   <g id="patch_34">
    <path d="M 2151.062916 1842.261825 
Q 2386.898963 2230.130083 2622.618839 2617.807281 
" clip-path="url(#p98a9af08aa)" style="fill: none; stroke: #000000; stroke-width: 0.2; stroke-linecap: round"/>
    <path d="M 2622.249609 2613.350413 
L 2622.618839 2617.807281 
L 2618.831807 2615.428544 
z
" clip-path="url(#p98a9af08aa)" style="stroke: #000000; stroke-width: 0.2; stroke-linecap: round"/>
   </g>
   <g id="patch_35">
    <path d="M 2134.233153 1840.667904 
Q 2048.854171 1935.160225 1963.6251 2029.486634 
" clip-path="url(#p98a9af08aa)" style="fill: none; stroke: #000000; stroke-width: 0.2; stroke-linecap: round"/>
    <path d="M 1967.790745 2027.85955 
L 1963.6251 2029.486634 
L 1964.82282 2025.177868 
z
" clip-path="url(#p98a9af08aa)" style="stroke: #000000; stroke-width: 0.2; stroke-linecap: round"/>
   </g>
   <g id="patch_36">
    <path d="M 2136.184014 1818.204092 
Q 2011.803508 1620.461581 1887.542057 1422.908347 
" clip-path="url(#p98a9af08aa)" style="fill: none; stroke: #000000; stroke-width: 0.2; stroke-linecap: round"/>
    <path d="M 1887.978844 1427.359102 
L 1887.542057 1422.908347 
L 1891.364733 1425.22937 
z
" clip-path="url(#p98a9af08aa)" style="stroke: #000000; stroke-width: 0.2; stroke-linecap: round"/>
   </g>
   <g id="patch_37">
    <path d="M 2139.442213 1816.692342 
Q 2006.517959 1397.136708 1873.661241 977.794238 
" clip-path="url(#p98a9af08aa)" style="fill: none; stroke: #000000; stroke-width: 0.2; stroke-linecap: round"/>
    <path d="M 1872.962745 982.211489 
L 1873.661241 977.794238 
L 1876.775944 981.003385 
z
" clip-path="url(#p98a9af08aa)" style="stroke: #000000; stroke-width: 0.2; stroke-linecap: round"/>
   </g>
   <g id="patch_38">
    <path d="M 1487.792024 1903.641889 
Q 1609.062763 1920.481933 1730.11202 1937.29122 
" clip-path="url(#p98a9af08aa)" style="fill: none; stroke: #000000; stroke-width: 0.2; stroke-linecap: round"/>
    <path d="M 1726.425124 1934.760055 
L 1730.11202 1937.29122 
L 1725.87495 1938.722038 
z
" clip-path="url(#p98a9af08aa)" style="stroke: #000000; stroke-width: 0.2; stroke-linecap: round"/>
   </g>
   <g id="patch_39">
    <path d="M 1487.373043 1905.614446 
Q 1713.88978 1970.920583 1940.19166 2036.164776 
" clip-path="url(#p98a9af08aa)" style="fill: none; stroke: #000000; stroke-width: 0.2; stroke-linecap: round"/>
    <path d="M 1936.902252 2033.134959 
L 1940.19166 2036.164776 
L 1935.794162 2036.978412 
z
" clip-path="url(#p98a9af08aa)" style="stroke: #000000; stroke-width: 0.2; stroke-linecap: round"/>
   </g>
   <g id="patch_40">
    <path d="M 1467.038076 1889.269182 
Q 1292.326568 1567.425061 1117.721739 1245.777459 
" clip-path="url(#p98a9af08aa)" style="fill: none; stroke: #000000; stroke-width: 0.2; stroke-linecap: round"/>
    <path d="M 1117.872358 1250.247058 
L 1117.721739 1245.777459 
L 1121.387789 1248.338723 
z
" clip-path="url(#p98a9af08aa)" style="stroke: #000000; stroke-width: 0.2; stroke-linecap: round"/>
   </g>
   <g id="patch_41">
    <path d="M 646.948893 698.040502 
Q 792.779295 861.266494 938.460719 1024.325737 
" clip-path="url(#p98a9af08aa)" style="fill: none; stroke: #000000; stroke-width: 0.2; stroke-linecap: round"/>
    <path d="M 937.287165 1020.010326 
L 938.460719 1024.325737 
L 934.304258 1022.675334 
z
" clip-path="url(#p98a9af08aa)" style="stroke: #000000; stroke-width: 0.2; stroke-linecap: round"/>
   </g>
   <g id="patch_42">
    <path d="M 636.241292 701.579144 
Q 612.943343 956.668505 589.665731 1211.535186 
" clip-path="url(#p98a9af08aa)" style="fill: none; stroke: #000000; stroke-width: 0.2; stroke-linecap: round"/>
    <path d="M 592.021257 1207.733673 
L 589.665731 1211.535186 
L 588.037836 1207.369857 
z
" clip-path="url(#p98a9af08aa)" style="stroke: #000000; stroke-width: 0.2; stroke-linecap: round"/>
   </g>
   <g id="patch_43">
    <path d="M 646.796025 698.179833 
Q 874.198872 960.325284 1101.455193 1222.301825 
" clip-path="url(#p98a9af08aa)" style="fill: none; stroke: #000000; stroke-width: 0.2; stroke-linecap: round"/>
    <path d="M 1100.344867 1217.969715 
L 1101.455193 1222.301825 
L 1097.32331 1220.59082 
z
" clip-path="url(#p98a9af08aa)" style="stroke: #000000; stroke-width: 0.2; stroke-linecap: round"/>
   </g>
   <g id="patch_44">
    <path d="M 628.150217 676.909133 
Q 443.721586 468.70536 259.441223 260.668968 
" clip-path="url(#p98a9af08aa)" style="fill: none; stroke: #000000; stroke-width: 0.2; stroke-linecap: round"/>
    <path d="M 260.596415 264.98933 
L 259.441223 260.668968 
L 263.590628 262.337031 
z
" clip-path="url(#p98a9af08aa)" style="stroke: #000000; stroke-width: 0.2; stroke-linecap: round"/>
   </g>
   <g id="patch_45">
    <path d="M 600.852884 1219.213255 
Q 768.194346 1130.438924 935.338276 1041.769384 
" clip-path="url(#p98a9af08aa)" style="fill: none; stroke: #000000; stroke-width: 0.2; stroke-linecap: round"/>
    <path d="M 930.867439 1041.877151 
L 935.338276 1041.769384 
L 932.741988 1045.410714 
z
" clip-path="url(#p98a9af08aa)" style="stroke: #000000; stroke-width: 0.2; stroke-linecap: round"/>
   </g>
   <g id="patch_46">
    <path d="M 589.645435 1211.757399 
Q 612.943385 956.668038 636.220997 701.801357 
" clip-path="url(#p98a9af08aa)" style="fill: none; stroke: #000000; stroke-width: 0.2; stroke-linecap: round"/>
    <path d="M 633.865471 705.60287 
L 636.220997 701.801357 
L 637.848891 705.966685 
z
" clip-path="url(#p98a9af08aa)" style="stroke: #000000; stroke-width: 0.2; stroke-linecap: round"/>
   </g>
   <g id="patch_47">
    <path d="M 259.294736 260.503597 
Q 443.723368 468.707371 628.003731 676.743763 
" clip-path="url(#p98a9af08aa)" style="fill: none; stroke: #000000; stroke-width: 0.2; stroke-linecap: round"/>
    <path d="M 626.848538 672.4234 
L 628.003731 676.743763 
L 623.854325 675.075699 
z
" clip-path="url(#p98a9af08aa)" style="stroke: #000000; stroke-width: 0.2; stroke-linecap: round"/>
   </g>
   <g id="PathCollection_1">
    <defs>
     <path id="C0_0_798be595a1" d="M 0 14.142136 
C 3.750538 14.142136 7.347969 12.652031 10 10 
C 12.652031 7.347969 14.142136 3.750538 14.142136 -0 
C 14.142136 -3.750538 12.652031 -7.347969 10 -10 
C 7.347969 -12.652031 3.750538 -14.142136 0 -14.142136 
C -3.750538 -14.142136 -7.347969 -12.652031 -10 -10 
C -12.652031 -7.347969 -14.142136 -3.750538 -14.142136 0 
C -14.142136 3.750538 -12.652031 7.347969 -10 10 
C -7.347969 12.652031 -3.750538 14.142136 0 14.142136 
z
"/>
    </defs>
    <g clip-path="url(#p98a9af08aa)">
     <use xlink:href="#C0_0_798be595a1" x="1503.155377" y="1302.591171" style="fill: #0000ff; stroke: #0000ff"/>
    </g>
    <g clip-path="url(#p98a9af08aa)">
     <use xlink:href="#C0_0_798be595a1" x="1744.344121" y="1939.267535" style="fill: #ffa500; stroke: #ffa500"/>
    </g>
    <g clip-path="url(#p98a9af08aa)">
     <use xlink:href="#C0_0_798be595a1" x="1953.995206" y="2040.144421" style="fill: #ffff00; stroke: #ffff00"/>
    </g>
    <g clip-path="url(#p98a9af08aa)">
     <use xlink:href="#C0_0_798be595a1" x="948.029967" y="1035.036466" style="fill: #ffa500; stroke: #ffa500"/>
    </g>
    <g clip-path="url(#p98a9af08aa)">
     <use xlink:href="#C0_0_798be595a1" x="1879.892966" y="1410.747676" style="fill: #ffa500; stroke: #ffa500"/>
    </g>
    <g clip-path="url(#p98a9af08aa)">
     <use xlink:href="#C0_0_798be595a1" x="1869.322596" y="964.099951" style="fill: #ffff00; stroke: #ffff00"/>
    </g>
    <g clip-path="url(#p98a9af08aa)">
     <use xlink:href="#C0_0_798be595a1" x="1110.869232" y="1233.15414" style="fill: #ffff00; stroke: #ffff00"/>
    </g>
    <g clip-path="url(#p98a9af08aa)">
     <use xlink:href="#C0_0_798be595a1" x="2143.713876" y="1830.175211" style="fill: #0000ff; stroke: #0000ff"/>
    </g>
    <g clip-path="url(#p98a9af08aa)">
     <use xlink:href="#C0_0_798be595a1" x="2630.082645" y="2630.082645" style="fill: #ffa500; stroke: #ffa500"/>
    </g>
    <g clip-path="url(#p98a9af08aa)">
     <use xlink:href="#C0_0_798be595a1" x="1473.784312" y="1901.696733" style="fill: #0000ff; stroke: #0000ff"/>
    </g>
    <g clip-path="url(#p98a9af08aa)">
     <use xlink:href="#C0_0_798be595a1" x="637.527598" y="687.495375" style="fill: #ffa500; stroke: #ffa500"/>
    </g>
    <g clip-path="url(#p98a9af08aa)">
     <use xlink:href="#C0_0_798be595a1" x="588.35913" y="1225.841168" style="fill: #ffff00; stroke: #ffff00"/>
    </g>
    <g clip-path="url(#p98a9af08aa)">
     <use xlink:href="#C0_0_798be595a1" x="249.917355" y="249.917355" style="fill: #ffff00; stroke: #ffff00"/>
    </g>
   </g>
   <g id="text_1">
    <g clip-path="url(#p98a9af08aa)">
     <!-- VAL 26 -->
     <g transform="translate(1489.347877 1304.798671) scale(0.08 -0.08)">
      <defs>
       <path id="DejaVuSans-56" d="M 1831 0 
L 50 4666 
L 709 4666 
L 2188 738 
L 3669 4666 
L 4325 4666 
L 2547 0 
L 1831 0 
z
" transform="scale(0.015625)"/>
       <path id="DejaVuSans-41" d="M 2188 4044 
L 1331 1722 
L 3047 1722 
L 2188 4044 
z
M 1831 4666 
L 2547 4666 
L 4325 0 
L 3669 0 
L 3244 1197 
L 1141 1197 
L 716 0 
L 50 0 
L 1831 4666 
z
" transform="scale(0.015625)"/>
       <path id="DejaVuSans-4c" d="M 628 4666 
L 1259 4666 
L 1259 531 
L 3531 531 
L 3531 0 
L 628 0 
L 628 4666 
z
" transform="scale(0.015625)"/>
       <path id="DejaVuSans-20" transform="scale(0.015625)"/>
       <path id="DejaVuSans-32" d="M 1228 531 
L 3431 531 
L 3431 0 
L 469 0 
L 469 531 
Q 828 903 1448 1529 
Q 2069 2156 2228 2338 
Q 2531 2678 2651 2914 
Q 2772 3150 2772 3378 
Q 2772 3750 2511 3984 
Q 2250 4219 1831 4219 
Q 1534 4219 1204 4116 
Q 875 4013 500 3803 
L 500 4441 
Q 881 4594 1212 4672 
Q 1544 4750 1819 4750 
Q 2544 4750 2975 4387 
Q 3406 4025 3406 3419 
Q 3406 3131 3298 2873 
Q 3191 2616 2906 2266 
Q 2828 2175 2409 1742 
Q 1991 1309 1228 531 
z
" transform="scale(0.015625)"/>
       <path id="DejaVuSans-36" d="M 2113 2584 
Q 1688 2584 1439 2293 
Q 1191 2003 1191 1497 
Q 1191 994 1439 701 
Q 1688 409 2113 409 
Q 2538 409 2786 701 
Q 3034 994 3034 1497 
Q 3034 2003 2786 2293 
Q 2538 2584 2113 2584 
z
M 3366 4563 
L 3366 3988 
Q 3128 4100 2886 4159 
Q 2644 4219 2406 4219 
Q 1781 4219 1451 3797 
Q 1122 3375 1075 2522 
Q 1259 2794 1537 2939 
Q 1816 3084 2150 3084 
Q 2853 3084 3261 2657 
Q 3669 2231 3669 1497 
Q 3669 778 3244 343 
Q 2819 -91 2113 -91 
Q 1303 -91 875 529 
Q 447 1150 447 2328 
Q 447 3434 972 4092 
Q 1497 4750 2381 4750 
Q 2619 4750 2861 4703 
Q 3103 4656 3366 4563 
z
" transform="scale(0.015625)"/>
      </defs>
      <use xlink:href="#DejaVuSans-56"/>
      <use xlink:href="#DejaVuSans-41" x="62.033203"/>
      <use xlink:href="#DejaVuSans-4c" x="130.441406"/>
      <use xlink:href="#DejaVuSans-20" x="186.154297"/>
      <use xlink:href="#DejaVuSans-32" x="217.941406"/>
      <use xlink:href="#DejaVuSans-36" x="281.564453"/>
     </g>
    </g>
   </g>
   <g id="text_2">
    <g clip-path="url(#p98a9af08aa)">
     <!-- ILE 3 -->
     <g transform="translate(1734.591621 1941.475035) scale(0.08 -0.08)">
      <defs>
       <path id="DejaVuSans-49" d="M 628 4666 
L 1259 4666 
L 1259 0 
L 628 0 
L 628 4666 
z
" transform="scale(0.015625)"/>
       <path id="DejaVuSans-45" d="M 628 4666 
L 3578 4666 
L 3578 4134 
L 1259 4134 
L 1259 2753 
L 3481 2753 
L 3481 2222 
L 1259 2222 
L 1259 531 
L 3634 531 
L 3634 0 
L 628 0 
L 628 4666 
z
" transform="scale(0.015625)"/>
       <path id="DejaVuSans-33" d="M 2597 2516 
Q 3050 2419 3304 2112 
Q 3559 1806 3559 1356 
Q 3559 666 3084 287 
Q 2609 -91 1734 -91 
Q 1441 -91 1130 -33 
Q 819 25 488 141 
L 488 750 
Q 750 597 1062 519 
Q 1375 441 1716 441 
Q 2309 441 2620 675 
Q 2931 909 2931 1356 
Q 2931 1769 2642 2001 
Q 2353 2234 1838 2234 
L 1294 2234 
L 1294 2753 
L 1863 2753 
Q 2328 2753 2575 2939 
Q 2822 3125 2822 3475 
Q 2822 3834 2567 4026 
Q 2313 4219 1838 4219 
Q 1578 4219 1281 4162 
Q 984 4106 628 3988 
L 628 4550 
Q 988 4650 1302 4700 
Q 1616 4750 1894 4750 
Q 2613 4750 3031 4423 
Q 3450 4097 3450 3541 
Q 3450 3153 3228 2886 
Q 3006 2619 2597 2516 
z
" transform="scale(0.015625)"/>
      </defs>
      <use xlink:href="#DejaVuSans-49"/>
      <use xlink:href="#DejaVuSans-4c" x="29.492188"/>
      <use xlink:href="#DejaVuSans-45" x="85.205078"/>
      <use xlink:href="#DejaVuSans-20" x="148.388672"/>
      <use xlink:href="#DejaVuSans-33" x="180.175781"/>
     </g>
    </g>
   </g>
   <g id="text_3">
    <g clip-path="url(#p98a9af08aa)">
     <!-- LEU 15 -->
     <g transform="translate(1939.950206 2042.351921) scale(0.08 -0.08)">
      <defs>
       <path id="DejaVuSans-55" d="M 556 4666 
L 1191 4666 
L 1191 1831 
Q 1191 1081 1462 751 
Q 1734 422 2344 422 
Q 2950 422 3222 751 
Q 3494 1081 3494 1831 
L 3494 4666 
L 4128 4666 
L 4128 1753 
Q 4128 841 3676 375 
Q 3225 -91 2344 -91 
Q 1459 -91 1007 375 
Q 556 841 556 1753 
L 556 4666 
z
" transform="scale(0.015625)"/>
       <path id="DejaVuSans-31" d="M 794 531 
L 1825 531 
L 1825 4091 
L 703 3866 
L 703 4441 
L 1819 4666 
L 2450 4666 
L 2450 531 
L 3481 531 
L 3481 0 
L 794 0 
L 794 531 
z
" transform="scale(0.015625)"/>
       <path id="DejaVuSans-35" d="M 691 4666 
L 3169 4666 
L 3169 4134 
L 1269 4134 
L 1269 2991 
Q 1406 3038 1543 3061 
Q 1681 3084 1819 3084 
Q 2600 3084 3056 2656 
Q 3513 2228 3513 1497 
Q 3513 744 3044 326 
Q 2575 -91 1722 -91 
Q 1428 -91 1123 -41 
Q 819 9 494 109 
L 494 744 
Q 775 591 1075 516 
Q 1375 441 1709 441 
Q 2250 441 2565 725 
Q 2881 1009 2881 1497 
Q 2881 1984 2565 2268 
Q 2250 2553 1709 2553 
Q 1456 2553 1204 2497 
Q 953 2441 691 2322 
L 691 4666 
z
" transform="scale(0.015625)"/>
      </defs>
      <use xlink:href="#DejaVuSans-4c"/>
      <use xlink:href="#DejaVuSans-45" x="55.712891"/>
      <use xlink:href="#DejaVuSans-55" x="118.896484"/>
      <use xlink:href="#DejaVuSans-20" x="192.089844"/>
      <use xlink:href="#DejaVuSans-31" x="223.876953"/>
      <use xlink:href="#DejaVuSans-35" x="287.5"/>
     </g>
    </g>
   </g>
   <g id="text_4">
    <g clip-path="url(#p98a9af08aa)">
     <!-- ILE 23 -->
     <g transform="translate(935.732467 1037.243966) scale(0.08 -0.08)">
      <use xlink:href="#DejaVuSans-49"/>
      <use xlink:href="#DejaVuSans-4c" x="29.492188"/>
      <use xlink:href="#DejaVuSans-45" x="85.205078"/>
      <use xlink:href="#DejaVuSans-20" x="148.388672"/>
      <use xlink:href="#DejaVuSans-32" x="180.175781"/>
      <use xlink:href="#DejaVuSans-33" x="243.798828"/>
     </g>
    </g>
   </g>
   <g id="text_5">
    <g clip-path="url(#p98a9af08aa)">
     <!-- ILE 30 -->
     <g transform="translate(1867.595466 1412.955176) scale(0.08 -0.08)">
      <defs>
       <path id="DejaVuSans-30" d="M 2034 4250 
Q 1547 4250 1301 3770 
Q 1056 3291 1056 2328 
Q 1056 1369 1301 889 
Q 1547 409 2034 409 
Q 2525 409 2770 889 
Q 3016 1369 3016 2328 
Q 3016 3291 2770 3770 
Q 2525 4250 2034 4250 
z
M 2034 4750 
Q 2819 4750 3233 4129 
Q 3647 3509 3647 2328 
Q 3647 1150 3233 529 
Q 2819 -91 2034 -91 
Q 1250 -91 836 529 
Q 422 1150 422 2328 
Q 422 3509 836 4129 
Q 1250 4750 2034 4750 
z
" transform="scale(0.015625)"/>
      </defs>
      <use xlink:href="#DejaVuSans-49"/>
      <use xlink:href="#DejaVuSans-4c" x="29.492188"/>
      <use xlink:href="#DejaVuSans-45" x="85.205078"/>
      <use xlink:href="#DejaVuSans-20" x="148.388672"/>
      <use xlink:href="#DejaVuSans-33" x="180.175781"/>
      <use xlink:href="#DejaVuSans-30" x="243.798828"/>
     </g>
    </g>
   </g>
   <g id="text_6">
    <g clip-path="url(#p98a9af08aa)">
     <!-- LEU 43 -->
     <g transform="translate(1855.277596 966.307451) scale(0.08 -0.08)">
      <defs>
       <path id="DejaVuSans-34" d="M 2419 4116 
L 825 1625 
L 2419 1625 
L 2419 4116 
z
M 2253 4666 
L 3047 4666 
L 3047 1625 
L 3713 1625 
L 3713 1100 
L 3047 1100 
L 3047 0 
L 2419 0 
L 2419 1100 
L 313 1100 
L 313 1709 
L 2253 4666 
z
" transform="scale(0.015625)"/>
      </defs>
      <use xlink:href="#DejaVuSans-4c"/>
      <use xlink:href="#DejaVuSans-45" x="55.712891"/>
      <use xlink:href="#DejaVuSans-55" x="118.896484"/>
      <use xlink:href="#DejaVuSans-20" x="192.089844"/>
      <use xlink:href="#DejaVuSans-34" x="223.876953"/>
      <use xlink:href="#DejaVuSans-33" x="287.5"/>
     </g>
    </g>
   </g>
   <g id="text_7">
    <g clip-path="url(#p98a9af08aa)">
     <!-- LEU 56 -->
     <g transform="translate(1096.824232 1235.36164) scale(0.08 -0.08)">
      <use xlink:href="#DejaVuSans-4c"/>
      <use xlink:href="#DejaVuSans-45" x="55.712891"/>
      <use xlink:href="#DejaVuSans-55" x="118.896484"/>
      <use xlink:href="#DejaVuSans-20" x="192.089844"/>
      <use xlink:href="#DejaVuSans-35" x="223.876953"/>
      <use xlink:href="#DejaVuSans-36" x="287.5"/>
     </g>
    </g>
   </g>
   <g id="text_8">
    <g clip-path="url(#p98a9af08aa)">
     <!-- VAL 5 -->
     <g transform="translate(2132.451376 1832.382711) scale(0.08 -0.08)">
      <use xlink:href="#DejaVuSans-56"/>
      <use xlink:href="#DejaVuSans-41" x="62.033203"/>
      <use xlink:href="#DejaVuSans-4c" x="130.441406"/>
      <use xlink:href="#DejaVuSans-20" x="186.154297"/>
      <use xlink:href="#DejaVuSans-35" x="217.941406"/>
     </g>
    </g>
   </g>
   <g id="text_9">
    <g clip-path="url(#p98a9af08aa)">
     <!-- ILE 13 -->
     <g transform="translate(2617.785145 2632.290145) scale(0.08 -0.08)">
      <use xlink:href="#DejaVuSans-49"/>
      <use xlink:href="#DejaVuSans-4c" x="29.492188"/>
      <use xlink:href="#DejaVuSans-45" x="85.205078"/>
      <use xlink:href="#DejaVuSans-20" x="148.388672"/>
      <use xlink:href="#DejaVuSans-31" x="180.175781"/>
      <use xlink:href="#DejaVuSans-33" x="243.798828"/>
     </g>
    </g>
   </g>
   <g id="text_10">
    <g clip-path="url(#p98a9af08aa)">
     <!-- VAL 17 -->
     <g transform="translate(1459.976812 1903.904233) scale(0.08 -0.08)">
      <defs>
       <path id="DejaVuSans-37" d="M 525 4666 
L 3525 4666 
L 3525 4397 
L 1831 0 
L 1172 0 
L 2766 4134 
L 525 4134 
L 525 4666 
z
" transform="scale(0.015625)"/>
      </defs>
      <use xlink:href="#DejaVuSans-56"/>
      <use xlink:href="#DejaVuSans-41" x="62.033203"/>
      <use xlink:href="#DejaVuSans-4c" x="130.441406"/>
      <use xlink:href="#DejaVuSans-20" x="186.154297"/>
      <use xlink:href="#DejaVuSans-31" x="217.941406"/>
      <use xlink:href="#DejaVuSans-37" x="281.564453"/>
     </g>
    </g>
   </g>
   <g id="text_11">
    <g clip-path="url(#p98a9af08aa)">
     <!-- ILE 61 -->
     <g transform="translate(625.230098 689.702875) scale(0.08 -0.08)">
      <use xlink:href="#DejaVuSans-49"/>
      <use xlink:href="#DejaVuSans-4c" x="29.492188"/>
      <use xlink:href="#DejaVuSans-45" x="85.205078"/>
      <use xlink:href="#DejaVuSans-20" x="148.388672"/>
      <use xlink:href="#DejaVuSans-36" x="180.175781"/>
      <use xlink:href="#DejaVuSans-31" x="243.798828"/>
     </g>
    </g>
   </g>
   <g id="text_12">
    <g clip-path="url(#p98a9af08aa)">
     <!-- LEU 50 -->
     <g transform="translate(574.31413 1228.048668) scale(0.08 -0.08)">
      <use xlink:href="#DejaVuSans-4c"/>
      <use xlink:href="#DejaVuSans-45" x="55.712891"/>
      <use xlink:href="#DejaVuSans-55" x="118.896484"/>
      <use xlink:href="#DejaVuSans-20" x="192.089844"/>
      <use xlink:href="#DejaVuSans-35" x="223.876953"/>
      <use xlink:href="#DejaVuSans-30" x="287.5"/>
     </g>
    </g>
   </g>
   <g id="text_13">
    <g clip-path="url(#p98a9af08aa)">
     <!-- LEU 67 -->
     <g transform="translate(235.872355 252.124855) scale(0.08 -0.08)">
      <use xlink:href="#DejaVuSans-4c"/>
      <use xlink:href="#DejaVuSans-45" x="55.712891"/>
      <use xlink:href="#DejaVuSans-55" x="118.896484"/>
      <use xlink:href="#DejaVuSans-20" x="192.089844"/>
      <use xlink:href="#DejaVuSans-36" x="223.876953"/>
      <use xlink:href="#DejaVuSans-37" x="287.5"/>
     </g>
    </g>
   </g>
  </g>
  <g id="text_14">
   <!-- G_NMR -->
   <g transform="translate(1418.51625 66.50625) scale(0.12 -0.12)">
    <defs>
     <path id="DejaVuSans-47" d="M 3809 666 
L 3809 1919 
L 2778 1919 
L 2778 2438 
L 4434 2438 
L 4434 434 
Q 4069 175 3628 42 
Q 3188 -91 2688 -91 
Q 1594 -91 976 548 
Q 359 1188 359 2328 
Q 359 3472 976 4111 
Q 1594 4750 2688 4750 
Q 3144 4750 3555 4637 
Q 3966 4525 4313 4306 
L 4313 3634 
Q 3963 3931 3569 4081 
Q 3175 4231 2741 4231 
Q 1884 4231 1454 3753 
Q 1025 3275 1025 2328 
Q 1025 1384 1454 906 
Q 1884 428 2741 428 
Q 3075 428 3337 486 
Q 3600 544 3809 666 
z
" transform="scale(0.015625)"/>
     <path id="DejaVuSans-5f" d="M 3263 -1063 
L 3263 -1509 
L -63 -1509 
L -63 -1063 
L 3263 -1063 
z
" transform="scale(0.015625)"/>
     <path id="DejaVuSans-4e" d="M 628 4666 
L 1478 4666 
L 3547 763 
L 3547 4666 
L 4159 4666 
L 4159 0 
L 3309 0 
L 1241 3903 
L 1241 0 
L 628 0 
L 628 4666 
z
" transform="scale(0.015625)"/>
     <path id="DejaVuSans-4d" d="M 628 4666 
L 1569 4666 
L 2759 1491 
L 3956 4666 
L 4897 4666 
L 4897 0 
L 4281 0 
L 4281 4097 
L 3078 897 
L 2444 897 
L 1241 4097 
L 1241 0 
L 628 0 
L 628 4666 
z
" transform="scale(0.015625)"/>
     <path id="DejaVuSans-52" d="M 2841 2188 
Q 3044 2119 3236 1894 
Q 3428 1669 3622 1275 
L 4263 0 
L 3584 0 
L 2988 1197 
Q 2756 1666 2539 1819 
Q 2322 1972 1947 1972 
L 1259 1972 
L 1259 0 
L 628 0 
L 628 4666 
L 2053 4666 
Q 2853 4666 3247 4331 
Q 3641 3997 3641 3322 
Q 3641 2881 3436 2590 
Q 3231 2300 2841 2188 
z
M 1259 4147 
L 1259 2491 
L 2053 2491 
Q 2509 2491 2742 2702 
Q 2975 2913 2975 3322 
Q 2975 3731 2742 3939 
Q 2509 4147 2053 4147 
L 1259 4147 
z
" transform="scale(0.015625)"/>
    </defs>
    <use xlink:href="#DejaVuSans-47"/>
    <use xlink:href="#DejaVuSans-5f" x="77.490234"/>
    <use xlink:href="#DejaVuSans-4e" x="127.490234"/>
    <use xlink:href="#DejaVuSans-4d" x="202.294922"/>
    <use xlink:href="#DejaVuSans-52" x="288.574219"/>
   </g>
  </g>
 </g>
 <defs>
  <clipPath id="p98a9af08aa">
   <rect x="0" y="0" width="2880" height="2880"/>
  </clipPath>
 </defs>
</svg>
