<?xml version="1.0" encoding="utf-8" standalone="no"?>
<!DOCTYPE svg PUBLIC "-//W3C//DTD SVG 1.1//EN"
  "http://www.w3.org/Graphics/SVG/1.1/DTD/svg11.dtd">
<svg xmlns:xlink="http://www.w3.org/1999/xlink" width="2880pt" height="2880pt" viewBox="0 0 2880 2880" xmlns="http://www.w3.org/2000/svg" version="1.1">
 <metadata>
  <rdf:RDF xmlns:dc="http://purl.org/dc/elements/1.1/" xmlns:cc="http://creativecommons.org/ns#" xmlns:rdf="http://www.w3.org/1999/02/22-rdf-syntax-ns#">
   <cc:Work>
    <dc:type rdf:resource="http://purl.org/dc/dcmitype/StillImage"/>
    <dc:date>2024-04-11T22:05:05.207844</dc:date>
    <dc:format>image/svg+xml</dc:format>
    <dc:creator>
     <cc:Agent>
      <dc:title>Matplotlib v3.8.2, https://matplotlib.org/</dc:title>
     </cc:Agent>
    </dc:creator>
   </cc:Work>
  </rdf:RDF>
 </metadata>
 <defs>
  <style type="text/css">*{stroke-linejoin: round; stroke-linecap: butt}</style>
 </defs>
 <g id="figure_1">
  <g id="patch_1">
   <path d="M 0 2880 
L 2880 2880 
L 2880 0 
L 0 0 
z
" style="fill: #ffffff"/>
  </g>
  <g id="axes_1">
   <g id="patch_2">
    <path d="M 2592.982299 1005.017234 
Q 2472.401049 965.308564 2352.032185 925.669836 
" clip-path="url(#pf397e12a05)" style="fill: none; stroke: #000000; stroke-width: 0.2; stroke-linecap: round"/>
    <path d="M 2355.205905 928.82063 
L 2352.032185 925.669836 
L 2356.457052 925.021336 
z
" clip-path="url(#pf397e12a05)" style="stroke: #000000; stroke-width: 0.2; stroke-linecap: round"/>
   </g>
   <g id="patch_3">
    <path d="M 2604.969509 1023.506697 
Q 2592.671199 1142.99343 2580.395783 1262.257732 
" clip-path="url(#pf397e12a05)" style="fill: none; stroke: #000000; stroke-width: 0.2; stroke-linecap: round"/>
    <path d="M 2582.794813 1258.483523 
L 2580.395783 1262.257732 
L 2578.815834 1258.073982 
z
" clip-path="url(#pf397e12a05)" style="stroke: #000000; stroke-width: 0.2; stroke-linecap: round"/>
   </g>
   <g id="patch_4">
    <path d="M 2592.275261 1009.576277 
Q 2511.399067 1010.347148 2430.74647 1011.115888 
" clip-path="url(#pf397e12a05)" style="fill: none; stroke: #000000; stroke-width: 0.2; stroke-linecap: round"/>
    <path d="M 2434.765351 1013.077673 
L 2430.74647 1011.115888 
L 2434.727226 1009.077855 
z
" clip-path="url(#pf397e12a05)" style="stroke: #000000; stroke-width: 0.2; stroke-linecap: round"/>
   </g>
   <g id="patch_5">
    <path d="M 2601.846403 996.060071 
Q 2577.85007 925.808486 2553.926016 855.768505 
" clip-path="url(#pf397e12a05)" style="fill: none; stroke: #000000; stroke-width: 0.2; stroke-linecap: round"/>
    <path d="M 2553.326343 860.200253 
L 2553.926016 855.768505 
L 2557.111611 858.907292 
z
" clip-path="url(#pf397e12a05)" style="stroke: #000000; stroke-width: 0.2; stroke-linecap: round"/>
   </g>
   <g id="patch_6">
    <path d="M 2607.662642 995.353713 
Q 2618.249847 875.598236 2628.817359 756.065498 
" clip-path="url(#pf397e12a05)" style="fill: none; stroke: #000000; stroke-width: 0.2; stroke-linecap: round"/>
    <path d="M 2626.472876 759.873831 
L 2628.817359 756.065498 
L 2630.457336 760.226084 
z
" clip-path="url(#pf397e12a05)" style="stroke: #000000; stroke-width: 0.2; stroke-linecap: round"/>
   </g>
   <g id="patch_7">
    <path d="M 2351.825044 925.601622 
Q 2472.406294 965.310291 2592.775158 1004.94902 
" clip-path="url(#pf397e12a05)" style="fill: none; stroke: #000000; stroke-width: 0.2; stroke-linecap: round"/>
    <path d="M 2589.601438 1001.798226 
L 2592.775158 1004.94902 
L 2588.350291 1005.597519 
z
" clip-path="url(#pf397e12a05)" style="stroke: #000000; stroke-width: 0.2; stroke-linecap: round"/>
   </g>
   <g id="patch_8">
    <path d="M 2347.646362 931.867783 
Q 2377.385402 966.214744 2406.978074 1000.392659 
" clip-path="url(#pf397e12a05)" style="fill: none; stroke: #000000; stroke-width: 0.2; stroke-linecap: round"/>
    <path d="M 2405.871771 996.05952 
L 2406.978074 1000.392659 
L 2402.847781 998.677818 
z
" clip-path="url(#pf397e12a05)" style="stroke: #000000; stroke-width: 0.2; stroke-linecap: round"/>
   </g>
   <g id="patch_9">
    <path d="M 2324.308973 919.868845 
Q 2233.596512 911.439176 2143.106698 903.030197 
" clip-path="url(#pf397e12a05)" style="fill: none; stroke: #000000; stroke-width: 0.2; stroke-linecap: round"/>
    <path d="M 2146.904481 905.391731 
L 2143.106698 903.030197 
L 2147.274595 901.408891 
z
" clip-path="url(#pf397e12a05)" style="stroke: #000000; stroke-width: 0.2; stroke-linecap: round"/>
   </g>
   <g id="patch_10">
    <path d="M 2335.814374 907.268713 
Q 2319.604474 819.738799 2303.435293 732.428753 
" clip-path="url(#pf397e12a05)" style="fill: none; stroke: #000000; stroke-width: 0.2; stroke-linecap: round"/>
    <path d="M 2302.197117 736.726068 
L 2303.435293 732.428753 
L 2306.13024 735.997683 
z
" clip-path="url(#pf397e12a05)" style="stroke: #000000; stroke-width: 0.2; stroke-linecap: round"/>
   </g>
   <g id="patch_11">
    <path d="M 2571.536556 1264.486905 
Q 2497.653358 1143.899701 2423.88698 1023.503162 
" clip-path="url(#pf397e12a05)" style="fill: none; stroke: #000000; stroke-width: 0.2; stroke-linecap: round"/>
    <path d="M 2424.271351 1027.958749 
L 2423.88698 1023.503162 
L 2427.682073 1025.869017 
z
" clip-path="url(#pf397e12a05)" style="stroke: #000000; stroke-width: 0.2; stroke-linecap: round"/>
   </g>
   <g id="patch_12">
    <path d="M 2407.125042 1000.5624 
Q 2377.386003 966.215439 2347.79333 932.037524 
" clip-path="url(#pf397e12a05)" style="fill: none; stroke: #000000; stroke-width: 0.2; stroke-linecap: round"/>
    <path d="M 2348.899633 936.370663 
L 2347.79333 932.037524 
L 2351.923623 933.752365 
z
" clip-path="url(#pf397e12a05)" style="stroke: #000000; stroke-width: 0.2; stroke-linecap: round"/>
   </g>
   <g id="patch_13">
    <path d="M 2430.523174 1011.118017 
Q 2511.399368 1010.347145 2592.051965 1009.578405 
" clip-path="url(#pf397e12a05)" style="fill: none; stroke: #000000; stroke-width: 0.2; stroke-linecap: round"/>
    <path d="M 2588.033085 1007.61662 
L 2592.051965 1009.578405 
L 2588.071209 1011.616438 
z
" clip-path="url(#pf397e12a05)" style="stroke: #000000; stroke-width: 0.2; stroke-linecap: round"/>
   </g>
   <g id="patch_14">
    <path d="M 2423.769833 1023.311962 
Q 2497.653031 1143.899166 2571.419409 1264.295705 
" clip-path="url(#pf397e12a05)" style="fill: none; stroke: #000000; stroke-width: 0.2; stroke-linecap: round"/>
    <path d="M 2571.035037 1259.840118 
L 2571.419409 1264.295705 
L 2567.624316 1261.92985 
z
" clip-path="url(#pf397e12a05)" style="stroke: #000000; stroke-width: 0.2; stroke-linecap: round"/>
   </g>
   <g id="patch_15">
    <path d="M 2403.168565 1006.219526 
Q 2272.592837 956.47757 2142.226067 906.815215 
" clip-path="url(#pf397e12a05)" style="fill: none; stroke: #000000; stroke-width: 0.2; stroke-linecap: round"/>
    <path d="M 2145.252053 910.108148 
L 2142.226067 906.815215 
L 2146.676005 906.370186 
z
" clip-path="url(#pf397e12a05)" style="stroke: #000000; stroke-width: 0.2; stroke-linecap: round"/>
   </g>
   <g id="patch_16">
    <path d="M 2411.191746 998.097392 
Q 2358.599893 864.776731 2306.090094 731.664078 
" clip-path="url(#pf397e12a05)" style="fill: none; stroke: #000000; stroke-width: 0.2; stroke-linecap: round"/>
    <path d="M 2305.697445 736.118944 
L 2306.090094 731.664078 
L 2309.418397 734.651116 
z
" clip-path="url(#pf397e12a05)" style="stroke: #000000; stroke-width: 0.2; stroke-linecap: round"/>
   </g>
   <g id="patch_17">
    <path d="M 2425.1196 1000.136099 
Q 2482.831767 926.716131 2540.405747 853.471961 
" clip-path="url(#pf397e12a05)" style="fill: none; stroke: #000000; stroke-width: 0.2; stroke-linecap: round"/>
    <path d="M 2536.361422 855.380738 
L 2540.405747 853.471961 
L 2539.506174 857.852688 
z
" clip-path="url(#pf397e12a05)" style="stroke: #000000; stroke-width: 0.2; stroke-linecap: round"/>
   </g>
   <g id="patch_18">
    <path d="M 2553.854479 855.559072 
Q 2577.850812 925.810657 2601.774866 995.850638 
" clip-path="url(#pf397e12a05)" style="fill: none; stroke: #000000; stroke-width: 0.2; stroke-linecap: round"/>
    <path d="M 2602.374539 991.41889 
L 2601.774866 995.850638 
L 2598.589271 992.711851 
z
" clip-path="url(#pf397e12a05)" style="stroke: #000000; stroke-width: 0.2; stroke-linecap: round"/>
   </g>
   <g id="patch_19">
    <path d="M 2540.545342 853.294372 
Q 2482.833176 926.714339 2425.259195 999.958509 
" clip-path="url(#pf397e12a05)" style="fill: none; stroke: #000000; stroke-width: 0.2; stroke-linecap: round"/>
    <path d="M 2429.303521 998.049732 
L 2425.259195 999.958509 
L 2426.158769 995.577783 
z
" clip-path="url(#pf397e12a05)" style="stroke: #000000; stroke-width: 0.2; stroke-linecap: round"/>
   </g>
   <g id="patch_20">
    <path d="M 2536.624651 835.86632 
Q 2425.049179 780.238832 2313.673822 724.711114 
" clip-path="url(#pf397e12a05)" style="fill: none; stroke: #000000; stroke-width: 0.2; stroke-linecap: round"/>
    <path d="M 2316.361215 728.285736 
L 2313.673822 724.711114 
L 2318.145955 724.705973 
z
" clip-path="url(#pf397e12a05)" style="stroke: #000000; stroke-width: 0.2; stroke-linecap: round"/>
   </g>
   <g id="patch_21">
    <path d="M 2558.148203 831.160048 
Q 2589.682086 791.966889 2621.075798 752.947948 
" clip-path="url(#pf397e12a05)" style="fill: none; stroke: #000000; stroke-width: 0.2; stroke-linecap: round"/>
    <path d="M 2617.010078 754.810721 
L 2621.075798 752.947948 
L 2620.126584 757.318188 
z
" clip-path="url(#pf397e12a05)" style="stroke: #000000; stroke-width: 0.2; stroke-linecap: round"/>
   </g>
   <g id="patch_22">
    <path d="M 2628.837189 755.841196 
Q 2618.249985 875.596672 2607.682472 995.12941 
" clip-path="url(#pf397e12a05)" style="fill: none; stroke: #000000; stroke-width: 0.2; stroke-linecap: round"/>
    <path d="M 2610.026956 991.321077 
L 2607.682472 995.12941 
L 2606.042496 990.968824 
z
" clip-path="url(#pf397e12a05)" style="stroke: #000000; stroke-width: 0.2; stroke-linecap: round"/>
   </g>
   <g id="patch_23">
    <path d="M 2615.97731 740.748799 
Q 2465.450537 730.027811 2315.146806 719.322709 
" clip-path="url(#pf397e12a05)" style="fill: none; stroke: #000000; stroke-width: 0.2; stroke-linecap: round"/>
    <path d="M 2318.994612 721.601828 
L 2315.146806 719.322709 
L 2319.278785 717.611935 
z
" clip-path="url(#pf397e12a05)" style="stroke: #000000; stroke-width: 0.2; stroke-linecap: round"/>
   </g>
   <g id="patch_24">
    <path d="M 2621.218136 752.771038 
Q 2589.684253 791.964197 2558.290541 830.983137 
" clip-path="url(#pf397e12a05)" style="fill: none; stroke: #000000; stroke-width: 0.2; stroke-linecap: round"/>
    <path d="M 2562.356261 829.120365 
L 2558.290541 830.983137 
L 2559.239755 826.612898 
z
" clip-path="url(#pf397e12a05)" style="stroke: #000000; stroke-width: 0.2; stroke-linecap: round"/>
   </g>
   <g id="patch_25">
    <path d="M 2142.881421 903.009262 
Q 2233.593882 911.438932 2324.083696 919.847911 
" clip-path="url(#pf397e12a05)" style="fill: none; stroke: #000000; stroke-width: 0.2; stroke-linecap: round"/>
    <path d="M 2320.285913 917.486376 
L 2324.083696 919.847911 
L 2319.915798 921.469216 
z
" clip-path="url(#pf397e12a05)" style="stroke: #000000; stroke-width: 0.2; stroke-linecap: round"/>
   </g>
   <g id="patch_26">
    <path d="M 2142.012921 906.734019 
Q 2272.58865 956.475975 2402.95542 1006.13833 
" clip-path="url(#pf397e12a05)" style="fill: none; stroke: #000000; stroke-width: 0.2; stroke-linecap: round"/>
    <path d="M 2399.929433 1002.845397 
L 2402.95542 1006.13833 
L 2398.505482 1006.583359 
z
" clip-path="url(#pf397e12a05)" style="stroke: #000000; stroke-width: 0.2; stroke-linecap: round"/>
   </g>
   <g id="patch_27">
    <path d="M 2121.959805 889.328114 
Q 2057.393098 772.543184 1992.934582 655.953946 
" clip-path="url(#pf397e12a05)" style="fill: none; stroke: #000000; stroke-width: 0.2; stroke-linecap: round"/>
    <path d="M 1993.119654 660.422251 
L 1992.934582 655.953946 
L 1996.620269 658.486871 
z
" clip-path="url(#pf397e12a05)" style="stroke: #000000; stroke-width: 0.2; stroke-linecap: round"/>
   </g>
   <g id="patch_28">
    <path d="M 2303.39495 732.210909 
Q 2319.604849 819.740823 2335.774031 907.050869 
" clip-path="url(#pf397e12a05)" style="fill: none; stroke: #000000; stroke-width: 0.2; stroke-linecap: round"/>
    <path d="M 2337.012207 902.753554 
L 2335.774031 907.050869 
L 2333.079084 903.481939 
z
" clip-path="url(#pf397e12a05)" style="stroke: #000000; stroke-width: 0.2; stroke-linecap: round"/>
   </g>
   <g id="patch_29">
    <path d="M 2306.00867 731.457668 
Q 2358.600523 864.778328 2411.110322 997.890982 
" clip-path="url(#pf397e12a05)" style="fill: none; stroke: #000000; stroke-width: 0.2; stroke-linecap: round"/>
    <path d="M 2411.50297 993.436116 
L 2411.110322 997.890982 
L 2407.782019 994.903944 
z
" clip-path="url(#pf397e12a05)" style="stroke: #000000; stroke-width: 0.2; stroke-linecap: round"/>
   </g>
   <g id="patch_30">
    <path d="M 2289.873135 709.347073 
Q 2148.285753 593.511498 2006.871439 477.817514 
" clip-path="url(#pf397e12a05)" style="fill: none; stroke: #000000; stroke-width: 0.2; stroke-linecap: round"/>
    <path d="M 2008.700942 481.898313 
L 2006.871439 477.817514 
L 2011.23378 478.802391 
z
" clip-path="url(#pf397e12a05)" style="stroke: #000000; stroke-width: 0.2; stroke-linecap: round"/>
   </g>
   <g id="patch_31">
    <path d="M 2313.478211 724.61359 
Q 2425.053683 780.241078 2536.42904 835.768795 
" clip-path="url(#pf397e12a05)" style="fill: none; stroke: #000000; stroke-width: 0.2; stroke-linecap: round"/>
    <path d="M 2533.741648 832.194174 
L 2536.42904 835.768795 
L 2531.956907 835.773937 
z
" clip-path="url(#pf397e12a05)" style="stroke: #000000; stroke-width: 0.2; stroke-linecap: round"/>
   </g>
   <g id="patch_32">
    <path d="M 2314.924502 719.306875 
Q 2465.451275 730.027864 2615.755006 740.732966 
" clip-path="url(#pf397e12a05)" style="fill: none; stroke: #000000; stroke-width: 0.2; stroke-linecap: round"/>
    <path d="M 2611.9072 738.453847 
L 2615.755006 740.732966 
L 2611.623027 742.44374 
z
" clip-path="url(#pf397e12a05)" style="stroke: #000000; stroke-width: 0.2; stroke-linecap: round"/>
   </g>
   <g id="patch_33">
    <path d="M 2287.065384 715.029434 
Q 2143.405261 680.844442 1999.962672 646.711214 
" clip-path="url(#pf397e12a05)" style="fill: none; stroke: #000000; stroke-width: 0.2; stroke-linecap: round"/>
    <path d="M 2003.39103 649.582862 
L 1999.962672 646.711214 
L 2004.317005 645.691516 
z
" clip-path="url(#pf397e12a05)" style="stroke: #000000; stroke-width: 0.2; stroke-linecap: round"/>
   </g>
   <g id="patch_34">
    <path d="M 2006.70068 477.677813 
Q 2148.288062 593.513387 2289.702376 709.207371 
" clip-path="url(#pf397e12a05)" style="fill: none; stroke: #000000; stroke-width: 0.2; stroke-linecap: round"/>
    <path d="M 2287.872873 705.126572 
L 2289.702376 709.207371 
L 2285.340035 708.222494 
z
" clip-path="url(#pf397e12a05)" style="stroke: #000000; stroke-width: 0.2; stroke-linecap: round"/>
   </g>
   <g id="patch_35">
    <path d="M 1987.609539 457.160705 
Q 1918.683955 359.321264 1849.88715 261.664623 
" clip-path="url(#pf397e12a05)" style="fill: none; stroke: #000000; stroke-width: 0.2; stroke-linecap: round"/>
    <path d="M 1850.555796 266.086491 
L 1849.88715 261.664623 
L 1853.825832 263.782828 
z
" clip-path="url(#pf397e12a05)" style="stroke: #000000; stroke-width: 0.2; stroke-linecap: round"/>
   </g>
   <g id="patch_36">
    <path d="M 1994.964772 482.845217 
Q 1990.870271 556.05293 1986.788257 629.037384 
" clip-path="url(#pf397e12a05)" style="fill: none; stroke: #000000; stroke-width: 0.2; stroke-linecap: round"/>
    <path d="M 1989.008507 625.155311 
L 1986.788257 629.037384 
L 1985.014749 624.93194 
z
" clip-path="url(#pf397e12a05)" style="stroke: #000000; stroke-width: 0.2; stroke-linecap: round"/>
   </g>
   <g id="patch_37">
    <path d="M 1981.86763 466.060418 
Q 1864.807766 443.619392 1747.967509 421.220466 
" clip-path="url(#pf397e12a05)" style="fill: none; stroke: #000000; stroke-width: 0.2; stroke-linecap: round"/>
    <path d="M 1751.519419 423.937806 
L 1747.967509 421.220466 
L 1752.272527 420.009342 
z
" clip-path="url(#pf397e12a05)" style="stroke: #000000; stroke-width: 0.2; stroke-linecap: round"/>
   </g>
   <g id="patch_38">
    <path d="M 1992.826212 655.75793 
Q 2057.392919 772.542859 2121.851435 889.132098 
" clip-path="url(#pf397e12a05)" style="fill: none; stroke: #000000; stroke-width: 0.2; stroke-linecap: round"/>
    <path d="M 2121.666362 884.663793 
L 2121.851435 889.132098 
L 2118.165747 886.599173 
z
" clip-path="url(#pf397e12a05)" style="stroke: #000000; stroke-width: 0.2; stroke-linecap: round"/>
   </g>
   <g id="patch_39">
    <path d="M 1986.775654 629.262727 
Q 1990.870155 556.055015 1994.952169 483.070561 
" clip-path="url(#pf397e12a05)" style="fill: none; stroke: #000000; stroke-width: 0.2; stroke-linecap: round"/>
    <path d="M 1992.731919 486.952634 
L 1994.952169 483.070561 
L 1996.725678 487.176004 
z
" clip-path="url(#pf397e12a05)" style="stroke: #000000; stroke-width: 0.2; stroke-linecap: round"/>
   </g>
   <g id="patch_40">
    <path d="M 1999.739563 646.658124 
Q 2143.399685 680.843116 2286.842275 714.976344 
" clip-path="url(#pf397e12a05)" style="fill: none; stroke: #000000; stroke-width: 0.2; stroke-linecap: round"/>
    <path d="M 2283.413916 712.104697 
L 2286.842275 714.976344 
L 2282.487942 715.996042 
z
" clip-path="url(#pf397e12a05)" style="stroke: #000000; stroke-width: 0.2; stroke-linecap: round"/>
   </g>
   <g id="patch_41">
    <path d="M 1975.430978 633.971683 
Q 1859.919961 530.949608 1744.575821 428.076367 
" clip-path="url(#pf397e12a05)" style="fill: none; stroke: #000000; stroke-width: 0.2; stroke-linecap: round"/>
    <path d="M 1746.229798 432.231407 
L 1744.575821 428.076367 
L 1748.89224 429.246209 
z
" clip-path="url(#pf397e12a05)" style="stroke: #000000; stroke-width: 0.2; stroke-linecap: round"/>
   </g>
   <g id="patch_42">
    <path d="M 1747.742515 421.177333 
Q 1864.802379 443.618359 1981.642636 466.017285 
" clip-path="url(#pf397e12a05)" style="fill: none; stroke: #000000; stroke-width: 0.2; stroke-linecap: round"/>
    <path d="M 1978.090727 463.299945 
L 1981.642636 466.017285 
L 1977.337618 467.228409 
z
" clip-path="url(#pf397e12a05)" style="stroke: #000000; stroke-width: 0.2; stroke-linecap: round"/>
   </g>
   <g id="patch_43">
    <path d="M 1741.469907 406.601415 
Q 1787.732055 334.218477 1833.873782 262.02395 
" clip-path="url(#pf397e12a05)" style="fill: none; stroke: #000000; stroke-width: 0.2; stroke-linecap: round"/>
    <path d="M 1830.034439 264.317298 
L 1833.873782 262.02395 
L 1833.404854 266.471433 
z
" clip-path="url(#pf397e12a05)" style="stroke: #000000; stroke-width: 0.2; stroke-linecap: round"/>
   </g>
   <g id="patch_44">
    <path d="M 1744.410299 427.928741 
Q 1859.921316 530.950816 1975.265456 633.824057 
" clip-path="url(#pf397e12a05)" style="fill: none; stroke: #000000; stroke-width: 0.2; stroke-linecap: round"/>
    <path d="M 1973.611479 629.669017 
L 1975.265456 633.824057 
L 1970.949037 632.654215 
z
" clip-path="url(#pf397e12a05)" style="stroke: #000000; stroke-width: 0.2; stroke-linecap: round"/>
   </g>
   <g id="patch_45">
    <path d="M 1721.012469 412.588905 
Q 1590.270417 352.260075 1459.731399 292.024931 
" clip-path="url(#pf397e12a05)" style="fill: none; stroke: #000000; stroke-width: 0.2; stroke-linecap: round"/>
    <path d="M 1462.525421 295.516842 
L 1459.731399 292.024931 
L 1464.201341 291.88486 
z
" clip-path="url(#pf397e12a05)" style="stroke: #000000; stroke-width: 0.2; stroke-linecap: round"/>
   </g>
   <g id="patch_46">
    <path d="M 1849.756585 261.479286 
Q 1918.682168 359.318727 1987.478973 456.975368 
" clip-path="url(#pf397e12a05)" style="fill: none; stroke: #000000; stroke-width: 0.2; stroke-linecap: round"/>
    <path d="M 1986.810328 452.5535 
L 1987.478973 456.975368 
L 1983.540292 454.857164 
z
" clip-path="url(#pf397e12a05)" style="stroke: #000000; stroke-width: 0.2; stroke-linecap: round"/>
   </g>
   <g id="patch_47">
    <path d="M 1833.997067 261.831055 
Q 1787.73492 334.213994 1741.593193 406.40852 
" clip-path="url(#pf397e12a05)" style="fill: none; stroke: #000000; stroke-width: 0.2; stroke-linecap: round"/>
    <path d="M 1745.432536 404.115173 
L 1741.593193 406.40852 
L 1742.06212 401.961037 
z
" clip-path="url(#pf397e12a05)" style="stroke: #000000; stroke-width: 0.2; stroke-linecap: round"/>
   </g>
   <g id="patch_48">
    <path d="M 1459.533478 291.933604 
Q 1590.27553 352.262434 1720.814548 412.497577 
" clip-path="url(#pf397e12a05)" style="fill: none; stroke: #000000; stroke-width: 0.2; stroke-linecap: round"/>
    <path d="M 1718.020527 409.005667 
L 1720.814548 412.497577 
L 1716.344607 412.637648 
z
" clip-path="url(#pf397e12a05)" style="stroke: #000000; stroke-width: 0.2; stroke-linecap: round"/>
   </g>
   <g id="patch_49">
    <path d="M 2364.630005 2524.767804 
Q 2287.36198 2573.644811 2210.282929 2622.402281 
" clip-path="url(#pf397e12a05)" style="fill: none; stroke: #000000; stroke-width: 0.2; stroke-linecap: round"/>
    <path d="M 2214.732556 2621.954153 
L 2210.282929 2622.402281 
L 2212.594203 2618.573702 
z
" clip-path="url(#pf397e12a05)" style="stroke: #000000; stroke-width: 0.2; stroke-linecap: round"/>
   </g>
   <g id="patch_50">
    <path d="M 2385.18357 2505.983695 
Q 2440.929535 2433.251763 2496.539474 2360.697305 
" clip-path="url(#pf397e12a05)" style="fill: none; stroke: #000000; stroke-width: 0.2; stroke-linecap: round"/>
    <path d="M 2492.518793 2362.655396 
L 2496.539474 2360.697305 
L 2495.693538 2365.088705 
z
" clip-path="url(#pf397e12a05)" style="stroke: #000000; stroke-width: 0.2; stroke-linecap: round"/>
   </g>
   <g id="patch_51">
    <path d="M 2210.091499 2622.523372 
Q 2287.359524 2573.646365 2364.438575 2524.888895 
" clip-path="url(#pf397e12a05)" style="fill: none; stroke: #000000; stroke-width: 0.2; stroke-linecap: round"/>
    <path d="M 2359.988948 2525.337023 
L 2364.438575 2524.888895 
L 2362.127301 2528.717473 
z
" clip-path="url(#pf397e12a05)" style="stroke: #000000; stroke-width: 0.2; stroke-linecap: round"/>
   </g>
   <g id="patch_52">
    <path d="M 2496.675785 2360.51946 
Q 2440.92982 2433.251392 2385.319881 2505.80585 
" clip-path="url(#pf397e12a05)" style="fill: none; stroke: #000000; stroke-width: 0.2; stroke-linecap: round"/>
    <path d="M 2389.340562 2503.847759 
L 2385.319881 2505.80585 
L 2386.165817 2501.41445 
z
" clip-path="url(#pf397e12a05)" style="stroke: #000000; stroke-width: 0.2; stroke-linecap: round"/>
   </g>
   <g id="patch_53">
    <path d="M 252.196398 1414.053795 
Q 263.728868 1343.41401 275.225309 1272.994911 
" clip-path="url(#pf397e12a05)" style="fill: none; stroke: #000000; stroke-width: 0.2; stroke-linecap: round"/>
    <path d="M 272.606943 1276.620398 
L 275.225309 1272.994911 
L 276.55468 1277.264896 
z
" clip-path="url(#pf397e12a05)" style="stroke: #000000; stroke-width: 0.2; stroke-linecap: round"/>
   </g>
   <g id="patch_54">
    <path d="M 275.261641 1272.772367 
Q 263.729171 1343.412152 252.23273 1413.831251 
" clip-path="url(#pf397e12a05)" style="fill: none; stroke: #000000; stroke-width: 0.2; stroke-linecap: round"/>
    <path d="M 254.851095 1410.205764 
L 252.23273 1413.831251 
L 250.903359 1409.561266 
z
" clip-path="url(#pf397e12a05)" style="stroke: #000000; stroke-width: 0.2; stroke-linecap: round"/>
   </g>
   <g id="PathCollection_1">
    <defs>
     <path id="C0_0_96c2377b8b" d="M 0 14.142136 
C 3.750538 14.142136 7.347969 12.652031 10 10 
C 12.652031 7.347969 14.142136 3.750538 14.142136 -0 
C 14.142136 -3.750538 12.652031 -7.347969 10 -10 
C 7.347969 -12.652031 3.750538 -14.142136 0 -14.142136 
C -3.750538 -14.142136 -7.347969 -12.652031 -10 -10 
C -12.652031 -7.347969 -14.142136 -3.750538 -14.142136 0 
C -14.142136 3.750538 -12.652031 7.347969 -10 10 
C -7.347969 12.652031 -3.750538 14.142136 0 14.142136 
z
"/>
    </defs>
    <g clip-path="url(#pf397e12a05)">
     <use xlink:href="#C0_0_96c2377b8b" x="2606.417187" y="1009.441483" style="fill: #0000ff; stroke: #0000ff"/>
    </g>
    <g clip-path="url(#pf397e12a05)">
     <use xlink:href="#C0_0_96c2377b8b" x="2338.390156" y="921.177373" style="fill: #ffa500; stroke: #ffa500"/>
    </g>
    <g clip-path="url(#pf397e12a05)">
     <use xlink:href="#C0_0_96c2377b8b" x="2578.92514" y="1276.546057" style="fill: #ffa500; stroke: #ffa500"/>
    </g>
    <g clip-path="url(#pf397e12a05)">
     <use xlink:href="#C0_0_96c2377b8b" x="2416.381248" y="1011.25281" style="fill: #ffff00; stroke: #ffff00"/>
    </g>
    <g clip-path="url(#pf397e12a05)">
     <use xlink:href="#C0_0_96c2377b8b" x="2549.283695" y="842.17766" style="fill: #ffa500; stroke: #ffa500"/>
    </g>
    <g clip-path="url(#pf397e12a05)">
     <use xlink:href="#C0_0_96c2377b8b" x="2630.082645" y="741.753425" style="fill: #ffff00; stroke: #ffff00"/>
    </g>
    <g clip-path="url(#pf397e12a05)">
     <use xlink:href="#C0_0_96c2377b8b" x="2128.800238" y="901.700735" style="fill: #0000ff; stroke: #0000ff"/>
    </g>
    <g clip-path="url(#pf397e12a05)">
     <use xlink:href="#C0_0_96c2377b8b" x="2300.819168" y="718.302249" style="fill: #0000ff; stroke: #0000ff"/>
    </g>
    <g clip-path="url(#pf397e12a05)">
     <use xlink:href="#C0_0_96c2377b8b" x="1995.754647" y="468.722636" style="fill: #ffa500; stroke: #ffa500"/>
    </g>
    <g clip-path="url(#pf397e12a05)">
     <use xlink:href="#C0_0_96c2377b8b" x="1985.985779" y="643.385309" style="fill: #ffff00; stroke: #ffff00"/>
    </g>
    <g clip-path="url(#pf397e12a05)">
     <use xlink:href="#C0_0_96c2377b8b" x="1733.855498" y="418.515115" style="fill: #ffa500; stroke: #ffa500"/>
    </g>
    <g clip-path="url(#pf397e12a05)">
     <use xlink:href="#C0_0_96c2377b8b" x="1841.611477" y="249.917355" style="fill: #ffff00; stroke: #ffff00"/>
    </g>
    <g clip-path="url(#pf397e12a05)">
     <use xlink:href="#C0_0_96c2377b8b" x="1446.690449" y="286.007394" style="fill: #ffff00; stroke: #ffff00"/>
    </g>
    <g clip-path="url(#pf397e12a05)">
     <use xlink:href="#C0_0_96c2377b8b" x="2376.580206" y="2517.208531" style="fill: #ffa500; stroke: #ffa500"/>
    </g>
    <g clip-path="url(#pf397e12a05)">
     <use xlink:href="#C0_0_96c2377b8b" x="2198.141298" y="2630.082645" style="fill: #ffff00; stroke: #ffff00"/>
    </g>
    <g clip-path="url(#pf397e12a05)">
     <use xlink:href="#C0_0_96c2377b8b" x="2505.279149" y="2349.294624" style="fill: #ffff00; stroke: #ffff00"/>
    </g>
    <g clip-path="url(#pf397e12a05)">
     <use xlink:href="#C0_0_96c2377b8b" x="249.917355" y="1428.013604" style="fill: #0000ff; stroke: #0000ff"/>
    </g>
    <g clip-path="url(#pf397e12a05)">
     <use xlink:href="#C0_0_96c2377b8b" x="277.540683" y="1258.812558" style="fill: #ffa500; stroke: #ffa500"/>
    </g>
   </g>
   <g id="text_1">
    <g clip-path="url(#pf397e12a05)">
     <!-- VAL 5 -->
     <g transform="translate(2595.154687 1011.648983) scale(0.08 -0.08)">
      <defs>
       <path id="DejaVuSans-56" d="M 1831 0 
L 50 4666 
L 709 4666 
L 2188 738 
L 3669 4666 
L 4325 4666 
L 2547 0 
L 1831 0 
z
" transform="scale(0.015625)"/>
       <path id="DejaVuSans-41" d="M 2188 4044 
L 1331 1722 
L 3047 1722 
L 2188 4044 
z
M 1831 4666 
L 2547 4666 
L 4325 0 
L 3669 0 
L 3244 1197 
L 1141 1197 
L 716 0 
L 50 0 
L 1831 4666 
z
" transform="scale(0.015625)"/>
       <path id="DejaVuSans-4c" d="M 628 4666 
L 1259 4666 
L 1259 531 
L 3531 531 
L 3531 0 
L 628 0 
L 628 4666 
z
" transform="scale(0.015625)"/>
       <path id="DejaVuSans-20" transform="scale(0.015625)"/>
       <path id="DejaVuSans-35" d="M 691 4666 
L 3169 4666 
L 3169 4134 
L 1269 4134 
L 1269 2991 
Q 1406 3038 1543 3061 
Q 1681 3084 1819 3084 
Q 2600 3084 3056 2656 
Q 3513 2228 3513 1497 
Q 3513 744 3044 326 
Q 2575 -91 1722 -91 
Q 1428 -91 1123 -41 
Q 819 9 494 109 
L 494 744 
Q 775 591 1075 516 
Q 1375 441 1709 441 
Q 2250 441 2565 725 
Q 2881 1009 2881 1497 
Q 2881 1984 2565 2268 
Q 2250 2553 1709 2553 
Q 1456 2553 1204 2497 
Q 953 2441 691 2322 
L 691 4666 
z
" transform="scale(0.015625)"/>
      </defs>
      <use xlink:href="#DejaVuSans-56"/>
      <use xlink:href="#DejaVuSans-41" x="62.033203"/>
      <use xlink:href="#DejaVuSans-4c" x="130.441406"/>
      <use xlink:href="#DejaVuSans-20" x="186.154297"/>
      <use xlink:href="#DejaVuSans-35" x="217.941406"/>
     </g>
    </g>
   </g>
   <g id="text_2">
    <g clip-path="url(#pf397e12a05)">
     <!-- ILE 3 -->
     <g transform="translate(2328.637656 923.384873) scale(0.08 -0.08)">
      <defs>
       <path id="DejaVuSans-49" d="M 628 4666 
L 1259 4666 
L 1259 0 
L 628 0 
L 628 4666 
z
" transform="scale(0.015625)"/>
       <path id="DejaVuSans-45" d="M 628 4666 
L 3578 4666 
L 3578 4134 
L 1259 4134 
L 1259 2753 
L 3481 2753 
L 3481 2222 
L 1259 2222 
L 1259 531 
L 3634 531 
L 3634 0 
L 628 0 
L 628 4666 
z
" transform="scale(0.015625)"/>
       <path id="DejaVuSans-33" d="M 2597 2516 
Q 3050 2419 3304 2112 
Q 3559 1806 3559 1356 
Q 3559 666 3084 287 
Q 2609 -91 1734 -91 
Q 1441 -91 1130 -33 
Q 819 25 488 141 
L 488 750 
Q 750 597 1062 519 
Q 1375 441 1716 441 
Q 2309 441 2620 675 
Q 2931 909 2931 1356 
Q 2931 1769 2642 2001 
Q 2353 2234 1838 2234 
L 1294 2234 
L 1294 2753 
L 1863 2753 
Q 2328 2753 2575 2939 
Q 2822 3125 2822 3475 
Q 2822 3834 2567 4026 
Q 2313 4219 1838 4219 
Q 1578 4219 1281 4162 
Q 984 4106 628 3988 
L 628 4550 
Q 988 4650 1302 4700 
Q 1616 4750 1894 4750 
Q 2613 4750 3031 4423 
Q 3450 4097 3450 3541 
Q 3450 3153 3228 2886 
Q 3006 2619 2597 2516 
z
" transform="scale(0.015625)"/>
      </defs>
      <use xlink:href="#DejaVuSans-49"/>
      <use xlink:href="#DejaVuSans-4c" x="29.492188"/>
      <use xlink:href="#DejaVuSans-45" x="85.205078"/>
      <use xlink:href="#DejaVuSans-20" x="148.388672"/>
      <use xlink:href="#DejaVuSans-33" x="180.175781"/>
     </g>
    </g>
   </g>
   <g id="text_3">
    <g clip-path="url(#pf397e12a05)">
     <!-- ILE 13 -->
     <g transform="translate(2566.62764 1278.753557) scale(0.08 -0.08)">
      <defs>
       <path id="DejaVuSans-31" d="M 794 531 
L 1825 531 
L 1825 4091 
L 703 3866 
L 703 4441 
L 1819 4666 
L 2450 4666 
L 2450 531 
L 3481 531 
L 3481 0 
L 794 0 
L 794 531 
z
" transform="scale(0.015625)"/>
      </defs>
      <use xlink:href="#DejaVuSans-49"/>
      <use xlink:href="#DejaVuSans-4c" x="29.492188"/>
      <use xlink:href="#DejaVuSans-45" x="85.205078"/>
      <use xlink:href="#DejaVuSans-20" x="148.388672"/>
      <use xlink:href="#DejaVuSans-31" x="180.175781"/>
      <use xlink:href="#DejaVuSans-33" x="243.798828"/>
     </g>
    </g>
   </g>
   <g id="text_4">
    <g clip-path="url(#pf397e12a05)">
     <!-- LEU 15 -->
     <g transform="translate(2402.336248 1013.46031) scale(0.08 -0.08)">
      <defs>
       <path id="DejaVuSans-55" d="M 556 4666 
L 1191 4666 
L 1191 1831 
Q 1191 1081 1462 751 
Q 1734 422 2344 422 
Q 2950 422 3222 751 
Q 3494 1081 3494 1831 
L 3494 4666 
L 4128 4666 
L 4128 1753 
Q 4128 841 3676 375 
Q 3225 -91 2344 -91 
Q 1459 -91 1007 375 
Q 556 841 556 1753 
L 556 4666 
z
" transform="scale(0.015625)"/>
      </defs>
      <use xlink:href="#DejaVuSans-4c"/>
      <use xlink:href="#DejaVuSans-45" x="55.712891"/>
      <use xlink:href="#DejaVuSans-55" x="118.896484"/>
      <use xlink:href="#DejaVuSans-20" x="192.089844"/>
      <use xlink:href="#DejaVuSans-31" x="223.876953"/>
      <use xlink:href="#DejaVuSans-35" x="287.5"/>
     </g>
    </g>
   </g>
   <g id="text_5">
    <g clip-path="url(#pf397e12a05)">
     <!-- ILE 30 -->
     <g transform="translate(2536.986195 844.38516) scale(0.08 -0.08)">
      <defs>
       <path id="DejaVuSans-30" d="M 2034 4250 
Q 1547 4250 1301 3770 
Q 1056 3291 1056 2328 
Q 1056 1369 1301 889 
Q 1547 409 2034 409 
Q 2525 409 2770 889 
Q 3016 1369 3016 2328 
Q 3016 3291 2770 3770 
Q 2525 4250 2034 4250 
z
M 2034 4750 
Q 2819 4750 3233 4129 
Q 3647 3509 3647 2328 
Q 3647 1150 3233 529 
Q 2819 -91 2034 -91 
Q 1250 -91 836 529 
Q 422 1150 422 2328 
Q 422 3509 836 4129 
Q 1250 4750 2034 4750 
z
" transform="scale(0.015625)"/>
      </defs>
      <use xlink:href="#DejaVuSans-49"/>
      <use xlink:href="#DejaVuSans-4c" x="29.492188"/>
      <use xlink:href="#DejaVuSans-45" x="85.205078"/>
      <use xlink:href="#DejaVuSans-20" x="148.388672"/>
      <use xlink:href="#DejaVuSans-33" x="180.175781"/>
      <use xlink:href="#DejaVuSans-30" x="243.798828"/>
     </g>
    </g>
   </g>
   <g id="text_6">
    <g clip-path="url(#pf397e12a05)">
     <!-- LEU 43 -->
     <g transform="translate(2616.037645 743.960925) scale(0.08 -0.08)">
      <defs>
       <path id="DejaVuSans-34" d="M 2419 4116 
L 825 1625 
L 2419 1625 
L 2419 4116 
z
M 2253 4666 
L 3047 4666 
L 3047 1625 
L 3713 1625 
L 3713 1100 
L 3047 1100 
L 3047 0 
L 2419 0 
L 2419 1100 
L 313 1100 
L 313 1709 
L 2253 4666 
z
" transform="scale(0.015625)"/>
      </defs>
      <use xlink:href="#DejaVuSans-4c"/>
      <use xlink:href="#DejaVuSans-45" x="55.712891"/>
      <use xlink:href="#DejaVuSans-55" x="118.896484"/>
      <use xlink:href="#DejaVuSans-20" x="192.089844"/>
      <use xlink:href="#DejaVuSans-34" x="223.876953"/>
      <use xlink:href="#DejaVuSans-33" x="287.5"/>
     </g>
    </g>
   </g>
   <g id="text_7">
    <g clip-path="url(#pf397e12a05)">
     <!-- VAL 17 -->
     <g transform="translate(2114.992738 903.908235) scale(0.08 -0.08)">
      <defs>
       <path id="DejaVuSans-37" d="M 525 4666 
L 3525 4666 
L 3525 4397 
L 1831 0 
L 1172 0 
L 2766 4134 
L 525 4134 
L 525 4666 
z
" transform="scale(0.015625)"/>
      </defs>
      <use xlink:href="#DejaVuSans-56"/>
      <use xlink:href="#DejaVuSans-41" x="62.033203"/>
      <use xlink:href="#DejaVuSans-4c" x="130.441406"/>
      <use xlink:href="#DejaVuSans-20" x="186.154297"/>
      <use xlink:href="#DejaVuSans-31" x="217.941406"/>
      <use xlink:href="#DejaVuSans-37" x="281.564453"/>
     </g>
    </g>
   </g>
   <g id="text_8">
    <g clip-path="url(#pf397e12a05)">
     <!-- VAL 26 -->
     <g transform="translate(2287.011668 720.509749) scale(0.08 -0.08)">
      <defs>
       <path id="DejaVuSans-32" d="M 1228 531 
L 3431 531 
L 3431 0 
L 469 0 
L 469 531 
Q 828 903 1448 1529 
Q 2069 2156 2228 2338 
Q 2531 2678 2651 2914 
Q 2772 3150 2772 3378 
Q 2772 3750 2511 3984 
Q 2250 4219 1831 4219 
Q 1534 4219 1204 4116 
Q 875 4013 500 3803 
L 500 4441 
Q 881 4594 1212 4672 
Q 1544 4750 1819 4750 
Q 2544 4750 2975 4387 
Q 3406 4025 3406 3419 
Q 3406 3131 3298 2873 
Q 3191 2616 2906 2266 
Q 2828 2175 2409 1742 
Q 1991 1309 1228 531 
z
" transform="scale(0.015625)"/>
       <path id="DejaVuSans-36" d="M 2113 2584 
Q 1688 2584 1439 2293 
Q 1191 2003 1191 1497 
Q 1191 994 1439 701 
Q 1688 409 2113 409 
Q 2538 409 2786 701 
Q 3034 994 3034 1497 
Q 3034 2003 2786 2293 
Q 2538 2584 2113 2584 
z
M 3366 4563 
L 3366 3988 
Q 3128 4100 2886 4159 
Q 2644 4219 2406 4219 
Q 1781 4219 1451 3797 
Q 1122 3375 1075 2522 
Q 1259 2794 1537 2939 
Q 1816 3084 2150 3084 
Q 2853 3084 3261 2657 
Q 3669 2231 3669 1497 
Q 3669 778 3244 343 
Q 2819 -91 2113 -91 
Q 1303 -91 875 529 
Q 447 1150 447 2328 
Q 447 3434 972 4092 
Q 1497 4750 2381 4750 
Q 2619 4750 2861 4703 
Q 3103 4656 3366 4563 
z
" transform="scale(0.015625)"/>
      </defs>
      <use xlink:href="#DejaVuSans-56"/>
      <use xlink:href="#DejaVuSans-41" x="62.033203"/>
      <use xlink:href="#DejaVuSans-4c" x="130.441406"/>
      <use xlink:href="#DejaVuSans-20" x="186.154297"/>
      <use xlink:href="#DejaVuSans-32" x="217.941406"/>
      <use xlink:href="#DejaVuSans-36" x="281.564453"/>
     </g>
    </g>
   </g>
   <g id="text_9">
    <g clip-path="url(#pf397e12a05)">
     <!-- ILE 23 -->
     <g transform="translate(1983.457147 470.930136) scale(0.08 -0.08)">
      <use xlink:href="#DejaVuSans-49"/>
      <use xlink:href="#DejaVuSans-4c" x="29.492188"/>
      <use xlink:href="#DejaVuSans-45" x="85.205078"/>
      <use xlink:href="#DejaVuSans-20" x="148.388672"/>
      <use xlink:href="#DejaVuSans-32" x="180.175781"/>
      <use xlink:href="#DejaVuSans-33" x="243.798828"/>
     </g>
    </g>
   </g>
   <g id="text_10">
    <g clip-path="url(#pf397e12a05)">
     <!-- LEU 56 -->
     <g transform="translate(1971.940779 645.592809) scale(0.08 -0.08)">
      <use xlink:href="#DejaVuSans-4c"/>
      <use xlink:href="#DejaVuSans-45" x="55.712891"/>
      <use xlink:href="#DejaVuSans-55" x="118.896484"/>
      <use xlink:href="#DejaVuSans-20" x="192.089844"/>
      <use xlink:href="#DejaVuSans-35" x="223.876953"/>
      <use xlink:href="#DejaVuSans-36" x="287.5"/>
     </g>
    </g>
   </g>
   <g id="text_11">
    <g clip-path="url(#pf397e12a05)">
     <!-- ILE 61 -->
     <g transform="translate(1721.557998 420.722615) scale(0.08 -0.08)">
      <use xlink:href="#DejaVuSans-49"/>
      <use xlink:href="#DejaVuSans-4c" x="29.492188"/>
      <use xlink:href="#DejaVuSans-45" x="85.205078"/>
      <use xlink:href="#DejaVuSans-20" x="148.388672"/>
      <use xlink:href="#DejaVuSans-36" x="180.175781"/>
      <use xlink:href="#DejaVuSans-31" x="243.798828"/>
     </g>
    </g>
   </g>
   <g id="text_12">
    <g clip-path="url(#pf397e12a05)">
     <!-- LEU 50 -->
     <g transform="translate(1827.566477 252.124855) scale(0.08 -0.08)">
      <use xlink:href="#DejaVuSans-4c"/>
      <use xlink:href="#DejaVuSans-45" x="55.712891"/>
      <use xlink:href="#DejaVuSans-55" x="118.896484"/>
      <use xlink:href="#DejaVuSans-20" x="192.089844"/>
      <use xlink:href="#DejaVuSans-35" x="223.876953"/>
      <use xlink:href="#DejaVuSans-30" x="287.5"/>
     </g>
    </g>
   </g>
   <g id="text_13">
    <g clip-path="url(#pf397e12a05)">
     <!-- LEU 67 -->
     <g transform="translate(1432.645449 288.214894) scale(0.08 -0.08)">
      <use xlink:href="#DejaVuSans-4c"/>
      <use xlink:href="#DejaVuSans-45" x="55.712891"/>
      <use xlink:href="#DejaVuSans-55" x="118.896484"/>
      <use xlink:href="#DejaVuSans-20" x="192.089844"/>
      <use xlink:href="#DejaVuSans-36" x="223.876953"/>
      <use xlink:href="#DejaVuSans-37" x="287.5"/>
     </g>
    </g>
   </g>
   <g id="text_14">
    <g clip-path="url(#pf397e12a05)">
     <!-- ILE 36 -->
     <g transform="translate(2364.282706 2519.416031) scale(0.08 -0.08)">
      <use xlink:href="#DejaVuSans-49"/>
      <use xlink:href="#DejaVuSans-4c" x="29.492188"/>
      <use xlink:href="#DejaVuSans-45" x="85.205078"/>
      <use xlink:href="#DejaVuSans-20" x="148.388672"/>
      <use xlink:href="#DejaVuSans-33" x="180.175781"/>
      <use xlink:href="#DejaVuSans-36" x="243.798828"/>
     </g>
    </g>
   </g>
   <g id="text_15">
    <g clip-path="url(#pf397e12a05)">
     <!-- LEU 69 -->
     <g transform="translate(2184.096298 2632.290145) scale(0.08 -0.08)">
      <defs>
       <path id="DejaVuSans-39" d="M 703 97 
L 703 672 
Q 941 559 1184 500 
Q 1428 441 1663 441 
Q 2288 441 2617 861 
Q 2947 1281 2994 2138 
Q 2813 1869 2534 1725 
Q 2256 1581 1919 1581 
Q 1219 1581 811 2004 
Q 403 2428 403 3163 
Q 403 3881 828 4315 
Q 1253 4750 1959 4750 
Q 2769 4750 3195 4129 
Q 3622 3509 3622 2328 
Q 3622 1225 3098 567 
Q 2575 -91 1691 -91 
Q 1453 -91 1209 -44 
Q 966 3 703 97 
z
M 1959 2075 
Q 2384 2075 2632 2365 
Q 2881 2656 2881 3163 
Q 2881 3666 2632 3958 
Q 2384 4250 1959 4250 
Q 1534 4250 1286 3958 
Q 1038 3666 1038 3163 
Q 1038 2656 1286 2365 
Q 1534 2075 1959 2075 
z
" transform="scale(0.015625)"/>
      </defs>
      <use xlink:href="#DejaVuSans-4c"/>
      <use xlink:href="#DejaVuSans-45" x="55.712891"/>
      <use xlink:href="#DejaVuSans-55" x="118.896484"/>
      <use xlink:href="#DejaVuSans-20" x="192.089844"/>
      <use xlink:href="#DejaVuSans-36" x="223.876953"/>
      <use xlink:href="#DejaVuSans-39" x="287.5"/>
     </g>
    </g>
   </g>
   <g id="text_16">
    <g clip-path="url(#pf397e12a05)">
     <!-- LEU 71 -->
     <g transform="translate(2491.234149 2351.502124) scale(0.08 -0.08)">
      <use xlink:href="#DejaVuSans-4c"/>
      <use xlink:href="#DejaVuSans-45" x="55.712891"/>
      <use xlink:href="#DejaVuSans-55" x="118.896484"/>
      <use xlink:href="#DejaVuSans-20" x="192.089844"/>
      <use xlink:href="#DejaVuSans-37" x="223.876953"/>
      <use xlink:href="#DejaVuSans-31" x="287.5"/>
     </g>
    </g>
   </g>
   <g id="text_17">
    <g clip-path="url(#pf397e12a05)">
     <!-- VAL 70 -->
     <g transform="translate(236.109855 1430.221104) scale(0.08 -0.08)">
      <use xlink:href="#DejaVuSans-56"/>
      <use xlink:href="#DejaVuSans-41" x="62.033203"/>
      <use xlink:href="#DejaVuSans-4c" x="130.441406"/>
      <use xlink:href="#DejaVuSans-20" x="186.154297"/>
      <use xlink:href="#DejaVuSans-37" x="217.941406"/>
      <use xlink:href="#DejaVuSans-30" x="281.564453"/>
     </g>
    </g>
   </g>
   <g id="text_18">
    <g clip-path="url(#pf397e12a05)">
     <!-- ILE 44 -->
     <g transform="translate(265.243183 1261.020058) scale(0.08 -0.08)">
      <use xlink:href="#DejaVuSans-49"/>
      <use xlink:href="#DejaVuSans-4c" x="29.492188"/>
      <use xlink:href="#DejaVuSans-45" x="85.205078"/>
      <use xlink:href="#DejaVuSans-20" x="148.388672"/>
      <use xlink:href="#DejaVuSans-34" x="180.175781"/>
      <use xlink:href="#DejaVuSans-34" x="243.798828"/>
     </g>
    </g>
   </g>
  </g>
  <g id="text_19">
   <!-- G_NMR -->
   <g transform="translate(1418.51625 66.50625) scale(0.12 -0.12)">
    <defs>
     <path id="DejaVuSans-47" d="M 3809 666 
L 3809 1919 
L 2778 1919 
L 2778 2438 
L 4434 2438 
L 4434 434 
Q 4069 175 3628 42 
Q 3188 -91 2688 -91 
Q 1594 -91 976 548 
Q 359 1188 359 2328 
Q 359 3472 976 4111 
Q 1594 4750 2688 4750 
Q 3144 4750 3555 4637 
Q 3966 4525 4313 4306 
L 4313 3634 
Q 3963 3931 3569 4081 
Q 3175 4231 2741 4231 
Q 1884 4231 1454 3753 
Q 1025 3275 1025 2328 
Q 1025 1384 1454 906 
Q 1884 428 2741 428 
Q 3075 428 3337 486 
Q 3600 544 3809 666 
z
" transform="scale(0.015625)"/>
     <path id="DejaVuSans-5f" d="M 3263 -1063 
L 3263 -1509 
L -63 -1509 
L -63 -1063 
L 3263 -1063 
z
" transform="scale(0.015625)"/>
     <path id="DejaVuSans-4e" d="M 628 4666 
L 1478 4666 
L 3547 763 
L 3547 4666 
L 4159 4666 
L 4159 0 
L 3309 0 
L 1241 3903 
L 1241 0 
L 628 0 
L 628 4666 
z
" transform="scale(0.015625)"/>
     <path id="DejaVuSans-4d" d="M 628 4666 
L 1569 4666 
L 2759 1491 
L 3956 4666 
L 4897 4666 
L 4897 0 
L 4281 0 
L 4281 4097 
L 3078 897 
L 2444 897 
L 1241 4097 
L 1241 0 
L 628 0 
L 628 4666 
z
" transform="scale(0.015625)"/>
     <path id="DejaVuSans-52" d="M 2841 2188 
Q 3044 2119 3236 1894 
Q 3428 1669 3622 1275 
L 4263 0 
L 3584 0 
L 2988 1197 
Q 2756 1666 2539 1819 
Q 2322 1972 1947 1972 
L 1259 1972 
L 1259 0 
L 628 0 
L 628 4666 
L 2053 4666 
Q 2853 4666 3247 4331 
Q 3641 3997 3641 3322 
Q 3641 2881 3436 2590 
Q 3231 2300 2841 2188 
z
M 1259 4147 
L 1259 2491 
L 2053 2491 
Q 2509 2491 2742 2702 
Q 2975 2913 2975 3322 
Q 2975 3731 2742 3939 
Q 2509 4147 2053 4147 
L 1259 4147 
z
" transform="scale(0.015625)"/>
    </defs>
    <use xlink:href="#DejaVuSans-47"/>
    <use xlink:href="#DejaVuSans-5f" x="77.490234"/>
    <use xlink:href="#DejaVuSans-4e" x="127.490234"/>
    <use xlink:href="#DejaVuSans-4d" x="202.294922"/>
    <use xlink:href="#DejaVuSans-52" x="288.574219"/>
   </g>
  </g>
 </g>
 <defs>
  <clipPath id="pf397e12a05">
   <rect x="0" y="0" width="2880" height="2880"/>
  </clipPath>
 </defs>
</svg>
