<?xml version="1.0" encoding="utf-8" standalone="no"?>
<!DOCTYPE svg PUBLIC "-//W3C//DTD SVG 1.1//EN"
  "http://www.w3.org/Graphics/SVG/1.1/DTD/svg11.dtd">
<svg xmlns:xlink="http://www.w3.org/1999/xlink" width="2880pt" height="2880pt" viewBox="0 0 2880 2880" xmlns="http://www.w3.org/2000/svg" version="1.1">
 <metadata>
  <rdf:RDF xmlns:dc="http://purl.org/dc/elements/1.1/" xmlns:cc="http://creativecommons.org/ns#" xmlns:rdf="http://www.w3.org/1999/02/22-rdf-syntax-ns#">
   <cc:Work>
    <dc:type rdf:resource="http://purl.org/dc/dcmitype/StillImage"/>
    <dc:date>2024-02-24T15:42:13.677065</dc:date>
    <dc:format>image/svg+xml</dc:format>
    <dc:creator>
     <cc:Agent>
      <dc:title>Matplotlib v3.8.2, https://matplotlib.org/</dc:title>
     </cc:Agent>
    </dc:creator>
   </cc:Work>
  </rdf:RDF>
 </metadata>
 <defs>
  <style type="text/css">*{stroke-linejoin: round; stroke-linecap: butt}</style>
 </defs>
 <g id="figure_1">
  <g id="patch_1">
   <path d="M 0 2880 
L 2880 2880 
L 2880 0 
L 0 0 
z
" style="fill: #ffffff"/>
  </g>
  <g id="axes_1">
   <g id="patch_2">
    <path d="M 2573.543151 952.27731 
Q 2448.983849 910.446808 2324.636519 868.687492 
" clip-path="url(#pac54157d5c)" style="fill: none; stroke: #000000; stroke-width: 0.2; stroke-linecap: round"/>
    <path d="M 2327.791694 871.856857 
L 2324.636519 868.687492 
L 2329.065115 868.064971 
z
" clip-path="url(#pac54157d5c)" style="stroke: #000000; stroke-width: 0.2; stroke-linecap: round"/>
   </g>
   <g id="patch_3">
    <path d="M 2584.003098 970.609504 
Q 2562.221517 1072.702204 2540.486592 1174.576219 
" clip-path="url(#pac54157d5c)" style="fill: none; stroke: #000000; stroke-width: 0.2; stroke-linecap: round"/>
    <path d="M 2543.277191 1171.081572 
L 2540.486592 1174.576219 
L 2539.365233 1170.246952 
z
" clip-path="url(#pac54157d5c)" style="stroke: #000000; stroke-width: 0.2; stroke-linecap: round"/>
   </g>
   <g id="patch_4">
    <path d="M 2572.830688 955.985102 
Q 2485.400158 951.058731 2398.192882 946.14494 
" clip-path="url(#pac54157d5c)" style="fill: none; stroke: #000000; stroke-width: 0.2; stroke-linecap: round"/>
    <path d="M 2402.074034 948.3668 
L 2398.192882 946.14494 
L 2402.299061 944.373135 
z
" clip-path="url(#pac54157d5c)" style="stroke: #000000; stroke-width: 0.2; stroke-linecap: round"/>
   </g>
   <g id="patch_5">
    <path d="M 2582.422593 943.388229 
Q 2562.018097 883.075171 2541.685259 822.973926 
" clip-path="url(#pac54157d5c)" style="fill: none; stroke: #000000; stroke-width: 0.2; stroke-linecap: round"/>
    <path d="M 2541.072608 827.403899 
L 2541.685259 822.973926 
L 2544.861647 826.122031 
z
" clip-path="url(#pac54157d5c)" style="stroke: #000000; stroke-width: 0.2; stroke-linecap: round"/>
   </g>
   <g id="patch_6">
    <path d="M 2589.552286 942.880274 
Q 2608.517805 841.437884 2627.442231 740.215293 
" clip-path="url(#pac54157d5c)" style="fill: none; stroke: #000000; stroke-width: 0.2; stroke-linecap: round"/>
    <path d="M 2624.741196 743.779619 
L 2627.442231 740.215293 
L 2628.67307 744.514716 
z
" clip-path="url(#pac54157d5c)" style="stroke: #000000; stroke-width: 0.2; stroke-linecap: round"/>
   </g>
   <g id="patch_7">
    <path d="M 2324.427332 868.617242 
Q 2448.986634 910.447744 2573.333964 952.20706 
" clip-path="url(#pac54157d5c)" style="fill: none; stroke: #000000; stroke-width: 0.2; stroke-linecap: round"/>
    <path d="M 2570.178789 949.037695 
L 2573.333964 952.20706 
L 2568.905368 952.829581 
z
" clip-path="url(#pac54157d5c)" style="stroke: #000000; stroke-width: 0.2; stroke-linecap: round"/>
   </g>
   <g id="patch_8">
    <path d="M 2320.456575 874.64085 
Q 2347.4312 904.723473 2374.256545 934.639616 
" clip-path="url(#pac54157d5c)" style="fill: none; stroke: #000000; stroke-width: 0.2; stroke-linecap: round"/>
    <path d="M 2373.075186 930.326336 
L 2374.256545 934.639616 
L 2370.097105 932.996735 
z
" clip-path="url(#pac54157d5c)" style="stroke: #000000; stroke-width: 0.2; stroke-linecap: round"/>
   </g>
   <g id="patch_9">
    <path d="M 2297.059417 861.840555 
Q 2201.15261 846.221207 2105.466503 830.637801 
" clip-path="url(#pac54157d5c)" style="fill: none; stroke: #000000; stroke-width: 0.2; stroke-linecap: round"/>
    <path d="M 2109.093005 833.254762 
L 2105.466503 830.637801 
L 2109.735972 829.306776 
z
" clip-path="url(#pac54157d5c)" style="stroke: #000000; stroke-width: 0.2; stroke-linecap: round"/>
   </g>
   <g id="patch_10">
    <path d="M 2308.376441 850.222755 
Q 2294.067778 774.951441 2279.800874 699.899799 
" clip-path="url(#pac54157d5c)" style="fill: none; stroke: #000000; stroke-width: 0.2; stroke-linecap: round"/>
    <path d="M 2278.58306 704.202929 
L 2279.800874 699.899799 
L 2282.51269 703.455928 
z
" clip-path="url(#pac54157d5c)" style="stroke: #000000; stroke-width: 0.2; stroke-linecap: round"/>
   </g>
   <g id="patch_11">
    <path d="M 2529.938305 1176.66651 
Q 2460.668447 1066.979336 2391.517986 957.481225 
" clip-path="url(#pac54157d5c)" style="fill: none; stroke: #000000; stroke-width: 0.2; stroke-linecap: round"/>
    <path d="M 2391.962799 961.931185 
L 2391.517986 957.481225 
L 2395.344841 959.79535 
z
" clip-path="url(#pac54157d5c)" style="stroke: #000000; stroke-width: 0.2; stroke-linecap: round"/>
   </g>
   <g id="patch_12">
    <path d="M 2374.408898 934.809523 
Q 2347.434273 904.7269 2320.608928 874.810757 
" clip-path="url(#pac54157d5c)" style="fill: none; stroke: #000000; stroke-width: 0.2; stroke-linecap: round"/>
    <path d="M 2321.790287 879.124038 
L 2320.608928 874.810757 
L 2324.768368 876.453638 
z
" clip-path="url(#pac54157d5c)" style="stroke: #000000; stroke-width: 0.2; stroke-linecap: round"/>
   </g>
   <g id="patch_13">
    <path d="M 2397.971208 946.132449 
Q 2485.401737 951.05882 2572.609014 955.972612 
" clip-path="url(#pac54157d5c)" style="fill: none; stroke: #000000; stroke-width: 0.2; stroke-linecap: round"/>
    <path d="M 2568.727862 953.750751 
L 2572.609014 955.972612 
L 2568.502835 957.744417 
z
" clip-path="url(#pac54157d5c)" style="stroke: #000000; stroke-width: 0.2; stroke-linecap: round"/>
   </g>
   <g id="patch_14">
    <path d="M 2391.399682 957.293893 
Q 2460.66954 1066.981067 2529.820001 1176.479178 
" clip-path="url(#pac54157d5c)" style="fill: none; stroke: #000000; stroke-width: 0.2; stroke-linecap: round"/>
    <path d="M 2529.375188 1172.029219 
L 2529.820001 1176.479178 
L 2525.993146 1174.165053 
z
" clip-path="url(#pac54157d5c)" style="stroke: #000000; stroke-width: 0.2; stroke-linecap: round"/>
   </g>
   <g id="patch_15">
    <path d="M 2370.719534 940.085834 
Q 2237.568527 886.832649 2104.625138 833.662499 
" clip-path="url(#pac54157d5c)" style="fill: none; stroke: #000000; stroke-width: 0.2; stroke-linecap: round"/>
    <path d="M 2107.59642 837.004876 
L 2104.625138 833.662499 
L 2109.081809 833.2909 
z
" clip-path="url(#pac54157d5c)" style="stroke: #000000; stroke-width: 0.2; stroke-linecap: round"/>
   </g>
   <g id="patch_16">
    <path d="M 2378.469261 932.255455 
Q 2330.482297 815.559547 2282.580373 699.070444 
" clip-path="url(#pac54157d5c)" style="fill: none; stroke: #000000; stroke-width: 0.2; stroke-linecap: round"/>
    <path d="M 2282.251915 703.530501 
L 2282.580373 699.070444 
L 2285.951344 702.009245 
z
" clip-path="url(#pac54157d5c)" style="stroke: #000000; stroke-width: 0.2; stroke-linecap: round"/>
   </g>
   <g id="patch_17">
    <path d="M 2394.428613 935.948548 
Q 2460.466986 877.350488 2526.338105 818.90084 
" clip-path="url(#pac54157d5c)" style="fill: none; stroke: #000000; stroke-width: 0.2; stroke-linecap: round"/>
    <path d="M 2522.018731 820.059721 
L 2526.338105 818.90084 
L 2524.673585 823.051668 
z
" clip-path="url(#pac54157d5c)" style="stroke: #000000; stroke-width: 0.2; stroke-linecap: round"/>
   </g>
   <g id="patch_18">
    <path d="M 2541.612895 822.760027 
Q 2562.017391 883.073085 2582.350229 943.17433 
" clip-path="url(#pac54157d5c)" style="fill: none; stroke: #000000; stroke-width: 0.2; stroke-linecap: round"/>
    <path d="M 2582.962879 938.744357 
L 2582.350229 943.17433 
L 2579.173841 940.026225 
z
" clip-path="url(#pac54157d5c)" style="stroke: #000000; stroke-width: 0.2; stroke-linecap: round"/>
   </g>
   <g id="patch_19">
    <path d="M 2526.501865 818.75553 
Q 2460.463492 877.353589 2394.592373 935.803238 
" clip-path="url(#pac54157d5c)" style="fill: none; stroke: #000000; stroke-width: 0.2; stroke-linecap: round"/>
    <path d="M 2398.911748 934.644356 
L 2394.592373 935.803238 
L 2396.256893 931.652409 
z
" clip-path="url(#pac54157d5c)" style="stroke: #000000; stroke-width: 0.2; stroke-linecap: round"/>
   </g>
   <g id="patch_20">
    <path d="M 2524.313119 803.29738 
Q 2407.103349 747.578899 2290.095529 691.956419 
" clip-path="url(#pac54157d5c)" style="fill: none; stroke: #000000; stroke-width: 0.2; stroke-linecap: round"/>
    <path d="M 2292.849451 695.480042 
L 2290.095529 691.956419 
L 2294.56678 691.867456 
z
" clip-path="url(#pac54157d5c)" style="stroke: #000000; stroke-width: 0.2; stroke-linecap: round"/>
   </g>
   <g id="patch_21">
    <path d="M 2547.620098 799.931343 
Q 2583.582959 767.72929 2619.379236 735.676401 
" clip-path="url(#pac54157d5c)" style="fill: none; stroke: #000000; stroke-width: 0.2; stroke-linecap: round"/>
    <path d="M 2615.065131 736.854747 
L 2619.379236 735.676401 
L 2617.733449 739.834693 
z
" clip-path="url(#pac54157d5c)" style="stroke: #000000; stroke-width: 0.2; stroke-linecap: round"/>
   </g>
   <g id="patch_22">
    <path d="M 2627.483811 739.99289 
Q 2608.518292 841.43528 2589.593867 942.657871 
" clip-path="url(#pac54157d5c)" style="fill: none; stroke: #000000; stroke-width: 0.2; stroke-linecap: round"/>
    <path d="M 2592.294901 939.093545 
L 2589.593867 942.657871 
L 2588.363027 938.358448 
z
" clip-path="url(#pac54157d5c)" style="stroke: #000000; stroke-width: 0.2; stroke-linecap: round"/>
   </g>
   <g id="patch_23">
    <path d="M 2616.033758 724.488058 
Q 2453.60266 705.940066 2291.393725 687.417443 
" clip-path="url(#pac54157d5c)" style="fill: none; stroke: #000000; stroke-width: 0.2; stroke-linecap: round"/>
    <path d="M 2295.140993 689.858341 
L 2291.393725 687.417443 
L 2295.594804 685.884167 
z
" clip-path="url(#pac54157d5c)" style="stroke: #000000; stroke-width: 0.2; stroke-linecap: round"/>
   </g>
   <g id="patch_24">
    <path d="M 2619.544581 735.528347 
Q 2583.581721 767.730399 2547.785444 799.783289 
" clip-path="url(#pac54157d5c)" style="fill: none; stroke: #000000; stroke-width: 0.2; stroke-linecap: round"/>
    <path d="M 2552.099549 798.604943 
L 2547.785444 799.783289 
L 2549.43123 795.624997 
z
" clip-path="url(#pac54157d5c)" style="stroke: #000000; stroke-width: 0.2; stroke-linecap: round"/>
   </g>
   <g id="patch_25">
    <path d="M 2105.247 830.602053 
Q 2201.153806 846.221401 2296.839914 861.804807 
" clip-path="url(#pac54157d5c)" style="fill: none; stroke: #000000; stroke-width: 0.2; stroke-linecap: round"/>
    <path d="M 2293.213412 859.187846 
L 2296.839914 861.804807 
L 2292.570444 863.135832 
z
" clip-path="url(#pac54157d5c)" style="stroke: #000000; stroke-width: 0.2; stroke-linecap: round"/>
   </g>
   <g id="patch_26">
    <path d="M 2104.418295 833.579773 
Q 2237.569302 886.832959 2370.512691 940.003108 
" clip-path="url(#pac54157d5c)" style="fill: none; stroke: #000000; stroke-width: 0.2; stroke-linecap: round"/>
    <path d="M 2367.54141 936.660731 
L 2370.512691 940.003108 
L 2366.05602 940.374707 
z
" clip-path="url(#pac54157d5c)" style="stroke: #000000; stroke-width: 0.2; stroke-linecap: round"/>
   </g>
   <g id="patch_27">
    <path d="M 2083.76671 816.351176 
Q 2019.358558 713.799318 1955.069333 611.436818 
" clip-path="url(#pac54157d5c)" style="fill: none; stroke: #000000; stroke-width: 0.2; stroke-linecap: round"/>
    <path d="M 1955.503097 615.887868 
L 1955.069333 611.436818 
L 1958.890432 613.760437 
z
" clip-path="url(#pac54157d5c)" style="stroke: #000000; stroke-width: 0.2; stroke-linecap: round"/>
   </g>
   <g id="patch_28">
    <path d="M 2279.758759 699.678251 
Q 2294.067422 774.949565 2308.334326 850.001207 
" clip-path="url(#pac54157d5c)" style="fill: none; stroke: #000000; stroke-width: 0.2; stroke-linecap: round"/>
    <path d="M 2309.55214 845.698077 
L 2308.334326 850.001207 
L 2305.62251 846.445078 
z
" clip-path="url(#pac54157d5c)" style="stroke: #000000; stroke-width: 0.2; stroke-linecap: round"/>
   </g>
   <g id="patch_29">
    <path d="M 2282.497352 698.86855 
Q 2330.484316 815.564458 2378.38624 932.053562 
" clip-path="url(#pac54157d5c)" style="fill: none; stroke: #000000; stroke-width: 0.2; stroke-linecap: round"/>
    <path d="M 2378.714698 927.593504 
L 2378.38624 932.053562 
L 2375.015268 929.114761 
z
" clip-path="url(#pac54157d5c)" style="stroke: #000000; stroke-width: 0.2; stroke-linecap: round"/>
   </g>
   <g id="patch_30">
    <path d="M 2265.78234 677.335039 
Q 2120.288354 568.851058 1974.973629 460.500738 
" clip-path="url(#pac54157d5c)" style="fill: none; stroke: #000000; stroke-width: 0.2; stroke-linecap: round"/>
    <path d="M 1976.984844 464.49511 
L 1974.973629 460.500738 
L 1979.375856 461.288389 
z
" clip-path="url(#pac54157d5c)" style="stroke: #000000; stroke-width: 0.2; stroke-linecap: round"/>
   </g>
   <g id="patch_31">
    <path d="M 2289.887085 691.85733 
Q 2407.096855 747.575811 2524.104675 803.198291 
" clip-path="url(#pac54157d5c)" style="fill: none; stroke: #000000; stroke-width: 0.2; stroke-linecap: round"/>
    <path d="M 2521.350754 799.674668 
L 2524.104675 803.198291 
L 2519.633424 803.287254 
z
" clip-path="url(#pac54157d5c)" style="stroke: #000000; stroke-width: 0.2; stroke-linecap: round"/>
   </g>
   <g id="patch_32">
    <path d="M 2291.167056 687.39156 
Q 2453.598154 705.939552 2615.807089 724.462175 
" clip-path="url(#pac54157d5c)" style="fill: none; stroke: #000000; stroke-width: 0.2; stroke-linecap: round"/>
    <path d="M 2612.059821 722.021277 
L 2615.807089 724.462175 
L 2611.60601 725.995451 
z
" clip-path="url(#pac54157d5c)" style="stroke: #000000; stroke-width: 0.2; stroke-linecap: round"/>
   </g>
   <g id="patch_33">
    <path d="M 2263.437338 682.197311 
Q 2112.27352 642.530177 1961.325986 602.9198 
" clip-path="url(#pac54157d5c)" style="fill: none; stroke: #000000; stroke-width: 0.2; stroke-linecap: round"/>
    <path d="M 1964.687358 605.869576 
L 1961.325986 602.9198 
L 1965.70263 602.000568 
z
" clip-path="url(#pac54157d5c)" style="stroke: #000000; stroke-width: 0.2; stroke-linecap: round"/>
   </g>
   <g id="patch_34">
    <path d="M 1974.793483 460.366416 
Q 2120.287469 568.850398 2265.602194 677.200718 
" clip-path="url(#pac54157d5c)" style="fill: none; stroke: #000000; stroke-width: 0.2; stroke-linecap: round"/>
    <path d="M 2263.590979 673.206345 
L 2265.602194 677.200718 
L 2261.199967 676.413066 
z
" clip-path="url(#pac54157d5c)" style="stroke: #000000; stroke-width: 0.2; stroke-linecap: round"/>
   </g>
   <g id="patch_35">
    <path d="M 1954.845714 440.695739 
Q 1887.943624 353.545308 1821.177694 266.572247 
" clip-path="url(#pac54157d5c)" style="fill: none; stroke: #000000; stroke-width: 0.2; stroke-linecap: round"/>
    <path d="M 1822.026959 270.963004 
L 1821.177694 266.572247 
L 1825.199858 268.527289 
z
" clip-path="url(#pac54157d5c)" style="stroke: #000000; stroke-width: 0.2; stroke-linecap: round"/>
   </g>
   <g id="patch_36">
    <path d="M 1961.928159 465.976398 
Q 1955.443853 525.593501 1948.983726 584.988308 
" clip-path="url(#pac54157d5c)" style="fill: none; stroke: #000000; stroke-width: 0.2; stroke-linecap: round"/>
    <path d="M 1951.404512 581.228016 
L 1948.983726 584.988308 
L 1947.427964 580.795504 
z
" clip-path="url(#pac54157d5c)" style="stroke: #000000; stroke-width: 0.2; stroke-linecap: round"/>
   </g>
   <g id="patch_37">
    <path d="M 1949.656987 448.819726 
Q 1825.038201 420.877477 1700.637604 392.984151 
" clip-path="url(#pac54157d5c)" style="fill: none; stroke: #000000; stroke-width: 0.2; stroke-linecap: round"/>
    <path d="M 1704.103114 395.810853 
L 1700.637604 392.984151 
L 1704.978272 391.907765 
z
" clip-path="url(#pac54157d5c)" style="stroke: #000000; stroke-width: 0.2; stroke-linecap: round"/>
   </g>
   <g id="patch_38">
    <path d="M 1954.952679 611.251078 
Q 2019.36083 713.802936 2083.650055 816.165436 
" clip-path="url(#pac54157d5c)" style="fill: none; stroke: #000000; stroke-width: 0.2; stroke-linecap: round"/>
    <path d="M 2083.216291 811.714386 
L 2083.650055 816.165436 
L 2079.828956 813.841817 
z
" clip-path="url(#pac54157d5c)" style="stroke: #000000; stroke-width: 0.2; stroke-linecap: round"/>
   </g>
   <g id="patch_39">
    <path d="M 1948.959497 585.21107 
Q 1955.443803 525.593968 1961.90393 466.199161 
" clip-path="url(#pac54157d5c)" style="fill: none; stroke: #000000; stroke-width: 0.2; stroke-linecap: round"/>
    <path d="M 1959.483144 469.959452 
L 1961.90393 466.199161 
L 1963.459692 470.391965 
z
" clip-path="url(#pac54157d5c)" style="stroke: #000000; stroke-width: 0.2; stroke-linecap: round"/>
   </g>
   <g id="patch_40">
    <path d="M 1961.110834 602.863341 
Q 2112.274652 642.530474 2263.222185 682.140852 
" clip-path="url(#pac54157d5c)" style="fill: none; stroke: #000000; stroke-width: 0.2; stroke-linecap: round"/>
    <path d="M 2259.860814 679.191076 
L 2263.222185 682.140852 
L 2258.845541 683.060084 
z
" clip-path="url(#pac54157d5c)" style="stroke: #000000; stroke-width: 0.2; stroke-linecap: round"/>
   </g>
   <g id="patch_41">
    <path d="M 1936.404243 590.41966 
Q 1817.023582 494.557128 1697.817273 398.8346 
" clip-path="url(#pac54157d5c)" style="fill: none; stroke: #000000; stroke-width: 0.2; stroke-linecap: round"/>
    <path d="M 1699.683941 402.898532 
L 1697.817273 398.8346 
L 1702.18842 399.779625 
z
" clip-path="url(#pac54157d5c)" style="stroke: #000000; stroke-width: 0.2; stroke-linecap: round"/>
   </g>
   <g id="patch_42">
    <path d="M 1700.417032 392.934694 
Q 1825.035817 420.876943 1949.436414 448.770269 
" clip-path="url(#pac54157d5c)" style="fill: none; stroke: #000000; stroke-width: 0.2; stroke-linecap: round"/>
    <path d="M 1945.970904 445.943567 
L 1949.436414 448.770269 
L 1945.095747 449.846655 
z
" clip-path="url(#pac54157d5c)" style="stroke: #000000; stroke-width: 0.2; stroke-linecap: round"/>
   </g>
   <g id="patch_43">
    <path d="M 1696.270822 379.506656 
Q 1749.522939 322.508367 1802.622403 265.673469 
" clip-path="url(#pac54157d5c)" style="fill: none; stroke: #000000; stroke-width: 0.2; stroke-linecap: round"/>
    <path d="M 1798.430234 267.230943 
L 1802.622403 265.673469 
L 1801.353081 269.961688 
z
" clip-path="url(#pac54157d5c)" style="stroke: #000000; stroke-width: 0.2; stroke-linecap: round"/>
   </g>
   <g id="patch_44">
    <path d="M 1697.642125 398.693956 
Q 1817.022786 494.556489 1936.229095 590.279017 
" clip-path="url(#pac54157d5c)" style="fill: none; stroke: #000000; stroke-width: 0.2; stroke-linecap: round"/>
    <path d="M 1934.362427 586.215084 
L 1936.229095 590.279017 
L 1931.857948 589.333991 
z
" clip-path="url(#pac54157d5c)" style="stroke: #000000; stroke-width: 0.2; stroke-linecap: round"/>
   </g>
   <g id="patch_45">
    <path d="M 1673.858941 383.744703 
Q 1540.194119 319.878779 1406.731057 256.109256 
" clip-path="url(#pac54157d5c)" style="fill: none; stroke: #000000; stroke-width: 0.2; stroke-linecap: round"/>
    <path d="M 1409.477988 259.638331 
L 1406.731057 256.109256 
L 1411.202475 256.029156 
z
" clip-path="url(#pac54157d5c)" style="stroke: #000000; stroke-width: 0.2; stroke-linecap: round"/>
   </g>
   <g id="patch_46">
    <path d="M 1821.041484 266.394812 
Q 1887.943574 353.545244 1954.709504 440.518304 
" clip-path="url(#pac54157d5c)" style="fill: none; stroke: #000000; stroke-width: 0.2; stroke-linecap: round"/>
    <path d="M 1953.860239 436.127547 
L 1954.709504 440.518304 
L 1950.687339 438.563262 
z
" clip-path="url(#pac54157d5c)" style="stroke: #000000; stroke-width: 0.2; stroke-linecap: round"/>
   </g>
   <g id="patch_47">
    <path d="M 1802.775088 265.510043 
Q 1749.522971 322.508332 1696.423507 379.34323 
" clip-path="url(#pac54157d5c)" style="fill: none; stroke: #000000; stroke-width: 0.2; stroke-linecap: round"/>
    <path d="M 1700.615675 377.785756 
L 1696.423507 379.34323 
L 1697.692828 375.055011 
z
" clip-path="url(#pac54157d5c)" style="stroke: #000000; stroke-width: 0.2; stroke-linecap: round"/>
   </g>
   <g id="patch_48">
    <path d="M 1406.529468 256.012936 
Q 1540.194289 319.87886 1673.657352 383.648383 
" clip-path="url(#pac54157d5c)" style="fill: none; stroke: #000000; stroke-width: 0.2; stroke-linecap: round"/>
    <path d="M 1670.910421 380.119308 
L 1673.657352 383.648383 
L 1669.185934 383.728483 
z
" clip-path="url(#pac54157d5c)" style="stroke: #000000; stroke-width: 0.2; stroke-linecap: round"/>
   </g>
   <g id="patch_49">
    <path d="M 442.836609 1287.020726 
Q 352.736877 1330.828648 262.838241 1374.538794 
" clip-path="url(#pac54157d5c)" style="fill: none; stroke: #000000; stroke-width: 0.2; stroke-linecap: round"/>
    <path d="M 267.310102 1374.58838 
L 262.838241 1374.538794 
L 265.561026 1370.991057 
z
" clip-path="url(#pac54157d5c)" style="stroke: #000000; stroke-width: 0.2; stroke-linecap: round"/>
   </g>
   <g id="patch_50">
    <path d="M 468.987229 1276.414934 
Q 597.963336 1233.954285 726.727051 1191.563557 
" clip-path="url(#pac54157d5c)" style="fill: none; stroke: #000000; stroke-width: 0.2; stroke-linecap: round"/>
    <path d="M 722.30224 1190.91467 
L 726.727051 1191.563557 
L 723.553054 1194.714073 
z
" clip-path="url(#pac54157d5c)" style="stroke: #000000; stroke-width: 0.2; stroke-linecap: round"/>
   </g>
   <g id="patch_51">
    <path d="M 262.63472 1374.637749 
Q 352.734452 1330.829827 442.633088 1287.119681 
" clip-path="url(#pac54157d5c)" style="fill: none; stroke: #000000; stroke-width: 0.2; stroke-linecap: round"/>
    <path d="M 438.161227 1287.070095 
L 442.633088 1287.119681 
L 439.910303 1290.667418 
z
" clip-path="url(#pac54157d5c)" style="stroke: #000000; stroke-width: 0.2; stroke-linecap: round"/>
   </g>
   <g id="patch_52">
    <path d="M 726.93529 1191.495002 
Q 597.959182 1233.955652 469.195468 1276.346379 
" clip-path="url(#pac54157d5c)" style="fill: none; stroke: #000000; stroke-width: 0.2; stroke-linecap: round"/>
    <path d="M 473.620278 1276.995267 
L 469.195468 1276.346379 
L 472.369464 1273.195864 
z
" clip-path="url(#pac54157d5c)" style="stroke: #000000; stroke-width: 0.2; stroke-linecap: round"/>
   </g>
   <g id="patch_53">
    <path d="M 1469.501667 2562.659558 
Q 1393.829839 2593.688519 1318.3649 2624.632646 
" clip-path="url(#pac54157d5c)" style="fill: none; stroke: #000000; stroke-width: 0.2; stroke-linecap: round"/>
    <path d="M 1322.824628 2624.96556 
L 1318.3649 2624.632646 
L 1321.307068 2621.264612 
z
" clip-path="url(#pac54157d5c)" style="stroke: #000000; stroke-width: 0.2; stroke-linecap: round"/>
   </g>
   <g id="patch_54">
    <path d="M 1318.159162 2624.717009 
Q 1393.83099 2593.688047 1469.295928 2562.74392 
" clip-path="url(#pac54157d5c)" style="fill: none; stroke: #000000; stroke-width: 0.2; stroke-linecap: round"/>
    <path d="M 1464.836201 2562.411007 
L 1469.295928 2562.74392 
L 1466.353761 2566.111954 
z
" clip-path="url(#pac54157d5c)" style="stroke: #000000; stroke-width: 0.2; stroke-linecap: round"/>
   </g>
   <g id="PathCollection_1">
    <defs>
     <path id="C0_0_c62c8154bf" d="M 0 14.142136 
C 3.750538 14.142136 7.347969 12.652031 10 10 
C 12.652031 7.347969 14.142136 3.750538 14.142136 -0 
C 14.142136 -3.750538 12.652031 -7.347969 10 -10 
C 7.347969 -12.652031 3.750538 -14.142136 0 -14.142136 
C -3.750538 -14.142136 -7.347969 -12.652031 -10 -10 
C -12.652031 -7.347969 -14.142136 -3.750538 -14.142136 0 
C -14.142136 3.750538 -12.652031 7.347969 -10 10 
C -7.347969 12.652031 -3.750538 14.142136 0 14.142136 
z
"/>
    </defs>
    <g clip-path="url(#pac54157d5c)">
     <use xlink:href="#C0_0_c62c8154bf" x="2586.953453" y="956.780865" style="fill: #0000ff; stroke: #0000ff"/>
    </g>
    <g clip-path="url(#pac54157d5c)">
     <use xlink:href="#C0_0_c62c8154bf" x="2311.017031" y="864.113687" style="fill: #ffa500; stroke: #ffa500"/>
    </g>
    <g clip-path="url(#pac54157d5c)">
     <use xlink:href="#C0_0_c62c8154bf" x="2537.489544" y="1188.623717" style="fill: #ffa500; stroke: #ffa500"/>
    </g>
    <g clip-path="url(#pac54157d5c)">
     <use xlink:href="#C0_0_c62c8154bf" x="2383.848443" y="945.336686" style="fill: #ffff00; stroke: #ffff00"/>
    </g>
    <g clip-path="url(#pac54157d5c)">
     <use xlink:href="#C0_0_c62c8154bf" x="2537.082035" y="809.367391" style="fill: #ffa500; stroke: #ffa500"/>
    </g>
    <g clip-path="url(#pac54157d5c)">
     <use xlink:href="#C0_0_c62c8154bf" x="2630.082645" y="726.092299" style="fill: #ffff00; stroke: #ffff00"/>
    </g>
    <g clip-path="url(#pac54157d5c)">
     <use xlink:href="#C0_0_c62c8154bf" x="2091.289386" y="828.328921" style="fill: #0000ff; stroke: #0000ff"/>
    </g>
    <g clip-path="url(#pac54157d5c)">
     <use xlink:href="#C0_0_c62c8154bf" x="2277.118169" y="685.787319" style="fill: #0000ff; stroke: #0000ff"/>
    </g>
    <g clip-path="url(#pac54157d5c)">
     <use xlink:href="#C0_0_c62c8154bf" x="1963.457654" y="451.914136" style="fill: #ffa500; stroke: #ffa500"/>
    </g>
    <g clip-path="url(#pac54157d5c)">
     <use xlink:href="#C0_0_c62c8154bf" x="1947.430002" y="599.273333" style="fill: #ffff00; stroke: #ffff00"/>
    </g>
    <g clip-path="url(#pac54157d5c)">
     <use xlink:href="#C0_0_c62c8154bf" x="1686.616365" y="389.840284" style="fill: #ffa500; stroke: #ffa500"/>
    </g>
    <g clip-path="url(#pac54157d5c)">
     <use xlink:href="#C0_0_c62c8154bf" x="1812.429544" y="255.176415" style="fill: #ffff00; stroke: #ffff00"/>
    </g>
    <g clip-path="url(#pac54157d5c)">
     <use xlink:href="#C0_0_c62c8154bf" x="1393.772044" y="249.917355" style="fill: #ffff00; stroke: #ffff00"/>
    </g>
    <g clip-path="url(#pac54157d5c)">
     <use xlink:href="#C0_0_c62c8154bf" x="455.553974" y="1280.837341" style="fill: #ffa500; stroke: #ffa500"/>
    </g>
    <g clip-path="url(#pac54157d5c)">
     <use xlink:href="#C0_0_c62c8154bf" x="249.917355" y="1380.821134" style="fill: #ffff00; stroke: #ffff00"/>
    </g>
    <g clip-path="url(#pac54157d5c)">
     <use xlink:href="#C0_0_c62c8154bf" x="740.368545" y="1187.072596" style="fill: #ffff00; stroke: #ffff00"/>
    </g>
    <g clip-path="url(#pac54157d5c)">
     <use xlink:href="#C0_0_c62c8154bf" x="1482.587103" y="2557.293922" style="fill: #0000ff; stroke: #0000ff"/>
    </g>
    <g clip-path="url(#pac54157d5c)">
     <use xlink:href="#C0_0_c62c8154bf" x="1305.073726" y="2630.082645" style="fill: #ffa500; stroke: #ffa500"/>
    </g>
   </g>
   <g id="text_1">
    <g clip-path="url(#pac54157d5c)">
     <!-- VAL 5 -->
     <g transform="translate(2575.690953 958.988365) scale(0.08 -0.08)">
      <defs>
       <path id="DejaVuSans-56" d="M 1831 0 
L 50 4666 
L 709 4666 
L 2188 738 
L 3669 4666 
L 4325 4666 
L 2547 0 
L 1831 0 
z
" transform="scale(0.015625)"/>
       <path id="DejaVuSans-41" d="M 2188 4044 
L 1331 1722 
L 3047 1722 
L 2188 4044 
z
M 1831 4666 
L 2547 4666 
L 4325 0 
L 3669 0 
L 3244 1197 
L 1141 1197 
L 716 0 
L 50 0 
L 1831 4666 
z
" transform="scale(0.015625)"/>
       <path id="DejaVuSans-4c" d="M 628 4666 
L 1259 4666 
L 1259 531 
L 3531 531 
L 3531 0 
L 628 0 
L 628 4666 
z
" transform="scale(0.015625)"/>
       <path id="DejaVuSans-20" transform="scale(0.015625)"/>
       <path id="DejaVuSans-35" d="M 691 4666 
L 3169 4666 
L 3169 4134 
L 1269 4134 
L 1269 2991 
Q 1406 3038 1543 3061 
Q 1681 3084 1819 3084 
Q 2600 3084 3056 2656 
Q 3513 2228 3513 1497 
Q 3513 744 3044 326 
Q 2575 -91 1722 -91 
Q 1428 -91 1123 -41 
Q 819 9 494 109 
L 494 744 
Q 775 591 1075 516 
Q 1375 441 1709 441 
Q 2250 441 2565 725 
Q 2881 1009 2881 1497 
Q 2881 1984 2565 2268 
Q 2250 2553 1709 2553 
Q 1456 2553 1204 2497 
Q 953 2441 691 2322 
L 691 4666 
z
" transform="scale(0.015625)"/>
      </defs>
      <use xlink:href="#DejaVuSans-56"/>
      <use xlink:href="#DejaVuSans-41" x="62.033203"/>
      <use xlink:href="#DejaVuSans-4c" x="130.441406"/>
      <use xlink:href="#DejaVuSans-20" x="186.154297"/>
      <use xlink:href="#DejaVuSans-35" x="217.941406"/>
     </g>
    </g>
   </g>
   <g id="text_2">
    <g clip-path="url(#pac54157d5c)">
     <!-- ILE 3 -->
     <g transform="translate(2301.264531 866.321187) scale(0.08 -0.08)">
      <defs>
       <path id="DejaVuSans-49" d="M 628 4666 
L 1259 4666 
L 1259 0 
L 628 0 
L 628 4666 
z
" transform="scale(0.015625)"/>
       <path id="DejaVuSans-45" d="M 628 4666 
L 3578 4666 
L 3578 4134 
L 1259 4134 
L 1259 2753 
L 3481 2753 
L 3481 2222 
L 1259 2222 
L 1259 531 
L 3634 531 
L 3634 0 
L 628 0 
L 628 4666 
z
" transform="scale(0.015625)"/>
       <path id="DejaVuSans-33" d="M 2597 2516 
Q 3050 2419 3304 2112 
Q 3559 1806 3559 1356 
Q 3559 666 3084 287 
Q 2609 -91 1734 -91 
Q 1441 -91 1130 -33 
Q 819 25 488 141 
L 488 750 
Q 750 597 1062 519 
Q 1375 441 1716 441 
Q 2309 441 2620 675 
Q 2931 909 2931 1356 
Q 2931 1769 2642 2001 
Q 2353 2234 1838 2234 
L 1294 2234 
L 1294 2753 
L 1863 2753 
Q 2328 2753 2575 2939 
Q 2822 3125 2822 3475 
Q 2822 3834 2567 4026 
Q 2313 4219 1838 4219 
Q 1578 4219 1281 4162 
Q 984 4106 628 3988 
L 628 4550 
Q 988 4650 1302 4700 
Q 1616 4750 1894 4750 
Q 2613 4750 3031 4423 
Q 3450 4097 3450 3541 
Q 3450 3153 3228 2886 
Q 3006 2619 2597 2516 
z
" transform="scale(0.015625)"/>
      </defs>
      <use xlink:href="#DejaVuSans-49"/>
      <use xlink:href="#DejaVuSans-4c" x="29.492188"/>
      <use xlink:href="#DejaVuSans-45" x="85.205078"/>
      <use xlink:href="#DejaVuSans-20" x="148.388672"/>
      <use xlink:href="#DejaVuSans-33" x="180.175781"/>
     </g>
    </g>
   </g>
   <g id="text_3">
    <g clip-path="url(#pac54157d5c)">
     <!-- ILE 13 -->
     <g transform="translate(2525.192044 1190.831217) scale(0.08 -0.08)">
      <defs>
       <path id="DejaVuSans-31" d="M 794 531 
L 1825 531 
L 1825 4091 
L 703 3866 
L 703 4441 
L 1819 4666 
L 2450 4666 
L 2450 531 
L 3481 531 
L 3481 0 
L 794 0 
L 794 531 
z
" transform="scale(0.015625)"/>
      </defs>
      <use xlink:href="#DejaVuSans-49"/>
      <use xlink:href="#DejaVuSans-4c" x="29.492188"/>
      <use xlink:href="#DejaVuSans-45" x="85.205078"/>
      <use xlink:href="#DejaVuSans-20" x="148.388672"/>
      <use xlink:href="#DejaVuSans-31" x="180.175781"/>
      <use xlink:href="#DejaVuSans-33" x="243.798828"/>
     </g>
    </g>
   </g>
   <g id="text_4">
    <g clip-path="url(#pac54157d5c)">
     <!-- LEU 15 -->
     <g transform="translate(2369.803443 947.544186) scale(0.08 -0.08)">
      <defs>
       <path id="DejaVuSans-55" d="M 556 4666 
L 1191 4666 
L 1191 1831 
Q 1191 1081 1462 751 
Q 1734 422 2344 422 
Q 2950 422 3222 751 
Q 3494 1081 3494 1831 
L 3494 4666 
L 4128 4666 
L 4128 1753 
Q 4128 841 3676 375 
Q 3225 -91 2344 -91 
Q 1459 -91 1007 375 
Q 556 841 556 1753 
L 556 4666 
z
" transform="scale(0.015625)"/>
      </defs>
      <use xlink:href="#DejaVuSans-4c"/>
      <use xlink:href="#DejaVuSans-45" x="55.712891"/>
      <use xlink:href="#DejaVuSans-55" x="118.896484"/>
      <use xlink:href="#DejaVuSans-20" x="192.089844"/>
      <use xlink:href="#DejaVuSans-31" x="223.876953"/>
      <use xlink:href="#DejaVuSans-35" x="287.5"/>
     </g>
    </g>
   </g>
   <g id="text_5">
    <g clip-path="url(#pac54157d5c)">
     <!-- ILE 30 -->
     <g transform="translate(2524.784535 811.574891) scale(0.08 -0.08)">
      <defs>
       <path id="DejaVuSans-30" d="M 2034 4250 
Q 1547 4250 1301 3770 
Q 1056 3291 1056 2328 
Q 1056 1369 1301 889 
Q 1547 409 2034 409 
Q 2525 409 2770 889 
Q 3016 1369 3016 2328 
Q 3016 3291 2770 3770 
Q 2525 4250 2034 4250 
z
M 2034 4750 
Q 2819 4750 3233 4129 
Q 3647 3509 3647 2328 
Q 3647 1150 3233 529 
Q 2819 -91 2034 -91 
Q 1250 -91 836 529 
Q 422 1150 422 2328 
Q 422 3509 836 4129 
Q 1250 4750 2034 4750 
z
" transform="scale(0.015625)"/>
      </defs>
      <use xlink:href="#DejaVuSans-49"/>
      <use xlink:href="#DejaVuSans-4c" x="29.492188"/>
      <use xlink:href="#DejaVuSans-45" x="85.205078"/>
      <use xlink:href="#DejaVuSans-20" x="148.388672"/>
      <use xlink:href="#DejaVuSans-33" x="180.175781"/>
      <use xlink:href="#DejaVuSans-30" x="243.798828"/>
     </g>
    </g>
   </g>
   <g id="text_6">
    <g clip-path="url(#pac54157d5c)">
     <!-- LEU 43 -->
     <g transform="translate(2616.037645 728.299799) scale(0.08 -0.08)">
      <defs>
       <path id="DejaVuSans-34" d="M 2419 4116 
L 825 1625 
L 2419 1625 
L 2419 4116 
z
M 2253 4666 
L 3047 4666 
L 3047 1625 
L 3713 1625 
L 3713 1100 
L 3047 1100 
L 3047 0 
L 2419 0 
L 2419 1100 
L 313 1100 
L 313 1709 
L 2253 4666 
z
" transform="scale(0.015625)"/>
      </defs>
      <use xlink:href="#DejaVuSans-4c"/>
      <use xlink:href="#DejaVuSans-45" x="55.712891"/>
      <use xlink:href="#DejaVuSans-55" x="118.896484"/>
      <use xlink:href="#DejaVuSans-20" x="192.089844"/>
      <use xlink:href="#DejaVuSans-34" x="223.876953"/>
      <use xlink:href="#DejaVuSans-33" x="287.5"/>
     </g>
    </g>
   </g>
   <g id="text_7">
    <g clip-path="url(#pac54157d5c)">
     <!-- VAL 17 -->
     <g transform="translate(2077.481886 830.536421) scale(0.08 -0.08)">
      <defs>
       <path id="DejaVuSans-37" d="M 525 4666 
L 3525 4666 
L 3525 4397 
L 1831 0 
L 1172 0 
L 2766 4134 
L 525 4134 
L 525 4666 
z
" transform="scale(0.015625)"/>
      </defs>
      <use xlink:href="#DejaVuSans-56"/>
      <use xlink:href="#DejaVuSans-41" x="62.033203"/>
      <use xlink:href="#DejaVuSans-4c" x="130.441406"/>
      <use xlink:href="#DejaVuSans-20" x="186.154297"/>
      <use xlink:href="#DejaVuSans-31" x="217.941406"/>
      <use xlink:href="#DejaVuSans-37" x="281.564453"/>
     </g>
    </g>
   </g>
   <g id="text_8">
    <g clip-path="url(#pac54157d5c)">
     <!-- VAL 26 -->
     <g transform="translate(2263.310669 687.994819) scale(0.08 -0.08)">
      <defs>
       <path id="DejaVuSans-32" d="M 1228 531 
L 3431 531 
L 3431 0 
L 469 0 
L 469 531 
Q 828 903 1448 1529 
Q 2069 2156 2228 2338 
Q 2531 2678 2651 2914 
Q 2772 3150 2772 3378 
Q 2772 3750 2511 3984 
Q 2250 4219 1831 4219 
Q 1534 4219 1204 4116 
Q 875 4013 500 3803 
L 500 4441 
Q 881 4594 1212 4672 
Q 1544 4750 1819 4750 
Q 2544 4750 2975 4387 
Q 3406 4025 3406 3419 
Q 3406 3131 3298 2873 
Q 3191 2616 2906 2266 
Q 2828 2175 2409 1742 
Q 1991 1309 1228 531 
z
" transform="scale(0.015625)"/>
       <path id="DejaVuSans-36" d="M 2113 2584 
Q 1688 2584 1439 2293 
Q 1191 2003 1191 1497 
Q 1191 994 1439 701 
Q 1688 409 2113 409 
Q 2538 409 2786 701 
Q 3034 994 3034 1497 
Q 3034 2003 2786 2293 
Q 2538 2584 2113 2584 
z
M 3366 4563 
L 3366 3988 
Q 3128 4100 2886 4159 
Q 2644 4219 2406 4219 
Q 1781 4219 1451 3797 
Q 1122 3375 1075 2522 
Q 1259 2794 1537 2939 
Q 1816 3084 2150 3084 
Q 2853 3084 3261 2657 
Q 3669 2231 3669 1497 
Q 3669 778 3244 343 
Q 2819 -91 2113 -91 
Q 1303 -91 875 529 
Q 447 1150 447 2328 
Q 447 3434 972 4092 
Q 1497 4750 2381 4750 
Q 2619 4750 2861 4703 
Q 3103 4656 3366 4563 
z
" transform="scale(0.015625)"/>
      </defs>
      <use xlink:href="#DejaVuSans-56"/>
      <use xlink:href="#DejaVuSans-41" x="62.033203"/>
      <use xlink:href="#DejaVuSans-4c" x="130.441406"/>
      <use xlink:href="#DejaVuSans-20" x="186.154297"/>
      <use xlink:href="#DejaVuSans-32" x="217.941406"/>
      <use xlink:href="#DejaVuSans-36" x="281.564453"/>
     </g>
    </g>
   </g>
   <g id="text_9">
    <g clip-path="url(#pac54157d5c)">
     <!-- ILE 23 -->
     <g transform="translate(1951.160154 454.121636) scale(0.08 -0.08)">
      <use xlink:href="#DejaVuSans-49"/>
      <use xlink:href="#DejaVuSans-4c" x="29.492188"/>
      <use xlink:href="#DejaVuSans-45" x="85.205078"/>
      <use xlink:href="#DejaVuSans-20" x="148.388672"/>
      <use xlink:href="#DejaVuSans-32" x="180.175781"/>
      <use xlink:href="#DejaVuSans-33" x="243.798828"/>
     </g>
    </g>
   </g>
   <g id="text_10">
    <g clip-path="url(#pac54157d5c)">
     <!-- LEU 56 -->
     <g transform="translate(1933.385002 601.480833) scale(0.08 -0.08)">
      <use xlink:href="#DejaVuSans-4c"/>
      <use xlink:href="#DejaVuSans-45" x="55.712891"/>
      <use xlink:href="#DejaVuSans-55" x="118.896484"/>
      <use xlink:href="#DejaVuSans-20" x="192.089844"/>
      <use xlink:href="#DejaVuSans-35" x="223.876953"/>
      <use xlink:href="#DejaVuSans-36" x="287.5"/>
     </g>
    </g>
   </g>
   <g id="text_11">
    <g clip-path="url(#pac54157d5c)">
     <!-- ILE 61 -->
     <g transform="translate(1674.318865 392.047784) scale(0.08 -0.08)">
      <use xlink:href="#DejaVuSans-49"/>
      <use xlink:href="#DejaVuSans-4c" x="29.492188"/>
      <use xlink:href="#DejaVuSans-45" x="85.205078"/>
      <use xlink:href="#DejaVuSans-20" x="148.388672"/>
      <use xlink:href="#DejaVuSans-36" x="180.175781"/>
      <use xlink:href="#DejaVuSans-31" x="243.798828"/>
     </g>
    </g>
   </g>
   <g id="text_12">
    <g clip-path="url(#pac54157d5c)">
     <!-- LEU 50 -->
     <g transform="translate(1798.384544 257.383915) scale(0.08 -0.08)">
      <use xlink:href="#DejaVuSans-4c"/>
      <use xlink:href="#DejaVuSans-45" x="55.712891"/>
      <use xlink:href="#DejaVuSans-55" x="118.896484"/>
      <use xlink:href="#DejaVuSans-20" x="192.089844"/>
      <use xlink:href="#DejaVuSans-35" x="223.876953"/>
      <use xlink:href="#DejaVuSans-30" x="287.5"/>
     </g>
    </g>
   </g>
   <g id="text_13">
    <g clip-path="url(#pac54157d5c)">
     <!-- LEU 67 -->
     <g transform="translate(1379.727044 252.124855) scale(0.08 -0.08)">
      <use xlink:href="#DejaVuSans-4c"/>
      <use xlink:href="#DejaVuSans-45" x="55.712891"/>
      <use xlink:href="#DejaVuSans-55" x="118.896484"/>
      <use xlink:href="#DejaVuSans-20" x="192.089844"/>
      <use xlink:href="#DejaVuSans-36" x="223.876953"/>
      <use xlink:href="#DejaVuSans-37" x="287.5"/>
     </g>
    </g>
   </g>
   <g id="text_14">
    <g clip-path="url(#pac54157d5c)">
     <!-- ILE 36 -->
     <g transform="translate(443.256474 1283.044841) scale(0.08 -0.08)">
      <use xlink:href="#DejaVuSans-49"/>
      <use xlink:href="#DejaVuSans-4c" x="29.492188"/>
      <use xlink:href="#DejaVuSans-45" x="85.205078"/>
      <use xlink:href="#DejaVuSans-20" x="148.388672"/>
      <use xlink:href="#DejaVuSans-33" x="180.175781"/>
      <use xlink:href="#DejaVuSans-36" x="243.798828"/>
     </g>
    </g>
   </g>
   <g id="text_15">
    <g clip-path="url(#pac54157d5c)">
     <!-- LEU 69 -->
     <g transform="translate(235.872355 1383.028634) scale(0.08 -0.08)">
      <defs>
       <path id="DejaVuSans-39" d="M 703 97 
L 703 672 
Q 941 559 1184 500 
Q 1428 441 1663 441 
Q 2288 441 2617 861 
Q 2947 1281 2994 2138 
Q 2813 1869 2534 1725 
Q 2256 1581 1919 1581 
Q 1219 1581 811 2004 
Q 403 2428 403 3163 
Q 403 3881 828 4315 
Q 1253 4750 1959 4750 
Q 2769 4750 3195 4129 
Q 3622 3509 3622 2328 
Q 3622 1225 3098 567 
Q 2575 -91 1691 -91 
Q 1453 -91 1209 -44 
Q 966 3 703 97 
z
M 1959 2075 
Q 2384 2075 2632 2365 
Q 2881 2656 2881 3163 
Q 2881 3666 2632 3958 
Q 2384 4250 1959 4250 
Q 1534 4250 1286 3958 
Q 1038 3666 1038 3163 
Q 1038 2656 1286 2365 
Q 1534 2075 1959 2075 
z
" transform="scale(0.015625)"/>
      </defs>
      <use xlink:href="#DejaVuSans-4c"/>
      <use xlink:href="#DejaVuSans-45" x="55.712891"/>
      <use xlink:href="#DejaVuSans-55" x="118.896484"/>
      <use xlink:href="#DejaVuSans-20" x="192.089844"/>
      <use xlink:href="#DejaVuSans-36" x="223.876953"/>
      <use xlink:href="#DejaVuSans-39" x="287.5"/>
     </g>
    </g>
   </g>
   <g id="text_16">
    <g clip-path="url(#pac54157d5c)">
     <!-- LEU 71 -->
     <g transform="translate(726.323545 1189.280096) scale(0.08 -0.08)">
      <use xlink:href="#DejaVuSans-4c"/>
      <use xlink:href="#DejaVuSans-45" x="55.712891"/>
      <use xlink:href="#DejaVuSans-55" x="118.896484"/>
      <use xlink:href="#DejaVuSans-20" x="192.089844"/>
      <use xlink:href="#DejaVuSans-37" x="223.876953"/>
      <use xlink:href="#DejaVuSans-31" x="287.5"/>
     </g>
    </g>
   </g>
   <g id="text_17">
    <g clip-path="url(#pac54157d5c)">
     <!-- VAL 70 -->
     <g transform="translate(1468.779603 2559.501422) scale(0.08 -0.08)">
      <use xlink:href="#DejaVuSans-56"/>
      <use xlink:href="#DejaVuSans-41" x="62.033203"/>
      <use xlink:href="#DejaVuSans-4c" x="130.441406"/>
      <use xlink:href="#DejaVuSans-20" x="186.154297"/>
      <use xlink:href="#DejaVuSans-37" x="217.941406"/>
      <use xlink:href="#DejaVuSans-30" x="281.564453"/>
     </g>
    </g>
   </g>
   <g id="text_18">
    <g clip-path="url(#pac54157d5c)">
     <!-- ILE 44 -->
     <g transform="translate(1292.776226 2632.290145) scale(0.08 -0.08)">
      <use xlink:href="#DejaVuSans-49"/>
      <use xlink:href="#DejaVuSans-4c" x="29.492188"/>
      <use xlink:href="#DejaVuSans-45" x="85.205078"/>
      <use xlink:href="#DejaVuSans-20" x="148.388672"/>
      <use xlink:href="#DejaVuSans-34" x="180.175781"/>
      <use xlink:href="#DejaVuSans-34" x="243.798828"/>
     </g>
    </g>
   </g>
  </g>
  <g id="text_19">
   <!-- G_NMR -->
   <g transform="translate(1418.51625 66.50625) scale(0.12 -0.12)">
    <defs>
     <path id="DejaVuSans-47" d="M 3809 666 
L 3809 1919 
L 2778 1919 
L 2778 2438 
L 4434 2438 
L 4434 434 
Q 4069 175 3628 42 
Q 3188 -91 2688 -91 
Q 1594 -91 976 548 
Q 359 1188 359 2328 
Q 359 3472 976 4111 
Q 1594 4750 2688 4750 
Q 3144 4750 3555 4637 
Q 3966 4525 4313 4306 
L 4313 3634 
Q 3963 3931 3569 4081 
Q 3175 4231 2741 4231 
Q 1884 4231 1454 3753 
Q 1025 3275 1025 2328 
Q 1025 1384 1454 906 
Q 1884 428 2741 428 
Q 3075 428 3337 486 
Q 3600 544 3809 666 
z
" transform="scale(0.015625)"/>
     <path id="DejaVuSans-5f" d="M 3263 -1063 
L 3263 -1509 
L -63 -1509 
L -63 -1063 
L 3263 -1063 
z
" transform="scale(0.015625)"/>
     <path id="DejaVuSans-4e" d="M 628 4666 
L 1478 4666 
L 3547 763 
L 3547 4666 
L 4159 4666 
L 4159 0 
L 3309 0 
L 1241 3903 
L 1241 0 
L 628 0 
L 628 4666 
z
" transform="scale(0.015625)"/>
     <path id="DejaVuSans-4d" d="M 628 4666 
L 1569 4666 
L 2759 1491 
L 3956 4666 
L 4897 4666 
L 4897 0 
L 4281 0 
L 4281 4097 
L 3078 897 
L 2444 897 
L 1241 4097 
L 1241 0 
L 628 0 
L 628 4666 
z
" transform="scale(0.015625)"/>
     <path id="DejaVuSans-52" d="M 2841 2188 
Q 3044 2119 3236 1894 
Q 3428 1669 3622 1275 
L 4263 0 
L 3584 0 
L 2988 1197 
Q 2756 1666 2539 1819 
Q 2322 1972 1947 1972 
L 1259 1972 
L 1259 0 
L 628 0 
L 628 4666 
L 2053 4666 
Q 2853 4666 3247 4331 
Q 3641 3997 3641 3322 
Q 3641 2881 3436 2590 
Q 3231 2300 2841 2188 
z
M 1259 4147 
L 1259 2491 
L 2053 2491 
Q 2509 2491 2742 2702 
Q 2975 2913 2975 3322 
Q 2975 3731 2742 3939 
Q 2509 4147 2053 4147 
L 1259 4147 
z
" transform="scale(0.015625)"/>
    </defs>
    <use xlink:href="#DejaVuSans-47"/>
    <use xlink:href="#DejaVuSans-5f" x="77.490234"/>
    <use xlink:href="#DejaVuSans-4e" x="127.490234"/>
    <use xlink:href="#DejaVuSans-4d" x="202.294922"/>
    <use xlink:href="#DejaVuSans-52" x="288.574219"/>
   </g>
  </g>
 </g>
 <defs>
  <clipPath id="pac54157d5c">
   <rect x="0" y="0" width="2880" height="2880"/>
  </clipPath>
 </defs>
</svg>
