<?xml version="1.0" encoding="utf-8" standalone="no"?>
<!DOCTYPE svg PUBLIC "-//W3C//DTD SVG 1.1//EN"
  "http://www.w3.org/Graphics/SVG/1.1/DTD/svg11.dtd">
<svg xmlns:xlink="http://www.w3.org/1999/xlink" width="2880pt" height="2880pt" viewBox="0 0 2880 2880" xmlns="http://www.w3.org/2000/svg" version="1.1">
 <metadata>
  <rdf:RDF xmlns:dc="http://purl.org/dc/elements/1.1/" xmlns:cc="http://creativecommons.org/ns#" xmlns:rdf="http://www.w3.org/1999/02/22-rdf-syntax-ns#">
   <cc:Work>
    <dc:type rdf:resource="http://purl.org/dc/dcmitype/StillImage"/>
    <dc:date>2024-09-24T11:40:20.495288</dc:date>
    <dc:format>image/svg+xml</dc:format>
    <dc:creator>
     <cc:Agent>
      <dc:title>Matplotlib v3.8.2, https://matplotlib.org/</dc:title>
     </cc:Agent>
    </dc:creator>
   </cc:Work>
  </rdf:RDF>
 </metadata>
 <defs>
  <style type="text/css">*{stroke-linejoin: round; stroke-linecap: butt}</style>
 </defs>
 <g id="figure_1">
  <g id="patch_1">
   <path d="M 0 2880 
L 2880 2880 
L 2880 0 
L 0 0 
z
" style="fill: #ffffff"/>
  </g>
  <g id="axes_1">
   <g id="patch_2">
    <path d="M 1649.676535 1777.745085 
Q 1586.469862 1699.688378 1523.403907 1621.80545 
" clip-path="url(#pa4a4a22510)" style="fill: none; stroke: #000000; stroke-width: 0.2; stroke-linecap: round"/>
    <path d="M 1524.366815 1626.172692 
L 1523.403907 1621.80545 
L 1527.475446 1623.655468 
z
" clip-path="url(#pa4a4a22510)" style="stroke: #000000; stroke-width: 0.2; stroke-linecap: round"/>
   </g>
   <g id="patch_3">
    <path d="M 1672.169238 1784.835753 
Q 1760.327835 1759.526897 1848.271507 1734.279742 
" clip-path="url(#pa4a4a22510)" style="fill: none; stroke: #000000; stroke-width: 0.2; stroke-linecap: round"/>
    <path d="M 1843.874929 1733.461141 
L 1848.271507 1734.279742 
L 1844.978679 1737.305843 
z
" clip-path="url(#pa4a4a22510)" style="stroke: #000000; stroke-width: 0.2; stroke-linecap: round"/>
   </g>
   <g id="patch_4">
    <path d="M 1657.132394 1774.669 
Q 1649.061357 1696.110022 1641.013173 1617.77348 
" clip-path="url(#pa4a4a22510)" style="fill: none; stroke: #000000; stroke-width: 0.2; stroke-linecap: round"/>
    <path d="M 1639.432447 1621.956936 
L 1641.013173 1617.77348 
L 1643.411503 1621.548134 
z
" clip-path="url(#pa4a4a22510)" style="stroke: #000000; stroke-width: 0.2; stroke-linecap: round"/>
   </g>
   <g id="patch_5">
    <path d="M 1646.136302 1782.010168 
Q 1608.133914 1761.461198 1570.32822 1741.018585 
" clip-path="url(#pa4a4a22510)" style="fill: none; stroke: #000000; stroke-width: 0.2; stroke-linecap: round"/>
    <path d="M 1572.895479 1744.680439 
L 1570.32822 1741.018585 
L 1574.798059 1741.16189 
z
" clip-path="url(#pa4a4a22510)" style="stroke: #000000; stroke-width: 0.2; stroke-linecap: round"/>
   </g>
   <g id="patch_6">
    <path d="M 1644.473405 1787.729183 
Q 1561.012603 1781.761822 1477.774839 1775.810409 
" clip-path="url(#pa4a4a22510)" style="fill: none; stroke: #000000; stroke-width: 0.2; stroke-linecap: round"/>
    <path d="M 1481.62202 1778.090584 
L 1477.774839 1775.810409 
L 1481.907288 1774.100769 
z
" clip-path="url(#pa4a4a22510)" style="stroke: #000000; stroke-width: 0.2; stroke-linecap: round"/>
   </g>
   <g id="patch_7">
    <path d="M 1523.263371 1621.631897 
Q 1586.470044 1699.688603 1649.536 1777.571532 
" clip-path="url(#pa4a4a22510)" style="fill: none; stroke: #000000; stroke-width: 0.2; stroke-linecap: round"/>
    <path d="M 1648.573091 1773.204289 
L 1649.536 1777.571532 
L 1645.464461 1775.721513 
z
" clip-path="url(#pa4a4a22510)" style="stroke: #000000; stroke-width: 0.2; stroke-linecap: round"/>
   </g>
   <g id="patch_8">
    <path d="M 1528.478072 1609.83262 
Q 1576.953005 1607.062266 1625.204696 1604.30467 
" clip-path="url(#pa4a4a22510)" style="fill: none; stroke: #000000; stroke-width: 0.2; stroke-linecap: round"/>
    <path d="M 1621.097098 1602.536157 
L 1625.204696 1604.30467 
L 1621.325327 1606.529641 
z
" clip-path="url(#pa4a4a22510)" style="stroke: #000000; stroke-width: 0.2; stroke-linecap: round"/>
   </g>
   <g id="patch_9">
    <path d="M 1507.637752 1598.200631 
Q 1470.962678 1530.359184 1434.393942 1462.71444 
" clip-path="url(#pa4a4a22510)" style="fill: none; stroke: #000000; stroke-width: 0.2; stroke-linecap: round"/>
    <path d="M 1434.536802 1467.184294 
L 1434.393942 1462.71444 
L 1438.055541 1465.282064 
z
" clip-path="url(#pa4a4a22510)" style="stroke: #000000; stroke-width: 0.2; stroke-linecap: round"/>
   </g>
   <g id="patch_10">
    <path d="M 1513.198036 1596.54299 
Q 1507.583103 1528.549545 1501.986573 1460.778949 
" clip-path="url(#pa4a4a22510)" style="fill: none; stroke: #000000; stroke-width: 0.2; stroke-linecap: round"/>
    <path d="M 1500.322559 1464.92998 
L 1501.986573 1460.778949 
L 1504.308989 1464.600778 
z
" clip-path="url(#pa4a4a22510)" style="stroke: #000000; stroke-width: 0.2; stroke-linecap: round"/>
   </g>
   <g id="patch_11">
    <path d="M 1849.791333 1723.311766 
Q 1750.810179 1666.898927 1652.023295 1610.596809 
" clip-path="url(#pa4a4a22510)" style="fill: none; stroke: #000000; stroke-width: 0.2; stroke-linecap: round"/>
    <path d="M 1654.50818 1614.315054 
L 1652.023295 1610.596809 
L 1656.488823 1610.839848 
z
" clip-path="url(#pa4a4a22510)" style="stroke: #000000; stroke-width: 0.2; stroke-linecap: round"/>
   </g>
   <g id="patch_12">
    <path d="M 1625.429254 1604.291837 
Q 1576.954321 1607.062191 1528.70263 1609.819786 
" clip-path="url(#pa4a4a22510)" style="fill: none; stroke: #000000; stroke-width: 0.2; stroke-linecap: round"/>
    <path d="M 1532.810228 1611.5883 
L 1528.70263 1609.819786 
L 1532.582 1607.594816 
z
" clip-path="url(#pa4a4a22510)" style="stroke: #000000; stroke-width: 0.2; stroke-linecap: round"/>
   </g>
   <g id="patch_13">
    <path d="M 1640.990597 1617.553738 
Q 1649.061634 1696.112716 1657.109818 1774.449258 
" clip-path="url(#pa4a4a22510)" style="fill: none; stroke: #000000; stroke-width: 0.2; stroke-linecap: round"/>
    <path d="M 1658.690544 1770.265802 
L 1657.109818 1774.449258 
L 1654.711488 1770.674604 
z
" clip-path="url(#pa4a4a22510)" style="stroke: #000000; stroke-width: 0.2; stroke-linecap: round"/>
   </g>
   <g id="patch_14">
    <path d="M 1651.833927 1610.488881 
Q 1750.815081 1666.90172 1849.601965 1723.203838 
" clip-path="url(#pa4a4a22510)" style="fill: none; stroke: #000000; stroke-width: 0.2; stroke-linecap: round"/>
    <path d="M 1847.11708 1719.485592 
L 1849.601965 1723.203838 
L 1845.136437 1722.960798 
z
" clip-path="url(#pa4a4a22510)" style="stroke: #000000; stroke-width: 0.2; stroke-linecap: round"/>
   </g>
   <g id="patch_15">
    <path d="M 1628.091419 1595.196162 
Q 1533.555877 1526.782117 1439.201482 1458.499166 
" clip-path="url(#pa4a4a22510)" style="fill: none; stroke: #000000; stroke-width: 0.2; stroke-linecap: round"/>
    <path d="M 1441.269407 1462.464477 
L 1439.201482 1458.499166 
L 1443.614486 1459.224013 
z
" clip-path="url(#pa4a4a22510)" style="stroke: #000000; stroke-width: 0.2; stroke-linecap: round"/>
   </g>
   <g id="patch_16">
    <path d="M 1630.181639 1592.887759 
Q 1570.17468 1524.974041 1510.315779 1457.22789 
" clip-path="url(#pa4a4a22510)" style="fill: none; stroke: #000000; stroke-width: 0.2; stroke-linecap: round"/>
    <path d="M 1511.465561 1461.549695 
L 1510.315779 1457.22789 
L 1514.463093 1458.901147 
z
" clip-path="url(#pa4a4a22510)" style="stroke: #000000; stroke-width: 0.2; stroke-linecap: round"/>
   </g>
   <g id="patch_17">
    <path d="M 1632.038761 1615.47102 
Q 1598.618907 1668.834168 1565.317736 1722.007806 
" clip-path="url(#pa4a4a22510)" style="fill: none; stroke: #000000; stroke-width: 0.2; stroke-linecap: round"/>
    <path d="M 1569.135859 1719.679301 
L 1565.317736 1722.007806 
L 1565.745806 1717.556204 
z
" clip-path="url(#pa4a4a22510)" style="stroke: #000000; stroke-width: 0.2; stroke-linecap: round"/>
   </g>
   <g id="patch_18">
    <path d="M 1570.132724 1740.912875 
Q 1608.135112 1761.461845 1645.940807 1781.904458 
" clip-path="url(#pa4a4a22510)" style="fill: none; stroke: #000000; stroke-width: 0.2; stroke-linecap: round"/>
    <path d="M 1643.373547 1778.242604 
L 1645.940807 1781.904458 
L 1641.470967 1781.761153 
z
" clip-path="url(#pa4a4a22510)" style="stroke: #000000; stroke-width: 0.2; stroke-linecap: round"/>
   </g>
   <g id="patch_19">
    <path d="M 1565.197685 1722.199498 
Q 1598.61754 1668.83635 1631.91871 1615.662712 
" clip-path="url(#pa4a4a22510)" style="fill: none; stroke: #000000; stroke-width: 0.2; stroke-linecap: round"/>
    <path d="M 1628.100587 1617.991218 
L 1631.91871 1615.662712 
L 1631.490641 1620.114314 
z
" clip-path="url(#pa4a4a22510)" style="stroke: #000000; stroke-width: 0.2; stroke-linecap: round"/>
   </g>
   <g id="patch_20">
    <path d="M 1554.947415 1720.307698 
Q 1529.247728 1590.323918 1503.591412 1460.559498 
" clip-path="url(#pa4a4a22510)" style="fill: none; stroke: #000000; stroke-width: 0.2; stroke-linecap: round"/>
    <path d="M 1502.405232 1464.871455 
L 1503.591412 1460.559498 
L 1506.32927 1464.095616 
z
" clip-path="url(#pa4a4a22510)" style="stroke: #000000; stroke-width: 0.2; stroke-linecap: round"/>
   </g>
   <g id="patch_21">
    <path d="M 1544.705327 1739.779616 
Q 1510.568638 1754.485366 1476.637311 1769.102649 
" clip-path="url(#pa4a4a22510)" style="fill: none; stroke: #000000; stroke-width: 0.2; stroke-linecap: round"/>
    <path d="M 1481.102214 1769.3569 
L 1476.637311 1769.102649 
L 1479.519653 1765.683277 
z
" clip-path="url(#pa4a4a22510)" style="stroke: #000000; stroke-width: 0.2; stroke-linecap: round"/>
   </g>
   <g id="patch_22">
    <path d="M 1477.549236 1775.794278 
Q 1561.010038 1781.761639 1644.247802 1787.713053 
" clip-path="url(#pa4a4a22510)" style="fill: none; stroke: #000000; stroke-width: 0.2; stroke-linecap: round"/>
    <path d="M 1640.400621 1785.432878 
L 1644.247802 1787.713053 
L 1640.115354 1789.422692 
z
" clip-path="url(#pa4a4a22510)" style="stroke: #000000; stroke-width: 0.2; stroke-linecap: round"/>
   </g>
   <g id="patch_23">
    <path d="M 1465.043592 1760.73583 
Q 1482.124308 1610.627213 1499.179744 1460.74077 
" clip-path="url(#pa4a4a22510)" style="fill: none; stroke: #000000; stroke-width: 0.2; stroke-linecap: round"/>
    <path d="M 1496.74033 1464.489004 
L 1499.179744 1460.74077 
L 1500.714683 1464.941241 
z
" clip-path="url(#pa4a4a22510)" style="stroke: #000000; stroke-width: 0.2; stroke-linecap: round"/>
   </g>
   <g id="patch_24">
    <path d="M 1476.43077 1769.191625 
Q 1510.567458 1754.485875 1544.498785 1739.868592 
" clip-path="url(#pa4a4a22510)" style="fill: none; stroke: #000000; stroke-width: 0.2; stroke-linecap: round"/>
    <path d="M 1540.033883 1739.614341 
L 1544.498785 1739.868592 
L 1541.616443 1743.287964 
z
" clip-path="url(#pa4a4a22510)" style="stroke: #000000; stroke-width: 0.2; stroke-linecap: round"/>
   </g>
   <g id="patch_25">
    <path d="M 1434.285572 1462.513979 
Q 1470.960646 1530.355426 1507.529382 1598.000169 
" clip-path="url(#pa4a4a22510)" style="fill: none; stroke: #000000; stroke-width: 0.2; stroke-linecap: round"/>
    <path d="M 1507.386522 1593.530316 
L 1507.529382 1598.000169 
L 1503.867783 1595.432545 
z
" clip-path="url(#pa4a4a22510)" style="stroke: #000000; stroke-width: 0.2; stroke-linecap: round"/>
   </g>
   <g id="patch_26">
    <path d="M 1439.01499 1458.364204 
Q 1533.550532 1526.778249 1627.904926 1595.0612 
" clip-path="url(#pa4a4a22510)" style="fill: none; stroke: #000000; stroke-width: 0.2; stroke-linecap: round"/>
    <path d="M 1625.837001 1591.09589 
L 1627.904926 1595.0612 
L 1623.491923 1594.336354 
z
" clip-path="url(#pa4a4a22510)" style="stroke: #000000; stroke-width: 0.2; stroke-linecap: round"/>
   </g>
   <g id="patch_27">
    <path d="M 1428.843499 1435.994104 
Q 1439.301215 1321.155743 1449.738653 1206.540068 
" clip-path="url(#pa4a4a22510)" style="fill: none; stroke: #000000; stroke-width: 0.2; stroke-linecap: round"/>
    <path d="M 1447.384137 1210.342206 
L 1449.738653 1206.540068 
L 1451.367654 1210.704964 
z
" clip-path="url(#pa4a4a22510)" style="stroke: #000000; stroke-width: 0.2; stroke-linecap: round"/>
   </g>
   <g id="patch_28">
    <path d="M 1501.968457 1460.559582 
Q 1507.583391 1528.553027 1513.179921 1596.323623 
" clip-path="url(#pa4a4a22510)" style="fill: none; stroke: #000000; stroke-width: 0.2; stroke-linecap: round"/>
    <path d="M 1514.843934 1592.172592 
L 1513.179921 1596.323623 
L 1510.857504 1592.501794 
z
" clip-path="url(#pa4a4a22510)" style="stroke: #000000; stroke-width: 0.2; stroke-linecap: round"/>
   </g>
   <g id="patch_29">
    <path d="M 1510.167939 1457.06057 
Q 1570.174899 1524.974288 1630.033799 1592.720439 
" clip-path="url(#pa4a4a22510)" style="fill: none; stroke: #000000; stroke-width: 0.2; stroke-linecap: round"/>
    <path d="M 1628.884017 1588.398634 
L 1630.033799 1592.720439 
L 1625.886486 1591.047182 
z
" clip-path="url(#pa4a4a22510)" style="stroke: #000000; stroke-width: 0.2; stroke-linecap: round"/>
   </g>
   <g id="patch_30">
    <path d="M 1497.242839 1432.775168 
Q 1452.106578 1259.30282 1407.026623 1086.046873 
" clip-path="url(#pa4a4a22510)" style="fill: none; stroke: #000000; stroke-width: 0.2; stroke-linecap: round"/>
    <path d="M 1406.098303 1090.421599 
L 1407.026623 1086.046873 
L 1409.969411 1089.414364 
z
" clip-path="url(#pa4a4a22510)" style="stroke: #000000; stroke-width: 0.2; stroke-linecap: round"/>
   </g>
   <g id="patch_31">
    <path d="M 1503.548199 1460.340936 
Q 1529.247886 1590.324716 1554.904202 1720.089136 
" clip-path="url(#pa4a4a22510)" style="fill: none; stroke: #000000; stroke-width: 0.2; stroke-linecap: round"/>
    <path d="M 1556.090381 1715.777178 
L 1554.904202 1720.089136 
L 1552.166343 1716.553018 
z
" clip-path="url(#pa4a4a22510)" style="stroke: #000000; stroke-width: 0.2; stroke-linecap: round"/>
   </g>
   <g id="patch_32">
    <path d="M 1499.205637 1460.513221 
Q 1482.12492 1610.621838 1465.069484 1760.508282 
" clip-path="url(#pa4a4a22510)" style="fill: none; stroke: #000000; stroke-width: 0.2; stroke-linecap: round"/>
    <path d="M 1467.508898 1756.760048 
L 1465.069484 1760.508282 
L 1463.534546 1756.30781 
z
" clip-path="url(#pa4a4a22510)" style="stroke: #000000; stroke-width: 0.2; stroke-linecap: round"/>
   </g>
   <g id="patch_33">
    <path d="M 1498.088289 1432.587083 
Q 1475.923549 1319.350128 1453.801762 1206.332615 
" clip-path="url(#pa4a4a22510)" style="fill: none; stroke: #000000; stroke-width: 0.2; stroke-linecap: round"/>
    <path d="M 1452.607378 1210.642307 
L 1453.801762 1206.332615 
L 1456.532885 1209.873938 
z
" clip-path="url(#pa4a4a22510)" style="stroke: #000000; stroke-width: 0.2; stroke-linecap: round"/>
   </g>
   <g id="patch_34">
    <path d="M 1406.97026 1085.830255 
Q 1452.106522 1259.302603 1497.186477 1432.55855 
" clip-path="url(#pa4a4a22510)" style="fill: none; stroke: #000000; stroke-width: 0.2; stroke-linecap: round"/>
    <path d="M 1498.114796 1428.183825 
L 1497.186477 1432.55855 
L 1494.243688 1429.191059 
z
" clip-path="url(#pa4a4a22510)" style="stroke: #000000; stroke-width: 0.2; stroke-linecap: round"/>
   </g>
   <g id="patch_35">
    <path d="M 1399.790222 1058.474735 
Q 1369.385571 943.633224 1339.038149 829.007872 
" clip-path="url(#pa4a4a22510)" style="fill: none; stroke: #000000; stroke-width: 0.2; stroke-linecap: round"/>
    <path d="M 1338.128502 833.386518 
L 1339.038149 829.007872 
L 1341.995278 832.362777 
z
" clip-path="url(#pa4a4a22510)" style="stroke: #000000; stroke-width: 0.2; stroke-linecap: round"/>
   </g>
   <g id="patch_36">
    <path d="M 1408.622939 1085.287969 
Q 1427.225787 1132.188384 1445.746191 1178.880946 
" clip-path="url(#pa4a4a22510)" style="fill: none; stroke: #000000; stroke-width: 0.2; stroke-linecap: round"/>
    <path d="M 1446.130482 1174.425352 
L 1445.746191 1178.880946 
L 1442.41229 1175.900157 
z
" clip-path="url(#pa4a4a22510)" style="stroke: #000000; stroke-width: 0.2; stroke-linecap: round"/>
   </g>
   <g id="patch_37">
    <path d="M 1408.947313 1059.129532 
Q 1442.939984 979.26523 1476.845083 899.606673 
" clip-path="url(#pa4a4a22510)" style="fill: none; stroke: #000000; stroke-width: 0.2; stroke-linecap: round"/>
    <path d="M 1473.438312 902.503897 
L 1476.845083 899.606673 
L 1477.1188 904.070425 
z
" clip-path="url(#pa4a4a22510)" style="stroke: #000000; stroke-width: 0.2; stroke-linecap: round"/>
   </g>
   <g id="patch_38">
    <path d="M 1449.759357 1206.312711 
Q 1439.301641 1321.151072 1428.864203 1435.766747 
" clip-path="url(#pa4a4a22510)" style="fill: none; stroke: #000000; stroke-width: 0.2; stroke-linecap: round"/>
    <path d="M 1431.218719 1431.964609 
L 1428.864203 1435.766747 
L 1427.235202 1431.601851 
z
" clip-path="url(#pa4a4a22510)" style="stroke: #000000; stroke-width: 0.2; stroke-linecap: round"/>
   </g>
   <g id="patch_39">
    <path d="M 1445.82744 1179.085788 
Q 1427.224592 1132.185372 1408.704188 1085.49281 
" clip-path="url(#pa4a4a22510)" style="fill: none; stroke: #000000; stroke-width: 0.2; stroke-linecap: round"/>
    <path d="M 1408.319897 1089.948404 
L 1408.704188 1085.49281 
L 1412.038089 1088.4736 
z
" clip-path="url(#pa4a4a22510)" style="stroke: #000000; stroke-width: 0.2; stroke-linecap: round"/>
   </g>
   <g id="patch_40">
    <path d="M 1453.757736 1206.107695 
Q 1475.922477 1319.34465 1498.044264 1432.362162 
" clip-path="url(#pa4a4a22510)" style="fill: none; stroke: #000000; stroke-width: 0.2; stroke-linecap: round"/>
    <path d="M 1499.238648 1428.05247 
L 1498.044264 1432.362162 
L 1495.31314 1428.82084 
z
" clip-path="url(#pa4a4a22510)" style="stroke: #000000; stroke-width: 0.2; stroke-linecap: round"/>
   </g>
   <g id="patch_41">
    <path d="M 1452.487587 1178.161139 
Q 1466.756855 1039.306593 1481.003265 900.674482 
" clip-path="url(#pa4a4a22510)" style="fill: none; stroke: #000000; stroke-width: 0.2; stroke-linecap: round"/>
    <path d="M 1478.60484 904.449075 
L 1481.003265 900.674482 
L 1482.583885 904.857978 
z
" clip-path="url(#pa4a4a22510)" style="stroke: #000000; stroke-width: 0.2; stroke-linecap: round"/>
   </g>
   <g id="patch_42">
    <path d="M 1476.932833 899.400509 
Q 1442.940162 979.264811 1409.035063 1058.923368 
" clip-path="url(#pa4a4a22510)" style="fill: none; stroke: #000000; stroke-width: 0.2; stroke-linecap: round"/>
    <path d="M 1412.441835 1056.026143 
L 1409.035063 1058.923368 
L 1408.761347 1054.459616 
z
" clip-path="url(#pa4a4a22510)" style="stroke: #000000; stroke-width: 0.2; stroke-linecap: round"/>
   </g>
   <g id="patch_43">
    <path d="M 1469.743918 880.222217 
Q 1408.915745 850.755037 1348.288809 821.385344 
" clip-path="url(#pa4a4a22510)" style="fill: none; stroke: #000000; stroke-width: 0.2; stroke-linecap: round"/>
    <path d="M 1351.016711 824.929149 
L 1348.288809 821.385344 
L 1352.760594 821.329306 
z
" clip-path="url(#pa4a4a22510)" style="stroke: #000000; stroke-width: 0.2; stroke-linecap: round"/>
   </g>
   <g id="patch_44">
    <path d="M 1481.025486 900.458256 
Q 1466.756217 1039.312802 1452.509807 1177.944913 
" clip-path="url(#pa4a4a22510)" style="fill: none; stroke: #000000; stroke-width: 0.2; stroke-linecap: round"/>
    <path d="M 1454.908233 1174.17032 
L 1452.509807 1177.944913 
L 1450.929188 1173.761417 
z
" clip-path="url(#pa4a4a22510)" style="stroke: #000000; stroke-width: 0.2; stroke-linecap: round"/>
   </g>
   <g id="patch_45">
    <path d="M 1492.556983 876.472358 
Q 1568.466954 801.842526 1644.217473 727.369457 
" clip-path="url(#pa4a4a22510)" style="fill: none; stroke: #000000; stroke-width: 0.2; stroke-linecap: round"/>
    <path d="M 1639.96296 728.747543 
L 1644.217473 727.369457 
L 1642.767234 731.599919 
z
" clip-path="url(#pa4a4a22510)" style="stroke: #000000; stroke-width: 0.2; stroke-linecap: round"/>
   </g>
   <g id="patch_46">
    <path d="M 1338.980654 828.790709 
Q 1369.385305 943.63222 1399.732727 1058.257572 
" clip-path="url(#pa4a4a22510)" style="fill: none; stroke: #000000; stroke-width: 0.2; stroke-linecap: round"/>
    <path d="M 1400.642374 1053.878926 
L 1399.732727 1058.257572 
L 1396.775598 1054.902667 
z
" clip-path="url(#pa4a4a22510)" style="stroke: #000000; stroke-width: 0.2; stroke-linecap: round"/>
   </g>
   <g id="patch_47">
    <path d="M 1348.089652 821.288866 
Q 1408.917825 850.756045 1469.544761 880.125738 
" clip-path="url(#pa4a4a22510)" style="fill: none; stroke: #000000; stroke-width: 0.2; stroke-linecap: round"/>
    <path d="M 1466.816859 876.581933 
L 1469.544761 880.125738 
L 1465.072976 880.181777 
z
" clip-path="url(#pa4a4a22510)" style="stroke: #000000; stroke-width: 0.2; stroke-linecap: round"/>
   </g>
   <g id="patch_48">
    <path d="M 1644.378434 727.21121 
Q 1568.468463 801.841043 1492.717944 876.314112 
" clip-path="url(#pa4a4a22510)" style="fill: none; stroke: #000000; stroke-width: 0.2; stroke-linecap: round"/>
    <path d="M 1496.972457 874.936026 
L 1492.717944 876.314112 
L 1494.168183 872.08365 
z
" clip-path="url(#pa4a4a22510)" style="stroke: #000000; stroke-width: 0.2; stroke-linecap: round"/>
   </g>
   <g id="patch_49">
    <path d="M 2463.902546 394.339935 
Q 2540.682488 355.490458 2617.26291 316.741935 
" clip-path="url(#pa4a4a22510)" style="fill: none; stroke: #000000; stroke-width: 0.2; stroke-linecap: round"/>
    <path d="M 2612.790825 316.763295 
L 2617.26291 316.741935 
L 2614.596748 320.332419 
z
" clip-path="url(#pa4a4a22510)" style="stroke: #000000; stroke-width: 0.2; stroke-linecap: round"/>
   </g>
   <g id="patch_50">
    <path d="M 2443.519124 388.903587 
Q 2401.750389 325.319974 2360.104423 261.923249 
" clip-path="url(#pa4a4a22510)" style="fill: none; stroke: #000000; stroke-width: 0.2; stroke-linecap: round"/>
    <path d="M 2360.629003 266.364512 
L 2360.104423 261.923249 
L 2363.972181 264.168343 
z
" clip-path="url(#pa4a4a22510)" style="stroke: #000000; stroke-width: 0.2; stroke-linecap: round"/>
   </g>
   <g id="patch_51">
    <path d="M 2617.464514 316.639926 
Q 2540.684572 355.489404 2464.104149 394.237927 
" clip-path="url(#pa4a4a22510)" style="fill: none; stroke: #000000; stroke-width: 0.2; stroke-linecap: round"/>
    <path d="M 2468.576234 394.216566 
L 2464.104149 394.237927 
L 2466.770312 390.647442 
z
" clip-path="url(#pa4a4a22510)" style="stroke: #000000; stroke-width: 0.2; stroke-linecap: round"/>
   </g>
   <g id="patch_52">
    <path d="M 2359.982918 261.738284 
Q 2401.751653 325.321898 2443.397619 388.718622 
" clip-path="url(#pa4a4a22510)" style="fill: none; stroke: #000000; stroke-width: 0.2; stroke-linecap: round"/>
    <path d="M 2442.87304 384.277359 
L 2443.397619 388.718622 
L 2439.529861 386.473528 
z
" clip-path="url(#pa4a4a22510)" style="stroke: #000000; stroke-width: 0.2; stroke-linecap: round"/>
   </g>
   <g id="patch_53">
    <path d="M 355.346994 2621.822269 
Q 308.37051 2588.01277 261.575515 2554.333891 
" clip-path="url(#pa4a4a22510)" style="fill: none; stroke: #000000; stroke-width: 0.2; stroke-linecap: round"/>
    <path d="M 263.653796 2558.293783 
L 261.575515 2554.333891 
L 265.990397 2555.047201 
z
" clip-path="url(#pa4a4a22510)" style="stroke: #000000; stroke-width: 0.2; stroke-linecap: round"/>
   </g>
   <g id="patch_54">
    <path d="M 261.394705 2554.20376 
Q 308.371189 2588.013259 355.166184 2621.692138 
" clip-path="url(#pa4a4a22510)" style="fill: none; stroke: #000000; stroke-width: 0.2; stroke-linecap: round"/>
    <path d="M 353.087903 2617.732245 
L 355.166184 2621.692138 
L 350.751301 2620.978827 
z
" clip-path="url(#pa4a4a22510)" style="stroke: #000000; stroke-width: 0.2; stroke-linecap: round"/>
   </g>
   <g id="PathCollection_1">
    <defs>
     <path id="C0_0_de58e0dcdd" d="M 0 14.142136 
C 3.750538 14.142136 7.347969 12.652031 10 10 
C 12.652031 7.347969 14.142136 3.750538 14.142136 -0 
C 14.142136 -3.750538 12.652031 -7.347969 10 -10 
C 7.347969 -12.652031 3.750538 -14.142136 0 -14.142136 
C -3.750538 -14.142136 -7.347969 -12.652031 -10 -10 
C -12.652031 -7.347969 -14.142136 -3.750538 -14.142136 0 
C -14.142136 3.750538 -12.652031 7.347969 -10 10 
C -7.347969 12.652031 -3.750538 14.142136 0 14.142136 
z
"/>
    </defs>
    <g clip-path="url(#pa4a4a22510)">
     <use xlink:href="#C0_0_de58e0dcdd" x="1658.577785" y="1788.737632" style="fill: #0000ff; stroke: #0000ff"/>
    </g>
    <g clip-path="url(#pa4a4a22510)">
     <use xlink:href="#C0_0_de58e0dcdd" x="1514.362121" y="1610.63935" style="fill: #ffa500; stroke: #ffa500"/>
    </g>
    <g clip-path="url(#pa4a4a22510)">
     <use xlink:href="#C0_0_de58e0dcdd" x="1862.080054" y="1730.31554" style="fill: #ffa500; stroke: #ffa500"/>
    </g>
    <g clip-path="url(#pa4a4a22510)">
     <use xlink:href="#C0_0_de58e0dcdd" x="1639.545206" y="1603.485107" style="fill: #ffff00; stroke: #ffff00"/>
    </g>
    <g clip-path="url(#pa4a4a22510)">
     <use xlink:href="#C0_0_de58e0dcdd" x="1557.691241" y="1734.185411" style="fill: #ffa500; stroke: #ffa500"/>
    </g>
    <g clip-path="url(#pa4a4a22510)">
     <use xlink:href="#C0_0_de58e0dcdd" x="1463.444856" y="1774.78583" style="fill: #ffff00; stroke: #ffff00"/>
    </g>
    <g clip-path="url(#pa4a4a22510)">
     <use xlink:href="#C0_0_de58e0dcdd" x="1427.561203" y="1450.07526" style="fill: #0000ff; stroke: #0000ff"/>
    </g>
    <g clip-path="url(#pa4a4a22510)">
     <use xlink:href="#C0_0_de58e0dcdd" x="1500.804373" y="1446.463222" style="fill: #0000ff; stroke: #0000ff"/>
    </g>
    <g clip-path="url(#pa4a4a22510)">
     <use xlink:href="#C0_0_de58e0dcdd" x="1403.408727" y="1072.142201" style="fill: #ffa500; stroke: #ffa500"/>
    </g>
    <g clip-path="url(#pa4a4a22510)">
     <use xlink:href="#C0_0_de58e0dcdd" x="1451.041653" y="1192.231555" style="fill: #ffff00; stroke: #ffff00"/>
    </g>
    <g clip-path="url(#pa4a4a22510)">
     <use xlink:href="#C0_0_de58e0dcdd" x="1482.47142" y="886.38784" style="fill: #ffa500; stroke: #ffa500"/>
    </g>
    <g clip-path="url(#pa4a4a22510)">
     <use xlink:href="#C0_0_de58e0dcdd" x="1335.36215" y="815.123243" style="fill: #ffff00; stroke: #ffff00"/>
    </g>
    <g clip-path="url(#pa4a4a22510)">
     <use xlink:href="#C0_0_de58e0dcdd" x="1654.463997" y="717.295729" style="fill: #ffff00; stroke: #ffff00"/>
    </g>
    <g clip-path="url(#pa4a4a22510)">
     <use xlink:href="#C0_0_de58e0dcdd" x="2451.284415" y="400.724516" style="fill: #ffa500; stroke: #ffa500"/>
    </g>
    <g clip-path="url(#pa4a4a22510)">
     <use xlink:href="#C0_0_de58e0dcdd" x="2630.082645" y="310.255345" style="fill: #ffff00; stroke: #ffff00"/>
    </g>
    <g clip-path="url(#pa4a4a22510)">
     <use xlink:href="#C0_0_de58e0dcdd" x="2352.217627" y="249.917355" style="fill: #ffff00; stroke: #ffff00"/>
    </g>
    <g clip-path="url(#pa4a4a22510)">
     <use xlink:href="#C0_0_de58e0dcdd" x="366.824343" y="2630.082645" style="fill: #0000ff; stroke: #0000ff"/>
    </g>
    <g clip-path="url(#pa4a4a22510)">
     <use xlink:href="#C0_0_de58e0dcdd" x="249.917355" y="2545.943384" style="fill: #ffa500; stroke: #ffa500"/>
    </g>
   </g>
   <g id="text_1">
    <g clip-path="url(#pa4a4a22510)">
     <!-- VAL 5 -->
     <g transform="translate(1647.315285 1790.945132) scale(0.08 -0.08)">
      <defs>
       <path id="DejaVuSans-56" d="M 1831 0 
L 50 4666 
L 709 4666 
L 2188 738 
L 3669 4666 
L 4325 4666 
L 2547 0 
L 1831 0 
z
" transform="scale(0.015625)"/>
       <path id="DejaVuSans-41" d="M 2188 4044 
L 1331 1722 
L 3047 1722 
L 2188 4044 
z
M 1831 4666 
L 2547 4666 
L 4325 0 
L 3669 0 
L 3244 1197 
L 1141 1197 
L 716 0 
L 50 0 
L 1831 4666 
z
" transform="scale(0.015625)"/>
       <path id="DejaVuSans-4c" d="M 628 4666 
L 1259 4666 
L 1259 531 
L 3531 531 
L 3531 0 
L 628 0 
L 628 4666 
z
" transform="scale(0.015625)"/>
       <path id="DejaVuSans-20" transform="scale(0.015625)"/>
       <path id="DejaVuSans-35" d="M 691 4666 
L 3169 4666 
L 3169 4134 
L 1269 4134 
L 1269 2991 
Q 1406 3038 1543 3061 
Q 1681 3084 1819 3084 
Q 2600 3084 3056 2656 
Q 3513 2228 3513 1497 
Q 3513 744 3044 326 
Q 2575 -91 1722 -91 
Q 1428 -91 1123 -41 
Q 819 9 494 109 
L 494 744 
Q 775 591 1075 516 
Q 1375 441 1709 441 
Q 2250 441 2565 725 
Q 2881 1009 2881 1497 
Q 2881 1984 2565 2268 
Q 2250 2553 1709 2553 
Q 1456 2553 1204 2497 
Q 953 2441 691 2322 
L 691 4666 
z
" transform="scale(0.015625)"/>
      </defs>
      <use xlink:href="#DejaVuSans-56"/>
      <use xlink:href="#DejaVuSans-41" x="62.033203"/>
      <use xlink:href="#DejaVuSans-4c" x="130.441406"/>
      <use xlink:href="#DejaVuSans-20" x="186.154297"/>
      <use xlink:href="#DejaVuSans-35" x="217.941406"/>
     </g>
    </g>
   </g>
   <g id="text_2">
    <g clip-path="url(#pa4a4a22510)">
     <!-- ILE 3 -->
     <g transform="translate(1504.609621 1612.84685) scale(0.08 -0.08)">
      <defs>
       <path id="DejaVuSans-49" d="M 628 4666 
L 1259 4666 
L 1259 0 
L 628 0 
L 628 4666 
z
" transform="scale(0.015625)"/>
       <path id="DejaVuSans-45" d="M 628 4666 
L 3578 4666 
L 3578 4134 
L 1259 4134 
L 1259 2753 
L 3481 2753 
L 3481 2222 
L 1259 2222 
L 1259 531 
L 3634 531 
L 3634 0 
L 628 0 
L 628 4666 
z
" transform="scale(0.015625)"/>
       <path id="DejaVuSans-33" d="M 2597 2516 
Q 3050 2419 3304 2112 
Q 3559 1806 3559 1356 
Q 3559 666 3084 287 
Q 2609 -91 1734 -91 
Q 1441 -91 1130 -33 
Q 819 25 488 141 
L 488 750 
Q 750 597 1062 519 
Q 1375 441 1716 441 
Q 2309 441 2620 675 
Q 2931 909 2931 1356 
Q 2931 1769 2642 2001 
Q 2353 2234 1838 2234 
L 1294 2234 
L 1294 2753 
L 1863 2753 
Q 2328 2753 2575 2939 
Q 2822 3125 2822 3475 
Q 2822 3834 2567 4026 
Q 2313 4219 1838 4219 
Q 1578 4219 1281 4162 
Q 984 4106 628 3988 
L 628 4550 
Q 988 4650 1302 4700 
Q 1616 4750 1894 4750 
Q 2613 4750 3031 4423 
Q 3450 4097 3450 3541 
Q 3450 3153 3228 2886 
Q 3006 2619 2597 2516 
z
" transform="scale(0.015625)"/>
      </defs>
      <use xlink:href="#DejaVuSans-49"/>
      <use xlink:href="#DejaVuSans-4c" x="29.492188"/>
      <use xlink:href="#DejaVuSans-45" x="85.205078"/>
      <use xlink:href="#DejaVuSans-20" x="148.388672"/>
      <use xlink:href="#DejaVuSans-33" x="180.175781"/>
     </g>
    </g>
   </g>
   <g id="text_3">
    <g clip-path="url(#pa4a4a22510)">
     <!-- ILE 13 -->
     <g transform="translate(1849.782554 1732.52304) scale(0.08 -0.08)">
      <defs>
       <path id="DejaVuSans-31" d="M 794 531 
L 1825 531 
L 1825 4091 
L 703 3866 
L 703 4441 
L 1819 4666 
L 2450 4666 
L 2450 531 
L 3481 531 
L 3481 0 
L 794 0 
L 794 531 
z
" transform="scale(0.015625)"/>
      </defs>
      <use xlink:href="#DejaVuSans-49"/>
      <use xlink:href="#DejaVuSans-4c" x="29.492188"/>
      <use xlink:href="#DejaVuSans-45" x="85.205078"/>
      <use xlink:href="#DejaVuSans-20" x="148.388672"/>
      <use xlink:href="#DejaVuSans-31" x="180.175781"/>
      <use xlink:href="#DejaVuSans-33" x="243.798828"/>
     </g>
    </g>
   </g>
   <g id="text_4">
    <g clip-path="url(#pa4a4a22510)">
     <!-- LEU 15 -->
     <g transform="translate(1625.500206 1605.692607) scale(0.08 -0.08)">
      <defs>
       <path id="DejaVuSans-55" d="M 556 4666 
L 1191 4666 
L 1191 1831 
Q 1191 1081 1462 751 
Q 1734 422 2344 422 
Q 2950 422 3222 751 
Q 3494 1081 3494 1831 
L 3494 4666 
L 4128 4666 
L 4128 1753 
Q 4128 841 3676 375 
Q 3225 -91 2344 -91 
Q 1459 -91 1007 375 
Q 556 841 556 1753 
L 556 4666 
z
" transform="scale(0.015625)"/>
      </defs>
      <use xlink:href="#DejaVuSans-4c"/>
      <use xlink:href="#DejaVuSans-45" x="55.712891"/>
      <use xlink:href="#DejaVuSans-55" x="118.896484"/>
      <use xlink:href="#DejaVuSans-20" x="192.089844"/>
      <use xlink:href="#DejaVuSans-31" x="223.876953"/>
      <use xlink:href="#DejaVuSans-35" x="287.5"/>
     </g>
    </g>
   </g>
   <g id="text_5">
    <g clip-path="url(#pa4a4a22510)">
     <!-- ILE 30 -->
     <g transform="translate(1545.393741 1736.392911) scale(0.08 -0.08)">
      <defs>
       <path id="DejaVuSans-30" d="M 2034 4250 
Q 1547 4250 1301 3770 
Q 1056 3291 1056 2328 
Q 1056 1369 1301 889 
Q 1547 409 2034 409 
Q 2525 409 2770 889 
Q 3016 1369 3016 2328 
Q 3016 3291 2770 3770 
Q 2525 4250 2034 4250 
z
M 2034 4750 
Q 2819 4750 3233 4129 
Q 3647 3509 3647 2328 
Q 3647 1150 3233 529 
Q 2819 -91 2034 -91 
Q 1250 -91 836 529 
Q 422 1150 422 2328 
Q 422 3509 836 4129 
Q 1250 4750 2034 4750 
z
" transform="scale(0.015625)"/>
      </defs>
      <use xlink:href="#DejaVuSans-49"/>
      <use xlink:href="#DejaVuSans-4c" x="29.492188"/>
      <use xlink:href="#DejaVuSans-45" x="85.205078"/>
      <use xlink:href="#DejaVuSans-20" x="148.388672"/>
      <use xlink:href="#DejaVuSans-33" x="180.175781"/>
      <use xlink:href="#DejaVuSans-30" x="243.798828"/>
     </g>
    </g>
   </g>
   <g id="text_6">
    <g clip-path="url(#pa4a4a22510)">
     <!-- LEU 43 -->
     <g transform="translate(1449.399856 1776.99333) scale(0.08 -0.08)">
      <defs>
       <path id="DejaVuSans-34" d="M 2419 4116 
L 825 1625 
L 2419 1625 
L 2419 4116 
z
M 2253 4666 
L 3047 4666 
L 3047 1625 
L 3713 1625 
L 3713 1100 
L 3047 1100 
L 3047 0 
L 2419 0 
L 2419 1100 
L 313 1100 
L 313 1709 
L 2253 4666 
z
" transform="scale(0.015625)"/>
      </defs>
      <use xlink:href="#DejaVuSans-4c"/>
      <use xlink:href="#DejaVuSans-45" x="55.712891"/>
      <use xlink:href="#DejaVuSans-55" x="118.896484"/>
      <use xlink:href="#DejaVuSans-20" x="192.089844"/>
      <use xlink:href="#DejaVuSans-34" x="223.876953"/>
      <use xlink:href="#DejaVuSans-33" x="287.5"/>
     </g>
    </g>
   </g>
   <g id="text_7">
    <g clip-path="url(#pa4a4a22510)">
     <!-- VAL 17 -->
     <g transform="translate(1413.753703 1452.28276) scale(0.08 -0.08)">
      <defs>
       <path id="DejaVuSans-37" d="M 525 4666 
L 3525 4666 
L 3525 4397 
L 1831 0 
L 1172 0 
L 2766 4134 
L 525 4134 
L 525 4666 
z
" transform="scale(0.015625)"/>
      </defs>
      <use xlink:href="#DejaVuSans-56"/>
      <use xlink:href="#DejaVuSans-41" x="62.033203"/>
      <use xlink:href="#DejaVuSans-4c" x="130.441406"/>
      <use xlink:href="#DejaVuSans-20" x="186.154297"/>
      <use xlink:href="#DejaVuSans-31" x="217.941406"/>
      <use xlink:href="#DejaVuSans-37" x="281.564453"/>
     </g>
    </g>
   </g>
   <g id="text_8">
    <g clip-path="url(#pa4a4a22510)">
     <!-- VAL 26 -->
     <g transform="translate(1486.996873 1448.670722) scale(0.08 -0.08)">
      <defs>
       <path id="DejaVuSans-32" d="M 1228 531 
L 3431 531 
L 3431 0 
L 469 0 
L 469 531 
Q 828 903 1448 1529 
Q 2069 2156 2228 2338 
Q 2531 2678 2651 2914 
Q 2772 3150 2772 3378 
Q 2772 3750 2511 3984 
Q 2250 4219 1831 4219 
Q 1534 4219 1204 4116 
Q 875 4013 500 3803 
L 500 4441 
Q 881 4594 1212 4672 
Q 1544 4750 1819 4750 
Q 2544 4750 2975 4387 
Q 3406 4025 3406 3419 
Q 3406 3131 3298 2873 
Q 3191 2616 2906 2266 
Q 2828 2175 2409 1742 
Q 1991 1309 1228 531 
z
" transform="scale(0.015625)"/>
       <path id="DejaVuSans-36" d="M 2113 2584 
Q 1688 2584 1439 2293 
Q 1191 2003 1191 1497 
Q 1191 994 1439 701 
Q 1688 409 2113 409 
Q 2538 409 2786 701 
Q 3034 994 3034 1497 
Q 3034 2003 2786 2293 
Q 2538 2584 2113 2584 
z
M 3366 4563 
L 3366 3988 
Q 3128 4100 2886 4159 
Q 2644 4219 2406 4219 
Q 1781 4219 1451 3797 
Q 1122 3375 1075 2522 
Q 1259 2794 1537 2939 
Q 1816 3084 2150 3084 
Q 2853 3084 3261 2657 
Q 3669 2231 3669 1497 
Q 3669 778 3244 343 
Q 2819 -91 2113 -91 
Q 1303 -91 875 529 
Q 447 1150 447 2328 
Q 447 3434 972 4092 
Q 1497 4750 2381 4750 
Q 2619 4750 2861 4703 
Q 3103 4656 3366 4563 
z
" transform="scale(0.015625)"/>
      </defs>
      <use xlink:href="#DejaVuSans-56"/>
      <use xlink:href="#DejaVuSans-41" x="62.033203"/>
      <use xlink:href="#DejaVuSans-4c" x="130.441406"/>
      <use xlink:href="#DejaVuSans-20" x="186.154297"/>
      <use xlink:href="#DejaVuSans-32" x="217.941406"/>
      <use xlink:href="#DejaVuSans-36" x="281.564453"/>
     </g>
    </g>
   </g>
   <g id="text_9">
    <g clip-path="url(#pa4a4a22510)">
     <!-- ILE 23 -->
     <g transform="translate(1391.111227 1074.349701) scale(0.08 -0.08)">
      <use xlink:href="#DejaVuSans-49"/>
      <use xlink:href="#DejaVuSans-4c" x="29.492188"/>
      <use xlink:href="#DejaVuSans-45" x="85.205078"/>
      <use xlink:href="#DejaVuSans-20" x="148.388672"/>
      <use xlink:href="#DejaVuSans-32" x="180.175781"/>
      <use xlink:href="#DejaVuSans-33" x="243.798828"/>
     </g>
    </g>
   </g>
   <g id="text_10">
    <g clip-path="url(#pa4a4a22510)">
     <!-- LEU 56 -->
     <g transform="translate(1436.996653 1194.439055) scale(0.08 -0.08)">
      <use xlink:href="#DejaVuSans-4c"/>
      <use xlink:href="#DejaVuSans-45" x="55.712891"/>
      <use xlink:href="#DejaVuSans-55" x="118.896484"/>
      <use xlink:href="#DejaVuSans-20" x="192.089844"/>
      <use xlink:href="#DejaVuSans-35" x="223.876953"/>
      <use xlink:href="#DejaVuSans-36" x="287.5"/>
     </g>
    </g>
   </g>
   <g id="text_11">
    <g clip-path="url(#pa4a4a22510)">
     <!-- ILE 61 -->
     <g transform="translate(1470.17392 888.59534) scale(0.08 -0.08)">
      <use xlink:href="#DejaVuSans-49"/>
      <use xlink:href="#DejaVuSans-4c" x="29.492188"/>
      <use xlink:href="#DejaVuSans-45" x="85.205078"/>
      <use xlink:href="#DejaVuSans-20" x="148.388672"/>
      <use xlink:href="#DejaVuSans-36" x="180.175781"/>
      <use xlink:href="#DejaVuSans-31" x="243.798828"/>
     </g>
    </g>
   </g>
   <g id="text_12">
    <g clip-path="url(#pa4a4a22510)">
     <!-- LEU 50 -->
     <g transform="translate(1321.31715 817.330743) scale(0.08 -0.08)">
      <use xlink:href="#DejaVuSans-4c"/>
      <use xlink:href="#DejaVuSans-45" x="55.712891"/>
      <use xlink:href="#DejaVuSans-55" x="118.896484"/>
      <use xlink:href="#DejaVuSans-20" x="192.089844"/>
      <use xlink:href="#DejaVuSans-35" x="223.876953"/>
      <use xlink:href="#DejaVuSans-30" x="287.5"/>
     </g>
    </g>
   </g>
   <g id="text_13">
    <g clip-path="url(#pa4a4a22510)">
     <!-- LEU 67 -->
     <g transform="translate(1640.418997 719.503229) scale(0.08 -0.08)">
      <use xlink:href="#DejaVuSans-4c"/>
      <use xlink:href="#DejaVuSans-45" x="55.712891"/>
      <use xlink:href="#DejaVuSans-55" x="118.896484"/>
      <use xlink:href="#DejaVuSans-20" x="192.089844"/>
      <use xlink:href="#DejaVuSans-36" x="223.876953"/>
      <use xlink:href="#DejaVuSans-37" x="287.5"/>
     </g>
    </g>
   </g>
   <g id="text_14">
    <g clip-path="url(#pa4a4a22510)">
     <!-- ILE 36 -->
     <g transform="translate(2438.986915 402.932016) scale(0.08 -0.08)">
      <use xlink:href="#DejaVuSans-49"/>
      <use xlink:href="#DejaVuSans-4c" x="29.492188"/>
      <use xlink:href="#DejaVuSans-45" x="85.205078"/>
      <use xlink:href="#DejaVuSans-20" x="148.388672"/>
      <use xlink:href="#DejaVuSans-33" x="180.175781"/>
      <use xlink:href="#DejaVuSans-36" x="243.798828"/>
     </g>
    </g>
   </g>
   <g id="text_15">
    <g clip-path="url(#pa4a4a22510)">
     <!-- LEU 69 -->
     <g transform="translate(2616.037645 312.462845) scale(0.08 -0.08)">
      <defs>
       <path id="DejaVuSans-39" d="M 703 97 
L 703 672 
Q 941 559 1184 500 
Q 1428 441 1663 441 
Q 2288 441 2617 861 
Q 2947 1281 2994 2138 
Q 2813 1869 2534 1725 
Q 2256 1581 1919 1581 
Q 1219 1581 811 2004 
Q 403 2428 403 3163 
Q 403 3881 828 4315 
Q 1253 4750 1959 4750 
Q 2769 4750 3195 4129 
Q 3622 3509 3622 2328 
Q 3622 1225 3098 567 
Q 2575 -91 1691 -91 
Q 1453 -91 1209 -44 
Q 966 3 703 97 
z
M 1959 2075 
Q 2384 2075 2632 2365 
Q 2881 2656 2881 3163 
Q 2881 3666 2632 3958 
Q 2384 4250 1959 4250 
Q 1534 4250 1286 3958 
Q 1038 3666 1038 3163 
Q 1038 2656 1286 2365 
Q 1534 2075 1959 2075 
z
" transform="scale(0.015625)"/>
      </defs>
      <use xlink:href="#DejaVuSans-4c"/>
      <use xlink:href="#DejaVuSans-45" x="55.712891"/>
      <use xlink:href="#DejaVuSans-55" x="118.896484"/>
      <use xlink:href="#DejaVuSans-20" x="192.089844"/>
      <use xlink:href="#DejaVuSans-36" x="223.876953"/>
      <use xlink:href="#DejaVuSans-39" x="287.5"/>
     </g>
    </g>
   </g>
   <g id="text_16">
    <g clip-path="url(#pa4a4a22510)">
     <!-- LEU 71 -->
     <g transform="translate(2338.172627 252.124855) scale(0.08 -0.08)">
      <use xlink:href="#DejaVuSans-4c"/>
      <use xlink:href="#DejaVuSans-45" x="55.712891"/>
      <use xlink:href="#DejaVuSans-55" x="118.896484"/>
      <use xlink:href="#DejaVuSans-20" x="192.089844"/>
      <use xlink:href="#DejaVuSans-37" x="223.876953"/>
      <use xlink:href="#DejaVuSans-31" x="287.5"/>
     </g>
    </g>
   </g>
   <g id="text_17">
    <g clip-path="url(#pa4a4a22510)">
     <!-- VAL 70 -->
     <g transform="translate(353.016843 2632.290145) scale(0.08 -0.08)">
      <use xlink:href="#DejaVuSans-56"/>
      <use xlink:href="#DejaVuSans-41" x="62.033203"/>
      <use xlink:href="#DejaVuSans-4c" x="130.441406"/>
      <use xlink:href="#DejaVuSans-20" x="186.154297"/>
      <use xlink:href="#DejaVuSans-37" x="217.941406"/>
      <use xlink:href="#DejaVuSans-30" x="281.564453"/>
     </g>
    </g>
   </g>
   <g id="text_18">
    <g clip-path="url(#pa4a4a22510)">
     <!-- ILE 44 -->
     <g transform="translate(237.619855 2548.150884) scale(0.08 -0.08)">
      <use xlink:href="#DejaVuSans-49"/>
      <use xlink:href="#DejaVuSans-4c" x="29.492188"/>
      <use xlink:href="#DejaVuSans-45" x="85.205078"/>
      <use xlink:href="#DejaVuSans-20" x="148.388672"/>
      <use xlink:href="#DejaVuSans-34" x="180.175781"/>
      <use xlink:href="#DejaVuSans-34" x="243.798828"/>
     </g>
    </g>
   </g>
  </g>
  <g id="text_19">
   <!-- G_NMR -->
   <g transform="translate(1418.51625 66.50625) scale(0.12 -0.12)">
    <defs>
     <path id="DejaVuSans-47" d="M 3809 666 
L 3809 1919 
L 2778 1919 
L 2778 2438 
L 4434 2438 
L 4434 434 
Q 4069 175 3628 42 
Q 3188 -91 2688 -91 
Q 1594 -91 976 548 
Q 359 1188 359 2328 
Q 359 3472 976 4111 
Q 1594 4750 2688 4750 
Q 3144 4750 3555 4637 
Q 3966 4525 4313 4306 
L 4313 3634 
Q 3963 3931 3569 4081 
Q 3175 4231 2741 4231 
Q 1884 4231 1454 3753 
Q 1025 3275 1025 2328 
Q 1025 1384 1454 906 
Q 1884 428 2741 428 
Q 3075 428 3337 486 
Q 3600 544 3809 666 
z
" transform="scale(0.015625)"/>
     <path id="DejaVuSans-5f" d="M 3263 -1063 
L 3263 -1509 
L -63 -1509 
L -63 -1063 
L 3263 -1063 
z
" transform="scale(0.015625)"/>
     <path id="DejaVuSans-4e" d="M 628 4666 
L 1478 4666 
L 3547 763 
L 3547 4666 
L 4159 4666 
L 4159 0 
L 3309 0 
L 1241 3903 
L 1241 0 
L 628 0 
L 628 4666 
z
" transform="scale(0.015625)"/>
     <path id="DejaVuSans-4d" d="M 628 4666 
L 1569 4666 
L 2759 1491 
L 3956 4666 
L 4897 4666 
L 4897 0 
L 4281 0 
L 4281 4097 
L 3078 897 
L 2444 897 
L 1241 4097 
L 1241 0 
L 628 0 
L 628 4666 
z
" transform="scale(0.015625)"/>
     <path id="DejaVuSans-52" d="M 2841 2188 
Q 3044 2119 3236 1894 
Q 3428 1669 3622 1275 
L 4263 0 
L 3584 0 
L 2988 1197 
Q 2756 1666 2539 1819 
Q 2322 1972 1947 1972 
L 1259 1972 
L 1259 0 
L 628 0 
L 628 4666 
L 2053 4666 
Q 2853 4666 3247 4331 
Q 3641 3997 3641 3322 
Q 3641 2881 3436 2590 
Q 3231 2300 2841 2188 
z
M 1259 4147 
L 1259 2491 
L 2053 2491 
Q 2509 2491 2742 2702 
Q 2975 2913 2975 3322 
Q 2975 3731 2742 3939 
Q 2509 4147 2053 4147 
L 1259 4147 
z
" transform="scale(0.015625)"/>
    </defs>
    <use xlink:href="#DejaVuSans-47"/>
    <use xlink:href="#DejaVuSans-5f" x="77.490234"/>
    <use xlink:href="#DejaVuSans-4e" x="127.490234"/>
    <use xlink:href="#DejaVuSans-4d" x="202.294922"/>
    <use xlink:href="#DejaVuSans-52" x="288.574219"/>
   </g>
  </g>
 </g>
 <defs>
  <clipPath id="pa4a4a22510">
   <rect x="0" y="0" width="2880" height="2880"/>
  </clipPath>
 </defs>
</svg>
