<?xml version="1.0" encoding="utf-8" standalone="no"?>
<!DOCTYPE svg PUBLIC "-//W3C//DTD SVG 1.1//EN"
  "http://www.w3.org/Graphics/SVG/1.1/DTD/svg11.dtd">
<svg xmlns:xlink="http://www.w3.org/1999/xlink" width="2880pt" height="2880pt" viewBox="0 0 2880 2880" xmlns="http://www.w3.org/2000/svg" version="1.1">
 <metadata>
  <rdf:RDF xmlns:dc="http://purl.org/dc/elements/1.1/" xmlns:cc="http://creativecommons.org/ns#" xmlns:rdf="http://www.w3.org/1999/02/22-rdf-syntax-ns#">
   <cc:Work>
    <dc:type rdf:resource="http://purl.org/dc/dcmitype/StillImage"/>
    <dc:date>2024-09-22T07:46:11.290449</dc:date>
    <dc:format>image/svg+xml</dc:format>
    <dc:creator>
     <cc:Agent>
      <dc:title>Matplotlib v3.8.2, https://matplotlib.org/</dc:title>
     </cc:Agent>
    </dc:creator>
   </cc:Work>
  </rdf:RDF>
 </metadata>
 <defs>
  <style type="text/css">*{stroke-linejoin: round; stroke-linecap: butt}</style>
 </defs>
 <g id="figure_1">
  <g id="patch_1">
   <path d="M 0 2880 
L 2880 2880 
L 2880 0 
L 0 0 
z
" style="fill: #ffffff"/>
  </g>
  <g id="axes_1">
   <g id="patch_2">
    <path d="M 1334.587846 1488.336609 
Q 1313.627535 1606.024828 1292.70643 1723.492905 
" clip-path="url(#pb10e7a1e1c)" style="fill: none; stroke: #000000; stroke-width: 0.2; stroke-linecap: round"/>
    <path d="M 1295.37681 1719.905556 
L 1292.70643 1723.492905 
L 1291.43878 1719.204192 
z
" clip-path="url(#pb10e7a1e1c)" style="stroke: #000000; stroke-width: 0.2; stroke-linecap: round"/>
   </g>
   <g id="patch_3">
    <path d="M 1351.111239 1476.083774 
Q 1453.536382 1488.282482 1555.739487 1500.454745 
" clip-path="url(#pb10e7a1e1c)" style="fill: none; stroke: #000000; stroke-width: 0.2; stroke-linecap: round"/>
    <path d="M 1552.004084 1497.995729 
L 1555.739487 1500.454745 
L 1551.531032 1501.967658 
z
" clip-path="url(#pb10e7a1e1c)" style="stroke: #000000; stroke-width: 0.2; stroke-linecap: round"/>
   </g>
   <g id="patch_4">
    <path d="M 1338.798824 1488.445665 
Q 1348.363687 1566.000771 1357.901179 1643.333952 
" clip-path="url(#pb10e7a1e1c)" style="fill: none; stroke: #000000; stroke-width: 0.2; stroke-linecap: round"/>
    <path d="M 1359.39653 1639.119225 
L 1357.901179 1643.333952 
L 1355.426608 1639.608835 
z
" clip-path="url(#pb10e7a1e1c)" style="stroke: #000000; stroke-width: 0.2; stroke-linecap: round"/>
   </g>
   <g id="patch_5">
    <path d="M 1324.814596 1481.469242 
Q 1272.620184 1511.533512 1220.619535 1541.486174 
" clip-path="url(#pb10e7a1e1c)" style="fill: none; stroke: #000000; stroke-width: 0.2; stroke-linecap: round"/>
    <path d="M 1225.083905 1541.22273 
L 1220.619535 1541.486174 
L 1223.087401 1537.756612 
z
" clip-path="url(#pb10e7a1e1c)" style="stroke: #000000; stroke-width: 0.2; stroke-linecap: round"/>
   </g>
   <g id="patch_6">
    <path d="M 1322.990308 1475.758061 
Q 1226.525168 1484.986983 1130.282619 1494.194611 
" clip-path="url(#pb10e7a1e1c)" style="fill: none; stroke: #000000; stroke-width: 0.2; stroke-linecap: round"/>
    <path d="M 1134.45491 1495.804575 
L 1130.282619 1494.194611 
L 1134.073965 1491.822757 
z
" clip-path="url(#pb10e7a1e1c)" style="stroke: #000000; stroke-width: 0.2; stroke-linecap: round"/>
   </g>
   <g id="patch_7">
    <path d="M 1292.66699 1723.714353 
Q 1313.627302 1606.026133 1334.548406 1488.558056 
" clip-path="url(#pb10e7a1e1c)" style="fill: none; stroke: #000000; stroke-width: 0.2; stroke-linecap: round"/>
    <path d="M 1331.878026 1492.145405 
L 1334.548406 1488.558056 
L 1335.816057 1492.84677 
z
" clip-path="url(#pb10e7a1e1c)" style="stroke: #000000; stroke-width: 0.2; stroke-linecap: round"/>
   </g>
   <g id="patch_8">
    <path d="M 1299.458281 1726.957343 
Q 1324.924717 1697.61527 1350.244586 1668.44207 
" clip-path="url(#pb10e7a1e1c)" style="fill: none; stroke: #000000; stroke-width: 0.2; stroke-linecap: round"/>
    <path d="M 1346.112266 1670.152021 
L 1350.244586 1668.44207 
L 1349.133155 1672.773897 
z
" clip-path="url(#pb10e7a1e1c)" style="stroke: #000000; stroke-width: 0.2; stroke-linecap: round"/>
   </g>
   <g id="patch_9">
    <path d="M 1290.81001 1751.768508 
Q 1294.679509 1839.50474 1298.539156 1927.017583 
" clip-path="url(#pb10e7a1e1c)" style="fill: none; stroke: #000000; stroke-width: 0.2; stroke-linecap: round"/>
    <path d="M 1300.36097 1922.933346 
L 1298.539156 1927.017583 
L 1296.364854 1923.10959 
z
" clip-path="url(#pb10e7a1e1c)" style="stroke: #000000; stroke-width: 0.2; stroke-linecap: round"/>
   </g>
   <g id="patch_10">
    <path d="M 1277.601528 1744.094931 
Q 1214.863184 1776.274332 1152.323802 1808.351682 
" clip-path="url(#pb10e7a1e1c)" style="fill: none; stroke: #000000; stroke-width: 0.2; stroke-linecap: round"/>
    <path d="M 1156.795702 1808.305718 
L 1152.323802 1808.351682 
L 1154.970171 1804.746584 
z
" clip-path="url(#pb10e7a1e1c)" style="stroke: #000000; stroke-width: 0.2; stroke-linecap: round"/>
   </g>
   <g id="patch_11">
    <path d="M 1558.63481 1510.557314 
Q 1464.8355 1579.872233 1371.216022 1649.054261 
" clip-path="url(#pb10e7a1e1c)" style="fill: none; stroke: #000000; stroke-width: 0.2; stroke-linecap: round"/>
    <path d="M 1375.621589 1648.285504 
L 1371.216022 1649.054261 
L 1373.244357 1645.068554 
z
" clip-path="url(#pb10e7a1e1c)" style="stroke: #000000; stroke-width: 0.2; stroke-linecap: round"/>
   </g>
   <g id="patch_12">
    <path d="M 1350.388456 1668.276305 
Q 1324.92202 1697.618378 1299.602151 1726.791578 
" clip-path="url(#pb10e7a1e1c)" style="fill: none; stroke: #000000; stroke-width: 0.2; stroke-linecap: round"/>
    <path d="M 1303.734471 1725.081627 
L 1299.602151 1726.791578 
L 1300.713582 1722.459751 
z
" clip-path="url(#pb10e7a1e1c)" style="stroke: #000000; stroke-width: 0.2; stroke-linecap: round"/>
   </g>
   <g id="patch_13">
    <path d="M 1357.928995 1643.559495 
Q 1348.364133 1566.004389 1338.82664 1488.671208 
" clip-path="url(#pb10e7a1e1c)" style="fill: none; stroke: #000000; stroke-width: 0.2; stroke-linecap: round"/>
    <path d="M 1337.331289 1492.885935 
L 1338.82664 1488.671208 
L 1341.301211 1492.396325 
z
" clip-path="url(#pb10e7a1e1c)" style="stroke: #000000; stroke-width: 0.2; stroke-linecap: round"/>
   </g>
   <g id="patch_14">
    <path d="M 1371.031599 1649.190544 
Q 1464.83091 1579.875625 1558.450387 1510.693597 
" clip-path="url(#pb10e7a1e1c)" style="fill: none; stroke: #000000; stroke-width: 0.2; stroke-linecap: round"/>
    <path d="M 1554.044821 1511.462353 
L 1558.450387 1510.693597 
L 1556.422052 1514.679304 
z
" clip-path="url(#pb10e7a1e1c)" style="stroke: #000000; stroke-width: 0.2; stroke-linecap: round"/>
   </g>
   <g id="patch_15">
    <path d="M 1356.710968 1671.428417 
Q 1329.41519 1799.484436 1302.166028 1927.32176 
" clip-path="url(#pb10e7a1e1c)" style="fill: none; stroke: #000000; stroke-width: 0.2; stroke-linecap: round"/>
    <path d="M 1304.955971 1923.82659 
L 1302.166028 1927.32176 
L 1301.043857 1922.992703 
z
" clip-path="url(#pb10e7a1e1c)" style="stroke: #000000; stroke-width: 0.2; stroke-linecap: round"/>
   </g>
   <g id="patch_16">
    <path d="M 1348.156081 1665.815414 
Q 1249.601572 1736.250094 1151.228986 1806.554758 
" clip-path="url(#pb10e7a1e1c)" style="fill: none; stroke: #000000; stroke-width: 0.2; stroke-linecap: round"/>
    <path d="M 1155.646215 1805.856127 
L 1151.228986 1806.554758 
L 1153.320419 1802.601796 
z
" clip-path="url(#pb10e7a1e1c)" style="stroke: #000000; stroke-width: 0.2; stroke-linecap: round"/>
   </g>
   <g id="patch_17">
    <path d="M 1348.178355 1649.337578 
Q 1283.915481 1603.12617 1219.834148 1557.045308 
" clip-path="url(#pb10e7a1e1c)" style="fill: none; stroke: #000000; stroke-width: 0.2; stroke-linecap: round"/>
    <path d="M 1221.914025 1561.004363 
L 1219.834148 1557.045308 
L 1224.249317 1557.756839 
z
" clip-path="url(#pb10e7a1e1c)" style="stroke: #000000; stroke-width: 0.2; stroke-linecap: round"/>
   </g>
   <g id="patch_18">
    <path d="M 1220.423017 1541.599369 
Q 1272.617428 1511.5351 1324.618078 1481.582438 
" clip-path="url(#pb10e7a1e1c)" style="fill: none; stroke: #000000; stroke-width: 0.2; stroke-linecap: round"/>
    <path d="M 1320.153708 1481.845882 
L 1324.618078 1481.582438 
L 1322.150211 1485.312 
z
" clip-path="url(#pb10e7a1e1c)" style="stroke: #000000; stroke-width: 0.2; stroke-linecap: round"/>
   </g>
   <g id="patch_19">
    <path d="M 1219.651157 1556.91372 
Q 1283.914032 1603.125128 1347.995365 1649.20599 
" clip-path="url(#pb10e7a1e1c)" style="fill: none; stroke: #000000; stroke-width: 0.2; stroke-linecap: round"/>
    <path d="M 1345.915488 1645.246935 
L 1347.995365 1649.20599 
L 1343.580195 1648.494459 
z
" clip-path="url(#pb10e7a1e1c)" style="stroke: #000000; stroke-width: 0.2; stroke-linecap: round"/>
   </g>
   <g id="patch_20">
    <path d="M 1204.639507 1562.352652 
Q 1173.854267 1681.784648 1143.12484 1801.000115 
" clip-path="url(#pb10e7a1e1c)" style="fill: none; stroke: #000000; stroke-width: 0.2; stroke-linecap: round"/>
    <path d="M 1146.059956 1797.625933 
L 1143.12484 1801.000115 
L 1142.186565 1796.627514 
z
" clip-path="url(#pb10e7a1e1c)" style="stroke: #000000; stroke-width: 0.2; stroke-linecap: round"/>
   </g>
   <g id="patch_21">
    <path d="M 1195.9175 1541.60089 
Q 1162.076271 1522.110428 1128.428809 1502.731563 
" clip-path="url(#pb10e7a1e1c)" style="fill: none; stroke: #000000; stroke-width: 0.2; stroke-linecap: round"/>
    <path d="M 1130.896864 1506.461001 
L 1128.428809 1502.731563 
L 1132.893192 1502.994782 
z
" clip-path="url(#pb10e7a1e1c)" style="stroke: #000000; stroke-width: 0.2; stroke-linecap: round"/>
   </g>
   <g id="patch_22">
    <path d="M 1130.059351 1494.215971 
Q 1226.524491 1484.987048 1322.76704 1475.779421 
" clip-path="url(#pb10e7a1e1c)" style="fill: none; stroke: #000000; stroke-width: 0.2; stroke-linecap: round"/>
    <path d="M 1318.594749 1474.169456 
L 1322.76704 1475.779421 
L 1318.975694 1478.151275 
z
" clip-path="url(#pb10e7a1e1c)" style="stroke: #000000; stroke-width: 0.2; stroke-linecap: round"/>
   </g>
   <g id="patch_23">
    <path d="M 1117.022354 1509.66965 
Q 1127.760651 1655.235342 1138.482498 1800.578034 
" clip-path="url(#pb10e7a1e1c)" style="fill: none; stroke: #000000; stroke-width: 0.2; stroke-linecap: round"/>
    <path d="M 1140.1828 1796.441734 
L 1138.482498 1800.578034 
L 1136.193639 1796.736012 
z
" clip-path="url(#pb10e7a1e1c)" style="stroke: #000000; stroke-width: 0.2; stroke-linecap: round"/>
   </g>
   <g id="patch_24">
    <path d="M 1128.233852 1502.61928 
Q 1162.075081 1522.109742 1195.722543 1541.488607 
" clip-path="url(#pb10e7a1e1c)" style="fill: none; stroke: #000000; stroke-width: 0.2; stroke-linecap: round"/>
    <path d="M 1193.254488 1537.759169 
L 1195.722543 1541.488607 
L 1191.25816 1541.225388 
z
" clip-path="url(#pb10e7a1e1c)" style="stroke: #000000; stroke-width: 0.2; stroke-linecap: round"/>
   </g>
   <g id="patch_25">
    <path d="M 1298.54892 1927.238978 
Q 1294.679421 1839.502745 1290.819774 1751.989902 
" clip-path="url(#pb10e7a1e1c)" style="fill: none; stroke: #000000; stroke-width: 0.2; stroke-linecap: round"/>
    <path d="M 1288.99796 1756.074139 
L 1290.819774 1751.989902 
L 1292.994075 1755.897895 
z
" clip-path="url(#pb10e7a1e1c)" style="stroke: #000000; stroke-width: 0.2; stroke-linecap: round"/>
   </g>
   <g id="patch_26">
    <path d="M 1302.120944 1927.533267 
Q 1329.416722 1799.477248 1356.665885 1671.639924 
" clip-path="url(#pb10e7a1e1c)" style="fill: none; stroke: #000000; stroke-width: 0.2; stroke-linecap: round"/>
    <path d="M 1353.875941 1675.135094 
L 1356.665885 1671.639924 
L 1357.788055 1675.968981 
z
" clip-path="url(#pb10e7a1e1c)" style="stroke: #000000; stroke-width: 0.2; stroke-linecap: round"/>
   </g>
   <g id="patch_27">
    <path d="M 1288.503413 1950.654126 
Q 1201.981484 2025.965907 1115.628218 2101.130879 
" clip-path="url(#pb10e7a1e1c)" style="fill: none; stroke: #000000; stroke-width: 0.2; stroke-linecap: round"/>
    <path d="M 1119.958444 2100.013229 
L 1115.628218 2101.130879 
L 1117.332234 2096.996108 
z
" clip-path="url(#pb10e7a1e1c)" style="stroke: #000000; stroke-width: 0.2; stroke-linecap: round"/>
   </g>
   <g id="patch_28">
    <path d="M 1152.125023 1808.453639 
Q 1214.863366 1776.274239 1277.402748 1744.196888 
" clip-path="url(#pb10e7a1e1c)" style="fill: none; stroke: #000000; stroke-width: 0.2; stroke-linecap: round"/>
    <path d="M 1272.930848 1744.242853 
L 1277.402748 1744.196888 
L 1274.75638 1747.801987 
z
" clip-path="url(#pb10e7a1e1c)" style="stroke: #000000; stroke-width: 0.2; stroke-linecap: round"/>
   </g>
   <g id="patch_29">
    <path d="M 1151.043452 1806.687355 
Q 1249.597961 1736.252675 1347.970547 1665.948011 
" clip-path="url(#pb10e7a1e1c)" style="fill: none; stroke: #000000; stroke-width: 0.2; stroke-linecap: round"/>
    <path d="M 1343.553318 1666.646642 
L 1347.970547 1665.948011 
L 1345.879114 1669.900973 
z
" clip-path="url(#pb10e7a1e1c)" style="stroke: #000000; stroke-width: 0.2; stroke-linecap: round"/>
   </g>
   <g id="patch_30">
    <path d="M 1135.101736 1828.336296 
Q 1077.353946 2003.058367 1019.676328 2177.568126 
" clip-path="url(#pb10e7a1e1c)" style="fill: none; stroke: #000000; stroke-width: 0.2; stroke-linecap: round"/>
    <path d="M 1022.830559 2174.397823 
L 1019.676328 2177.568126 
L 1019.032624 2173.142559 
z
" clip-path="url(#pb10e7a1e1c)" style="stroke: #000000; stroke-width: 0.2; stroke-linecap: round"/>
   </g>
   <g id="patch_31">
    <path d="M 1143.06982 1801.213568 
Q 1173.85506 1681.781573 1204.584486 1562.566106 
" clip-path="url(#pb10e7a1e1c)" style="fill: none; stroke: #000000; stroke-width: 0.2; stroke-linecap: round"/>
    <path d="M 1201.649371 1565.940287 
L 1204.584486 1562.566106 
L 1205.522762 1566.938707 
z
" clip-path="url(#pb10e7a1e1c)" style="stroke: #000000; stroke-width: 0.2; stroke-linecap: round"/>
   </g>
   <g id="patch_32">
    <path d="M 1138.499019 1800.801991 
Q 1127.760722 1655.236299 1117.038875 1509.893607 
" clip-path="url(#pb10e7a1e1c)" style="fill: none; stroke: #000000; stroke-width: 0.2; stroke-linecap: round"/>
    <path d="M 1115.338573 1514.029907 
L 1117.038875 1509.893607 
L 1119.327733 1513.735629 
z
" clip-path="url(#pb10e7a1e1c)" style="stroke: #000000; stroke-width: 0.2; stroke-linecap: round"/>
   </g>
   <g id="patch_33">
    <path d="M 1137.889205 1828.952546 
Q 1122.166733 1962.733739 1106.47036 2096.292855 
" clip-path="url(#pb10e7a1e1c)" style="fill: none; stroke: #000000; stroke-width: 0.2; stroke-linecap: round"/>
    <path d="M 1108.923572 2092.553637 
L 1106.47036 2096.292855 
L 1104.950912 2092.086755 
z
" clip-path="url(#pb10e7a1e1c)" style="stroke: #000000; stroke-width: 0.2; stroke-linecap: round"/>
   </g>
   <g id="patch_34">
    <path d="M 1019.605299 2177.783031 
Q 1077.353089 2003.06096 1135.030708 1828.5512 
" clip-path="url(#pb10e7a1e1c)" style="fill: none; stroke: #000000; stroke-width: 0.2; stroke-linecap: round"/>
    <path d="M 1131.876476 1831.721503 
L 1135.030708 1828.5512 
L 1135.674411 1832.976768 
z
" clip-path="url(#pb10e7a1e1c)" style="stroke: #000000; stroke-width: 0.2; stroke-linecap: round"/>
   </g>
   <g id="patch_35">
    <path d="M 1015.156492 2205.349838 
Q 1015.053235 2339.662542 1014.95015 2473.751639 
" clip-path="url(#pb10e7a1e1c)" style="fill: none; stroke: #000000; stroke-width: 0.2; stroke-linecap: round"/>
    <path d="M 1016.953225 2469.753178 
L 1014.95015 2473.751639 
L 1012.953226 2469.750103 
z
" clip-path="url(#pb10e7a1e1c)" style="stroke: #000000; stroke-width: 0.2; stroke-linecap: round"/>
   </g>
   <g id="patch_36">
    <path d="M 1025.67862 2181.75209 
Q 1059.978677 2150.88772 1094.112514 2120.17292 
" clip-path="url(#pb10e7a1e1c)" style="fill: none; stroke: #000000; stroke-width: 0.2; stroke-linecap: round"/>
    <path d="M 1089.801299 2121.361796 
L 1094.112514 2120.17292 
L 1092.476886 2124.335218 
z
" clip-path="url(#pb10e7a1e1c)" style="stroke: #000000; stroke-width: 0.2; stroke-linecap: round"/>
   </g>
   <g id="patch_37">
    <path d="M 1009.183564 2204.023223 
Q 971.351276 2285.031193 933.613606 2365.836563 
" clip-path="url(#pb10e7a1e1c)" style="fill: none; stroke: #000000; stroke-width: 0.2; stroke-linecap: round"/>
    <path d="M 937.118319 2363.058616 
L 933.613606 2365.836563 
L 933.494076 2361.366025 
z
" clip-path="url(#pb10e7a1e1c)" style="stroke: #000000; stroke-width: 0.2; stroke-linecap: round"/>
   </g>
   <g id="patch_38">
    <path d="M 1115.46205 2101.275518 
Q 1201.983978 2025.963737 1288.337244 1950.798766 
" clip-path="url(#pb10e7a1e1c)" style="fill: none; stroke: #000000; stroke-width: 0.2; stroke-linecap: round"/>
    <path d="M 1284.007018 1951.916415 
L 1288.337244 1950.798766 
L 1286.633228 1954.933536 
z
" clip-path="url(#pb10e7a1e1c)" style="stroke: #000000; stroke-width: 0.2; stroke-linecap: round"/>
   </g>
   <g id="patch_39">
    <path d="M 1094.282152 2120.020275 
Q 1059.982095 2150.884644 1025.848257 2181.599444 
" clip-path="url(#pb10e7a1e1c)" style="fill: none; stroke: #000000; stroke-width: 0.2; stroke-linecap: round"/>
    <path d="M 1030.159472 2180.410568 
L 1025.848257 2181.599444 
L 1027.483885 2177.437147 
z
" clip-path="url(#pb10e7a1e1c)" style="stroke: #000000; stroke-width: 0.2; stroke-linecap: round"/>
   </g>
   <g id="patch_40">
    <path d="M 1106.443878 2096.518184 
Q 1122.166351 1962.73699 1137.862723 1829.177874 
" clip-path="url(#pb10e7a1e1c)" style="fill: none; stroke: #000000; stroke-width: 0.2; stroke-linecap: round"/>
    <path d="M 1135.409512 1832.917093 
L 1137.862723 1829.177874 
L 1139.382171 1833.383975 
z
" clip-path="url(#pb10e7a1e1c)" style="stroke: #000000; stroke-width: 0.2; stroke-linecap: round"/>
   </g>
   <g id="patch_41">
    <path d="M 1096.995626 2122.364258 
Q 1016.163419 2244.708243 935.454475 2366.865663 
" clip-path="url(#pb10e7a1e1c)" style="fill: none; stroke: #000000; stroke-width: 0.2; stroke-linecap: round"/>
    <path d="M 939.328147 2364.630787 
L 935.454475 2366.865663 
L 935.990778 2362.4258 
z
" clip-path="url(#pb10e7a1e1c)" style="stroke: #000000; stroke-width: 0.2; stroke-linecap: round"/>
   </g>
   <g id="patch_42">
    <path d="M 933.518939 2366.039268 
Q 971.351227 2285.031298 1009.088896 2204.225928 
" clip-path="url(#pb10e7a1e1c)" style="fill: none; stroke: #000000; stroke-width: 0.2; stroke-linecap: round"/>
    <path d="M 1005.584184 2207.003875 
L 1009.088896 2204.225928 
L 1009.208426 2208.696466 
z
" clip-path="url(#pb10e7a1e1c)" style="stroke: #000000; stroke-width: 0.2; stroke-linecap: round"/>
   </g>
   <g id="patch_43">
    <path d="M 936.366761 2389.89228 
Q 971.234919 2433.480414 1005.963396 2476.893937 
" clip-path="url(#pb10e7a1e1c)" style="fill: none; stroke: #000000; stroke-width: 0.2; stroke-linecap: round"/>
    <path d="M 1005.026497 2472.52104 
L 1005.963396 2476.893937 
L 1001.90294 2475.019718 
z
" clip-path="url(#pb10e7a1e1c)" style="stroke: #000000; stroke-width: 0.2; stroke-linecap: round"/>
   </g>
   <g id="patch_44">
    <path d="M 935.332925 2367.049635 
Q 1016.165131 2244.705651 1096.874075 2122.548231 
" clip-path="url(#pb10e7a1e1c)" style="fill: none; stroke: #000000; stroke-width: 0.2; stroke-linecap: round"/>
    <path d="M 1093.000404 2124.783107 
L 1096.874075 2122.548231 
L 1096.337773 2126.988094 
z
" clip-path="url(#pb10e7a1e1c)" style="stroke: #000000; stroke-width: 0.2; stroke-linecap: round"/>
   </g>
   <g id="patch_45">
    <path d="M 920.492203 2391.115297 
Q 855.392736 2504.46763 790.40463 2617.626058 
" clip-path="url(#pb10e7a1e1c)" style="fill: none; stroke: #000000; stroke-width: 0.2; stroke-linecap: round"/>
    <path d="M 794.131047 2615.153444 
L 790.40463 2617.626058 
L 790.662389 2613.161356 
z
" clip-path="url(#pb10e7a1e1c)" style="stroke: #000000; stroke-width: 0.2; stroke-linecap: round"/>
   </g>
   <g id="patch_46">
    <path d="M 1014.949979 2473.974976 
Q 1015.053235 2339.662272 1015.15632 2205.573175 
" clip-path="url(#pb10e7a1e1c)" style="fill: none; stroke: #000000; stroke-width: 0.2; stroke-linecap: round"/>
    <path d="M 1013.153246 2209.571637 
L 1015.15632 2205.573175 
L 1017.153244 2209.574712 
z
" clip-path="url(#pb10e7a1e1c)" style="stroke: #000000; stroke-width: 0.2; stroke-linecap: round"/>
   </g>
   <g id="patch_47">
    <path d="M 1006.107488 2477.074064 
Q 971.23933 2433.485929 936.510853 2390.072407 
" clip-path="url(#pb10e7a1e1c)" style="fill: none; stroke: #000000; stroke-width: 0.2; stroke-linecap: round"/>
    <path d="M 937.447752 2394.445303 
L 936.510853 2390.072407 
L 940.571309 2391.946625 
z
" clip-path="url(#pb10e7a1e1c)" style="stroke: #000000; stroke-width: 0.2; stroke-linecap: round"/>
   </g>
   <g id="patch_48">
    <path d="M 790.293616 2617.819357 
Q 855.393083 2504.467025 920.381189 2391.308597 
" clip-path="url(#pb10e7a1e1c)" style="fill: none; stroke: #000000; stroke-width: 0.2; stroke-linecap: round"/>
    <path d="M 916.654772 2393.781211 
L 920.381189 2391.308597 
L 920.12343 2395.773298 
z
" clip-path="url(#pb10e7a1e1c)" style="stroke: #000000; stroke-width: 0.2; stroke-linecap: round"/>
   </g>
   <g id="patch_49">
    <path d="M 2608.165599 1071.312525 
Q 2581.450392 967.138793 2554.79073 863.181658 
" clip-path="url(#pb10e7a1e1c)" style="fill: none; stroke: #000000; stroke-width: 0.2; stroke-linecap: round"/>
    <path d="M 2553.847061 867.553098 
L 2554.79073 863.181658 
L 2557.721681 866.559457 
z
" clip-path="url(#pb10e7a1e1c)" style="stroke: #000000; stroke-width: 0.2; stroke-linecap: round"/>
   </g>
   <g id="patch_50">
    <path d="M 2614.03991 1071.068757 
Q 2620.881131 1030.65149 2627.685035 990.454693 
" clip-path="url(#pb10e7a1e1c)" style="fill: none; stroke: #000000; stroke-width: 0.2; stroke-linecap: round"/>
    <path d="M 2625.045521 994.064812 
L 2627.685035 990.454693 
L 2628.989422 994.732376 
z
" clip-path="url(#pb10e7a1e1c)" style="stroke: #000000; stroke-width: 0.2; stroke-linecap: round"/>
   </g>
   <g id="patch_51">
    <path d="M 2554.73609 862.968593 
Q 2581.451298 967.142325 2608.110959 1071.09946 
" clip-path="url(#pb10e7a1e1c)" style="fill: none; stroke: #000000; stroke-width: 0.2; stroke-linecap: round"/>
    <path d="M 2609.054628 1066.72802 
L 2608.110959 1071.09946 
L 2605.180008 1067.721661 
z
" clip-path="url(#pb10e7a1e1c)" style="stroke: #000000; stroke-width: 0.2; stroke-linecap: round"/>
   </g>
   <g id="patch_52">
    <path d="M 2627.722147 990.235441 
Q 2620.880925 1030.652709 2614.077021 1070.849506 
" clip-path="url(#pb10e7a1e1c)" style="fill: none; stroke: #000000; stroke-width: 0.2; stroke-linecap: round"/>
    <path d="M 2616.716536 1067.239386 
L 2614.077021 1070.849506 
L 2612.772634 1066.571822 
z
" clip-path="url(#pb10e7a1e1c)" style="stroke: #000000; stroke-width: 0.2; stroke-linecap: round"/>
   </g>
   <g id="patch_53">
    <path d="M 253.971369 409.394561 
Q 275.807365 336.429408 297.579252 263.678475 
" clip-path="url(#pb10e7a1e1c)" style="fill: none; stroke: #000000; stroke-width: 0.2; stroke-linecap: round"/>
    <path d="M 294.516402 266.937147 
L 297.579252 263.678475 
L 298.34848 268.083958 
z
" clip-path="url(#pb10e7a1e1c)" style="stroke: #000000; stroke-width: 0.2; stroke-linecap: round"/>
   </g>
   <g id="patch_54">
    <path d="M 297.643474 263.463875 
Q 275.807479 336.429028 254.035592 409.179962 
" clip-path="url(#pb10e7a1e1c)" style="fill: none; stroke: #000000; stroke-width: 0.2; stroke-linecap: round"/>
    <path d="M 257.098442 405.921289 
L 254.035592 409.179962 
L 253.266364 404.774478 
z
" clip-path="url(#pb10e7a1e1c)" style="stroke: #000000; stroke-width: 0.2; stroke-linecap: round"/>
   </g>
   <g id="PathCollection_1">
    <defs>
     <path id="C0_0_7c104bdeef" d="M 0 14.142136 
C 3.750538 14.142136 7.347969 12.652031 10 10 
C 12.652031 7.347969 14.142136 3.750538 14.142136 -0 
C 14.142136 -3.750538 12.652031 -7.347969 10 -10 
C 7.347969 -12.652031 3.750538 -14.142136 0 -14.142136 
C -3.750538 -14.142136 -7.347969 -12.652031 -10 -10 
C -12.652031 -7.347969 -14.142136 -3.750538 -14.142136 0 
C -14.142136 3.750538 -12.652031 7.347969 -10 10 
C -7.347969 12.652031 -3.750538 14.142136 0 14.142136 
z
"/>
    </defs>
    <g clip-path="url(#pb10e7a1e1c)">
     <use xlink:href="#C0_0_7c104bdeef" x="1337.06796" y="1474.411237" style="fill: #0000ff; stroke: #0000ff"/>
    </g>
    <g clip-path="url(#pb10e7a1e1c)">
     <use xlink:href="#C0_0_7c104bdeef" x="1290.186877" y="1737.639725" style="fill: #ffa500; stroke: #ffa500"/>
    </g>
    <g clip-path="url(#pb10e7a1e1c)">
     <use xlink:href="#C0_0_7c104bdeef" x="1570.00655" y="1502.153935" style="fill: #ffa500; stroke: #ffa500"/>
    </g>
    <g clip-path="url(#pb10e7a1e1c)">
     <use xlink:href="#C0_0_7c104bdeef" x="1359.65986" y="1657.593923" style="fill: #ffff00; stroke: #ffff00"/>
    </g>
    <g clip-path="url(#pb10e7a1e1c)">
     <use xlink:href="#C0_0_7c104bdeef" x="1208.169653" y="1548.657375" style="fill: #ffa500; stroke: #ffa500"/>
    </g>
    <g clip-path="url(#pb10e7a1e1c)">
     <use xlink:href="#C0_0_7c104bdeef" x="1115.981699" y="1495.562795" style="fill: #ffff00; stroke: #ffff00"/>
    </g>
    <g clip-path="url(#pb10e7a1e1c)">
     <use xlink:href="#C0_0_7c104bdeef" x="1299.172053" y="1941.367761" style="fill: #0000ff; stroke: #0000ff"/>
    </g>
    <g clip-path="url(#pb10e7a1e1c)">
     <use xlink:href="#C0_0_7c104bdeef" x="1139.539673" y="1814.908846" style="fill: #0000ff; stroke: #0000ff"/>
    </g>
    <g clip-path="url(#pb10e7a1e1c)">
     <use xlink:href="#C0_0_7c104bdeef" x="1015.167362" y="2191.210481" style="fill: #ffa500; stroke: #ffa500"/>
    </g>
    <g clip-path="url(#pb10e7a1e1c)">
     <use xlink:href="#C0_0_7c104bdeef" x="1104.79341" y="2110.561884" style="fill: #ffff00; stroke: #ffff00"/>
    </g>
    <g clip-path="url(#pb10e7a1e1c)">
     <use xlink:href="#C0_0_7c104bdeef" x="927.535141" y="2378.85201" style="fill: #ffa500; stroke: #ffa500"/>
    </g>
    <g clip-path="url(#pb10e7a1e1c)">
     <use xlink:href="#C0_0_7c104bdeef" x="1014.939109" y="2488.114333" style="fill: #ffff00; stroke: #ffff00"/>
    </g>
    <g clip-path="url(#pb10e7a1e1c)">
     <use xlink:href="#C0_0_7c104bdeef" x="783.250678" y="2630.082645" style="fill: #ffff00; stroke: #ffff00"/>
    </g>
    <g clip-path="url(#pb10e7a1e1c)">
     <use xlink:href="#C0_0_7c104bdeef" x="2611.679412" y="1085.014346" style="fill: #ffa500; stroke: #ffa500"/>
    </g>
    <g clip-path="url(#pb10e7a1e1c)">
     <use xlink:href="#C0_0_7c104bdeef" x="2551.222277" y="849.266772" style="fill: #ffff00; stroke: #ffff00"/>
    </g>
    <g clip-path="url(#pb10e7a1e1c)">
     <use xlink:href="#C0_0_7c104bdeef" x="2630.082645" y="976.289852" style="fill: #ffff00; stroke: #ffff00"/>
    </g>
    <g clip-path="url(#pb10e7a1e1c)">
     <use xlink:href="#C0_0_7c104bdeef" x="249.917355" y="422.941081" style="fill: #0000ff; stroke: #0000ff"/>
    </g>
    <g clip-path="url(#pb10e7a1e1c)">
     <use xlink:href="#C0_0_7c104bdeef" x="301.697488" y="249.917355" style="fill: #ffa500; stroke: #ffa500"/>
    </g>
   </g>
   <g id="text_1">
    <g clip-path="url(#pb10e7a1e1c)">
     <!-- VAL 5 -->
     <g transform="translate(1325.80546 1476.618737) scale(0.08 -0.08)">
      <defs>
       <path id="DejaVuSans-56" d="M 1831 0 
L 50 4666 
L 709 4666 
L 2188 738 
L 3669 4666 
L 4325 4666 
L 2547 0 
L 1831 0 
z
" transform="scale(0.015625)"/>
       <path id="DejaVuSans-41" d="M 2188 4044 
L 1331 1722 
L 3047 1722 
L 2188 4044 
z
M 1831 4666 
L 2547 4666 
L 4325 0 
L 3669 0 
L 3244 1197 
L 1141 1197 
L 716 0 
L 50 0 
L 1831 4666 
z
" transform="scale(0.015625)"/>
       <path id="DejaVuSans-4c" d="M 628 4666 
L 1259 4666 
L 1259 531 
L 3531 531 
L 3531 0 
L 628 0 
L 628 4666 
z
" transform="scale(0.015625)"/>
       <path id="DejaVuSans-20" transform="scale(0.015625)"/>
       <path id="DejaVuSans-35" d="M 691 4666 
L 3169 4666 
L 3169 4134 
L 1269 4134 
L 1269 2991 
Q 1406 3038 1543 3061 
Q 1681 3084 1819 3084 
Q 2600 3084 3056 2656 
Q 3513 2228 3513 1497 
Q 3513 744 3044 326 
Q 2575 -91 1722 -91 
Q 1428 -91 1123 -41 
Q 819 9 494 109 
L 494 744 
Q 775 591 1075 516 
Q 1375 441 1709 441 
Q 2250 441 2565 725 
Q 2881 1009 2881 1497 
Q 2881 1984 2565 2268 
Q 2250 2553 1709 2553 
Q 1456 2553 1204 2497 
Q 953 2441 691 2322 
L 691 4666 
z
" transform="scale(0.015625)"/>
      </defs>
      <use xlink:href="#DejaVuSans-56"/>
      <use xlink:href="#DejaVuSans-41" x="62.033203"/>
      <use xlink:href="#DejaVuSans-4c" x="130.441406"/>
      <use xlink:href="#DejaVuSans-20" x="186.154297"/>
      <use xlink:href="#DejaVuSans-35" x="217.941406"/>
     </g>
    </g>
   </g>
   <g id="text_2">
    <g clip-path="url(#pb10e7a1e1c)">
     <!-- ILE 3 -->
     <g transform="translate(1280.434377 1739.847225) scale(0.08 -0.08)">
      <defs>
       <path id="DejaVuSans-49" d="M 628 4666 
L 1259 4666 
L 1259 0 
L 628 0 
L 628 4666 
z
" transform="scale(0.015625)"/>
       <path id="DejaVuSans-45" d="M 628 4666 
L 3578 4666 
L 3578 4134 
L 1259 4134 
L 1259 2753 
L 3481 2753 
L 3481 2222 
L 1259 2222 
L 1259 531 
L 3634 531 
L 3634 0 
L 628 0 
L 628 4666 
z
" transform="scale(0.015625)"/>
       <path id="DejaVuSans-33" d="M 2597 2516 
Q 3050 2419 3304 2112 
Q 3559 1806 3559 1356 
Q 3559 666 3084 287 
Q 2609 -91 1734 -91 
Q 1441 -91 1130 -33 
Q 819 25 488 141 
L 488 750 
Q 750 597 1062 519 
Q 1375 441 1716 441 
Q 2309 441 2620 675 
Q 2931 909 2931 1356 
Q 2931 1769 2642 2001 
Q 2353 2234 1838 2234 
L 1294 2234 
L 1294 2753 
L 1863 2753 
Q 2328 2753 2575 2939 
Q 2822 3125 2822 3475 
Q 2822 3834 2567 4026 
Q 2313 4219 1838 4219 
Q 1578 4219 1281 4162 
Q 984 4106 628 3988 
L 628 4550 
Q 988 4650 1302 4700 
Q 1616 4750 1894 4750 
Q 2613 4750 3031 4423 
Q 3450 4097 3450 3541 
Q 3450 3153 3228 2886 
Q 3006 2619 2597 2516 
z
" transform="scale(0.015625)"/>
      </defs>
      <use xlink:href="#DejaVuSans-49"/>
      <use xlink:href="#DejaVuSans-4c" x="29.492188"/>
      <use xlink:href="#DejaVuSans-45" x="85.205078"/>
      <use xlink:href="#DejaVuSans-20" x="148.388672"/>
      <use xlink:href="#DejaVuSans-33" x="180.175781"/>
     </g>
    </g>
   </g>
   <g id="text_3">
    <g clip-path="url(#pb10e7a1e1c)">
     <!-- ILE 13 -->
     <g transform="translate(1557.70905 1504.361435) scale(0.08 -0.08)">
      <defs>
       <path id="DejaVuSans-31" d="M 794 531 
L 1825 531 
L 1825 4091 
L 703 3866 
L 703 4441 
L 1819 4666 
L 2450 4666 
L 2450 531 
L 3481 531 
L 3481 0 
L 794 0 
L 794 531 
z
" transform="scale(0.015625)"/>
      </defs>
      <use xlink:href="#DejaVuSans-49"/>
      <use xlink:href="#DejaVuSans-4c" x="29.492188"/>
      <use xlink:href="#DejaVuSans-45" x="85.205078"/>
      <use xlink:href="#DejaVuSans-20" x="148.388672"/>
      <use xlink:href="#DejaVuSans-31" x="180.175781"/>
      <use xlink:href="#DejaVuSans-33" x="243.798828"/>
     </g>
    </g>
   </g>
   <g id="text_4">
    <g clip-path="url(#pb10e7a1e1c)">
     <!-- LEU 15 -->
     <g transform="translate(1345.61486 1659.801423) scale(0.08 -0.08)">
      <defs>
       <path id="DejaVuSans-55" d="M 556 4666 
L 1191 4666 
L 1191 1831 
Q 1191 1081 1462 751 
Q 1734 422 2344 422 
Q 2950 422 3222 751 
Q 3494 1081 3494 1831 
L 3494 4666 
L 4128 4666 
L 4128 1753 
Q 4128 841 3676 375 
Q 3225 -91 2344 -91 
Q 1459 -91 1007 375 
Q 556 841 556 1753 
L 556 4666 
z
" transform="scale(0.015625)"/>
      </defs>
      <use xlink:href="#DejaVuSans-4c"/>
      <use xlink:href="#DejaVuSans-45" x="55.712891"/>
      <use xlink:href="#DejaVuSans-55" x="118.896484"/>
      <use xlink:href="#DejaVuSans-20" x="192.089844"/>
      <use xlink:href="#DejaVuSans-31" x="223.876953"/>
      <use xlink:href="#DejaVuSans-35" x="287.5"/>
     </g>
    </g>
   </g>
   <g id="text_5">
    <g clip-path="url(#pb10e7a1e1c)">
     <!-- ILE 30 -->
     <g transform="translate(1195.872153 1550.864875) scale(0.08 -0.08)">
      <defs>
       <path id="DejaVuSans-30" d="M 2034 4250 
Q 1547 4250 1301 3770 
Q 1056 3291 1056 2328 
Q 1056 1369 1301 889 
Q 1547 409 2034 409 
Q 2525 409 2770 889 
Q 3016 1369 3016 2328 
Q 3016 3291 2770 3770 
Q 2525 4250 2034 4250 
z
M 2034 4750 
Q 2819 4750 3233 4129 
Q 3647 3509 3647 2328 
Q 3647 1150 3233 529 
Q 2819 -91 2034 -91 
Q 1250 -91 836 529 
Q 422 1150 422 2328 
Q 422 3509 836 4129 
Q 1250 4750 2034 4750 
z
" transform="scale(0.015625)"/>
      </defs>
      <use xlink:href="#DejaVuSans-49"/>
      <use xlink:href="#DejaVuSans-4c" x="29.492188"/>
      <use xlink:href="#DejaVuSans-45" x="85.205078"/>
      <use xlink:href="#DejaVuSans-20" x="148.388672"/>
      <use xlink:href="#DejaVuSans-33" x="180.175781"/>
      <use xlink:href="#DejaVuSans-30" x="243.798828"/>
     </g>
    </g>
   </g>
   <g id="text_6">
    <g clip-path="url(#pb10e7a1e1c)">
     <!-- LEU 43 -->
     <g transform="translate(1101.936699 1497.770295) scale(0.08 -0.08)">
      <defs>
       <path id="DejaVuSans-34" d="M 2419 4116 
L 825 1625 
L 2419 1625 
L 2419 4116 
z
M 2253 4666 
L 3047 4666 
L 3047 1625 
L 3713 1625 
L 3713 1100 
L 3047 1100 
L 3047 0 
L 2419 0 
L 2419 1100 
L 313 1100 
L 313 1709 
L 2253 4666 
z
" transform="scale(0.015625)"/>
      </defs>
      <use xlink:href="#DejaVuSans-4c"/>
      <use xlink:href="#DejaVuSans-45" x="55.712891"/>
      <use xlink:href="#DejaVuSans-55" x="118.896484"/>
      <use xlink:href="#DejaVuSans-20" x="192.089844"/>
      <use xlink:href="#DejaVuSans-34" x="223.876953"/>
      <use xlink:href="#DejaVuSans-33" x="287.5"/>
     </g>
    </g>
   </g>
   <g id="text_7">
    <g clip-path="url(#pb10e7a1e1c)">
     <!-- VAL 17 -->
     <g transform="translate(1285.364553 1943.575261) scale(0.08 -0.08)">
      <defs>
       <path id="DejaVuSans-37" d="M 525 4666 
L 3525 4666 
L 3525 4397 
L 1831 0 
L 1172 0 
L 2766 4134 
L 525 4134 
L 525 4666 
z
" transform="scale(0.015625)"/>
      </defs>
      <use xlink:href="#DejaVuSans-56"/>
      <use xlink:href="#DejaVuSans-41" x="62.033203"/>
      <use xlink:href="#DejaVuSans-4c" x="130.441406"/>
      <use xlink:href="#DejaVuSans-20" x="186.154297"/>
      <use xlink:href="#DejaVuSans-31" x="217.941406"/>
      <use xlink:href="#DejaVuSans-37" x="281.564453"/>
     </g>
    </g>
   </g>
   <g id="text_8">
    <g clip-path="url(#pb10e7a1e1c)">
     <!-- VAL 26 -->
     <g transform="translate(1125.732173 1817.116346) scale(0.08 -0.08)">
      <defs>
       <path id="DejaVuSans-32" d="M 1228 531 
L 3431 531 
L 3431 0 
L 469 0 
L 469 531 
Q 828 903 1448 1529 
Q 2069 2156 2228 2338 
Q 2531 2678 2651 2914 
Q 2772 3150 2772 3378 
Q 2772 3750 2511 3984 
Q 2250 4219 1831 4219 
Q 1534 4219 1204 4116 
Q 875 4013 500 3803 
L 500 4441 
Q 881 4594 1212 4672 
Q 1544 4750 1819 4750 
Q 2544 4750 2975 4387 
Q 3406 4025 3406 3419 
Q 3406 3131 3298 2873 
Q 3191 2616 2906 2266 
Q 2828 2175 2409 1742 
Q 1991 1309 1228 531 
z
" transform="scale(0.015625)"/>
       <path id="DejaVuSans-36" d="M 2113 2584 
Q 1688 2584 1439 2293 
Q 1191 2003 1191 1497 
Q 1191 994 1439 701 
Q 1688 409 2113 409 
Q 2538 409 2786 701 
Q 3034 994 3034 1497 
Q 3034 2003 2786 2293 
Q 2538 2584 2113 2584 
z
M 3366 4563 
L 3366 3988 
Q 3128 4100 2886 4159 
Q 2644 4219 2406 4219 
Q 1781 4219 1451 3797 
Q 1122 3375 1075 2522 
Q 1259 2794 1537 2939 
Q 1816 3084 2150 3084 
Q 2853 3084 3261 2657 
Q 3669 2231 3669 1497 
Q 3669 778 3244 343 
Q 2819 -91 2113 -91 
Q 1303 -91 875 529 
Q 447 1150 447 2328 
Q 447 3434 972 4092 
Q 1497 4750 2381 4750 
Q 2619 4750 2861 4703 
Q 3103 4656 3366 4563 
z
" transform="scale(0.015625)"/>
      </defs>
      <use xlink:href="#DejaVuSans-56"/>
      <use xlink:href="#DejaVuSans-41" x="62.033203"/>
      <use xlink:href="#DejaVuSans-4c" x="130.441406"/>
      <use xlink:href="#DejaVuSans-20" x="186.154297"/>
      <use xlink:href="#DejaVuSans-32" x="217.941406"/>
      <use xlink:href="#DejaVuSans-36" x="281.564453"/>
     </g>
    </g>
   </g>
   <g id="text_9">
    <g clip-path="url(#pb10e7a1e1c)">
     <!-- ILE 23 -->
     <g transform="translate(1002.869862 2193.417981) scale(0.08 -0.08)">
      <use xlink:href="#DejaVuSans-49"/>
      <use xlink:href="#DejaVuSans-4c" x="29.492188"/>
      <use xlink:href="#DejaVuSans-45" x="85.205078"/>
      <use xlink:href="#DejaVuSans-20" x="148.388672"/>
      <use xlink:href="#DejaVuSans-32" x="180.175781"/>
      <use xlink:href="#DejaVuSans-33" x="243.798828"/>
     </g>
    </g>
   </g>
   <g id="text_10">
    <g clip-path="url(#pb10e7a1e1c)">
     <!-- LEU 56 -->
     <g transform="translate(1090.74841 2112.769384) scale(0.08 -0.08)">
      <use xlink:href="#DejaVuSans-4c"/>
      <use xlink:href="#DejaVuSans-45" x="55.712891"/>
      <use xlink:href="#DejaVuSans-55" x="118.896484"/>
      <use xlink:href="#DejaVuSans-20" x="192.089844"/>
      <use xlink:href="#DejaVuSans-35" x="223.876953"/>
      <use xlink:href="#DejaVuSans-36" x="287.5"/>
     </g>
    </g>
   </g>
   <g id="text_11">
    <g clip-path="url(#pb10e7a1e1c)">
     <!-- ILE 61 -->
     <g transform="translate(915.237641 2381.05951) scale(0.08 -0.08)">
      <use xlink:href="#DejaVuSans-49"/>
      <use xlink:href="#DejaVuSans-4c" x="29.492188"/>
      <use xlink:href="#DejaVuSans-45" x="85.205078"/>
      <use xlink:href="#DejaVuSans-20" x="148.388672"/>
      <use xlink:href="#DejaVuSans-36" x="180.175781"/>
      <use xlink:href="#DejaVuSans-31" x="243.798828"/>
     </g>
    </g>
   </g>
   <g id="text_12">
    <g clip-path="url(#pb10e7a1e1c)">
     <!-- LEU 50 -->
     <g transform="translate(1000.894109 2490.321833) scale(0.08 -0.08)">
      <use xlink:href="#DejaVuSans-4c"/>
      <use xlink:href="#DejaVuSans-45" x="55.712891"/>
      <use xlink:href="#DejaVuSans-55" x="118.896484"/>
      <use xlink:href="#DejaVuSans-20" x="192.089844"/>
      <use xlink:href="#DejaVuSans-35" x="223.876953"/>
      <use xlink:href="#DejaVuSans-30" x="287.5"/>
     </g>
    </g>
   </g>
   <g id="text_13">
    <g clip-path="url(#pb10e7a1e1c)">
     <!-- LEU 67 -->
     <g transform="translate(769.205678 2632.290145) scale(0.08 -0.08)">
      <use xlink:href="#DejaVuSans-4c"/>
      <use xlink:href="#DejaVuSans-45" x="55.712891"/>
      <use xlink:href="#DejaVuSans-55" x="118.896484"/>
      <use xlink:href="#DejaVuSans-20" x="192.089844"/>
      <use xlink:href="#DejaVuSans-36" x="223.876953"/>
      <use xlink:href="#DejaVuSans-37" x="287.5"/>
     </g>
    </g>
   </g>
   <g id="text_14">
    <g clip-path="url(#pb10e7a1e1c)">
     <!-- ILE 36 -->
     <g transform="translate(2599.381912 1087.221846) scale(0.08 -0.08)">
      <use xlink:href="#DejaVuSans-49"/>
      <use xlink:href="#DejaVuSans-4c" x="29.492188"/>
      <use xlink:href="#DejaVuSans-45" x="85.205078"/>
      <use xlink:href="#DejaVuSans-20" x="148.388672"/>
      <use xlink:href="#DejaVuSans-33" x="180.175781"/>
      <use xlink:href="#DejaVuSans-36" x="243.798828"/>
     </g>
    </g>
   </g>
   <g id="text_15">
    <g clip-path="url(#pb10e7a1e1c)">
     <!-- LEU 69 -->
     <g transform="translate(2537.177277 851.474272) scale(0.08 -0.08)">
      <defs>
       <path id="DejaVuSans-39" d="M 703 97 
L 703 672 
Q 941 559 1184 500 
Q 1428 441 1663 441 
Q 2288 441 2617 861 
Q 2947 1281 2994 2138 
Q 2813 1869 2534 1725 
Q 2256 1581 1919 1581 
Q 1219 1581 811 2004 
Q 403 2428 403 3163 
Q 403 3881 828 4315 
Q 1253 4750 1959 4750 
Q 2769 4750 3195 4129 
Q 3622 3509 3622 2328 
Q 3622 1225 3098 567 
Q 2575 -91 1691 -91 
Q 1453 -91 1209 -44 
Q 966 3 703 97 
z
M 1959 2075 
Q 2384 2075 2632 2365 
Q 2881 2656 2881 3163 
Q 2881 3666 2632 3958 
Q 2384 4250 1959 4250 
Q 1534 4250 1286 3958 
Q 1038 3666 1038 3163 
Q 1038 2656 1286 2365 
Q 1534 2075 1959 2075 
z
" transform="scale(0.015625)"/>
      </defs>
      <use xlink:href="#DejaVuSans-4c"/>
      <use xlink:href="#DejaVuSans-45" x="55.712891"/>
      <use xlink:href="#DejaVuSans-55" x="118.896484"/>
      <use xlink:href="#DejaVuSans-20" x="192.089844"/>
      <use xlink:href="#DejaVuSans-36" x="223.876953"/>
      <use xlink:href="#DejaVuSans-39" x="287.5"/>
     </g>
    </g>
   </g>
   <g id="text_16">
    <g clip-path="url(#pb10e7a1e1c)">
     <!-- LEU 71 -->
     <g transform="translate(2616.037645 978.497352) scale(0.08 -0.08)">
      <use xlink:href="#DejaVuSans-4c"/>
      <use xlink:href="#DejaVuSans-45" x="55.712891"/>
      <use xlink:href="#DejaVuSans-55" x="118.896484"/>
      <use xlink:href="#DejaVuSans-20" x="192.089844"/>
      <use xlink:href="#DejaVuSans-37" x="223.876953"/>
      <use xlink:href="#DejaVuSans-31" x="287.5"/>
     </g>
    </g>
   </g>
   <g id="text_17">
    <g clip-path="url(#pb10e7a1e1c)">
     <!-- VAL 70 -->
     <g transform="translate(236.109855 425.148581) scale(0.08 -0.08)">
      <use xlink:href="#DejaVuSans-56"/>
      <use xlink:href="#DejaVuSans-41" x="62.033203"/>
      <use xlink:href="#DejaVuSans-4c" x="130.441406"/>
      <use xlink:href="#DejaVuSans-20" x="186.154297"/>
      <use xlink:href="#DejaVuSans-37" x="217.941406"/>
      <use xlink:href="#DejaVuSans-30" x="281.564453"/>
     </g>
    </g>
   </g>
   <g id="text_18">
    <g clip-path="url(#pb10e7a1e1c)">
     <!-- ILE 44 -->
     <g transform="translate(289.399988 252.124855) scale(0.08 -0.08)">
      <use xlink:href="#DejaVuSans-49"/>
      <use xlink:href="#DejaVuSans-4c" x="29.492188"/>
      <use xlink:href="#DejaVuSans-45" x="85.205078"/>
      <use xlink:href="#DejaVuSans-20" x="148.388672"/>
      <use xlink:href="#DejaVuSans-34" x="180.175781"/>
      <use xlink:href="#DejaVuSans-34" x="243.798828"/>
     </g>
    </g>
   </g>
  </g>
  <g id="text_19">
   <!-- G_NMR -->
   <g transform="translate(1418.51625 66.50625) scale(0.12 -0.12)">
    <defs>
     <path id="DejaVuSans-47" d="M 3809 666 
L 3809 1919 
L 2778 1919 
L 2778 2438 
L 4434 2438 
L 4434 434 
Q 4069 175 3628 42 
Q 3188 -91 2688 -91 
Q 1594 -91 976 548 
Q 359 1188 359 2328 
Q 359 3472 976 4111 
Q 1594 4750 2688 4750 
Q 3144 4750 3555 4637 
Q 3966 4525 4313 4306 
L 4313 3634 
Q 3963 3931 3569 4081 
Q 3175 4231 2741 4231 
Q 1884 4231 1454 3753 
Q 1025 3275 1025 2328 
Q 1025 1384 1454 906 
Q 1884 428 2741 428 
Q 3075 428 3337 486 
Q 3600 544 3809 666 
z
" transform="scale(0.015625)"/>
     <path id="DejaVuSans-5f" d="M 3263 -1063 
L 3263 -1509 
L -63 -1509 
L -63 -1063 
L 3263 -1063 
z
" transform="scale(0.015625)"/>
     <path id="DejaVuSans-4e" d="M 628 4666 
L 1478 4666 
L 3547 763 
L 3547 4666 
L 4159 4666 
L 4159 0 
L 3309 0 
L 1241 3903 
L 1241 0 
L 628 0 
L 628 4666 
z
" transform="scale(0.015625)"/>
     <path id="DejaVuSans-4d" d="M 628 4666 
L 1569 4666 
L 2759 1491 
L 3956 4666 
L 4897 4666 
L 4897 0 
L 4281 0 
L 4281 4097 
L 3078 897 
L 2444 897 
L 1241 4097 
L 1241 0 
L 628 0 
L 628 4666 
z
" transform="scale(0.015625)"/>
     <path id="DejaVuSans-52" d="M 2841 2188 
Q 3044 2119 3236 1894 
Q 3428 1669 3622 1275 
L 4263 0 
L 3584 0 
L 2988 1197 
Q 2756 1666 2539 1819 
Q 2322 1972 1947 1972 
L 1259 1972 
L 1259 0 
L 628 0 
L 628 4666 
L 2053 4666 
Q 2853 4666 3247 4331 
Q 3641 3997 3641 3322 
Q 3641 2881 3436 2590 
Q 3231 2300 2841 2188 
z
M 1259 4147 
L 1259 2491 
L 2053 2491 
Q 2509 2491 2742 2702 
Q 2975 2913 2975 3322 
Q 2975 3731 2742 3939 
Q 2509 4147 2053 4147 
L 1259 4147 
z
" transform="scale(0.015625)"/>
    </defs>
    <use xlink:href="#DejaVuSans-47"/>
    <use xlink:href="#DejaVuSans-5f" x="77.490234"/>
    <use xlink:href="#DejaVuSans-4e" x="127.490234"/>
    <use xlink:href="#DejaVuSans-4d" x="202.294922"/>
    <use xlink:href="#DejaVuSans-52" x="288.574219"/>
   </g>
  </g>
 </g>
 <defs>
  <clipPath id="pb10e7a1e1c">
   <rect x="0" y="0" width="2880" height="2880"/>
  </clipPath>
 </defs>
</svg>
