<?xml version="1.0" encoding="utf-8" standalone="no"?>
<!DOCTYPE svg PUBLIC "-//W3C//DTD SVG 1.1//EN"
  "http://www.w3.org/Graphics/SVG/1.1/DTD/svg11.dtd">
<svg xmlns:xlink="http://www.w3.org/1999/xlink" width="2880pt" height="2880pt" viewBox="0 0 2880 2880" xmlns="http://www.w3.org/2000/svg" version="1.1">
 <metadata>
  <rdf:RDF xmlns:dc="http://purl.org/dc/elements/1.1/" xmlns:cc="http://creativecommons.org/ns#" xmlns:rdf="http://www.w3.org/1999/02/22-rdf-syntax-ns#">
   <cc:Work>
    <dc:type rdf:resource="http://purl.org/dc/dcmitype/StillImage"/>
    <dc:date>2024-04-11T22:04:55.606172</dc:date>
    <dc:format>image/svg+xml</dc:format>
    <dc:creator>
     <cc:Agent>
      <dc:title>Matplotlib v3.8.2, https://matplotlib.org/</dc:title>
     </cc:Agent>
    </dc:creator>
   </cc:Work>
  </rdf:RDF>
 </metadata>
 <defs>
  <style type="text/css">*{stroke-linejoin: round; stroke-linecap: butt}</style>
 </defs>
 <g id="figure_1">
  <g id="patch_1">
   <path d="M 0 2880 
L 2880 2880 
L 2880 0 
L 0 0 
z
" style="fill: #ffffff"/>
  </g>
  <g id="axes_1">
   <g id="patch_2">
    <path d="M 493.650948 635.120905 
Q 639.264107 606.705456 784.657798 578.332835 
" clip-path="url(#p63a5b1a934)" style="fill: none; stroke: #000000; stroke-width: 0.2; stroke-linecap: round"/>
    <path d="M 780.34879 577.135984 
L 784.657798 578.332835 
L 781.114913 581.061931 
z
" clip-path="url(#p63a5b1a934)" style="stroke: #000000; stroke-width: 0.2; stroke-linecap: round"/>
   </g>
   <g id="patch_3">
    <path d="M 469.599586 628.004167 
Q 364.845259 526.854636 260.25179 425.860427 
" clip-path="url(#p63a5b1a934)" style="fill: none; stroke: #000000; stroke-width: 0.2; stroke-linecap: round"/>
    <path d="M 261.740052 430.077663 
L 260.25179 425.860427 
L 264.518536 427.200159 
z
" clip-path="url(#p63a5b1a934)" style="stroke: #000000; stroke-width: 0.2; stroke-linecap: round"/>
   </g>
   <g id="patch_4">
    <path d="M 491.583302 630.042494 
Q 561.739527 583.784281 631.709072 537.649158 
" clip-path="url(#p63a5b1a934)" style="fill: none; stroke: #000000; stroke-width: 0.2; stroke-linecap: round"/>
    <path d="M 627.268712 538.181328 
L 631.709072 537.649158 
L 629.470592 541.520748 
z
" clip-path="url(#p63a5b1a934)" style="stroke: #000000; stroke-width: 0.2; stroke-linecap: round"/>
   </g>
   <g id="patch_5">
    <path d="M 493.281471 642.017141 
Q 589.029736 671.70702 684.564427 701.330674 
" clip-path="url(#p63a5b1a934)" style="fill: none; stroke: #000000; stroke-width: 0.2; stroke-linecap: round"/>
    <path d="M 681.336228 698.23572 
L 684.564427 701.330674 
L 680.151545 702.05626 
z
" clip-path="url(#p63a5b1a934)" style="stroke: #000000; stroke-width: 0.2; stroke-linecap: round"/>
   </g>
   <g id="patch_6">
    <path d="M 492.026102 644.893344 
Q 622.569148 720.166322 752.918483 795.327604 
" clip-path="url(#p63a5b1a934)" style="fill: none; stroke: #000000; stroke-width: 0.2; stroke-linecap: round"/>
    <path d="M 750.452321 791.596914 
L 752.918483 795.327604 
L 748.454235 795.06212 
z
" clip-path="url(#p63a5b1a934)" style="stroke: #000000; stroke-width: 0.2; stroke-linecap: round"/>
   </g>
   <g id="patch_7">
    <path d="M 784.878813 578.289705 
Q 639.265655 606.705154 493.871964 635.077775 
" clip-path="url(#p63a5b1a934)" style="fill: none; stroke: #000000; stroke-width: 0.2; stroke-linecap: round"/>
    <path d="M 498.180972 636.274626 
L 493.871964 635.077775 
L 497.414849 632.348679 
z
" clip-path="url(#p63a5b1a934)" style="stroke: #000000; stroke-width: 0.2; stroke-linecap: round"/>
   </g>
   <g id="patch_8">
    <path d="M 785.189293 571.57095 
Q 721.227529 552.66056 657.480195 533.813567 
" clip-path="url(#p63a5b1a934)" style="fill: none; stroke: #000000; stroke-width: 0.2; stroke-linecap: round"/>
    <path d="M 660.749021 536.865579 
L 657.480195 533.813567 
L 661.8831 533.029713 
z
" clip-path="url(#p63a5b1a934)" style="stroke: #000000; stroke-width: 0.2; stroke-linecap: round"/>
   </g>
   <g id="patch_9">
    <path d="M 810.683513 567.980412 
Q 893.371816 515.28611 975.871547 462.711978 
" clip-path="url(#p63a5b1a934)" style="fill: none; stroke: #000000; stroke-width: 0.2; stroke-linecap: round"/>
    <path d="M 971.423446 463.175007 
L 975.871547 462.711978 
L 973.57311 466.548276 
z
" clip-path="url(#p63a5b1a934)" style="stroke: #000000; stroke-width: 0.2; stroke-linecap: round"/>
   </g>
   <g id="patch_10">
    <path d="M 812.719285 577.818183 
Q 926.31801 596.011672 1039.695943 614.169799 
" clip-path="url(#p63a5b1a934)" style="fill: none; stroke: #000000; stroke-width: 0.2; stroke-linecap: round"/>
    <path d="M 1036.062557 611.562404 
L 1039.695943 614.169799 
L 1035.429995 615.512071 
z
" clip-path="url(#p63a5b1a934)" style="stroke: #000000; stroke-width: 0.2; stroke-linecap: round"/>
   </g>
   <g id="patch_11">
    <path d="M 263.500023 419.808896 
Q 446.809743 472.810846 629.904655 525.750686 
" clip-path="url(#p63a5b1a934)" style="fill: none; stroke: #000000; stroke-width: 0.2; stroke-linecap: round"/>
    <path d="M 626.617576 522.71834 
L 629.904655 525.750686 
L 625.506532 526.560941 
z
" clip-path="url(#p63a5b1a934)" style="stroke: #000000; stroke-width: 0.2; stroke-linecap: round"/>
   </g>
   <g id="patch_12">
    <path d="M 657.269636 533.751315 
Q 721.231401 552.661705 784.978734 571.508698 
" clip-path="url(#p63a5b1a934)" style="fill: none; stroke: #000000; stroke-width: 0.2; stroke-linecap: round"/>
    <path d="M 781.709908 568.456686 
L 784.978734 571.508698 
L 780.575829 572.292551 
z
" clip-path="url(#p63a5b1a934)" style="stroke: #000000; stroke-width: 0.2; stroke-linecap: round"/>
   </g>
   <g id="patch_13">
    <path d="M 631.894623 537.526813 
Q 561.738399 583.785025 491.768854 629.920149 
" clip-path="url(#p63a5b1a934)" style="fill: none; stroke: #000000; stroke-width: 0.2; stroke-linecap: round"/>
    <path d="M 496.209213 629.387978 
L 491.768854 629.920149 
L 494.007333 626.048559 
z
" clip-path="url(#p63a5b1a934)" style="stroke: #000000; stroke-width: 0.2; stroke-linecap: round"/>
   </g>
   <g id="patch_14">
    <path d="M 630.120879 525.813205 
Q 446.81116 472.811255 263.716248 419.871415 
" clip-path="url(#p63a5b1a934)" style="fill: none; stroke: #000000; stroke-width: 0.2; stroke-linecap: round"/>
    <path d="M 267.003326 422.90376 
L 263.716248 419.871415 
L 268.114371 419.06116 
z
" clip-path="url(#p63a5b1a934)" style="stroke: #000000; stroke-width: 0.2; stroke-linecap: round"/>
   </g>
   <g id="patch_15">
    <path d="M 657.52254 526.740139 
Q 815.846014 492.365383 973.950973 458.03807 
" clip-path="url(#p63a5b1a934)" style="fill: none; stroke: #000000; stroke-width: 0.2; stroke-linecap: round"/>
    <path d="M 969.617698 456.932302 
L 973.950973 458.03807 
L 970.466393 460.84123 
z
" clip-path="url(#p63a5b1a934)" style="stroke: #000000; stroke-width: 0.2; stroke-linecap: round"/>
   </g>
   <g id="patch_16">
    <path d="M 657.538675 532.664875 
Q 848.793141 573.091213 1039.828834 613.471308 
" clip-path="url(#p63a5b1a934)" style="fill: none; stroke: #000000; stroke-width: 0.2; stroke-linecap: round"/>
    <path d="M 1036.328916 610.687323 
L 1039.828834 613.471308 
L 1035.501695 614.600852 
z
" clip-path="url(#p63a5b1a934)" style="stroke: #000000; stroke-width: 0.2; stroke-linecap: round"/>
   </g>
   <g id="patch_17">
    <path d="M 647.895536 543.244996 
Q 670.995525 617.661738 694.029223 691.864926 
" clip-path="url(#p63a5b1a934)" style="fill: none; stroke: #000000; stroke-width: 0.2; stroke-linecap: round"/>
    <path d="M 694.753477 687.451825 
L 694.029223 691.864926 
L 690.933295 688.637663 
z
" clip-path="url(#p63a5b1a934)" style="stroke: #000000; stroke-width: 0.2; stroke-linecap: round"/>
   </g>
   <g id="patch_18">
    <path d="M 684.781429 701.397963 
Q 589.033164 671.708083 493.498474 642.08443 
" clip-path="url(#p63a5b1a934)" style="fill: none; stroke: #000000; stroke-width: 0.2; stroke-linecap: round"/>
    <path d="M 496.726672 645.179383 
L 493.498474 642.08443 
L 497.911355 641.358844 
z
" clip-path="url(#p63a5b1a934)" style="stroke: #000000; stroke-width: 0.2; stroke-linecap: round"/>
   </g>
   <g id="patch_19">
    <path d="M 694.096533 692.081763 
Q 670.996544 617.66502 647.962845 543.461833 
" clip-path="url(#p63a5b1a934)" style="fill: none; stroke: #000000; stroke-width: 0.2; stroke-linecap: round"/>
    <path d="M 647.238591 547.874933 
L 647.962845 543.461833 
L 651.058773 546.689096 
z
" clip-path="url(#p63a5b1a934)" style="stroke: #000000; stroke-width: 0.2; stroke-linecap: round"/>
   </g>
   <g id="patch_20">
    <path d="M 712.007966 702.146917 
Q 876.086362 661.013702 1039.947864 619.93486 
" clip-path="url(#p63a5b1a934)" style="fill: none; stroke: #000000; stroke-width: 0.2; stroke-linecap: round"/>
    <path d="M 1035.581591 618.967563 
L 1039.947864 619.93486 
L 1036.554262 622.8475 
z
" clip-path="url(#p63a5b1a934)" style="stroke: #000000; stroke-width: 0.2; stroke-linecap: round"/>
   </g>
   <g id="patch_21">
    <path d="M 706.334934 717.212802 
Q 731.825014 754.044248 757.187844 790.691827 
" clip-path="url(#p63a5b1a934)" style="fill: none; stroke: #000000; stroke-width: 0.2; stroke-linecap: round"/>
    <path d="M 756.556088 786.264538 
L 757.187844 790.691827 
L 753.26696 788.540858 
z
" clip-path="url(#p63a5b1a934)" style="stroke: #000000; stroke-width: 0.2; stroke-linecap: round"/>
   </g>
   <g id="patch_22">
    <path d="M 753.110026 795.43805 
Q 622.56698 720.165072 492.217644 645.00379 
" clip-path="url(#p63a5b1a934)" style="fill: none; stroke: #000000; stroke-width: 0.2; stroke-linecap: round"/>
    <path d="M 494.683806 648.734479 
L 492.217644 645.00379 
L 496.681893 645.269274 
z
" clip-path="url(#p63a5b1a934)" style="stroke: #000000; stroke-width: 0.2; stroke-linecap: round"/>
   </g>
   <g id="patch_23">
    <path d="M 777.246206 794.838517 
Q 909.621694 709.472191 1041.809263 624.22705 
" clip-path="url(#p63a5b1a934)" style="fill: none; stroke: #000000; stroke-width: 0.2; stroke-linecap: round"/>
    <path d="M 1037.363726 624.714082 
L 1041.809263 624.22705 
L 1039.531566 628.075699 
z
" clip-path="url(#p63a5b1a934)" style="stroke: #000000; stroke-width: 0.2; stroke-linecap: round"/>
   </g>
   <g id="patch_24">
    <path d="M 757.315336 790.876044 
Q 731.825256 754.044598 706.462426 717.397019 
" clip-path="url(#p63a5b1a934)" style="fill: none; stroke: #000000; stroke-width: 0.2; stroke-linecap: round"/>
    <path d="M 707.094182 721.824308 
L 706.462426 717.397019 
L 710.38331 719.547988 
z
" clip-path="url(#p63a5b1a934)" style="stroke: #000000; stroke-width: 0.2; stroke-linecap: round"/>
   </g>
   <g id="patch_25">
    <path d="M 976.060358 462.591655 
Q 893.372055 515.285958 810.872324 567.86009 
" clip-path="url(#p63a5b1a934)" style="fill: none; stroke: #000000; stroke-width: 0.2; stroke-linecap: round"/>
    <path d="M 815.320425 567.397061 
L 810.872324 567.86009 
L 813.170761 564.023792 
z
" clip-path="url(#p63a5b1a934)" style="stroke: #000000; stroke-width: 0.2; stroke-linecap: round"/>
   </g>
   <g id="patch_26">
    <path d="M 974.169495 457.990626 
Q 815.84602 492.365382 657.741062 526.692694 
" clip-path="url(#p63a5b1a934)" style="fill: none; stroke: #000000; stroke-width: 0.2; stroke-linecap: round"/>
    <path d="M 662.074337 527.798462 
L 657.741062 526.692694 
L 661.225642 523.889535 
z
" clip-path="url(#p63a5b1a934)" style="stroke: #000000; stroke-width: 0.2; stroke-linecap: round"/>
   </g>
   <g id="patch_27">
    <path d="M 1002.058101 456.426238 
Q 1183.218187 474.915561 1364.155822 493.382181 
" clip-path="url(#p63a5b1a934)" style="fill: none; stroke: #000000; stroke-width: 0.2; stroke-linecap: round"/>
    <path d="M 1360.37956 490.986383 
L 1364.155822 493.382181 
L 1359.973427 494.965712 
z
" clip-path="url(#p63a5b1a934)" style="stroke: #000000; stroke-width: 0.2; stroke-linecap: round"/>
   </g>
   <g id="patch_28">
    <path d="M 1039.917854 614.205339 
Q 926.319128 596.011851 812.941196 577.853724 
" clip-path="url(#p63a5b1a934)" style="fill: none; stroke: #000000; stroke-width: 0.2; stroke-linecap: round"/>
    <path d="M 816.574582 580.461119 
L 812.941196 577.853724 
L 817.207144 576.511452 
z
" clip-path="url(#p63a5b1a934)" style="stroke: #000000; stroke-width: 0.2; stroke-linecap: round"/>
   </g>
   <g id="patch_29">
    <path d="M 1040.046628 613.517344 
Q 848.792162 573.091006 657.756469 532.710911 
" clip-path="url(#p63a5b1a934)" style="fill: none; stroke: #000000; stroke-width: 0.2; stroke-linecap: round"/>
    <path d="M 661.256387 535.494896 
L 657.756469 532.710911 
L 662.083608 531.581368 
z
" clip-path="url(#p63a5b1a934)" style="stroke: #000000; stroke-width: 0.2; stroke-linecap: round"/>
   </g>
   <g id="patch_30">
    <path d="M 1066.950346 611.031619 
Q 1283.314438 521.461466 1499.471928 431.976841 
" clip-path="url(#p63a5b1a934)" style="fill: none; stroke: #000000; stroke-width: 0.2; stroke-linecap: round"/>
    <path d="M 1495.011106 431.658922 
L 1499.471928 431.976841 
L 1496.5411 435.354747 
z
" clip-path="url(#p63a5b1a934)" style="stroke: #000000; stroke-width: 0.2; stroke-linecap: round"/>
   </g>
   <g id="patch_31">
    <path d="M 1040.162312 619.8811 
Q 876.083915 661.014315 712.222414 702.093156 
" clip-path="url(#p63a5b1a934)" style="fill: none; stroke: #000000; stroke-width: 0.2; stroke-linecap: round"/>
    <path d="M 716.588686 703.060454 
L 712.222414 702.093156 
L 715.616015 699.180517 
z
" clip-path="url(#p63a5b1a934)" style="stroke: #000000; stroke-width: 0.2; stroke-linecap: round"/>
   </g>
   <g id="patch_32">
    <path d="M 1041.997299 624.105789 
Q 909.621811 709.472116 777.434242 794.717256 
" clip-path="url(#p63a5b1a934)" style="fill: none; stroke: #000000; stroke-width: 0.2; stroke-linecap: round"/>
    <path d="M 781.879779 794.230225 
L 777.434242 794.717256 
L 779.711939 790.868608 
z
" clip-path="url(#p63a5b1a934)" style="stroke: #000000; stroke-width: 0.2; stroke-linecap: round"/>
   </g>
   <g id="patch_33">
    <path d="M 1067.127116 611.479244 
Q 1216.165908 555.640506 1364.995307 499.880219 
" clip-path="url(#p63a5b1a934)" style="fill: none; stroke: #000000; stroke-width: 0.2; stroke-linecap: round"/>
    <path d="M 1360.547883 499.410725 
L 1364.995307 499.880219 
L 1361.951257 503.156461 
z
" clip-path="url(#p63a5b1a934)" style="stroke: #000000; stroke-width: 0.2; stroke-linecap: round"/>
   </g>
   <g id="patch_34">
    <path d="M 1499.673652 431.893332 
Q 1283.309559 521.463485 1067.15207 610.94811 
" clip-path="url(#p63a5b1a934)" style="fill: none; stroke: #000000; stroke-width: 0.2; stroke-linecap: round"/>
    <path d="M 1071.612891 611.266029 
L 1067.15207 610.94811 
L 1070.082898 607.570204 
z
" clip-path="url(#p63a5b1a934)" style="stroke: #000000; stroke-width: 0.2; stroke-linecap: round"/>
   </g>
   <g id="patch_35">
    <path d="M 1524.059723 418.010013 
Q 1630.657452 338.202165 1737.076183 258.528331 
" clip-path="url(#p63a5b1a934)" style="fill: none; stroke: #000000; stroke-width: 0.2; stroke-linecap: round"/>
    <path d="M 1732.675509 259.324618 
L 1737.076183 258.528331 
L 1735.072808 262.526642 
z
" clip-path="url(#p63a5b1a934)" style="stroke: #000000; stroke-width: 0.2; stroke-linecap: round"/>
   </g>
   <g id="patch_36">
    <path d="M 1500.139703 432.897983 
Q 1445.593448 460.662367 1391.24647 488.325318 
" clip-path="url(#p63a5b1a934)" style="fill: none; stroke: #000000; stroke-width: 0.2; stroke-linecap: round"/>
    <path d="M 1395.71849 488.293212 
L 1391.24647 488.325318 
L 1393.903998 484.728438 
z
" clip-path="url(#p63a5b1a934)" style="stroke: #000000; stroke-width: 0.2; stroke-linecap: round"/>
   </g>
   <g id="patch_37">
    <path d="M 1526.759175 424.57519 
Q 1663.385744 405.977217 1799.79075 387.409404 
" clip-path="url(#p63a5b1a934)" style="fill: none; stroke: #000000; stroke-width: 0.2; stroke-linecap: round"/>
    <path d="M 1795.557544 385.967195 
L 1799.79075 387.409404 
L 1796.097059 389.930644 
z
" clip-path="url(#p63a5b1a934)" style="stroke: #000000; stroke-width: 0.2; stroke-linecap: round"/>
   </g>
   <g id="patch_38">
    <path d="M 1364.376698 493.404724 
Q 1183.216612 474.915401 1002.278977 456.448781 
" clip-path="url(#p63a5b1a934)" style="fill: none; stroke: #000000; stroke-width: 0.2; stroke-linecap: round"/>
    <path d="M 1006.055239 458.844578 
L 1002.278977 456.448781 
L 1006.461372 454.86525 
z
" clip-path="url(#p63a5b1a934)" style="stroke: #000000; stroke-width: 0.2; stroke-linecap: round"/>
   </g>
   <g id="patch_39">
    <path d="M 1391.04885 488.425907 
Q 1445.595105 460.661523 1499.942083 432.998573 
" clip-path="url(#p63a5b1a934)" style="fill: none; stroke: #000000; stroke-width: 0.2; stroke-linecap: round"/>
    <path d="M 1495.470062 433.030678 
L 1499.942083 432.998573 
L 1497.284555 436.595452 
z
" clip-path="url(#p63a5b1a934)" style="stroke: #000000; stroke-width: 0.2; stroke-linecap: round"/>
   </g>
   <g id="patch_40">
    <path d="M 1365.200952 499.803172 
Q 1216.16216 555.64191 1067.332761 611.402198 
" clip-path="url(#p63a5b1a934)" style="fill: none; stroke: #000000; stroke-width: 0.2; stroke-linecap: round"/>
    <path d="M 1071.780184 611.871692 
L 1067.332761 611.402198 
L 1070.37681 608.125955 
z
" clip-path="url(#p63a5b1a934)" style="stroke: #000000; stroke-width: 0.2; stroke-linecap: round"/>
   </g>
   <g id="patch_41">
    <path d="M 1392.161192 491.39703 
Q 1596.236357 440.156112 1800.094647 388.969649 
" clip-path="url(#p63a5b1a934)" style="fill: none; stroke: #000000; stroke-width: 0.2; stroke-linecap: round"/>
    <path d="M 1795.728014 388.003979 
L 1800.094647 388.969649 
L 1796.702131 391.883553 
z
" clip-path="url(#p63a5b1a934)" style="stroke: #000000; stroke-width: 0.2; stroke-linecap: round"/>
   </g>
   <g id="patch_42">
    <path d="M 1800.008923 387.379706 
Q 1663.382354 405.977679 1526.977348 424.545492 
" clip-path="url(#p63a5b1a934)" style="fill: none; stroke: #000000; stroke-width: 0.2; stroke-linecap: round"/>
    <path d="M 1531.210554 425.987701 
L 1526.977348 424.545492 
L 1530.671039 422.024252 
z
" clip-path="url(#p63a5b1a934)" style="stroke: #000000; stroke-width: 0.2; stroke-linecap: round"/>
   </g>
   <g id="patch_43">
    <path d="M 1807.87611 372.734508 
Q 1781.30058 317.692049 1754.822273 262.850955 
" clip-path="url(#p63a5b1a934)" style="fill: none; stroke: #000000; stroke-width: 0.2; stroke-linecap: round"/>
    <path d="M 1754.760384 267.322662 
L 1754.822273 262.850955 
L 1758.362506 265.583491 
z
" clip-path="url(#p63a5b1a934)" style="stroke: #000000; stroke-width: 0.2; stroke-linecap: round"/>
   </g>
   <g id="patch_44">
    <path d="M 1800.310977 388.915332 
Q 1596.235812 440.156249 1392.377521 491.342712 
" clip-path="url(#p63a5b1a934)" style="fill: none; stroke: #000000; stroke-width: 0.2; stroke-linecap: round"/>
    <path d="M 1396.744154 492.308383 
L 1392.377521 491.342712 
L 1395.770038 488.428808 
z
" clip-path="url(#p63a5b1a934)" style="stroke: #000000; stroke-width: 0.2; stroke-linecap: round"/>
   </g>
   <g id="patch_45">
    <path d="M 1827.903598 382.749145 
Q 2010.671497 346.893699 2193.219972 311.081299 
" clip-path="url(#p63a5b1a934)" style="fill: none; stroke: #000000; stroke-width: 0.2; stroke-linecap: round"/>
    <path d="M 2188.909771 309.888752 
L 2193.219972 311.081299 
L 2189.679814 313.813931 
z
" clip-path="url(#p63a5b1a934)" style="stroke: #000000; stroke-width: 0.2; stroke-linecap: round"/>
   </g>
   <g id="patch_46">
    <path d="M 1737.260207 258.390555 
Q 1630.662478 338.198402 1524.243748 417.872237 
" clip-path="url(#p63a5b1a934)" style="fill: none; stroke: #000000; stroke-width: 0.2; stroke-linecap: round"/>
    <path d="M 1528.644421 417.075949 
L 1524.243748 417.872237 
L 1526.247122 413.873925 
z
" clip-path="url(#p63a5b1a934)" style="stroke: #000000; stroke-width: 0.2; stroke-linecap: round"/>
   </g>
   <g id="patch_47">
    <path d="M 1754.727436 262.654531 
Q 1781.302966 317.69699 1807.781273 372.538084 
" clip-path="url(#p63a5b1a934)" style="fill: none; stroke: #000000; stroke-width: 0.2; stroke-linecap: round"/>
    <path d="M 1807.843162 368.066376 
L 1807.781273 372.538084 
L 1804.24104 369.805548 
z
" clip-path="url(#p63a5b1a934)" style="stroke: #000000; stroke-width: 0.2; stroke-linecap: round"/>
   </g>
   <g id="patch_48">
    <path d="M 2193.441809 311.037779 
Q 2010.673909 346.893226 1828.125435 382.705625 
" clip-path="url(#p63a5b1a934)" style="fill: none; stroke: #000000; stroke-width: 0.2; stroke-linecap: round"/>
    <path d="M 1832.435635 383.898172 
L 1828.125435 382.705625 
L 1831.665593 379.972993 
z
" clip-path="url(#p63a5b1a934)" style="stroke: #000000; stroke-width: 0.2; stroke-linecap: round"/>
   </g>
   <g id="patch_49">
    <path d="M 2414.00092 2344.3396 
Q 2304.898188 2261.753076 2195.973744 2179.301508 
" clip-path="url(#p63a5b1a934)" style="fill: none; stroke: #000000; stroke-width: 0.2; stroke-linecap: round"/>
    <path d="M 2197.955963 2183.310349 
L 2195.973744 2179.301508 
L 2200.370148 2180.121037 
z
" clip-path="url(#p63a5b1a934)" style="stroke: #000000; stroke-width: 0.2; stroke-linecap: round"/>
   </g>
   <g id="patch_50">
    <path d="M 2436.541489 2361.424307 
Q 2527.678831 2430.59271 2618.638055 2499.625932 
" clip-path="url(#p63a5b1a934)" style="fill: none; stroke: #000000; stroke-width: 0.2; stroke-linecap: round"/>
    <path d="M 2616.660893 2495.614594 
L 2618.638055 2499.625932 
L 2614.242688 2498.800858 
z
" clip-path="url(#p63a5b1a934)" style="stroke: #000000; stroke-width: 0.2; stroke-linecap: round"/>
   </g>
   <g id="patch_51">
    <path d="M 2195.791183 2179.163316 
Q 2304.893915 2261.749841 2413.81836 2344.201409 
" clip-path="url(#p63a5b1a934)" style="fill: none; stroke: #000000; stroke-width: 0.2; stroke-linecap: round"/>
    <path d="M 2411.83614 2340.192568 
L 2413.81836 2344.201409 
L 2409.421955 2343.38188 
z
" clip-path="url(#p63a5b1a934)" style="stroke: #000000; stroke-width: 0.2; stroke-linecap: round"/>
   </g>
   <g id="patch_52">
    <path d="M 2618.816625 2499.761457 
Q 2527.679283 2430.593053 2436.720059 2361.559832 
" clip-path="url(#p63a5b1a934)" style="fill: none; stroke: #000000; stroke-width: 0.2; stroke-linecap: round"/>
    <path d="M 2438.697221 2365.57117 
L 2436.720059 2361.559832 
L 2441.115427 2362.384905 
z
" clip-path="url(#p63a5b1a934)" style="stroke: #000000; stroke-width: 0.2; stroke-linecap: round"/>
   </g>
   <g id="patch_53">
    <path d="M 580.891336 2619.251719 
Q 642.296363 2546.121229 703.557603 2473.161985 
" clip-path="url(#p63a5b1a934)" style="fill: none; stroke: #000000; stroke-width: 0.2; stroke-linecap: round"/>
    <path d="M 699.453775 2474.939229 
L 703.557603 2473.161985 
L 702.517102 2477.511393 
z
" clip-path="url(#p63a5b1a934)" style="stroke: #000000; stroke-width: 0.2; stroke-linecap: round"/>
   </g>
   <g id="patch_54">
    <path d="M 703.70253 2472.989383 
Q 642.297503 2546.119873 581.036263 2619.079117 
" clip-path="url(#p63a5b1a934)" style="fill: none; stroke: #000000; stroke-width: 0.2; stroke-linecap: round"/>
    <path d="M 585.140091 2617.301873 
L 581.036263 2619.079117 
L 582.076764 2614.729708 
z
" clip-path="url(#p63a5b1a934)" style="stroke: #000000; stroke-width: 0.2; stroke-linecap: round"/>
   </g>
   <g id="PathCollection_1">
    <defs>
     <path id="C0_0_ef4ee5eca7" d="M 0 14.142136 
C 3.750538 14.142136 7.347969 12.652031 10 10 
C 12.652031 7.347969 14.142136 3.750538 14.142136 -0 
C 14.142136 -3.750538 12.652031 -7.347969 10 -10 
C 7.347969 -12.652031 3.750538 -14.142136 0 -14.142136 
C -3.750538 -14.142136 -7.347969 -12.652031 -10 -10 
C -12.652031 -7.347969 -14.142136 -3.750538 -14.142136 0 
C -14.142136 3.750538 -12.652031 7.347969 -10 10 
C -7.347969 12.652031 -3.750538 14.142136 0 14.142136 
z
"/>
    </defs>
    <g clip-path="url(#p63a5b1a934)">
     <use xlink:href="#C0_0_ef4ee5eca7" x="479.774379" y="637.828826" style="fill: #0000ff; stroke: #0000ff"/>
    </g>
    <g clip-path="url(#p63a5b1a934)">
     <use xlink:href="#C0_0_ef4ee5eca7" x="798.755383" y="575.581784" style="fill: #ffa500; stroke: #ffa500"/>
    </g>
    <g clip-path="url(#p63a5b1a934)">
     <use xlink:href="#C0_0_ef4ee5eca7" x="249.917355" y="415.88162" style="fill: #ffa500; stroke: #ffa500"/>
    </g>
    <g clip-path="url(#p63a5b1a934)">
     <use xlink:href="#C0_0_ef4ee5eca7" x="643.703547" y="529.740481" style="fill: #ffff00; stroke: #ffff00"/>
    </g>
    <g clip-path="url(#p63a5b1a934)">
     <use xlink:href="#C0_0_ef4ee5eca7" x="698.288521" y="705.586278" style="fill: #ffa500; stroke: #ffa500"/>
    </g>
    <g clip-path="url(#p63a5b1a934)">
     <use xlink:href="#C0_0_ef4ee5eca7" x="765.361749" y="802.502568" style="fill: #ffff00; stroke: #ffff00"/>
    </g>
    <g clip-path="url(#p63a5b1a934)">
     <use xlink:href="#C0_0_ef4ee5eca7" x="987.988488" y="454.990284" style="fill: #0000ff; stroke: #0000ff"/>
    </g>
    <g clip-path="url(#p63a5b1a934)">
     <use xlink:href="#C0_0_ef4ee5eca7" x="1053.881756" y="616.441739" style="fill: #0000ff; stroke: #0000ff"/>
    </g>
    <g clip-path="url(#p63a5b1a934)">
     <use xlink:href="#C0_0_ef4ee5eca7" x="1512.742241" y="426.483212" style="fill: #ffa500; stroke: #ffa500"/>
    </g>
    <g clip-path="url(#p63a5b1a934)">
     <use xlink:href="#C0_0_ef4ee5eca7" x="1378.446311" y="494.840678" style="fill: #ffff00; stroke: #ffff00"/>
    </g>
    <g clip-path="url(#p63a5b1a934)">
     <use xlink:href="#C0_0_ef4ee5eca7" x="1814.025857" y="385.471683" style="fill: #ffa500; stroke: #ffa500"/>
    </g>
    <g clip-path="url(#p63a5b1a934)">
     <use xlink:href="#C0_0_ef4ee5eca7" x="1748.577689" y="249.917355" style="fill: #ffff00; stroke: #ffff00"/>
    </g>
    <g clip-path="url(#p63a5b1a934)">
     <use xlink:href="#C0_0_ef4ee5eca7" x="2207.31955" y="308.315241" style="fill: #ffff00; stroke: #ffff00"/>
    </g>
    <g clip-path="url(#p63a5b1a934)">
     <use xlink:href="#C0_0_ef4ee5eca7" x="2425.27547" y="2352.873996" style="fill: #ffa500; stroke: #ffa500"/>
    </g>
    <g clip-path="url(#p63a5b1a934)">
     <use xlink:href="#C0_0_ef4ee5eca7" x="2184.516634" y="2170.628921" style="fill: #ffff00; stroke: #ffff00"/>
    </g>
    <g clip-path="url(#p63a5b1a934)">
     <use xlink:href="#C0_0_ef4ee5eca7" x="2630.082645" y="2508.311767" style="fill: #ffff00; stroke: #ffff00"/>
    </g>
    <g clip-path="url(#p63a5b1a934)">
     <use xlink:href="#C0_0_ef4ee5eca7" x="571.796999" y="2630.082645" style="fill: #0000ff; stroke: #0000ff"/>
    </g>
    <g clip-path="url(#p63a5b1a934)">
     <use xlink:href="#C0_0_ef4ee5eca7" x="712.796867" y="2462.158457" style="fill: #ffa500; stroke: #ffa500"/>
    </g>
   </g>
   <g id="text_1">
    <g clip-path="url(#p63a5b1a934)">
     <!-- VAL 5 -->
     <g transform="translate(468.511879 640.036326) scale(0.08 -0.08)">
      <defs>
       <path id="DejaVuSans-56" d="M 1831 0 
L 50 4666 
L 709 4666 
L 2188 738 
L 3669 4666 
L 4325 4666 
L 2547 0 
L 1831 0 
z
" transform="scale(0.015625)"/>
       <path id="DejaVuSans-41" d="M 2188 4044 
L 1331 1722 
L 3047 1722 
L 2188 4044 
z
M 1831 4666 
L 2547 4666 
L 4325 0 
L 3669 0 
L 3244 1197 
L 1141 1197 
L 716 0 
L 50 0 
L 1831 4666 
z
" transform="scale(0.015625)"/>
       <path id="DejaVuSans-4c" d="M 628 4666 
L 1259 4666 
L 1259 531 
L 3531 531 
L 3531 0 
L 628 0 
L 628 4666 
z
" transform="scale(0.015625)"/>
       <path id="DejaVuSans-20" transform="scale(0.015625)"/>
       <path id="DejaVuSans-35" d="M 691 4666 
L 3169 4666 
L 3169 4134 
L 1269 4134 
L 1269 2991 
Q 1406 3038 1543 3061 
Q 1681 3084 1819 3084 
Q 2600 3084 3056 2656 
Q 3513 2228 3513 1497 
Q 3513 744 3044 326 
Q 2575 -91 1722 -91 
Q 1428 -91 1123 -41 
Q 819 9 494 109 
L 494 744 
Q 775 591 1075 516 
Q 1375 441 1709 441 
Q 2250 441 2565 725 
Q 2881 1009 2881 1497 
Q 2881 1984 2565 2268 
Q 2250 2553 1709 2553 
Q 1456 2553 1204 2497 
Q 953 2441 691 2322 
L 691 4666 
z
" transform="scale(0.015625)"/>
      </defs>
      <use xlink:href="#DejaVuSans-56"/>
      <use xlink:href="#DejaVuSans-41" x="62.033203"/>
      <use xlink:href="#DejaVuSans-4c" x="130.441406"/>
      <use xlink:href="#DejaVuSans-20" x="186.154297"/>
      <use xlink:href="#DejaVuSans-35" x="217.941406"/>
     </g>
    </g>
   </g>
   <g id="text_2">
    <g clip-path="url(#p63a5b1a934)">
     <!-- ILE 3 -->
     <g transform="translate(789.002883 577.789284) scale(0.08 -0.08)">
      <defs>
       <path id="DejaVuSans-49" d="M 628 4666 
L 1259 4666 
L 1259 0 
L 628 0 
L 628 4666 
z
" transform="scale(0.015625)"/>
       <path id="DejaVuSans-45" d="M 628 4666 
L 3578 4666 
L 3578 4134 
L 1259 4134 
L 1259 2753 
L 3481 2753 
L 3481 2222 
L 1259 2222 
L 1259 531 
L 3634 531 
L 3634 0 
L 628 0 
L 628 4666 
z
" transform="scale(0.015625)"/>
       <path id="DejaVuSans-33" d="M 2597 2516 
Q 3050 2419 3304 2112 
Q 3559 1806 3559 1356 
Q 3559 666 3084 287 
Q 2609 -91 1734 -91 
Q 1441 -91 1130 -33 
Q 819 25 488 141 
L 488 750 
Q 750 597 1062 519 
Q 1375 441 1716 441 
Q 2309 441 2620 675 
Q 2931 909 2931 1356 
Q 2931 1769 2642 2001 
Q 2353 2234 1838 2234 
L 1294 2234 
L 1294 2753 
L 1863 2753 
Q 2328 2753 2575 2939 
Q 2822 3125 2822 3475 
Q 2822 3834 2567 4026 
Q 2313 4219 1838 4219 
Q 1578 4219 1281 4162 
Q 984 4106 628 3988 
L 628 4550 
Q 988 4650 1302 4700 
Q 1616 4750 1894 4750 
Q 2613 4750 3031 4423 
Q 3450 4097 3450 3541 
Q 3450 3153 3228 2886 
Q 3006 2619 2597 2516 
z
" transform="scale(0.015625)"/>
      </defs>
      <use xlink:href="#DejaVuSans-49"/>
      <use xlink:href="#DejaVuSans-4c" x="29.492188"/>
      <use xlink:href="#DejaVuSans-45" x="85.205078"/>
      <use xlink:href="#DejaVuSans-20" x="148.388672"/>
      <use xlink:href="#DejaVuSans-33" x="180.175781"/>
     </g>
    </g>
   </g>
   <g id="text_3">
    <g clip-path="url(#p63a5b1a934)">
     <!-- ILE 13 -->
     <g transform="translate(237.619855 418.08912) scale(0.08 -0.08)">
      <defs>
       <path id="DejaVuSans-31" d="M 794 531 
L 1825 531 
L 1825 4091 
L 703 3866 
L 703 4441 
L 1819 4666 
L 2450 4666 
L 2450 531 
L 3481 531 
L 3481 0 
L 794 0 
L 794 531 
z
" transform="scale(0.015625)"/>
      </defs>
      <use xlink:href="#DejaVuSans-49"/>
      <use xlink:href="#DejaVuSans-4c" x="29.492188"/>
      <use xlink:href="#DejaVuSans-45" x="85.205078"/>
      <use xlink:href="#DejaVuSans-20" x="148.388672"/>
      <use xlink:href="#DejaVuSans-31" x="180.175781"/>
      <use xlink:href="#DejaVuSans-33" x="243.798828"/>
     </g>
    </g>
   </g>
   <g id="text_4">
    <g clip-path="url(#p63a5b1a934)">
     <!-- LEU 15 -->
     <g transform="translate(629.658547 531.947981) scale(0.08 -0.08)">
      <defs>
       <path id="DejaVuSans-55" d="M 556 4666 
L 1191 4666 
L 1191 1831 
Q 1191 1081 1462 751 
Q 1734 422 2344 422 
Q 2950 422 3222 751 
Q 3494 1081 3494 1831 
L 3494 4666 
L 4128 4666 
L 4128 1753 
Q 4128 841 3676 375 
Q 3225 -91 2344 -91 
Q 1459 -91 1007 375 
Q 556 841 556 1753 
L 556 4666 
z
" transform="scale(0.015625)"/>
      </defs>
      <use xlink:href="#DejaVuSans-4c"/>
      <use xlink:href="#DejaVuSans-45" x="55.712891"/>
      <use xlink:href="#DejaVuSans-55" x="118.896484"/>
      <use xlink:href="#DejaVuSans-20" x="192.089844"/>
      <use xlink:href="#DejaVuSans-31" x="223.876953"/>
      <use xlink:href="#DejaVuSans-35" x="287.5"/>
     </g>
    </g>
   </g>
   <g id="text_5">
    <g clip-path="url(#p63a5b1a934)">
     <!-- ILE 30 -->
     <g transform="translate(685.991021 707.793778) scale(0.08 -0.08)">
      <defs>
       <path id="DejaVuSans-30" d="M 2034 4250 
Q 1547 4250 1301 3770 
Q 1056 3291 1056 2328 
Q 1056 1369 1301 889 
Q 1547 409 2034 409 
Q 2525 409 2770 889 
Q 3016 1369 3016 2328 
Q 3016 3291 2770 3770 
Q 2525 4250 2034 4250 
z
M 2034 4750 
Q 2819 4750 3233 4129 
Q 3647 3509 3647 2328 
Q 3647 1150 3233 529 
Q 2819 -91 2034 -91 
Q 1250 -91 836 529 
Q 422 1150 422 2328 
Q 422 3509 836 4129 
Q 1250 4750 2034 4750 
z
" transform="scale(0.015625)"/>
      </defs>
      <use xlink:href="#DejaVuSans-49"/>
      <use xlink:href="#DejaVuSans-4c" x="29.492188"/>
      <use xlink:href="#DejaVuSans-45" x="85.205078"/>
      <use xlink:href="#DejaVuSans-20" x="148.388672"/>
      <use xlink:href="#DejaVuSans-33" x="180.175781"/>
      <use xlink:href="#DejaVuSans-30" x="243.798828"/>
     </g>
    </g>
   </g>
   <g id="text_6">
    <g clip-path="url(#p63a5b1a934)">
     <!-- LEU 43 -->
     <g transform="translate(751.316749 804.710068) scale(0.08 -0.08)">
      <defs>
       <path id="DejaVuSans-34" d="M 2419 4116 
L 825 1625 
L 2419 1625 
L 2419 4116 
z
M 2253 4666 
L 3047 4666 
L 3047 1625 
L 3713 1625 
L 3713 1100 
L 3047 1100 
L 3047 0 
L 2419 0 
L 2419 1100 
L 313 1100 
L 313 1709 
L 2253 4666 
z
" transform="scale(0.015625)"/>
      </defs>
      <use xlink:href="#DejaVuSans-4c"/>
      <use xlink:href="#DejaVuSans-45" x="55.712891"/>
      <use xlink:href="#DejaVuSans-55" x="118.896484"/>
      <use xlink:href="#DejaVuSans-20" x="192.089844"/>
      <use xlink:href="#DejaVuSans-34" x="223.876953"/>
      <use xlink:href="#DejaVuSans-33" x="287.5"/>
     </g>
    </g>
   </g>
   <g id="text_7">
    <g clip-path="url(#p63a5b1a934)">
     <!-- VAL 17 -->
     <g transform="translate(974.180988 457.197784) scale(0.08 -0.08)">
      <defs>
       <path id="DejaVuSans-37" d="M 525 4666 
L 3525 4666 
L 3525 4397 
L 1831 0 
L 1172 0 
L 2766 4134 
L 525 4134 
L 525 4666 
z
" transform="scale(0.015625)"/>
      </defs>
      <use xlink:href="#DejaVuSans-56"/>
      <use xlink:href="#DejaVuSans-41" x="62.033203"/>
      <use xlink:href="#DejaVuSans-4c" x="130.441406"/>
      <use xlink:href="#DejaVuSans-20" x="186.154297"/>
      <use xlink:href="#DejaVuSans-31" x="217.941406"/>
      <use xlink:href="#DejaVuSans-37" x="281.564453"/>
     </g>
    </g>
   </g>
   <g id="text_8">
    <g clip-path="url(#p63a5b1a934)">
     <!-- VAL 26 -->
     <g transform="translate(1040.074256 618.649239) scale(0.08 -0.08)">
      <defs>
       <path id="DejaVuSans-32" d="M 1228 531 
L 3431 531 
L 3431 0 
L 469 0 
L 469 531 
Q 828 903 1448 1529 
Q 2069 2156 2228 2338 
Q 2531 2678 2651 2914 
Q 2772 3150 2772 3378 
Q 2772 3750 2511 3984 
Q 2250 4219 1831 4219 
Q 1534 4219 1204 4116 
Q 875 4013 500 3803 
L 500 4441 
Q 881 4594 1212 4672 
Q 1544 4750 1819 4750 
Q 2544 4750 2975 4387 
Q 3406 4025 3406 3419 
Q 3406 3131 3298 2873 
Q 3191 2616 2906 2266 
Q 2828 2175 2409 1742 
Q 1991 1309 1228 531 
z
" transform="scale(0.015625)"/>
       <path id="DejaVuSans-36" d="M 2113 2584 
Q 1688 2584 1439 2293 
Q 1191 2003 1191 1497 
Q 1191 994 1439 701 
Q 1688 409 2113 409 
Q 2538 409 2786 701 
Q 3034 994 3034 1497 
Q 3034 2003 2786 2293 
Q 2538 2584 2113 2584 
z
M 3366 4563 
L 3366 3988 
Q 3128 4100 2886 4159 
Q 2644 4219 2406 4219 
Q 1781 4219 1451 3797 
Q 1122 3375 1075 2522 
Q 1259 2794 1537 2939 
Q 1816 3084 2150 3084 
Q 2853 3084 3261 2657 
Q 3669 2231 3669 1497 
Q 3669 778 3244 343 
Q 2819 -91 2113 -91 
Q 1303 -91 875 529 
Q 447 1150 447 2328 
Q 447 3434 972 4092 
Q 1497 4750 2381 4750 
Q 2619 4750 2861 4703 
Q 3103 4656 3366 4563 
z
" transform="scale(0.015625)"/>
      </defs>
      <use xlink:href="#DejaVuSans-56"/>
      <use xlink:href="#DejaVuSans-41" x="62.033203"/>
      <use xlink:href="#DejaVuSans-4c" x="130.441406"/>
      <use xlink:href="#DejaVuSans-20" x="186.154297"/>
      <use xlink:href="#DejaVuSans-32" x="217.941406"/>
      <use xlink:href="#DejaVuSans-36" x="281.564453"/>
     </g>
    </g>
   </g>
   <g id="text_9">
    <g clip-path="url(#p63a5b1a934)">
     <!-- ILE 23 -->
     <g transform="translate(1500.444741 428.690712) scale(0.08 -0.08)">
      <use xlink:href="#DejaVuSans-49"/>
      <use xlink:href="#DejaVuSans-4c" x="29.492188"/>
      <use xlink:href="#DejaVuSans-45" x="85.205078"/>
      <use xlink:href="#DejaVuSans-20" x="148.388672"/>
      <use xlink:href="#DejaVuSans-32" x="180.175781"/>
      <use xlink:href="#DejaVuSans-33" x="243.798828"/>
     </g>
    </g>
   </g>
   <g id="text_10">
    <g clip-path="url(#p63a5b1a934)">
     <!-- LEU 56 -->
     <g transform="translate(1364.401311 497.048178) scale(0.08 -0.08)">
      <use xlink:href="#DejaVuSans-4c"/>
      <use xlink:href="#DejaVuSans-45" x="55.712891"/>
      <use xlink:href="#DejaVuSans-55" x="118.896484"/>
      <use xlink:href="#DejaVuSans-20" x="192.089844"/>
      <use xlink:href="#DejaVuSans-35" x="223.876953"/>
      <use xlink:href="#DejaVuSans-36" x="287.5"/>
     </g>
    </g>
   </g>
   <g id="text_11">
    <g clip-path="url(#p63a5b1a934)">
     <!-- ILE 61 -->
     <g transform="translate(1801.728357 387.679183) scale(0.08 -0.08)">
      <use xlink:href="#DejaVuSans-49"/>
      <use xlink:href="#DejaVuSans-4c" x="29.492188"/>
      <use xlink:href="#DejaVuSans-45" x="85.205078"/>
      <use xlink:href="#DejaVuSans-20" x="148.388672"/>
      <use xlink:href="#DejaVuSans-36" x="180.175781"/>
      <use xlink:href="#DejaVuSans-31" x="243.798828"/>
     </g>
    </g>
   </g>
   <g id="text_12">
    <g clip-path="url(#p63a5b1a934)">
     <!-- LEU 50 -->
     <g transform="translate(1734.532689 252.124855) scale(0.08 -0.08)">
      <use xlink:href="#DejaVuSans-4c"/>
      <use xlink:href="#DejaVuSans-45" x="55.712891"/>
      <use xlink:href="#DejaVuSans-55" x="118.896484"/>
      <use xlink:href="#DejaVuSans-20" x="192.089844"/>
      <use xlink:href="#DejaVuSans-35" x="223.876953"/>
      <use xlink:href="#DejaVuSans-30" x="287.5"/>
     </g>
    </g>
   </g>
   <g id="text_13">
    <g clip-path="url(#p63a5b1a934)">
     <!-- LEU 67 -->
     <g transform="translate(2193.27455 310.522741) scale(0.08 -0.08)">
      <use xlink:href="#DejaVuSans-4c"/>
      <use xlink:href="#DejaVuSans-45" x="55.712891"/>
      <use xlink:href="#DejaVuSans-55" x="118.896484"/>
      <use xlink:href="#DejaVuSans-20" x="192.089844"/>
      <use xlink:href="#DejaVuSans-36" x="223.876953"/>
      <use xlink:href="#DejaVuSans-37" x="287.5"/>
     </g>
    </g>
   </g>
   <g id="text_14">
    <g clip-path="url(#p63a5b1a934)">
     <!-- ILE 36 -->
     <g transform="translate(2412.97797 2355.081496) scale(0.08 -0.08)">
      <use xlink:href="#DejaVuSans-49"/>
      <use xlink:href="#DejaVuSans-4c" x="29.492188"/>
      <use xlink:href="#DejaVuSans-45" x="85.205078"/>
      <use xlink:href="#DejaVuSans-20" x="148.388672"/>
      <use xlink:href="#DejaVuSans-33" x="180.175781"/>
      <use xlink:href="#DejaVuSans-36" x="243.798828"/>
     </g>
    </g>
   </g>
   <g id="text_15">
    <g clip-path="url(#p63a5b1a934)">
     <!-- LEU 69 -->
     <g transform="translate(2170.471634 2172.836421) scale(0.08 -0.08)">
      <defs>
       <path id="DejaVuSans-39" d="M 703 97 
L 703 672 
Q 941 559 1184 500 
Q 1428 441 1663 441 
Q 2288 441 2617 861 
Q 2947 1281 2994 2138 
Q 2813 1869 2534 1725 
Q 2256 1581 1919 1581 
Q 1219 1581 811 2004 
Q 403 2428 403 3163 
Q 403 3881 828 4315 
Q 1253 4750 1959 4750 
Q 2769 4750 3195 4129 
Q 3622 3509 3622 2328 
Q 3622 1225 3098 567 
Q 2575 -91 1691 -91 
Q 1453 -91 1209 -44 
Q 966 3 703 97 
z
M 1959 2075 
Q 2384 2075 2632 2365 
Q 2881 2656 2881 3163 
Q 2881 3666 2632 3958 
Q 2384 4250 1959 4250 
Q 1534 4250 1286 3958 
Q 1038 3666 1038 3163 
Q 1038 2656 1286 2365 
Q 1534 2075 1959 2075 
z
" transform="scale(0.015625)"/>
      </defs>
      <use xlink:href="#DejaVuSans-4c"/>
      <use xlink:href="#DejaVuSans-45" x="55.712891"/>
      <use xlink:href="#DejaVuSans-55" x="118.896484"/>
      <use xlink:href="#DejaVuSans-20" x="192.089844"/>
      <use xlink:href="#DejaVuSans-36" x="223.876953"/>
      <use xlink:href="#DejaVuSans-39" x="287.5"/>
     </g>
    </g>
   </g>
   <g id="text_16">
    <g clip-path="url(#p63a5b1a934)">
     <!-- LEU 71 -->
     <g transform="translate(2616.037645 2510.519267) scale(0.08 -0.08)">
      <use xlink:href="#DejaVuSans-4c"/>
      <use xlink:href="#DejaVuSans-45" x="55.712891"/>
      <use xlink:href="#DejaVuSans-55" x="118.896484"/>
      <use xlink:href="#DejaVuSans-20" x="192.089844"/>
      <use xlink:href="#DejaVuSans-37" x="223.876953"/>
      <use xlink:href="#DejaVuSans-31" x="287.5"/>
     </g>
    </g>
   </g>
   <g id="text_17">
    <g clip-path="url(#p63a5b1a934)">
     <!-- VAL 70 -->
     <g transform="translate(557.989499 2632.290145) scale(0.08 -0.08)">
      <use xlink:href="#DejaVuSans-56"/>
      <use xlink:href="#DejaVuSans-41" x="62.033203"/>
      <use xlink:href="#DejaVuSans-4c" x="130.441406"/>
      <use xlink:href="#DejaVuSans-20" x="186.154297"/>
      <use xlink:href="#DejaVuSans-37" x="217.941406"/>
      <use xlink:href="#DejaVuSans-30" x="281.564453"/>
     </g>
    </g>
   </g>
   <g id="text_18">
    <g clip-path="url(#p63a5b1a934)">
     <!-- ILE 44 -->
     <g transform="translate(700.499367 2464.365957) scale(0.08 -0.08)">
      <use xlink:href="#DejaVuSans-49"/>
      <use xlink:href="#DejaVuSans-4c" x="29.492188"/>
      <use xlink:href="#DejaVuSans-45" x="85.205078"/>
      <use xlink:href="#DejaVuSans-20" x="148.388672"/>
      <use xlink:href="#DejaVuSans-34" x="180.175781"/>
      <use xlink:href="#DejaVuSans-34" x="243.798828"/>
     </g>
    </g>
   </g>
  </g>
  <g id="text_19">
   <!-- G_NMR -->
   <g transform="translate(1418.51625 66.50625) scale(0.12 -0.12)">
    <defs>
     <path id="DejaVuSans-47" d="M 3809 666 
L 3809 1919 
L 2778 1919 
L 2778 2438 
L 4434 2438 
L 4434 434 
Q 4069 175 3628 42 
Q 3188 -91 2688 -91 
Q 1594 -91 976 548 
Q 359 1188 359 2328 
Q 359 3472 976 4111 
Q 1594 4750 2688 4750 
Q 3144 4750 3555 4637 
Q 3966 4525 4313 4306 
L 4313 3634 
Q 3963 3931 3569 4081 
Q 3175 4231 2741 4231 
Q 1884 4231 1454 3753 
Q 1025 3275 1025 2328 
Q 1025 1384 1454 906 
Q 1884 428 2741 428 
Q 3075 428 3337 486 
Q 3600 544 3809 666 
z
" transform="scale(0.015625)"/>
     <path id="DejaVuSans-5f" d="M 3263 -1063 
L 3263 -1509 
L -63 -1509 
L -63 -1063 
L 3263 -1063 
z
" transform="scale(0.015625)"/>
     <path id="DejaVuSans-4e" d="M 628 4666 
L 1478 4666 
L 3547 763 
L 3547 4666 
L 4159 4666 
L 4159 0 
L 3309 0 
L 1241 3903 
L 1241 0 
L 628 0 
L 628 4666 
z
" transform="scale(0.015625)"/>
     <path id="DejaVuSans-4d" d="M 628 4666 
L 1569 4666 
L 2759 1491 
L 3956 4666 
L 4897 4666 
L 4897 0 
L 4281 0 
L 4281 4097 
L 3078 897 
L 2444 897 
L 1241 4097 
L 1241 0 
L 628 0 
L 628 4666 
z
" transform="scale(0.015625)"/>
     <path id="DejaVuSans-52" d="M 2841 2188 
Q 3044 2119 3236 1894 
Q 3428 1669 3622 1275 
L 4263 0 
L 3584 0 
L 2988 1197 
Q 2756 1666 2539 1819 
Q 2322 1972 1947 1972 
L 1259 1972 
L 1259 0 
L 628 0 
L 628 4666 
L 2053 4666 
Q 2853 4666 3247 4331 
Q 3641 3997 3641 3322 
Q 3641 2881 3436 2590 
Q 3231 2300 2841 2188 
z
M 1259 4147 
L 1259 2491 
L 2053 2491 
Q 2509 2491 2742 2702 
Q 2975 2913 2975 3322 
Q 2975 3731 2742 3939 
Q 2509 4147 2053 4147 
L 1259 4147 
z
" transform="scale(0.015625)"/>
    </defs>
    <use xlink:href="#DejaVuSans-47"/>
    <use xlink:href="#DejaVuSans-5f" x="77.490234"/>
    <use xlink:href="#DejaVuSans-4e" x="127.490234"/>
    <use xlink:href="#DejaVuSans-4d" x="202.294922"/>
    <use xlink:href="#DejaVuSans-52" x="288.574219"/>
   </g>
  </g>
 </g>
 <defs>
  <clipPath id="p63a5b1a934">
   <rect x="0" y="0" width="2880" height="2880"/>
  </clipPath>
 </defs>
</svg>
