<?xml version="1.0" encoding="utf-8" standalone="no"?>
<!DOCTYPE svg PUBLIC "-//W3C//DTD SVG 1.1//EN"
  "http://www.w3.org/Graphics/SVG/1.1/DTD/svg11.dtd">
<svg xmlns:xlink="http://www.w3.org/1999/xlink" width="2880pt" height="2880pt" viewBox="0 0 2880 2880" xmlns="http://www.w3.org/2000/svg" version="1.1">
 <metadata>
  <rdf:RDF xmlns:dc="http://purl.org/dc/elements/1.1/" xmlns:cc="http://creativecommons.org/ns#" xmlns:rdf="http://www.w3.org/1999/02/22-rdf-syntax-ns#">
   <cc:Work>
    <dc:type rdf:resource="http://purl.org/dc/dcmitype/StillImage"/>
    <dc:date>2024-09-24T11:40:07.823818</dc:date>
    <dc:format>image/svg+xml</dc:format>
    <dc:creator>
     <cc:Agent>
      <dc:title>Matplotlib v3.8.2, https://matplotlib.org/</dc:title>
     </cc:Agent>
    </dc:creator>
   </cc:Work>
  </rdf:RDF>
 </metadata>
 <defs>
  <style type="text/css">*{stroke-linejoin: round; stroke-linecap: butt}</style>
 </defs>
 <g id="figure_1">
  <g id="patch_1">
   <path d="M 0 2880 
L 2880 2880 
L 2880 0 
L 0 0 
z
" style="fill: #ffffff"/>
  </g>
  <g id="axes_1">
   <g id="patch_2">
    <path d="M 1500.537691 1818.456611 
Q 1587.489747 1842.678365 1674.226397 1866.840114 
" clip-path="url(#pe12e4e2e92)" style="fill: none; stroke: #000000; stroke-width: 0.2; stroke-linecap: round"/>
    <path d="M 1670.909803 1863.84008 
L 1674.226397 1866.840114 
L 1669.836414 1867.693369 
z
" clip-path="url(#pe12e4e2e92)" style="stroke: #000000; stroke-width: 0.2; stroke-linecap: round"/>
   </g>
   <g id="patch_3">
    <path d="M 1486.466681 1800.525682 
Q 1482.488883 1674.512864 1478.51814 1548.723542 
" clip-path="url(#pe12e4e2e92)" style="fill: none; stroke: #000000; stroke-width: 0.2; stroke-linecap: round"/>
    <path d="M 1476.645339 1552.784653 
L 1478.51814 1548.723542 
L 1480.643347 1552.658449 
z
" clip-path="url(#pe12e4e2e92)" style="stroke: #000000; stroke-width: 0.2; stroke-linecap: round"/>
   </g>
   <g id="patch_4">
    <path d="M 1500.808293 1812.009518 
Q 1554.854699 1801.695652 1608.681462 1791.423701 
" clip-path="url(#pe12e4e2e92)" style="fill: none; stroke: #000000; stroke-width: 0.2; stroke-linecap: round"/>
    <path d="M 1604.377465 1790.208956 
L 1608.681462 1791.423701 
L 1605.127268 1794.138052 
z
" clip-path="url(#pe12e4e2e92)" style="stroke: #000000; stroke-width: 0.2; stroke-linecap: round"/>
   </g>
   <g id="patch_5">
    <path d="M 1491.840648 1827.91691 
Q 1516.976894 1895.53353 1542.035225 1962.940557 
" clip-path="url(#pe12e4e2e92)" style="fill: none; stroke: #000000; stroke-width: 0.2; stroke-linecap: round"/>
    <path d="M 1542.516087 1958.494348 
L 1542.035225 1962.940557 
L 1538.766775 1959.888142 
z
" clip-path="url(#pe12e4e2e92)" style="stroke: #000000; stroke-width: 0.2; stroke-linecap: round"/>
   </g>
   <g id="patch_6">
    <path d="M 1487.84393 1828.773789 
Q 1496.093761 1953.823746 1504.328873 2078.650582 
" clip-path="url(#pe12e4e2e92)" style="fill: none; stroke: #000000; stroke-width: 0.2; stroke-linecap: round"/>
    <path d="M 1506.061218 2074.5276 
L 1504.328873 2078.650582 
L 1502.069894 2074.790917 
z
" clip-path="url(#pe12e4e2e92)" style="stroke: #000000; stroke-width: 0.2; stroke-linecap: round"/>
   </g>
   <g id="patch_7">
    <path d="M 1674.440328 1866.899707 
Q 1587.488272 1842.677954 1500.751621 1818.516205 
" clip-path="url(#pe12e4e2e92)" style="fill: none; stroke: #000000; stroke-width: 0.2; stroke-linecap: round"/>
    <path d="M 1504.068215 1821.516238 
L 1500.751621 1818.516205 
L 1505.141605 1817.66295 
z
" clip-path="url(#pe12e4e2e92)" style="stroke: #000000; stroke-width: 0.2; stroke-linecap: round"/>
   </g>
   <g id="patch_8">
    <path d="M 1679.25435 1859.631681 
Q 1655.427457 1829.713011 1631.739864 1799.969256 
" clip-path="url(#pe12e4e2e92)" style="fill: none; stroke: #000000; stroke-width: 0.2; stroke-linecap: round"/>
    <path d="M 1632.667259 1804.344178 
L 1631.739864 1799.969256 
L 1635.796238 1801.852294 
z
" clip-path="url(#pe12e4e2e92)" style="stroke: #000000; stroke-width: 0.2; stroke-linecap: round"/>
   </g>
   <g id="patch_9">
    <path d="M 1702.16067 1871.859244 
Q 1764.05907 1876.971438 1825.734622 1882.065227 
" clip-path="url(#pe12e4e2e92)" style="fill: none; stroke: #000000; stroke-width: 0.2; stroke-linecap: round"/>
    <path d="M 1821.912814 1879.742774 
L 1825.734622 1882.065227 
L 1821.583575 1883.729201 
z
" clip-path="url(#pe12e4e2e92)" style="stroke: #000000; stroke-width: 0.2; stroke-linecap: round"/>
   </g>
   <g id="patch_10">
    <path d="M 1692.169009 1884.229506 
Q 1718.346055 1970.560171 1744.458217 2056.67685 
" clip-path="url(#pe12e4e2e92)" style="fill: none; stroke: #000000; stroke-width: 0.2; stroke-linecap: round"/>
    <path d="M 1745.211477 2052.268608 
L 1744.458217 2056.67685 
L 1741.383579 2053.429297 
z
" clip-path="url(#pe12e4e2e92)" style="stroke: #000000; stroke-width: 0.2; stroke-linecap: round"/>
   </g>
   <g id="patch_11">
    <path d="M 1485.058601 1546.654832 
Q 1550.428305 1661.548441 1615.687431 1776.247699 
" clip-path="url(#pe12e4e2e92)" style="fill: none; stroke: #000000; stroke-width: 0.2; stroke-linecap: round"/>
    <path d="M 1615.447685 1771.781994 
L 1615.687431 1776.247699 
L 1611.97102 1773.760073 
z
" clip-path="url(#pe12e4e2e92)" style="stroke: #000000; stroke-width: 0.2; stroke-linecap: round"/>
   </g>
   <g id="patch_12">
    <path d="M 1631.60086 1799.794713 
Q 1655.427754 1829.713384 1679.115346 1859.457139 
" clip-path="url(#pe12e4e2e92)" style="fill: none; stroke: #000000; stroke-width: 0.2; stroke-linecap: round"/>
    <path d="M 1678.187952 1855.082217 
L 1679.115346 1859.457139 
L 1675.058972 1857.574101 
z
" clip-path="url(#pe12e4e2e92)" style="stroke: #000000; stroke-width: 0.2; stroke-linecap: round"/>
   </g>
   <g id="patch_13">
    <path d="M 1608.894684 1791.383011 
Q 1554.848278 1801.696877 1501.021515 1811.968828 
" clip-path="url(#pe12e4e2e92)" style="fill: none; stroke: #000000; stroke-width: 0.2; stroke-linecap: round"/>
    <path d="M 1505.325512 1813.183573 
L 1501.021515 1811.968828 
L 1504.575709 1809.254477 
z
" clip-path="url(#pe12e4e2e92)" style="stroke: #000000; stroke-width: 0.2; stroke-linecap: round"/>
   </g>
   <g id="patch_14">
    <path d="M 1615.796296 1776.439039 
Q 1550.426592 1661.54543 1485.167465 1546.846172 
" clip-path="url(#pe12e4e2e92)" style="fill: none; stroke: #000000; stroke-width: 0.2; stroke-linecap: round"/>
    <path d="M 1485.407211 1551.311877 
L 1485.167465 1546.846172 
L 1488.883877 1549.333798 
z
" clip-path="url(#pe12e4e2e92)" style="stroke: #000000; stroke-width: 0.2; stroke-linecap: round"/>
   </g>
   <g id="patch_15">
    <path d="M 1635.755546 1794.371761 
Q 1731.417376 1835.988215 1826.874163 1877.515468 
" clip-path="url(#pe12e4e2e92)" style="fill: none; stroke: #000000; stroke-width: 0.2; stroke-linecap: round"/>
    <path d="M 1824.004069 1874.085809 
L 1826.874163 1877.515468 
L 1822.408379 1877.753748 
z
" clip-path="url(#pe12e4e2e92)" style="stroke: #000000; stroke-width: 0.2; stroke-linecap: round"/>
   </g>
   <g id="patch_16">
    <path d="M 1628.560009 1801.647614 
Q 1685.708557 1929.577955 1742.765903 2057.304134 
" clip-path="url(#pe12e4e2e92)" style="fill: none; stroke: #000000; stroke-width: 0.2; stroke-linecap: round"/>
    <path d="M 1742.960504 2052.836234 
L 1742.765903 2057.304134 
L 1739.308344 2054.467713 
z
" clip-path="url(#pe12e4e2e92)" style="stroke: #000000; stroke-width: 0.2; stroke-linecap: round"/>
   </g>
   <g id="patch_17">
    <path d="M 1617.497461 1801.844046 
Q 1584.915307 1882.567987 1552.416846 1963.084574 
" clip-path="url(#pe12e4e2e92)" style="fill: none; stroke: #000000; stroke-width: 0.2; stroke-linecap: round"/>
    <path d="M 1555.768617 1960.123894 
L 1552.416846 1963.084574 
L 1552.059364 1958.626749 
z
" clip-path="url(#pe12e4e2e92)" style="stroke: #000000; stroke-width: 0.2; stroke-linecap: round"/>
   </g>
   <g id="patch_18">
    <path d="M 1542.11274 1963.149073 
Q 1516.976493 1895.532453 1491.918162 1828.125426 
" clip-path="url(#pe12e4e2e92)" style="fill: none; stroke: #000000; stroke-width: 0.2; stroke-linecap: round"/>
    <path d="M 1491.4373 1832.571635 
L 1491.918162 1828.125426 
L 1495.186612 1831.177841 
z
" clip-path="url(#pe12e4e2e92)" style="stroke: #000000; stroke-width: 0.2; stroke-linecap: round"/>
   </g>
   <g id="patch_19">
    <path d="M 1552.333118 1963.292013 
Q 1584.915272 1882.568073 1617.413733 1802.051486 
" clip-path="url(#pe12e4e2e92)" style="fill: none; stroke: #000000; stroke-width: 0.2; stroke-linecap: round"/>
    <path d="M 1614.061962 1805.012166 
L 1617.413733 1802.051486 
L 1617.771215 1806.509311 
z
" clip-path="url(#pe12e4e2e92)" style="stroke: #000000; stroke-width: 0.2; stroke-linecap: round"/>
   </g>
   <g id="patch_20">
    <path d="M 1559.857999 1982.382749 
Q 1647.834745 2023.414476 1735.608841 2064.351689 
" clip-path="url(#pe12e4e2e92)" style="fill: none; stroke: #000000; stroke-width: 0.2; stroke-linecap: round"/>
    <path d="M 1732.829092 2060.848405 
L 1735.608841 2064.351689 
L 1731.138365 2064.473518 
z
" clip-path="url(#pe12e4e2e92)" style="stroke: #000000; stroke-width: 0.2; stroke-linecap: round"/>
   </g>
   <g id="patch_21">
    <path d="M 1542.269708 1989.721781 
Q 1526.157241 2034.697621 1510.120187 2079.462954 
" clip-path="url(#pe12e4e2e92)" style="fill: none; stroke: #000000; stroke-width: 0.2; stroke-linecap: round"/>
    <path d="M 1513.352044 2076.371822 
L 1510.120187 2079.462954 
L 1509.586396 2075.022789 
z
" clip-path="url(#pe12e4e2e92)" style="stroke: #000000; stroke-width: 0.2; stroke-linecap: round"/>
   </g>
   <g id="patch_22">
    <path d="M 1504.343727 2078.87575 
Q 1496.093896 1953.825793 1487.858785 1828.998958 
" clip-path="url(#pe12e4e2e92)" style="fill: none; stroke: #000000; stroke-width: 0.2; stroke-linecap: round"/>
    <path d="M 1486.12644 1833.12194 
L 1487.858785 1828.998958 
L 1490.117764 1832.858623 
z
" clip-path="url(#pe12e4e2e92)" style="stroke: #000000; stroke-width: 0.2; stroke-linecap: round"/>
   </g>
   <g id="patch_23">
    <path d="M 1519.359121 2091.682306 
Q 1626.952293 2081.705457 1734.322814 2071.749255 
" clip-path="url(#pe12e4e2e92)" style="fill: none; stroke: #000000; stroke-width: 0.2; stroke-linecap: round"/>
    <path d="M 1730.155238 2070.127124 
L 1734.322814 2071.749255 
L 1730.524564 2074.110037 
z
" clip-path="url(#pe12e4e2e92)" style="stroke: #000000; stroke-width: 0.2; stroke-linecap: round"/>
   </g>
   <g id="patch_24">
    <path d="M 1510.045552 2079.671289 
Q 1526.158019 2034.695449 1542.195073 1989.930116 
" clip-path="url(#pe12e4e2e92)" style="fill: none; stroke: #000000; stroke-width: 0.2; stroke-linecap: round"/>
    <path d="M 1538.963216 1993.021248 
L 1542.195073 1989.930116 
L 1542.728864 1994.370281 
z
" clip-path="url(#pe12e4e2e92)" style="stroke: #000000; stroke-width: 0.2; stroke-linecap: round"/>
   </g>
   <g id="patch_25">
    <path d="M 1825.954705 1882.083404 
Q 1764.056306 1876.97121 1702.380754 1871.877421 
" clip-path="url(#pe12e4e2e92)" style="fill: none; stroke: #000000; stroke-width: 0.2; stroke-linecap: round"/>
    <path d="M 1706.202561 1874.199874 
L 1702.380754 1871.877421 
L 1706.531801 1870.213447 
z
" clip-path="url(#pe12e4e2e92)" style="stroke: #000000; stroke-width: 0.2; stroke-linecap: round"/>
   </g>
   <g id="patch_26">
    <path d="M 1827.084788 1877.607098 
Q 1731.422957 1835.990643 1635.966171 1794.463391 
" clip-path="url(#pe12e4e2e92)" style="fill: none; stroke: #000000; stroke-width: 0.2; stroke-linecap: round"/>
    <path d="M 1638.836265 1797.89305 
L 1635.966171 1794.463391 
L 1640.431955 1794.225111 
z
" clip-path="url(#pe12e4e2e92)" style="stroke: #000000; stroke-width: 0.2; stroke-linecap: round"/>
   </g>
   <g id="patch_27">
    <path d="M 1846.10678 1896.031371 
Q 1901.210004 2012.340445 1956.217491 2128.447442 
" clip-path="url(#pe12e4e2e92)" style="fill: none; stroke: #000000; stroke-width: 0.2; stroke-linecap: round"/>
    <path d="M 1956.312324 2123.976312 
L 1956.217491 2128.447442 
L 1952.697487 2125.688897 
z
" clip-path="url(#pe12e4e2e92)" style="stroke: #000000; stroke-width: 0.2; stroke-linecap: round"/>
   </g>
   <g id="patch_28">
    <path d="M 1744.522398 2056.888516 
Q 1718.345352 1970.557851 1692.23319 1884.441172 
" clip-path="url(#pe12e4e2e92)" style="fill: none; stroke: #000000; stroke-width: 0.2; stroke-linecap: round"/>
    <path d="M 1691.479931 1888.849414 
L 1692.23319 1884.441172 
L 1695.307828 1887.688725 
z
" clip-path="url(#pe12e4e2e92)" style="stroke: #000000; stroke-width: 0.2; stroke-linecap: round"/>
   </g>
   <g id="patch_29">
    <path d="M 1742.856357 2057.506619 
Q 1685.707808 1929.576278 1628.650462 1801.850099 
" clip-path="url(#pe12e4e2e92)" style="fill: none; stroke: #000000; stroke-width: 0.2; stroke-linecap: round"/>
    <path d="M 1628.455861 1806.317999 
L 1628.650462 1801.850099 
L 1632.108022 1804.68652 
z
" clip-path="url(#pe12e4e2e92)" style="stroke: #000000; stroke-width: 0.2; stroke-linecap: round"/>
   </g>
   <g id="patch_30">
    <path d="M 1760.786485 2077.639191 
Q 1893.073645 2156.142702 2025.168509 2234.532098 
" clip-path="url(#pe12e4e2e92)" style="fill: none; stroke: #000000; stroke-width: 0.2; stroke-linecap: round"/>
    <path d="M 2022.749284 2230.770801 
L 2025.168509 2234.532098 
L 2020.707937 2234.2107 
z
" clip-path="url(#pe12e4e2e92)" style="stroke: #000000; stroke-width: 0.2; stroke-linecap: round"/>
   </g>
   <g id="patch_31">
    <path d="M 1735.808777 2064.444937 
Q 1647.832031 2023.41321 1560.057935 1982.475998 
" clip-path="url(#pe12e4e2e92)" style="fill: none; stroke: #000000; stroke-width: 0.2; stroke-linecap: round"/>
    <path d="M 1562.837684 1985.979281 
L 1560.057935 1982.475998 
L 1564.528411 1982.354168 
z
" clip-path="url(#pe12e4e2e92)" style="stroke: #000000; stroke-width: 0.2; stroke-linecap: round"/>
   </g>
   <g id="patch_32">
    <path d="M 1734.541926 2071.728937 
Q 1626.948753 2081.705786 1519.578233 2091.661988 
" clip-path="url(#pe12e4e2e92)" style="fill: none; stroke: #000000; stroke-width: 0.2; stroke-linecap: round"/>
    <path d="M 1523.745809 2093.284119 
L 1519.578233 2091.661988 
L 1523.376483 2089.301206 
z
" clip-path="url(#pe12e4e2e92)" style="stroke: #000000; stroke-width: 0.2; stroke-linecap: round"/>
   </g>
   <g id="patch_33">
    <path d="M 1762.0471 2074.881421 
Q 1855.49662 2105.926017 1948.733936 2136.900117 
" clip-path="url(#pe12e4e2e92)" style="fill: none; stroke: #000000; stroke-width: 0.2; stroke-linecap: round"/>
    <path d="M 1945.568454 2133.741047 
L 1948.733936 2136.900117 
L 1944.307391 2137.537061 
z
" clip-path="url(#pe12e4e2e92)" style="stroke: #000000; stroke-width: 0.2; stroke-linecap: round"/>
   </g>
   <g id="patch_34">
    <path d="M 2025.366248 2234.649443 
Q 1893.079088 2156.145932 1760.984224 2077.756536 
" clip-path="url(#pe12e4e2e92)" style="fill: none; stroke: #000000; stroke-width: 0.2; stroke-linecap: round"/>
    <path d="M 1763.403449 2081.517833 
L 1760.984224 2077.756536 
L 1765.444796 2078.077935 
z
" clip-path="url(#pe12e4e2e92)" style="stroke: #000000; stroke-width: 0.2; stroke-linecap: round"/>
   </g>
   <g id="patch_35">
    <path d="M 2051.20456 2245.457073 
Q 2149.54974 2271.278902 2247.678645 2297.043946 
" clip-path="url(#pe12e4e2e92)" style="fill: none; stroke: #000000; stroke-width: 0.2; stroke-linecap: round"/>
    <path d="M 2244.317692 2294.093692 
L 2247.678645 2297.043946 
L 2243.30187 2297.962556 
z
" clip-path="url(#pe12e4e2e92)" style="stroke: #000000; stroke-width: 0.2; stroke-linecap: round"/>
   </g>
   <g id="patch_36">
    <path d="M 2029.05139 2230.540262 
Q 1999.945537 2191.645369 1970.973656 2152.929506 
" clip-path="url(#pe12e4e2e92)" style="fill: none; stroke: #000000; stroke-width: 0.2; stroke-linecap: round"/>
    <path d="M 1971.768923 2157.330364 
L 1970.973656 2152.929506 
L 1974.971503 2154.933807 
z
" clip-path="url(#pe12e4e2e92)" style="stroke: #000000; stroke-width: 0.2; stroke-linecap: round"/>
   </g>
   <g id="patch_37">
    <path d="M 2046.203396 2253.033687 
Q 2096.138117 2317.304029 2145.935649 2381.397795 
" clip-path="url(#pe12e4e2e92)" style="fill: none; stroke: #000000; stroke-width: 0.2; stroke-linecap: round"/>
    <path d="M 2145.060859 2377.012052 
L 2145.935649 2381.397795 
L 2141.90218 2379.466182 
z
" clip-path="url(#pe12e4e2e92)" style="stroke: #000000; stroke-width: 0.2; stroke-linecap: round"/>
   </g>
   <g id="patch_38">
    <path d="M 1956.311372 2128.645602 
Q 1901.208149 2012.336529 1846.200661 1896.229531 
" clip-path="url(#pe12e4e2e92)" style="fill: none; stroke: #000000; stroke-width: 0.2; stroke-linecap: round"/>
    <path d="M 1846.105828 1900.700662 
L 1846.200661 1896.229531 
L 1849.720665 1898.988077 
z
" clip-path="url(#pe12e4e2e92)" style="stroke: #000000; stroke-width: 0.2; stroke-linecap: round"/>
   </g>
   <g id="patch_39">
    <path d="M 1970.842965 2152.75486 
Q 1999.948817 2191.649753 2028.920698 2230.365616 
" clip-path="url(#pe12e4e2e92)" style="fill: none; stroke: #000000; stroke-width: 0.2; stroke-linecap: round"/>
    <path d="M 2028.125432 2225.964758 
L 2028.920698 2230.365616 
L 2024.922852 2228.361315 
z
" clip-path="url(#pe12e4e2e92)" style="stroke: #000000; stroke-width: 0.2; stroke-linecap: round"/>
   </g>
   <g id="patch_40">
    <path d="M 1948.947084 2136.970926 
Q 1855.497564 2105.926331 1762.260247 2074.95223 
" clip-path="url(#pe12e4e2e92)" style="fill: none; stroke: #000000; stroke-width: 0.2; stroke-linecap: round"/>
    <path d="M 1765.42573 2078.1113 
L 1762.260247 2074.95223 
L 1766.686793 2074.315286 
z
" clip-path="url(#pe12e4e2e92)" style="stroke: #000000; stroke-width: 0.2; stroke-linecap: round"/>
   </g>
   <g id="patch_41">
    <path d="M 1970.966041 2152.661366 
Q 2058.560472 2267.088011 2146.018983 2381.337101 
" clip-path="url(#pe12e4e2e92)" style="fill: none; stroke: #000000; stroke-width: 0.2; stroke-linecap: round"/>
    <path d="M 2145.175678 2376.945195 
L 2146.018983 2381.337101 
L 2141.999476 2379.376601 
z
" clip-path="url(#pe12e4e2e92)" style="stroke: #000000; stroke-width: 0.2; stroke-linecap: round"/>
   </g>
   <g id="patch_42">
    <path d="M 2146.073209 2381.574848 
Q 2096.138488 2317.304506 2046.340956 2253.21074 
" clip-path="url(#pe12e4e2e92)" style="fill: none; stroke: #000000; stroke-width: 0.2; stroke-linecap: round"/>
    <path d="M 2047.215746 2257.596483 
L 2046.340956 2253.21074 
L 2050.374425 2255.142354 
z
" clip-path="url(#pe12e4e2e92)" style="stroke: #000000; stroke-width: 0.2; stroke-linecap: round"/>
   </g>
   <g id="patch_43">
    <path d="M 2165.465646 2383.509092 
Q 2208.162071 2346.716791 2250.689105 2310.070457 
" clip-path="url(#pe12e4e2e92)" style="fill: none; stroke: #000000; stroke-width: 0.2; stroke-linecap: round"/>
    <path d="M 2246.353366 2311.166524 
L 2250.689105 2310.070457 
L 2248.964515 2314.196689 
z
" clip-path="url(#pe12e4e2e92)" style="stroke: #000000; stroke-width: 0.2; stroke-linecap: round"/>
   </g>
   <g id="patch_44">
    <path d="M 2146.152014 2381.510882 
Q 2058.557584 2267.084238 1971.099073 2152.835148 
" clip-path="url(#pe12e4e2e92)" style="fill: none; stroke: #000000; stroke-width: 0.2; stroke-linecap: round"/>
    <path d="M 1971.942377 2157.227054 
L 1971.099073 2152.835148 
L 1975.11858 2154.795648 
z
" clip-path="url(#pe12e4e2e92)" style="stroke: #000000; stroke-width: 0.2; stroke-linecap: round"/>
   </g>
   <g id="patch_45">
    <path d="M 2162.272221 2404.719192 
Q 2229.28363 2511.412294 2296.176109 2617.916041 
" clip-path="url(#pe12e4e2e92)" style="fill: none; stroke: #000000; stroke-width: 0.2; stroke-linecap: round"/>
    <path d="M 2295.742275 2613.464997 
L 2296.176109 2617.916041 
L 2292.354974 2615.592481 
z
" clip-path="url(#pe12e4e2e92)" style="stroke: #000000; stroke-width: 0.2; stroke-linecap: round"/>
   </g>
   <g id="patch_46">
    <path d="M 2247.894456 2297.10061 
Q 2149.549276 2271.27878 2051.420372 2245.513737 
" clip-path="url(#pe12e4e2e92)" style="fill: none; stroke: #000000; stroke-width: 0.2; stroke-linecap: round"/>
    <path d="M 2054.781325 2248.46399 
L 2051.420372 2245.513737 
L 2055.797146 2244.595127 
z
" clip-path="url(#pe12e4e2e92)" style="stroke: #000000; stroke-width: 0.2; stroke-linecap: round"/>
   </g>
   <g id="patch_47">
    <path d="M 2250.857072 2309.925717 
Q 2208.160646 2346.718019 2165.633612 2383.364353 
" clip-path="url(#pe12e4e2e92)" style="fill: none; stroke: #000000; stroke-width: 0.2; stroke-linecap: round"/>
    <path d="M 2169.969352 2382.268286 
L 2165.633612 2383.364353 
L 2167.358202 2379.238121 
z
" clip-path="url(#pe12e4e2e92)" style="stroke: #000000; stroke-width: 0.2; stroke-linecap: round"/>
   </g>
   <g id="patch_48">
    <path d="M 2296.295596 2618.106284 
Q 2229.284187 2511.413181 2162.391708 2404.909435 
" clip-path="url(#pe12e4e2e92)" style="fill: none; stroke: #000000; stroke-width: 0.2; stroke-linecap: round"/>
    <path d="M 2162.825541 2409.360478 
L 2162.391708 2404.909435 
L 2166.212843 2407.232994 
z
" clip-path="url(#pe12e4e2e92)" style="stroke: #000000; stroke-width: 0.2; stroke-linecap: round"/>
   </g>
   <g id="patch_49">
    <path d="M 2461.397087 488.016751 
Q 2539.537964 445.22338 2617.482718 402.537415 
" clip-path="url(#pe12e4e2e92)" style="fill: none; stroke: #000000; stroke-width: 0.2; stroke-linecap: round"/>
    <path d="M 2613.013707 402.704566 
L 2617.482718 402.537415 
L 2614.935032 406.212914 
z
" clip-path="url(#pe12e4e2e92)" style="stroke: #000000; stroke-width: 0.2; stroke-linecap: round"/>
   </g>
   <g id="patch_50">
    <path d="M 2448.991864 480.666106 
Q 2448.982813 372.363552 2448.97378 264.284604 
" clip-path="url(#pe12e4e2e92)" style="fill: none; stroke: #000000; stroke-width: 0.2; stroke-linecap: round"/>
    <path d="M 2446.974114 268.284771 
L 2448.97378 264.284604 
L 2450.974114 268.284437 
z
" clip-path="url(#pe12e4e2e92)" style="stroke: #000000; stroke-width: 0.2; stroke-linecap: round"/>
   </g>
   <g id="patch_51">
    <path d="M 2617.678604 402.430139 
Q 2539.537727 445.22351 2461.592973 487.909475 
" clip-path="url(#pe12e4e2e92)" style="fill: none; stroke: #000000; stroke-width: 0.2; stroke-linecap: round"/>
    <path d="M 2466.061984 487.742324 
L 2461.592973 487.909475 
L 2464.140658 484.233975 
z
" clip-path="url(#pe12e4e2e92)" style="stroke: #000000; stroke-width: 0.2; stroke-linecap: round"/>
   </g>
   <g id="patch_52">
    <path d="M 2448.973761 264.060997 
Q 2448.982813 372.363551 2448.991845 480.442498 
" clip-path="url(#pe12e4e2e92)" style="fill: none; stroke: #000000; stroke-width: 0.2; stroke-linecap: round"/>
    <path d="M 2450.991511 476.442331 
L 2448.991845 480.442498 
L 2446.991511 476.442666 
z
" clip-path="url(#pe12e4e2e92)" style="stroke: #000000; stroke-width: 0.2; stroke-linecap: round"/>
   </g>
   <g id="patch_53">
    <path d="M 340.342677 774.893036 
Q 299.519099 826.461967 258.834311 877.855577 
" clip-path="url(#pe12e4e2e92)" style="fill: none; stroke: #000000; stroke-width: 0.2; stroke-linecap: round"/>
    <path d="M 262.885173 875.960711 
L 258.834311 877.855577 
L 259.748936 873.477968 
z
" clip-path="url(#pe12e4e2e92)" style="stroke: #000000; stroke-width: 0.2; stroke-linecap: round"/>
   </g>
   <g id="patch_54">
    <path d="M 258.693779 878.033099 
Q 299.517357 826.464168 340.202145 775.070558 
" clip-path="url(#pe12e4e2e92)" style="fill: none; stroke: #000000; stroke-width: 0.2; stroke-linecap: round"/>
    <path d="M 336.151283 776.965424 
L 340.202145 775.070558 
L 339.28752 779.448167 
z
" clip-path="url(#pe12e4e2e92)" style="stroke: #000000; stroke-width: 0.2; stroke-linecap: round"/>
   </g>
   <g id="PathCollection_1">
    <defs>
     <path id="C0_0_62c20add5e" d="M 0 14.142136 
C 3.750538 14.142136 7.347969 12.652031 10 10 
C 12.652031 7.347969 14.142136 3.750538 14.142136 -0 
C 14.142136 -3.750538 12.652031 -7.347969 10 -10 
C 7.347969 -12.652031 3.750538 -14.142136 0 -14.142136 
C -3.750538 -14.142136 -7.347969 -12.652031 -10 -10 
C -12.652031 -7.347969 -14.142136 -3.750538 -14.142136 0 
C -14.142136 3.750538 -12.652031 7.347969 -10 10 
C -7.347969 12.652031 -3.750538 14.142136 0 14.142136 
z
"/>
    </defs>
    <g clip-path="url(#pe12e4e2e92)">
     <use xlink:href="#C0_0_62c20add5e" x="1486.912893" y="1814.661227" style="fill: #0000ff; stroke: #0000ff"/>
    </g>
    <g clip-path="url(#pe12e4e2e92)">
     <use xlink:href="#C0_0_62c20add5e" x="1688.065126" y="1870.695092" style="fill: #ffa500; stroke: #ffa500"/>
    </g>
    <g clip-path="url(#pe12e4e2e92)">
     <use xlink:href="#C0_0_62c20add5e" x="1478.064812" y="1534.362568" style="fill: #ffa500; stroke: #ffa500"/>
    </g>
    <g clip-path="url(#pe12e4e2e92)">
     <use xlink:href="#C0_0_62c20add5e" x="1622.790084" y="1788.731303" style="fill: #ffff00; stroke: #ffff00"/>
    </g>
    <g clip-path="url(#pe12e4e2e92)">
     <use xlink:href="#C0_0_62c20add5e" x="1547.040495" y="1976.404757" style="fill: #ffa500; stroke: #ffa500"/>
    </g>
    <g clip-path="url(#pe12e4e2e92)">
     <use xlink:href="#C0_0_62c20add5e" x="1505.274765" y="2092.988313" style="fill: #ffff00; stroke: #ffff00"/>
    </g>
    <g clip-path="url(#pe12e4e2e92)">
     <use xlink:href="#C0_0_62c20add5e" x="1840.050249" y="1883.247556" style="fill: #0000ff; stroke: #0000ff"/>
    </g>
    <g clip-path="url(#pe12e4e2e92)">
     <use xlink:href="#C0_0_62c20add5e" x="1748.626281" y="2070.42293" style="fill: #0000ff; stroke: #0000ff"/>
    </g>
    <g clip-path="url(#pe12e4e2e92)">
     <use xlink:href="#C0_0_62c20add5e" x="2037.526452" y="2241.865704" style="fill: #ffa500; stroke: #ffa500"/>
    </g>
    <g clip-path="url(#pe12e4e2e92)">
     <use xlink:href="#C0_0_62c20add5e" x="1962.367903" y="2141.429418" style="fill: #ffff00; stroke: #ffff00"/>
    </g>
    <g clip-path="url(#pe12e4e2e92)">
     <use xlink:href="#C0_0_62c20add5e" x="2154.750153" y="2392.742831" style="fill: #ffa500; stroke: #ffa500"/>
    </g>
    <g clip-path="url(#pe12e4e2e92)">
     <use xlink:href="#C0_0_62c20add5e" x="2261.572564" y="2300.691978" style="fill: #ffff00; stroke: #ffff00"/>
    </g>
    <g clip-path="url(#pe12e4e2e92)">
     <use xlink:href="#C0_0_62c20add5e" x="2303.817664" y="2630.082645" style="fill: #ffff00; stroke: #ffff00"/>
    </g>
    <g clip-path="url(#pe12e4e2e92)">
     <use xlink:href="#C0_0_62c20add5e" x="2448.993046" y="494.809747" style="fill: #ffa500; stroke: #ffa500"/>
    </g>
    <g clip-path="url(#pe12e4e2e92)">
     <use xlink:href="#C0_0_62c20add5e" x="2630.082645" y="395.637142" style="fill: #ffff00; stroke: #ffff00"/>
    </g>
    <g clip-path="url(#pe12e4e2e92)">
     <use xlink:href="#C0_0_62c20add5e" x="2448.972579" y="249.917355" style="fill: #ffff00; stroke: #ffff00"/>
    </g>
    <g clip-path="url(#pe12e4e2e92)">
     <use xlink:href="#C0_0_62c20add5e" x="349.1191" y="763.806531" style="fill: #0000ff; stroke: #0000ff"/>
    </g>
    <g clip-path="url(#pe12e4e2e92)">
     <use xlink:href="#C0_0_62c20add5e" x="249.917355" y="889.119604" style="fill: #ffa500; stroke: #ffa500"/>
    </g>
   </g>
   <g id="text_1">
    <g clip-path="url(#pe12e4e2e92)">
     <!-- VAL 5 -->
     <g transform="translate(1475.650393 1816.868727) scale(0.08 -0.08)">
      <defs>
       <path id="DejaVuSans-56" d="M 1831 0 
L 50 4666 
L 709 4666 
L 2188 738 
L 3669 4666 
L 4325 4666 
L 2547 0 
L 1831 0 
z
" transform="scale(0.015625)"/>
       <path id="DejaVuSans-41" d="M 2188 4044 
L 1331 1722 
L 3047 1722 
L 2188 4044 
z
M 1831 4666 
L 2547 4666 
L 4325 0 
L 3669 0 
L 3244 1197 
L 1141 1197 
L 716 0 
L 50 0 
L 1831 4666 
z
" transform="scale(0.015625)"/>
       <path id="DejaVuSans-4c" d="M 628 4666 
L 1259 4666 
L 1259 531 
L 3531 531 
L 3531 0 
L 628 0 
L 628 4666 
z
" transform="scale(0.015625)"/>
       <path id="DejaVuSans-20" transform="scale(0.015625)"/>
       <path id="DejaVuSans-35" d="M 691 4666 
L 3169 4666 
L 3169 4134 
L 1269 4134 
L 1269 2991 
Q 1406 3038 1543 3061 
Q 1681 3084 1819 3084 
Q 2600 3084 3056 2656 
Q 3513 2228 3513 1497 
Q 3513 744 3044 326 
Q 2575 -91 1722 -91 
Q 1428 -91 1123 -41 
Q 819 9 494 109 
L 494 744 
Q 775 591 1075 516 
Q 1375 441 1709 441 
Q 2250 441 2565 725 
Q 2881 1009 2881 1497 
Q 2881 1984 2565 2268 
Q 2250 2553 1709 2553 
Q 1456 2553 1204 2497 
Q 953 2441 691 2322 
L 691 4666 
z
" transform="scale(0.015625)"/>
      </defs>
      <use xlink:href="#DejaVuSans-56"/>
      <use xlink:href="#DejaVuSans-41" x="62.033203"/>
      <use xlink:href="#DejaVuSans-4c" x="130.441406"/>
      <use xlink:href="#DejaVuSans-20" x="186.154297"/>
      <use xlink:href="#DejaVuSans-35" x="217.941406"/>
     </g>
    </g>
   </g>
   <g id="text_2">
    <g clip-path="url(#pe12e4e2e92)">
     <!-- ILE 3 -->
     <g transform="translate(1678.312626 1872.902592) scale(0.08 -0.08)">
      <defs>
       <path id="DejaVuSans-49" d="M 628 4666 
L 1259 4666 
L 1259 0 
L 628 0 
L 628 4666 
z
" transform="scale(0.015625)"/>
       <path id="DejaVuSans-45" d="M 628 4666 
L 3578 4666 
L 3578 4134 
L 1259 4134 
L 1259 2753 
L 3481 2753 
L 3481 2222 
L 1259 2222 
L 1259 531 
L 3634 531 
L 3634 0 
L 628 0 
L 628 4666 
z
" transform="scale(0.015625)"/>
       <path id="DejaVuSans-33" d="M 2597 2516 
Q 3050 2419 3304 2112 
Q 3559 1806 3559 1356 
Q 3559 666 3084 287 
Q 2609 -91 1734 -91 
Q 1441 -91 1130 -33 
Q 819 25 488 141 
L 488 750 
Q 750 597 1062 519 
Q 1375 441 1716 441 
Q 2309 441 2620 675 
Q 2931 909 2931 1356 
Q 2931 1769 2642 2001 
Q 2353 2234 1838 2234 
L 1294 2234 
L 1294 2753 
L 1863 2753 
Q 2328 2753 2575 2939 
Q 2822 3125 2822 3475 
Q 2822 3834 2567 4026 
Q 2313 4219 1838 4219 
Q 1578 4219 1281 4162 
Q 984 4106 628 3988 
L 628 4550 
Q 988 4650 1302 4700 
Q 1616 4750 1894 4750 
Q 2613 4750 3031 4423 
Q 3450 4097 3450 3541 
Q 3450 3153 3228 2886 
Q 3006 2619 2597 2516 
z
" transform="scale(0.015625)"/>
      </defs>
      <use xlink:href="#DejaVuSans-49"/>
      <use xlink:href="#DejaVuSans-4c" x="29.492188"/>
      <use xlink:href="#DejaVuSans-45" x="85.205078"/>
      <use xlink:href="#DejaVuSans-20" x="148.388672"/>
      <use xlink:href="#DejaVuSans-33" x="180.175781"/>
     </g>
    </g>
   </g>
   <g id="text_3">
    <g clip-path="url(#pe12e4e2e92)">
     <!-- ILE 13 -->
     <g transform="translate(1465.767312 1536.570068) scale(0.08 -0.08)">
      <defs>
       <path id="DejaVuSans-31" d="M 794 531 
L 1825 531 
L 1825 4091 
L 703 3866 
L 703 4441 
L 1819 4666 
L 2450 4666 
L 2450 531 
L 3481 531 
L 3481 0 
L 794 0 
L 794 531 
z
" transform="scale(0.015625)"/>
      </defs>
      <use xlink:href="#DejaVuSans-49"/>
      <use xlink:href="#DejaVuSans-4c" x="29.492188"/>
      <use xlink:href="#DejaVuSans-45" x="85.205078"/>
      <use xlink:href="#DejaVuSans-20" x="148.388672"/>
      <use xlink:href="#DejaVuSans-31" x="180.175781"/>
      <use xlink:href="#DejaVuSans-33" x="243.798828"/>
     </g>
    </g>
   </g>
   <g id="text_4">
    <g clip-path="url(#pe12e4e2e92)">
     <!-- LEU 15 -->
     <g transform="translate(1608.745084 1790.938803) scale(0.08 -0.08)">
      <defs>
       <path id="DejaVuSans-55" d="M 556 4666 
L 1191 4666 
L 1191 1831 
Q 1191 1081 1462 751 
Q 1734 422 2344 422 
Q 2950 422 3222 751 
Q 3494 1081 3494 1831 
L 3494 4666 
L 4128 4666 
L 4128 1753 
Q 4128 841 3676 375 
Q 3225 -91 2344 -91 
Q 1459 -91 1007 375 
Q 556 841 556 1753 
L 556 4666 
z
" transform="scale(0.015625)"/>
      </defs>
      <use xlink:href="#DejaVuSans-4c"/>
      <use xlink:href="#DejaVuSans-45" x="55.712891"/>
      <use xlink:href="#DejaVuSans-55" x="118.896484"/>
      <use xlink:href="#DejaVuSans-20" x="192.089844"/>
      <use xlink:href="#DejaVuSans-31" x="223.876953"/>
      <use xlink:href="#DejaVuSans-35" x="287.5"/>
     </g>
    </g>
   </g>
   <g id="text_5">
    <g clip-path="url(#pe12e4e2e92)">
     <!-- ILE 30 -->
     <g transform="translate(1534.742995 1978.612257) scale(0.08 -0.08)">
      <defs>
       <path id="DejaVuSans-30" d="M 2034 4250 
Q 1547 4250 1301 3770 
Q 1056 3291 1056 2328 
Q 1056 1369 1301 889 
Q 1547 409 2034 409 
Q 2525 409 2770 889 
Q 3016 1369 3016 2328 
Q 3016 3291 2770 3770 
Q 2525 4250 2034 4250 
z
M 2034 4750 
Q 2819 4750 3233 4129 
Q 3647 3509 3647 2328 
Q 3647 1150 3233 529 
Q 2819 -91 2034 -91 
Q 1250 -91 836 529 
Q 422 1150 422 2328 
Q 422 3509 836 4129 
Q 1250 4750 2034 4750 
z
" transform="scale(0.015625)"/>
      </defs>
      <use xlink:href="#DejaVuSans-49"/>
      <use xlink:href="#DejaVuSans-4c" x="29.492188"/>
      <use xlink:href="#DejaVuSans-45" x="85.205078"/>
      <use xlink:href="#DejaVuSans-20" x="148.388672"/>
      <use xlink:href="#DejaVuSans-33" x="180.175781"/>
      <use xlink:href="#DejaVuSans-30" x="243.798828"/>
     </g>
    </g>
   </g>
   <g id="text_6">
    <g clip-path="url(#pe12e4e2e92)">
     <!-- LEU 43 -->
     <g transform="translate(1491.229765 2095.195813) scale(0.08 -0.08)">
      <defs>
       <path id="DejaVuSans-34" d="M 2419 4116 
L 825 1625 
L 2419 1625 
L 2419 4116 
z
M 2253 4666 
L 3047 4666 
L 3047 1625 
L 3713 1625 
L 3713 1100 
L 3047 1100 
L 3047 0 
L 2419 0 
L 2419 1100 
L 313 1100 
L 313 1709 
L 2253 4666 
z
" transform="scale(0.015625)"/>
      </defs>
      <use xlink:href="#DejaVuSans-4c"/>
      <use xlink:href="#DejaVuSans-45" x="55.712891"/>
      <use xlink:href="#DejaVuSans-55" x="118.896484"/>
      <use xlink:href="#DejaVuSans-20" x="192.089844"/>
      <use xlink:href="#DejaVuSans-34" x="223.876953"/>
      <use xlink:href="#DejaVuSans-33" x="287.5"/>
     </g>
    </g>
   </g>
   <g id="text_7">
    <g clip-path="url(#pe12e4e2e92)">
     <!-- VAL 17 -->
     <g transform="translate(1826.242749 1885.455056) scale(0.08 -0.08)">
      <defs>
       <path id="DejaVuSans-37" d="M 525 4666 
L 3525 4666 
L 3525 4397 
L 1831 0 
L 1172 0 
L 2766 4134 
L 525 4134 
L 525 4666 
z
" transform="scale(0.015625)"/>
      </defs>
      <use xlink:href="#DejaVuSans-56"/>
      <use xlink:href="#DejaVuSans-41" x="62.033203"/>
      <use xlink:href="#DejaVuSans-4c" x="130.441406"/>
      <use xlink:href="#DejaVuSans-20" x="186.154297"/>
      <use xlink:href="#DejaVuSans-31" x="217.941406"/>
      <use xlink:href="#DejaVuSans-37" x="281.564453"/>
     </g>
    </g>
   </g>
   <g id="text_8">
    <g clip-path="url(#pe12e4e2e92)">
     <!-- VAL 26 -->
     <g transform="translate(1734.818781 2072.63043) scale(0.08 -0.08)">
      <defs>
       <path id="DejaVuSans-32" d="M 1228 531 
L 3431 531 
L 3431 0 
L 469 0 
L 469 531 
Q 828 903 1448 1529 
Q 2069 2156 2228 2338 
Q 2531 2678 2651 2914 
Q 2772 3150 2772 3378 
Q 2772 3750 2511 3984 
Q 2250 4219 1831 4219 
Q 1534 4219 1204 4116 
Q 875 4013 500 3803 
L 500 4441 
Q 881 4594 1212 4672 
Q 1544 4750 1819 4750 
Q 2544 4750 2975 4387 
Q 3406 4025 3406 3419 
Q 3406 3131 3298 2873 
Q 3191 2616 2906 2266 
Q 2828 2175 2409 1742 
Q 1991 1309 1228 531 
z
" transform="scale(0.015625)"/>
       <path id="DejaVuSans-36" d="M 2113 2584 
Q 1688 2584 1439 2293 
Q 1191 2003 1191 1497 
Q 1191 994 1439 701 
Q 1688 409 2113 409 
Q 2538 409 2786 701 
Q 3034 994 3034 1497 
Q 3034 2003 2786 2293 
Q 2538 2584 2113 2584 
z
M 3366 4563 
L 3366 3988 
Q 3128 4100 2886 4159 
Q 2644 4219 2406 4219 
Q 1781 4219 1451 3797 
Q 1122 3375 1075 2522 
Q 1259 2794 1537 2939 
Q 1816 3084 2150 3084 
Q 2853 3084 3261 2657 
Q 3669 2231 3669 1497 
Q 3669 778 3244 343 
Q 2819 -91 2113 -91 
Q 1303 -91 875 529 
Q 447 1150 447 2328 
Q 447 3434 972 4092 
Q 1497 4750 2381 4750 
Q 2619 4750 2861 4703 
Q 3103 4656 3366 4563 
z
" transform="scale(0.015625)"/>
      </defs>
      <use xlink:href="#DejaVuSans-56"/>
      <use xlink:href="#DejaVuSans-41" x="62.033203"/>
      <use xlink:href="#DejaVuSans-4c" x="130.441406"/>
      <use xlink:href="#DejaVuSans-20" x="186.154297"/>
      <use xlink:href="#DejaVuSans-32" x="217.941406"/>
      <use xlink:href="#DejaVuSans-36" x="281.564453"/>
     </g>
    </g>
   </g>
   <g id="text_9">
    <g clip-path="url(#pe12e4e2e92)">
     <!-- ILE 23 -->
     <g transform="translate(2025.228952 2244.073204) scale(0.08 -0.08)">
      <use xlink:href="#DejaVuSans-49"/>
      <use xlink:href="#DejaVuSans-4c" x="29.492188"/>
      <use xlink:href="#DejaVuSans-45" x="85.205078"/>
      <use xlink:href="#DejaVuSans-20" x="148.388672"/>
      <use xlink:href="#DejaVuSans-32" x="180.175781"/>
      <use xlink:href="#DejaVuSans-33" x="243.798828"/>
     </g>
    </g>
   </g>
   <g id="text_10">
    <g clip-path="url(#pe12e4e2e92)">
     <!-- LEU 56 -->
     <g transform="translate(1948.322903 2143.636918) scale(0.08 -0.08)">
      <use xlink:href="#DejaVuSans-4c"/>
      <use xlink:href="#DejaVuSans-45" x="55.712891"/>
      <use xlink:href="#DejaVuSans-55" x="118.896484"/>
      <use xlink:href="#DejaVuSans-20" x="192.089844"/>
      <use xlink:href="#DejaVuSans-35" x="223.876953"/>
      <use xlink:href="#DejaVuSans-36" x="287.5"/>
     </g>
    </g>
   </g>
   <g id="text_11">
    <g clip-path="url(#pe12e4e2e92)">
     <!-- ILE 61 -->
     <g transform="translate(2142.452653 2394.950331) scale(0.08 -0.08)">
      <use xlink:href="#DejaVuSans-49"/>
      <use xlink:href="#DejaVuSans-4c" x="29.492188"/>
      <use xlink:href="#DejaVuSans-45" x="85.205078"/>
      <use xlink:href="#DejaVuSans-20" x="148.388672"/>
      <use xlink:href="#DejaVuSans-36" x="180.175781"/>
      <use xlink:href="#DejaVuSans-31" x="243.798828"/>
     </g>
    </g>
   </g>
   <g id="text_12">
    <g clip-path="url(#pe12e4e2e92)">
     <!-- LEU 50 -->
     <g transform="translate(2247.527564 2302.899478) scale(0.08 -0.08)">
      <use xlink:href="#DejaVuSans-4c"/>
      <use xlink:href="#DejaVuSans-45" x="55.712891"/>
      <use xlink:href="#DejaVuSans-55" x="118.896484"/>
      <use xlink:href="#DejaVuSans-20" x="192.089844"/>
      <use xlink:href="#DejaVuSans-35" x="223.876953"/>
      <use xlink:href="#DejaVuSans-30" x="287.5"/>
     </g>
    </g>
   </g>
   <g id="text_13">
    <g clip-path="url(#pe12e4e2e92)">
     <!-- LEU 67 -->
     <g transform="translate(2289.772664 2632.290145) scale(0.08 -0.08)">
      <use xlink:href="#DejaVuSans-4c"/>
      <use xlink:href="#DejaVuSans-45" x="55.712891"/>
      <use xlink:href="#DejaVuSans-55" x="118.896484"/>
      <use xlink:href="#DejaVuSans-20" x="192.089844"/>
      <use xlink:href="#DejaVuSans-36" x="223.876953"/>
      <use xlink:href="#DejaVuSans-37" x="287.5"/>
     </g>
    </g>
   </g>
   <g id="text_14">
    <g clip-path="url(#pe12e4e2e92)">
     <!-- ILE 36 -->
     <g transform="translate(2436.695546 497.017247) scale(0.08 -0.08)">
      <use xlink:href="#DejaVuSans-49"/>
      <use xlink:href="#DejaVuSans-4c" x="29.492188"/>
      <use xlink:href="#DejaVuSans-45" x="85.205078"/>
      <use xlink:href="#DejaVuSans-20" x="148.388672"/>
      <use xlink:href="#DejaVuSans-33" x="180.175781"/>
      <use xlink:href="#DejaVuSans-36" x="243.798828"/>
     </g>
    </g>
   </g>
   <g id="text_15">
    <g clip-path="url(#pe12e4e2e92)">
     <!-- LEU 69 -->
     <g transform="translate(2616.037645 397.844642) scale(0.08 -0.08)">
      <defs>
       <path id="DejaVuSans-39" d="M 703 97 
L 703 672 
Q 941 559 1184 500 
Q 1428 441 1663 441 
Q 2288 441 2617 861 
Q 2947 1281 2994 2138 
Q 2813 1869 2534 1725 
Q 2256 1581 1919 1581 
Q 1219 1581 811 2004 
Q 403 2428 403 3163 
Q 403 3881 828 4315 
Q 1253 4750 1959 4750 
Q 2769 4750 3195 4129 
Q 3622 3509 3622 2328 
Q 3622 1225 3098 567 
Q 2575 -91 1691 -91 
Q 1453 -91 1209 -44 
Q 966 3 703 97 
z
M 1959 2075 
Q 2384 2075 2632 2365 
Q 2881 2656 2881 3163 
Q 2881 3666 2632 3958 
Q 2384 4250 1959 4250 
Q 1534 4250 1286 3958 
Q 1038 3666 1038 3163 
Q 1038 2656 1286 2365 
Q 1534 2075 1959 2075 
z
" transform="scale(0.015625)"/>
      </defs>
      <use xlink:href="#DejaVuSans-4c"/>
      <use xlink:href="#DejaVuSans-45" x="55.712891"/>
      <use xlink:href="#DejaVuSans-55" x="118.896484"/>
      <use xlink:href="#DejaVuSans-20" x="192.089844"/>
      <use xlink:href="#DejaVuSans-36" x="223.876953"/>
      <use xlink:href="#DejaVuSans-39" x="287.5"/>
     </g>
    </g>
   </g>
   <g id="text_16">
    <g clip-path="url(#pe12e4e2e92)">
     <!-- LEU 71 -->
     <g transform="translate(2434.927579 252.124855) scale(0.08 -0.08)">
      <use xlink:href="#DejaVuSans-4c"/>
      <use xlink:href="#DejaVuSans-45" x="55.712891"/>
      <use xlink:href="#DejaVuSans-55" x="118.896484"/>
      <use xlink:href="#DejaVuSans-20" x="192.089844"/>
      <use xlink:href="#DejaVuSans-37" x="223.876953"/>
      <use xlink:href="#DejaVuSans-31" x="287.5"/>
     </g>
    </g>
   </g>
   <g id="text_17">
    <g clip-path="url(#pe12e4e2e92)">
     <!-- VAL 70 -->
     <g transform="translate(335.3116 766.014031) scale(0.08 -0.08)">
      <use xlink:href="#DejaVuSans-56"/>
      <use xlink:href="#DejaVuSans-41" x="62.033203"/>
      <use xlink:href="#DejaVuSans-4c" x="130.441406"/>
      <use xlink:href="#DejaVuSans-20" x="186.154297"/>
      <use xlink:href="#DejaVuSans-37" x="217.941406"/>
      <use xlink:href="#DejaVuSans-30" x="281.564453"/>
     </g>
    </g>
   </g>
   <g id="text_18">
    <g clip-path="url(#pe12e4e2e92)">
     <!-- ILE 44 -->
     <g transform="translate(237.619855 891.327104) scale(0.08 -0.08)">
      <use xlink:href="#DejaVuSans-49"/>
      <use xlink:href="#DejaVuSans-4c" x="29.492188"/>
      <use xlink:href="#DejaVuSans-45" x="85.205078"/>
      <use xlink:href="#DejaVuSans-20" x="148.388672"/>
      <use xlink:href="#DejaVuSans-34" x="180.175781"/>
      <use xlink:href="#DejaVuSans-34" x="243.798828"/>
     </g>
    </g>
   </g>
  </g>
  <g id="text_19">
   <!-- G_NMR -->
   <g transform="translate(1418.51625 66.50625) scale(0.12 -0.12)">
    <defs>
     <path id="DejaVuSans-47" d="M 3809 666 
L 3809 1919 
L 2778 1919 
L 2778 2438 
L 4434 2438 
L 4434 434 
Q 4069 175 3628 42 
Q 3188 -91 2688 -91 
Q 1594 -91 976 548 
Q 359 1188 359 2328 
Q 359 3472 976 4111 
Q 1594 4750 2688 4750 
Q 3144 4750 3555 4637 
Q 3966 4525 4313 4306 
L 4313 3634 
Q 3963 3931 3569 4081 
Q 3175 4231 2741 4231 
Q 1884 4231 1454 3753 
Q 1025 3275 1025 2328 
Q 1025 1384 1454 906 
Q 1884 428 2741 428 
Q 3075 428 3337 486 
Q 3600 544 3809 666 
z
" transform="scale(0.015625)"/>
     <path id="DejaVuSans-5f" d="M 3263 -1063 
L 3263 -1509 
L -63 -1509 
L -63 -1063 
L 3263 -1063 
z
" transform="scale(0.015625)"/>
     <path id="DejaVuSans-4e" d="M 628 4666 
L 1478 4666 
L 3547 763 
L 3547 4666 
L 4159 4666 
L 4159 0 
L 3309 0 
L 1241 3903 
L 1241 0 
L 628 0 
L 628 4666 
z
" transform="scale(0.015625)"/>
     <path id="DejaVuSans-4d" d="M 628 4666 
L 1569 4666 
L 2759 1491 
L 3956 4666 
L 4897 4666 
L 4897 0 
L 4281 0 
L 4281 4097 
L 3078 897 
L 2444 897 
L 1241 4097 
L 1241 0 
L 628 0 
L 628 4666 
z
" transform="scale(0.015625)"/>
     <path id="DejaVuSans-52" d="M 2841 2188 
Q 3044 2119 3236 1894 
Q 3428 1669 3622 1275 
L 4263 0 
L 3584 0 
L 2988 1197 
Q 2756 1666 2539 1819 
Q 2322 1972 1947 1972 
L 1259 1972 
L 1259 0 
L 628 0 
L 628 4666 
L 2053 4666 
Q 2853 4666 3247 4331 
Q 3641 3997 3641 3322 
Q 3641 2881 3436 2590 
Q 3231 2300 2841 2188 
z
M 1259 4147 
L 1259 2491 
L 2053 2491 
Q 2509 2491 2742 2702 
Q 2975 2913 2975 3322 
Q 2975 3731 2742 3939 
Q 2509 4147 2053 4147 
L 1259 4147 
z
" transform="scale(0.015625)"/>
    </defs>
    <use xlink:href="#DejaVuSans-47"/>
    <use xlink:href="#DejaVuSans-5f" x="77.490234"/>
    <use xlink:href="#DejaVuSans-4e" x="127.490234"/>
    <use xlink:href="#DejaVuSans-4d" x="202.294922"/>
    <use xlink:href="#DejaVuSans-52" x="288.574219"/>
   </g>
  </g>
 </g>
 <defs>
  <clipPath id="pe12e4e2e92">
   <rect x="0" y="0" width="2880" height="2880"/>
  </clipPath>
 </defs>
</svg>
