<?xml version="1.0" encoding="utf-8" standalone="no"?>
<!DOCTYPE svg PUBLIC "-//W3C//DTD SVG 1.1//EN"
  "http://www.w3.org/Graphics/SVG/1.1/DTD/svg11.dtd">
<svg xmlns:xlink="http://www.w3.org/1999/xlink" width="2880pt" height="2880pt" viewBox="0 0 2880 2880" xmlns="http://www.w3.org/2000/svg" version="1.1">
 <metadata>
  <rdf:RDF xmlns:dc="http://purl.org/dc/elements/1.1/" xmlns:cc="http://creativecommons.org/ns#" xmlns:rdf="http://www.w3.org/1999/02/22-rdf-syntax-ns#">
   <cc:Work>
    <dc:type rdf:resource="http://purl.org/dc/dcmitype/StillImage"/>
    <dc:date>2024-09-22T07:45:59.034730</dc:date>
    <dc:format>image/svg+xml</dc:format>
    <dc:creator>
     <cc:Agent>
      <dc:title>Matplotlib v3.8.2, https://matplotlib.org/</dc:title>
     </cc:Agent>
    </dc:creator>
   </cc:Work>
  </rdf:RDF>
 </metadata>
 <defs>
  <style type="text/css">*{stroke-linejoin: round; stroke-linecap: butt}</style>
 </defs>
 <g id="figure_1">
  <g id="patch_1">
   <path d="M 0 2880 
L 2880 2880 
L 2880 0 
L 0 0 
z
" style="fill: #ffffff"/>
  </g>
  <g id="axes_1">
   <g id="patch_2">
    <path d="M 461.771998 1327.612538 
Q 492.654101 1226.260752 523.471029 1125.122864 
" clip-path="url(#p6c00c43755)" style="fill: none; stroke: #000000; stroke-width: 0.2; stroke-linecap: round"/>
    <path d="M 520.391983 1128.366238 
L 523.471029 1125.122864 
L 524.218301 1129.532125 
z
" clip-path="url(#p6c00c43755)" style="stroke: #000000; stroke-width: 0.2; stroke-linecap: round"/>
   </g>
   <g id="patch_3">
    <path d="M 443.965799 1337.582208 
Q 353.7858 1314.122884 263.822205 1290.719856 
" clip-path="url(#p6c00c43755)" style="fill: none; stroke: #000000; stroke-width: 0.2; stroke-linecap: round"/>
    <path d="M 267.189845 1293.662474 
L 263.822205 1290.719856 
L 268.196884 1289.791315 
z
" clip-path="url(#p6c00c43755)" style="stroke: #000000; stroke-width: 0.2; stroke-linecap: round"/>
   </g>
   <g id="patch_4">
    <path d="M 457.573786 1326.998021 
Q 457.195795 1256.457555 456.819002 1186.140692 
" clip-path="url(#p6c00c43755)" style="fill: none; stroke: #000000; stroke-width: 0.2; stroke-linecap: round"/>
    <path d="M 454.840464 1190.151352 
L 456.819002 1186.140692 
L 458.840407 1190.129918 
z
" clip-path="url(#p6c00c43755)" style="stroke: #000000; stroke-width: 0.2; stroke-linecap: round"/>
   </g>
   <g id="patch_5">
    <path d="M 470.677094 1335.642619 
Q 517.826086 1315.73974 564.769072 1295.923822 
" clip-path="url(#p6c00c43755)" style="fill: none; stroke: #000000; stroke-width: 0.2; stroke-linecap: round"/>
    <path d="M 560.306153 1295.636852 
L 564.769072 1295.923822 
L 561.861744 1299.321975 
z
" clip-path="url(#p6c00c43755)" style="stroke: #000000; stroke-width: 0.2; stroke-linecap: round"/>
   </g>
   <g id="patch_6">
    <path d="M 471.721243 1342.551458 
Q 555.860946 1350.979783 639.778156 1359.38582 
" clip-path="url(#p6c00c43755)" style="fill: none; stroke: #000000; stroke-width: 0.2; stroke-linecap: round"/>
    <path d="M 635.997418 1356.997092 
L 639.778156 1359.38582 
L 635.598731 1360.977174 
z
" clip-path="url(#p6c00c43755)" style="stroke: #000000; stroke-width: 0.2; stroke-linecap: round"/>
   </g>
   <g id="patch_7">
    <path d="M 523.536758 1124.90715 
Q 492.654654 1226.258936 461.837726 1327.396824 
" clip-path="url(#p6c00c43755)" style="fill: none; stroke: #000000; stroke-width: 0.2; stroke-linecap: round"/>
    <path d="M 464.916772 1324.15345 
L 461.837726 1327.396824 
L 461.090455 1322.987563 
z
" clip-path="url(#p6c00c43755)" style="stroke: #000000; stroke-width: 0.2; stroke-linecap: round"/>
   </g>
   <g id="patch_8">
    <path d="M 516.892188 1120.547943 
Q 492.201035 1141.577164 467.680114 1162.461399 
" clip-path="url(#p6c00c43755)" style="fill: none; stroke: #000000; stroke-width: 0.2; stroke-linecap: round"/>
    <path d="M 472.02212 1161.390426 
L 467.680114 1162.461399 
L 469.428539 1158.345211 
z
" clip-path="url(#p6c00c43755)" style="stroke: #000000; stroke-width: 0.2; stroke-linecap: round"/>
   </g>
   <g id="patch_9">
    <path d="M 527.933008 1097.238537 
Q 529.478102 1017.456798 531.018866 937.898624 
" clip-path="url(#p6c00c43755)" style="fill: none; stroke: #000000; stroke-width: 0.2; stroke-linecap: round"/>
    <path d="M 528.941789 941.859148 
L 531.018866 937.898624 
L 532.941039 941.9366 
z
" clip-path="url(#p6c00c43755)" style="stroke: #000000; stroke-width: 0.2; stroke-linecap: round"/>
   </g>
   <g id="patch_10">
    <path d="M 541.285081 1107.579815 
Q 601.411172 1090.820716 661.321867 1074.121655 
" clip-path="url(#p6c00c43755)" style="fill: none; stroke: #000000; stroke-width: 0.2; stroke-linecap: round"/>
    <path d="M 656.931751 1073.269084 
L 661.321867 1074.121655 
L 658.005741 1077.122206 
z
" clip-path="url(#p6c00c43755)" style="stroke: #000000; stroke-width: 0.2; stroke-linecap: round"/>
   </g>
   <g id="patch_11">
    <path d="M 262.266369 1280.216856 
Q 353.327428 1229.441225 444.193188 1178.774493 
" clip-path="url(#p6c00c43755)" style="fill: none; stroke: #000000; stroke-width: 0.2; stroke-linecap: round"/>
    <path d="M 439.725582 1178.975723 
L 444.193188 1178.774493 
L 441.673609 1182.469316 
z
" clip-path="url(#p6c00c43755)" style="stroke: #000000; stroke-width: 0.2; stroke-linecap: round"/>
   </g>
   <g id="patch_12">
    <path d="M 467.509027 1162.607113 
Q 492.20018 1141.577892 516.721101 1120.693656 
" clip-path="url(#p6c00c43755)" style="fill: none; stroke: #000000; stroke-width: 0.2; stroke-linecap: round"/>
    <path d="M 512.379095 1121.764629 
L 516.721101 1120.693656 
L 514.972676 1124.809845 
z
" clip-path="url(#p6c00c43755)" style="stroke: #000000; stroke-width: 0.2; stroke-linecap: round"/>
   </g>
   <g id="patch_13">
    <path d="M 456.817825 1185.921128 
Q 457.195816 1256.461594 457.572609 1326.778456 
" clip-path="url(#p6c00c43755)" style="fill: none; stroke: #000000; stroke-width: 0.2; stroke-linecap: round"/>
    <path d="M 459.551147 1322.767797 
L 457.572609 1326.778456 
L 455.551204 1322.78923 
z
" clip-path="url(#p6c00c43755)" style="stroke: #000000; stroke-width: 0.2; stroke-linecap: round"/>
   </g>
   <g id="patch_14">
    <path d="M 444.393021 1178.663066 
Q 353.331963 1229.438696 262.466202 1280.105429 
" clip-path="url(#p6c00c43755)" style="fill: none; stroke: #000000; stroke-width: 0.2; stroke-linecap: round"/>
    <path d="M 266.933809 1279.904199 
L 262.466202 1280.105429 
L 264.985782 1276.410606 
z
" clip-path="url(#p6c00c43755)" style="stroke: #000000; stroke-width: 0.2; stroke-linecap: round"/>
   </g>
   <g id="patch_15">
    <path d="M 460.809024 1158.235577 
Q 494.01861 1047.659017 527.163878 937.296614 
" clip-path="url(#p6c00c43755)" style="fill: none; stroke: #000000; stroke-width: 0.2; stroke-linecap: round"/>
    <path d="M 524.097845 940.552293 
L 527.163878 937.296614 
L 527.928801 941.702848 
z
" clip-path="url(#p6c00c43755)" style="stroke: #000000; stroke-width: 0.2; stroke-linecap: round"/>
   </g>
   <g id="patch_16">
    <path d="M 469.563458 1165.818357 
Q 565.952277 1121.020564 662.138319 1076.317015 
" clip-path="url(#p6c00c43755)" style="fill: none; stroke: #000000; stroke-width: 0.2; stroke-linecap: round"/>
    <path d="M 657.66801 1076.189191 
L 662.138319 1076.317015 
L 659.353874 1079.816567 
z
" clip-path="url(#p6c00c43755)" style="stroke: #000000; stroke-width: 0.2; stroke-linecap: round"/>
   </g>
   <g id="patch_17">
    <path d="M 466.853715 1181.663983 
Q 517.371563 1231.057958 567.729529 1280.295607 
" clip-path="url(#p6c00c43755)" style="fill: none; stroke: #000000; stroke-width: 0.2; stroke-linecap: round"/>
    <path d="M 566.267684 1276.069142 
L 567.729529 1280.295607 
L 563.471249 1278.929204 
z
" clip-path="url(#p6c00c43755)" style="stroke: #000000; stroke-width: 0.2; stroke-linecap: round"/>
   </g>
   <g id="patch_18">
    <path d="M 564.973264 1295.837627 
Q 517.824272 1315.740506 470.881285 1335.556424 
" clip-path="url(#p6c00c43755)" style="fill: none; stroke: #000000; stroke-width: 0.2; stroke-linecap: round"/>
    <path d="M 475.344205 1335.843394 
L 470.881285 1335.556424 
L 473.788613 1332.158271 
z
" clip-path="url(#p6c00c43755)" style="stroke: #000000; stroke-width: 0.2; stroke-linecap: round"/>
   </g>
   <g id="patch_19">
    <path d="M 567.889102 1280.451631 
Q 517.371254 1231.057656 467.013289 1181.820006 
" clip-path="url(#p6c00c43755)" style="fill: none; stroke: #000000; stroke-width: 0.2; stroke-linecap: round"/>
    <path d="M 468.475134 1186.046472 
L 467.013289 1181.820006 
L 471.271568 1183.186409 
z
" clip-path="url(#p6c00c43755)" style="stroke: #000000; stroke-width: 0.2; stroke-linecap: round"/>
   </g>
   <g id="patch_20">
    <path d="M 583.713144 1277.399703 
Q 626.582273 1180.299975 669.361091 1083.404804 
" clip-path="url(#p6c00c43755)" style="fill: none; stroke: #000000; stroke-width: 0.2; stroke-linecap: round"/>
    <path d="M 665.915932 1086.256274 
L 669.361091 1083.404804 
L 669.575171 1087.871813 
z
" clip-path="url(#p6c00c43755)" style="stroke: #000000; stroke-width: 0.2; stroke-linecap: round"/>
   </g>
   <g id="patch_21">
    <path d="M 588.375535 1299.950529 
Q 616.035872 1325.577739 643.532182 1351.052978 
" clip-path="url(#p6c00c43755)" style="fill: none; stroke: #000000; stroke-width: 0.2; stroke-linecap: round"/>
    <path d="M 641.957241 1346.86734 
L 643.532182 1351.052978 
L 639.238707 1349.801548 
z
" clip-path="url(#p6c00c43755)" style="stroke: #000000; stroke-width: 0.2; stroke-linecap: round"/>
   </g>
   <g id="patch_22">
    <path d="M 639.9998 1359.408022 
Q 555.860096 1350.979698 471.942886 1342.57366 
" clip-path="url(#p6c00c43755)" style="fill: none; stroke: #000000; stroke-width: 0.2; stroke-linecap: round"/>
    <path d="M 475.723624 1344.962388 
L 471.942886 1342.57366 
L 476.122311 1340.982306 
z
" clip-path="url(#p6c00c43755)" style="stroke: #000000; stroke-width: 0.2; stroke-linecap: round"/>
   </g>
   <g id="patch_23">
    <path d="M 655.095203 1346.714626 
Q 664.617186 1215.540076 674.12298 1084.588547 
" clip-path="url(#p6c00c43755)" style="fill: none; stroke: #000000; stroke-width: 0.2; stroke-linecap: round"/>
    <path d="M 671.83863 1088.43325 
L 674.12298 1084.588547 
L 675.828133 1088.722849 
z
" clip-path="url(#p6c00c43755)" style="stroke: #000000; stroke-width: 0.2; stroke-linecap: round"/>
   </g>
   <g id="patch_24">
    <path d="M 643.696714 1351.205416 
Q 616.036377 1325.578207 588.540067 1300.102968 
" clip-path="url(#p6c00c43755)" style="fill: none; stroke: #000000; stroke-width: 0.2; stroke-linecap: round"/>
    <path d="M 590.115008 1304.288605 
L 588.540067 1300.102968 
L 592.833542 1301.354398 
z
" clip-path="url(#p6c00c43755)" style="stroke: #000000; stroke-width: 0.2; stroke-linecap: round"/>
   </g>
   <g id="patch_25">
    <path d="M 531.023219 937.673838 
Q 529.478125 1017.455577 527.937361 1097.013751 
" clip-path="url(#p6c00c43755)" style="fill: none; stroke: #000000; stroke-width: 0.2; stroke-linecap: round"/>
    <path d="M 530.014438 1093.053226 
L 527.937361 1097.013751 
L 526.015188 1092.975775 
z
" clip-path="url(#p6c00c43755)" style="stroke: #000000; stroke-width: 0.2; stroke-linecap: round"/>
   </g>
   <g id="patch_26">
    <path d="M 527.230058 937.076258 
Q 494.020472 1047.652818 460.875204 1158.015221 
" clip-path="url(#p6c00c43755)" style="fill: none; stroke: #000000; stroke-width: 0.2; stroke-linecap: round"/>
    <path d="M 463.941237 1154.759543 
L 460.875204 1158.015221 
L 460.110281 1153.608987 
z
" clip-path="url(#p6c00c43755)" style="stroke: #000000; stroke-width: 0.2; stroke-linecap: round"/>
   </g>
   <g id="patch_27">
    <path d="M 542.575097 915.000986 
Q 621.411133 855.349321 700.068855 795.832578 
" clip-path="url(#p6c00c43755)" style="fill: none; stroke: #000000; stroke-width: 0.2; stroke-linecap: round"/>
    <path d="M 695.672291 796.651251 
L 700.068855 795.832578 
L 698.085855 799.841033 
z
" clip-path="url(#p6c00c43755)" style="stroke: #000000; stroke-width: 0.2; stroke-linecap: round"/>
   </g>
   <g id="patch_28">
    <path d="M 661.53692 1074.061712 
Q 601.410829 1090.820812 541.500133 1107.519873 
" clip-path="url(#p6c00c43755)" style="fill: none; stroke: #000000; stroke-width: 0.2; stroke-linecap: round"/>
    <path d="M 545.89025 1108.372444 
L 541.500133 1107.519873 
L 544.81626 1104.519322 
z
" clip-path="url(#p6c00c43755)" style="stroke: #000000; stroke-width: 0.2; stroke-linecap: round"/>
   </g>
   <g id="patch_29">
    <path d="M 662.341398 1076.222631 
Q 565.952579 1121.020424 469.766537 1165.723974 
" clip-path="url(#p6c00c43755)" style="fill: none; stroke: #000000; stroke-width: 0.2; stroke-linecap: round"/>
    <path d="M 474.236846 1165.851798 
L 469.766537 1165.723974 
L 472.550982 1162.224421 
z
" clip-path="url(#p6c00c43755)" style="stroke: #000000; stroke-width: 0.2; stroke-linecap: round"/>
   </g>
   <g id="patch_30">
    <path d="M 681.941643 1057.853708 
Q 756.21574 921.87976 830.382644 786.102051 
" clip-path="url(#p6c00c43755)" style="fill: none; stroke: #000000; stroke-width: 0.2; stroke-linecap: round"/>
    <path d="M 826.709904 788.653713 
L 830.382644 786.102051 
L 830.22033 790.57124 
z
" clip-path="url(#p6c00c43755)" style="stroke: #000000; stroke-width: 0.2; stroke-linecap: round"/>
   </g>
   <g id="patch_31">
    <path d="M 669.450459 1083.202383 
Q 626.58133 1180.302111 583.802512 1277.197282 
" clip-path="url(#p6c00c43755)" style="fill: none; stroke: #000000; stroke-width: 0.2; stroke-linecap: round"/>
    <path d="M 587.247671 1274.345812 
L 583.802512 1277.197282 
L 583.588432 1272.730273 
z
" clip-path="url(#p6c00c43755)" style="stroke: #000000; stroke-width: 0.2; stroke-linecap: round"/>
   </g>
   <g id="patch_32">
    <path d="M 674.139084 1084.366694 
Q 664.617101 1215.541244 655.111308 1346.492773 
" clip-path="url(#p6c00c43755)" style="fill: none; stroke: #000000; stroke-width: 0.2; stroke-linecap: round"/>
    <path d="M 657.395658 1342.64807 
L 655.111308 1346.492773 
L 653.406155 1342.358471 
z
" clip-path="url(#p6c00c43755)" style="stroke: #000000; stroke-width: 0.2; stroke-linecap: round"/>
   </g>
   <g id="patch_33">
    <path d="M 676.964437 1056.237452 
Q 693.344139 928.715179 709.695354 801.414691 
" clip-path="url(#p6c00c43755)" style="fill: none; stroke: #000000; stroke-width: 0.2; stroke-linecap: round"/>
    <path d="M 707.202054 805.127299 
L 709.695354 801.414691 
L 711.16946 805.636896 
z
" clip-path="url(#p6c00c43755)" style="stroke: #000000; stroke-width: 0.2; stroke-linecap: round"/>
   </g>
   <g id="patch_34">
    <path d="M 830.49197 785.901907 
Q 756.217873 921.875855 682.050969 1057.653564 
" clip-path="url(#p6c00c43755)" style="fill: none; stroke: #000000; stroke-width: 0.2; stroke-linecap: round"/>
    <path d="M 685.723709 1055.101901 
L 682.050969 1057.653564 
L 682.213283 1053.184374 
z
" clip-path="url(#p6c00c43755)" style="stroke: #000000; stroke-width: 0.2; stroke-linecap: round"/>
   </g>
   <g id="patch_35">
    <path d="M 845.663478 762.105984 
Q 904.005461 682.956582 962.21477 603.987173 
" clip-path="url(#p6c00c43755)" style="fill: none; stroke: #000000; stroke-width: 0.2; stroke-linecap: round"/>
    <path d="M 958.231506 606.020302 
L 962.21477 603.987173 
L 961.451315 608.393661 
z
" clip-path="url(#p6c00c43755)" style="stroke: #000000; stroke-width: 0.2; stroke-linecap: round"/>
   </g>
   <g id="patch_36">
    <path d="M 823.214282 775.020188 
Q 774.400015 780.327552 725.808045 785.610747 
" clip-path="url(#p6c00c43755)" style="fill: none; stroke: #000000; stroke-width: 0.2; stroke-linecap: round"/>
    <path d="M 730.000787 787.166675 
L 725.808045 785.610747 
L 729.568432 783.19011 
z
" clip-path="url(#p6c00c43755)" style="stroke: #000000; stroke-width: 0.2; stroke-linecap: round"/>
   </g>
   <g id="patch_37">
    <path d="M 837.525802 759.354757 
Q 839.440609 653.202388 841.351384 547.273588 
" clip-path="url(#p6c00c43755)" style="fill: none; stroke: #000000; stroke-width: 0.2; stroke-linecap: round"/>
    <path d="M 839.279568 551.236867 
L 841.351384 547.273588 
L 843.278917 551.309008 
z
" clip-path="url(#p6c00c43755)" style="stroke: #000000; stroke-width: 0.2; stroke-linecap: round"/>
   </g>
   <g id="patch_38">
    <path d="M 700.247798 795.697179 
Q 621.411762 855.348845 542.754041 914.865588 
" clip-path="url(#p6c00c43755)" style="fill: none; stroke: #000000; stroke-width: 0.2; stroke-linecap: round"/>
    <path d="M 547.150605 914.046915 
L 542.754041 914.865588 
L 544.737041 910.857133 
z
" clip-path="url(#p6c00c43755)" style="stroke: #000000; stroke-width: 0.2; stroke-linecap: round"/>
   </g>
   <g id="patch_39">
    <path d="M 725.582359 785.635285 
Q 774.396626 780.327921 822.988596 775.044726 
" clip-path="url(#p6c00c43755)" style="fill: none; stroke: #000000; stroke-width: 0.2; stroke-linecap: round"/>
    <path d="M 818.795854 773.488798 
L 822.988596 775.044726 
L 819.228208 777.465363 
z
" clip-path="url(#p6c00c43755)" style="stroke: #000000; stroke-width: 0.2; stroke-linecap: round"/>
   </g>
   <g id="patch_40">
    <path d="M 709.724232 801.189866 
Q 693.34453 928.712139 676.993315 1056.012627 
" clip-path="url(#p6c00c43755)" style="fill: none; stroke: #000000; stroke-width: 0.2; stroke-linecap: round"/>
    <path d="M 679.486615 1052.30002 
L 676.993315 1056.012627 
L 675.519209 1051.790423 
z
" clip-path="url(#p6c00c43755)" style="stroke: #000000; stroke-width: 0.2; stroke-linecap: round"/>
   </g>
   <g id="patch_41">
    <path d="M 717.966961 774.574153 
Q 776.567286 660.037266 835.065764 545.699445 
" clip-path="url(#p6c00c43755)" style="fill: none; stroke: #000000; stroke-width: 0.2; stroke-linecap: round"/>
    <path d="M 831.463363 548.349485 
L 835.065764 545.699445 
L 835.024355 550.17139 
z
" clip-path="url(#p6c00c43755)" style="stroke: #000000; stroke-width: 0.2; stroke-linecap: round"/>
   </g>
   <g id="patch_42">
    <path d="M 841.355515 547.044552 
Q 839.440708 653.196922 837.529933 759.125722 
" clip-path="url(#p6c00c43755)" style="fill: none; stroke: #000000; stroke-width: 0.2; stroke-linecap: round"/>
    <path d="M 839.601749 755.162443 
L 837.529933 759.125722 
L 835.6024 755.090301 
z
" clip-path="url(#p6c00c43755)" style="stroke: #000000; stroke-width: 0.2; stroke-linecap: round"/>
   </g>
   <g id="patch_43">
    <path d="M 854.453241 538.826617 
Q 906.174699 562.66497 957.693081 586.409725 
" clip-path="url(#p6c00c43755)" style="fill: none; stroke: #000000; stroke-width: 0.2; stroke-linecap: round"/>
    <path d="M 954.897518 582.919048 
L 957.693081 586.409725 
L 953.223202 586.551769 
z
" clip-path="url(#p6c00c43755)" style="stroke: #000000; stroke-width: 0.2; stroke-linecap: round"/>
   </g>
   <g id="patch_44">
    <path d="M 835.169412 545.496861 
Q 776.569087 660.033747 718.070609 774.371568 
" clip-path="url(#p6c00c43755)" style="fill: none; stroke: #000000; stroke-width: 0.2; stroke-linecap: round"/>
    <path d="M 721.67301 771.721529 
L 718.070609 774.371568 
L 718.112018 769.899624 
z
" clip-path="url(#p6c00c43755)" style="stroke: #000000; stroke-width: 0.2; stroke-linecap: round"/>
   </g>
   <g id="patch_45">
    <path d="M 843.328585 518.869328 
Q 858.927387 391.413031 874.499027 264.178684 
" clip-path="url(#p6c00c43755)" style="fill: none; stroke: #000000; stroke-width: 0.2; stroke-linecap: round"/>
    <path d="M 872.027922 267.906102 
L 874.499027 264.178684 
L 875.998298 268.392019 
z
" clip-path="url(#p6c00c43755)" style="stroke: #000000; stroke-width: 0.2; stroke-linecap: round"/>
   </g>
   <g id="patch_46">
    <path d="M 962.346447 603.808534 
Q 904.004464 682.957936 845.795155 761.927344 
" clip-path="url(#p6c00c43755)" style="fill: none; stroke: #000000; stroke-width: 0.2; stroke-linecap: round"/>
    <path d="M 849.778419 759.894216 
L 845.795155 761.927344 
L 846.558611 757.520856 
z
" clip-path="url(#p6c00c43755)" style="stroke: #000000; stroke-width: 0.2; stroke-linecap: round"/>
   </g>
   <g id="patch_47">
    <path d="M 957.896416 586.503442 
Q 906.174959 562.665089 854.656576 538.920334 
" clip-path="url(#p6c00c43755)" style="fill: none; stroke: #000000; stroke-width: 0.2; stroke-linecap: round"/>
    <path d="M 857.452139 542.411011 
L 854.656576 538.920334 
L 859.126456 538.778289 
z
" clip-path="url(#p6c00c43755)" style="stroke: #000000; stroke-width: 0.2; stroke-linecap: round"/>
   </g>
   <g id="patch_48">
    <path d="M 874.526347 263.955452 
Q 858.927544 391.41175 843.355905 518.646096 
" clip-path="url(#p6c00c43755)" style="fill: none; stroke: #000000; stroke-width: 0.2; stroke-linecap: round"/>
    <path d="M 845.827009 514.918678 
L 843.355905 518.646096 
L 841.856633 514.432762 
z
" clip-path="url(#p6c00c43755)" style="stroke: #000000; stroke-width: 0.2; stroke-linecap: round"/>
   </g>
   <g id="patch_49">
    <path d="M 1771.628449 2505.989187 
Q 1727.956738 2562.444363 1684.421843 2618.722675 
" clip-path="url(#p6c00c43755)" style="fill: none; stroke: #000000; stroke-width: 0.2; stroke-linecap: round"/>
    <path d="M 1688.45122 2616.78254 
L 1684.421843 2618.722675 
L 1685.287362 2614.335093 
z
" clip-path="url(#p6c00c43755)" style="stroke: #000000; stroke-width: 0.2; stroke-linecap: round"/>
   </g>
   <g id="patch_50">
    <path d="M 1794.407411 2495.40573 
Q 1854.770083 2497.980051 1914.90935 2500.544845 
" clip-path="url(#p6c00c43755)" style="fill: none; stroke: #000000; stroke-width: 0.2; stroke-linecap: round"/>
    <path d="M 1910.998201 2498.376226 
L 1914.90935 2500.544845 
L 1910.827765 2502.372593 
z
" clip-path="url(#p6c00c43755)" style="stroke: #000000; stroke-width: 0.2; stroke-linecap: round"/>
   </g>
   <g id="patch_51">
    <path d="M 1684.287185 2618.89675 
Q 1727.958896 2562.441573 1771.49379 2506.163262 
" clip-path="url(#p6c00c43755)" style="fill: none; stroke: #000000; stroke-width: 0.2; stroke-linecap: round"/>
    <path d="M 1767.464413 2508.103396 
L 1771.49379 2506.163262 
L 1770.628272 2510.550844 
z
" clip-path="url(#p6c00c43755)" style="stroke: #000000; stroke-width: 0.2; stroke-linecap: round"/>
   </g>
   <g id="patch_52">
    <path d="M 1915.134979 2500.554468 
Q 1854.772308 2497.980146 1794.63304 2495.415352 
" clip-path="url(#p6c00c43755)" style="fill: none; stroke: #000000; stroke-width: 0.2; stroke-linecap: round"/>
    <path d="M 1798.544189 2497.583971 
L 1794.63304 2495.415352 
L 1798.714625 2493.587604 
z
" clip-path="url(#p6c00c43755)" style="stroke: #000000; stroke-width: 0.2; stroke-linecap: round"/>
   </g>
   <g id="patch_53">
    <path d="M 2498.947472 1149.035286 
Q 2557.581718 1137.339984 2615.996677 1125.688422 
" clip-path="url(#p6c00c43755)" style="fill: none; stroke: #000000; stroke-width: 0.2; stroke-linecap: round"/>
    <path d="M 2611.682732 1124.509493 
L 2615.996677 1125.688422 
L 2612.465167 1128.432222 
z
" clip-path="url(#p6c00c43755)" style="stroke: #000000; stroke-width: 0.2; stroke-linecap: round"/>
   </g>
   <g id="patch_54">
    <path d="M 2616.209302 1125.646012 
Q 2557.575055 1137.341313 2499.160096 1148.992875 
" clip-path="url(#p6c00c43755)" style="fill: none; stroke: #000000; stroke-width: 0.2; stroke-linecap: round"/>
    <path d="M 2503.474042 1150.171804 
L 2499.160096 1148.992875 
L 2502.691607 1146.249076 
z
" clip-path="url(#p6c00c43755)" style="stroke: #000000; stroke-width: 0.2; stroke-linecap: round"/>
   </g>
   <g id="PathCollection_1">
    <defs>
     <path id="C0_0_69480e38e7" d="M 0 14.142136 
C 3.750538 14.142136 7.347969 12.652031 10 10 
C 12.652031 7.347969 14.142136 3.750538 14.142136 -0 
C 14.142136 -3.750538 12.652031 -7.347969 10 -10 
C 7.347969 -12.652031 3.750538 -14.142136 0 -14.142136 
C -3.750538 -14.142136 -7.347969 -12.652031 -10 -10 
C -12.652031 -7.347969 -14.142136 -3.750538 -14.142136 0 
C -14.142136 3.750538 -12.652031 7.347969 -10 10 
C -7.347969 12.652031 -3.750538 14.142136 0 14.142136 
z
"/>
    </defs>
    <g clip-path="url(#p6c00c43755)">
     <use xlink:href="#C0_0_69480e38e7" x="457.649576" y="1341.141891" style="fill: #0000ff; stroke: #0000ff"/>
    </g>
    <g clip-path="url(#p6c00c43755)">
     <use xlink:href="#C0_0_69480e38e7" x="527.65918" y="1111.377798" style="fill: #ffa500; stroke: #ffa500"/>
    </g>
    <g clip-path="url(#p6c00c43755)">
     <use xlink:href="#C0_0_69480e38e7" x="249.917355" y="1287.102664" style="fill: #ffa500; stroke: #ffa500"/>
    </g>
    <g clip-path="url(#p6c00c43755)">
     <use xlink:href="#C0_0_69480e38e7" x="456.742035" y="1171.777258" style="fill: #ffff00; stroke: #ffff00"/>
    </g>
    <g clip-path="url(#p6c00c43755)">
     <use xlink:href="#C0_0_69480e38e7" x="578.000782" y="1290.338356" style="fill: #ffa500; stroke: #ffa500"/>
    </g>
    <g clip-path="url(#p6c00c43755)">
     <use xlink:href="#C0_0_69480e38e7" x="654.071467" y="1360.81759" style="fill: #ffff00; stroke: #ffff00"/>
    </g>
    <g clip-path="url(#p6c00c43755)">
     <use xlink:href="#C0_0_69480e38e7" x="531.297047" y="923.534577" style="fill: #0000ff; stroke: #0000ff"/>
    </g>
    <g clip-path="url(#p6c00c43755)">
     <use xlink:href="#C0_0_69480e38e7" x="675.162821" y="1070.26373" style="fill: #0000ff; stroke: #0000ff"/>
    </g>
    <g clip-path="url(#p6c00c43755)">
     <use xlink:href="#C0_0_69480e38e7" x="837.270792" y="773.491884" style="fill: #ffa500; stroke: #ffa500"/>
    </g>
    <g clip-path="url(#p6c00c43755)">
     <use xlink:href="#C0_0_69480e38e7" x="711.525848" y="787.163588" style="fill: #ffff00; stroke: #ffff00"/>
    </g>
    <g clip-path="url(#p6c00c43755)">
     <use xlink:href="#C0_0_69480e38e7" x="841.610525" y="532.907425" style="fill: #ffa500; stroke: #ffa500"/>
    </g>
    <g clip-path="url(#p6c00c43755)">
     <use xlink:href="#C0_0_69480e38e7" x="970.739133" y="592.422633" style="fill: #ffff00; stroke: #ffff00"/>
    </g>
    <g clip-path="url(#p6c00c43755)">
     <use xlink:href="#C0_0_69480e38e7" x="876.244407" y="249.917355" style="fill: #ffff00; stroke: #ffff00"/>
    </g>
    <g clip-path="url(#p6c00c43755)">
     <use xlink:href="#C0_0_69480e38e7" x="1780.281458" y="2494.803292" style="fill: #ffa500; stroke: #ffa500"/>
    </g>
    <g clip-path="url(#p6c00c43755)">
     <use xlink:href="#C0_0_69480e38e7" x="1675.634176" y="2630.082645" style="fill: #ffff00; stroke: #ffff00"/>
    </g>
    <g clip-path="url(#p6c00c43755)">
     <use xlink:href="#C0_0_69480e38e7" x="1929.260932" y="2501.156905" style="fill: #ffff00; stroke: #ffff00"/>
    </g>
    <g clip-path="url(#p6c00c43755)">
     <use xlink:href="#C0_0_69480e38e7" x="2485.074129" y="1151.80249" style="fill: #0000ff; stroke: #0000ff"/>
    </g>
    <g clip-path="url(#p6c00c43755)">
     <use xlink:href="#C0_0_69480e38e7" x="2630.082645" y="1122.878808" style="fill: #ffa500; stroke: #ffa500"/>
    </g>
   </g>
   <g id="text_1">
    <g clip-path="url(#p6c00c43755)">
     <!-- VAL 5 -->
     <g transform="translate(446.387076 1343.349391) scale(0.08 -0.08)">
      <defs>
       <path id="DejaVuSans-56" d="M 1831 0 
L 50 4666 
L 709 4666 
L 2188 738 
L 3669 4666 
L 4325 4666 
L 2547 0 
L 1831 0 
z
" transform="scale(0.015625)"/>
       <path id="DejaVuSans-41" d="M 2188 4044 
L 1331 1722 
L 3047 1722 
L 2188 4044 
z
M 1831 4666 
L 2547 4666 
L 4325 0 
L 3669 0 
L 3244 1197 
L 1141 1197 
L 716 0 
L 50 0 
L 1831 4666 
z
" transform="scale(0.015625)"/>
       <path id="DejaVuSans-4c" d="M 628 4666 
L 1259 4666 
L 1259 531 
L 3531 531 
L 3531 0 
L 628 0 
L 628 4666 
z
" transform="scale(0.015625)"/>
       <path id="DejaVuSans-20" transform="scale(0.015625)"/>
       <path id="DejaVuSans-35" d="M 691 4666 
L 3169 4666 
L 3169 4134 
L 1269 4134 
L 1269 2991 
Q 1406 3038 1543 3061 
Q 1681 3084 1819 3084 
Q 2600 3084 3056 2656 
Q 3513 2228 3513 1497 
Q 3513 744 3044 326 
Q 2575 -91 1722 -91 
Q 1428 -91 1123 -41 
Q 819 9 494 109 
L 494 744 
Q 775 591 1075 516 
Q 1375 441 1709 441 
Q 2250 441 2565 725 
Q 2881 1009 2881 1497 
Q 2881 1984 2565 2268 
Q 2250 2553 1709 2553 
Q 1456 2553 1204 2497 
Q 953 2441 691 2322 
L 691 4666 
z
" transform="scale(0.015625)"/>
      </defs>
      <use xlink:href="#DejaVuSans-56"/>
      <use xlink:href="#DejaVuSans-41" x="62.033203"/>
      <use xlink:href="#DejaVuSans-4c" x="130.441406"/>
      <use xlink:href="#DejaVuSans-20" x="186.154297"/>
      <use xlink:href="#DejaVuSans-35" x="217.941406"/>
     </g>
    </g>
   </g>
   <g id="text_2">
    <g clip-path="url(#p6c00c43755)">
     <!-- ILE 3 -->
     <g transform="translate(517.90668 1113.585298) scale(0.08 -0.08)">
      <defs>
       <path id="DejaVuSans-49" d="M 628 4666 
L 1259 4666 
L 1259 0 
L 628 0 
L 628 4666 
z
" transform="scale(0.015625)"/>
       <path id="DejaVuSans-45" d="M 628 4666 
L 3578 4666 
L 3578 4134 
L 1259 4134 
L 1259 2753 
L 3481 2753 
L 3481 2222 
L 1259 2222 
L 1259 531 
L 3634 531 
L 3634 0 
L 628 0 
L 628 4666 
z
" transform="scale(0.015625)"/>
       <path id="DejaVuSans-33" d="M 2597 2516 
Q 3050 2419 3304 2112 
Q 3559 1806 3559 1356 
Q 3559 666 3084 287 
Q 2609 -91 1734 -91 
Q 1441 -91 1130 -33 
Q 819 25 488 141 
L 488 750 
Q 750 597 1062 519 
Q 1375 441 1716 441 
Q 2309 441 2620 675 
Q 2931 909 2931 1356 
Q 2931 1769 2642 2001 
Q 2353 2234 1838 2234 
L 1294 2234 
L 1294 2753 
L 1863 2753 
Q 2328 2753 2575 2939 
Q 2822 3125 2822 3475 
Q 2822 3834 2567 4026 
Q 2313 4219 1838 4219 
Q 1578 4219 1281 4162 
Q 984 4106 628 3988 
L 628 4550 
Q 988 4650 1302 4700 
Q 1616 4750 1894 4750 
Q 2613 4750 3031 4423 
Q 3450 4097 3450 3541 
Q 3450 3153 3228 2886 
Q 3006 2619 2597 2516 
z
" transform="scale(0.015625)"/>
      </defs>
      <use xlink:href="#DejaVuSans-49"/>
      <use xlink:href="#DejaVuSans-4c" x="29.492188"/>
      <use xlink:href="#DejaVuSans-45" x="85.205078"/>
      <use xlink:href="#DejaVuSans-20" x="148.388672"/>
      <use xlink:href="#DejaVuSans-33" x="180.175781"/>
     </g>
    </g>
   </g>
   <g id="text_3">
    <g clip-path="url(#p6c00c43755)">
     <!-- ILE 13 -->
     <g transform="translate(237.619855 1289.310164) scale(0.08 -0.08)">
      <defs>
       <path id="DejaVuSans-31" d="M 794 531 
L 1825 531 
L 1825 4091 
L 703 3866 
L 703 4441 
L 1819 4666 
L 2450 4666 
L 2450 531 
L 3481 531 
L 3481 0 
L 794 0 
L 794 531 
z
" transform="scale(0.015625)"/>
      </defs>
      <use xlink:href="#DejaVuSans-49"/>
      <use xlink:href="#DejaVuSans-4c" x="29.492188"/>
      <use xlink:href="#DejaVuSans-45" x="85.205078"/>
      <use xlink:href="#DejaVuSans-20" x="148.388672"/>
      <use xlink:href="#DejaVuSans-31" x="180.175781"/>
      <use xlink:href="#DejaVuSans-33" x="243.798828"/>
     </g>
    </g>
   </g>
   <g id="text_4">
    <g clip-path="url(#p6c00c43755)">
     <!-- LEU 15 -->
     <g transform="translate(442.697035 1173.984758) scale(0.08 -0.08)">
      <defs>
       <path id="DejaVuSans-55" d="M 556 4666 
L 1191 4666 
L 1191 1831 
Q 1191 1081 1462 751 
Q 1734 422 2344 422 
Q 2950 422 3222 751 
Q 3494 1081 3494 1831 
L 3494 4666 
L 4128 4666 
L 4128 1753 
Q 4128 841 3676 375 
Q 3225 -91 2344 -91 
Q 1459 -91 1007 375 
Q 556 841 556 1753 
L 556 4666 
z
" transform="scale(0.015625)"/>
      </defs>
      <use xlink:href="#DejaVuSans-4c"/>
      <use xlink:href="#DejaVuSans-45" x="55.712891"/>
      <use xlink:href="#DejaVuSans-55" x="118.896484"/>
      <use xlink:href="#DejaVuSans-20" x="192.089844"/>
      <use xlink:href="#DejaVuSans-31" x="223.876953"/>
      <use xlink:href="#DejaVuSans-35" x="287.5"/>
     </g>
    </g>
   </g>
   <g id="text_5">
    <g clip-path="url(#p6c00c43755)">
     <!-- ILE 30 -->
     <g transform="translate(565.703282 1292.545856) scale(0.08 -0.08)">
      <defs>
       <path id="DejaVuSans-30" d="M 2034 4250 
Q 1547 4250 1301 3770 
Q 1056 3291 1056 2328 
Q 1056 1369 1301 889 
Q 1547 409 2034 409 
Q 2525 409 2770 889 
Q 3016 1369 3016 2328 
Q 3016 3291 2770 3770 
Q 2525 4250 2034 4250 
z
M 2034 4750 
Q 2819 4750 3233 4129 
Q 3647 3509 3647 2328 
Q 3647 1150 3233 529 
Q 2819 -91 2034 -91 
Q 1250 -91 836 529 
Q 422 1150 422 2328 
Q 422 3509 836 4129 
Q 1250 4750 2034 4750 
z
" transform="scale(0.015625)"/>
      </defs>
      <use xlink:href="#DejaVuSans-49"/>
      <use xlink:href="#DejaVuSans-4c" x="29.492188"/>
      <use xlink:href="#DejaVuSans-45" x="85.205078"/>
      <use xlink:href="#DejaVuSans-20" x="148.388672"/>
      <use xlink:href="#DejaVuSans-33" x="180.175781"/>
      <use xlink:href="#DejaVuSans-30" x="243.798828"/>
     </g>
    </g>
   </g>
   <g id="text_6">
    <g clip-path="url(#p6c00c43755)">
     <!-- LEU 43 -->
     <g transform="translate(640.026467 1363.02509) scale(0.08 -0.08)">
      <defs>
       <path id="DejaVuSans-34" d="M 2419 4116 
L 825 1625 
L 2419 1625 
L 2419 4116 
z
M 2253 4666 
L 3047 4666 
L 3047 1625 
L 3713 1625 
L 3713 1100 
L 3047 1100 
L 3047 0 
L 2419 0 
L 2419 1100 
L 313 1100 
L 313 1709 
L 2253 4666 
z
" transform="scale(0.015625)"/>
      </defs>
      <use xlink:href="#DejaVuSans-4c"/>
      <use xlink:href="#DejaVuSans-45" x="55.712891"/>
      <use xlink:href="#DejaVuSans-55" x="118.896484"/>
      <use xlink:href="#DejaVuSans-20" x="192.089844"/>
      <use xlink:href="#DejaVuSans-34" x="223.876953"/>
      <use xlink:href="#DejaVuSans-33" x="287.5"/>
     </g>
    </g>
   </g>
   <g id="text_7">
    <g clip-path="url(#p6c00c43755)">
     <!-- VAL 17 -->
     <g transform="translate(517.489547 925.742077) scale(0.08 -0.08)">
      <defs>
       <path id="DejaVuSans-37" d="M 525 4666 
L 3525 4666 
L 3525 4397 
L 1831 0 
L 1172 0 
L 2766 4134 
L 525 4134 
L 525 4666 
z
" transform="scale(0.015625)"/>
      </defs>
      <use xlink:href="#DejaVuSans-56"/>
      <use xlink:href="#DejaVuSans-41" x="62.033203"/>
      <use xlink:href="#DejaVuSans-4c" x="130.441406"/>
      <use xlink:href="#DejaVuSans-20" x="186.154297"/>
      <use xlink:href="#DejaVuSans-31" x="217.941406"/>
      <use xlink:href="#DejaVuSans-37" x="281.564453"/>
     </g>
    </g>
   </g>
   <g id="text_8">
    <g clip-path="url(#p6c00c43755)">
     <!-- VAL 26 -->
     <g transform="translate(661.355321 1072.47123) scale(0.08 -0.08)">
      <defs>
       <path id="DejaVuSans-32" d="M 1228 531 
L 3431 531 
L 3431 0 
L 469 0 
L 469 531 
Q 828 903 1448 1529 
Q 2069 2156 2228 2338 
Q 2531 2678 2651 2914 
Q 2772 3150 2772 3378 
Q 2772 3750 2511 3984 
Q 2250 4219 1831 4219 
Q 1534 4219 1204 4116 
Q 875 4013 500 3803 
L 500 4441 
Q 881 4594 1212 4672 
Q 1544 4750 1819 4750 
Q 2544 4750 2975 4387 
Q 3406 4025 3406 3419 
Q 3406 3131 3298 2873 
Q 3191 2616 2906 2266 
Q 2828 2175 2409 1742 
Q 1991 1309 1228 531 
z
" transform="scale(0.015625)"/>
       <path id="DejaVuSans-36" d="M 2113 2584 
Q 1688 2584 1439 2293 
Q 1191 2003 1191 1497 
Q 1191 994 1439 701 
Q 1688 409 2113 409 
Q 2538 409 2786 701 
Q 3034 994 3034 1497 
Q 3034 2003 2786 2293 
Q 2538 2584 2113 2584 
z
M 3366 4563 
L 3366 3988 
Q 3128 4100 2886 4159 
Q 2644 4219 2406 4219 
Q 1781 4219 1451 3797 
Q 1122 3375 1075 2522 
Q 1259 2794 1537 2939 
Q 1816 3084 2150 3084 
Q 2853 3084 3261 2657 
Q 3669 2231 3669 1497 
Q 3669 778 3244 343 
Q 2819 -91 2113 -91 
Q 1303 -91 875 529 
Q 447 1150 447 2328 
Q 447 3434 972 4092 
Q 1497 4750 2381 4750 
Q 2619 4750 2861 4703 
Q 3103 4656 3366 4563 
z
" transform="scale(0.015625)"/>
      </defs>
      <use xlink:href="#DejaVuSans-56"/>
      <use xlink:href="#DejaVuSans-41" x="62.033203"/>
      <use xlink:href="#DejaVuSans-4c" x="130.441406"/>
      <use xlink:href="#DejaVuSans-20" x="186.154297"/>
      <use xlink:href="#DejaVuSans-32" x="217.941406"/>
      <use xlink:href="#DejaVuSans-36" x="281.564453"/>
     </g>
    </g>
   </g>
   <g id="text_9">
    <g clip-path="url(#p6c00c43755)">
     <!-- ILE 23 -->
     <g transform="translate(824.973292 775.699384) scale(0.08 -0.08)">
      <use xlink:href="#DejaVuSans-49"/>
      <use xlink:href="#DejaVuSans-4c" x="29.492188"/>
      <use xlink:href="#DejaVuSans-45" x="85.205078"/>
      <use xlink:href="#DejaVuSans-20" x="148.388672"/>
      <use xlink:href="#DejaVuSans-32" x="180.175781"/>
      <use xlink:href="#DejaVuSans-33" x="243.798828"/>
     </g>
    </g>
   </g>
   <g id="text_10">
    <g clip-path="url(#p6c00c43755)">
     <!-- LEU 56 -->
     <g transform="translate(697.480848 789.371088) scale(0.08 -0.08)">
      <use xlink:href="#DejaVuSans-4c"/>
      <use xlink:href="#DejaVuSans-45" x="55.712891"/>
      <use xlink:href="#DejaVuSans-55" x="118.896484"/>
      <use xlink:href="#DejaVuSans-20" x="192.089844"/>
      <use xlink:href="#DejaVuSans-35" x="223.876953"/>
      <use xlink:href="#DejaVuSans-36" x="287.5"/>
     </g>
    </g>
   </g>
   <g id="text_11">
    <g clip-path="url(#p6c00c43755)">
     <!-- ILE 61 -->
     <g transform="translate(829.313025 535.114925) scale(0.08 -0.08)">
      <use xlink:href="#DejaVuSans-49"/>
      <use xlink:href="#DejaVuSans-4c" x="29.492188"/>
      <use xlink:href="#DejaVuSans-45" x="85.205078"/>
      <use xlink:href="#DejaVuSans-20" x="148.388672"/>
      <use xlink:href="#DejaVuSans-36" x="180.175781"/>
      <use xlink:href="#DejaVuSans-31" x="243.798828"/>
     </g>
    </g>
   </g>
   <g id="text_12">
    <g clip-path="url(#p6c00c43755)">
     <!-- LEU 50 -->
     <g transform="translate(956.694133 594.630133) scale(0.08 -0.08)">
      <use xlink:href="#DejaVuSans-4c"/>
      <use xlink:href="#DejaVuSans-45" x="55.712891"/>
      <use xlink:href="#DejaVuSans-55" x="118.896484"/>
      <use xlink:href="#DejaVuSans-20" x="192.089844"/>
      <use xlink:href="#DejaVuSans-35" x="223.876953"/>
      <use xlink:href="#DejaVuSans-30" x="287.5"/>
     </g>
    </g>
   </g>
   <g id="text_13">
    <g clip-path="url(#p6c00c43755)">
     <!-- LEU 67 -->
     <g transform="translate(862.199407 252.124855) scale(0.08 -0.08)">
      <use xlink:href="#DejaVuSans-4c"/>
      <use xlink:href="#DejaVuSans-45" x="55.712891"/>
      <use xlink:href="#DejaVuSans-55" x="118.896484"/>
      <use xlink:href="#DejaVuSans-20" x="192.089844"/>
      <use xlink:href="#DejaVuSans-36" x="223.876953"/>
      <use xlink:href="#DejaVuSans-37" x="287.5"/>
     </g>
    </g>
   </g>
   <g id="text_14">
    <g clip-path="url(#p6c00c43755)">
     <!-- ILE 36 -->
     <g transform="translate(1767.983958 2497.010792) scale(0.08 -0.08)">
      <use xlink:href="#DejaVuSans-49"/>
      <use xlink:href="#DejaVuSans-4c" x="29.492188"/>
      <use xlink:href="#DejaVuSans-45" x="85.205078"/>
      <use xlink:href="#DejaVuSans-20" x="148.388672"/>
      <use xlink:href="#DejaVuSans-33" x="180.175781"/>
      <use xlink:href="#DejaVuSans-36" x="243.798828"/>
     </g>
    </g>
   </g>
   <g id="text_15">
    <g clip-path="url(#p6c00c43755)">
     <!-- LEU 69 -->
     <g transform="translate(1661.589176 2632.290145) scale(0.08 -0.08)">
      <defs>
       <path id="DejaVuSans-39" d="M 703 97 
L 703 672 
Q 941 559 1184 500 
Q 1428 441 1663 441 
Q 2288 441 2617 861 
Q 2947 1281 2994 2138 
Q 2813 1869 2534 1725 
Q 2256 1581 1919 1581 
Q 1219 1581 811 2004 
Q 403 2428 403 3163 
Q 403 3881 828 4315 
Q 1253 4750 1959 4750 
Q 2769 4750 3195 4129 
Q 3622 3509 3622 2328 
Q 3622 1225 3098 567 
Q 2575 -91 1691 -91 
Q 1453 -91 1209 -44 
Q 966 3 703 97 
z
M 1959 2075 
Q 2384 2075 2632 2365 
Q 2881 2656 2881 3163 
Q 2881 3666 2632 3958 
Q 2384 4250 1959 4250 
Q 1534 4250 1286 3958 
Q 1038 3666 1038 3163 
Q 1038 2656 1286 2365 
Q 1534 2075 1959 2075 
z
" transform="scale(0.015625)"/>
      </defs>
      <use xlink:href="#DejaVuSans-4c"/>
      <use xlink:href="#DejaVuSans-45" x="55.712891"/>
      <use xlink:href="#DejaVuSans-55" x="118.896484"/>
      <use xlink:href="#DejaVuSans-20" x="192.089844"/>
      <use xlink:href="#DejaVuSans-36" x="223.876953"/>
      <use xlink:href="#DejaVuSans-39" x="287.5"/>
     </g>
    </g>
   </g>
   <g id="text_16">
    <g clip-path="url(#p6c00c43755)">
     <!-- LEU 71 -->
     <g transform="translate(1915.215932 2503.364405) scale(0.08 -0.08)">
      <use xlink:href="#DejaVuSans-4c"/>
      <use xlink:href="#DejaVuSans-45" x="55.712891"/>
      <use xlink:href="#DejaVuSans-55" x="118.896484"/>
      <use xlink:href="#DejaVuSans-20" x="192.089844"/>
      <use xlink:href="#DejaVuSans-37" x="223.876953"/>
      <use xlink:href="#DejaVuSans-31" x="287.5"/>
     </g>
    </g>
   </g>
   <g id="text_17">
    <g clip-path="url(#p6c00c43755)">
     <!-- VAL 70 -->
     <g transform="translate(2471.266629 1154.00999) scale(0.08 -0.08)">
      <use xlink:href="#DejaVuSans-56"/>
      <use xlink:href="#DejaVuSans-41" x="62.033203"/>
      <use xlink:href="#DejaVuSans-4c" x="130.441406"/>
      <use xlink:href="#DejaVuSans-20" x="186.154297"/>
      <use xlink:href="#DejaVuSans-37" x="217.941406"/>
      <use xlink:href="#DejaVuSans-30" x="281.564453"/>
     </g>
    </g>
   </g>
   <g id="text_18">
    <g clip-path="url(#p6c00c43755)">
     <!-- ILE 44 -->
     <g transform="translate(2617.785145 1125.086308) scale(0.08 -0.08)">
      <use xlink:href="#DejaVuSans-49"/>
      <use xlink:href="#DejaVuSans-4c" x="29.492188"/>
      <use xlink:href="#DejaVuSans-45" x="85.205078"/>
      <use xlink:href="#DejaVuSans-20" x="148.388672"/>
      <use xlink:href="#DejaVuSans-34" x="180.175781"/>
      <use xlink:href="#DejaVuSans-34" x="243.798828"/>
     </g>
    </g>
   </g>
  </g>
  <g id="text_19">
   <!-- G_NMR -->
   <g transform="translate(1418.51625 66.50625) scale(0.12 -0.12)">
    <defs>
     <path id="DejaVuSans-47" d="M 3809 666 
L 3809 1919 
L 2778 1919 
L 2778 2438 
L 4434 2438 
L 4434 434 
Q 4069 175 3628 42 
Q 3188 -91 2688 -91 
Q 1594 -91 976 548 
Q 359 1188 359 2328 
Q 359 3472 976 4111 
Q 1594 4750 2688 4750 
Q 3144 4750 3555 4637 
Q 3966 4525 4313 4306 
L 4313 3634 
Q 3963 3931 3569 4081 
Q 3175 4231 2741 4231 
Q 1884 4231 1454 3753 
Q 1025 3275 1025 2328 
Q 1025 1384 1454 906 
Q 1884 428 2741 428 
Q 3075 428 3337 486 
Q 3600 544 3809 666 
z
" transform="scale(0.015625)"/>
     <path id="DejaVuSans-5f" d="M 3263 -1063 
L 3263 -1509 
L -63 -1509 
L -63 -1063 
L 3263 -1063 
z
" transform="scale(0.015625)"/>
     <path id="DejaVuSans-4e" d="M 628 4666 
L 1478 4666 
L 3547 763 
L 3547 4666 
L 4159 4666 
L 4159 0 
L 3309 0 
L 1241 3903 
L 1241 0 
L 628 0 
L 628 4666 
z
" transform="scale(0.015625)"/>
     <path id="DejaVuSans-4d" d="M 628 4666 
L 1569 4666 
L 2759 1491 
L 3956 4666 
L 4897 4666 
L 4897 0 
L 4281 0 
L 4281 4097 
L 3078 897 
L 2444 897 
L 1241 4097 
L 1241 0 
L 628 0 
L 628 4666 
z
" transform="scale(0.015625)"/>
     <path id="DejaVuSans-52" d="M 2841 2188 
Q 3044 2119 3236 1894 
Q 3428 1669 3622 1275 
L 4263 0 
L 3584 0 
L 2988 1197 
Q 2756 1666 2539 1819 
Q 2322 1972 1947 1972 
L 1259 1972 
L 1259 0 
L 628 0 
L 628 4666 
L 2053 4666 
Q 2853 4666 3247 4331 
Q 3641 3997 3641 3322 
Q 3641 2881 3436 2590 
Q 3231 2300 2841 2188 
z
M 1259 4147 
L 1259 2491 
L 2053 2491 
Q 2509 2491 2742 2702 
Q 2975 2913 2975 3322 
Q 2975 3731 2742 3939 
Q 2509 4147 2053 4147 
L 1259 4147 
z
" transform="scale(0.015625)"/>
    </defs>
    <use xlink:href="#DejaVuSans-47"/>
    <use xlink:href="#DejaVuSans-5f" x="77.490234"/>
    <use xlink:href="#DejaVuSans-4e" x="127.490234"/>
    <use xlink:href="#DejaVuSans-4d" x="202.294922"/>
    <use xlink:href="#DejaVuSans-52" x="288.574219"/>
   </g>
  </g>
 </g>
 <defs>
  <clipPath id="p6c00c43755">
   <rect x="0" y="0" width="2880" height="2880"/>
  </clipPath>
 </defs>
</svg>
