<?xml version="1.0" encoding="utf-8" standalone="no"?>
<!DOCTYPE svg PUBLIC "-//W3C//DTD SVG 1.1//EN"
  "http://www.w3.org/Graphics/SVG/1.1/DTD/svg11.dtd">
<svg xmlns:xlink="http://www.w3.org/1999/xlink" width="2880pt" height="2880pt" viewBox="0 0 2880 2880" xmlns="http://www.w3.org/2000/svg" version="1.1">
 <metadata>
  <rdf:RDF xmlns:dc="http://purl.org/dc/elements/1.1/" xmlns:cc="http://creativecommons.org/ns#" xmlns:rdf="http://www.w3.org/1999/02/22-rdf-syntax-ns#">
   <cc:Work>
    <dc:type rdf:resource="http://purl.org/dc/dcmitype/StillImage"/>
    <dc:date>2024-02-24T15:24:53.209035</dc:date>
    <dc:format>image/svg+xml</dc:format>
    <dc:creator>
     <cc:Agent>
      <dc:title>Matplotlib v3.8.2, https://matplotlib.org/</dc:title>
     </cc:Agent>
    </dc:creator>
   </cc:Work>
  </rdf:RDF>
 </metadata>
 <defs>
  <style type="text/css">*{stroke-linejoin: round; stroke-linecap: butt}</style>
 </defs>
 <g id="figure_1">
  <g id="patch_1">
   <path d="M 0 2880 
L 2880 2880 
L 2880 0 
L 0 0 
z
" style="fill: #ffffff"/>
  </g>
  <g id="axes_1">
   <g id="patch_2">
    <path d="M 860.129964 801.877943 
Q 967.472121 782.555723 1074.594208 763.273117 
" clip-path="url(#pff53f7e5fe)" style="fill: none; stroke: #000000; stroke-width: 0.2; stroke-linecap: round"/>
    <path d="M 1070.303162 762.013387 
L 1074.594208 763.273117 
L 1071.011796 765.950116 
z
" clip-path="url(#pff53f7e5fe)" style="stroke: #000000; stroke-width: 0.2; stroke-linecap: round"/>
   </g>
   <g id="patch_3">
    <path d="M 859.952777 807.713503 
Q 1094.629718 864.589781 1329.089344 921.413391 
" clip-path="url(#pff53f7e5fe)" style="fill: none; stroke: #000000; stroke-width: 0.2; stroke-linecap: round"/>
    <path d="M 1325.672969 918.527498 
L 1329.089344 921.413391 
L 1324.730805 922.414956 
z
" clip-path="url(#pff53f7e5fe)" style="stroke: #000000; stroke-width: 0.2; stroke-linecap: round"/>
   </g>
   <g id="patch_4">
    <path d="M 844.617672 790.332406 
Q 815.742101 535.838994 786.891739 281.567763 
" clip-path="url(#pff53f7e5fe)" style="fill: none; stroke: #000000; stroke-width: 0.2; stroke-linecap: round"/>
    <path d="M 785.355448 285.76774 
L 786.891739 281.567763 
L 789.329947 285.316782 
z
" clip-path="url(#pff53f7e5fe)" style="stroke: #000000; stroke-width: 0.2; stroke-linecap: round"/>
   </g>
   <g id="patch_5">
    <path d="M 833.332668 810.22462 
Q 548.063536 939.607592 262.998045 1068.898203 
" clip-path="url(#pff53f7e5fe)" style="fill: none; stroke: #000000; stroke-width: 0.2; stroke-linecap: round"/>
    <path d="M 267.466978 1069.067423 
L 262.998045 1068.898203 
L 265.814781 1065.424589 
z
" clip-path="url(#pff53f7e5fe)" style="stroke: #000000; stroke-width: 0.2; stroke-linecap: round"/>
   </g>
   <g id="patch_6">
    <path d="M 858.461047 811.456727 
Q 1005.396742 896.307142 1152.138798 981.045738 
" clip-path="url(#pff53f7e5fe)" style="fill: none; stroke: #000000; stroke-width: 0.2; stroke-linecap: round"/>
    <path d="M 1149.675022 977.313472 
L 1152.138798 981.045738 
L 1147.67472 980.7774 
z
" clip-path="url(#pff53f7e5fe)" style="stroke: #000000; stroke-width: 0.2; stroke-linecap: round"/>
   </g>
   <g id="patch_7">
    <path d="M 1096.713574 772.400289 
Q 1239.797867 981.757594 1382.755989 1190.930289 
" clip-path="url(#pff53f7e5fe)" style="fill: none; stroke: #000000; stroke-width: 0.2; stroke-linecap: round"/>
    <path d="M 1382.150178 1186.499375 
L 1382.755989 1190.930289 
L 1378.847772 1188.75639 
z
" clip-path="url(#pff53f7e5fe)" style="stroke: #000000; stroke-width: 0.2; stroke-linecap: round"/>
   </g>
   <g id="patch_8">
    <path d="M 1074.817843 763.232861 
Q 967.475686 782.555081 860.353598 801.837687 
" clip-path="url(#pff53f7e5fe)" style="fill: none; stroke: #000000; stroke-width: 0.2; stroke-linecap: round"/>
    <path d="M 864.644645 803.097417 
L 860.353598 801.837687 
L 863.93601 799.160688 
z
" clip-path="url(#pff53f7e5fe)" style="stroke: #000000; stroke-width: 0.2; stroke-linecap: round"/>
   </g>
   <g id="patch_9">
    <path d="M 1100.621969 768.395761 
Q 1215.89367 842.762521 1330.977472 917.00806 
" clip-path="url(#pff53f7e5fe)" style="fill: none; stroke: #000000; stroke-width: 0.2; stroke-linecap: round"/>
    <path d="M 1328.70049 913.158988 
L 1330.977472 917.00806 
L 1326.532026 916.520203 
z
" clip-path="url(#pff53f7e5fe)" style="stroke: #000000; stroke-width: 0.2; stroke-linecap: round"/>
   </g>
   <g id="patch_10">
    <path d="M 1081.329419 748.684609 
Q 937.004073 514.011303 792.795866 279.528466 
" clip-path="url(#pff53f7e5fe)" style="fill: none; stroke: #000000; stroke-width: 0.2; stroke-linecap: round"/>
    <path d="M 793.187713 283.983402 
L 792.795866 279.528466 
L 796.594923 281.887949 
z
" clip-path="url(#pff53f7e5fe)" style="stroke: #000000; stroke-width: 0.2; stroke-linecap: round"/>
   </g>
   <g id="patch_11">
    <path d="M 1357.185014 925.238018 
Q 1637.767362 933.991035 1918.126213 942.737079 
" clip-path="url(#pff53f7e5fe)" style="fill: none; stroke: #000000; stroke-width: 0.2; stroke-linecap: round"/>
    <path d="M 1914.190519 940.613329 
L 1918.126213 942.737079 
L 1914.065796 944.611384 
z
" clip-path="url(#pff53f7e5fe)" style="stroke: #000000; stroke-width: 0.2; stroke-linecap: round"/>
   </g>
   <g id="patch_12">
    <path d="M 1345.447254 938.731422 
Q 1366.955252 1063.791281 1388.425351 1188.630769 
" clip-path="url(#pff53f7e5fe)" style="fill: none; stroke: #000000; stroke-width: 0.2; stroke-linecap: round"/>
    <path d="M 1389.71844 1184.349657 
L 1388.425351 1188.630769 
L 1385.776315 1185.02763 
z
" clip-path="url(#pff53f7e5fe)" style="stroke: #000000; stroke-width: 0.2; stroke-linecap: round"/>
   </g>
   <g id="patch_13">
    <path d="M 1331.164717 917.12886 
Q 1215.893017 842.7621 1100.809214 768.516561 
" clip-path="url(#pff53f7e5fe)" style="fill: none; stroke: #000000; stroke-width: 0.2; stroke-linecap: round"/>
    <path d="M 1103.086196 772.365633 
L 1100.809214 768.516561 
L 1105.254661 769.004419 
z
" clip-path="url(#pff53f7e5fe)" style="stroke: #000000; stroke-width: 0.2; stroke-linecap: round"/>
   </g>
   <g id="patch_14">
    <path d="M 1329.309953 921.466858 
Q 1094.633011 864.590579 860.173385 807.76697 
" clip-path="url(#pff53f7e5fe)" style="fill: none; stroke: #000000; stroke-width: 0.2; stroke-linecap: round"/>
    <path d="M 863.589761 810.652862 
L 860.173385 807.76697 
L 864.531925 806.765405 
z
" clip-path="url(#pff53f7e5fe)" style="stroke: #000000; stroke-width: 0.2; stroke-linecap: round"/>
   </g>
   <g id="patch_15">
    <path d="M 1329.725754 929.532965 
Q 1253.813088 956.513197 1178.111118 983.418546 
" clip-path="url(#pff53f7e5fe)" style="fill: none; stroke: #000000; stroke-width: 0.2; stroke-linecap: round"/>
    <path d="M 1182.549926 983.963504 
L 1178.111118 983.418546 
L 1181.21037 980.194474 
z
" clip-path="url(#pff53f7e5fe)" style="stroke: #000000; stroke-width: 0.2; stroke-linecap: round"/>
   </g>
   <g id="patch_16">
    <path d="M 1338.996902 938.34935 
Q 1323.038978 991.696943 1307.145136 1044.83031 
" clip-path="url(#pff53f7e5fe)" style="fill: none; stroke: #000000; stroke-width: 0.2; stroke-linecap: round"/>
    <path d="M 1310.207582 1041.571257 
L 1307.145136 1044.83031 
L 1306.375362 1040.424921 
z
" clip-path="url(#pff53f7e5fe)" style="stroke: #000000; stroke-width: 0.2; stroke-linecap: round"/>
   </g>
   <g id="patch_17">
    <path d="M 1174.842549 997.961953 
Q 1277.720866 1095.510339 1380.436921 1192.90487 
" clip-path="url(#pff53f7e5fe)" style="fill: none; stroke: #000000; stroke-width: 0.2; stroke-linecap: round"/>
    <path d="M 1378.910423 1188.701323 
L 1380.436921 1192.90487 
L 1376.158185 1191.60394 
z
" clip-path="url(#pff53f7e5fe)" style="stroke: #000000; stroke-width: 0.2; stroke-linecap: round"/>
   </g>
   <g id="patch_18">
    <path d="M 1152.328249 981.155139 
Q 1005.392553 896.304723 858.650497 811.566128 
" clip-path="url(#pff53f7e5fe)" style="fill: none; stroke: #000000; stroke-width: 0.2; stroke-linecap: round"/>
    <path d="M 861.114274 815.298394 
L 858.650497 811.566128 
L 863.114576 811.834466 
z
" clip-path="url(#pff53f7e5fe)" style="stroke: #000000; stroke-width: 0.2; stroke-linecap: round"/>
   </g>
   <g id="patch_19">
    <path d="M 1177.902422 983.492719 
Q 1253.815087 956.512486 1329.517058 929.607138 
" clip-path="url(#pff53f7e5fe)" style="fill: none; stroke: #000000; stroke-width: 0.2; stroke-linecap: round"/>
    <path d="M 1325.07825 929.062179 
L 1329.517058 929.607138 
L 1326.417806 932.831209 
z
" clip-path="url(#pff53f7e5fe)" style="stroke: #000000; stroke-width: 0.2; stroke-linecap: round"/>
   </g>
   <g id="patch_20">
    <path d="M 1177.181006 994.634468 
Q 1233.799896 1023.411362 1290.219449 1052.086942 
" clip-path="url(#pff53f7e5fe)" style="fill: none; stroke: #000000; stroke-width: 0.2; stroke-linecap: round"/>
    <path d="M 1287.559778 1048.491647 
L 1290.219449 1052.086942 
L 1285.74741 1052.057502 
z
" clip-path="url(#pff53f7e5fe)" style="stroke: #000000; stroke-width: 0.2; stroke-linecap: round"/>
   </g>
   <g id="patch_21">
    <path d="M 1944.507607 950.639696 
Q 2281.286563 1159.500072 2617.87549 1368.242597 
" clip-path="url(#pff53f7e5fe)" style="fill: none; stroke: #000000; stroke-width: 0.2; stroke-linecap: round"/>
    <path d="M 2615.530227 1364.434744 
L 2617.87549 1368.242597 
L 2613.42205 1367.834095 
z
" clip-path="url(#pff53f7e5fe)" style="stroke: #000000; stroke-width: 0.2; stroke-linecap: round"/>
   </g>
   <g id="patch_22">
    <path d="M 1934.926533 929.255945 
Q 1993.187644 596.551229 2051.410185 264.066768 
" clip-path="url(#pff53f7e5fe)" style="fill: none; stroke: #000000; stroke-width: 0.2; stroke-linecap: round"/>
    <path d="M 2048.750207 267.661836 
L 2051.410185 264.066768 
L 2052.690253 268.351791 
z
" clip-path="url(#pff53f7e5fe)" style="stroke: #000000; stroke-width: 0.2; stroke-linecap: round"/>
   </g>
   <g id="patch_23">
    <path d="M 1919.730979 949.299242 
Q 1661.672826 1072.987033 1403.816314 1196.578176 
" clip-path="url(#pff53f7e5fe)" style="fill: none; stroke: #000000; stroke-width: 0.2; stroke-linecap: round"/>
    <path d="M 1408.287826 1196.652835 
L 1403.816314 1196.578176 
L 1406.558949 1193.045761 
z
" clip-path="url(#pff53f7e5fe)" style="stroke: #000000; stroke-width: 0.2; stroke-linecap: round"/>
   </g>
   <g id="patch_24">
    <path d="M 1918.353142 942.744158 
Q 1637.770794 933.991142 1357.411943 925.245098 
" clip-path="url(#pff53f7e5fe)" style="fill: none; stroke: #000000; stroke-width: 0.2; stroke-linecap: round"/>
    <path d="M 1361.347637 927.368848 
L 1357.411943 925.245098 
L 1361.47236 923.370793 
z
" clip-path="url(#pff53f7e5fe)" style="stroke: #000000; stroke-width: 0.2; stroke-linecap: round"/>
   </g>
   <g id="patch_25">
    <path d="M 1403.616522 1196.673936 
Q 1661.674676 1072.986146 1919.531188 949.395003 
" clip-path="url(#pff53f7e5fe)" style="fill: none; stroke: #000000; stroke-width: 0.2; stroke-linecap: round"/>
    <path d="M 1915.059675 949.320344 
L 1919.531188 949.395003 
L 1916.788553 952.927417 
z
" clip-path="url(#pff53f7e5fe)" style="stroke: #000000; stroke-width: 0.2; stroke-linecap: round"/>
   </g>
   <g id="patch_26">
    <path d="M 1389.164939 1216.828739 
Q 1346.376557 1571.225102 1303.614977 1925.39947 
" clip-path="url(#pff53f7e5fe)" style="fill: none; stroke: #000000; stroke-width: 0.2; stroke-linecap: round"/>
    <path d="M 1306.080019 1921.668041 
L 1303.614977 1925.39947 
L 1302.108858 1921.188579 
z
" clip-path="url(#pff53f7e5fe)" style="stroke: #000000; stroke-width: 0.2; stroke-linecap: round"/>
   </g>
   <g id="patch_27">
    <path d="M 1382.882458 1191.115334 
Q 1239.798165 981.758029 1096.840043 772.585334 
" clip-path="url(#pff53f7e5fe)" style="fill: none; stroke: #000000; stroke-width: 0.2; stroke-linecap: round"/>
    <path d="M 1097.445854 777.016248 
L 1096.840043 772.585334 
L 1100.74826 774.759233 
z
" clip-path="url(#pff53f7e5fe)" style="stroke: #000000; stroke-width: 0.2; stroke-linecap: round"/>
   </g>
   <g id="patch_28">
    <path d="M 1388.463701 1188.853758 
Q 1366.955703 1063.793899 1345.485604 938.954412 
" clip-path="url(#pff53f7e5fe)" style="fill: none; stroke: #000000; stroke-width: 0.2; stroke-linecap: round"/>
    <path d="M 1344.192514 943.235523 
L 1345.485604 938.954412 
L 1348.13464 942.55755 
z
" clip-path="url(#pff53f7e5fe)" style="stroke: #000000; stroke-width: 0.2; stroke-linecap: round"/>
   </g>
   <g id="patch_29">
    <path d="M 1380.594972 1193.054732 
Q 1277.716656 1095.506347 1175.0006 998.111816 
" clip-path="url(#pff53f7e5fe)" style="fill: none; stroke: #000000; stroke-width: 0.2; stroke-linecap: round"/>
    <path d="M 1176.527098 1002.315362 
L 1175.0006 998.111816 
L 1179.279336 999.412745 
z
" clip-path="url(#pff53f7e5fe)" style="stroke: #000000; stroke-width: 0.2; stroke-linecap: round"/>
   </g>
   <g id="patch_30">
    <path d="M 1383.50366 1190.711259 
Q 1346.943219 1130.691565 1310.499103 1070.862838 
" clip-path="url(#pff53f7e5fe)" style="fill: none; stroke: #000000; stroke-width: 0.2; stroke-linecap: round"/>
    <path d="M 1310.871941 1075.319405 
L 1310.499103 1070.862838 
L 1314.28806 1073.238508 
z
" clip-path="url(#pff53f7e5fe)" style="stroke: #000000; stroke-width: 0.2; stroke-linecap: round"/>
   </g>
   <g id="patch_31">
    <path d="M 1310.38371 1070.673401 
Q 1346.944151 1130.693095 1383.388266 1190.521822 
" clip-path="url(#pff53f7e5fe)" style="fill: none; stroke: #000000; stroke-width: 0.2; stroke-linecap: round"/>
    <path d="M 1383.015428 1186.065255 
L 1383.388266 1190.521822 
L 1379.59931 1188.146152 
z
" clip-path="url(#pff53f7e5fe)" style="stroke: #000000; stroke-width: 0.2; stroke-linecap: round"/>
   </g>
   <g id="patch_32">
    <path d="M 1307.081122 1045.044309 
Q 1323.039046 991.696715 1338.932888 938.563349 
" clip-path="url(#pff53f7e5fe)" style="fill: none; stroke: #000000; stroke-width: 0.2; stroke-linecap: round"/>
    <path d="M 1335.870442 941.822401 
L 1338.932888 938.563349 
L 1339.702662 942.968737 
z
" clip-path="url(#pff53f7e5fe)" style="stroke: #000000; stroke-width: 0.2; stroke-linecap: round"/>
   </g>
   <g id="patch_33">
    <path d="M 1290.423585 1052.190695 
Q 1233.804694 1023.413801 1177.385141 994.738221 
" clip-path="url(#pff53f7e5fe)" style="fill: none; stroke: #000000; stroke-width: 0.2; stroke-linecap: round"/>
    <path d="M 1180.044813 998.333516 
L 1177.385141 994.738221 
L 1181.85718 994.767661 
z
" clip-path="url(#pff53f7e5fe)" style="stroke: #000000; stroke-width: 0.2; stroke-linecap: round"/>
   </g>
   <g id="patch_34">
    <path d="M 1310.329013 1951.01338 
Q 1381.485207 2046.786511 1452.508047 2142.380153 
" clip-path="url(#pff53f7e5fe)" style="fill: none; stroke: #000000; stroke-width: 0.2; stroke-linecap: round"/>
    <path d="M 1451.727929 2137.976584 
L 1452.508047 2142.380153 
L 1448.517121 2140.362106 
z
" clip-path="url(#pff53f7e5fe)" style="stroke: #000000; stroke-width: 0.2; stroke-linecap: round"/>
   </g>
   <g id="patch_35">
    <path d="M 1309.592042 1927.798954 
Q 1330.142071 1896.140496 1350.570354 1864.669594 
" clip-path="url(#pff53f7e5fe)" style="fill: none; stroke: #000000; stroke-width: 0.2; stroke-linecap: round"/>
    <path d="M 1346.714921 1866.935788 
L 1350.570354 1864.669594 
L 1350.070049 1869.113657 
z
" clip-path="url(#pff53f7e5fe)" style="stroke: #000000; stroke-width: 0.2; stroke-linecap: round"/>
   </g>
   <g id="patch_36">
    <path d="M 1303.588515 1925.618637 
Q 1346.376898 1571.222274 1389.138478 1217.047906 
" clip-path="url(#pff53f7e5fe)" style="fill: none; stroke: #000000; stroke-width: 0.2; stroke-linecap: round"/>
    <path d="M 1386.673436 1220.779335 
L 1389.138478 1217.047906 
L 1390.644596 1221.258797 
z
" clip-path="url(#pff53f7e5fe)" style="stroke: #000000; stroke-width: 0.2; stroke-linecap: round"/>
   </g>
   <g id="patch_37">
    <path d="M 1298.847448 1953.468068 
Q 1225.748916 2284.869678 1152.698548 2616.052929 
" clip-path="url(#pff53f7e5fe)" style="fill: none; stroke: #000000; stroke-width: 0.2; stroke-linecap: round"/>
    <path d="M 1155.513187 2612.577614 
L 1152.698548 2616.052929 
L 1151.60708 2611.716029 
z
" clip-path="url(#pff53f7e5fe)" style="stroke: #000000; stroke-width: 0.2; stroke-linecap: round"/>
   </g>
   <g id="patch_38">
    <path d="M 1456.515302 2140.529658 
Q 1409.735293 2003.266844 1363.027416 1866.215684 
" clip-path="url(#pff53f7e5fe)" style="fill: none; stroke: #000000; stroke-width: 0.2; stroke-linecap: round"/>
    <path d="M 1362.424683 1870.647017 
L 1363.027416 1866.215684 
L 1366.210842 1869.35667 
z
" clip-path="url(#pff53f7e5fe)" style="stroke: #000000; stroke-width: 0.2; stroke-linecap: round"/>
   </g>
   <g id="patch_39">
    <path d="M 1452.640604 2142.55857 
Q 1381.48441 2046.785439 1310.46157 1951.191797 
" clip-path="url(#pff53f7e5fe)" style="fill: none; stroke: #000000; stroke-width: 0.2; stroke-linecap: round"/>
    <path d="M 1311.241688 1955.595366 
L 1310.46157 1951.191797 
L 1314.452496 1953.209844 
z
" clip-path="url(#pff53f7e5fe)" style="stroke: #000000; stroke-width: 0.2; stroke-linecap: round"/>
   </g>
   <g id="patch_40">
    <path d="M 1472.765801 2161.875078 
Q 1744.129222 2346.717006 2015.307836 2531.433051 
" clip-path="url(#pff53f7e5fe)" style="fill: none; stroke: #000000; stroke-width: 0.2; stroke-linecap: round"/>
    <path d="M 2013.127845 2527.528228 
L 2015.307836 2531.433051 
L 2010.875984 2530.83415 
z
" clip-path="url(#pff53f7e5fe)" style="stroke: #000000; stroke-width: 0.2; stroke-linecap: round"/>
   </g>
   <g id="patch_41">
    <path d="M 1447.603653 2149.600626 
Q 910.093608 1977.565985 372.796528 1805.599504 
" clip-path="url(#pff53f7e5fe)" style="fill: none; stroke: #000000; stroke-width: 0.2; stroke-linecap: round"/>
    <path d="M 375.996508 1808.723625 
L 372.796528 1805.599504 
L 377.215813 1804.913993 
z
" clip-path="url(#pff53f7e5fe)" style="stroke: #000000; stroke-width: 0.2; stroke-linecap: round"/>
   </g>
   <g id="patch_42">
    <path d="M 1475.220353 2154.098938 
Q 1996.418551 2160.962974 2517.393162 2167.824066 
" clip-path="url(#pff53f7e5fe)" style="fill: none; stroke: #000000; stroke-width: 0.2; stroke-linecap: round"/>
    <path d="M 2513.419846 2165.771565 
L 2517.393162 2167.824066 
L 2513.367172 2169.771218 
z
" clip-path="url(#pff53f7e5fe)" style="stroke: #000000; stroke-width: 0.2; stroke-linecap: round"/>
   </g>
   <g id="patch_43">
    <path d="M 1453.336556 2165.744983 
Q 1305.3413 2391.995875 1157.468449 2618.059639 
" clip-path="url(#pff53f7e5fe)" style="fill: none; stroke: #000000; stroke-width: 0.2; stroke-linecap: round"/>
    <path d="M 1161.331818 2615.807 
L 1157.468449 2618.059639 
L 1157.98436 2613.61736 
z
" clip-path="url(#pff53f7e5fe)" style="stroke: #000000; stroke-width: 0.2; stroke-linecap: round"/>
   </g>
   <g id="patch_44">
    <path d="M 1362.954254 1866.001009 
Q 1409.734263 2003.263822 1456.442139 2140.314983 
" clip-path="url(#pff53f7e5fe)" style="fill: none; stroke: #000000; stroke-width: 0.2; stroke-linecap: round"/>
    <path d="M 1457.044873 2135.88365 
L 1456.442139 2140.314983 
L 1453.258713 2137.173996 
z
" clip-path="url(#pff53f7e5fe)" style="stroke: #000000; stroke-width: 0.2; stroke-linecap: round"/>
   </g>
   <g id="patch_45">
    <path d="M 1364.081672 1839.66924 
Q 1534.116392 1452.613538 1704.061176 1065.762559 
" clip-path="url(#pff53f7e5fe)" style="fill: none; stroke: #000000; stroke-width: 0.2; stroke-linecap: round"/>
    <path d="M 1700.621261 1068.620352 
L 1704.061176 1065.762559 
L 1704.283461 1070.229167 
z
" clip-path="url(#pff53f7e5fe)" style="stroke: #000000; stroke-width: 0.2; stroke-linecap: round"/>
   </g>
   <g id="patch_46">
    <path d="M 1350.694505 1864.478333 
Q 1330.144476 1896.136791 1309.716193 1927.607693 
" clip-path="url(#pff53f7e5fe)" style="fill: none; stroke: #000000; stroke-width: 0.2; stroke-linecap: round"/>
    <path d="M 1313.571626 1925.341499 
L 1309.716193 1927.607693 
L 1310.216498 1923.16363 
z
" clip-path="url(#pff53f7e5fe)" style="stroke: #000000; stroke-width: 0.2; stroke-linecap: round"/>
   </g>
   <g id="patch_47">
    <path d="M 1368.258834 1862.750809 
Q 1692.787422 2196.069449 2017.160022 2529.227877 
" clip-path="url(#pff53f7e5fe)" style="fill: none; stroke: #000000; stroke-width: 0.2; stroke-linecap: round"/>
    <path d="M 2015.80262 2524.966721 
L 2017.160022 2529.227877 
L 2012.936655 2527.757106 
z
" clip-path="url(#pff53f7e5fe)" style="stroke: #000000; stroke-width: 0.2; stroke-linecap: round"/>
   </g>
   <g id="patch_48">
    <path d="M 1344.27003 1851.891592 
Q 858.757202 1826.919848 373.467686 1801.95959 
" clip-path="url(#pff53f7e5fe)" style="fill: none; stroke: #000000; stroke-width: 0.2; stroke-linecap: round"/>
    <path d="M 377.359674 1804.162413 
L 373.467686 1801.95959 
L 377.565137 1800.167693 
z
" clip-path="url(#pff53f7e5fe)" style="stroke: #000000; stroke-width: 0.2; stroke-linecap: round"/>
   </g>
   <g id="patch_49">
    <path d="M 1715.411103 1039.610201 
Q 1881.863786 651.263115 2048.228378 263.121554 
" clip-path="url(#pff53f7e5fe)" style="fill: none; stroke: #000000; stroke-width: 0.2; stroke-linecap: round"/>
    <path d="M 2044.814296 266.01016 
L 2048.228378 263.121554 
L 2048.490814 267.585983 
z
" clip-path="url(#pff53f7e5fe)" style="stroke: #000000; stroke-width: 0.2; stroke-linecap: round"/>
   </g>
   <g id="patch_50">
    <path d="M 1704.151368 1065.557254 
Q 1534.116648 1452.612955 1364.171864 1839.463934 
" clip-path="url(#pff53f7e5fe)" style="fill: none; stroke: #000000; stroke-width: 0.2; stroke-linecap: round"/>
    <path d="M 1367.611779 1836.606141 
L 1364.171864 1839.463934 
L 1363.949579 1834.997326 
z
" clip-path="url(#pff53f7e5fe)" style="stroke: #000000; stroke-width: 0.2; stroke-linecap: round"/>
   </g>
   <g id="PathCollection_1">
    <defs>
     <path id="C0_0_7b082fdbba" d="M 0 14.142136 
C 3.750538 14.142136 7.347969 12.652031 10 10 
C 12.652031 7.347969 14.142136 3.750538 14.142136 -0 
C 14.142136 -3.750538 12.652031 -7.347969 10 -10 
C 7.347969 -12.652031 3.750538 -14.142136 0 -14.142136 
C -3.750538 -14.142136 -7.347969 -12.652031 -10 -10 
C -12.652031 -7.347969 -14.142136 -3.750538 -14.142136 0 
C -14.142136 3.750538 -12.652031 7.347969 -10 10 
C -7.347969 12.652031 -3.750538 14.142136 0 14.142136 
z
"/>
    </defs>
    <g clip-path="url(#pff53f7e5fe)">
     <use xlink:href="#C0_0_7b082fdbba" x="846.211925" y="804.383272" style="fill: #0000ff; stroke: #0000ff"/>
    </g>
    <g clip-path="url(#pff53f7e5fe)">
     <use xlink:href="#C0_0_7b082fdbba" x="1088.735882" y="760.727532" style="fill: #0000ff; stroke: #0000ff"/>
    </g>
    <g clip-path="url(#pff53f7e5fe)">
     <use xlink:href="#C0_0_7b082fdbba" x="1343.050805" y="924.797089" style="fill: #ffff00; stroke: #ffff00"/>
    </g>
    <g clip-path="url(#pff53f7e5fe)">
     <use xlink:href="#C0_0_7b082fdbba" x="785.27233" y="267.295181" style="fill: #0000ff; stroke: #0000ff"/>
    </g>
    <g clip-path="url(#pff53f7e5fe)">
     <use xlink:href="#C0_0_7b082fdbba" x="249.917355" y="1074.830911" style="fill: #ffff00; stroke: #ffff00"/>
    </g>
    <g clip-path="url(#pff53f7e5fe)">
     <use xlink:href="#C0_0_7b082fdbba" x="1164.577371" y="988.228594" style="fill: #ffa500; stroke: #ffa500"/>
    </g>
    <g clip-path="url(#pff53f7e5fe)">
     <use xlink:href="#C0_0_7b082fdbba" x="1932.487351" y="943.185088" style="fill: #0000ff; stroke: #0000ff"/>
    </g>
    <g clip-path="url(#pff53f7e5fe)">
     <use xlink:href="#C0_0_7b082fdbba" x="1390.86015" y="1202.788091" style="fill: #ffff00; stroke: #ffff00"/>
    </g>
    <g clip-path="url(#pff53f7e5fe)">
     <use xlink:href="#C0_0_7b082fdbba" x="1303.027219" y="1058.596569" style="fill: #ffff00; stroke: #ffff00"/>
    </g>
    <g clip-path="url(#pff53f7e5fe)">
     <use xlink:href="#C0_0_7b082fdbba" x="1301.893304" y="1939.659285" style="fill: #ffa500; stroke: #ffa500"/>
    </g>
    <g clip-path="url(#pff53f7e5fe)">
     <use xlink:href="#C0_0_7b082fdbba" x="2630.082645" y="1375.813114" style="fill: #ffa500; stroke: #ffa500"/>
    </g>
    <g clip-path="url(#pff53f7e5fe)">
     <use xlink:href="#C0_0_7b082fdbba" x="2053.887939" y="249.917355" style="fill: #ffff00; stroke: #ffff00"/>
    </g>
    <g clip-path="url(#pff53f7e5fe)">
     <use xlink:href="#C0_0_7b082fdbba" x="1461.076313" y="2153.912665" style="fill: #ffff00; stroke: #ffff00"/>
    </g>
    <g clip-path="url(#pff53f7e5fe)">
     <use xlink:href="#C0_0_7b082fdbba" x="1358.393243" y="1852.618002" style="fill: #0000ff; stroke: #0000ff"/>
    </g>
    <g clip-path="url(#pff53f7e5fe)">
     <use xlink:href="#C0_0_7b082fdbba" x="1149.60396" y="2630.082645" style="fill: #ffff00; stroke: #ffff00"/>
    </g>
    <g clip-path="url(#pff53f7e5fe)">
     <use xlink:href="#C0_0_7b082fdbba" x="1709.839798" y="1052.608491" style="fill: #ffa500; stroke: #ffa500"/>
    </g>
    <g clip-path="url(#pff53f7e5fe)">
     <use xlink:href="#C0_0_7b082fdbba" x="2027.181858" y="2539.52116" style="fill: #0000ff; stroke: #0000ff"/>
    </g>
    <g clip-path="url(#pff53f7e5fe)">
     <use xlink:href="#C0_0_7b082fdbba" x="359.117836" y="1801.221523" style="fill: #ffff00; stroke: #ffff00"/>
    </g>
    <g clip-path="url(#pff53f7e5fe)">
     <use xlink:href="#C0_0_7b082fdbba" x="2531.75934" y="2168.013264" style="fill: #ffff00; stroke: #ffff00"/>
    </g>
   </g>
   <g id="text_1">
    <g clip-path="url(#pff53f7e5fe)">
     <!-- VAL 90 -->
     <g transform="translate(832.404425 806.590772) scale(0.08 -0.08)">
      <defs>
       <path id="DejaVuSans-56" d="M 1831 0 
L 50 4666 
L 709 4666 
L 2188 738 
L 3669 4666 
L 4325 4666 
L 2547 0 
L 1831 0 
z
" transform="scale(0.015625)"/>
       <path id="DejaVuSans-41" d="M 2188 4044 
L 1331 1722 
L 3047 1722 
L 2188 4044 
z
M 1831 4666 
L 2547 4666 
L 4325 0 
L 3669 0 
L 3244 1197 
L 1141 1197 
L 716 0 
L 50 0 
L 1831 4666 
z
" transform="scale(0.015625)"/>
       <path id="DejaVuSans-4c" d="M 628 4666 
L 1259 4666 
L 1259 531 
L 3531 531 
L 3531 0 
L 628 0 
L 628 4666 
z
" transform="scale(0.015625)"/>
       <path id="DejaVuSans-20" transform="scale(0.015625)"/>
       <path id="DejaVuSans-39" d="M 703 97 
L 703 672 
Q 941 559 1184 500 
Q 1428 441 1663 441 
Q 2288 441 2617 861 
Q 2947 1281 2994 2138 
Q 2813 1869 2534 1725 
Q 2256 1581 1919 1581 
Q 1219 1581 811 2004 
Q 403 2428 403 3163 
Q 403 3881 828 4315 
Q 1253 4750 1959 4750 
Q 2769 4750 3195 4129 
Q 3622 3509 3622 2328 
Q 3622 1225 3098 567 
Q 2575 -91 1691 -91 
Q 1453 -91 1209 -44 
Q 966 3 703 97 
z
M 1959 2075 
Q 2384 2075 2632 2365 
Q 2881 2656 2881 3163 
Q 2881 3666 2632 3958 
Q 2384 4250 1959 4250 
Q 1534 4250 1286 3958 
Q 1038 3666 1038 3163 
Q 1038 2656 1286 2365 
Q 1534 2075 1959 2075 
z
" transform="scale(0.015625)"/>
       <path id="DejaVuSans-30" d="M 2034 4250 
Q 1547 4250 1301 3770 
Q 1056 3291 1056 2328 
Q 1056 1369 1301 889 
Q 1547 409 2034 409 
Q 2525 409 2770 889 
Q 3016 1369 3016 2328 
Q 3016 3291 2770 3770 
Q 2525 4250 2034 4250 
z
M 2034 4750 
Q 2819 4750 3233 4129 
Q 3647 3509 3647 2328 
Q 3647 1150 3233 529 
Q 2819 -91 2034 -91 
Q 1250 -91 836 529 
Q 422 1150 422 2328 
Q 422 3509 836 4129 
Q 1250 4750 2034 4750 
z
" transform="scale(0.015625)"/>
      </defs>
      <use xlink:href="#DejaVuSans-56"/>
      <use xlink:href="#DejaVuSans-41" x="62.033203"/>
      <use xlink:href="#DejaVuSans-4c" x="130.441406"/>
      <use xlink:href="#DejaVuSans-20" x="186.154297"/>
      <use xlink:href="#DejaVuSans-39" x="217.941406"/>
      <use xlink:href="#DejaVuSans-30" x="281.564453"/>
     </g>
    </g>
   </g>
   <g id="text_2">
    <g clip-path="url(#pff53f7e5fe)">
     <!-- VAL 75 -->
     <g transform="translate(1074.928382 762.935032) scale(0.08 -0.08)">
      <defs>
       <path id="DejaVuSans-37" d="M 525 4666 
L 3525 4666 
L 3525 4397 
L 1831 0 
L 1172 0 
L 2766 4134 
L 525 4134 
L 525 4666 
z
" transform="scale(0.015625)"/>
       <path id="DejaVuSans-35" d="M 691 4666 
L 3169 4666 
L 3169 4134 
L 1269 4134 
L 1269 2991 
Q 1406 3038 1543 3061 
Q 1681 3084 1819 3084 
Q 2600 3084 3056 2656 
Q 3513 2228 3513 1497 
Q 3513 744 3044 326 
Q 2575 -91 1722 -91 
Q 1428 -91 1123 -41 
Q 819 9 494 109 
L 494 744 
Q 775 591 1075 516 
Q 1375 441 1709 441 
Q 2250 441 2565 725 
Q 2881 1009 2881 1497 
Q 2881 1984 2565 2268 
Q 2250 2553 1709 2553 
Q 1456 2553 1204 2497 
Q 953 2441 691 2322 
L 691 4666 
z
" transform="scale(0.015625)"/>
      </defs>
      <use xlink:href="#DejaVuSans-56"/>
      <use xlink:href="#DejaVuSans-41" x="62.033203"/>
      <use xlink:href="#DejaVuSans-4c" x="130.441406"/>
      <use xlink:href="#DejaVuSans-20" x="186.154297"/>
      <use xlink:href="#DejaVuSans-37" x="217.941406"/>
      <use xlink:href="#DejaVuSans-35" x="281.564453"/>
     </g>
    </g>
   </g>
   <g id="text_3">
    <g clip-path="url(#pff53f7e5fe)">
     <!-- LEU 99 -->
     <g transform="translate(1329.005805 927.004589) scale(0.08 -0.08)">
      <defs>
       <path id="DejaVuSans-45" d="M 628 4666 
L 3578 4666 
L 3578 4134 
L 1259 4134 
L 1259 2753 
L 3481 2753 
L 3481 2222 
L 1259 2222 
L 1259 531 
L 3634 531 
L 3634 0 
L 628 0 
L 628 4666 
z
" transform="scale(0.015625)"/>
       <path id="DejaVuSans-55" d="M 556 4666 
L 1191 4666 
L 1191 1831 
Q 1191 1081 1462 751 
Q 1734 422 2344 422 
Q 2950 422 3222 751 
Q 3494 1081 3494 1831 
L 3494 4666 
L 4128 4666 
L 4128 1753 
Q 4128 841 3676 375 
Q 3225 -91 2344 -91 
Q 1459 -91 1007 375 
Q 556 841 556 1753 
L 556 4666 
z
" transform="scale(0.015625)"/>
      </defs>
      <use xlink:href="#DejaVuSans-4c"/>
      <use xlink:href="#DejaVuSans-45" x="55.712891"/>
      <use xlink:href="#DejaVuSans-55" x="118.896484"/>
      <use xlink:href="#DejaVuSans-20" x="192.089844"/>
      <use xlink:href="#DejaVuSans-39" x="223.876953"/>
      <use xlink:href="#DejaVuSans-39" x="287.5"/>
     </g>
    </g>
   </g>
   <g id="text_4">
    <g clip-path="url(#pff53f7e5fe)">
     <!-- VAL 102 -->
     <g transform="translate(768.91983 269.502681) scale(0.08 -0.08)">
      <defs>
       <path id="DejaVuSans-31" d="M 794 531 
L 1825 531 
L 1825 4091 
L 703 3866 
L 703 4441 
L 1819 4666 
L 2450 4666 
L 2450 531 
L 3481 531 
L 3481 0 
L 794 0 
L 794 531 
z
" transform="scale(0.015625)"/>
       <path id="DejaVuSans-32" d="M 1228 531 
L 3431 531 
L 3431 0 
L 469 0 
L 469 531 
Q 828 903 1448 1529 
Q 2069 2156 2228 2338 
Q 2531 2678 2651 2914 
Q 2772 3150 2772 3378 
Q 2772 3750 2511 3984 
Q 2250 4219 1831 4219 
Q 1534 4219 1204 4116 
Q 875 4013 500 3803 
L 500 4441 
Q 881 4594 1212 4672 
Q 1544 4750 1819 4750 
Q 2544 4750 2975 4387 
Q 3406 4025 3406 3419 
Q 3406 3131 3298 2873 
Q 3191 2616 2906 2266 
Q 2828 2175 2409 1742 
Q 1991 1309 1228 531 
z
" transform="scale(0.015625)"/>
      </defs>
      <use xlink:href="#DejaVuSans-56"/>
      <use xlink:href="#DejaVuSans-41" x="62.033203"/>
      <use xlink:href="#DejaVuSans-4c" x="130.441406"/>
      <use xlink:href="#DejaVuSans-20" x="186.154297"/>
      <use xlink:href="#DejaVuSans-31" x="217.941406"/>
      <use xlink:href="#DejaVuSans-30" x="281.564453"/>
      <use xlink:href="#DejaVuSans-32" x="345.1875"/>
     </g>
    </g>
   </g>
   <g id="text_5">
    <g clip-path="url(#pff53f7e5fe)">
     <!-- LEU 112 -->
     <g transform="translate(233.327355 1077.038411) scale(0.08 -0.08)">
      <use xlink:href="#DejaVuSans-4c"/>
      <use xlink:href="#DejaVuSans-45" x="55.712891"/>
      <use xlink:href="#DejaVuSans-55" x="118.896484"/>
      <use xlink:href="#DejaVuSans-20" x="192.089844"/>
      <use xlink:href="#DejaVuSans-31" x="223.876953"/>
      <use xlink:href="#DejaVuSans-31" x="287.5"/>
      <use xlink:href="#DejaVuSans-32" x="351.123047"/>
     </g>
    </g>
   </g>
   <g id="text_6">
    <g clip-path="url(#pff53f7e5fe)">
     <!-- ILE 116 -->
     <g transform="translate(1149.734871 990.436094) scale(0.08 -0.08)">
      <defs>
       <path id="DejaVuSans-49" d="M 628 4666 
L 1259 4666 
L 1259 0 
L 628 0 
L 628 4666 
z
" transform="scale(0.015625)"/>
       <path id="DejaVuSans-36" d="M 2113 2584 
Q 1688 2584 1439 2293 
Q 1191 2003 1191 1497 
Q 1191 994 1439 701 
Q 1688 409 2113 409 
Q 2538 409 2786 701 
Q 3034 994 3034 1497 
Q 3034 2003 2786 2293 
Q 2538 2584 2113 2584 
z
M 3366 4563 
L 3366 3988 
Q 3128 4100 2886 4159 
Q 2644 4219 2406 4219 
Q 1781 4219 1451 3797 
Q 1122 3375 1075 2522 
Q 1259 2794 1537 2939 
Q 1816 3084 2150 3084 
Q 2853 3084 3261 2657 
Q 3669 2231 3669 1497 
Q 3669 778 3244 343 
Q 2819 -91 2113 -91 
Q 1303 -91 875 529 
Q 447 1150 447 2328 
Q 447 3434 972 4092 
Q 1497 4750 2381 4750 
Q 2619 4750 2861 4703 
Q 3103 4656 3366 4563 
z
" transform="scale(0.015625)"/>
      </defs>
      <use xlink:href="#DejaVuSans-49"/>
      <use xlink:href="#DejaVuSans-4c" x="29.492188"/>
      <use xlink:href="#DejaVuSans-45" x="85.205078"/>
      <use xlink:href="#DejaVuSans-20" x="148.388672"/>
      <use xlink:href="#DejaVuSans-31" x="180.175781"/>
      <use xlink:href="#DejaVuSans-31" x="243.798828"/>
      <use xlink:href="#DejaVuSans-36" x="307.421875"/>
     </g>
    </g>
   </g>
   <g id="text_7">
    <g clip-path="url(#pff53f7e5fe)">
     <!-- VAL 46 -->
     <g transform="translate(1918.679851 945.392588) scale(0.08 -0.08)">
      <defs>
       <path id="DejaVuSans-34" d="M 2419 4116 
L 825 1625 
L 2419 1625 
L 2419 4116 
z
M 2253 4666 
L 3047 4666 
L 3047 1625 
L 3713 1625 
L 3713 1100 
L 3047 1100 
L 3047 0 
L 2419 0 
L 2419 1100 
L 313 1100 
L 313 1709 
L 2253 4666 
z
" transform="scale(0.015625)"/>
      </defs>
      <use xlink:href="#DejaVuSans-56"/>
      <use xlink:href="#DejaVuSans-41" x="62.033203"/>
      <use xlink:href="#DejaVuSans-4c" x="130.441406"/>
      <use xlink:href="#DejaVuSans-20" x="186.154297"/>
      <use xlink:href="#DejaVuSans-34" x="217.941406"/>
      <use xlink:href="#DejaVuSans-36" x="281.564453"/>
     </g>
    </g>
   </g>
   <g id="text_8">
    <g clip-path="url(#pff53f7e5fe)">
     <!-- LEU 51 -->
     <g transform="translate(1376.81515 1204.995591) scale(0.08 -0.08)">
      <use xlink:href="#DejaVuSans-4c"/>
      <use xlink:href="#DejaVuSans-45" x="55.712891"/>
      <use xlink:href="#DejaVuSans-55" x="118.896484"/>
      <use xlink:href="#DejaVuSans-20" x="192.089844"/>
      <use xlink:href="#DejaVuSans-35" x="223.876953"/>
      <use xlink:href="#DejaVuSans-31" x="287.5"/>
     </g>
    </g>
   </g>
   <g id="text_9">
    <g clip-path="url(#pff53f7e5fe)">
     <!-- LEU 121 -->
     <g transform="translate(1286.437219 1060.804069) scale(0.08 -0.08)">
      <use xlink:href="#DejaVuSans-4c"/>
      <use xlink:href="#DejaVuSans-45" x="55.712891"/>
      <use xlink:href="#DejaVuSans-55" x="118.896484"/>
      <use xlink:href="#DejaVuSans-20" x="192.089844"/>
      <use xlink:href="#DejaVuSans-31" x="223.876953"/>
      <use xlink:href="#DejaVuSans-32" x="287.5"/>
      <use xlink:href="#DejaVuSans-31" x="351.123047"/>
     </g>
    </g>
   </g>
   <g id="text_10">
    <g clip-path="url(#pff53f7e5fe)">
     <!-- ILE 71 -->
     <g transform="translate(1289.595804 1941.866785) scale(0.08 -0.08)">
      <use xlink:href="#DejaVuSans-49"/>
      <use xlink:href="#DejaVuSans-4c" x="29.492188"/>
      <use xlink:href="#DejaVuSans-45" x="85.205078"/>
      <use xlink:href="#DejaVuSans-20" x="148.388672"/>
      <use xlink:href="#DejaVuSans-37" x="180.175781"/>
      <use xlink:href="#DejaVuSans-31" x="243.798828"/>
     </g>
    </g>
   </g>
   <g id="text_11">
    <g clip-path="url(#pff53f7e5fe)">
     <!-- ILE 9 -->
     <g transform="translate(2620.330145 1378.020614) scale(0.08 -0.08)">
      <use xlink:href="#DejaVuSans-49"/>
      <use xlink:href="#DejaVuSans-4c" x="29.492188"/>
      <use xlink:href="#DejaVuSans-45" x="85.205078"/>
      <use xlink:href="#DejaVuSans-20" x="148.388672"/>
      <use xlink:href="#DejaVuSans-39" x="180.175781"/>
     </g>
    </g>
   </g>
   <g id="text_12">
    <g clip-path="url(#pff53f7e5fe)">
     <!-- LEU 12 -->
     <g transform="translate(2039.842939 252.124855) scale(0.08 -0.08)">
      <use xlink:href="#DejaVuSans-4c"/>
      <use xlink:href="#DejaVuSans-45" x="55.712891"/>
      <use xlink:href="#DejaVuSans-55" x="118.896484"/>
      <use xlink:href="#DejaVuSans-20" x="192.089844"/>
      <use xlink:href="#DejaVuSans-31" x="223.876953"/>
      <use xlink:href="#DejaVuSans-32" x="287.5"/>
     </g>
    </g>
   </g>
   <g id="text_13">
    <g clip-path="url(#pff53f7e5fe)">
     <!-- LEU 41 -->
     <g transform="translate(1447.031313 2156.120165) scale(0.08 -0.08)">
      <use xlink:href="#DejaVuSans-4c"/>
      <use xlink:href="#DejaVuSans-45" x="55.712891"/>
      <use xlink:href="#DejaVuSans-55" x="118.896484"/>
      <use xlink:href="#DejaVuSans-20" x="192.089844"/>
      <use xlink:href="#DejaVuSans-34" x="223.876953"/>
      <use xlink:href="#DejaVuSans-31" x="287.5"/>
     </g>
    </g>
   </g>
   <g id="text_14">
    <g clip-path="url(#pff53f7e5fe)">
     <!-- VAL 43 -->
     <g transform="translate(1344.585743 1854.825502) scale(0.08 -0.08)">
      <defs>
       <path id="DejaVuSans-33" d="M 2597 2516 
Q 3050 2419 3304 2112 
Q 3559 1806 3559 1356 
Q 3559 666 3084 287 
Q 2609 -91 1734 -91 
Q 1441 -91 1130 -33 
Q 819 25 488 141 
L 488 750 
Q 750 597 1062 519 
Q 1375 441 1716 441 
Q 2309 441 2620 675 
Q 2931 909 2931 1356 
Q 2931 1769 2642 2001 
Q 2353 2234 1838 2234 
L 1294 2234 
L 1294 2753 
L 1863 2753 
Q 2328 2753 2575 2939 
Q 2822 3125 2822 3475 
Q 2822 3834 2567 4026 
Q 2313 4219 1838 4219 
Q 1578 4219 1281 4162 
Q 984 4106 628 3988 
L 628 4550 
Q 988 4650 1302 4700 
Q 1616 4750 1894 4750 
Q 2613 4750 3031 4423 
Q 3450 4097 3450 3541 
Q 3450 3153 3228 2886 
Q 3006 2619 2597 2516 
z
" transform="scale(0.015625)"/>
      </defs>
      <use xlink:href="#DejaVuSans-56"/>
      <use xlink:href="#DejaVuSans-41" x="62.033203"/>
      <use xlink:href="#DejaVuSans-4c" x="130.441406"/>
      <use xlink:href="#DejaVuSans-20" x="186.154297"/>
      <use xlink:href="#DejaVuSans-34" x="217.941406"/>
      <use xlink:href="#DejaVuSans-33" x="281.564453"/>
     </g>
    </g>
   </g>
   <g id="text_15">
    <g clip-path="url(#pff53f7e5fe)">
     <!-- LEU 140 -->
     <g transform="translate(1133.01396 2632.290145) scale(0.08 -0.08)">
      <use xlink:href="#DejaVuSans-4c"/>
      <use xlink:href="#DejaVuSans-45" x="55.712891"/>
      <use xlink:href="#DejaVuSans-55" x="118.896484"/>
      <use xlink:href="#DejaVuSans-20" x="192.089844"/>
      <use xlink:href="#DejaVuSans-31" x="223.876953"/>
      <use xlink:href="#DejaVuSans-34" x="287.5"/>
      <use xlink:href="#DejaVuSans-30" x="351.123047"/>
     </g>
    </g>
   </g>
   <g id="text_16">
    <g clip-path="url(#pff53f7e5fe)">
     <!-- ILE 45 -->
     <g transform="translate(1697.542298 1054.815991) scale(0.08 -0.08)">
      <use xlink:href="#DejaVuSans-49"/>
      <use xlink:href="#DejaVuSans-4c" x="29.492188"/>
      <use xlink:href="#DejaVuSans-45" x="85.205078"/>
      <use xlink:href="#DejaVuSans-20" x="148.388672"/>
      <use xlink:href="#DejaVuSans-34" x="180.175781"/>
      <use xlink:href="#DejaVuSans-35" x="243.798828"/>
     </g>
    </g>
   </g>
   <g id="text_17">
    <g clip-path="url(#pff53f7e5fe)">
     <!-- VAL 124 -->
     <g transform="translate(2010.829358 2541.72866) scale(0.08 -0.08)">
      <use xlink:href="#DejaVuSans-56"/>
      <use xlink:href="#DejaVuSans-41" x="62.033203"/>
      <use xlink:href="#DejaVuSans-4c" x="130.441406"/>
      <use xlink:href="#DejaVuSans-20" x="186.154297"/>
      <use xlink:href="#DejaVuSans-31" x="217.941406"/>
      <use xlink:href="#DejaVuSans-32" x="281.564453"/>
      <use xlink:href="#DejaVuSans-34" x="345.1875"/>
     </g>
    </g>
   </g>
   <g id="text_18">
    <g clip-path="url(#pff53f7e5fe)">
     <!-- LEU 129 -->
     <g transform="translate(342.527836 1803.429023) scale(0.08 -0.08)">
      <use xlink:href="#DejaVuSans-4c"/>
      <use xlink:href="#DejaVuSans-45" x="55.712891"/>
      <use xlink:href="#DejaVuSans-55" x="118.896484"/>
      <use xlink:href="#DejaVuSans-20" x="192.089844"/>
      <use xlink:href="#DejaVuSans-31" x="223.876953"/>
      <use xlink:href="#DejaVuSans-32" x="287.5"/>
      <use xlink:href="#DejaVuSans-39" x="351.123047"/>
     </g>
    </g>
   </g>
   <g id="text_19">
    <g clip-path="url(#pff53f7e5fe)">
     <!-- LEU 138 -->
     <g transform="translate(2515.16934 2170.220764) scale(0.08 -0.08)">
      <defs>
       <path id="DejaVuSans-38" d="M 2034 2216 
Q 1584 2216 1326 1975 
Q 1069 1734 1069 1313 
Q 1069 891 1326 650 
Q 1584 409 2034 409 
Q 2484 409 2743 651 
Q 3003 894 3003 1313 
Q 3003 1734 2745 1975 
Q 2488 2216 2034 2216 
z
M 1403 2484 
Q 997 2584 770 2862 
Q 544 3141 544 3541 
Q 544 4100 942 4425 
Q 1341 4750 2034 4750 
Q 2731 4750 3128 4425 
Q 3525 4100 3525 3541 
Q 3525 3141 3298 2862 
Q 3072 2584 2669 2484 
Q 3125 2378 3379 2068 
Q 3634 1759 3634 1313 
Q 3634 634 3220 271 
Q 2806 -91 2034 -91 
Q 1263 -91 848 271 
Q 434 634 434 1313 
Q 434 1759 690 2068 
Q 947 2378 1403 2484 
z
M 1172 3481 
Q 1172 3119 1398 2916 
Q 1625 2713 2034 2713 
Q 2441 2713 2670 2916 
Q 2900 3119 2900 3481 
Q 2900 3844 2670 4047 
Q 2441 4250 2034 4250 
Q 1625 4250 1398 4047 
Q 1172 3844 1172 3481 
z
" transform="scale(0.015625)"/>
      </defs>
      <use xlink:href="#DejaVuSans-4c"/>
      <use xlink:href="#DejaVuSans-45" x="55.712891"/>
      <use xlink:href="#DejaVuSans-55" x="118.896484"/>
      <use xlink:href="#DejaVuSans-20" x="192.089844"/>
      <use xlink:href="#DejaVuSans-31" x="223.876953"/>
      <use xlink:href="#DejaVuSans-33" x="287.5"/>
      <use xlink:href="#DejaVuSans-38" x="351.123047"/>
     </g>
    </g>
   </g>
  </g>
  <g id="text_20">
   <!-- G_NMR -->
   <g transform="translate(1418.51625 66.50625) scale(0.12 -0.12)">
    <defs>
     <path id="DejaVuSans-47" d="M 3809 666 
L 3809 1919 
L 2778 1919 
L 2778 2438 
L 4434 2438 
L 4434 434 
Q 4069 175 3628 42 
Q 3188 -91 2688 -91 
Q 1594 -91 976 548 
Q 359 1188 359 2328 
Q 359 3472 976 4111 
Q 1594 4750 2688 4750 
Q 3144 4750 3555 4637 
Q 3966 4525 4313 4306 
L 4313 3634 
Q 3963 3931 3569 4081 
Q 3175 4231 2741 4231 
Q 1884 4231 1454 3753 
Q 1025 3275 1025 2328 
Q 1025 1384 1454 906 
Q 1884 428 2741 428 
Q 3075 428 3337 486 
Q 3600 544 3809 666 
z
" transform="scale(0.015625)"/>
     <path id="DejaVuSans-5f" d="M 3263 -1063 
L 3263 -1509 
L -63 -1509 
L -63 -1063 
L 3263 -1063 
z
" transform="scale(0.015625)"/>
     <path id="DejaVuSans-4e" d="M 628 4666 
L 1478 4666 
L 3547 763 
L 3547 4666 
L 4159 4666 
L 4159 0 
L 3309 0 
L 1241 3903 
L 1241 0 
L 628 0 
L 628 4666 
z
" transform="scale(0.015625)"/>
     <path id="DejaVuSans-4d" d="M 628 4666 
L 1569 4666 
L 2759 1491 
L 3956 4666 
L 4897 4666 
L 4897 0 
L 4281 0 
L 4281 4097 
L 3078 897 
L 2444 897 
L 1241 4097 
L 1241 0 
L 628 0 
L 628 4666 
z
" transform="scale(0.015625)"/>
     <path id="DejaVuSans-52" d="M 2841 2188 
Q 3044 2119 3236 1894 
Q 3428 1669 3622 1275 
L 4263 0 
L 3584 0 
L 2988 1197 
Q 2756 1666 2539 1819 
Q 2322 1972 1947 1972 
L 1259 1972 
L 1259 0 
L 628 0 
L 628 4666 
L 2053 4666 
Q 2853 4666 3247 4331 
Q 3641 3997 3641 3322 
Q 3641 2881 3436 2590 
Q 3231 2300 2841 2188 
z
M 1259 4147 
L 1259 2491 
L 2053 2491 
Q 2509 2491 2742 2702 
Q 2975 2913 2975 3322 
Q 2975 3731 2742 3939 
Q 2509 4147 2053 4147 
L 1259 4147 
z
" transform="scale(0.015625)"/>
    </defs>
    <use xlink:href="#DejaVuSans-47"/>
    <use xlink:href="#DejaVuSans-5f" x="77.490234"/>
    <use xlink:href="#DejaVuSans-4e" x="127.490234"/>
    <use xlink:href="#DejaVuSans-4d" x="202.294922"/>
    <use xlink:href="#DejaVuSans-52" x="288.574219"/>
   </g>
  </g>
 </g>
 <defs>
  <clipPath id="pff53f7e5fe">
   <rect x="0" y="0" width="2880" height="2880"/>
  </clipPath>
 </defs>
</svg>
