<?xml version="1.0" encoding="utf-8" standalone="no"?>
<!DOCTYPE svg PUBLIC "-//W3C//DTD SVG 1.1//EN"
  "http://www.w3.org/Graphics/SVG/1.1/DTD/svg11.dtd">
<svg xmlns:xlink="http://www.w3.org/1999/xlink" width="2880pt" height="2880pt" viewBox="0 0 2880 2880" xmlns="http://www.w3.org/2000/svg" version="1.1">
 <metadata>
  <rdf:RDF xmlns:dc="http://purl.org/dc/elements/1.1/" xmlns:cc="http://creativecommons.org/ns#" xmlns:rdf="http://www.w3.org/1999/02/22-rdf-syntax-ns#">
   <cc:Work>
    <dc:type rdf:resource="http://purl.org/dc/dcmitype/StillImage"/>
    <dc:date>2024-02-24T15:34:19.404370</dc:date>
    <dc:format>image/svg+xml</dc:format>
    <dc:creator>
     <cc:Agent>
      <dc:title>Matplotlib v3.8.2, https://matplotlib.org/</dc:title>
     </cc:Agent>
    </dc:creator>
   </cc:Work>
  </rdf:RDF>
 </metadata>
 <defs>
  <style type="text/css">*{stroke-linejoin: round; stroke-linecap: butt}</style>
 </defs>
 <g id="figure_1">
  <g id="patch_1">
   <path d="M 0 2880 
L 2880 2880 
L 2880 0 
L 0 0 
z
" style="fill: #ffffff"/>
  </g>
  <g id="axes_1">
   <g id="patch_2">
    <path d="M 643.621016 1514.601666 
Q 702.124011 1476.674736 760.439379 1438.869444 
" clip-path="url(#pd897a65a7d)" style="fill: none; stroke: #000000; stroke-width: 0.2; stroke-linecap: round"/>
    <path d="M 755.995026 1439.367165 
L 760.439379 1438.869444 
L 758.170944 1442.723559 
z
" clip-path="url(#pd897a65a7d)" style="stroke: #000000; stroke-width: 0.2; stroke-linecap: round"/>
   </g>
   <g id="patch_3">
    <path d="M 645.739132 1520.185561 
Q 786.498155 1498.966314 927.03607 1477.780399 
" clip-path="url(#pd897a65a7d)" style="fill: none; stroke: #000000; stroke-width: 0.2; stroke-linecap: round"/>
    <path d="M 922.782631 1476.399002 
L 927.03607 1477.780399 
L 923.378889 1480.354312 
z
" clip-path="url(#pd897a65a7d)" style="stroke: #000000; stroke-width: 0.2; stroke-linecap: round"/>
   </g>
   <g id="patch_4">
    <path d="M 618.243556 1518.130913 
Q 562.15787 1500.853931 506.285882 1483.642778 
" clip-path="url(#pd897a65a7d)" style="fill: none; stroke: #000000; stroke-width: 0.2; stroke-linecap: round"/>
    <path d="M 509.519828 1486.731725 
L 506.285882 1483.642778 
L 510.697407 1482.908989 
z
" clip-path="url(#pd897a65a7d)" style="stroke: #000000; stroke-width: 0.2; stroke-linecap: round"/>
   </g>
   <g id="patch_5">
    <path d="M 617.641832 1521.381868 
Q 440.836867 1509.962824 264.255044 1498.558193 
" clip-path="url(#pd897a65a7d)" style="fill: none; stroke: #000000; stroke-width: 0.2; stroke-linecap: round"/>
    <path d="M 268.117825 1500.811839 
L 264.255044 1498.558193 
L 268.37563 1496.820156 
z
" clip-path="url(#pd897a65a7d)" style="stroke: #000000; stroke-width: 0.2; stroke-linecap: round"/>
   </g>
   <g id="patch_6">
    <path d="M 645.308818 1526.3352 
Q 768.022903 1562.931959 890.522707 1599.464813 
" clip-path="url(#pd897a65a7d)" style="fill: none; stroke: #000000; stroke-width: 0.2; stroke-linecap: round"/>
    <path d="M 887.261117 1596.40507 
L 890.522707 1599.464813 
L 886.117959 1600.23824 
z
" clip-path="url(#pd897a65a7d)" style="stroke: #000000; stroke-width: 0.2; stroke-linecap: round"/>
   </g>
   <g id="patch_7">
    <path d="M 785.359781 1425.177208 
Q 913.463628 1366.653801 1041.364087 1308.22331 
" clip-path="url(#pd897a65a7d)" style="fill: none; stroke: #000000; stroke-width: 0.2; stroke-linecap: round"/>
    <path d="M 1036.894709 1308.066293 
L 1041.364087 1308.22331 
L 1038.556847 1311.704603 
z
" clip-path="url(#pd897a65a7d)" style="stroke: #000000; stroke-width: 0.2; stroke-linecap: round"/>
   </g>
   <g id="patch_8">
    <path d="M 760.627661 1438.747382 
Q 702.124666 1476.674312 643.809298 1514.479605 
" clip-path="url(#pd897a65a7d)" style="fill: none; stroke: #000000; stroke-width: 0.2; stroke-linecap: round"/>
    <path d="M 648.253651 1513.981884 
L 643.809298 1514.479605 
L 646.077733 1510.62549 
z
" clip-path="url(#pd897a65a7d)" style="stroke: #000000; stroke-width: 0.2; stroke-linecap: round"/>
   </g>
   <g id="patch_9">
    <path d="M 786.167563 1434.668625 
Q 856.86756 1453.347843 927.351368 1471.969942 
" clip-path="url(#pd897a65a7d)" style="fill: none; stroke: #000000; stroke-width: 0.2; stroke-linecap: round"/>
    <path d="M 923.994945 1469.014536 
L 927.351368 1471.969942 
L 922.973189 1472.881837 
z
" clip-path="url(#pd897a65a7d)" style="stroke: #000000; stroke-width: 0.2; stroke-linecap: round"/>
   </g>
   <g id="patch_10">
    <path d="M 758.554691 1433.463349 
Q 632.523944 1455.23534 506.71354 1476.969266 
" clip-path="url(#pd897a65a7d)" style="fill: none; stroke: #000000; stroke-width: 0.2; stroke-linecap: round"/>
    <path d="M 510.995618 1478.259155 
L 506.71354 1476.969266 
L 510.314698 1474.317538 
z
" clip-path="url(#pd897a65a7d)" style="stroke: #000000; stroke-width: 0.2; stroke-linecap: round"/>
   </g>
   <g id="patch_11">
    <path d="M 954.579581 1470.957195 
Q 1082.565767 1426.037013 1210.340964 1381.190883 
" clip-path="url(#pd897a65a7d)" style="fill: none; stroke: #000000; stroke-width: 0.2; stroke-linecap: round"/>
    <path d="M 1205.904339 1380.628427 
L 1210.340964 1381.190883 
L 1207.229024 1384.402709 
z
" clip-path="url(#pd897a65a7d)" style="stroke: #000000; stroke-width: 0.2; stroke-linecap: round"/>
   </g>
   <g id="patch_12">
    <path d="M 948.972011 1463.794673 
Q 997.835282 1388.946272 1046.576318 1314.28511 
" clip-path="url(#pd897a65a7d)" style="fill: none; stroke: #000000; stroke-width: 0.2; stroke-linecap: round"/>
    <path d="M 1042.714987 1316.541241 
L 1046.576318 1314.28511 
L 1046.064424 1318.727853 
z
" clip-path="url(#pd897a65a7d)" style="stroke: #000000; stroke-width: 0.2; stroke-linecap: round"/>
   </g>
   <g id="patch_13">
    <path d="M 927.564349 1472.026213 
Q 856.864352 1453.346995 786.380544 1434.724895 
" clip-path="url(#pd897a65a7d)" style="fill: none; stroke: #000000; stroke-width: 0.2; stroke-linecap: round"/>
    <path d="M 789.736966 1437.680302 
L 786.380544 1434.724895 
L 790.758722 1433.813001 
z
" clip-path="url(#pd897a65a7d)" style="stroke: #000000; stroke-width: 0.2; stroke-linecap: round"/>
   </g>
   <g id="patch_14">
    <path d="M 927.256672 1477.747143 
Q 786.497649 1498.96639 645.959734 1520.152305 
" clip-path="url(#pd897a65a7d)" style="fill: none; stroke: #000000; stroke-width: 0.2; stroke-linecap: round"/>
    <path d="M 650.213173 1521.533702 
L 645.959734 1520.152305 
L 649.616915 1517.578392 
z
" clip-path="url(#pd897a65a7d)" style="stroke: #000000; stroke-width: 0.2; stroke-linecap: round"/>
   </g>
   <g id="patch_15">
    <path d="M 937.31403 1489.229527 
Q 922.762562 1539.607577 908.273146 1589.770802 
" clip-path="url(#pd897a65a7d)" style="fill: none; stroke: #000000; stroke-width: 0.2; stroke-linecap: round"/>
    <path d="M 911.304601 1586.482903 
L 908.273146 1589.770802 
L 907.4617 1585.372899 
z
" clip-path="url(#pd897a65a7d)" style="stroke: #000000; stroke-width: 0.2; stroke-linecap: round"/>
   </g>
   <g id="patch_16">
    <path d="M 949.579973 1487.058081 
Q 1002.285085 1559.216147 1054.858307 1631.193645 
" clip-path="url(#pd897a65a7d)" style="fill: none; stroke: #000000; stroke-width: 0.2; stroke-linecap: round"/>
    <path d="M 1054.114051 1626.783873 
L 1054.858307 1631.193645 
L 1050.883936 1629.143187 
z
" clip-path="url(#pd897a65a7d)" style="stroke: #000000; stroke-width: 0.2; stroke-linecap: round"/>
   </g>
   <g id="patch_17">
    <path d="M 506.497157 1477.006647 
Q 632.527904 1455.234656 758.338308 1433.500729 
" clip-path="url(#pd897a65a7d)" style="fill: none; stroke: #000000; stroke-width: 0.2; stroke-linecap: round"/>
    <path d="M 754.05623 1432.21084 
L 758.338308 1433.500729 
L 754.737151 1436.152458 
z
" clip-path="url(#pd897a65a7d)" style="stroke: #000000; stroke-width: 0.2; stroke-linecap: round"/>
   </g>
   <g id="patch_18">
    <path d="M 506.072185 1483.576949 
Q 562.157871 1500.853931 618.029859 1518.065084 
" clip-path="url(#pd897a65a7d)" style="fill: none; stroke: #000000; stroke-width: 0.2; stroke-linecap: round"/>
    <path d="M 614.795913 1514.976137 
L 618.029859 1518.065084 
L 613.618334 1518.798873 
z
" clip-path="url(#pd897a65a7d)" style="stroke: #000000; stroke-width: 0.2; stroke-linecap: round"/>
   </g>
   <g id="patch_19">
    <path d="M 478.456921 1480.473235 
Q 371.240075 1488.52317 264.246208 1496.556363 
" clip-path="url(#pd897a65a7d)" style="fill: none; stroke: #000000; stroke-width: 0.2; stroke-linecap: round"/>
    <path d="M 268.384722 1498.251269 
L 264.246208 1496.556363 
L 268.085241 1494.262495 
z
" clip-path="url(#pd897a65a7d)" style="stroke: #000000; stroke-width: 0.2; stroke-linecap: round"/>
   </g>
   <g id="patch_20">
    <path d="M 910.595644 1590.910008 
Q 979.360376 1452.909104 1048.025382 1315.108336 
" clip-path="url(#pd897a65a7d)" style="fill: none; stroke: #000000; stroke-width: 0.2; stroke-linecap: round"/>
    <path d="M 1044.451346 1317.796507 
L 1048.025382 1315.108336 
L 1048.031497 1319.580468 
z
" clip-path="url(#pd897a65a7d)" style="stroke: #000000; stroke-width: 0.2; stroke-linecap: round"/>
   </g>
   <g id="patch_21">
    <path d="M 890.734831 1599.528074 
Q 768.020746 1562.931316 645.520942 1526.398461 
" clip-path="url(#pd897a65a7d)" style="fill: none; stroke: #000000; stroke-width: 0.2; stroke-linecap: round"/>
    <path d="M 648.782532 1529.458204 
L 645.520942 1526.398461 
L 649.92569 1525.625035 
z
" clip-path="url(#pd897a65a7d)" style="stroke: #000000; stroke-width: 0.2; stroke-linecap: round"/>
   </g>
   <g id="patch_22">
    <path d="M 908.212854 1589.979537 
Q 922.764321 1539.601487 937.253738 1489.438262 
" clip-path="url(#pd897a65a7d)" style="fill: none; stroke: #000000; stroke-width: 0.2; stroke-linecap: round"/>
    <path d="M 934.222283 1492.726161 
L 937.253738 1489.438262 
L 938.065184 1493.836165 
z
" clip-path="url(#pd897a65a7d)" style="stroke: #000000; stroke-width: 0.2; stroke-linecap: round"/>
   </g>
   <g id="patch_23">
    <path d="M 918.018204 1606.95607 
Q 983.807265 1623.180745 1049.379225 1639.351879 
" clip-path="url(#pd897a65a7d)" style="fill: none; stroke: #000000; stroke-width: 0.2; stroke-linecap: round"/>
    <path d="M 1045.974468 1636.452287 
L 1049.379225 1639.351879 
L 1045.016698 1640.335929 
z
" clip-path="url(#pd897a65a7d)" style="stroke: #000000; stroke-width: 0.2; stroke-linecap: round"/>
   </g>
   <g id="patch_24">
    <path d="M 1237.344637 1380.809248 
Q 1311.56315 1404.955494 1385.569027 1429.032562 
" clip-path="url(#pd897a65a7d)" style="fill: none; stroke: #000000; stroke-width: 0.2; stroke-linecap: round"/>
    <path d="M 1382.384028 1425.89317 
L 1385.569027 1429.032562 
L 1381.146514 1429.696926 
z
" clip-path="url(#pd897a65a7d)" style="stroke: #000000; stroke-width: 0.2; stroke-linecap: round"/>
   </g>
   <g id="patch_25">
    <path d="M 1236.392818 1369.818876 
Q 1350.093664 1309.638755 1463.596878 1249.563238 
" clip-path="url(#pd897a65a7d)" style="fill: none; stroke: #000000; stroke-width: 0.2; stroke-linecap: round"/>
    <path d="M 1459.125941 1249.666769 
L 1463.596878 1249.563238 
L 1460.997141 1253.202107 
z
" clip-path="url(#pd897a65a7d)" style="stroke: #000000; stroke-width: 0.2; stroke-linecap: round"/>
   </g>
   <g id="patch_26">
    <path d="M 1210.937705 1370.761722 
Q 1139.161906 1339.343336 1067.590949 1308.014616 
" clip-path="url(#pd897a65a7d)" style="fill: none; stroke: #000000; stroke-width: 0.2; stroke-linecap: round"/>
    <path d="M 1070.453279 1311.450758 
L 1067.590949 1308.014616 
L 1072.05726 1307.786437 
z
" clip-path="url(#pd897a65a7d)" style="stroke: #000000; stroke-width: 0.2; stroke-linecap: round"/>
   </g>
   <g id="patch_27">
    <path d="M 1210.555215 1381.115685 
Q 1082.569029 1426.035867 954.793832 1470.881997 
" clip-path="url(#pd897a65a7d)" style="fill: none; stroke: #000000; stroke-width: 0.2; stroke-linecap: round"/>
    <path d="M 959.230457 1471.444453 
L 954.793832 1470.881997 
L 957.905772 1467.670171 
z
" clip-path="url(#pd897a65a7d)" style="stroke: #000000; stroke-width: 0.2; stroke-linecap: round"/>
   </g>
   <g id="patch_28">
    <path d="M 1067.388189 1307.925862 
Q 1139.163988 1339.344248 1210.734945 1370.672968 
" clip-path="url(#pd897a65a7d)" style="fill: none; stroke: #000000; stroke-width: 0.2; stroke-linecap: round"/>
    <path d="M 1207.872615 1367.236827 
L 1210.734945 1370.672968 
L 1206.268634 1370.901147 
z
" clip-path="url(#pd897a65a7d)" style="stroke: #000000; stroke-width: 0.2; stroke-linecap: round"/>
   </g>
   <g id="patch_29">
    <path d="M 1060.756411 1289.60557 
Q 1179.790734 1051.597226 1298.725037 813.788872 
" clip-path="url(#pd897a65a7d)" style="fill: none; stroke: #000000; stroke-width: 0.2; stroke-linecap: round"/>
    <path d="M 1295.147056 816.471791 
L 1298.725037 813.788872 
L 1298.724584 818.261008 
z
" clip-path="url(#pd897a65a7d)" style="stroke: #000000; stroke-width: 0.2; stroke-linecap: round"/>
   </g>
   <g id="patch_30">
    <path d="M 1041.563228 1308.132334 
Q 913.459382 1366.655741 785.558922 1425.086232 
" clip-path="url(#pd897a65a7d)" style="fill: none; stroke: #000000; stroke-width: 0.2; stroke-linecap: round"/>
    <path d="M 790.028301 1425.243248 
L 785.558922 1425.086232 
L 788.366163 1421.604939 
z
" clip-path="url(#pd897a65a7d)" style="stroke: #000000; stroke-width: 0.2; stroke-linecap: round"/>
   </g>
   <g id="patch_31">
    <path d="M 1046.698127 1314.098524 
Q 997.834855 1388.946925 949.09382 1463.608087 
" clip-path="url(#pd897a65a7d)" style="fill: none; stroke: #000000; stroke-width: 0.2; stroke-linecap: round"/>
    <path d="M 952.95515 1461.351956 
L 949.09382 1463.608087 
L 949.605714 1459.165344 
z
" clip-path="url(#pd897a65a7d)" style="stroke: #000000; stroke-width: 0.2; stroke-linecap: round"/>
   </g>
   <g id="patch_32">
    <path d="M 1048.122338 1314.91376 
Q 979.357606 1452.914664 910.6926 1590.715432 
" clip-path="url(#pd897a65a7d)" style="fill: none; stroke: #000000; stroke-width: 0.2; stroke-linecap: round"/>
    <path d="M 914.266636 1588.02726 
L 910.6926 1590.715432 
L 910.686485 1586.2433 
z
" clip-path="url(#pd897a65a7d)" style="stroke: #000000; stroke-width: 0.2; stroke-linecap: round"/>
   </g>
   <g id="patch_33">
    <path d="M 1054.800053 1316.390226 
Q 1058.88036 1472.521499 1062.954826 1628.429242 
" clip-path="url(#pd897a65a7d)" style="fill: none; stroke: #000000; stroke-width: 0.2; stroke-linecap: round"/>
    <path d="M 1064.849643 1624.378358 
L 1062.954826 1628.429242 
L 1060.851009 1624.482857 
z
" clip-path="url(#pd897a65a7d)" style="stroke: #000000; stroke-width: 0.2; stroke-linecap: round"/>
   </g>
   <g id="patch_34">
    <path d="M 1062.960755 1628.656144 
Q 1058.880448 1472.52487 1054.805983 1316.617127 
" clip-path="url(#pd897a65a7d)" style="fill: none; stroke: #000000; stroke-width: 0.2; stroke-linecap: round"/>
    <path d="M 1052.911165 1320.668012 
L 1054.805983 1316.617127 
L 1056.9098 1320.563512 
z
" clip-path="url(#pd897a65a7d)" style="stroke: #000000; stroke-width: 0.2; stroke-linecap: round"/>
   </g>
   <g id="patch_35">
    <path d="M 1054.989737 1631.373584 
Q 1002.284625 1559.215518 949.711402 1487.238021 
" clip-path="url(#pd897a65a7d)" style="fill: none; stroke: #000000; stroke-width: 0.2; stroke-linecap: round"/>
    <path d="M 950.455659 1491.647792 
L 949.711402 1487.238021 
L 953.685773 1489.288478 
z
" clip-path="url(#pd897a65a7d)" style="stroke: #000000; stroke-width: 0.2; stroke-linecap: round"/>
   </g>
   <g id="patch_36">
    <path d="M 1049.599351 1639.406166 
Q 983.810289 1623.181491 918.238329 1607.010357 
" clip-path="url(#pd897a65a7d)" style="fill: none; stroke: #000000; stroke-width: 0.2; stroke-linecap: round"/>
    <path d="M 921.643086 1609.909948 
L 918.238329 1607.010357 
L 922.600856 1606.026306 
z
" clip-path="url(#pd897a65a7d)" style="stroke: #000000; stroke-width: 0.2; stroke-linecap: round"/>
   </g>
   <g id="patch_37">
    <path d="M 1316.463051 809.427866 
Q 1547.648384 982.924808 1778.654871 1156.287533 
" clip-path="url(#pd897a65a7d)" style="fill: none; stroke: #000000; stroke-width: 0.2; stroke-linecap: round"/>
    <path d="M 1776.656066 1152.286936 
L 1778.654871 1156.287533 
L 1774.25511 1155.486219 
z
" clip-path="url(#pd897a65a7d)" style="stroke: #000000; stroke-width: 0.2; stroke-linecap: round"/>
   </g>
   <g id="patch_38">
    <path d="M 1319.120965 803.120248 
Q 1609.401276 848.446153 1899.460657 893.73756 
" clip-path="url(#pd897a65a7d)" style="fill: none; stroke: #000000; stroke-width: 0.2; stroke-linecap: round"/>
    <path d="M 1895.817098 891.144401 
L 1899.460657 893.73756 
L 1895.199994 895.096512 
z
" clip-path="url(#pd897a65a7d)" style="stroke: #000000; stroke-width: 0.2; stroke-linecap: round"/>
   </g>
   <g id="patch_39">
    <path d="M 1298.82581 813.587379 
Q 1179.791486 1051.595722 1060.857183 1289.404076 
" clip-path="url(#pd897a65a7d)" style="fill: none; stroke: #000000; stroke-width: 0.2; stroke-linecap: round"/>
    <path d="M 1064.435164 1286.721157 
L 1060.857183 1289.404076 
L 1060.857636 1284.93194 
z
" clip-path="url(#pd897a65a7d)" style="stroke: #000000; stroke-width: 0.2; stroke-linecap: round"/>
   </g>
   <g id="patch_40">
    <path d="M 1294.135076 792.070741 
Q 962.899031 525.42713 631.837168 258.923735 
" clip-path="url(#pd897a65a7d)" style="fill: none; stroke: #000000; stroke-width: 0.2; stroke-linecap: round"/>
    <path d="M 633.698905 262.989929 
L 631.837168 258.923735 
L 636.207166 259.874061 
z
" clip-path="url(#pd897a65a7d)" style="stroke: #000000; stroke-width: 0.2; stroke-linecap: round"/>
   </g>
   <g id="patch_41">
    <path d="M 1404.531694 1420.367376 
Q 1437.7631 1338.161405 1470.910703 1256.162743 
" clip-path="url(#pd897a65a7d)" style="fill: none; stroke: #000000; stroke-width: 0.2; stroke-linecap: round"/>
    <path d="M 1467.557351 1259.121633 
L 1470.910703 1256.162743 
L 1471.265803 1260.620759 
z
" clip-path="url(#pd897a65a7d)" style="stroke: #000000; stroke-width: 0.2; stroke-linecap: round"/>
   </g>
   <g id="patch_42">
    <path d="M 1385.782563 1429.102033 
Q 1311.56405 1404.955787 1237.558173 1380.878719 
" clip-path="url(#pd897a65a7d)" style="fill: none; stroke: #000000; stroke-width: 0.2; stroke-linecap: round"/>
    <path d="M 1240.743172 1384.018111 
L 1237.558173 1380.878719 
L 1241.980686 1380.214355 
z
" clip-path="url(#pd897a65a7d)" style="stroke: #000000; stroke-width: 0.2; stroke-linecap: round"/>
   </g>
   <g id="patch_43">
    <path d="M 1470.995774 1255.952299 
Q 1437.764368 1338.15827 1404.616765 1420.156932 
" clip-path="url(#pd897a65a7d)" style="fill: none; stroke: #000000; stroke-width: 0.2; stroke-linecap: round"/>
    <path d="M 1407.970117 1417.198043 
L 1404.616765 1420.156932 
L 1404.261665 1415.698917 
z
" clip-path="url(#pd897a65a7d)" style="stroke: #000000; stroke-width: 0.2; stroke-linecap: round"/>
   </g>
   <g id="patch_44">
    <path d="M 1486.45097 1232.999369 
Q 1588.001589 1134.576303 1689.391642 1036.308859 
" clip-path="url(#pd897a65a7d)" style="fill: none; stroke: #000000; stroke-width: 0.2; stroke-linecap: round"/>
    <path d="M 1685.127405 1037.656553 
L 1689.391642 1036.308859 
L 1687.911255 1040.528865 
z
" clip-path="url(#pd897a65a7d)" style="stroke: #000000; stroke-width: 0.2; stroke-linecap: round"/>
   </g>
   <g id="patch_45">
    <path d="M 1463.798003 1249.456786 
Q 1350.097157 1309.636906 1236.593942 1369.712423 
" clip-path="url(#pd897a65a7d)" style="fill: none; stroke: #000000; stroke-width: 0.2; stroke-linecap: round"/>
    <path d="M 1241.06488 1369.608892 
L 1236.593942 1369.712423 
L 1239.19368 1366.073555 
z
" clip-path="url(#pd897a65a7d)" style="stroke: #000000; stroke-width: 0.2; stroke-linecap: round"/>
   </g>
   <g id="patch_46">
    <path d="M 1689.552659 1036.152801 
Q 1588.002039 1134.575867 1486.611987 1232.843311 
" clip-path="url(#pd897a65a7d)" style="fill: none; stroke: #000000; stroke-width: 0.2; stroke-linecap: round"/>
    <path d="M 1490.876224 1231.495616 
L 1486.611987 1232.843311 
L 1488.092373 1228.623304 
z
" clip-path="url(#pd897a65a7d)" style="stroke: #000000; stroke-width: 0.2; stroke-linecap: round"/>
   </g>
   <g id="patch_47">
    <path d="M 1711.783836 1018.952559 
Q 1806.681339 961.132871 1901.387887 903.429529 
" clip-path="url(#pd897a65a7d)" style="fill: none; stroke: #000000; stroke-width: 0.2; stroke-linecap: round"/>
    <path d="M 1896.931359 903.802837 
L 1901.387887 903.429529 
L 1899.012617 907.218736 
z
" clip-path="url(#pd897a65a7d)" style="stroke: #000000; stroke-width: 0.2; stroke-linecap: round"/>
   </g>
   <g id="patch_48">
    <path d="M 1796.042524 1152.058569 
Q 1851.898379 1030.432845 1907.660915 909.010324 
" clip-path="url(#pd897a65a7d)" style="fill: none; stroke: #000000; stroke-width: 0.2; stroke-linecap: round"/>
    <path d="M 1904.174059 911.810652 
L 1907.660915 909.010324 
L 1907.809064 913.480005 
z
" clip-path="url(#pd897a65a7d)" style="stroke: #000000; stroke-width: 0.2; stroke-linecap: round"/>
   </g>
   <g id="patch_49">
    <path d="M 1778.830098 1156.419035 
Q 1547.644766 982.922093 1316.638278 809.559368 
" clip-path="url(#pd897a65a7d)" style="fill: none; stroke: #000000; stroke-width: 0.2; stroke-linecap: round"/>
    <path d="M 1318.637083 813.559966 
L 1316.638278 809.559368 
L 1321.038039 810.360683 
z
" clip-path="url(#pd897a65a7d)" style="stroke: #000000; stroke-width: 0.2; stroke-linecap: round"/>
   </g>
   <g id="patch_50">
    <path d="M 1802.553391 1171.681691 
Q 2027.08435 1294.219881 2251.419029 1416.650951 
" clip-path="url(#pd897a65a7d)" style="fill: none; stroke: #000000; stroke-width: 0.2; stroke-linecap: round"/>
    <path d="M 2248.865992 1412.979167 
L 2251.419029 1416.650951 
L 2246.949779 1416.49031 
z
" clip-path="url(#pd897a65a7d)" style="stroke: #000000; stroke-width: 0.2; stroke-linecap: round"/>
   </g>
   <g id="patch_51">
    <path d="M 1798.699049 1153.644715 
Q 2075.768285 788.972528 2352.702245 424.478387 
" clip-path="url(#pd897a65a7d)" style="fill: none; stroke: #000000; stroke-width: 0.2; stroke-linecap: round"/>
    <path d="M 2348.689867 426.453438 
L 2352.702245 424.478387 
L 2351.87486 428.87332 
z
" clip-path="url(#pd897a65a7d)" style="stroke: #000000; stroke-width: 0.2; stroke-linecap: round"/>
   </g>
   <g id="patch_52">
    <path d="M 1797.176195 1177.178988 
Q 2210.112959 1897.496779 2622.938513 2617.620579 
" clip-path="url(#pd897a65a7d)" style="fill: none; stroke: #000000; stroke-width: 0.2; stroke-linecap: round"/>
    <path d="M 2622.684249 2613.155677 
L 2622.938513 2617.620579 
L 2619.214033 2615.145048 
z
" clip-path="url(#pd897a65a7d)" style="stroke: #000000; stroke-width: 0.2; stroke-linecap: round"/>
   </g>
   <g id="patch_53">
    <path d="M 1779.004012 1156.19409 
Q 1205.395295 707.412623 631.962689 258.768942 
" clip-path="url(#pd897a65a7d)" style="fill: none; stroke: #000000; stroke-width: 0.2; stroke-linecap: round"/>
    <path d="M 633.880659 262.808916 
L 631.962689 258.768942 
L 636.345451 259.65855 
z
" clip-path="url(#pd897a65a7d)" style="stroke: #000000; stroke-width: 0.2; stroke-linecap: round"/>
   </g>
   <g id="patch_54">
    <path d="M 1907.755869 908.803562 
Q 1851.900013 1030.429286 1796.137478 1151.851808 
" clip-path="url(#pd897a65a7d)" style="fill: none; stroke: #000000; stroke-width: 0.2; stroke-linecap: round"/>
    <path d="M 1799.624333 1149.05148 
L 1796.137478 1151.851808 
L 1795.989329 1147.382126 
z
" clip-path="url(#pd897a65a7d)" style="stroke: #000000; stroke-width: 0.2; stroke-linecap: round"/>
   </g>
   <g id="patch_55">
    <path d="M 1901.581094 903.311811 
Q 1806.683591 961.131499 1711.977043 1018.834841 
" clip-path="url(#pd897a65a7d)" style="fill: none; stroke: #000000; stroke-width: 0.2; stroke-linecap: round"/>
    <path d="M 1716.433571 1018.461532 
L 1711.977043 1018.834841 
L 1714.352313 1015.045634 
z
" clip-path="url(#pd897a65a7d)" style="stroke: #000000; stroke-width: 0.2; stroke-linecap: round"/>
   </g>
   <g id="patch_56">
    <path d="M 1899.687483 893.772978 
Q 1609.407172 848.447073 1319.34779 803.155666 
" clip-path="url(#pd897a65a7d)" style="fill: none; stroke: #000000; stroke-width: 0.2; stroke-linecap: round"/>
    <path d="M 1322.99135 805.748825 
L 1319.34779 803.155666 
L 1323.608453 801.796714 
z
" clip-path="url(#pd897a65a7d)" style="stroke: #000000; stroke-width: 0.2; stroke-linecap: round"/>
   </g>
   <g id="patch_57">
    <path d="M 1921.481022 907.735675 
Q 2088.842529 1159.744407 2256.080332 1411.566867 
" clip-path="url(#pd897a65a7d)" style="fill: none; stroke: #000000; stroke-width: 0.2; stroke-linecap: round"/>
    <path d="M 2255.533496 1407.128289 
L 2256.080332 1411.566867 
L 2252.201368 1409.341189 
z
" clip-path="url(#pd897a65a7d)" style="stroke: #000000; stroke-width: 0.2; stroke-linecap: round"/>
   </g>
   <g id="patch_58">
    <path d="M 1923.271017 885.584688 
Q 2137.522852 654.499454 2351.622657 423.578193 
" clip-path="url(#pd897a65a7d)" style="fill: none; stroke: #000000; stroke-width: 0.2; stroke-linecap: round"/>
    <path d="M 2347.436462 425.151651 
L 2351.622657 423.578193 
L 2350.369707 427.871224 
z
" clip-path="url(#pd897a65a7d)" style="stroke: #000000; stroke-width: 0.2; stroke-linecap: round"/>
   </g>
   <g id="patch_59">
    <path d="M 2251.61413 1416.757428 
Q 2027.083172 1294.219238 1802.748492 1171.788167 
" clip-path="url(#pd897a65a7d)" style="fill: none; stroke: #000000; stroke-width: 0.2; stroke-linecap: round"/>
    <path d="M 1805.301529 1175.459952 
L 1802.748492 1171.788167 
L 1807.217742 1171.948809 
z
" clip-path="url(#pd897a65a7d)" style="stroke: #000000; stroke-width: 0.2; stroke-linecap: round"/>
   </g>
   <g id="patch_60">
    <path d="M 2256.201798 1411.749768 
Q 2088.840291 1159.741036 1921.602488 907.918576 
" clip-path="url(#pd897a65a7d)" style="fill: none; stroke: #000000; stroke-width: 0.2; stroke-linecap: round"/>
    <path d="M 1922.149324 912.357154 
L 1921.602488 907.918576 
L 1925.481451 910.144255 
z
" clip-path="url(#pd897a65a7d)" style="stroke: #000000; stroke-width: 0.2; stroke-linecap: round"/>
   </g>
   <g id="patch_61">
    <path d="M 2265.382026 1409.457668 
Q 2312.708571 918.287439 2360.013669 427.339786 
" clip-path="url(#pd897a65a7d)" style="fill: none; stroke: #000000; stroke-width: 0.2; stroke-linecap: round"/>
    <path d="M 2357.639247 431.129525 
L 2360.013669 427.339786 
L 2361.620807 431.513166 
z
" clip-path="url(#pd897a65a7d)" style="stroke: #000000; stroke-width: 0.2; stroke-linecap: round"/>
   </g>
   <g id="patch_62">
    <path d="M 2268.132773 1437.067545 
Q 2447.055255 2026.810046 2625.912818 2616.338571 
" clip-path="url(#pd897a65a7d)" style="fill: none; stroke: #000000; stroke-width: 0.2; stroke-linecap: round"/>
    <path d="M 2626.665382 2611.93021 
L 2625.912818 2616.338571 
L 2622.837668 2613.091504 
z
" clip-path="url(#pd897a65a7d)" style="stroke: #000000; stroke-width: 0.2; stroke-linecap: round"/>
   </g>
   <g id="PathCollection_1">
    <defs>
     <path id="C0_0_f2f921e332" d="M 0 14.142136 
C 3.750538 14.142136 7.347969 12.652031 10 10 
C 12.652031 7.347969 14.142136 3.750538 14.142136 -0 
C 14.142136 -3.750538 12.652031 -7.347969 10 -10 
C 7.347969 -12.652031 3.750538 -14.142136 0 -14.142136 
C -3.750538 -14.142136 -7.347969 -12.652031 -10 -10 
C -12.652031 -7.347969 -14.142136 -3.750538 -14.142136 0 
C -14.142136 3.750538 -12.652031 7.347969 -10 10 
C -7.347969 12.652031 -3.750538 14.142136 0 14.142136 
z
"/>
    </defs>
    <g clip-path="url(#pd897a65a7d)">
     <use xlink:href="#C0_0_f2f921e332" x="631.756285" y="1522.293457" style="fill: #0000ff; stroke: #0000ff"/>
    </g>
    <g clip-path="url(#pd897a65a7d)">
     <use xlink:href="#C0_0_f2f921e332" x="772.492392" y="1431.055591" style="fill: #0000ff; stroke: #0000ff"/>
    </g>
    <g clip-path="url(#pd897a65a7d)">
     <use xlink:href="#C0_0_f2f921e332" x="941.239519" y="1475.639247" style="fill: #ffff00; stroke: #ffff00"/>
    </g>
    <g clip-path="url(#pd897a65a7d)">
     <use xlink:href="#C0_0_f2f921e332" x="492.559456" y="1479.414405" style="fill: #0000ff; stroke: #0000ff"/>
    </g>
    <g clip-path="url(#pd897a65a7d)">
     <use xlink:href="#C0_0_f2f921e332" x="249.917355" y="1497.632185" style="fill: #ffff00; stroke: #ffff00"/>
    </g>
    <g clip-path="url(#pd897a65a7d)">
     <use xlink:href="#C0_0_f2f921e332" x="904.287364" y="1603.569817" style="fill: #ffa500; stroke: #ffa500"/>
    </g>
    <g clip-path="url(#pd897a65a7d)">
     <use xlink:href="#C0_0_f2f921e332" x="1223.895276" y="1376.433633" style="fill: #0000ff; stroke: #0000ff"/>
    </g>
    <g clip-path="url(#pd897a65a7d)">
     <use xlink:href="#C0_0_f2f921e332" x="1054.430618" y="1302.253951" style="fill: #ffff00; stroke: #ffff00"/>
    </g>
    <g clip-path="url(#pd897a65a7d)">
     <use xlink:href="#C0_0_f2f921e332" x="1063.33019" y="1642.792419" style="fill: #ffff00; stroke: #ffff00"/>
    </g>
    <g clip-path="url(#pd897a65a7d)">
     <use xlink:href="#C0_0_f2f921e332" x="1305.151602" y="800.938998" style="fill: #ffa500; stroke: #ffa500"/>
    </g>
    <g clip-path="url(#pd897a65a7d)">
     <use xlink:href="#C0_0_f2f921e332" x="1399.231924" y="1433.477648" style="fill: #ffa500; stroke: #ffa500"/>
    </g>
    <g clip-path="url(#pd897a65a7d)">
     <use xlink:href="#C0_0_f2f921e332" x="1476.295544" y="1242.842028" style="fill: #ffff00; stroke: #ffff00"/>
    </g>
    <g clip-path="url(#pd897a65a7d)">
     <use xlink:href="#C0_0_f2f921e332" x="1699.708084" y="1026.310142" style="fill: #ffa500; stroke: #ffa500"/>
    </g>
    <g clip-path="url(#pd897a65a7d)">
     <use xlink:href="#C0_0_f2f921e332" x="1790.141547" y="1164.907903" style="fill: #ffff00; stroke: #ffff00"/>
    </g>
    <g clip-path="url(#pd897a65a7d)">
     <use xlink:href="#C0_0_f2f921e332" x="1913.656845" y="895.954228" style="fill: #0000ff; stroke: #0000ff"/>
    </g>
    <g clip-path="url(#pd897a65a7d)">
     <use xlink:href="#C0_0_f2f921e332" x="620.64906" y="249.917355" style="fill: #ffff00; stroke: #ffff00"/>
    </g>
    <g clip-path="url(#pd897a65a7d)">
     <use xlink:href="#C0_0_f2f921e332" x="2264.025974" y="1423.531215" style="fill: #0000ff; stroke: #0000ff"/>
    </g>
    <g clip-path="url(#pd897a65a7d)">
     <use xlink:href="#C0_0_f2f921e332" x="2361.391325" y="413.042018" style="fill: #ffff00; stroke: #ffff00"/>
    </g>
    <g clip-path="url(#pd897a65a7d)">
     <use xlink:href="#C0_0_f2f921e332" x="2630.082645" y="2630.082645" style="fill: #ffff00; stroke: #ffff00"/>
    </g>
   </g>
   <g id="text_1">
    <g clip-path="url(#pd897a65a7d)">
     <!-- VAL 90 -->
     <g transform="translate(617.948785 1524.500957) scale(0.08 -0.08)">
      <defs>
       <path id="DejaVuSans-56" d="M 1831 0 
L 50 4666 
L 709 4666 
L 2188 738 
L 3669 4666 
L 4325 4666 
L 2547 0 
L 1831 0 
z
" transform="scale(0.015625)"/>
       <path id="DejaVuSans-41" d="M 2188 4044 
L 1331 1722 
L 3047 1722 
L 2188 4044 
z
M 1831 4666 
L 2547 4666 
L 4325 0 
L 3669 0 
L 3244 1197 
L 1141 1197 
L 716 0 
L 50 0 
L 1831 4666 
z
" transform="scale(0.015625)"/>
       <path id="DejaVuSans-4c" d="M 628 4666 
L 1259 4666 
L 1259 531 
L 3531 531 
L 3531 0 
L 628 0 
L 628 4666 
z
" transform="scale(0.015625)"/>
       <path id="DejaVuSans-20" transform="scale(0.015625)"/>
       <path id="DejaVuSans-39" d="M 703 97 
L 703 672 
Q 941 559 1184 500 
Q 1428 441 1663 441 
Q 2288 441 2617 861 
Q 2947 1281 2994 2138 
Q 2813 1869 2534 1725 
Q 2256 1581 1919 1581 
Q 1219 1581 811 2004 
Q 403 2428 403 3163 
Q 403 3881 828 4315 
Q 1253 4750 1959 4750 
Q 2769 4750 3195 4129 
Q 3622 3509 3622 2328 
Q 3622 1225 3098 567 
Q 2575 -91 1691 -91 
Q 1453 -91 1209 -44 
Q 966 3 703 97 
z
M 1959 2075 
Q 2384 2075 2632 2365 
Q 2881 2656 2881 3163 
Q 2881 3666 2632 3958 
Q 2384 4250 1959 4250 
Q 1534 4250 1286 3958 
Q 1038 3666 1038 3163 
Q 1038 2656 1286 2365 
Q 1534 2075 1959 2075 
z
" transform="scale(0.015625)"/>
       <path id="DejaVuSans-30" d="M 2034 4250 
Q 1547 4250 1301 3770 
Q 1056 3291 1056 2328 
Q 1056 1369 1301 889 
Q 1547 409 2034 409 
Q 2525 409 2770 889 
Q 3016 1369 3016 2328 
Q 3016 3291 2770 3770 
Q 2525 4250 2034 4250 
z
M 2034 4750 
Q 2819 4750 3233 4129 
Q 3647 3509 3647 2328 
Q 3647 1150 3233 529 
Q 2819 -91 2034 -91 
Q 1250 -91 836 529 
Q 422 1150 422 2328 
Q 422 3509 836 4129 
Q 1250 4750 2034 4750 
z
" transform="scale(0.015625)"/>
      </defs>
      <use xlink:href="#DejaVuSans-56"/>
      <use xlink:href="#DejaVuSans-41" x="62.033203"/>
      <use xlink:href="#DejaVuSans-4c" x="130.441406"/>
      <use xlink:href="#DejaVuSans-20" x="186.154297"/>
      <use xlink:href="#DejaVuSans-39" x="217.941406"/>
      <use xlink:href="#DejaVuSans-30" x="281.564453"/>
     </g>
    </g>
   </g>
   <g id="text_2">
    <g clip-path="url(#pd897a65a7d)">
     <!-- VAL 75 -->
     <g transform="translate(758.684892 1433.263091) scale(0.08 -0.08)">
      <defs>
       <path id="DejaVuSans-37" d="M 525 4666 
L 3525 4666 
L 3525 4397 
L 1831 0 
L 1172 0 
L 2766 4134 
L 525 4134 
L 525 4666 
z
" transform="scale(0.015625)"/>
       <path id="DejaVuSans-35" d="M 691 4666 
L 3169 4666 
L 3169 4134 
L 1269 4134 
L 1269 2991 
Q 1406 3038 1543 3061 
Q 1681 3084 1819 3084 
Q 2600 3084 3056 2656 
Q 3513 2228 3513 1497 
Q 3513 744 3044 326 
Q 2575 -91 1722 -91 
Q 1428 -91 1123 -41 
Q 819 9 494 109 
L 494 744 
Q 775 591 1075 516 
Q 1375 441 1709 441 
Q 2250 441 2565 725 
Q 2881 1009 2881 1497 
Q 2881 1984 2565 2268 
Q 2250 2553 1709 2553 
Q 1456 2553 1204 2497 
Q 953 2441 691 2322 
L 691 4666 
z
" transform="scale(0.015625)"/>
      </defs>
      <use xlink:href="#DejaVuSans-56"/>
      <use xlink:href="#DejaVuSans-41" x="62.033203"/>
      <use xlink:href="#DejaVuSans-4c" x="130.441406"/>
      <use xlink:href="#DejaVuSans-20" x="186.154297"/>
      <use xlink:href="#DejaVuSans-37" x="217.941406"/>
      <use xlink:href="#DejaVuSans-35" x="281.564453"/>
     </g>
    </g>
   </g>
   <g id="text_3">
    <g clip-path="url(#pd897a65a7d)">
     <!-- LEU 99 -->
     <g transform="translate(927.194519 1477.846747) scale(0.08 -0.08)">
      <defs>
       <path id="DejaVuSans-45" d="M 628 4666 
L 3578 4666 
L 3578 4134 
L 1259 4134 
L 1259 2753 
L 3481 2753 
L 3481 2222 
L 1259 2222 
L 1259 531 
L 3634 531 
L 3634 0 
L 628 0 
L 628 4666 
z
" transform="scale(0.015625)"/>
       <path id="DejaVuSans-55" d="M 556 4666 
L 1191 4666 
L 1191 1831 
Q 1191 1081 1462 751 
Q 1734 422 2344 422 
Q 2950 422 3222 751 
Q 3494 1081 3494 1831 
L 3494 4666 
L 4128 4666 
L 4128 1753 
Q 4128 841 3676 375 
Q 3225 -91 2344 -91 
Q 1459 -91 1007 375 
Q 556 841 556 1753 
L 556 4666 
z
" transform="scale(0.015625)"/>
      </defs>
      <use xlink:href="#DejaVuSans-4c"/>
      <use xlink:href="#DejaVuSans-45" x="55.712891"/>
      <use xlink:href="#DejaVuSans-55" x="118.896484"/>
      <use xlink:href="#DejaVuSans-20" x="192.089844"/>
      <use xlink:href="#DejaVuSans-39" x="223.876953"/>
      <use xlink:href="#DejaVuSans-39" x="287.5"/>
     </g>
    </g>
   </g>
   <g id="text_4">
    <g clip-path="url(#pd897a65a7d)">
     <!-- VAL 102 -->
     <g transform="translate(476.206956 1481.621905) scale(0.08 -0.08)">
      <defs>
       <path id="DejaVuSans-31" d="M 794 531 
L 1825 531 
L 1825 4091 
L 703 3866 
L 703 4441 
L 1819 4666 
L 2450 4666 
L 2450 531 
L 3481 531 
L 3481 0 
L 794 0 
L 794 531 
z
" transform="scale(0.015625)"/>
       <path id="DejaVuSans-32" d="M 1228 531 
L 3431 531 
L 3431 0 
L 469 0 
L 469 531 
Q 828 903 1448 1529 
Q 2069 2156 2228 2338 
Q 2531 2678 2651 2914 
Q 2772 3150 2772 3378 
Q 2772 3750 2511 3984 
Q 2250 4219 1831 4219 
Q 1534 4219 1204 4116 
Q 875 4013 500 3803 
L 500 4441 
Q 881 4594 1212 4672 
Q 1544 4750 1819 4750 
Q 2544 4750 2975 4387 
Q 3406 4025 3406 3419 
Q 3406 3131 3298 2873 
Q 3191 2616 2906 2266 
Q 2828 2175 2409 1742 
Q 1991 1309 1228 531 
z
" transform="scale(0.015625)"/>
      </defs>
      <use xlink:href="#DejaVuSans-56"/>
      <use xlink:href="#DejaVuSans-41" x="62.033203"/>
      <use xlink:href="#DejaVuSans-4c" x="130.441406"/>
      <use xlink:href="#DejaVuSans-20" x="186.154297"/>
      <use xlink:href="#DejaVuSans-31" x="217.941406"/>
      <use xlink:href="#DejaVuSans-30" x="281.564453"/>
      <use xlink:href="#DejaVuSans-32" x="345.1875"/>
     </g>
    </g>
   </g>
   <g id="text_5">
    <g clip-path="url(#pd897a65a7d)">
     <!-- LEU 112 -->
     <g transform="translate(233.327355 1499.839685) scale(0.08 -0.08)">
      <use xlink:href="#DejaVuSans-4c"/>
      <use xlink:href="#DejaVuSans-45" x="55.712891"/>
      <use xlink:href="#DejaVuSans-55" x="118.896484"/>
      <use xlink:href="#DejaVuSans-20" x="192.089844"/>
      <use xlink:href="#DejaVuSans-31" x="223.876953"/>
      <use xlink:href="#DejaVuSans-31" x="287.5"/>
      <use xlink:href="#DejaVuSans-32" x="351.123047"/>
     </g>
    </g>
   </g>
   <g id="text_6">
    <g clip-path="url(#pd897a65a7d)">
     <!-- ILE 116 -->
     <g transform="translate(889.444864 1605.777317) scale(0.08 -0.08)">
      <defs>
       <path id="DejaVuSans-49" d="M 628 4666 
L 1259 4666 
L 1259 0 
L 628 0 
L 628 4666 
z
" transform="scale(0.015625)"/>
       <path id="DejaVuSans-36" d="M 2113 2584 
Q 1688 2584 1439 2293 
Q 1191 2003 1191 1497 
Q 1191 994 1439 701 
Q 1688 409 2113 409 
Q 2538 409 2786 701 
Q 3034 994 3034 1497 
Q 3034 2003 2786 2293 
Q 2538 2584 2113 2584 
z
M 3366 4563 
L 3366 3988 
Q 3128 4100 2886 4159 
Q 2644 4219 2406 4219 
Q 1781 4219 1451 3797 
Q 1122 3375 1075 2522 
Q 1259 2794 1537 2939 
Q 1816 3084 2150 3084 
Q 2853 3084 3261 2657 
Q 3669 2231 3669 1497 
Q 3669 778 3244 343 
Q 2819 -91 2113 -91 
Q 1303 -91 875 529 
Q 447 1150 447 2328 
Q 447 3434 972 4092 
Q 1497 4750 2381 4750 
Q 2619 4750 2861 4703 
Q 3103 4656 3366 4563 
z
" transform="scale(0.015625)"/>
      </defs>
      <use xlink:href="#DejaVuSans-49"/>
      <use xlink:href="#DejaVuSans-4c" x="29.492188"/>
      <use xlink:href="#DejaVuSans-45" x="85.205078"/>
      <use xlink:href="#DejaVuSans-20" x="148.388672"/>
      <use xlink:href="#DejaVuSans-31" x="180.175781"/>
      <use xlink:href="#DejaVuSans-31" x="243.798828"/>
      <use xlink:href="#DejaVuSans-36" x="307.421875"/>
     </g>
    </g>
   </g>
   <g id="text_7">
    <g clip-path="url(#pd897a65a7d)">
     <!-- VAL 46 -->
     <g transform="translate(1210.087776 1378.641133) scale(0.08 -0.08)">
      <defs>
       <path id="DejaVuSans-34" d="M 2419 4116 
L 825 1625 
L 2419 1625 
L 2419 4116 
z
M 2253 4666 
L 3047 4666 
L 3047 1625 
L 3713 1625 
L 3713 1100 
L 3047 1100 
L 3047 0 
L 2419 0 
L 2419 1100 
L 313 1100 
L 313 1709 
L 2253 4666 
z
" transform="scale(0.015625)"/>
      </defs>
      <use xlink:href="#DejaVuSans-56"/>
      <use xlink:href="#DejaVuSans-41" x="62.033203"/>
      <use xlink:href="#DejaVuSans-4c" x="130.441406"/>
      <use xlink:href="#DejaVuSans-20" x="186.154297"/>
      <use xlink:href="#DejaVuSans-34" x="217.941406"/>
      <use xlink:href="#DejaVuSans-36" x="281.564453"/>
     </g>
    </g>
   </g>
   <g id="text_8">
    <g clip-path="url(#pd897a65a7d)">
     <!-- LEU 51 -->
     <g transform="translate(1040.385618 1304.461451) scale(0.08 -0.08)">
      <use xlink:href="#DejaVuSans-4c"/>
      <use xlink:href="#DejaVuSans-45" x="55.712891"/>
      <use xlink:href="#DejaVuSans-55" x="118.896484"/>
      <use xlink:href="#DejaVuSans-20" x="192.089844"/>
      <use xlink:href="#DejaVuSans-35" x="223.876953"/>
      <use xlink:href="#DejaVuSans-31" x="287.5"/>
     </g>
    </g>
   </g>
   <g id="text_9">
    <g clip-path="url(#pd897a65a7d)">
     <!-- LEU 121 -->
     <g transform="translate(1046.74019 1644.999919) scale(0.08 -0.08)">
      <use xlink:href="#DejaVuSans-4c"/>
      <use xlink:href="#DejaVuSans-45" x="55.712891"/>
      <use xlink:href="#DejaVuSans-55" x="118.896484"/>
      <use xlink:href="#DejaVuSans-20" x="192.089844"/>
      <use xlink:href="#DejaVuSans-31" x="223.876953"/>
      <use xlink:href="#DejaVuSans-32" x="287.5"/>
      <use xlink:href="#DejaVuSans-31" x="351.123047"/>
     </g>
    </g>
   </g>
   <g id="text_10">
    <g clip-path="url(#pd897a65a7d)">
     <!-- ILE 71 -->
     <g transform="translate(1292.854102 803.146498) scale(0.08 -0.08)">
      <use xlink:href="#DejaVuSans-49"/>
      <use xlink:href="#DejaVuSans-4c" x="29.492188"/>
      <use xlink:href="#DejaVuSans-45" x="85.205078"/>
      <use xlink:href="#DejaVuSans-20" x="148.388672"/>
      <use xlink:href="#DejaVuSans-37" x="180.175781"/>
      <use xlink:href="#DejaVuSans-31" x="243.798828"/>
     </g>
    </g>
   </g>
   <g id="text_11">
    <g clip-path="url(#pd897a65a7d)">
     <!-- ILE 9 -->
     <g transform="translate(1389.479424 1435.685148) scale(0.08 -0.08)">
      <use xlink:href="#DejaVuSans-49"/>
      <use xlink:href="#DejaVuSans-4c" x="29.492188"/>
      <use xlink:href="#DejaVuSans-45" x="85.205078"/>
      <use xlink:href="#DejaVuSans-20" x="148.388672"/>
      <use xlink:href="#DejaVuSans-39" x="180.175781"/>
     </g>
    </g>
   </g>
   <g id="text_12">
    <g clip-path="url(#pd897a65a7d)">
     <!-- LEU 12 -->
     <g transform="translate(1462.250544 1245.049528) scale(0.08 -0.08)">
      <use xlink:href="#DejaVuSans-4c"/>
      <use xlink:href="#DejaVuSans-45" x="55.712891"/>
      <use xlink:href="#DejaVuSans-55" x="118.896484"/>
      <use xlink:href="#DejaVuSans-20" x="192.089844"/>
      <use xlink:href="#DejaVuSans-31" x="223.876953"/>
      <use xlink:href="#DejaVuSans-32" x="287.5"/>
     </g>
    </g>
   </g>
   <g id="text_13">
    <g clip-path="url(#pd897a65a7d)">
     <!-- ILE 45 -->
     <g transform="translate(1687.410584 1028.517642) scale(0.08 -0.08)">
      <use xlink:href="#DejaVuSans-49"/>
      <use xlink:href="#DejaVuSans-4c" x="29.492188"/>
      <use xlink:href="#DejaVuSans-45" x="85.205078"/>
      <use xlink:href="#DejaVuSans-20" x="148.388672"/>
      <use xlink:href="#DejaVuSans-34" x="180.175781"/>
      <use xlink:href="#DejaVuSans-35" x="243.798828"/>
     </g>
    </g>
   </g>
   <g id="text_14">
    <g clip-path="url(#pd897a65a7d)">
     <!-- LEU 41 -->
     <g transform="translate(1776.096547 1167.115403) scale(0.08 -0.08)">
      <use xlink:href="#DejaVuSans-4c"/>
      <use xlink:href="#DejaVuSans-45" x="55.712891"/>
      <use xlink:href="#DejaVuSans-55" x="118.896484"/>
      <use xlink:href="#DejaVuSans-20" x="192.089844"/>
      <use xlink:href="#DejaVuSans-34" x="223.876953"/>
      <use xlink:href="#DejaVuSans-31" x="287.5"/>
     </g>
    </g>
   </g>
   <g id="text_15">
    <g clip-path="url(#pd897a65a7d)">
     <!-- VAL 43 -->
     <g transform="translate(1899.849345 898.161728) scale(0.08 -0.08)">
      <defs>
       <path id="DejaVuSans-33" d="M 2597 2516 
Q 3050 2419 3304 2112 
Q 3559 1806 3559 1356 
Q 3559 666 3084 287 
Q 2609 -91 1734 -91 
Q 1441 -91 1130 -33 
Q 819 25 488 141 
L 488 750 
Q 750 597 1062 519 
Q 1375 441 1716 441 
Q 2309 441 2620 675 
Q 2931 909 2931 1356 
Q 2931 1769 2642 2001 
Q 2353 2234 1838 2234 
L 1294 2234 
L 1294 2753 
L 1863 2753 
Q 2328 2753 2575 2939 
Q 2822 3125 2822 3475 
Q 2822 3834 2567 4026 
Q 2313 4219 1838 4219 
Q 1578 4219 1281 4162 
Q 984 4106 628 3988 
L 628 4550 
Q 988 4650 1302 4700 
Q 1616 4750 1894 4750 
Q 2613 4750 3031 4423 
Q 3450 4097 3450 3541 
Q 3450 3153 3228 2886 
Q 3006 2619 2597 2516 
z
" transform="scale(0.015625)"/>
      </defs>
      <use xlink:href="#DejaVuSans-56"/>
      <use xlink:href="#DejaVuSans-41" x="62.033203"/>
      <use xlink:href="#DejaVuSans-4c" x="130.441406"/>
      <use xlink:href="#DejaVuSans-20" x="186.154297"/>
      <use xlink:href="#DejaVuSans-34" x="217.941406"/>
      <use xlink:href="#DejaVuSans-33" x="281.564453"/>
     </g>
    </g>
   </g>
   <g id="text_16">
    <g clip-path="url(#pd897a65a7d)">
     <!-- LEU 140 -->
     <g transform="translate(604.05906 252.124855) scale(0.08 -0.08)">
      <use xlink:href="#DejaVuSans-4c"/>
      <use xlink:href="#DejaVuSans-45" x="55.712891"/>
      <use xlink:href="#DejaVuSans-55" x="118.896484"/>
      <use xlink:href="#DejaVuSans-20" x="192.089844"/>
      <use xlink:href="#DejaVuSans-31" x="223.876953"/>
      <use xlink:href="#DejaVuSans-34" x="287.5"/>
      <use xlink:href="#DejaVuSans-30" x="351.123047"/>
     </g>
    </g>
   </g>
   <g id="text_17">
    <g clip-path="url(#pd897a65a7d)">
     <!-- VAL 124 -->
     <g transform="translate(2247.673474 1425.738715) scale(0.08 -0.08)">
      <use xlink:href="#DejaVuSans-56"/>
      <use xlink:href="#DejaVuSans-41" x="62.033203"/>
      <use xlink:href="#DejaVuSans-4c" x="130.441406"/>
      <use xlink:href="#DejaVuSans-20" x="186.154297"/>
      <use xlink:href="#DejaVuSans-31" x="217.941406"/>
      <use xlink:href="#DejaVuSans-32" x="281.564453"/>
      <use xlink:href="#DejaVuSans-34" x="345.1875"/>
     </g>
    </g>
   </g>
   <g id="text_18">
    <g clip-path="url(#pd897a65a7d)">
     <!-- LEU 129 -->
     <g transform="translate(2344.801325 415.249518) scale(0.08 -0.08)">
      <use xlink:href="#DejaVuSans-4c"/>
      <use xlink:href="#DejaVuSans-45" x="55.712891"/>
      <use xlink:href="#DejaVuSans-55" x="118.896484"/>
      <use xlink:href="#DejaVuSans-20" x="192.089844"/>
      <use xlink:href="#DejaVuSans-31" x="223.876953"/>
      <use xlink:href="#DejaVuSans-32" x="287.5"/>
      <use xlink:href="#DejaVuSans-39" x="351.123047"/>
     </g>
    </g>
   </g>
   <g id="text_19">
    <g clip-path="url(#pd897a65a7d)">
     <!-- LEU 138 -->
     <g transform="translate(2613.492645 2632.290145) scale(0.08 -0.08)">
      <defs>
       <path id="DejaVuSans-38" d="M 2034 2216 
Q 1584 2216 1326 1975 
Q 1069 1734 1069 1313 
Q 1069 891 1326 650 
Q 1584 409 2034 409 
Q 2484 409 2743 651 
Q 3003 894 3003 1313 
Q 3003 1734 2745 1975 
Q 2488 2216 2034 2216 
z
M 1403 2484 
Q 997 2584 770 2862 
Q 544 3141 544 3541 
Q 544 4100 942 4425 
Q 1341 4750 2034 4750 
Q 2731 4750 3128 4425 
Q 3525 4100 3525 3541 
Q 3525 3141 3298 2862 
Q 3072 2584 2669 2484 
Q 3125 2378 3379 2068 
Q 3634 1759 3634 1313 
Q 3634 634 3220 271 
Q 2806 -91 2034 -91 
Q 1263 -91 848 271 
Q 434 634 434 1313 
Q 434 1759 690 2068 
Q 947 2378 1403 2484 
z
M 1172 3481 
Q 1172 3119 1398 2916 
Q 1625 2713 2034 2713 
Q 2441 2713 2670 2916 
Q 2900 3119 2900 3481 
Q 2900 3844 2670 4047 
Q 2441 4250 2034 4250 
Q 1625 4250 1398 4047 
Q 1172 3844 1172 3481 
z
" transform="scale(0.015625)"/>
      </defs>
      <use xlink:href="#DejaVuSans-4c"/>
      <use xlink:href="#DejaVuSans-45" x="55.712891"/>
      <use xlink:href="#DejaVuSans-55" x="118.896484"/>
      <use xlink:href="#DejaVuSans-20" x="192.089844"/>
      <use xlink:href="#DejaVuSans-31" x="223.876953"/>
      <use xlink:href="#DejaVuSans-33" x="287.5"/>
      <use xlink:href="#DejaVuSans-38" x="351.123047"/>
     </g>
    </g>
   </g>
  </g>
  <g id="text_20">
   <!-- G_NMR -->
   <g transform="translate(1418.51625 66.50625) scale(0.12 -0.12)">
    <defs>
     <path id="DejaVuSans-47" d="M 3809 666 
L 3809 1919 
L 2778 1919 
L 2778 2438 
L 4434 2438 
L 4434 434 
Q 4069 175 3628 42 
Q 3188 -91 2688 -91 
Q 1594 -91 976 548 
Q 359 1188 359 2328 
Q 359 3472 976 4111 
Q 1594 4750 2688 4750 
Q 3144 4750 3555 4637 
Q 3966 4525 4313 4306 
L 4313 3634 
Q 3963 3931 3569 4081 
Q 3175 4231 2741 4231 
Q 1884 4231 1454 3753 
Q 1025 3275 1025 2328 
Q 1025 1384 1454 906 
Q 1884 428 2741 428 
Q 3075 428 3337 486 
Q 3600 544 3809 666 
z
" transform="scale(0.015625)"/>
     <path id="DejaVuSans-5f" d="M 3263 -1063 
L 3263 -1509 
L -63 -1509 
L -63 -1063 
L 3263 -1063 
z
" transform="scale(0.015625)"/>
     <path id="DejaVuSans-4e" d="M 628 4666 
L 1478 4666 
L 3547 763 
L 3547 4666 
L 4159 4666 
L 4159 0 
L 3309 0 
L 1241 3903 
L 1241 0 
L 628 0 
L 628 4666 
z
" transform="scale(0.015625)"/>
     <path id="DejaVuSans-4d" d="M 628 4666 
L 1569 4666 
L 2759 1491 
L 3956 4666 
L 4897 4666 
L 4897 0 
L 4281 0 
L 4281 4097 
L 3078 897 
L 2444 897 
L 1241 4097 
L 1241 0 
L 628 0 
L 628 4666 
z
" transform="scale(0.015625)"/>
     <path id="DejaVuSans-52" d="M 2841 2188 
Q 3044 2119 3236 1894 
Q 3428 1669 3622 1275 
L 4263 0 
L 3584 0 
L 2988 1197 
Q 2756 1666 2539 1819 
Q 2322 1972 1947 1972 
L 1259 1972 
L 1259 0 
L 628 0 
L 628 4666 
L 2053 4666 
Q 2853 4666 3247 4331 
Q 3641 3997 3641 3322 
Q 3641 2881 3436 2590 
Q 3231 2300 2841 2188 
z
M 1259 4147 
L 1259 2491 
L 2053 2491 
Q 2509 2491 2742 2702 
Q 2975 2913 2975 3322 
Q 2975 3731 2742 3939 
Q 2509 4147 2053 4147 
L 1259 4147 
z
" transform="scale(0.015625)"/>
    </defs>
    <use xlink:href="#DejaVuSans-47"/>
    <use xlink:href="#DejaVuSans-5f" x="77.490234"/>
    <use xlink:href="#DejaVuSans-4e" x="127.490234"/>
    <use xlink:href="#DejaVuSans-4d" x="202.294922"/>
    <use xlink:href="#DejaVuSans-52" x="288.574219"/>
   </g>
  </g>
 </g>
 <defs>
  <clipPath id="pd897a65a7d">
   <rect x="0" y="0" width="2880" height="2880"/>
  </clipPath>
 </defs>
</svg>
