<?xml version="1.0" encoding="utf-8" standalone="no"?>
<!DOCTYPE svg PUBLIC "-//W3C//DTD SVG 1.1//EN"
  "http://www.w3.org/Graphics/SVG/1.1/DTD/svg11.dtd">
<svg xmlns:xlink="http://www.w3.org/1999/xlink" width="2880pt" height="2880pt" viewBox="0 0 2880 2880" xmlns="http://www.w3.org/2000/svg" version="1.1">
 <metadata>
  <rdf:RDF xmlns:dc="http://purl.org/dc/elements/1.1/" xmlns:cc="http://creativecommons.org/ns#" xmlns:rdf="http://www.w3.org/1999/02/22-rdf-syntax-ns#">
   <cc:Work>
    <dc:type rdf:resource="http://purl.org/dc/dcmitype/StillImage"/>
    <dc:date>2024-02-24T15:32:17.008220</dc:date>
    <dc:format>image/svg+xml</dc:format>
    <dc:creator>
     <cc:Agent>
      <dc:title>Matplotlib v3.8.2, https://matplotlib.org/</dc:title>
     </cc:Agent>
    </dc:creator>
   </cc:Work>
  </rdf:RDF>
 </metadata>
 <defs>
  <style type="text/css">*{stroke-linejoin: round; stroke-linecap: butt}</style>
 </defs>
 <g id="figure_1">
  <g id="patch_1">
   <path d="M 0 2880 
L 2880 2880 
L 2880 0 
L 0 0 
z
" style="fill: #ffffff"/>
  </g>
  <g id="axes_1">
   <g id="patch_2">
    <path d="M 2094.203985 1304.108974 
Q 1994.518684 1268.812675 1895.044167 1233.591009 
" clip-path="url(#p7f6e9c5d16)" style="fill: none; stroke: #000000; stroke-width: 0.2; stroke-linecap: round"/>
    <path d="M 1898.147238 1236.811406 
L 1895.044167 1233.591009 
L 1899.482327 1233.040791 
z
" clip-path="url(#p7f6e9c5d16)" style="stroke: #000000; stroke-width: 0.2; stroke-linecap: round"/>
   </g>
   <g id="patch_3">
    <path d="M 2094.814332 1302.645991 
Q 1918.892321 1217.133269 1743.171417 1131.718301 
" clip-path="url(#p7f6e9c5d16)" style="fill: none; stroke: #000000; stroke-width: 0.2; stroke-linecap: round"/>
    <path d="M 1745.894583 1135.265746 
L 1743.171417 1131.718301 
L 1747.643273 1131.668235 
z
" clip-path="url(#p7f6e9c5d16)" style="stroke: #000000; stroke-width: 0.2; stroke-linecap: round"/>
   </g>
   <g id="patch_4">
    <path d="M 2120.535371 1314.391997 
Q 2182.248261 1340.798436 2243.755573 1367.11691 
" clip-path="url(#p7f6e9c5d16)" style="fill: none; stroke: #000000; stroke-width: 0.2; stroke-linecap: round"/>
    <path d="M 2240.864871 1363.704603 
L 2243.755573 1367.11691 
L 2239.291306 1367.382087 
z
" clip-path="url(#p7f6e9c5d16)" style="stroke: #000000; stroke-width: 0.2; stroke-linecap: round"/>
   </g>
   <g id="patch_5">
    <path d="M 2120.550837 1314.347313 
Q 2368.807257 1419.595761 2616.857808 1524.756931 
" clip-path="url(#p7f6e9c5d16)" style="fill: none; stroke: #000000; stroke-width: 0.2; stroke-linecap: round"/>
    <path d="M 2613.955739 1521.354285 
L 2616.857808 1524.756931 
L 2612.39445 1525.036999 
z
" clip-path="url(#p7f6e9c5d16)" style="stroke: #000000; stroke-width: 0.2; stroke-linecap: round"/>
   </g>
   <g id="patch_6">
    <path d="M 2093.992654 1304.756444 
Q 1936.772704 1257.474469 1779.766886 1210.256891 
" clip-path="url(#p7f6e9c5d16)" style="fill: none; stroke: #000000; stroke-width: 0.2; stroke-linecap: round"/>
    <path d="M 1783.021421 1213.324138 
L 1779.766886 1210.256891 
L 1784.173405 1209.493612 
z
" clip-path="url(#p7f6e9c5d16)" style="stroke: #000000; stroke-width: 0.2; stroke-linecap: round"/>
   </g>
   <g id="patch_7">
    <path d="M 1867.938343 1224.808071 
Q 1659.857175 1163.626596 1451.990533 1102.508198 
" clip-path="url(#p7f6e9c5d16)" style="fill: none; stroke: #000000; stroke-width: 0.2; stroke-linecap: round"/>
    <path d="M 1455.263916 1105.555321 
L 1451.990533 1102.508198 
L 1456.392261 1101.717765 
z
" clip-path="url(#p7f6e9c5d16)" style="stroke: #000000; stroke-width: 0.2; stroke-linecap: round"/>
   </g>
   <g id="patch_8">
    <path d="M 1894.834112 1233.516633 
Q 1994.519413 1268.812933 2093.99393 1304.034598 
" clip-path="url(#p7f6e9c5d16)" style="fill: none; stroke: #000000; stroke-width: 0.2; stroke-linecap: round"/>
    <path d="M 2090.890859 1300.814202 
L 2093.99393 1304.034598 
L 2089.55577 1304.584817 
z
" clip-path="url(#p7f6e9c5d16)" style="stroke: #000000; stroke-width: 0.2; stroke-linecap: round"/>
   </g>
   <g id="patch_9">
    <path d="M 1869.828076 1220.818015 
Q 1805.878312 1177.117893 1742.113167 1133.54393 
" clip-path="url(#p7f6e9c5d16)" style="fill: none; stroke: #000000; stroke-width: 0.2; stroke-linecap: round"/>
    <path d="M 1744.287318 1137.452007 
L 1742.113167 1133.54393 
L 1746.544119 1134.149455 
z
" clip-path="url(#p7f6e9c5d16)" style="stroke: #000000; stroke-width: 0.2; stroke-linecap: round"/>
   </g>
   <g id="patch_10">
    <path d="M 1894.706549 1233.859326 
Q 2069.233751 1300.782613 2243.55217 1367.625842 
" clip-path="url(#p7f6e9c5d16)" style="fill: none; stroke: #000000; stroke-width: 0.2; stroke-linecap: round"/>
    <path d="M 2240.533407 1364.326286 
L 2243.55217 1367.625842 
L 2239.101267 1368.061119 
z
" clip-path="url(#p7f6e9c5d16)" style="stroke: #000000; stroke-width: 0.2; stroke-linecap: round"/>
   </g>
   <g id="patch_11">
    <path d="M 1717.724552 1118.866575 
Q 1587.579265 1050.592812 1457.631992 982.422927 
" clip-path="url(#p7f6e9c5d16)" style="fill: none; stroke: #000000; stroke-width: 0.2; stroke-linecap: round"/>
    <path d="M 1460.245064 986.052231 
L 1457.631992 982.422927 
L 1462.103279 982.510052 
z
" clip-path="url(#p7f6e9c5d16)" style="stroke: #000000; stroke-width: 0.2; stroke-linecap: round"/>
   </g>
   <g id="patch_12">
    <path d="M 1716.164758 1124.136434 
Q 1584.228028 1111.94648 1452.513956 1099.777098 
" clip-path="url(#p7f6e9c5d16)" style="fill: none; stroke: #000000; stroke-width: 0.2; stroke-linecap: round"/>
    <path d="M 1456.312991 1102.136618 
L 1452.513956 1099.777098 
L 1456.680993 1098.153582 
z
" clip-path="url(#p7f6e9c5d16)" style="stroke: #000000; stroke-width: 0.2; stroke-linecap: round"/>
   </g>
   <g id="patch_13">
    <path d="M 1741.926831 1133.416597 
Q 1805.876595 1177.116719 1869.641741 1220.690683 
" clip-path="url(#p7f6e9c5d16)" style="fill: none; stroke: #000000; stroke-width: 0.2; stroke-linecap: round"/>
    <path d="M 1867.46759 1216.782606 
L 1869.641741 1220.690683 
L 1865.210788 1220.085157 
z
" clip-path="url(#p7f6e9c5d16)" style="stroke: #000000; stroke-width: 0.2; stroke-linecap: round"/>
   </g>
   <g id="patch_14">
    <path d="M 1742.970815 1131.620792 
Q 1918.892826 1217.133514 2094.61373 1302.548482 
" clip-path="url(#p7f6e9c5d16)" style="fill: none; stroke: #000000; stroke-width: 0.2; stroke-linecap: round"/>
    <path d="M 2091.890563 1299.001037 
L 2094.61373 1302.548482 
L 2090.141874 1302.598548 
z
" clip-path="url(#p7f6e9c5d16)" style="stroke: #000000; stroke-width: 0.2; stroke-linecap: round"/>
   </g>
   <g id="patch_15">
    <path d="M 1735.980908 1138.366859 
Q 1748.128876 1165.777435 1760.186244 1192.983581 
" clip-path="url(#p7f6e9c5d16)" style="fill: none; stroke: #000000; stroke-width: 0.2; stroke-linecap: round"/>
    <path d="M 1760.394012 1188.516274 
L 1760.186244 1192.983581 
L 1756.737059 1190.136983 
z
" clip-path="url(#p7f6e9c5d16)" style="stroke: #000000; stroke-width: 0.2; stroke-linecap: round"/>
   </g>
   <g id="patch_16">
    <path d="M 1716.111269 1125.302063 
Q 1674.576795 1124.903067 1633.265918 1124.506219 
" clip-path="url(#p7f6e9c5d16)" style="fill: none; stroke: #000000; stroke-width: 0.2; stroke-linecap: round"/>
    <path d="M 1637.246521 1126.54455 
L 1633.265918 1124.506219 
L 1637.284945 1122.544735 
z
" clip-path="url(#p7f6e9c5d16)" style="stroke: #000000; stroke-width: 0.2; stroke-linecap: round"/>
   </g>
   <g id="patch_17">
    <path d="M 2243.761017 1367.705925 
Q 2069.233815 1300.782638 1894.915396 1233.939409 
" clip-path="url(#p7f6e9c5d16)" style="fill: none; stroke: #000000; stroke-width: 0.2; stroke-linecap: round"/>
    <path d="M 1897.934159 1237.238965 
L 1894.915396 1233.939409 
L 1899.366298 1233.504132 
z
" clip-path="url(#p7f6e9c5d16)" style="stroke: #000000; stroke-width: 0.2; stroke-linecap: round"/>
   </g>
   <g id="patch_18">
    <path d="M 2243.962434 1367.205425 
Q 2182.249544 1340.798985 2120.742232 1314.480511 
" clip-path="url(#p7f6e9c5d16)" style="fill: none; stroke: #000000; stroke-width: 0.2; stroke-linecap: round"/>
    <path d="M 2123.632934 1317.892819 
L 2120.742232 1314.480511 
L 2125.206499 1314.215334 
z
" clip-path="url(#p7f6e9c5d16)" style="stroke: #000000; stroke-width: 0.2; stroke-linecap: round"/>
   </g>
   <g id="patch_19">
    <path d="M 2269.992855 1378.271711 
Q 2443.522606 1451.565844 2616.84637 1524.772974 
" clip-path="url(#p7f6e9c5d16)" style="fill: none; stroke: #000000; stroke-width: 0.2; stroke-linecap: round"/>
    <path d="M 2613.939749 1521.374217 
L 2616.84637 1524.772974 
L 2612.383392 1525.059017 
z
" clip-path="url(#p7f6e9c5d16)" style="stroke: #000000; stroke-width: 0.2; stroke-linecap: round"/>
   </g>
   <g id="patch_20">
    <path d="M 1752.570166 1201.705537 
Q 1602.10717 1152.287187 1451.856616 1102.938612 
" clip-path="url(#p7f6e9c5d16)" style="fill: none; stroke: #000000; stroke-width: 0.2; stroke-linecap: round"/>
    <path d="M 1455.032804 1106.086917 
L 1451.856616 1102.938612 
L 1456.280973 1102.286644 
z
" clip-path="url(#p7f6e9c5d16)" style="stroke: #000000; stroke-width: 0.2; stroke-linecap: round"/>
   </g>
   <g id="patch_21">
    <path d="M 1779.549171 1210.191416 
Q 1936.769122 1257.473392 2093.774939 1304.690969 
" clip-path="url(#p7f6e9c5d16)" style="fill: none; stroke: #000000; stroke-width: 0.2; stroke-linecap: round"/>
    <path d="M 2090.520405 1301.623722 
L 2093.774939 1304.690969 
L 2089.368421 1305.454248 
z
" clip-path="url(#p7f6e9c5d16)" style="stroke: #000000; stroke-width: 0.2; stroke-linecap: round"/>
   </g>
   <g id="patch_22">
    <path d="M 1760.277728 1193.190006 
Q 1748.12976 1165.77943 1736.072392 1138.573284 
" clip-path="url(#p7f6e9c5d16)" style="fill: none; stroke: #000000; stroke-width: 0.2; stroke-linecap: round"/>
    <path d="M 1735.864624 1143.040591 
L 1736.072392 1138.573284 
L 1739.521577 1141.419883 
z
" clip-path="url(#p7f6e9c5d16)" style="stroke: #000000; stroke-width: 0.2; stroke-linecap: round"/>
   </g>
   <g id="patch_23">
    <path d="M 1753.646207 1199.249443 
Q 1692.455841 1165.244619 1631.460929 1131.348413 
" clip-path="url(#p7f6e9c5d16)" style="fill: none; stroke: #000000; stroke-width: 0.2; stroke-linecap: round"/>
    <path d="M 1633.985803 1135.03962 
L 1631.460929 1131.348413 
L 1635.928819 1131.543238 
z
" clip-path="url(#p7f6e9c5d16)" style="stroke: #000000; stroke-width: 0.2; stroke-linecap: round"/>
   </g>
   <g id="patch_24">
    <path d="M 1434.488873 966.181305 
Q 1373.015441 909.737389 1311.706717 853.444705 
" clip-path="url(#p7f6e9c5d16)" style="fill: none; stroke: #000000; stroke-width: 0.2; stroke-linecap: round"/>
    <path d="M 1313.300443 857.623226 
L 1311.706717 853.444705 
L 1316.00577 854.676837 
z
" clip-path="url(#p7f6e9c5d16)" style="stroke: #000000; stroke-width: 0.2; stroke-linecap: round"/>
   </g>
   <g id="patch_25">
    <path d="M 1430.932439 977.921261 
Q 1318.507202 995.404377 1206.302917 1012.853133 
" clip-path="url(#p7f6e9c5d16)" style="fill: none; stroke: #000000; stroke-width: 0.2; stroke-linecap: round"/>
    <path d="M 1210.562735 1014.214732 
L 1206.302917 1012.853133 
L 1209.948088 1010.262238 
z
" clip-path="url(#p7f6e9c5d16)" style="stroke: #000000; stroke-width: 0.2; stroke-linecap: round"/>
   </g>
   <g id="patch_26">
    <path d="M 1444.136674 989.869307 
Q 1441.556887 1037.102223 1438.989295 1084.111865 
" clip-path="url(#p7f6e9c5d16)" style="fill: none; stroke: #000000; stroke-width: 0.2; stroke-linecap: round"/>
    <path d="M 1441.204467 1080.226892 
L 1438.989295 1084.111865 
L 1437.21042 1080.008743 
z
" clip-path="url(#p7f6e9c5d16)" style="stroke: #000000; stroke-width: 0.2; stroke-linecap: round"/>
   </g>
   <g id="patch_27">
    <path d="M 1457.434386 982.319263 
Q 1587.579673 1050.593026 1717.526946 1118.762911 
" clip-path="url(#p7f6e9c5d16)" style="fill: none; stroke: #000000; stroke-width: 0.2; stroke-linecap: round"/>
    <path d="M 1714.913874 1115.133606 
L 1717.526946 1118.762911 
L 1713.055659 1118.675786 
z
" clip-path="url(#p7f6e9c5d16)" style="stroke: #000000; stroke-width: 0.2; stroke-linecap: round"/>
   </g>
   <g id="patch_28">
    <path d="M 1438.977174 1084.333777 
Q 1441.556961 1037.100862 1444.124553 990.09122 
" clip-path="url(#p7f6e9c5d16)" style="fill: none; stroke: #000000; stroke-width: 0.2; stroke-linecap: round"/>
    <path d="M 1441.909381 993.976193 
L 1444.124553 990.09122 
L 1445.903428 994.194341 
z
" clip-path="url(#p7f6e9c5d16)" style="stroke: #000000; stroke-width: 0.2; stroke-linecap: round"/>
   </g>
   <g id="patch_29">
    <path d="M 1424.512121 1094.915013 
Q 1114.748919 1014.834691 805.202206 934.810337 
" clip-path="url(#p7f6e9c5d16)" style="fill: none; stroke: #000000; stroke-width: 0.2; stroke-linecap: round"/>
    <path d="M 808.574302 937.747847 
L 805.202206 934.810337 
L 809.575472 933.875166 
z
" clip-path="url(#p7f6e9c5d16)" style="stroke: #000000; stroke-width: 0.2; stroke-linecap: round"/>
   </g>
   <g id="patch_30">
    <path d="M 1451.771474 1102.443789 
Q 1659.852642 1163.625263 1867.719284 1224.743661 
" clip-path="url(#p7f6e9c5d16)" style="fill: none; stroke: #000000; stroke-width: 0.2; stroke-linecap: round"/>
    <path d="M 1864.4459 1221.696538 
L 1867.719284 1224.743661 
L 1863.317555 1225.534094 
z
" clip-path="url(#p7f6e9c5d16)" style="stroke: #000000; stroke-width: 0.2; stroke-linecap: round"/>
   </g>
   <g id="patch_31">
    <path d="M 1452.292108 1099.756601 
Q 1584.228839 1111.946555 1715.94291 1124.115937 
" clip-path="url(#p7f6e9c5d16)" style="fill: none; stroke: #000000; stroke-width: 0.2; stroke-linecap: round"/>
    <path d="M 1712.143876 1121.756417 
L 1715.94291 1124.115937 
L 1711.775873 1125.739453 
z
" clip-path="url(#p7f6e9c5d16)" style="stroke: #000000; stroke-width: 0.2; stroke-linecap: round"/>
   </g>
   <g id="patch_32">
    <path d="M 1451.64338 1102.868576 
Q 1602.106375 1152.286926 1752.35693 1201.635501 
" clip-path="url(#p7f6e9c5d16)" style="fill: none; stroke: #000000; stroke-width: 0.2; stroke-linecap: round"/>
    <path d="M 1749.180741 1198.487196 
L 1752.35693 1201.635501 
L 1747.932572 1202.287469 
z
" clip-path="url(#p7f6e9c5d16)" style="stroke: #000000; stroke-width: 0.2; stroke-linecap: round"/>
   </g>
   <g id="patch_33">
    <path d="M 1452.204083 1100.462598 
Q 1528.553542 1111.411741 1604.681658 1122.329142 
" clip-path="url(#p7f6e9c5d16)" style="fill: none; stroke: #000000; stroke-width: 0.2; stroke-linecap: round"/>
    <path d="M 1601.006078 1119.781572 
L 1604.681658 1122.329142 
L 1600.438255 1123.741064 
z
" clip-path="url(#p7f6e9c5d16)" style="stroke: #000000; stroke-width: 0.2; stroke-linecap: round"/>
   </g>
   <g id="patch_34">
    <path d="M 1604.902143 1122.360761 
Q 1528.552684 1111.411618 1452.424567 1100.494217 
" clip-path="url(#p7f6e9c5d16)" style="fill: none; stroke: #000000; stroke-width: 0.2; stroke-linecap: round"/>
    <path d="M 1456.100147 1103.041787 
L 1452.424567 1100.494217 
L 1456.667971 1099.082295 
z
" clip-path="url(#p7f6e9c5d16)" style="stroke: #000000; stroke-width: 0.2; stroke-linecap: round"/>
   </g>
   <g id="patch_35">
    <path d="M 1633.040048 1124.504049 
Q 1674.574522 1124.903045 1715.885399 1125.299893 
" clip-path="url(#p7f6e9c5d16)" style="fill: none; stroke: #000000; stroke-width: 0.2; stroke-linecap: round"/>
    <path d="M 1711.904795 1123.261561 
L 1715.885399 1125.299893 
L 1711.866371 1127.261377 
z
" clip-path="url(#p7f6e9c5d16)" style="stroke: #000000; stroke-width: 0.2; stroke-linecap: round"/>
   </g>
   <g id="patch_36">
    <path d="M 1631.261788 1131.237746 
Q 1692.452154 1165.24257 1753.447066 1199.138776 
" clip-path="url(#p7f6e9c5d16)" style="fill: none; stroke: #000000; stroke-width: 0.2; stroke-linecap: round"/>
    <path d="M 1750.922192 1195.447569 
L 1753.447066 1199.138776 
L 1748.979176 1198.943952 
z
" clip-path="url(#p7f6e9c5d16)" style="stroke: #000000; stroke-width: 0.2; stroke-linecap: round"/>
   </g>
   <g id="patch_37">
    <path d="M 791.930224 945.338013 
Q 803.708389 1204.994486 815.476422 1464.427581 
" clip-path="url(#p7f6e9c5d16)" style="fill: none; stroke: #000000; stroke-width: 0.2; stroke-linecap: round"/>
    <path d="M 817.293111 1460.341062 
L 815.476422 1464.427581 
L 813.29722 1460.522318 
z
" clip-path="url(#p7f6e9c5d16)" style="stroke: #000000; stroke-width: 0.2; stroke-linecap: round"/>
   </g>
   <g id="patch_38">
    <path d="M 789.582023 945.252902 
Q 759.489504 1192.675954 729.423982 1439.877034 
" clip-path="url(#p7f6e9c5d16)" style="fill: none; stroke: #000000; stroke-width: 0.2; stroke-linecap: round"/>
    <path d="M 731.892288 1436.147763 
L 729.423982 1439.877034 
L 727.921548 1435.664827 
z
" clip-path="url(#p7f6e9c5d16)" style="stroke: #000000; stroke-width: 0.2; stroke-linecap: round"/>
   </g>
   <g id="patch_39">
    <path d="M 804.983301 934.753745 
Q 1114.746503 1014.834067 1424.293216 1094.858422 
" clip-path="url(#p7f6e9c5d16)" style="fill: none; stroke: #000000; stroke-width: 0.2; stroke-linecap: round"/>
    <path d="M 1420.92112 1091.920912 
L 1424.293216 1094.858422 
L 1419.91995 1095.793593 
z
" clip-path="url(#p7f6e9c5d16)" style="stroke: #000000; stroke-width: 0.2; stroke-linecap: round"/>
   </g>
   <g id="patch_40">
    <path d="M 782.48984 920.139538 
Q 520.603034 590.564969 258.855338 261.165466 
" clip-path="url(#p7f6e9c5d16)" style="fill: none; stroke: #000000; stroke-width: 0.2; stroke-linecap: round"/>
    <path d="M 259.777995 265.54139 
L 258.855338 261.165466 
L 262.909671 263.052895 
z
" clip-path="url(#p7f6e9c5d16)" style="stroke: #000000; stroke-width: 0.2; stroke-linecap: round"/>
   </g>
   <g id="patch_41">
    <path d="M 1293.534484 855.657876 
Q 1246.616138 929.394135 1199.817833 1002.94174 
" clip-path="url(#p7f6e9c5d16)" style="fill: none; stroke: #000000; stroke-width: 0.2; stroke-linecap: round"/>
    <path d="M 1203.652553 1000.64067 
L 1199.817833 1002.94174 
L 1200.277809 998.493322 
z
" clip-path="url(#p7f6e9c5d16)" style="stroke: #000000; stroke-width: 0.2; stroke-linecap: round"/>
   </g>
   <g id="patch_42">
    <path d="M 1311.544078 853.295372 
Q 1373.01751 909.739289 1434.326234 966.031973 
" clip-path="url(#p7f6e9c5d16)" style="fill: none; stroke: #000000; stroke-width: 0.2; stroke-linecap: round"/>
    <path d="M 1432.732508 961.853452 
L 1434.326234 966.031973 
L 1430.027181 964.79984 
z
" clip-path="url(#p7f6e9c5d16)" style="stroke: #000000; stroke-width: 0.2; stroke-linecap: round"/>
   </g>
   <g id="patch_43">
    <path d="M 1199.696986 1003.131663 
Q 1246.615331 929.395403 1293.413636 855.847798 
" clip-path="url(#p7f6e9c5d16)" style="fill: none; stroke: #000000; stroke-width: 0.2; stroke-linecap: round"/>
    <path d="M 1289.578916 858.148868 
L 1293.413636 855.847798 
L 1292.95366 860.296216 
z
" clip-path="url(#p7f6e9c5d16)" style="stroke: #000000; stroke-width: 0.2; stroke-linecap: round"/>
   </g>
   <g id="patch_44">
    <path d="M 1181.410907 1024.31844 
Q 1071.045534 1119.846058 960.849231 1215.227337 
" clip-path="url(#p7f6e9c5d16)" style="fill: none; stroke: #000000; stroke-width: 0.2; stroke-linecap: round"/>
    <path d="M 965.18255 1214.121738 
L 960.849231 1215.227337 
L 962.564743 1211.097322 
z
" clip-path="url(#p7f6e9c5d16)" style="stroke: #000000; stroke-width: 0.2; stroke-linecap: round"/>
   </g>
   <g id="patch_45">
    <path d="M 1206.082 1012.887487 
Q 1318.507236 995.404371 1430.711521 977.955615 
" clip-path="url(#p7f6e9c5d16)" style="fill: none; stroke: #000000; stroke-width: 0.2; stroke-linecap: round"/>
    <path d="M 1426.451704 976.594016 
L 1430.711521 977.955615 
L 1427.066351 980.54651 
z
" clip-path="url(#p7f6e9c5d16)" style="stroke: #000000; stroke-width: 0.2; stroke-linecap: round"/>
   </g>
   <g id="patch_46">
    <path d="M 960.679435 1215.374304 
Q 1071.044809 1119.846686 1181.241112 1024.465408 
" clip-path="url(#p7f6e9c5d16)" style="fill: none; stroke: #000000; stroke-width: 0.2; stroke-linecap: round"/>
    <path d="M 1176.907793 1025.571007 
L 1181.241112 1024.465408 
L 1179.5256 1028.595423 
z
" clip-path="url(#p7f6e9c5d16)" style="stroke: #000000; stroke-width: 0.2; stroke-linecap: round"/>
   </g>
   <g id="patch_47">
    <path d="M 940.143859 1234.791024 
Q 838.836337 1339.383618 737.684387 1443.815595 
" clip-path="url(#p7f6e9c5d16)" style="fill: none; stroke: #000000; stroke-width: 0.2; stroke-linecap: round"/>
    <path d="M 741.903927 1442.33388 
L 737.684387 1443.815595 
L 739.030739 1439.550934 
z
" clip-path="url(#p7f6e9c5d16)" style="stroke: #000000; stroke-width: 0.2; stroke-linecap: round"/>
   </g>
   <g id="patch_48">
    <path d="M 802.506017 1474.981696 
Q 771.908799 1466.455729 741.526982 1457.989784 
" clip-path="url(#p7f6e9c5d16)" style="fill: none; stroke: #000000; stroke-width: 0.2; stroke-linecap: round"/>
    <path d="M 744.843334 1460.990086 
L 741.526982 1457.989784 
L 745.917035 1457.136884 
z
" clip-path="url(#p7f6e9c5d16)" style="stroke: #000000; stroke-width: 0.2; stroke-linecap: round"/>
   </g>
   <g id="patch_49">
    <path d="M 815.486642 1464.652903 
Q 803.708477 1204.996431 791.940445 945.563336 
" clip-path="url(#p7f6e9c5d16)" style="fill: none; stroke: #000000; stroke-width: 0.2; stroke-linecap: round"/>
    <path d="M 790.123755 949.649855 
L 791.940445 945.563336 
L 794.119646 949.468599 
z
" clip-path="url(#p7f6e9c5d16)" style="stroke: #000000; stroke-width: 0.2; stroke-linecap: round"/>
   </g>
   <g id="patch_50">
    <path d="M 819.4318 1492.52428 
Q 871.669986 1709.841434 923.855912 1926.941175 
" clip-path="url(#p7f6e9c5d16)" style="fill: none; stroke: #000000; stroke-width: 0.2; stroke-linecap: round"/>
    <path d="M 924.865639 1922.584519 
L 923.855912 1926.941175 
L 920.976423 1923.519399 
z
" clip-path="url(#p7f6e9c5d16)" style="stroke: #000000; stroke-width: 0.2; stroke-linecap: round"/>
   </g>
   <g id="patch_51">
    <path d="M 802.552094 1482.734812 
Q 584.984225 1546.161145 367.631027 1609.524895 
" clip-path="url(#p7f6e9c5d16)" style="fill: none; stroke: #000000; stroke-width: 0.2; stroke-linecap: round"/>
    <path d="M 372.030922 1610.325473 
L 367.631027 1609.524895 
L 370.911425 1606.485326 
z
" clip-path="url(#p7f6e9c5d16)" style="stroke: #000000; stroke-width: 0.2; stroke-linecap: round"/>
   </g>
   <g id="patch_52">
    <path d="M 823.620566 1490.773723 
Q 1175.693812 2054.431627 1527.648599 2617.89988 
" clip-path="url(#p7f6e9c5d16)" style="fill: none; stroke: #000000; stroke-width: 0.2; stroke-linecap: round"/>
    <path d="M 1527.225809 2613.447774 
L 1527.648599 2617.89988 
L 1523.83324 2615.566848 
z
" clip-path="url(#p7f6e9c5d16)" style="stroke: #000000; stroke-width: 0.2; stroke-linecap: round"/>
   </g>
   <g id="patch_53">
    <path d="M 810.210233 1465.935266 
Q 533.022418 864.347487 255.928176 262.962794 
" clip-path="url(#p7f6e9c5d16)" style="fill: none; stroke: #000000; stroke-width: 0.2; stroke-linecap: round"/>
    <path d="M 255.785622 267.432657 
L 255.928176 262.962794 
L 259.418535 265.758755 
z
" clip-path="url(#p7f6e9c5d16)" style="stroke: #000000; stroke-width: 0.2; stroke-linecap: round"/>
   </g>
   <g id="patch_54">
    <path d="M 741.311302 1457.929684 
Q 771.90852 1466.455651 802.290337 1474.921597 
" clip-path="url(#p7f6e9c5d16)" style="fill: none; stroke: #000000; stroke-width: 0.2; stroke-linecap: round"/>
    <path d="M 798.973986 1471.921294 
L 802.290337 1474.921597 
L 797.900284 1475.774496 
z
" clip-path="url(#p7f6e9c5d16)" style="stroke: #000000; stroke-width: 0.2; stroke-linecap: round"/>
   </g>
   <g id="patch_55">
    <path d="M 737.529991 1443.974997 
Q 838.837513 1339.382404 939.989463 1234.950427 
" clip-path="url(#p7f6e9c5d16)" style="fill: none; stroke: #000000; stroke-width: 0.2; stroke-linecap: round"/>
    <path d="M 935.769923 1236.432142 
L 939.989463 1234.950427 
L 938.643111 1239.215088 
z
" clip-path="url(#p7f6e9c5d16)" style="stroke: #000000; stroke-width: 0.2; stroke-linecap: round"/>
   </g>
   <g id="patch_56">
    <path d="M 729.397497 1440.094797 
Q 759.490016 1192.671745 789.555538 945.470664 
" clip-path="url(#p7f6e9c5d16)" style="fill: none; stroke: #000000; stroke-width: 0.2; stroke-linecap: round"/>
    <path d="M 787.087232 949.199936 
L 789.555538 945.470664 
L 791.057972 949.682872 
z
" clip-path="url(#p7f6e9c5d16)" style="stroke: #000000; stroke-width: 0.2; stroke-linecap: round"/>
   </g>
   <g id="patch_57">
    <path d="M 733.052838 1467.217741 
Q 827.45099 1697.519362 921.764336 1927.614083 
" clip-path="url(#p7f6e9c5d16)" style="fill: none; stroke: #000000; stroke-width: 0.2; stroke-linecap: round"/>
    <path d="M 922.097849 1923.1544 
L 921.764336 1927.614083 
L 918.396698 1924.671462 
z
" clip-path="url(#p7f6e9c5d16)" style="stroke: #000000; stroke-width: 0.2; stroke-linecap: round"/>
   </g>
   <g id="patch_58">
    <path d="M 714.680971 1459.681194 
Q 540.76572 1533.839567 367.056157 1607.910234 
" clip-path="url(#p7f6e9c5d16)" style="fill: none; stroke: #000000; stroke-width: 0.2; stroke-linecap: round"/>
    <path d="M 371.520088 1608.181023 
L 367.056157 1607.910234 
L 369.951147 1604.501563 
z
" clip-path="url(#p7f6e9c5d16)" style="stroke: #000000; stroke-width: 0.2; stroke-linecap: round"/>
   </g>
   <g id="patch_59">
    <path d="M 923.908552 1927.160164 
Q 871.670365 1709.843009 819.48444 1492.743269 
" clip-path="url(#p7f6e9c5d16)" style="fill: none; stroke: #000000; stroke-width: 0.2; stroke-linecap: round"/>
    <path d="M 818.474713 1497.099925 
L 819.48444 1492.743269 
L 822.363928 1496.165044 
z
" clip-path="url(#p7f6e9c5d16)" style="stroke: #000000; stroke-width: 0.2; stroke-linecap: round"/>
   </g>
   <g id="patch_60">
    <path d="M 921.850167 1927.823484 
Q 827.452015 1697.521863 733.138669 1467.427143 
" clip-path="url(#p7f6e9c5d16)" style="fill: none; stroke: #000000; stroke-width: 0.2; stroke-linecap: round"/>
    <path d="M 732.805155 1471.886826 
L 733.138669 1467.427143 
L 736.506307 1470.369764 
z
" clip-path="url(#p7f6e9c5d16)" style="stroke: #000000; stroke-width: 0.2; stroke-linecap: round"/>
   </g>
   <g id="patch_61">
    <path d="M 914.931698 1933.895193 
Q 640.527937 1777.225903 366.318363 1620.667482 
" clip-path="url(#p7f6e9c5d16)" style="fill: none; stroke: #000000; stroke-width: 0.2; stroke-linecap: round"/>
    <path d="M 368.800416 1624.387619 
L 366.318363 1620.667482 
L 370.783703 1620.913922 
z
" clip-path="url(#p7f6e9c5d16)" style="stroke: #000000; stroke-width: 0.2; stroke-linecap: round"/>
   </g>
   <g id="patch_62">
    <path d="M 936.567596 1951.509885 
Q 1231.234498 2285.493621 1525.753463 2619.309682 
" clip-path="url(#p7f6e9c5d16)" style="fill: none; stroke: #000000; stroke-width: 0.2; stroke-linecap: round"/>
    <path d="M 1524.606832 2614.987039 
L 1525.753463 2619.309682 
L 1521.607371 2617.633402 
z
" clip-path="url(#p7f6e9c5d16)" style="stroke: #000000; stroke-width: 0.2; stroke-linecap: round"/>
   </g>
   <g id="PathCollection_1">
    <defs>
     <path id="C0_0_cf76bdfe4e" d="M 0 14.142136 
C 3.750538 14.142136 7.347969 12.652031 10 10 
C 12.652031 7.347969 14.142136 3.750538 14.142136 -0 
C 14.142136 -3.750538 12.652031 -7.347969 10 -10 
C 7.347969 -12.652031 3.750538 -14.142136 0 -14.142136 
C -3.750538 -14.142136 -7.347969 -12.652031 -10 -10 
C -12.652031 -7.347969 -14.142136 -3.750538 -14.142136 0 
C -14.142136 3.750538 -12.652031 7.347969 -10 10 
C -7.347969 12.652031 -3.750538 14.142136 0 14.142136 
z
"/>
    </defs>
    <g clip-path="url(#p7f6e9c5d16)">
     <use xlink:href="#C0_0_cf76bdfe4e" x="2107.534168" y="1308.828889" style="fill: #0000ff; stroke: #0000ff"/>
    </g>
    <g clip-path="url(#p7f6e9c5d16)">
     <use xlink:href="#C0_0_cf76bdfe4e" x="1881.503929" y="1228.796719" style="fill: #0000ff; stroke: #0000ff"/>
    </g>
    <g clip-path="url(#p7f6e9c5d16)">
     <use xlink:href="#C0_0_cf76bdfe4e" x="1730.250979" y="1125.437894" style="fill: #ffff00; stroke: #ffff00"/>
    </g>
    <g clip-path="url(#p7f6e9c5d16)">
     <use xlink:href="#C0_0_cf76bdfe4e" x="2256.963637" y="1372.768533" style="fill: #0000ff; stroke: #0000ff"/>
    </g>
    <g clip-path="url(#p7f6e9c5d16)">
     <use xlink:href="#C0_0_cf76bdfe4e" x="2630.082645" y="1530.363608" style="fill: #ffff00; stroke: #ffff00"/>
    </g>
    <g clip-path="url(#p7f6e9c5d16)">
     <use xlink:href="#C0_0_cf76bdfe4e" x="1766.007658" y="1206.118972" style="fill: #ffa500; stroke: #ffa500"/>
    </g>
    <g clip-path="url(#p7f6e9c5d16)">
     <use xlink:href="#C0_0_cf76bdfe4e" x="1444.90796" y="975.747944" style="fill: #0000ff; stroke: #0000ff"/>
    </g>
    <g clip-path="url(#p7f6e9c5d16)">
     <use xlink:href="#C0_0_cf76bdfe4e" x="1438.205888" y="1098.455141" style="fill: #ffff00; stroke: #ffff00"/>
    </g>
    <g clip-path="url(#p7f6e9c5d16)">
     <use xlink:href="#C0_0_cf76bdfe4e" x="1618.900338" y="1124.368218" style="fill: #ffff00; stroke: #ffff00"/>
    </g>
    <g clip-path="url(#p7f6e9c5d16)">
     <use xlink:href="#C0_0_cf76bdfe4e" x="791.289534" y="931.213618" style="fill: #ffa500; stroke: #ffa500"/>
    </g>
    <g clip-path="url(#p7f6e9c5d16)">
     <use xlink:href="#C0_0_cf76bdfe4e" x="1301.124991" y="843.728734" style="fill: #ffa500; stroke: #ffa500"/>
    </g>
    <g clip-path="url(#p7f6e9c5d16)">
     <use xlink:href="#C0_0_cf76bdfe4e" x="1192.106479" y="1015.060804" style="fill: #ffff00; stroke: #ffff00"/>
    </g>
    <g clip-path="url(#p7f6e9c5d16)">
     <use xlink:href="#C0_0_cf76bdfe4e" x="949.983864" y="1224.63194" style="fill: #ffa500; stroke: #ffa500"/>
    </g>
    <g clip-path="url(#p7f6e9c5d16)">
     <use xlink:href="#C0_0_cf76bdfe4e" x="816.127333" y="1478.777299" style="fill: #ffff00; stroke: #ffff00"/>
    </g>
    <g clip-path="url(#p7f6e9c5d16)">
     <use xlink:href="#C0_0_cf76bdfe4e" x="727.689986" y="1454.134081" style="fill: #0000ff; stroke: #0000ff"/>
    </g>
    <g clip-path="url(#p7f6e9c5d16)">
     <use xlink:href="#C0_0_cf76bdfe4e" x="249.917355" y="249.917355" style="fill: #ffff00; stroke: #ffff00"/>
    </g>
    <g clip-path="url(#p7f6e9c5d16)">
     <use xlink:href="#C0_0_cf76bdfe4e" x="927.213019" y="1940.907145" style="fill: #0000ff; stroke: #0000ff"/>
    </g>
    <g clip-path="url(#p7f6e9c5d16)">
     <use xlink:href="#C0_0_cf76bdfe4e" x="353.842649" y="1613.544543" style="fill: #ffff00; stroke: #ffff00"/>
    </g>
    <g clip-path="url(#p7f6e9c5d16)">
     <use xlink:href="#C0_0_cf76bdfe4e" x="1535.258224" y="2630.082645" style="fill: #ffff00; stroke: #ffff00"/>
    </g>
   </g>
   <g id="text_1">
    <g clip-path="url(#p7f6e9c5d16)">
     <!-- VAL 90 -->
     <g transform="translate(2093.726668 1311.036389) scale(0.08 -0.08)">
      <defs>
       <path id="DejaVuSans-56" d="M 1831 0 
L 50 4666 
L 709 4666 
L 2188 738 
L 3669 4666 
L 4325 4666 
L 2547 0 
L 1831 0 
z
" transform="scale(0.015625)"/>
       <path id="DejaVuSans-41" d="M 2188 4044 
L 1331 1722 
L 3047 1722 
L 2188 4044 
z
M 1831 4666 
L 2547 4666 
L 4325 0 
L 3669 0 
L 3244 1197 
L 1141 1197 
L 716 0 
L 50 0 
L 1831 4666 
z
" transform="scale(0.015625)"/>
       <path id="DejaVuSans-4c" d="M 628 4666 
L 1259 4666 
L 1259 531 
L 3531 531 
L 3531 0 
L 628 0 
L 628 4666 
z
" transform="scale(0.015625)"/>
       <path id="DejaVuSans-20" transform="scale(0.015625)"/>
       <path id="DejaVuSans-39" d="M 703 97 
L 703 672 
Q 941 559 1184 500 
Q 1428 441 1663 441 
Q 2288 441 2617 861 
Q 2947 1281 2994 2138 
Q 2813 1869 2534 1725 
Q 2256 1581 1919 1581 
Q 1219 1581 811 2004 
Q 403 2428 403 3163 
Q 403 3881 828 4315 
Q 1253 4750 1959 4750 
Q 2769 4750 3195 4129 
Q 3622 3509 3622 2328 
Q 3622 1225 3098 567 
Q 2575 -91 1691 -91 
Q 1453 -91 1209 -44 
Q 966 3 703 97 
z
M 1959 2075 
Q 2384 2075 2632 2365 
Q 2881 2656 2881 3163 
Q 2881 3666 2632 3958 
Q 2384 4250 1959 4250 
Q 1534 4250 1286 3958 
Q 1038 3666 1038 3163 
Q 1038 2656 1286 2365 
Q 1534 2075 1959 2075 
z
" transform="scale(0.015625)"/>
       <path id="DejaVuSans-30" d="M 2034 4250 
Q 1547 4250 1301 3770 
Q 1056 3291 1056 2328 
Q 1056 1369 1301 889 
Q 1547 409 2034 409 
Q 2525 409 2770 889 
Q 3016 1369 3016 2328 
Q 3016 3291 2770 3770 
Q 2525 4250 2034 4250 
z
M 2034 4750 
Q 2819 4750 3233 4129 
Q 3647 3509 3647 2328 
Q 3647 1150 3233 529 
Q 2819 -91 2034 -91 
Q 1250 -91 836 529 
Q 422 1150 422 2328 
Q 422 3509 836 4129 
Q 1250 4750 2034 4750 
z
" transform="scale(0.015625)"/>
      </defs>
      <use xlink:href="#DejaVuSans-56"/>
      <use xlink:href="#DejaVuSans-41" x="62.033203"/>
      <use xlink:href="#DejaVuSans-4c" x="130.441406"/>
      <use xlink:href="#DejaVuSans-20" x="186.154297"/>
      <use xlink:href="#DejaVuSans-39" x="217.941406"/>
      <use xlink:href="#DejaVuSans-30" x="281.564453"/>
     </g>
    </g>
   </g>
   <g id="text_2">
    <g clip-path="url(#p7f6e9c5d16)">
     <!-- VAL 75 -->
     <g transform="translate(1867.696429 1231.004219) scale(0.08 -0.08)">
      <defs>
       <path id="DejaVuSans-37" d="M 525 4666 
L 3525 4666 
L 3525 4397 
L 1831 0 
L 1172 0 
L 2766 4134 
L 525 4134 
L 525 4666 
z
" transform="scale(0.015625)"/>
       <path id="DejaVuSans-35" d="M 691 4666 
L 3169 4666 
L 3169 4134 
L 1269 4134 
L 1269 2991 
Q 1406 3038 1543 3061 
Q 1681 3084 1819 3084 
Q 2600 3084 3056 2656 
Q 3513 2228 3513 1497 
Q 3513 744 3044 326 
Q 2575 -91 1722 -91 
Q 1428 -91 1123 -41 
Q 819 9 494 109 
L 494 744 
Q 775 591 1075 516 
Q 1375 441 1709 441 
Q 2250 441 2565 725 
Q 2881 1009 2881 1497 
Q 2881 1984 2565 2268 
Q 2250 2553 1709 2553 
Q 1456 2553 1204 2497 
Q 953 2441 691 2322 
L 691 4666 
z
" transform="scale(0.015625)"/>
      </defs>
      <use xlink:href="#DejaVuSans-56"/>
      <use xlink:href="#DejaVuSans-41" x="62.033203"/>
      <use xlink:href="#DejaVuSans-4c" x="130.441406"/>
      <use xlink:href="#DejaVuSans-20" x="186.154297"/>
      <use xlink:href="#DejaVuSans-37" x="217.941406"/>
      <use xlink:href="#DejaVuSans-35" x="281.564453"/>
     </g>
    </g>
   </g>
   <g id="text_3">
    <g clip-path="url(#p7f6e9c5d16)">
     <!-- LEU 99 -->
     <g transform="translate(1716.205979 1127.645394) scale(0.08 -0.08)">
      <defs>
       <path id="DejaVuSans-45" d="M 628 4666 
L 3578 4666 
L 3578 4134 
L 1259 4134 
L 1259 2753 
L 3481 2753 
L 3481 2222 
L 1259 2222 
L 1259 531 
L 3634 531 
L 3634 0 
L 628 0 
L 628 4666 
z
" transform="scale(0.015625)"/>
       <path id="DejaVuSans-55" d="M 556 4666 
L 1191 4666 
L 1191 1831 
Q 1191 1081 1462 751 
Q 1734 422 2344 422 
Q 2950 422 3222 751 
Q 3494 1081 3494 1831 
L 3494 4666 
L 4128 4666 
L 4128 1753 
Q 4128 841 3676 375 
Q 3225 -91 2344 -91 
Q 1459 -91 1007 375 
Q 556 841 556 1753 
L 556 4666 
z
" transform="scale(0.015625)"/>
      </defs>
      <use xlink:href="#DejaVuSans-4c"/>
      <use xlink:href="#DejaVuSans-45" x="55.712891"/>
      <use xlink:href="#DejaVuSans-55" x="118.896484"/>
      <use xlink:href="#DejaVuSans-20" x="192.089844"/>
      <use xlink:href="#DejaVuSans-39" x="223.876953"/>
      <use xlink:href="#DejaVuSans-39" x="287.5"/>
     </g>
    </g>
   </g>
   <g id="text_4">
    <g clip-path="url(#p7f6e9c5d16)">
     <!-- VAL 102 -->
     <g transform="translate(2240.611137 1374.976033) scale(0.08 -0.08)">
      <defs>
       <path id="DejaVuSans-31" d="M 794 531 
L 1825 531 
L 1825 4091 
L 703 3866 
L 703 4441 
L 1819 4666 
L 2450 4666 
L 2450 531 
L 3481 531 
L 3481 0 
L 794 0 
L 794 531 
z
" transform="scale(0.015625)"/>
       <path id="DejaVuSans-32" d="M 1228 531 
L 3431 531 
L 3431 0 
L 469 0 
L 469 531 
Q 828 903 1448 1529 
Q 2069 2156 2228 2338 
Q 2531 2678 2651 2914 
Q 2772 3150 2772 3378 
Q 2772 3750 2511 3984 
Q 2250 4219 1831 4219 
Q 1534 4219 1204 4116 
Q 875 4013 500 3803 
L 500 4441 
Q 881 4594 1212 4672 
Q 1544 4750 1819 4750 
Q 2544 4750 2975 4387 
Q 3406 4025 3406 3419 
Q 3406 3131 3298 2873 
Q 3191 2616 2906 2266 
Q 2828 2175 2409 1742 
Q 1991 1309 1228 531 
z
" transform="scale(0.015625)"/>
      </defs>
      <use xlink:href="#DejaVuSans-56"/>
      <use xlink:href="#DejaVuSans-41" x="62.033203"/>
      <use xlink:href="#DejaVuSans-4c" x="130.441406"/>
      <use xlink:href="#DejaVuSans-20" x="186.154297"/>
      <use xlink:href="#DejaVuSans-31" x="217.941406"/>
      <use xlink:href="#DejaVuSans-30" x="281.564453"/>
      <use xlink:href="#DejaVuSans-32" x="345.1875"/>
     </g>
    </g>
   </g>
   <g id="text_5">
    <g clip-path="url(#p7f6e9c5d16)">
     <!-- LEU 112 -->
     <g transform="translate(2613.492645 1532.571108) scale(0.08 -0.08)">
      <use xlink:href="#DejaVuSans-4c"/>
      <use xlink:href="#DejaVuSans-45" x="55.712891"/>
      <use xlink:href="#DejaVuSans-55" x="118.896484"/>
      <use xlink:href="#DejaVuSans-20" x="192.089844"/>
      <use xlink:href="#DejaVuSans-31" x="223.876953"/>
      <use xlink:href="#DejaVuSans-31" x="287.5"/>
      <use xlink:href="#DejaVuSans-32" x="351.123047"/>
     </g>
    </g>
   </g>
   <g id="text_6">
    <g clip-path="url(#p7f6e9c5d16)">
     <!-- ILE 116 -->
     <g transform="translate(1751.165158 1208.326472) scale(0.08 -0.08)">
      <defs>
       <path id="DejaVuSans-49" d="M 628 4666 
L 1259 4666 
L 1259 0 
L 628 0 
L 628 4666 
z
" transform="scale(0.015625)"/>
       <path id="DejaVuSans-36" d="M 2113 2584 
Q 1688 2584 1439 2293 
Q 1191 2003 1191 1497 
Q 1191 994 1439 701 
Q 1688 409 2113 409 
Q 2538 409 2786 701 
Q 3034 994 3034 1497 
Q 3034 2003 2786 2293 
Q 2538 2584 2113 2584 
z
M 3366 4563 
L 3366 3988 
Q 3128 4100 2886 4159 
Q 2644 4219 2406 4219 
Q 1781 4219 1451 3797 
Q 1122 3375 1075 2522 
Q 1259 2794 1537 2939 
Q 1816 3084 2150 3084 
Q 2853 3084 3261 2657 
Q 3669 2231 3669 1497 
Q 3669 778 3244 343 
Q 2819 -91 2113 -91 
Q 1303 -91 875 529 
Q 447 1150 447 2328 
Q 447 3434 972 4092 
Q 1497 4750 2381 4750 
Q 2619 4750 2861 4703 
Q 3103 4656 3366 4563 
z
" transform="scale(0.015625)"/>
      </defs>
      <use xlink:href="#DejaVuSans-49"/>
      <use xlink:href="#DejaVuSans-4c" x="29.492188"/>
      <use xlink:href="#DejaVuSans-45" x="85.205078"/>
      <use xlink:href="#DejaVuSans-20" x="148.388672"/>
      <use xlink:href="#DejaVuSans-31" x="180.175781"/>
      <use xlink:href="#DejaVuSans-31" x="243.798828"/>
      <use xlink:href="#DejaVuSans-36" x="307.421875"/>
     </g>
    </g>
   </g>
   <g id="text_7">
    <g clip-path="url(#p7f6e9c5d16)">
     <!-- VAL 46 -->
     <g transform="translate(1431.10046 977.955444) scale(0.08 -0.08)">
      <defs>
       <path id="DejaVuSans-34" d="M 2419 4116 
L 825 1625 
L 2419 1625 
L 2419 4116 
z
M 2253 4666 
L 3047 4666 
L 3047 1625 
L 3713 1625 
L 3713 1100 
L 3047 1100 
L 3047 0 
L 2419 0 
L 2419 1100 
L 313 1100 
L 313 1709 
L 2253 4666 
z
" transform="scale(0.015625)"/>
      </defs>
      <use xlink:href="#DejaVuSans-56"/>
      <use xlink:href="#DejaVuSans-41" x="62.033203"/>
      <use xlink:href="#DejaVuSans-4c" x="130.441406"/>
      <use xlink:href="#DejaVuSans-20" x="186.154297"/>
      <use xlink:href="#DejaVuSans-34" x="217.941406"/>
      <use xlink:href="#DejaVuSans-36" x="281.564453"/>
     </g>
    </g>
   </g>
   <g id="text_8">
    <g clip-path="url(#p7f6e9c5d16)">
     <!-- LEU 51 -->
     <g transform="translate(1424.160888 1100.662641) scale(0.08 -0.08)">
      <use xlink:href="#DejaVuSans-4c"/>
      <use xlink:href="#DejaVuSans-45" x="55.712891"/>
      <use xlink:href="#DejaVuSans-55" x="118.896484"/>
      <use xlink:href="#DejaVuSans-20" x="192.089844"/>
      <use xlink:href="#DejaVuSans-35" x="223.876953"/>
      <use xlink:href="#DejaVuSans-31" x="287.5"/>
     </g>
    </g>
   </g>
   <g id="text_9">
    <g clip-path="url(#p7f6e9c5d16)">
     <!-- LEU 121 -->
     <g transform="translate(1602.310338 1126.575718) scale(0.08 -0.08)">
      <use xlink:href="#DejaVuSans-4c"/>
      <use xlink:href="#DejaVuSans-45" x="55.712891"/>
      <use xlink:href="#DejaVuSans-55" x="118.896484"/>
      <use xlink:href="#DejaVuSans-20" x="192.089844"/>
      <use xlink:href="#DejaVuSans-31" x="223.876953"/>
      <use xlink:href="#DejaVuSans-32" x="287.5"/>
      <use xlink:href="#DejaVuSans-31" x="351.123047"/>
     </g>
    </g>
   </g>
   <g id="text_10">
    <g clip-path="url(#p7f6e9c5d16)">
     <!-- ILE 71 -->
     <g transform="translate(778.992034 933.421118) scale(0.08 -0.08)">
      <use xlink:href="#DejaVuSans-49"/>
      <use xlink:href="#DejaVuSans-4c" x="29.492188"/>
      <use xlink:href="#DejaVuSans-45" x="85.205078"/>
      <use xlink:href="#DejaVuSans-20" x="148.388672"/>
      <use xlink:href="#DejaVuSans-37" x="180.175781"/>
      <use xlink:href="#DejaVuSans-31" x="243.798828"/>
     </g>
    </g>
   </g>
   <g id="text_11">
    <g clip-path="url(#p7f6e9c5d16)">
     <!-- ILE 9 -->
     <g transform="translate(1291.372491 845.936234) scale(0.08 -0.08)">
      <use xlink:href="#DejaVuSans-49"/>
      <use xlink:href="#DejaVuSans-4c" x="29.492188"/>
      <use xlink:href="#DejaVuSans-45" x="85.205078"/>
      <use xlink:href="#DejaVuSans-20" x="148.388672"/>
      <use xlink:href="#DejaVuSans-39" x="180.175781"/>
     </g>
    </g>
   </g>
   <g id="text_12">
    <g clip-path="url(#p7f6e9c5d16)">
     <!-- LEU 12 -->
     <g transform="translate(1178.061479 1017.268304) scale(0.08 -0.08)">
      <use xlink:href="#DejaVuSans-4c"/>
      <use xlink:href="#DejaVuSans-45" x="55.712891"/>
      <use xlink:href="#DejaVuSans-55" x="118.896484"/>
      <use xlink:href="#DejaVuSans-20" x="192.089844"/>
      <use xlink:href="#DejaVuSans-31" x="223.876953"/>
      <use xlink:href="#DejaVuSans-32" x="287.5"/>
     </g>
    </g>
   </g>
   <g id="text_13">
    <g clip-path="url(#p7f6e9c5d16)">
     <!-- ILE 45 -->
     <g transform="translate(937.686364 1226.83944) scale(0.08 -0.08)">
      <use xlink:href="#DejaVuSans-49"/>
      <use xlink:href="#DejaVuSans-4c" x="29.492188"/>
      <use xlink:href="#DejaVuSans-45" x="85.205078"/>
      <use xlink:href="#DejaVuSans-20" x="148.388672"/>
      <use xlink:href="#DejaVuSans-34" x="180.175781"/>
      <use xlink:href="#DejaVuSans-35" x="243.798828"/>
     </g>
    </g>
   </g>
   <g id="text_14">
    <g clip-path="url(#p7f6e9c5d16)">
     <!-- LEU 41 -->
     <g transform="translate(802.082333 1480.984799) scale(0.08 -0.08)">
      <use xlink:href="#DejaVuSans-4c"/>
      <use xlink:href="#DejaVuSans-45" x="55.712891"/>
      <use xlink:href="#DejaVuSans-55" x="118.896484"/>
      <use xlink:href="#DejaVuSans-20" x="192.089844"/>
      <use xlink:href="#DejaVuSans-34" x="223.876953"/>
      <use xlink:href="#DejaVuSans-31" x="287.5"/>
     </g>
    </g>
   </g>
   <g id="text_15">
    <g clip-path="url(#p7f6e9c5d16)">
     <!-- VAL 43 -->
     <g transform="translate(713.882486 1456.341581) scale(0.08 -0.08)">
      <defs>
       <path id="DejaVuSans-33" d="M 2597 2516 
Q 3050 2419 3304 2112 
Q 3559 1806 3559 1356 
Q 3559 666 3084 287 
Q 2609 -91 1734 -91 
Q 1441 -91 1130 -33 
Q 819 25 488 141 
L 488 750 
Q 750 597 1062 519 
Q 1375 441 1716 441 
Q 2309 441 2620 675 
Q 2931 909 2931 1356 
Q 2931 1769 2642 2001 
Q 2353 2234 1838 2234 
L 1294 2234 
L 1294 2753 
L 1863 2753 
Q 2328 2753 2575 2939 
Q 2822 3125 2822 3475 
Q 2822 3834 2567 4026 
Q 2313 4219 1838 4219 
Q 1578 4219 1281 4162 
Q 984 4106 628 3988 
L 628 4550 
Q 988 4650 1302 4700 
Q 1616 4750 1894 4750 
Q 2613 4750 3031 4423 
Q 3450 4097 3450 3541 
Q 3450 3153 3228 2886 
Q 3006 2619 2597 2516 
z
" transform="scale(0.015625)"/>
      </defs>
      <use xlink:href="#DejaVuSans-56"/>
      <use xlink:href="#DejaVuSans-41" x="62.033203"/>
      <use xlink:href="#DejaVuSans-4c" x="130.441406"/>
      <use xlink:href="#DejaVuSans-20" x="186.154297"/>
      <use xlink:href="#DejaVuSans-34" x="217.941406"/>
      <use xlink:href="#DejaVuSans-33" x="281.564453"/>
     </g>
    </g>
   </g>
   <g id="text_16">
    <g clip-path="url(#p7f6e9c5d16)">
     <!-- LEU 140 -->
     <g transform="translate(233.327355 252.124855) scale(0.08 -0.08)">
      <use xlink:href="#DejaVuSans-4c"/>
      <use xlink:href="#DejaVuSans-45" x="55.712891"/>
      <use xlink:href="#DejaVuSans-55" x="118.896484"/>
      <use xlink:href="#DejaVuSans-20" x="192.089844"/>
      <use xlink:href="#DejaVuSans-31" x="223.876953"/>
      <use xlink:href="#DejaVuSans-34" x="287.5"/>
      <use xlink:href="#DejaVuSans-30" x="351.123047"/>
     </g>
    </g>
   </g>
   <g id="text_17">
    <g clip-path="url(#p7f6e9c5d16)">
     <!-- VAL 124 -->
     <g transform="translate(910.860519 1943.114645) scale(0.08 -0.08)">
      <use xlink:href="#DejaVuSans-56"/>
      <use xlink:href="#DejaVuSans-41" x="62.033203"/>
      <use xlink:href="#DejaVuSans-4c" x="130.441406"/>
      <use xlink:href="#DejaVuSans-20" x="186.154297"/>
      <use xlink:href="#DejaVuSans-31" x="217.941406"/>
      <use xlink:href="#DejaVuSans-32" x="281.564453"/>
      <use xlink:href="#DejaVuSans-34" x="345.1875"/>
     </g>
    </g>
   </g>
   <g id="text_18">
    <g clip-path="url(#p7f6e9c5d16)">
     <!-- LEU 129 -->
     <g transform="translate(337.252649 1615.752043) scale(0.08 -0.08)">
      <use xlink:href="#DejaVuSans-4c"/>
      <use xlink:href="#DejaVuSans-45" x="55.712891"/>
      <use xlink:href="#DejaVuSans-55" x="118.896484"/>
      <use xlink:href="#DejaVuSans-20" x="192.089844"/>
      <use xlink:href="#DejaVuSans-31" x="223.876953"/>
      <use xlink:href="#DejaVuSans-32" x="287.5"/>
      <use xlink:href="#DejaVuSans-39" x="351.123047"/>
     </g>
    </g>
   </g>
   <g id="text_19">
    <g clip-path="url(#p7f6e9c5d16)">
     <!-- LEU 138 -->
     <g transform="translate(1518.668224 2632.290145) scale(0.08 -0.08)">
      <defs>
       <path id="DejaVuSans-38" d="M 2034 2216 
Q 1584 2216 1326 1975 
Q 1069 1734 1069 1313 
Q 1069 891 1326 650 
Q 1584 409 2034 409 
Q 2484 409 2743 651 
Q 3003 894 3003 1313 
Q 3003 1734 2745 1975 
Q 2488 2216 2034 2216 
z
M 1403 2484 
Q 997 2584 770 2862 
Q 544 3141 544 3541 
Q 544 4100 942 4425 
Q 1341 4750 2034 4750 
Q 2731 4750 3128 4425 
Q 3525 4100 3525 3541 
Q 3525 3141 3298 2862 
Q 3072 2584 2669 2484 
Q 3125 2378 3379 2068 
Q 3634 1759 3634 1313 
Q 3634 634 3220 271 
Q 2806 -91 2034 -91 
Q 1263 -91 848 271 
Q 434 634 434 1313 
Q 434 1759 690 2068 
Q 947 2378 1403 2484 
z
M 1172 3481 
Q 1172 3119 1398 2916 
Q 1625 2713 2034 2713 
Q 2441 2713 2670 2916 
Q 2900 3119 2900 3481 
Q 2900 3844 2670 4047 
Q 2441 4250 2034 4250 
Q 1625 4250 1398 4047 
Q 1172 3844 1172 3481 
z
" transform="scale(0.015625)"/>
      </defs>
      <use xlink:href="#DejaVuSans-4c"/>
      <use xlink:href="#DejaVuSans-45" x="55.712891"/>
      <use xlink:href="#DejaVuSans-55" x="118.896484"/>
      <use xlink:href="#DejaVuSans-20" x="192.089844"/>
      <use xlink:href="#DejaVuSans-31" x="223.876953"/>
      <use xlink:href="#DejaVuSans-33" x="287.5"/>
      <use xlink:href="#DejaVuSans-38" x="351.123047"/>
     </g>
    </g>
   </g>
  </g>
  <g id="text_20">
   <!-- G_NMR -->
   <g transform="translate(1418.51625 66.50625) scale(0.12 -0.12)">
    <defs>
     <path id="DejaVuSans-47" d="M 3809 666 
L 3809 1919 
L 2778 1919 
L 2778 2438 
L 4434 2438 
L 4434 434 
Q 4069 175 3628 42 
Q 3188 -91 2688 -91 
Q 1594 -91 976 548 
Q 359 1188 359 2328 
Q 359 3472 976 4111 
Q 1594 4750 2688 4750 
Q 3144 4750 3555 4637 
Q 3966 4525 4313 4306 
L 4313 3634 
Q 3963 3931 3569 4081 
Q 3175 4231 2741 4231 
Q 1884 4231 1454 3753 
Q 1025 3275 1025 2328 
Q 1025 1384 1454 906 
Q 1884 428 2741 428 
Q 3075 428 3337 486 
Q 3600 544 3809 666 
z
" transform="scale(0.015625)"/>
     <path id="DejaVuSans-5f" d="M 3263 -1063 
L 3263 -1509 
L -63 -1509 
L -63 -1063 
L 3263 -1063 
z
" transform="scale(0.015625)"/>
     <path id="DejaVuSans-4e" d="M 628 4666 
L 1478 4666 
L 3547 763 
L 3547 4666 
L 4159 4666 
L 4159 0 
L 3309 0 
L 1241 3903 
L 1241 0 
L 628 0 
L 628 4666 
z
" transform="scale(0.015625)"/>
     <path id="DejaVuSans-4d" d="M 628 4666 
L 1569 4666 
L 2759 1491 
L 3956 4666 
L 4897 4666 
L 4897 0 
L 4281 0 
L 4281 4097 
L 3078 897 
L 2444 897 
L 1241 4097 
L 1241 0 
L 628 0 
L 628 4666 
z
" transform="scale(0.015625)"/>
     <path id="DejaVuSans-52" d="M 2841 2188 
Q 3044 2119 3236 1894 
Q 3428 1669 3622 1275 
L 4263 0 
L 3584 0 
L 2988 1197 
Q 2756 1666 2539 1819 
Q 2322 1972 1947 1972 
L 1259 1972 
L 1259 0 
L 628 0 
L 628 4666 
L 2053 4666 
Q 2853 4666 3247 4331 
Q 3641 3997 3641 3322 
Q 3641 2881 3436 2590 
Q 3231 2300 2841 2188 
z
M 1259 4147 
L 1259 2491 
L 2053 2491 
Q 2509 2491 2742 2702 
Q 2975 2913 2975 3322 
Q 2975 3731 2742 3939 
Q 2509 4147 2053 4147 
L 1259 4147 
z
" transform="scale(0.015625)"/>
    </defs>
    <use xlink:href="#DejaVuSans-47"/>
    <use xlink:href="#DejaVuSans-5f" x="77.490234"/>
    <use xlink:href="#DejaVuSans-4e" x="127.490234"/>
    <use xlink:href="#DejaVuSans-4d" x="202.294922"/>
    <use xlink:href="#DejaVuSans-52" x="288.574219"/>
   </g>
  </g>
 </g>
 <defs>
  <clipPath id="p7f6e9c5d16">
   <rect x="0" y="0" width="2880" height="2880"/>
  </clipPath>
 </defs>
</svg>
