<?xml version="1.0" encoding="utf-8" standalone="no"?>
<!DOCTYPE svg PUBLIC "-//W3C//DTD SVG 1.1//EN"
  "http://www.w3.org/Graphics/SVG/1.1/DTD/svg11.dtd">
<svg xmlns:xlink="http://www.w3.org/1999/xlink" width="2880pt" height="2880pt" viewBox="0 0 2880 2880" xmlns="http://www.w3.org/2000/svg" version="1.1">
 <metadata>
  <rdf:RDF xmlns:dc="http://purl.org/dc/elements/1.1/" xmlns:cc="http://creativecommons.org/ns#" xmlns:rdf="http://www.w3.org/1999/02/22-rdf-syntax-ns#">
   <cc:Work>
    <dc:type rdf:resource="http://purl.org/dc/dcmitype/StillImage"/>
    <dc:date>2024-02-24T15:22:53.017879</dc:date>
    <dc:format>image/svg+xml</dc:format>
    <dc:creator>
     <cc:Agent>
      <dc:title>Matplotlib v3.8.2, https://matplotlib.org/</dc:title>
     </cc:Agent>
    </dc:creator>
   </cc:Work>
  </rdf:RDF>
 </metadata>
 <defs>
  <style type="text/css">*{stroke-linejoin: round; stroke-linecap: butt}</style>
 </defs>
 <g id="figure_1">
  <g id="patch_1">
   <path d="M 0 2880 
L 2880 2880 
L 2880 0 
L 0 0 
z
" style="fill: #ffffff"/>
  </g>
  <g id="axes_1">
   <g id="patch_2">
    <path d="M 592.866049 936.037757 
Q 727.198009 811.234252 861.366153 686.582945 
" clip-path="url(#p5157ab79dc)" style="fill: none; stroke: #000000; stroke-width: 0.2; stroke-linecap: round"/>
    <path d="M 857.074412 687.840306 
L 861.366153 686.582945 
L 859.796997 690.770754 
z
" clip-path="url(#p5157ab79dc)" style="stroke: #000000; stroke-width: 0.2; stroke-linecap: round"/>
   </g>
   <g id="patch_3">
    <path d="M 595.448829 939.967445 
Q 965.402519 777.150224 1335.151546 614.423076 
" clip-path="url(#p5157ab79dc)" style="fill: none; stroke: #000000; stroke-width: 0.2; stroke-linecap: round"/>
    <path d="M 1330.68479 614.203781 
L 1335.151546 614.423076 
L 1332.296056 617.864904 
z
" clip-path="url(#p5157ab79dc)" style="stroke: #000000; stroke-width: 0.2; stroke-linecap: round"/>
   </g>
   <g id="patch_4">
    <path d="M 578.08441 959.097115 
Q 466.700455 1297.588008 355.386393 1635.866499 
" clip-path="url(#p5157ab79dc)" style="fill: none; stroke: #000000; stroke-width: 0.2; stroke-linecap: round"/>
    <path d="M 358.536471 1632.692068 
L 355.386393 1635.866499 
L 354.736895 1631.441778 
z
" clip-path="url(#p5157ab79dc)" style="stroke: #000000; stroke-width: 0.2; stroke-linecap: round"/>
   </g>
   <g id="patch_5">
    <path d="M 591.238041 934.539126 
Q 774.118318 701.576174 956.860521 468.789108 
" clip-path="url(#p5157ab79dc)" style="fill: none; stroke: #000000; stroke-width: 0.2; stroke-linecap: round"/>
    <path d="M 952.81742 470.700478 
L 956.860521 468.789108 
L 955.963756 473.170411 
z
" clip-path="url(#p5157ab79dc)" style="stroke: #000000; stroke-width: 0.2; stroke-linecap: round"/>
   </g>
   <g id="patch_6">
    <path d="M 584.476183 931.657063 
Q 622.593858 660.842538 660.680367 390.249437 
" clip-path="url(#p5157ab79dc)" style="fill: none; stroke: #000000; stroke-width: 0.2; stroke-linecap: round"/>
    <path d="M 658.142376 393.931638 
L 660.680367 390.249437 
L 662.103333 394.48915 
z
" clip-path="url(#p5157ab79dc)" style="stroke: #000000; stroke-width: 0.2; stroke-linecap: round"/>
   </g>
   <g id="patch_7">
    <path d="M 576.289472 958.364019 
Q 468.951614 1177.693409 361.712049 1396.821953 
" clip-path="url(#p5157ab79dc)" style="fill: none; stroke: #000000; stroke-width: 0.2; stroke-linecap: round"/>
    <path d="M 365.266758 1394.108276 
L 361.712049 1396.821953 
L 361.673933 1392.34998 
z
" clip-path="url(#p5157ab79dc)" style="stroke: #000000; stroke-width: 0.2; stroke-linecap: round"/>
   </g>
   <g id="patch_8">
    <path d="M 884.50917 670.42415 
Q 1199.59251 511.097032 1514.476304 351.870818 
" clip-path="url(#p5157ab79dc)" style="fill: none; stroke: #000000; stroke-width: 0.2; stroke-linecap: round"/>
    <path d="M 1510.004214 351.891045 
L 1514.476304 351.870818 
L 1511.809232 355.460626 
z
" clip-path="url(#p5157ab79dc)" style="stroke: #000000; stroke-width: 0.2; stroke-linecap: round"/>
   </g>
   <g id="patch_9">
    <path d="M 885.888069 674.802002 
Q 1110.092801 642.721024 1334.076182 610.671719 
" clip-path="url(#p5157ab79dc)" style="fill: none; stroke: #000000; stroke-width: 0.2; stroke-linecap: round"/>
    <path d="M 1329.833221 609.258464 
L 1334.076182 610.671719 
L 1330.399802 613.218134 
z
" clip-path="url(#p5157ab79dc)" style="stroke: #000000; stroke-width: 0.2; stroke-linecap: round"/>
   </g>
   <g id="patch_10">
    <path d="M 858.58381 681.583415 
Q 617.415654 768.187541 376.457946 854.716094 
" clip-path="url(#p5157ab79dc)" style="fill: none; stroke: #000000; stroke-width: 0.2; stroke-linecap: round"/>
    <path d="M 380.898515 855.24652 
L 376.457946 854.716094 
L 379.546628 851.481895 
z
" clip-path="url(#p5157ab79dc)" style="stroke: #000000; stroke-width: 0.2; stroke-linecap: round"/>
   </g>
   <g id="patch_11">
    <path d="M 861.529392 686.431284 
Q 727.197432 811.234789 593.029288 935.886097 
" clip-path="url(#p5157ab79dc)" style="fill: none; stroke: #000000; stroke-width: 0.2; stroke-linecap: round"/>
    <path d="M 597.321029 934.628736 
L 593.029288 935.886097 
L 594.598444 931.698287 
z
" clip-path="url(#p5157ab79dc)" style="stroke: #000000; stroke-width: 0.2; stroke-linecap: round"/>
   </g>
   <g id="patch_12">
    <path d="M 1334.302578 610.639324 
Q 1110.097845 642.720302 886.114465 674.769607 
" clip-path="url(#p5157ab79dc)" style="fill: none; stroke: #000000; stroke-width: 0.2; stroke-linecap: round"/>
    <path d="M 890.357425 676.182862 
L 886.114465 674.769607 
L 889.790844 672.223192 
z
" clip-path="url(#p5157ab79dc)" style="stroke: #000000; stroke-width: 0.2; stroke-linecap: round"/>
   </g>
   <g id="patch_13">
    <path d="M 1356.250589 596.943427 
Q 1437.797278 477.0136 1519.218236 357.268682 
" clip-path="url(#p5157ab79dc)" style="fill: none; stroke: #000000; stroke-width: 0.2; stroke-linecap: round"/>
    <path d="M 1515.315213 359.451893 
L 1519.218236 357.268682 
L 1518.622991 361.701027 
z
" clip-path="url(#p5157ab79dc)" style="stroke: #000000; stroke-width: 0.2; stroke-linecap: round"/>
   </g>
   <g id="patch_14">
    <path d="M 1361.919874 604.824791 
Q 1989.191048 429.276976 2616.246888 253.789424 
" clip-path="url(#p5157ab79dc)" style="fill: none; stroke: #000000; stroke-width: 0.2; stroke-linecap: round"/>
    <path d="M 2611.855883 252.941443 
L 2616.246888 253.789424 
L 2612.9339 256.79344 
z
" clip-path="url(#p5157ab79dc)" style="stroke: #000000; stroke-width: 0.2; stroke-linecap: round"/>
   </g>
   <g id="patch_15">
    <path d="M 1334.598857 612.125609 
Q 855.621319 734.103071 376.860472 856.02535 
" clip-path="url(#p5157ab79dc)" style="fill: none; stroke: #000000; stroke-width: 0.2; stroke-linecap: round"/>
    <path d="M 381.230323 856.976348 
L 376.860472 856.02535 
L 380.243181 853.100068 
z
" clip-path="url(#p5157ab79dc)" style="stroke: #000000; stroke-width: 0.2; stroke-linecap: round"/>
   </g>
   <g id="patch_16">
    <path d="M 1335.355678 614.333237 
Q 965.401989 777.150458 595.652962 939.877606 
" clip-path="url(#p5157ab79dc)" style="fill: none; stroke: #000000; stroke-width: 0.2; stroke-linecap: round"/>
    <path d="M 600.119718 940.096901 
L 595.652962 939.877606 
L 598.508451 936.435778 
z
" clip-path="url(#p5157ab79dc)" style="stroke: #000000; stroke-width: 0.2; stroke-linecap: round"/>
   </g>
   <g id="patch_17">
    <path d="M 1335.145033 603.439102 
Q 1157.015711 533.061419 979.094353 462.765901 
" clip-path="url(#p5157ab79dc)" style="fill: none; stroke: #000000; stroke-width: 0.2; stroke-linecap: round"/>
    <path d="M 982.079615 466.095798 
L 979.094353 462.765901 
L 983.549428 462.37563 
z
" clip-path="url(#p5157ab79dc)" style="stroke: #000000; stroke-width: 0.2; stroke-linecap: round"/>
   </g>
   <g id="patch_18">
    <path d="M 355.315927 1636.080641 
Q 466.699882 1297.589748 578.013944 959.311257 
" clip-path="url(#p5157ab79dc)" style="fill: none; stroke: #000000; stroke-width: 0.2; stroke-linecap: round"/>
    <path d="M 574.863866 962.485687 
L 578.013944 959.311257 
L 578.663442 963.735977 
z
" clip-path="url(#p5157ab79dc)" style="stroke: #000000; stroke-width: 0.2; stroke-linecap: round"/>
   </g>
   <g id="patch_19">
    <path d="M 347.723935 1663.298711 
Q 300.405958 1868.953424 253.138119 2074.390223 
" clip-path="url(#p5157ab79dc)" style="fill: none; stroke: #000000; stroke-width: 0.2; stroke-linecap: round"/>
    <path d="M 255.984097 2070.940526 
L 253.138119 2074.390223 
L 252.085948 2070.043622 
z
" clip-path="url(#p5157ab79dc)" style="stroke: #000000; stroke-width: 0.2; stroke-linecap: round"/>
   </g>
   <g id="patch_20">
    <path d="M 351.161139 1635.372052 
Q 353.146235 1529.61955 355.127134 1424.090616 
" clip-path="url(#p5157ab79dc)" style="fill: none; stroke: #000000; stroke-width: 0.2; stroke-linecap: round"/>
    <path d="M 353.052415 1428.052376 
L 355.127134 1424.090616 
L 357.05171 1428.127447 
z
" clip-path="url(#p5157ab79dc)" style="stroke: #000000; stroke-width: 0.2; stroke-linecap: round"/>
   </g>
   <g id="patch_21">
    <path d="M 362.345622 1657.812407 
Q 628.557999 1850.761649 894.589324 2043.579666 
" clip-path="url(#p5157ab79dc)" style="fill: none; stroke: #000000; stroke-width: 0.2; stroke-linecap: round"/>
    <path d="M 892.524283 2039.612853 
L 894.589324 2043.579666 
L 890.176849 2042.851611 
z
" clip-path="url(#p5157ab79dc)" style="stroke: #000000; stroke-width: 0.2; stroke-linecap: round"/>
   </g>
   <g id="patch_22">
    <path d="M 979.601531 454.718474 
Q 1246.514658 401.437505 1513.208504 348.200308 
" clip-path="url(#p5157ab79dc)" style="fill: none; stroke: #000000; stroke-width: 0.2; stroke-linecap: round"/>
    <path d="M 1508.89438 347.022031 
L 1513.208504 348.200308 
L 1509.677408 350.944641 
z
" clip-path="url(#p5157ab79dc)" style="stroke: #000000; stroke-width: 0.2; stroke-linecap: round"/>
   </g>
   <g id="patch_23">
    <path d="M 978.887785 462.684287 
Q 1157.017106 533.06197 1334.938464 603.357488 
" clip-path="url(#p5157ab79dc)" style="fill: none; stroke: #000000; stroke-width: 0.2; stroke-linecap: round"/>
    <path d="M 1331.953203 600.027591 
L 1334.938464 603.357488 
L 1330.48339 603.747759 
z
" clip-path="url(#p5157ab79dc)" style="stroke: #000000; stroke-width: 0.2; stroke-linecap: round"/>
   </g>
   <g id="patch_24">
    <path d="M 956.999571 468.611979 
Q 774.119294 701.57493 591.377091 934.361996 
" clip-path="url(#p5157ab79dc)" style="fill: none; stroke: #000000; stroke-width: 0.2; stroke-linecap: round"/>
    <path d="M 595.420192 932.450626 
L 591.377091 934.361996 
L 592.273856 929.980694 
z
" clip-path="url(#p5157ab79dc)" style="stroke: #000000; stroke-width: 0.2; stroke-linecap: round"/>
   </g>
   <g id="patch_25">
    <path d="M 952.077741 453.81635 
Q 814.209101 416.756933 676.556403 379.755562 
" clip-path="url(#p5157ab79dc)" style="fill: none; stroke: #000000; stroke-width: 0.2; stroke-linecap: round"/>
    <path d="M 679.900106 382.725352 
L 676.556403 379.755562 
L 680.938457 378.862474 
z
" clip-path="url(#p5157ab79dc)" style="stroke: #000000; stroke-width: 0.2; stroke-linecap: round"/>
   </g>
   <g id="patch_26">
    <path d="M 676.815283 375.525366 
Q 1094.98812 360.707171 1512.93749 345.896895 
" clip-path="url(#p5157ab79dc)" style="fill: none; stroke: #000000; stroke-width: 0.2; stroke-linecap: round"/>
    <path d="M 1508.869172 344.039803 
L 1512.93749 345.896895 
L 1509.010825 348.037294 
z
" clip-path="url(#p5157ab79dc)" style="stroke: #000000; stroke-width: 0.2; stroke-linecap: round"/>
   </g>
   <g id="patch_27">
    <path d="M 660.710787 390.033312 
Q 622.593112 660.847837 584.506603 931.440937 
" clip-path="url(#p5157ab79dc)" style="fill: none; stroke: #000000; stroke-width: 0.2; stroke-linecap: round"/>
    <path d="M 587.044594 927.758737 
L 584.506603 931.440937 
L 583.083637 927.201224 
z
" clip-path="url(#p5157ab79dc)" style="stroke: #000000; stroke-width: 0.2; stroke-linecap: round"/>
   </g>
   <g id="patch_28">
    <path d="M 676.33754 379.696731 
Q 814.206179 416.756148 951.858877 453.757519 
" clip-path="url(#p5157ab79dc)" style="fill: none; stroke: #000000; stroke-width: 0.2; stroke-linecap: round"/>
    <path d="M 948.515174 450.787729 
L 951.858877 453.757519 
L 947.476824 454.650607 
z
" clip-path="url(#p5157ab79dc)" style="stroke: #000000; stroke-width: 0.2; stroke-linecap: round"/>
   </g>
   <g id="patch_29">
    <path d="M 355.590669 1395.585418 
Q 359.168682 1134.646474 362.743629 873.931117 
" clip-path="url(#p5157ab79dc)" style="fill: none; stroke: #000000; stroke-width: 0.2; stroke-linecap: round"/>
    <path d="M 360.688974 877.903319 
L 362.743629 873.931117 
L 364.688598 877.958162 
z
" clip-path="url(#p5157ab79dc)" style="stroke: #000000; stroke-width: 0.2; stroke-linecap: round"/>
   </g>
   <g id="patch_30">
    <path d="M 355.131316 1423.867821 
Q 353.14622 1529.620323 351.165321 1635.149257 
" clip-path="url(#p5157ab79dc)" style="fill: none; stroke: #000000; stroke-width: 0.2; stroke-linecap: round"/>
    <path d="M 353.24004 1631.187498 
L 351.165321 1635.149257 
L 349.240744 1631.112426 
z
" clip-path="url(#p5157ab79dc)" style="stroke: #000000; stroke-width: 0.2; stroke-linecap: round"/>
   </g>
   <g id="patch_31">
    <path d="M 361.611948 1397.026496 
Q 468.949805 1177.697106 576.18937 958.568562 
" clip-path="url(#p5157ab79dc)" style="fill: none; stroke: #000000; stroke-width: 0.2; stroke-linecap: round"/>
    <path d="M 572.634661 961.282239 
L 576.18937 958.568562 
L 576.227486 963.040535 
z
" clip-path="url(#p5157ab79dc)" style="stroke: #000000; stroke-width: 0.2; stroke-linecap: round"/>
   </g>
   <g id="patch_32">
    <path d="M 364.602243 1420.460283 
Q 630.809235 1730.868742 896.870661 2041.107464 
" clip-path="url(#p5157ab79dc)" style="fill: none; stroke: #000000; stroke-width: 0.2; stroke-linecap: round"/>
    <path d="M 895.78486 2036.769143 
L 896.870661 2041.107464 
L 892.748523 2039.373112 
z
" clip-path="url(#p5157ab79dc)" style="stroke: #000000; stroke-width: 0.2; stroke-linecap: round"/>
   </g>
   <g id="patch_33">
    <path d="M 1514.678115 351.768769 
Q 1199.594775 511.095886 884.710981 670.322101 
" clip-path="url(#p5157ab79dc)" style="fill: none; stroke: #000000; stroke-width: 0.2; stroke-linecap: round"/>
    <path d="M 889.183071 670.301873 
L 884.710981 670.322101 
L 887.378053 666.732292 
z
" clip-path="url(#p5157ab79dc)" style="stroke: #000000; stroke-width: 0.2; stroke-linecap: round"/>
   </g>
   <g id="patch_34">
    <path d="M 1541.385052 344.168397 
Q 2078.688196 297.652834 2615.768567 251.156558 
" clip-path="url(#p5157ab79dc)" style="fill: none; stroke: #000000; stroke-width: 0.2; stroke-linecap: round"/>
    <path d="M 2611.610973 249.509009 
L 2615.768567 251.156558 
L 2611.955972 253.494104 
z
" clip-path="url(#p5157ab79dc)" style="stroke: #000000; stroke-width: 0.2; stroke-linecap: round"/>
   </g>
   <g id="patch_35">
    <path d="M 1519.345762 357.081131 
Q 1437.799073 477.010959 1356.378115 596.755876 
" clip-path="url(#p5157ab79dc)" style="fill: none; stroke: #000000; stroke-width: 0.2; stroke-linecap: round"/>
    <path d="M 1360.281138 594.572666 
L 1356.378115 596.755876 
L 1356.97336 592.323531 
z
" clip-path="url(#p5157ab79dc)" style="stroke: #000000; stroke-width: 0.2; stroke-linecap: round"/>
   </g>
   <g id="patch_36">
    <path d="M 1513.427925 348.156507 
Q 1246.514798 401.437477 979.820952 454.674673 
" clip-path="url(#p5157ab79dc)" style="fill: none; stroke: #000000; stroke-width: 0.2; stroke-linecap: round"/>
    <path d="M 984.135076 455.85295 
L 979.820952 454.674673 
L 983.352048 451.93034 
z
" clip-path="url(#p5157ab79dc)" style="stroke: #000000; stroke-width: 0.2; stroke-linecap: round"/>
   </g>
   <g id="patch_37">
    <path d="M 1513.163531 345.888885 
Q 1094.990694 360.70708 677.041324 375.517356 
" clip-path="url(#p5157ab79dc)" style="fill: none; stroke: #000000; stroke-width: 0.2; stroke-linecap: round"/>
    <path d="M 681.109642 377.374448 
L 677.041324 375.517356 
L 680.967988 373.376957 
z
" clip-path="url(#p5157ab79dc)" style="stroke: #000000; stroke-width: 0.2; stroke-linecap: round"/>
   </g>
   <g id="patch_38">
    <path d="M 376.247526 854.791657 
Q 617.415683 768.18753 858.37339 681.658977 
" clip-path="url(#p5157ab79dc)" style="fill: none; stroke: #000000; stroke-width: 0.2; stroke-linecap: round"/>
    <path d="M 853.932822 681.128551 
L 858.37339 681.658977 
L 855.284709 684.893176 
z
" clip-path="url(#p5157ab79dc)" style="stroke: #000000; stroke-width: 0.2; stroke-linecap: round"/>
   </g>
   <g id="patch_39">
    <path d="M 376.641545 856.081102 
Q 855.619083 734.103641 1334.379931 612.181362 
" clip-path="url(#p5157ab79dc)" style="fill: none; stroke: #000000; stroke-width: 0.2; stroke-linecap: round"/>
    <path d="M 1330.010079 611.230363 
L 1334.379931 612.181362 
L 1330.997221 615.106644 
z
" clip-path="url(#p5157ab79dc)" style="stroke: #000000; stroke-width: 0.2; stroke-linecap: round"/>
   </g>
   <g id="patch_40">
    <path d="M 362.746645 873.711127 
Q 359.168633 1134.65007 355.593686 1395.365428 
" clip-path="url(#p5157ab79dc)" style="fill: none; stroke: #000000; stroke-width: 0.2; stroke-linecap: round"/>
    <path d="M 357.648341 1391.393225 
L 355.593686 1395.365428 
L 353.648717 1391.338382 
z
" clip-path="url(#p5157ab79dc)" style="stroke: #000000; stroke-width: 0.2; stroke-linecap: round"/>
   </g>
   <g id="patch_41">
    <path d="M 894.770815 2043.711209 
Q 628.558437 1850.761967 362.527112 1657.94395 
" clip-path="url(#p5157ab79dc)" style="fill: none; stroke: #000000; stroke-width: 0.2; stroke-linecap: round"/>
    <path d="M 364.592154 1661.910763 
L 362.527112 1657.94395 
L 366.939587 1658.672004 
z
" clip-path="url(#p5157ab79dc)" style="stroke: #000000; stroke-width: 0.2; stroke-linecap: round"/>
   </g>
   <g id="patch_42">
    <path d="M 892.09795 2052.792873 
Q 578.070209 2070.199163 264.265731 2087.593077 
" clip-path="url(#p5157ab79dc)" style="fill: none; stroke: #000000; stroke-width: 0.2; stroke-linecap: round"/>
    <path d="M 268.370289 2089.368635 
L 264.265731 2087.593077 
L 268.148912 2085.374765 
z
" clip-path="url(#p5157ab79dc)" style="stroke: #000000; stroke-width: 0.2; stroke-linecap: round"/>
   </g>
   <g id="patch_43">
    <path d="M 897.015276 2041.276091 
Q 630.808284 1730.867633 364.746858 1420.62891 
" clip-path="url(#p5157ab79dc)" style="fill: none; stroke: #000000; stroke-width: 0.2; stroke-linecap: round"/>
    <path d="M 365.832659 1424.967232 
L 364.746858 1420.62891 
L 368.868996 1422.363263 
z
" clip-path="url(#p5157ab79dc)" style="stroke: #000000; stroke-width: 0.2; stroke-linecap: round"/>
   </g>
   <g id="patch_44">
    <path d="M 918.429479 2059.1482 
Q 1400.575193 2341.046864 1882.527874 2622.832666 
" clip-path="url(#p5157ab79dc)" style="fill: none; stroke: #000000; stroke-width: 0.2; stroke-linecap: round"/>
    <path d="M 1880.084247 2619.087177 
L 1882.527874 2622.832666 
L 1878.065306 2622.540274 
z
" clip-path="url(#p5157ab79dc)" style="stroke: #000000; stroke-width: 0.2; stroke-linecap: round"/>
   </g>
   <g id="patch_45">
    <path d="M 253.089107 2074.603241 
Q 300.407084 1868.948528 347.674923 1663.511729 
" clip-path="url(#p5157ab79dc)" style="fill: none; stroke: #000000; stroke-width: 0.2; stroke-linecap: round"/>
    <path d="M 344.828945 1666.961426 
L 347.674923 1663.511729 
L 348.727093 1667.85833 
z
" clip-path="url(#p5157ab79dc)" style="stroke: #000000; stroke-width: 0.2; stroke-linecap: round"/>
   </g>
   <g id="patch_46">
    <path d="M 264.040156 2087.60558 
Q 578.067897 2070.199291 891.872375 2052.805377 
" clip-path="url(#p5157ab79dc)" style="fill: none; stroke: #000000; stroke-width: 0.2; stroke-linecap: round"/>
    <path d="M 887.767817 2051.029819 
L 891.872375 2052.805377 
L 887.989194 2055.023688 
z
" clip-path="url(#p5157ab79dc)" style="stroke: #000000; stroke-width: 0.2; stroke-linecap: round"/>
   </g>
   <g id="PathCollection_1">
    <defs>
     <path id="C0_0_00a6a886f5" d="M 0 14.142136 
C 3.750538 14.142136 7.347969 12.652031 10 10 
C 12.652031 7.347969 14.142136 3.750538 14.142136 -0 
C 14.142136 -3.750538 12.652031 -7.347969 10 -10 
C 7.347969 -12.652031 3.750538 -14.142136 0 -14.142136 
C -3.750538 -14.142136 -7.347969 -12.652031 -10 -10 
C -12.652031 -7.347969 -14.142136 -3.750538 -14.142136 0 
C -14.142136 3.750538 -12.652031 7.347969 -10 10 
C -7.347969 12.652031 -3.750538 14.142136 0 14.142136 
z
"/>
    </defs>
    <g clip-path="url(#p5157ab79dc)">
     <use xlink:href="#C0_0_00a6a886f5" x="582.504651" y="945.664199" style="fill: #0000ff; stroke: #0000ff"/>
    </g>
    <g clip-path="url(#p5157ab79dc)">
     <use xlink:href="#C0_0_00a6a886f5" x="871.89079" y="676.804843" style="fill: #ffa500; stroke: #ffa500"/>
    </g>
    <g clip-path="url(#p5157ab79dc)">
     <use xlink:href="#C0_0_00a6a886f5" x="1348.299856" y="608.636483" style="fill: #ffff00; stroke: #ffff00"/>
    </g>
    <g clip-path="url(#p5157ab79dc)">
     <use xlink:href="#C0_0_00a6a886f5" x="350.895686" y="1649.513557" style="fill: #ffa500; stroke: #ffa500"/>
    </g>
    <g clip-path="url(#p5157ab79dc)">
     <use xlink:href="#C0_0_00a6a886f5" x="965.732961" y="457.486906" style="fill: #ffa500; stroke: #ffa500"/>
    </g>
    <g clip-path="url(#p5157ab79dc)">
     <use xlink:href="#C0_0_00a6a886f5" x="662.682319" y="376.026176" style="fill: #ffff00; stroke: #ffff00"/>
    </g>
    <g clip-path="url(#p5157ab79dc)">
     <use xlink:href="#C0_0_00a6a886f5" x="355.396768" y="1409.726316" style="fill: #ffff00; stroke: #ffff00"/>
    </g>
    <g clip-path="url(#p5157ab79dc)">
     <use xlink:href="#C0_0_00a6a886f5" x="1527.296495" y="345.388076" style="fill: #0000ff; stroke: #0000ff"/>
    </g>
    <g clip-path="url(#p5157ab79dc)">
     <use xlink:href="#C0_0_00a6a886f5" x="2630.082645" y="249.917355" style="fill: #ffa500; stroke: #ffa500"/>
    </g>
    <g clip-path="url(#p5157ab79dc)">
     <use xlink:href="#C0_0_00a6a886f5" x="362.940546" y="859.570229" style="fill: #0000ff; stroke: #0000ff"/>
    </g>
    <g clip-path="url(#p5157ab79dc)">
     <use xlink:href="#C0_0_00a6a886f5" x="906.220751" y="2052.010059" style="fill: #ffa500; stroke: #ffa500"/>
    </g>
    <g clip-path="url(#p5157ab79dc)">
     <use xlink:href="#C0_0_00a6a886f5" x="249.917355" y="2088.388395" style="fill: #ffff00; stroke: #ffff00"/>
    </g>
    <g clip-path="url(#p5157ab79dc)">
     <use xlink:href="#C0_0_00a6a886f5" x="1894.927883" y="2630.082645" style="fill: #ffff00; stroke: #ffff00"/>
    </g>
   </g>
   <g id="text_1">
    <g clip-path="url(#p5157ab79dc)">
     <!-- VAL 26 -->
     <g transform="translate(568.697151 947.871699) scale(0.08 -0.08)">
      <defs>
       <path id="DejaVuSans-56" d="M 1831 0 
L 50 4666 
L 709 4666 
L 2188 738 
L 3669 4666 
L 4325 4666 
L 2547 0 
L 1831 0 
z
" transform="scale(0.015625)"/>
       <path id="DejaVuSans-41" d="M 2188 4044 
L 1331 1722 
L 3047 1722 
L 2188 4044 
z
M 1831 4666 
L 2547 4666 
L 4325 0 
L 3669 0 
L 3244 1197 
L 1141 1197 
L 716 0 
L 50 0 
L 1831 4666 
z
" transform="scale(0.015625)"/>
       <path id="DejaVuSans-4c" d="M 628 4666 
L 1259 4666 
L 1259 531 
L 3531 531 
L 3531 0 
L 628 0 
L 628 4666 
z
" transform="scale(0.015625)"/>
       <path id="DejaVuSans-20" transform="scale(0.015625)"/>
       <path id="DejaVuSans-32" d="M 1228 531 
L 3431 531 
L 3431 0 
L 469 0 
L 469 531 
Q 828 903 1448 1529 
Q 2069 2156 2228 2338 
Q 2531 2678 2651 2914 
Q 2772 3150 2772 3378 
Q 2772 3750 2511 3984 
Q 2250 4219 1831 4219 
Q 1534 4219 1204 4116 
Q 875 4013 500 3803 
L 500 4441 
Q 881 4594 1212 4672 
Q 1544 4750 1819 4750 
Q 2544 4750 2975 4387 
Q 3406 4025 3406 3419 
Q 3406 3131 3298 2873 
Q 3191 2616 2906 2266 
Q 2828 2175 2409 1742 
Q 1991 1309 1228 531 
z
" transform="scale(0.015625)"/>
       <path id="DejaVuSans-36" d="M 2113 2584 
Q 1688 2584 1439 2293 
Q 1191 2003 1191 1497 
Q 1191 994 1439 701 
Q 1688 409 2113 409 
Q 2538 409 2786 701 
Q 3034 994 3034 1497 
Q 3034 2003 2786 2293 
Q 2538 2584 2113 2584 
z
M 3366 4563 
L 3366 3988 
Q 3128 4100 2886 4159 
Q 2644 4219 2406 4219 
Q 1781 4219 1451 3797 
Q 1122 3375 1075 2522 
Q 1259 2794 1537 2939 
Q 1816 3084 2150 3084 
Q 2853 3084 3261 2657 
Q 3669 2231 3669 1497 
Q 3669 778 3244 343 
Q 2819 -91 2113 -91 
Q 1303 -91 875 529 
Q 447 1150 447 2328 
Q 447 3434 972 4092 
Q 1497 4750 2381 4750 
Q 2619 4750 2861 4703 
Q 3103 4656 3366 4563 
z
" transform="scale(0.015625)"/>
      </defs>
      <use xlink:href="#DejaVuSans-56"/>
      <use xlink:href="#DejaVuSans-41" x="62.033203"/>
      <use xlink:href="#DejaVuSans-4c" x="130.441406"/>
      <use xlink:href="#DejaVuSans-20" x="186.154297"/>
      <use xlink:href="#DejaVuSans-32" x="217.941406"/>
      <use xlink:href="#DejaVuSans-36" x="281.564453"/>
     </g>
    </g>
   </g>
   <g id="text_2">
    <g clip-path="url(#p5157ab79dc)">
     <!-- ILE 3 -->
     <g transform="translate(862.13829 679.012343) scale(0.08 -0.08)">
      <defs>
       <path id="DejaVuSans-49" d="M 628 4666 
L 1259 4666 
L 1259 0 
L 628 0 
L 628 4666 
z
" transform="scale(0.015625)"/>
       <path id="DejaVuSans-45" d="M 628 4666 
L 3578 4666 
L 3578 4134 
L 1259 4134 
L 1259 2753 
L 3481 2753 
L 3481 2222 
L 1259 2222 
L 1259 531 
L 3634 531 
L 3634 0 
L 628 0 
L 628 4666 
z
" transform="scale(0.015625)"/>
       <path id="DejaVuSans-33" d="M 2597 2516 
Q 3050 2419 3304 2112 
Q 3559 1806 3559 1356 
Q 3559 666 3084 287 
Q 2609 -91 1734 -91 
Q 1441 -91 1130 -33 
Q 819 25 488 141 
L 488 750 
Q 750 597 1062 519 
Q 1375 441 1716 441 
Q 2309 441 2620 675 
Q 2931 909 2931 1356 
Q 2931 1769 2642 2001 
Q 2353 2234 1838 2234 
L 1294 2234 
L 1294 2753 
L 1863 2753 
Q 2328 2753 2575 2939 
Q 2822 3125 2822 3475 
Q 2822 3834 2567 4026 
Q 2313 4219 1838 4219 
Q 1578 4219 1281 4162 
Q 984 4106 628 3988 
L 628 4550 
Q 988 4650 1302 4700 
Q 1616 4750 1894 4750 
Q 2613 4750 3031 4423 
Q 3450 4097 3450 3541 
Q 3450 3153 3228 2886 
Q 3006 2619 2597 2516 
z
" transform="scale(0.015625)"/>
      </defs>
      <use xlink:href="#DejaVuSans-49"/>
      <use xlink:href="#DejaVuSans-4c" x="29.492188"/>
      <use xlink:href="#DejaVuSans-45" x="85.205078"/>
      <use xlink:href="#DejaVuSans-20" x="148.388672"/>
      <use xlink:href="#DejaVuSans-33" x="180.175781"/>
     </g>
    </g>
   </g>
   <g id="text_3">
    <g clip-path="url(#p5157ab79dc)">
     <!-- LEU 15 -->
     <g transform="translate(1334.254856 610.843983) scale(0.08 -0.08)">
      <defs>
       <path id="DejaVuSans-55" d="M 556 4666 
L 1191 4666 
L 1191 1831 
Q 1191 1081 1462 751 
Q 1734 422 2344 422 
Q 2950 422 3222 751 
Q 3494 1081 3494 1831 
L 3494 4666 
L 4128 4666 
L 4128 1753 
Q 4128 841 3676 375 
Q 3225 -91 2344 -91 
Q 1459 -91 1007 375 
Q 556 841 556 1753 
L 556 4666 
z
" transform="scale(0.015625)"/>
       <path id="DejaVuSans-31" d="M 794 531 
L 1825 531 
L 1825 4091 
L 703 3866 
L 703 4441 
L 1819 4666 
L 2450 4666 
L 2450 531 
L 3481 531 
L 3481 0 
L 794 0 
L 794 531 
z
" transform="scale(0.015625)"/>
       <path id="DejaVuSans-35" d="M 691 4666 
L 3169 4666 
L 3169 4134 
L 1269 4134 
L 1269 2991 
Q 1406 3038 1543 3061 
Q 1681 3084 1819 3084 
Q 2600 3084 3056 2656 
Q 3513 2228 3513 1497 
Q 3513 744 3044 326 
Q 2575 -91 1722 -91 
Q 1428 -91 1123 -41 
Q 819 9 494 109 
L 494 744 
Q 775 591 1075 516 
Q 1375 441 1709 441 
Q 2250 441 2565 725 
Q 2881 1009 2881 1497 
Q 2881 1984 2565 2268 
Q 2250 2553 1709 2553 
Q 1456 2553 1204 2497 
Q 953 2441 691 2322 
L 691 4666 
z
" transform="scale(0.015625)"/>
      </defs>
      <use xlink:href="#DejaVuSans-4c"/>
      <use xlink:href="#DejaVuSans-45" x="55.712891"/>
      <use xlink:href="#DejaVuSans-55" x="118.896484"/>
      <use xlink:href="#DejaVuSans-20" x="192.089844"/>
      <use xlink:href="#DejaVuSans-31" x="223.876953"/>
      <use xlink:href="#DejaVuSans-35" x="287.5"/>
     </g>
    </g>
   </g>
   <g id="text_4">
    <g clip-path="url(#p5157ab79dc)">
     <!-- ILE 23 -->
     <g transform="translate(338.598186 1651.721057) scale(0.08 -0.08)">
      <use xlink:href="#DejaVuSans-49"/>
      <use xlink:href="#DejaVuSans-4c" x="29.492188"/>
      <use xlink:href="#DejaVuSans-45" x="85.205078"/>
      <use xlink:href="#DejaVuSans-20" x="148.388672"/>
      <use xlink:href="#DejaVuSans-32" x="180.175781"/>
      <use xlink:href="#DejaVuSans-33" x="243.798828"/>
     </g>
    </g>
   </g>
   <g id="text_5">
    <g clip-path="url(#p5157ab79dc)">
     <!-- ILE 30 -->
     <g transform="translate(953.435461 459.694406) scale(0.08 -0.08)">
      <defs>
       <path id="DejaVuSans-30" d="M 2034 4250 
Q 1547 4250 1301 3770 
Q 1056 3291 1056 2328 
Q 1056 1369 1301 889 
Q 1547 409 2034 409 
Q 2525 409 2770 889 
Q 3016 1369 3016 2328 
Q 3016 3291 2770 3770 
Q 2525 4250 2034 4250 
z
M 2034 4750 
Q 2819 4750 3233 4129 
Q 3647 3509 3647 2328 
Q 3647 1150 3233 529 
Q 2819 -91 2034 -91 
Q 1250 -91 836 529 
Q 422 1150 422 2328 
Q 422 3509 836 4129 
Q 1250 4750 2034 4750 
z
" transform="scale(0.015625)"/>
      </defs>
      <use xlink:href="#DejaVuSans-49"/>
      <use xlink:href="#DejaVuSans-4c" x="29.492188"/>
      <use xlink:href="#DejaVuSans-45" x="85.205078"/>
      <use xlink:href="#DejaVuSans-20" x="148.388672"/>
      <use xlink:href="#DejaVuSans-33" x="180.175781"/>
      <use xlink:href="#DejaVuSans-30" x="243.798828"/>
     </g>
    </g>
   </g>
   <g id="text_6">
    <g clip-path="url(#p5157ab79dc)">
     <!-- LEU 43 -->
     <g transform="translate(648.637319 378.233676) scale(0.08 -0.08)">
      <defs>
       <path id="DejaVuSans-34" d="M 2419 4116 
L 825 1625 
L 2419 1625 
L 2419 4116 
z
M 2253 4666 
L 3047 4666 
L 3047 1625 
L 3713 1625 
L 3713 1100 
L 3047 1100 
L 3047 0 
L 2419 0 
L 2419 1100 
L 313 1100 
L 313 1709 
L 2253 4666 
z
" transform="scale(0.015625)"/>
      </defs>
      <use xlink:href="#DejaVuSans-4c"/>
      <use xlink:href="#DejaVuSans-45" x="55.712891"/>
      <use xlink:href="#DejaVuSans-55" x="118.896484"/>
      <use xlink:href="#DejaVuSans-20" x="192.089844"/>
      <use xlink:href="#DejaVuSans-34" x="223.876953"/>
      <use xlink:href="#DejaVuSans-33" x="287.5"/>
     </g>
    </g>
   </g>
   <g id="text_7">
    <g clip-path="url(#p5157ab79dc)">
     <!-- LEU 56 -->
     <g transform="translate(341.351768 1411.933816) scale(0.08 -0.08)">
      <use xlink:href="#DejaVuSans-4c"/>
      <use xlink:href="#DejaVuSans-45" x="55.712891"/>
      <use xlink:href="#DejaVuSans-55" x="118.896484"/>
      <use xlink:href="#DejaVuSans-20" x="192.089844"/>
      <use xlink:href="#DejaVuSans-35" x="223.876953"/>
      <use xlink:href="#DejaVuSans-36" x="287.5"/>
     </g>
    </g>
   </g>
   <g id="text_8">
    <g clip-path="url(#p5157ab79dc)">
     <!-- VAL 5 -->
     <g transform="translate(1516.033995 347.595576) scale(0.08 -0.08)">
      <use xlink:href="#DejaVuSans-56"/>
      <use xlink:href="#DejaVuSans-41" x="62.033203"/>
      <use xlink:href="#DejaVuSans-4c" x="130.441406"/>
      <use xlink:href="#DejaVuSans-20" x="186.154297"/>
      <use xlink:href="#DejaVuSans-35" x="217.941406"/>
     </g>
    </g>
   </g>
   <g id="text_9">
    <g clip-path="url(#p5157ab79dc)">
     <!-- ILE 13 -->
     <g transform="translate(2617.785145 252.124855) scale(0.08 -0.08)">
      <use xlink:href="#DejaVuSans-49"/>
      <use xlink:href="#DejaVuSans-4c" x="29.492188"/>
      <use xlink:href="#DejaVuSans-45" x="85.205078"/>
      <use xlink:href="#DejaVuSans-20" x="148.388672"/>
      <use xlink:href="#DejaVuSans-31" x="180.175781"/>
      <use xlink:href="#DejaVuSans-33" x="243.798828"/>
     </g>
    </g>
   </g>
   <g id="text_10">
    <g clip-path="url(#p5157ab79dc)">
     <!-- VAL 17 -->
     <g transform="translate(349.133046 861.777729) scale(0.08 -0.08)">
      <defs>
       <path id="DejaVuSans-37" d="M 525 4666 
L 3525 4666 
L 3525 4397 
L 1831 0 
L 1172 0 
L 2766 4134 
L 525 4134 
L 525 4666 
z
" transform="scale(0.015625)"/>
      </defs>
      <use xlink:href="#DejaVuSans-56"/>
      <use xlink:href="#DejaVuSans-41" x="62.033203"/>
      <use xlink:href="#DejaVuSans-4c" x="130.441406"/>
      <use xlink:href="#DejaVuSans-20" x="186.154297"/>
      <use xlink:href="#DejaVuSans-31" x="217.941406"/>
      <use xlink:href="#DejaVuSans-37" x="281.564453"/>
     </g>
    </g>
   </g>
   <g id="text_11">
    <g clip-path="url(#p5157ab79dc)">
     <!-- ILE 61 -->
     <g transform="translate(893.923251 2054.217559) scale(0.08 -0.08)">
      <use xlink:href="#DejaVuSans-49"/>
      <use xlink:href="#DejaVuSans-4c" x="29.492188"/>
      <use xlink:href="#DejaVuSans-45" x="85.205078"/>
      <use xlink:href="#DejaVuSans-20" x="148.388672"/>
      <use xlink:href="#DejaVuSans-36" x="180.175781"/>
      <use xlink:href="#DejaVuSans-31" x="243.798828"/>
     </g>
    </g>
   </g>
   <g id="text_12">
    <g clip-path="url(#p5157ab79dc)">
     <!-- LEU 50 -->
     <g transform="translate(235.872355 2090.595895) scale(0.08 -0.08)">
      <use xlink:href="#DejaVuSans-4c"/>
      <use xlink:href="#DejaVuSans-45" x="55.712891"/>
      <use xlink:href="#DejaVuSans-55" x="118.896484"/>
      <use xlink:href="#DejaVuSans-20" x="192.089844"/>
      <use xlink:href="#DejaVuSans-35" x="223.876953"/>
      <use xlink:href="#DejaVuSans-30" x="287.5"/>
     </g>
    </g>
   </g>
   <g id="text_13">
    <g clip-path="url(#p5157ab79dc)">
     <!-- LEU 67 -->
     <g transform="translate(1880.882883 2632.290145) scale(0.08 -0.08)">
      <use xlink:href="#DejaVuSans-4c"/>
      <use xlink:href="#DejaVuSans-45" x="55.712891"/>
      <use xlink:href="#DejaVuSans-55" x="118.896484"/>
      <use xlink:href="#DejaVuSans-20" x="192.089844"/>
      <use xlink:href="#DejaVuSans-36" x="223.876953"/>
      <use xlink:href="#DejaVuSans-37" x="287.5"/>
     </g>
    </g>
   </g>
  </g>
  <g id="text_14">
   <!-- G_NMR -->
   <g transform="translate(1418.51625 66.50625) scale(0.12 -0.12)">
    <defs>
     <path id="DejaVuSans-47" d="M 3809 666 
L 3809 1919 
L 2778 1919 
L 2778 2438 
L 4434 2438 
L 4434 434 
Q 4069 175 3628 42 
Q 3188 -91 2688 -91 
Q 1594 -91 976 548 
Q 359 1188 359 2328 
Q 359 3472 976 4111 
Q 1594 4750 2688 4750 
Q 3144 4750 3555 4637 
Q 3966 4525 4313 4306 
L 4313 3634 
Q 3963 3931 3569 4081 
Q 3175 4231 2741 4231 
Q 1884 4231 1454 3753 
Q 1025 3275 1025 2328 
Q 1025 1384 1454 906 
Q 1884 428 2741 428 
Q 3075 428 3337 486 
Q 3600 544 3809 666 
z
" transform="scale(0.015625)"/>
     <path id="DejaVuSans-5f" d="M 3263 -1063 
L 3263 -1509 
L -63 -1509 
L -63 -1063 
L 3263 -1063 
z
" transform="scale(0.015625)"/>
     <path id="DejaVuSans-4e" d="M 628 4666 
L 1478 4666 
L 3547 763 
L 3547 4666 
L 4159 4666 
L 4159 0 
L 3309 0 
L 1241 3903 
L 1241 0 
L 628 0 
L 628 4666 
z
" transform="scale(0.015625)"/>
     <path id="DejaVuSans-4d" d="M 628 4666 
L 1569 4666 
L 2759 1491 
L 3956 4666 
L 4897 4666 
L 4897 0 
L 4281 0 
L 4281 4097 
L 3078 897 
L 2444 897 
L 1241 4097 
L 1241 0 
L 628 0 
L 628 4666 
z
" transform="scale(0.015625)"/>
     <path id="DejaVuSans-52" d="M 2841 2188 
Q 3044 2119 3236 1894 
Q 3428 1669 3622 1275 
L 4263 0 
L 3584 0 
L 2988 1197 
Q 2756 1666 2539 1819 
Q 2322 1972 1947 1972 
L 1259 1972 
L 1259 0 
L 628 0 
L 628 4666 
L 2053 4666 
Q 2853 4666 3247 4331 
Q 3641 3997 3641 3322 
Q 3641 2881 3436 2590 
Q 3231 2300 2841 2188 
z
M 1259 4147 
L 1259 2491 
L 2053 2491 
Q 2509 2491 2742 2702 
Q 2975 2913 2975 3322 
Q 2975 3731 2742 3939 
Q 2509 4147 2053 4147 
L 1259 4147 
z
" transform="scale(0.015625)"/>
    </defs>
    <use xlink:href="#DejaVuSans-47"/>
    <use xlink:href="#DejaVuSans-5f" x="77.490234"/>
    <use xlink:href="#DejaVuSans-4e" x="127.490234"/>
    <use xlink:href="#DejaVuSans-4d" x="202.294922"/>
    <use xlink:href="#DejaVuSans-52" x="288.574219"/>
   </g>
  </g>
 </g>
 <defs>
  <clipPath id="p5157ab79dc">
   <rect x="0" y="0" width="2880" height="2880"/>
  </clipPath>
 </defs>
</svg>
