<?xml version="1.0" encoding="utf-8" standalone="no"?>
<!DOCTYPE svg PUBLIC "-//W3C//DTD SVG 1.1//EN"
  "http://www.w3.org/Graphics/SVG/1.1/DTD/svg11.dtd">
<svg xmlns:xlink="http://www.w3.org/1999/xlink" width="2880pt" height="2880pt" viewBox="0 0 2880 2880" xmlns="http://www.w3.org/2000/svg" version="1.1">
 <metadata>
  <rdf:RDF xmlns:dc="http://purl.org/dc/elements/1.1/" xmlns:cc="http://creativecommons.org/ns#" xmlns:rdf="http://www.w3.org/1999/02/22-rdf-syntax-ns#">
   <cc:Work>
    <dc:type rdf:resource="http://purl.org/dc/dcmitype/StillImage"/>
    <dc:date>2024-02-24T15:22:31.612716</dc:date>
    <dc:format>image/svg+xml</dc:format>
    <dc:creator>
     <cc:Agent>
      <dc:title>Matplotlib v3.8.2, https://matplotlib.org/</dc:title>
     </cc:Agent>
    </dc:creator>
   </cc:Work>
  </rdf:RDF>
 </metadata>
 <defs>
  <style type="text/css">*{stroke-linejoin: round; stroke-linecap: butt}</style>
 </defs>
 <g id="figure_1">
  <g id="patch_1">
   <path d="M 0 2880 
L 2880 2880 
L 2880 0 
L 0 0 
z
" style="fill: #ffffff"/>
  </g>
  <g id="axes_1">
   <g id="patch_2">
    <path d="M 1408.626404 2034.142989 
Q 1299.880627 1896.677891 1191.27358 1759.388161 
" clip-path="url(#p4c433e98a5)" style="fill: none; stroke: #000000; stroke-width: 0.2; stroke-linecap: round"/>
    <path d="M 1192.186719 1763.76608 
L 1191.27358 1759.388161 
L 1195.323799 1761.284401 
z
" clip-path="url(#p4c433e98a5)" style="stroke: #000000; stroke-width: 0.2; stroke-linecap: round"/>
   </g>
   <g id="patch_3">
    <path d="M 1409.829199 2033.287824 
Q 1175.8807 1664.150571 942.0519 1295.202189 
" clip-path="url(#p4c433e98a5)" style="fill: none; stroke: #000000; stroke-width: 0.2; stroke-linecap: round"/>
    <path d="M 942.50386 1299.651428 
L 942.0519 1295.202189 
L 945.882468 1297.510164 
z
" clip-path="url(#p4c433e98a5)" style="stroke: #000000; stroke-width: 0.2; stroke-linecap: round"/>
   </g>
   <g id="patch_4">
    <path d="M 1430.680496 2050.096144 
Q 1675.268878 2139.639046 1919.647282 2229.105076 
" clip-path="url(#p4c433e98a5)" style="fill: none; stroke: #000000; stroke-width: 0.2; stroke-linecap: round"/>
    <path d="M 1916.57865 2225.851848 
L 1919.647282 2229.105076 
L 1915.20352 2229.608045 
z
" clip-path="url(#p4c433e98a5)" style="stroke: #000000; stroke-width: 0.2; stroke-linecap: round"/>
   </g>
   <g id="patch_5">
    <path d="M 1404.57539 2051.198363 
Q 1249.062539 2123.514367 1093.752445 2195.736086 
" clip-path="url(#p4c433e98a5)" style="fill: none; stroke: #000000; stroke-width: 0.2; stroke-linecap: round"/>
    <path d="M 1098.22278 2195.862972 
L 1093.752445 2195.736086 
L 1096.536155 2192.235949 
z
" clip-path="url(#p4c433e98a5)" style="stroke: #000000; stroke-width: 0.2; stroke-linecap: round"/>
   </g>
   <g id="patch_6">
    <path d="M 1411.889139 2058.259115 
Q 1293.659216 2337.659599 1175.516434 2616.854154 
" clip-path="url(#p4c433e98a5)" style="fill: none; stroke: #000000; stroke-width: 0.2; stroke-linecap: round"/>
    <path d="M 1178.917122 2613.949792 
L 1175.516434 2616.854154 
L 1175.233358 2612.390986 
z
" clip-path="url(#p4c433e98a5)" style="stroke: #000000; stroke-width: 0.2; stroke-linecap: round"/>
   </g>
   <g id="patch_7">
    <path d="M 1428.488201 2036.460976 
Q 1599.650777 1901.0225 1770.638003 1765.722776 
" clip-path="url(#p4c433e98a5)" style="fill: none; stroke: #000000; stroke-width: 0.2; stroke-linecap: round"/>
    <path d="M 1766.2602 1766.63647 
L 1770.638003 1765.722776 
L 1768.742277 1769.773235 
z
" clip-path="url(#p4c433e98a5)" style="stroke: #000000; stroke-width: 0.2; stroke-linecap: round"/>
   </g>
   <g id="patch_8">
    <path d="M 1168.487421 1745.361593 
Q 1002.00368 1712.249145 835.73925 1679.180316 
" clip-path="url(#p4c433e98a5)" style="fill: none; stroke: #000000; stroke-width: 0.2; stroke-linecap: round"/>
    <path d="M 839.272261 1681.922182 
L 835.73925 1679.180316 
L 840.052549 1677.999026 
z
" clip-path="url(#p4c433e98a5)" style="stroke: #000000; stroke-width: 0.2; stroke-linecap: round"/>
   </g>
   <g id="patch_9">
    <path d="M 1175.705804 1735.6423 
Q 1058.362739 1515.597578 941.124891 1295.750161 
" clip-path="url(#p4c433e98a5)" style="fill: none; stroke: #000000; stroke-width: 0.2; stroke-linecap: round"/>
    <path d="M 941.242315 1300.220755 
L 941.124891 1295.750161 
L 944.771821 1298.338578 
z
" clip-path="url(#p4c433e98a5)" style="stroke: #000000; stroke-width: 0.2; stroke-linecap: round"/>
   </g>
   <g id="patch_10">
    <path d="M 1188.713 1735.485489 
Q 1284.079469 1545.807879 1379.345494 1356.330046 
" clip-path="url(#p4c433e98a5)" style="fill: none; stroke: #000000; stroke-width: 0.2; stroke-linecap: round"/>
    <path d="M 1375.761829 1359.005367 
L 1379.345494 1356.330046 
L 1379.335552 1360.80217 
z
" clip-path="url(#p4c433e98a5)" style="stroke: #000000; stroke-width: 0.2; stroke-linecap: round"/>
   </g>
   <g id="patch_11">
    <path d="M 1191.134404 1759.212229 
Q 1299.880182 1896.677327 1408.487229 2033.967057 
" clip-path="url(#p4c433e98a5)" style="fill: none; stroke: #000000; stroke-width: 0.2; stroke-linecap: round"/>
    <path d="M 1407.57409 2029.589138 
L 1408.487229 2033.967057 
L 1404.43701 2032.070817 
z
" clip-path="url(#p4c433e98a5)" style="stroke: #000000; stroke-width: 0.2; stroke-linecap: round"/>
   </g>
   <g id="patch_12">
    <path d="M 941.017782 1295.549306 
Q 1058.360847 1515.594029 1175.598695 1735.441446 
" clip-path="url(#p4c433e98a5)" style="fill: none; stroke: #000000; stroke-width: 0.2; stroke-linecap: round"/>
    <path d="M 1175.481271 1730.970852 
L 1175.598695 1735.441446 
L 1171.951765 1732.853028 
z
" clip-path="url(#p4c433e98a5)" style="stroke: #000000; stroke-width: 0.2; stroke-linecap: round"/>
   </g>
   <g id="patch_13">
    <path d="M 930.467073 1296.66698 
Q 878.007332 1479.724933 825.609191 1662.567932 
" clip-path="url(#p4c433e98a5)" style="fill: none; stroke: #000000; stroke-width: 0.2; stroke-linecap: round"/>
    <path d="M 828.633744 1659.273682 
L 825.609191 1662.567932 
L 824.788523 1658.17174 
z
" clip-path="url(#p4c433e98a5)" style="stroke: #000000; stroke-width: 0.2; stroke-linecap: round"/>
   </g>
   <g id="patch_14">
    <path d="M 926.554023 1271.282783 
Q 592.1397 766.493071 257.848871 261.889771 
" clip-path="url(#p4c433e98a5)" style="fill: none; stroke: #000000; stroke-width: 0.2; stroke-linecap: round"/>
    <path d="M 258.390689 266.328964 
L 257.848871 261.889771 
L 261.725316 264.119832 
z
" clip-path="url(#p4c433e98a5)" style="stroke: #000000; stroke-width: 0.2; stroke-linecap: round"/>
   </g>
   <g id="patch_15">
    <path d="M 948.377753 1284.946617 
Q 1160.078386 1313.282425 1371.55739 1341.588568 
" clip-path="url(#p4c433e98a5)" style="fill: none; stroke: #000000; stroke-width: 0.2; stroke-linecap: round"/>
    <path d="M 1367.858077 1339.075584 
L 1371.55739 1341.588568 
L 1367.327415 1343.040228 
z
" clip-path="url(#p4c433e98a5)" style="stroke: #000000; stroke-width: 0.2; stroke-linecap: round"/>
   </g>
   <g id="patch_16">
    <path d="M 941.934798 1295.017418 
Q 1175.883298 1664.154671 1409.712097 2033.103054 
" clip-path="url(#p4c433e98a5)" style="fill: none; stroke: #000000; stroke-width: 0.2; stroke-linecap: round"/>
    <path d="M 1409.260137 2028.653814 
L 1409.712097 2033.103054 
L 1405.88153 2030.795078 
z
" clip-path="url(#p4c433e98a5)" style="stroke: #000000; stroke-width: 0.2; stroke-linecap: round"/>
   </g>
   <g id="patch_17">
    <path d="M 936.588296 1297.036858 
Q 1007.543465 1742.431874 1078.463455 2187.606068 
" clip-path="url(#p4c433e98a5)" style="fill: none; stroke: #000000; stroke-width: 0.2; stroke-linecap: round"/>
    <path d="M 1079.809251 2183.341231 
L 1078.463455 2187.606068 
L 1075.859063 2183.970529 
z
" clip-path="url(#p4c433e98a5)" style="stroke: #000000; stroke-width: 0.2; stroke-linecap: round"/>
   </g>
   <g id="patch_18">
    <path d="M 1919.860325 2229.183071 
Q 1675.271943 2139.640168 1430.893539 2050.174138 
" clip-path="url(#p4c433e98a5)" style="fill: none; stroke: #000000; stroke-width: 0.2; stroke-linecap: round"/>
    <path d="M 1433.962171 2053.427367 
L 1430.893539 2050.174138 
L 1435.337301 2049.67117 
z
" clip-path="url(#p4c433e98a5)" style="stroke: #000000; stroke-width: 0.2; stroke-linecap: round"/>
   </g>
   <g id="patch_19">
    <path d="M 1943.64784 2243.511552 
Q 2108.767001 2392.274338 2273.720035 2540.887454 
" clip-path="url(#p4c433e98a5)" style="fill: none; stroke: #000000; stroke-width: 0.2; stroke-linecap: round"/>
    <path d="M 2272.086953 2536.724156 
L 2273.720035 2540.887454 
L 2269.409548 2539.69594 
z
" clip-path="url(#p4c433e98a5)" style="stroke: #000000; stroke-width: 0.2; stroke-linecap: round"/>
   </g>
   <g id="patch_20">
    <path d="M 1928.867522 2220.562079 
Q 1857.522006 1995.427308 1786.24404 1770.505697 
" clip-path="url(#p4c433e98a5)" style="fill: none; stroke: #000000; stroke-width: 0.2; stroke-linecap: round"/>
    <path d="M 1785.545865 1774.922998 
L 1786.24404 1770.505697 
L 1789.358976 1773.714618 
z
" clip-path="url(#p4c433e98a5)" style="stroke: #000000; stroke-width: 0.2; stroke-linecap: round"/>
   </g>
   <g id="patch_21">
    <path d="M 1943.19897 2224.100515 
Q 2082.316882 2086.566007 2221.275777 1949.188706 
" clip-path="url(#p4c433e98a5)" style="fill: none; stroke: #000000; stroke-width: 0.2; stroke-linecap: round"/>
    <path d="M 2217.025112 1950.578614 
L 2221.275777 1949.188706 
L 2219.837305 1953.423183 
z
" clip-path="url(#p4c433e98a5)" style="stroke: #000000; stroke-width: 0.2; stroke-linecap: round"/>
   </g>
   <g id="patch_22">
    <path d="M 1074.467981 2189.107369 
Q 951.187337 1939.085866 828.005582 1689.264915 
" clip-path="url(#p4c433e98a5)" style="fill: none; stroke: #000000; stroke-width: 0.2; stroke-linecap: round"/>
    <path d="M 827.980756 1693.736982 
L 828.005582 1689.264915 
L 831.56834 1691.968015 
z
" clip-path="url(#p4c433e98a5)" style="stroke: #000000; stroke-width: 0.2; stroke-linecap: round"/>
   </g>
   <g id="patch_23">
    <path d="M 1078.498901 2187.82857 
Q 1007.543732 1742.433554 936.623742 1297.25936 
" clip-path="url(#p4c433e98a5)" style="fill: none; stroke: #000000; stroke-width: 0.2; stroke-linecap: round"/>
    <path d="M 935.277946 1301.524197 
L 936.623742 1297.25936 
L 939.228134 1300.894899 
z
" clip-path="url(#p4c433e98a5)" style="stroke: #000000; stroke-width: 0.2; stroke-linecap: round"/>
   </g>
   <g id="patch_24">
    <path d="M 1093.54903 2195.830677 
Q 1249.061881 2123.514673 1404.371975 2051.292954 
" clip-path="url(#p4c433e98a5)" style="fill: none; stroke: #000000; stroke-width: 0.2; stroke-linecap: round"/>
    <path d="M 1399.901639 2051.166067 
L 1404.371975 2051.292954 
L 1401.588264 2054.793091 
z
" clip-path="url(#p4c433e98a5)" style="stroke: #000000; stroke-width: 0.2; stroke-linecap: round"/>
   </g>
   <g id="patch_25">
    <path d="M 1083.607101 2215.639342 
Q 1125.321114 2415.937901 1166.989537 2616.017549 
" clip-path="url(#p4c433e98a5)" style="fill: none; stroke: #000000; stroke-width: 0.2; stroke-linecap: round"/>
    <path d="M 1168.131988 2611.6938 
L 1166.989537 2616.017549 
L 1164.216008 2612.509339 
z
" clip-path="url(#p4c433e98a5)" style="stroke: #000000; stroke-width: 0.2; stroke-linecap: round"/>
   </g>
   <g id="patch_26">
    <path d="M 1165.068244 2616.799967 
Q 995.785382 2153.231277 826.579221 1689.872627 
" clip-path="url(#p4c433e98a5)" style="fill: none; stroke: #000000; stroke-width: 0.2; stroke-linecap: round"/>
    <path d="M 826.072634 1694.315978 
L 826.579221 1689.872627 
L 829.82995 1692.943907 
z
" clip-path="url(#p4c433e98a5)" style="stroke: #000000; stroke-width: 0.2; stroke-linecap: round"/>
   </g>
   <g id="patch_27">
    <path d="M 1175.430194 2617.057956 
Q 1293.660116 2337.657473 1411.802898 2058.462918 
" clip-path="url(#p4c433e98a5)" style="fill: none; stroke: #000000; stroke-width: 0.2; stroke-linecap: round"/>
    <path d="M 1408.40221 2061.367279 
L 1411.802898 2058.462918 
L 1412.085975 2062.926086 
z
" clip-path="url(#p4c433e98a5)" style="stroke: #000000; stroke-width: 0.2; stroke-linecap: round"/>
   </g>
   <g id="patch_28">
    <path d="M 1167.03543 2616.237915 
Q 1125.321417 2415.939357 1083.652994 2215.859708 
" clip-path="url(#p4c433e98a5)" style="fill: none; stroke: #000000; stroke-width: 0.2; stroke-linecap: round"/>
    <path d="M 1082.510543 2220.183457 
L 1083.652994 2215.859708 
L 1086.426523 2219.367918 
z
" clip-path="url(#p4c433e98a5)" style="stroke: #000000; stroke-width: 0.2; stroke-linecap: round"/>
   </g>
   <g id="patch_29">
    <path d="M 1772.12108 1746.601273 
Q 1583.851179 1550.151742 1395.735995 1353.86365 
" clip-path="url(#p4c433e98a5)" style="fill: none; stroke: #000000; stroke-width: 0.2; stroke-linecap: round"/>
    <path d="M 1397.059705 1358.135394 
L 1395.735995 1353.86365 
L 1399.947616 1355.367728 
z
" clip-path="url(#p4c433e98a5)" style="stroke: #000000; stroke-width: 0.2; stroke-linecap: round"/>
   </g>
   <g id="patch_30">
    <path d="M 1786.176106 1770.291325 
Q 1857.521622 1995.426096 1928.799587 2220.347707 
" clip-path="url(#p4c433e98a5)" style="fill: none; stroke: #000000; stroke-width: 0.2; stroke-linecap: round"/>
    <path d="M 1929.497763 2215.930406 
L 1928.799587 2220.347707 
L 1925.684652 2217.138786 
z
" clip-path="url(#p4c433e98a5)" style="stroke: #000000; stroke-width: 0.2; stroke-linecap: round"/>
   </g>
   <g id="patch_31">
    <path d="M 1770.815826 1765.582067 
Q 1599.65325 1901.020543 1428.666024 2036.320268 
" clip-path="url(#p4c433e98a5)" style="fill: none; stroke: #000000; stroke-width: 0.2; stroke-linecap: round"/>
    <path d="M 1433.043828 2035.406573 
L 1428.666024 2036.320268 
L 1430.561751 2032.269808 
z
" clip-path="url(#p4c433e98a5)" style="stroke: #000000; stroke-width: 0.2; stroke-linecap: round"/>
   </g>
   <g id="patch_32">
    <path d="M 1795.00982 1762.122399 
Q 2006.699508 1847.948615 2218.181972 1933.690815 
" clip-path="url(#p4c433e98a5)" style="fill: none; stroke: #000000; stroke-width: 0.2; stroke-linecap: round"/>
    <path d="M 2215.226508 1930.334444 
L 2218.181972 1933.690815 
L 2213.723597 1934.041364 
z
" clip-path="url(#p4c433e98a5)" style="stroke: #000000; stroke-width: 0.2; stroke-linecap: round"/>
   </g>
   <g id="patch_33">
    <path d="M 835.524253 1679.137555 
Q 1002.007994 1712.250003 1168.272424 1745.318831 
" clip-path="url(#p4c433e98a5)" style="fill: none; stroke: #000000; stroke-width: 0.2; stroke-linecap: round"/>
    <path d="M 1164.739413 1742.576965 
L 1168.272424 1745.318831 
L 1163.959124 1746.500121 
z
" clip-path="url(#p4c433e98a5)" style="stroke: #000000; stroke-width: 0.2; stroke-linecap: round"/>
   </g>
   <g id="patch_34">
    <path d="M 816.389831 1663.250697 
Q 535.783974 963.146755 255.261307 263.250369 
" clip-path="url(#p4c433e98a5)" style="fill: none; stroke: #000000; stroke-width: 0.2; stroke-linecap: round"/>
    <path d="M 254.893012 267.707314 
L 255.261307 263.250369 
L 258.605886 266.219172 
z
" clip-path="url(#p4c433e98a5)" style="stroke: #000000; stroke-width: 0.2; stroke-linecap: round"/>
   </g>
   <g id="patch_35">
    <path d="M 825.547789 1662.782192 
Q 878.007531 1479.724239 930.405672 1296.88124 
" clip-path="url(#p4c433e98a5)" style="fill: none; stroke: #000000; stroke-width: 0.2; stroke-linecap: round"/>
    <path d="M 927.381119 1300.17549 
L 930.405672 1296.88124 
L 931.22634 1301.277432 
z
" clip-path="url(#p4c433e98a5)" style="stroke: #000000; stroke-width: 0.2; stroke-linecap: round"/>
   </g>
   <g id="patch_36">
    <path d="M 827.907304 1689.065601 
Q 951.187948 1939.087104 1074.369703 2188.908055 
" clip-path="url(#p4c433e98a5)" style="fill: none; stroke: #000000; stroke-width: 0.2; stroke-linecap: round"/>
    <path d="M 1074.394529 2184.435988 
L 1074.369703 2188.908055 
L 1070.806945 2186.204954 
z
" clip-path="url(#p4c433e98a5)" style="stroke: #000000; stroke-width: 0.2; stroke-linecap: round"/>
   </g>
   <g id="patch_37">
    <path d="M 826.501953 1689.661035 
Q 995.784815 2153.229725 1164.990976 2616.588374 
" clip-path="url(#p4c433e98a5)" style="fill: none; stroke: #000000; stroke-width: 0.2; stroke-linecap: round"/>
    <path d="M 1165.497563 2612.145023 
L 1164.990976 2616.588374 
L 1161.740247 2613.517094 
z
" clip-path="url(#p4c433e98a5)" style="stroke: #000000; stroke-width: 0.2; stroke-linecap: round"/>
   </g>
   <g id="patch_38">
    <path d="M 1379.44604 1356.130066 
Q 1284.07957 1545.807676 1188.813546 1735.285509 
" clip-path="url(#p4c433e98a5)" style="fill: none; stroke: #000000; stroke-width: 0.2; stroke-linecap: round"/>
    <path d="M 1192.397211 1732.610188 
L 1188.813546 1735.285509 
L 1188.823487 1730.813385 
z
" clip-path="url(#p4c433e98a5)" style="stroke: #000000; stroke-width: 0.2; stroke-linecap: round"/>
   </g>
   <g id="patch_39">
    <path d="M 1371.784476 1341.618963 
Q 1160.083842 1313.283155 948.604839 1284.977012 
" clip-path="url(#p4c433e98a5)" style="fill: none; stroke: #000000; stroke-width: 0.2; stroke-linecap: round"/>
    <path d="M 952.304152 1287.489995 
L 948.604839 1284.977012 
L 952.834813 1283.525352 
z
" clip-path="url(#p4c433e98a5)" style="stroke: #000000; stroke-width: 0.2; stroke-linecap: round"/>
   </g>
   <g id="patch_40">
    <path d="M 1395.581178 1353.702108 
Q 1583.851079 1550.151639 1771.966263 1746.43973 
" clip-path="url(#p4c433e98a5)" style="fill: none; stroke: #000000; stroke-width: 0.2; stroke-linecap: round"/>
    <path d="M 1770.642553 1742.167987 
L 1771.966263 1746.43973 
L 1767.754643 1744.935653 
z
" clip-path="url(#p4c433e98a5)" style="stroke: #000000; stroke-width: 0.2; stroke-linecap: round"/>
   </g>
   <g id="patch_41">
    <path d="M 2221.434394 1949.031895 
Q 2082.316482 2086.566402 1943.357586 2223.943703 
" clip-path="url(#p4c433e98a5)" style="fill: none; stroke: #000000; stroke-width: 0.2; stroke-linecap: round"/>
    <path d="M 1947.608252 2222.553795 
L 1943.357586 2223.943703 
L 1944.796059 2219.709226 
z
" clip-path="url(#p4c433e98a5)" style="stroke: #000000; stroke-width: 0.2; stroke-linecap: round"/>
   </g>
   <g id="patch_42">
    <path d="M 2232.712373 1953.17974 
Q 2257.942536 2244.797584 2283.153425 2536.192654 
" clip-path="url(#p4c433e98a5)" style="fill: none; stroke: #000000; stroke-width: 0.2; stroke-linecap: round"/>
    <path d="M 2284.801198 2532.03515 
L 2283.153425 2536.192654 
L 2280.816085 2532.379933 
z
" clip-path="url(#p4c433e98a5)" style="stroke: #000000; stroke-width: 0.2; stroke-linecap: round"/>
   </g>
   <g id="patch_43">
    <path d="M 2218.386751 1933.773839 
Q 2006.697063 1847.947624 1795.214598 1762.205423 
" clip-path="url(#p4c433e98a5)" style="fill: none; stroke: #000000; stroke-width: 0.2; stroke-linecap: round"/>
    <path d="M 1798.170062 1765.561795 
L 1795.214598 1762.205423 
L 1799.672974 1761.854875 
z
" clip-path="url(#p4c433e98a5)" style="stroke: #000000; stroke-width: 0.2; stroke-linecap: round"/>
   </g>
   <g id="patch_44">
    <path d="M 2244.517741 1933.571426 
Q 2430.788902 1854.681548 2616.854161 1775.878874 
" clip-path="url(#p4c433e98a5)" style="fill: none; stroke: #000000; stroke-width: 0.2; stroke-linecap: round"/>
    <path d="M 2612.390906 1775.597183 
L 2616.854161 1775.878874 
L 2613.950855 1779.280464 
z
" clip-path="url(#p4c433e98a5)" style="stroke: #000000; stroke-width: 0.2; stroke-linecap: round"/>
   </g>
   <g id="patch_45">
    <path d="M 2273.883789 2541.034986 
Q 2108.764627 2392.2722 1943.811594 2243.659084 
" clip-path="url(#p4c433e98a5)" style="fill: none; stroke: #000000; stroke-width: 0.2; stroke-linecap: round"/>
    <path d="M 1945.444675 2247.822382 
L 1943.811594 2243.659084 
L 1948.12208 2244.850598 
z
" clip-path="url(#p4c433e98a5)" style="stroke: #000000; stroke-width: 0.2; stroke-linecap: round"/>
   </g>
   <g id="patch_46">
    <path d="M 2283.172197 2536.409633 
Q 2257.942035 2244.791788 2232.731146 1953.396718 
" clip-path="url(#p4c433e98a5)" style="fill: none; stroke: #000000; stroke-width: 0.2; stroke-linecap: round"/>
    <path d="M 2231.083373 1957.554223 
L 2232.731146 1953.396718 
L 2235.068486 1957.209439 
z
" clip-path="url(#p4c433e98a5)" style="stroke: #000000; stroke-width: 0.2; stroke-linecap: round"/>
   </g>
   <g id="patch_47">
    <path d="M 2617.058057 1775.79252 
Q 2430.786896 1854.682398 2244.721636 1933.485072 
" clip-path="url(#p4c433e98a5)" style="fill: none; stroke: #000000; stroke-width: 0.2; stroke-linecap: round"/>
    <path d="M 2249.184892 1933.766763 
L 2244.721636 1933.485072 
L 2247.624943 1930.083482 
z
" clip-path="url(#p4c433e98a5)" style="stroke: #000000; stroke-width: 0.2; stroke-linecap: round"/>
   </g>
   <g id="PathCollection_1">
    <defs>
     <path id="C0_0_e98bcb545c" d="M 0 14.142136 
C 3.750538 14.142136 7.347969 12.652031 10 10 
C 12.652031 7.347969 14.142136 3.750538 14.142136 -0 
C 14.142136 -3.750538 12.652031 -7.347969 10 -10 
C 7.347969 -12.652031 3.750538 -14.142136 0 -14.142136 
C -3.750538 -14.142136 -7.347969 -12.652031 -10 -10 
C -12.652031 -7.347969 -14.142136 -3.750538 -14.142136 0 
C -14.142136 3.750538 -12.652031 7.347969 -10 10 
C -7.347969 12.652031 -3.750538 14.142136 0 14.142136 
z
"/>
    </defs>
    <g clip-path="url(#p4c433e98a5)">
     <use xlink:href="#C0_0_e98bcb545c" x="1417.40061" y="2045.234427" style="fill: #0000ff; stroke: #0000ff"/>
    </g>
    <g clip-path="url(#p4c433e98a5)">
     <use xlink:href="#C0_0_e98bcb545c" x="1182.360198" y="1748.120791" style="fill: #ffa500; stroke: #ffa500"/>
    </g>
    <g clip-path="url(#p4c433e98a5)">
     <use xlink:href="#C0_0_e98bcb545c" x="934.363388" y="1283.070815" style="fill: #ffff00; stroke: #ffff00"/>
    </g>
    <g clip-path="url(#p4c433e98a5)">
     <use xlink:href="#C0_0_e98bcb545c" x="1933.140211" y="2234.044787" style="fill: #ffa500; stroke: #ffa500"/>
    </g>
    <g clip-path="url(#p4c433e98a5)">
     <use xlink:href="#C0_0_e98bcb545c" x="1080.723809" y="2201.794613" style="fill: #ffa500; stroke: #ffa500"/>
    </g>
    <g clip-path="url(#p4c433e98a5)">
     <use xlink:href="#C0_0_e98bcb545c" x="1169.918722" y="2630.082645" style="fill: #ffff00; stroke: #ffff00"/>
    </g>
    <g clip-path="url(#p4c433e98a5)">
     <use xlink:href="#C0_0_e98bcb545c" x="1781.903417" y="1756.808616" style="fill: #ffff00; stroke: #ffff00"/>
    </g>
    <g clip-path="url(#p4c433e98a5)">
     <use xlink:href="#C0_0_e98bcb545c" x="821.651475" y="1676.378357" style="fill: #0000ff; stroke: #0000ff"/>
    </g>
    <g clip-path="url(#p4c433e98a5)">
     <use xlink:href="#C0_0_e98bcb545c" x="249.917355" y="249.917355" style="fill: #ffa500; stroke: #ffa500"/>
    </g>
    <g clip-path="url(#p4c433e98a5)">
     <use xlink:href="#C0_0_e98bcb545c" x="1385.798841" y="1343.494764" style="fill: #0000ff; stroke: #0000ff"/>
    </g>
    <g clip-path="url(#p4c433e98a5)">
     <use xlink:href="#C0_0_e98bcb545c" x="2231.493153" y="1939.087622" style="fill: #ffa500; stroke: #ffa500"/>
    </g>
    <g clip-path="url(#p4c433e98a5)">
     <use xlink:href="#C0_0_e98bcb545c" x="2284.391418" y="2550.501751" style="fill: #ffff00; stroke: #ffff00"/>
    </g>
    <g clip-path="url(#p4c433e98a5)">
     <use xlink:href="#C0_0_e98bcb545c" x="2630.082645" y="1770.276324" style="fill: #ffff00; stroke: #ffff00"/>
    </g>
   </g>
   <g id="text_1">
    <g clip-path="url(#p4c433e98a5)">
     <!-- VAL 26 -->
     <g transform="translate(1403.59311 2047.441927) scale(0.08 -0.08)">
      <defs>
       <path id="DejaVuSans-56" d="M 1831 0 
L 50 4666 
L 709 4666 
L 2188 738 
L 3669 4666 
L 4325 4666 
L 2547 0 
L 1831 0 
z
" transform="scale(0.015625)"/>
       <path id="DejaVuSans-41" d="M 2188 4044 
L 1331 1722 
L 3047 1722 
L 2188 4044 
z
M 1831 4666 
L 2547 4666 
L 4325 0 
L 3669 0 
L 3244 1197 
L 1141 1197 
L 716 0 
L 50 0 
L 1831 4666 
z
" transform="scale(0.015625)"/>
       <path id="DejaVuSans-4c" d="M 628 4666 
L 1259 4666 
L 1259 531 
L 3531 531 
L 3531 0 
L 628 0 
L 628 4666 
z
" transform="scale(0.015625)"/>
       <path id="DejaVuSans-20" transform="scale(0.015625)"/>
       <path id="DejaVuSans-32" d="M 1228 531 
L 3431 531 
L 3431 0 
L 469 0 
L 469 531 
Q 828 903 1448 1529 
Q 2069 2156 2228 2338 
Q 2531 2678 2651 2914 
Q 2772 3150 2772 3378 
Q 2772 3750 2511 3984 
Q 2250 4219 1831 4219 
Q 1534 4219 1204 4116 
Q 875 4013 500 3803 
L 500 4441 
Q 881 4594 1212 4672 
Q 1544 4750 1819 4750 
Q 2544 4750 2975 4387 
Q 3406 4025 3406 3419 
Q 3406 3131 3298 2873 
Q 3191 2616 2906 2266 
Q 2828 2175 2409 1742 
Q 1991 1309 1228 531 
z
" transform="scale(0.015625)"/>
       <path id="DejaVuSans-36" d="M 2113 2584 
Q 1688 2584 1439 2293 
Q 1191 2003 1191 1497 
Q 1191 994 1439 701 
Q 1688 409 2113 409 
Q 2538 409 2786 701 
Q 3034 994 3034 1497 
Q 3034 2003 2786 2293 
Q 2538 2584 2113 2584 
z
M 3366 4563 
L 3366 3988 
Q 3128 4100 2886 4159 
Q 2644 4219 2406 4219 
Q 1781 4219 1451 3797 
Q 1122 3375 1075 2522 
Q 1259 2794 1537 2939 
Q 1816 3084 2150 3084 
Q 2853 3084 3261 2657 
Q 3669 2231 3669 1497 
Q 3669 778 3244 343 
Q 2819 -91 2113 -91 
Q 1303 -91 875 529 
Q 447 1150 447 2328 
Q 447 3434 972 4092 
Q 1497 4750 2381 4750 
Q 2619 4750 2861 4703 
Q 3103 4656 3366 4563 
z
" transform="scale(0.015625)"/>
      </defs>
      <use xlink:href="#DejaVuSans-56"/>
      <use xlink:href="#DejaVuSans-41" x="62.033203"/>
      <use xlink:href="#DejaVuSans-4c" x="130.441406"/>
      <use xlink:href="#DejaVuSans-20" x="186.154297"/>
      <use xlink:href="#DejaVuSans-32" x="217.941406"/>
      <use xlink:href="#DejaVuSans-36" x="281.564453"/>
     </g>
    </g>
   </g>
   <g id="text_2">
    <g clip-path="url(#p4c433e98a5)">
     <!-- ILE 3 -->
     <g transform="translate(1172.607698 1750.328291) scale(0.08 -0.08)">
      <defs>
       <path id="DejaVuSans-49" d="M 628 4666 
L 1259 4666 
L 1259 0 
L 628 0 
L 628 4666 
z
" transform="scale(0.015625)"/>
       <path id="DejaVuSans-45" d="M 628 4666 
L 3578 4666 
L 3578 4134 
L 1259 4134 
L 1259 2753 
L 3481 2753 
L 3481 2222 
L 1259 2222 
L 1259 531 
L 3634 531 
L 3634 0 
L 628 0 
L 628 4666 
z
" transform="scale(0.015625)"/>
       <path id="DejaVuSans-33" d="M 2597 2516 
Q 3050 2419 3304 2112 
Q 3559 1806 3559 1356 
Q 3559 666 3084 287 
Q 2609 -91 1734 -91 
Q 1441 -91 1130 -33 
Q 819 25 488 141 
L 488 750 
Q 750 597 1062 519 
Q 1375 441 1716 441 
Q 2309 441 2620 675 
Q 2931 909 2931 1356 
Q 2931 1769 2642 2001 
Q 2353 2234 1838 2234 
L 1294 2234 
L 1294 2753 
L 1863 2753 
Q 2328 2753 2575 2939 
Q 2822 3125 2822 3475 
Q 2822 3834 2567 4026 
Q 2313 4219 1838 4219 
Q 1578 4219 1281 4162 
Q 984 4106 628 3988 
L 628 4550 
Q 988 4650 1302 4700 
Q 1616 4750 1894 4750 
Q 2613 4750 3031 4423 
Q 3450 4097 3450 3541 
Q 3450 3153 3228 2886 
Q 3006 2619 2597 2516 
z
" transform="scale(0.015625)"/>
      </defs>
      <use xlink:href="#DejaVuSans-49"/>
      <use xlink:href="#DejaVuSans-4c" x="29.492188"/>
      <use xlink:href="#DejaVuSans-45" x="85.205078"/>
      <use xlink:href="#DejaVuSans-20" x="148.388672"/>
      <use xlink:href="#DejaVuSans-33" x="180.175781"/>
     </g>
    </g>
   </g>
   <g id="text_3">
    <g clip-path="url(#p4c433e98a5)">
     <!-- LEU 15 -->
     <g transform="translate(920.318388 1285.278315) scale(0.08 -0.08)">
      <defs>
       <path id="DejaVuSans-55" d="M 556 4666 
L 1191 4666 
L 1191 1831 
Q 1191 1081 1462 751 
Q 1734 422 2344 422 
Q 2950 422 3222 751 
Q 3494 1081 3494 1831 
L 3494 4666 
L 4128 4666 
L 4128 1753 
Q 4128 841 3676 375 
Q 3225 -91 2344 -91 
Q 1459 -91 1007 375 
Q 556 841 556 1753 
L 556 4666 
z
" transform="scale(0.015625)"/>
       <path id="DejaVuSans-31" d="M 794 531 
L 1825 531 
L 1825 4091 
L 703 3866 
L 703 4441 
L 1819 4666 
L 2450 4666 
L 2450 531 
L 3481 531 
L 3481 0 
L 794 0 
L 794 531 
z
" transform="scale(0.015625)"/>
       <path id="DejaVuSans-35" d="M 691 4666 
L 3169 4666 
L 3169 4134 
L 1269 4134 
L 1269 2991 
Q 1406 3038 1543 3061 
Q 1681 3084 1819 3084 
Q 2600 3084 3056 2656 
Q 3513 2228 3513 1497 
Q 3513 744 3044 326 
Q 2575 -91 1722 -91 
Q 1428 -91 1123 -41 
Q 819 9 494 109 
L 494 744 
Q 775 591 1075 516 
Q 1375 441 1709 441 
Q 2250 441 2565 725 
Q 2881 1009 2881 1497 
Q 2881 1984 2565 2268 
Q 2250 2553 1709 2553 
Q 1456 2553 1204 2497 
Q 953 2441 691 2322 
L 691 4666 
z
" transform="scale(0.015625)"/>
      </defs>
      <use xlink:href="#DejaVuSans-4c"/>
      <use xlink:href="#DejaVuSans-45" x="55.712891"/>
      <use xlink:href="#DejaVuSans-55" x="118.896484"/>
      <use xlink:href="#DejaVuSans-20" x="192.089844"/>
      <use xlink:href="#DejaVuSans-31" x="223.876953"/>
      <use xlink:href="#DejaVuSans-35" x="287.5"/>
     </g>
    </g>
   </g>
   <g id="text_4">
    <g clip-path="url(#p4c433e98a5)">
     <!-- ILE 23 -->
     <g transform="translate(1920.842711 2236.252287) scale(0.08 -0.08)">
      <use xlink:href="#DejaVuSans-49"/>
      <use xlink:href="#DejaVuSans-4c" x="29.492188"/>
      <use xlink:href="#DejaVuSans-45" x="85.205078"/>
      <use xlink:href="#DejaVuSans-20" x="148.388672"/>
      <use xlink:href="#DejaVuSans-32" x="180.175781"/>
      <use xlink:href="#DejaVuSans-33" x="243.798828"/>
     </g>
    </g>
   </g>
   <g id="text_5">
    <g clip-path="url(#p4c433e98a5)">
     <!-- ILE 30 -->
     <g transform="translate(1068.426309 2204.002113) scale(0.08 -0.08)">
      <defs>
       <path id="DejaVuSans-30" d="M 2034 4250 
Q 1547 4250 1301 3770 
Q 1056 3291 1056 2328 
Q 1056 1369 1301 889 
Q 1547 409 2034 409 
Q 2525 409 2770 889 
Q 3016 1369 3016 2328 
Q 3016 3291 2770 3770 
Q 2525 4250 2034 4250 
z
M 2034 4750 
Q 2819 4750 3233 4129 
Q 3647 3509 3647 2328 
Q 3647 1150 3233 529 
Q 2819 -91 2034 -91 
Q 1250 -91 836 529 
Q 422 1150 422 2328 
Q 422 3509 836 4129 
Q 1250 4750 2034 4750 
z
" transform="scale(0.015625)"/>
      </defs>
      <use xlink:href="#DejaVuSans-49"/>
      <use xlink:href="#DejaVuSans-4c" x="29.492188"/>
      <use xlink:href="#DejaVuSans-45" x="85.205078"/>
      <use xlink:href="#DejaVuSans-20" x="148.388672"/>
      <use xlink:href="#DejaVuSans-33" x="180.175781"/>
      <use xlink:href="#DejaVuSans-30" x="243.798828"/>
     </g>
    </g>
   </g>
   <g id="text_6">
    <g clip-path="url(#p4c433e98a5)">
     <!-- LEU 43 -->
     <g transform="translate(1155.873722 2632.290145) scale(0.08 -0.08)">
      <defs>
       <path id="DejaVuSans-34" d="M 2419 4116 
L 825 1625 
L 2419 1625 
L 2419 4116 
z
M 2253 4666 
L 3047 4666 
L 3047 1625 
L 3713 1625 
L 3713 1100 
L 3047 1100 
L 3047 0 
L 2419 0 
L 2419 1100 
L 313 1100 
L 313 1709 
L 2253 4666 
z
" transform="scale(0.015625)"/>
      </defs>
      <use xlink:href="#DejaVuSans-4c"/>
      <use xlink:href="#DejaVuSans-45" x="55.712891"/>
      <use xlink:href="#DejaVuSans-55" x="118.896484"/>
      <use xlink:href="#DejaVuSans-20" x="192.089844"/>
      <use xlink:href="#DejaVuSans-34" x="223.876953"/>
      <use xlink:href="#DejaVuSans-33" x="287.5"/>
     </g>
    </g>
   </g>
   <g id="text_7">
    <g clip-path="url(#p4c433e98a5)">
     <!-- LEU 56 -->
     <g transform="translate(1767.858417 1759.016116) scale(0.08 -0.08)">
      <use xlink:href="#DejaVuSans-4c"/>
      <use xlink:href="#DejaVuSans-45" x="55.712891"/>
      <use xlink:href="#DejaVuSans-55" x="118.896484"/>
      <use xlink:href="#DejaVuSans-20" x="192.089844"/>
      <use xlink:href="#DejaVuSans-35" x="223.876953"/>
      <use xlink:href="#DejaVuSans-36" x="287.5"/>
     </g>
    </g>
   </g>
   <g id="text_8">
    <g clip-path="url(#p4c433e98a5)">
     <!-- VAL 5 -->
     <g transform="translate(810.388975 1678.585857) scale(0.08 -0.08)">
      <use xlink:href="#DejaVuSans-56"/>
      <use xlink:href="#DejaVuSans-41" x="62.033203"/>
      <use xlink:href="#DejaVuSans-4c" x="130.441406"/>
      <use xlink:href="#DejaVuSans-20" x="186.154297"/>
      <use xlink:href="#DejaVuSans-35" x="217.941406"/>
     </g>
    </g>
   </g>
   <g id="text_9">
    <g clip-path="url(#p4c433e98a5)">
     <!-- ILE 13 -->
     <g transform="translate(237.619855 252.124855) scale(0.08 -0.08)">
      <use xlink:href="#DejaVuSans-49"/>
      <use xlink:href="#DejaVuSans-4c" x="29.492188"/>
      <use xlink:href="#DejaVuSans-45" x="85.205078"/>
      <use xlink:href="#DejaVuSans-20" x="148.388672"/>
      <use xlink:href="#DejaVuSans-31" x="180.175781"/>
      <use xlink:href="#DejaVuSans-33" x="243.798828"/>
     </g>
    </g>
   </g>
   <g id="text_10">
    <g clip-path="url(#p4c433e98a5)">
     <!-- VAL 17 -->
     <g transform="translate(1371.991341 1345.702264) scale(0.08 -0.08)">
      <defs>
       <path id="DejaVuSans-37" d="M 525 4666 
L 3525 4666 
L 3525 4397 
L 1831 0 
L 1172 0 
L 2766 4134 
L 525 4134 
L 525 4666 
z
" transform="scale(0.015625)"/>
      </defs>
      <use xlink:href="#DejaVuSans-56"/>
      <use xlink:href="#DejaVuSans-41" x="62.033203"/>
      <use xlink:href="#DejaVuSans-4c" x="130.441406"/>
      <use xlink:href="#DejaVuSans-20" x="186.154297"/>
      <use xlink:href="#DejaVuSans-31" x="217.941406"/>
      <use xlink:href="#DejaVuSans-37" x="281.564453"/>
     </g>
    </g>
   </g>
   <g id="text_11">
    <g clip-path="url(#p4c433e98a5)">
     <!-- ILE 61 -->
     <g transform="translate(2219.195653 1941.295122) scale(0.08 -0.08)">
      <use xlink:href="#DejaVuSans-49"/>
      <use xlink:href="#DejaVuSans-4c" x="29.492188"/>
      <use xlink:href="#DejaVuSans-45" x="85.205078"/>
      <use xlink:href="#DejaVuSans-20" x="148.388672"/>
      <use xlink:href="#DejaVuSans-36" x="180.175781"/>
      <use xlink:href="#DejaVuSans-31" x="243.798828"/>
     </g>
    </g>
   </g>
   <g id="text_12">
    <g clip-path="url(#p4c433e98a5)">
     <!-- LEU 50 -->
     <g transform="translate(2270.346418 2552.709251) scale(0.08 -0.08)">
      <use xlink:href="#DejaVuSans-4c"/>
      <use xlink:href="#DejaVuSans-45" x="55.712891"/>
      <use xlink:href="#DejaVuSans-55" x="118.896484"/>
      <use xlink:href="#DejaVuSans-20" x="192.089844"/>
      <use xlink:href="#DejaVuSans-35" x="223.876953"/>
      <use xlink:href="#DejaVuSans-30" x="287.5"/>
     </g>
    </g>
   </g>
   <g id="text_13">
    <g clip-path="url(#p4c433e98a5)">
     <!-- LEU 67 -->
     <g transform="translate(2616.037645 1772.483824) scale(0.08 -0.08)">
      <use xlink:href="#DejaVuSans-4c"/>
      <use xlink:href="#DejaVuSans-45" x="55.712891"/>
      <use xlink:href="#DejaVuSans-55" x="118.896484"/>
      <use xlink:href="#DejaVuSans-20" x="192.089844"/>
      <use xlink:href="#DejaVuSans-36" x="223.876953"/>
      <use xlink:href="#DejaVuSans-37" x="287.5"/>
     </g>
    </g>
   </g>
  </g>
  <g id="text_14">
   <!-- G_NMR -->
   <g transform="translate(1418.51625 66.50625) scale(0.12 -0.12)">
    <defs>
     <path id="DejaVuSans-47" d="M 3809 666 
L 3809 1919 
L 2778 1919 
L 2778 2438 
L 4434 2438 
L 4434 434 
Q 4069 175 3628 42 
Q 3188 -91 2688 -91 
Q 1594 -91 976 548 
Q 359 1188 359 2328 
Q 359 3472 976 4111 
Q 1594 4750 2688 4750 
Q 3144 4750 3555 4637 
Q 3966 4525 4313 4306 
L 4313 3634 
Q 3963 3931 3569 4081 
Q 3175 4231 2741 4231 
Q 1884 4231 1454 3753 
Q 1025 3275 1025 2328 
Q 1025 1384 1454 906 
Q 1884 428 2741 428 
Q 3075 428 3337 486 
Q 3600 544 3809 666 
z
" transform="scale(0.015625)"/>
     <path id="DejaVuSans-5f" d="M 3263 -1063 
L 3263 -1509 
L -63 -1509 
L -63 -1063 
L 3263 -1063 
z
" transform="scale(0.015625)"/>
     <path id="DejaVuSans-4e" d="M 628 4666 
L 1478 4666 
L 3547 763 
L 3547 4666 
L 4159 4666 
L 4159 0 
L 3309 0 
L 1241 3903 
L 1241 0 
L 628 0 
L 628 4666 
z
" transform="scale(0.015625)"/>
     <path id="DejaVuSans-4d" d="M 628 4666 
L 1569 4666 
L 2759 1491 
L 3956 4666 
L 4897 4666 
L 4897 0 
L 4281 0 
L 4281 4097 
L 3078 897 
L 2444 897 
L 1241 4097 
L 1241 0 
L 628 0 
L 628 4666 
z
" transform="scale(0.015625)"/>
     <path id="DejaVuSans-52" d="M 2841 2188 
Q 3044 2119 3236 1894 
Q 3428 1669 3622 1275 
L 4263 0 
L 3584 0 
L 2988 1197 
Q 2756 1666 2539 1819 
Q 2322 1972 1947 1972 
L 1259 1972 
L 1259 0 
L 628 0 
L 628 4666 
L 2053 4666 
Q 2853 4666 3247 4331 
Q 3641 3997 3641 3322 
Q 3641 2881 3436 2590 
Q 3231 2300 2841 2188 
z
M 1259 4147 
L 1259 2491 
L 2053 2491 
Q 2509 2491 2742 2702 
Q 2975 2913 2975 3322 
Q 2975 3731 2742 3939 
Q 2509 4147 2053 4147 
L 1259 4147 
z
" transform="scale(0.015625)"/>
    </defs>
    <use xlink:href="#DejaVuSans-47"/>
    <use xlink:href="#DejaVuSans-5f" x="77.490234"/>
    <use xlink:href="#DejaVuSans-4e" x="127.490234"/>
    <use xlink:href="#DejaVuSans-4d" x="202.294922"/>
    <use xlink:href="#DejaVuSans-52" x="288.574219"/>
   </g>
  </g>
 </g>
 <defs>
  <clipPath id="p4c433e98a5">
   <rect x="0" y="0" width="2880" height="2880"/>
  </clipPath>
 </defs>
</svg>
