<?xml version="1.0" encoding="utf-8" standalone="no"?>
<!DOCTYPE svg PUBLIC "-//W3C//DTD SVG 1.1//EN"
  "http://www.w3.org/Graphics/SVG/1.1/DTD/svg11.dtd">
<svg xmlns:xlink="http://www.w3.org/1999/xlink" width="2880pt" height="2880pt" viewBox="0 0 2880 2880" xmlns="http://www.w3.org/2000/svg" version="1.1">
 <metadata>
  <rdf:RDF xmlns:dc="http://purl.org/dc/elements/1.1/" xmlns:cc="http://creativecommons.org/ns#" xmlns:rdf="http://www.w3.org/1999/02/22-rdf-syntax-ns#">
   <cc:Work>
    <dc:type rdf:resource="http://purl.org/dc/dcmitype/StillImage"/>
    <dc:date>2024-02-24T15:27:41.577961</dc:date>
    <dc:format>image/svg+xml</dc:format>
    <dc:creator>
     <cc:Agent>
      <dc:title>Matplotlib v3.8.2, https://matplotlib.org/</dc:title>
     </cc:Agent>
    </dc:creator>
   </cc:Work>
  </rdf:RDF>
 </metadata>
 <defs>
  <style type="text/css">*{stroke-linejoin: round; stroke-linecap: butt}</style>
 </defs>
 <g id="figure_1">
  <g id="patch_1">
   <path d="M 0 2880 
L 2880 2880 
L 2880 0 
L 0 0 
z
" style="fill: #ffffff"/>
  </g>
  <g id="axes_1">
   <g id="patch_2">
    <path d="M 929.46478 2206.516985 
Q 916.032499 2110.467477 902.631188 2014.639421 
" clip-path="url(#p87c5212a72)" style="fill: none; stroke: #000000; stroke-width: 0.2; stroke-linecap: round"/>
    <path d="M 901.204462 2018.87787 
L 902.631188 2014.639421 
L 905.165912 2018.323872 
z
" clip-path="url(#p87c5212a72)" style="stroke: #000000; stroke-width: 0.2; stroke-linecap: round"/>
   </g>
   <g id="patch_3">
    <path d="M 923.778517 2208.631626 
Q 826.09616 2056.662628 728.53471 1904.881731 
" clip-path="url(#p87c5212a72)" style="fill: none; stroke: #000000; stroke-width: 0.2; stroke-linecap: round"/>
    <path d="M 729.015135 1909.327987 
L 728.53471 1904.881731 
L 732.37997 1907.165144 
z
" clip-path="url(#p87c5212a72)" style="stroke: #000000; stroke-width: 0.2; stroke-linecap: round"/>
   </g>
   <g id="patch_4">
    <path d="M 921.535645 2210.418041 
Q 896.741215 2185.072961 872.103152 2159.887722 
" clip-path="url(#p87c5212a72)" style="fill: none; stroke: #000000; stroke-width: 0.2; stroke-linecap: round"/>
    <path d="M 873.470689 2164.145637 
L 872.103152 2159.887722 
L 876.330007 2161.348441 
z
" clip-path="url(#p87c5212a72)" style="stroke: #000000; stroke-width: 0.2; stroke-linecap: round"/>
   </g>
   <g id="patch_5">
    <path d="M 939.16296 2232.359015 
Q 1065.351196 2425.302251 1191.417041 2618.05835 
" clip-path="url(#p87c5212a72)" style="fill: none; stroke: #000000; stroke-width: 0.2; stroke-linecap: round"/>
    <path d="M 1190.90145 2613.616035 
L 1191.417041 2618.05835 
L 1187.553834 2615.805434 
z
" clip-path="url(#p87c5212a72)" style="stroke: #000000; stroke-width: 0.2; stroke-linecap: round"/>
   </g>
   <g id="patch_6">
    <path d="M 922.500914 2209.55205 
Q 833.536112 2100.139507 744.712378 1990.900457 
" clip-path="url(#p87c5212a72)" style="fill: none; stroke: #000000; stroke-width: 0.2; stroke-linecap: round"/>
    <path d="M 745.684133 1995.265739 
L 744.712378 1990.900457 
L 748.787657 1992.742222 
z
" clip-path="url(#p87c5212a72)" style="stroke: #000000; stroke-width: 0.2; stroke-linecap: round"/>
   </g>
   <g id="patch_7">
    <path d="M 901.971454 1986.334806 
Q 912.110819 1878.976885 922.229159 1771.841579 
" clip-path="url(#p87c5212a72)" style="fill: none; stroke: #000000; stroke-width: 0.2; stroke-linecap: round"/>
    <path d="M 919.861915 1775.635806 
L 922.229159 1771.841579 
L 923.844194 1776.01191 
z
" clip-path="url(#p87c5212a72)" style="stroke: #000000; stroke-width: 0.2; stroke-linecap: round"/>
   </g>
   <g id="patch_8">
    <path d="M 902.60088 2014.4227 
Q 916.033161 2110.472208 929.434472 2206.300264 
" clip-path="url(#p87c5212a72)" style="fill: none; stroke: #000000; stroke-width: 0.2; stroke-linecap: round"/>
    <path d="M 930.861198 2202.061815 
L 929.434472 2206.300264 
L 926.899748 2202.615813 
z
" clip-path="url(#p87c5212a72)" style="stroke: #000000; stroke-width: 0.2; stroke-linecap: round"/>
   </g>
   <g id="patch_9">
    <path d="M 888.507587 1993.154084 
Q 810.704682 1946.6057 733.093665 1900.172118 
" clip-path="url(#p87c5212a72)" style="fill: none; stroke: #000000; stroke-width: 0.2; stroke-linecap: round"/>
    <path d="M 735.499402 1903.942056 
L 733.093665 1900.172118 
L 737.553057 1900.509491 
z
" clip-path="url(#p87c5212a72)" style="stroke: #000000; stroke-width: 0.2; stroke-linecap: round"/>
   </g>
   <g id="patch_10">
    <path d="M 897.100883 2014.105659 
Q 881.348919 2075.015185 865.652939 2135.708227 
" clip-path="url(#p87c5212a72)" style="fill: none; stroke: #000000; stroke-width: 0.2; stroke-linecap: round"/>
    <path d="M 868.590739 2132.336382 
L 865.652939 2135.708227 
L 864.718143 2131.334881 
z
" clip-path="url(#p87c5212a72)" style="stroke: #000000; stroke-width: 0.2; stroke-linecap: round"/>
   </g>
   <g id="patch_11">
    <path d="M 713.558364 1880.632316 
Q 636.085994 1749.895133 558.727617 1619.350319 
" clip-path="url(#p87c5212a72)" style="fill: none; stroke: #000000; stroke-width: 0.2; stroke-linecap: round"/>
    <path d="M 559.046206 1623.811092 
L 558.727617 1619.350319 
L 562.487389 1621.771912 
z
" clip-path="url(#p87c5212a72)" style="stroke: #000000; stroke-width: 0.2; stroke-linecap: round"/>
   </g>
   <g id="patch_12">
    <path d="M 732.529982 1884.952524 
Q 822.173564 1825.168221 911.631115 1765.507984 
" clip-path="url(#p87c5212a72)" style="fill: none; stroke: #000000; stroke-width: 0.2; stroke-linecap: round"/>
    <path d="M 907.193608 1766.063435 
L 911.631115 1765.507984 
L 909.412972 1769.391261 
z
" clip-path="url(#p87c5212a72)" style="stroke: #000000; stroke-width: 0.2; stroke-linecap: round"/>
   </g>
   <g id="patch_13">
    <path d="M 732.901294 1900.057026 
Q 810.704198 1946.60541 888.315216 1993.038992 
" clip-path="url(#p87c5212a72)" style="fill: none; stroke: #000000; stroke-width: 0.2; stroke-linecap: round"/>
    <path d="M 885.909479 1989.269054 
L 888.315216 1993.038992 
L 883.855824 1992.701619 
z
" clip-path="url(#p87c5212a72)" style="stroke: #000000; stroke-width: 0.2; stroke-linecap: round"/>
   </g>
   <g id="patch_14">
    <path d="M 728.412483 1904.691577 
Q 826.09484 2056.660575 923.65629 2208.441473 
" clip-path="url(#p87c5212a72)" style="fill: none; stroke: #000000; stroke-width: 0.2; stroke-linecap: round"/>
    <path d="M 923.175865 2203.995217 
L 923.65629 2208.441473 
L 919.811031 2206.158059 
z
" clip-path="url(#p87c5212a72)" style="stroke: #000000; stroke-width: 0.2; stroke-linecap: round"/>
   </g>
   <g id="patch_15">
    <path d="M 723.152996 1906.737461 
Q 728.208996 1936.278432 733.227273 1965.599002 
" clip-path="url(#p87c5212a72)" style="fill: none; stroke: #000000; stroke-width: 0.2; stroke-linecap: round"/>
    <path d="M 734.523812 1961.318933 
L 733.227273 1965.599002 
L 730.581141 1961.993729 
z
" clip-path="url(#p87c5212a72)" style="stroke: #000000; stroke-width: 0.2; stroke-linecap: round"/>
   </g>
   <g id="patch_16">
    <path d="M 707.80429 1887.152265 
Q 651.654547 1862.700171 595.709814 1838.337355 
" clip-path="url(#p87c5212a72)" style="fill: none; stroke: #000000; stroke-width: 0.2; stroke-linecap: round"/>
    <path d="M 598.578631 1841.768082 
L 595.709814 1838.337355 
L 600.175686 1838.100738 
z
" clip-path="url(#p87c5212a72)" style="stroke: #000000; stroke-width: 0.2; stroke-linecap: round"/>
   </g>
   <g id="patch_17">
    <path d="M 865.596764 2135.925447 
Q 881.348728 2075.015921 897.044708 2014.32288 
" clip-path="url(#p87c5212a72)" style="fill: none; stroke: #000000; stroke-width: 0.2; stroke-linecap: round"/>
    <path d="M 894.106908 2017.694724 
L 897.044708 2014.32288 
L 897.979504 2018.696226 
z
" clip-path="url(#p87c5212a72)" style="stroke: #000000; stroke-width: 0.2; stroke-linecap: round"/>
   </g>
   <g id="patch_18">
    <path d="M 871.944121 2159.725159 
Q 896.738551 2185.070239 921.376614 2210.255478 
" clip-path="url(#p87c5212a72)" style="fill: none; stroke: #000000; stroke-width: 0.2; stroke-linecap: round"/>
    <path d="M 920.009077 2205.997562 
L 921.376614 2210.255478 
L 917.14976 2208.794758 
z
" clip-path="url(#p87c5212a72)" style="stroke: #000000; stroke-width: 0.2; stroke-linecap: round"/>
   </g>
   <g id="patch_19">
    <path d="M 870.178284 2161.189798 
Q 1030.668403 2389.849828 1191.030062 2618.326833 
" clip-path="url(#p87c5212a72)" style="fill: none; stroke: #000000; stroke-width: 0.2; stroke-linecap: round"/>
    <path d="M 1190.369123 2613.903807 
L 1191.030062 2618.326833 
L 1187.095078 2616.201768 
z
" clip-path="url(#p87c5212a72)" style="stroke: #000000; stroke-width: 0.2; stroke-linecap: round"/>
   </g>
   <g id="patch_20">
    <path d="M 744.783412 1968.95584 
Q 829.616003 1868.646157 914.304202 1768.50721 
" clip-path="url(#p87c5212a72)" style="fill: none; stroke: #000000; stroke-width: 0.2; stroke-linecap: round"/>
    <path d="M 910.19412 1770.269941 
L 914.304202 1768.50721 
L 913.248338 1772.852915 
z
" clip-path="url(#p87c5212a72)" style="stroke: #000000; stroke-width: 0.2; stroke-linecap: round"/>
   </g>
   <g id="patch_21">
    <path d="M 744.573142 1990.729219 
Q 833.537945 2100.141761 922.361678 2209.380812 
" clip-path="url(#p87c5212a72)" style="fill: none; stroke: #000000; stroke-width: 0.2; stroke-linecap: round"/>
    <path d="M 921.389923 2205.015529 
L 922.361678 2209.380812 
L 918.286399 2207.539046 
z
" clip-path="url(#p87c5212a72)" style="stroke: #000000; stroke-width: 0.2; stroke-linecap: round"/>
   </g>
   <g id="patch_22">
    <path d="M 733.264281 1965.815233 
Q 728.208282 1936.274262 723.190004 1906.953692 
" clip-path="url(#p87c5212a72)" style="fill: none; stroke: #000000; stroke-width: 0.2; stroke-linecap: round"/>
    <path d="M 721.893466 1911.233761 
L 723.190004 1906.953692 
L 725.836136 1910.558965 
z
" clip-path="url(#p87c5212a72)" style="stroke: #000000; stroke-width: 0.2; stroke-linecap: round"/>
   </g>
   <g id="patch_23">
    <path d="M 725.452458 1969.954355 
Q 659.094488 1906.177667 592.897736 1842.555926 
" clip-path="url(#p87c5212a72)" style="fill: none; stroke: #000000; stroke-width: 0.2; stroke-linecap: round"/>
    <path d="M 594.395809 1846.769686 
L 592.897736 1842.555926 
L 597.167588 1843.885723 
z
" clip-path="url(#p87c5212a72)" style="stroke: #000000; stroke-width: 0.2; stroke-linecap: round"/>
   </g>
   <g id="patch_24">
    <path d="M 539.004245 1600.192853 
Q 413.132797 1531.154446 287.457403 1462.223571 
" clip-path="url(#p87c5212a72)" style="fill: none; stroke: #000000; stroke-width: 0.2; stroke-linecap: round"/>
    <path d="M 290.002715 1465.900715 
L 287.457403 1462.223571 
L 291.926305 1462.393608 
z
" clip-path="url(#p87c5212a72)" style="stroke: #000000; stroke-width: 0.2; stroke-linecap: round"/>
   </g>
   <g id="patch_25">
    <path d="M 547.366362 1593.439951 
Q 511.569122 1473.325402 475.835746 1353.425144 
" clip-path="url(#p87c5212a72)" style="fill: none; stroke: #000000; stroke-width: 0.2; stroke-linecap: round"/>
    <path d="M 475.061502 1357.829749 
L 475.835746 1353.425144 
L 478.894884 1356.687303 
z
" clip-path="url(#p87c5212a72)" style="stroke: #000000; stroke-width: 0.2; stroke-linecap: round"/>
   </g>
   <g id="patch_26">
    <path d="M 564.515934 1612.297992 
Q 737.493825 1682.267451 910.264427 1752.15306 
" clip-path="url(#p87c5212a72)" style="fill: none; stroke: #000000; stroke-width: 0.2; stroke-linecap: round"/>
    <path d="M 907.306268 1748.799062 
L 910.264427 1752.15306 
L 905.806333 1752.507188 
z
" clip-path="url(#p87c5212a72)" style="stroke: #000000; stroke-width: 0.2; stroke-linecap: round"/>
   </g>
   <g id="patch_27">
    <path d="M 558.61489 1619.160088 
Q 636.08726 1749.897271 713.445637 1880.442086 
" clip-path="url(#p87c5212a72)" style="fill: none; stroke: #000000; stroke-width: 0.2; stroke-linecap: round"/>
    <path d="M 713.127049 1875.981312 
L 713.445637 1880.442086 
L 709.685865 1878.020492 
z
" clip-path="url(#p87c5212a72)" style="stroke: #000000; stroke-width: 0.2; stroke-linecap: round"/>
   </g>
   <g id="patch_28">
    <path d="M 910.470152 1752.236276 
Q 737.49226 1682.266817 564.721659 1612.381208 
" clip-path="url(#p87c5212a72)" style="fill: none; stroke: #000000; stroke-width: 0.2; stroke-linecap: round"/>
    <path d="M 567.679818 1615.735206 
L 564.721659 1612.381208 
L 569.179752 1612.02708 
z
" clip-path="url(#p87c5212a72)" style="stroke: #000000; stroke-width: 0.2; stroke-linecap: round"/>
   </g>
   <g id="patch_29">
    <path d="M 936.908089 1752.81484 
Q 1236.25904 1646.705933 1535.399234 1540.671732 
" clip-path="url(#p87c5212a72)" style="fill: none; stroke: #000000; stroke-width: 0.2; stroke-linecap: round"/>
    <path d="M 1530.960886 1540.123036 
L 1535.399234 1540.671732 
L 1532.297268 1543.893193 
z
" clip-path="url(#p87c5212a72)" style="stroke: #000000; stroke-width: 0.2; stroke-linecap: round"/>
   </g>
   <g id="patch_30">
    <path d="M 922.250259 1771.618168 
Q 912.110894 1878.97609 901.992553 1986.111395 
" clip-path="url(#p87c5212a72)" style="fill: none; stroke: #000000; stroke-width: 0.2; stroke-linecap: round"/>
    <path d="M 904.359797 1982.317168 
L 901.992553 1986.111395 
L 900.377518 1981.941064 
z
" clip-path="url(#p87c5212a72)" style="stroke: #000000; stroke-width: 0.2; stroke-linecap: round"/>
   </g>
   <g id="patch_31">
    <path d="M 911.81707 1765.383968 
Q 822.173488 1825.168272 732.715937 1884.828509 
" clip-path="url(#p87c5212a72)" style="fill: none; stroke: #000000; stroke-width: 0.2; stroke-linecap: round"/>
    <path d="M 737.153445 1884.273057 
L 732.715937 1884.828509 
L 734.934081 1880.945232 
z
" clip-path="url(#p87c5212a72)" style="stroke: #000000; stroke-width: 0.2; stroke-linecap: round"/>
   </g>
   <g id="patch_32">
    <path d="M 914.446697 1768.338717 
Q 829.614106 1868.648401 744.925907 1968.787348 
" clip-path="url(#p87c5212a72)" style="fill: none; stroke: #000000; stroke-width: 0.2; stroke-linecap: round"/>
    <path d="M 749.035989 1967.024617 
L 744.925907 1968.787348 
L 745.981771 1964.441643 
z
" clip-path="url(#p87c5212a72)" style="stroke: #000000; stroke-width: 0.2; stroke-linecap: round"/>
   </g>
   <g id="patch_33">
    <path d="M 909.766387 1760.579599 
Q 753.060839 1795.071143 596.57367 1829.514621 
" clip-path="url(#p87c5212a72)" style="fill: none; stroke: #000000; stroke-width: 0.2; stroke-linecap: round"/>
    <path d="M 600.91008 1830.608032 
L 596.57367 1829.514621 
L 600.050245 1826.70154 
z
" clip-path="url(#p87c5212a72)" style="stroke: #000000; stroke-width: 0.2; stroke-linecap: round"/>
   </g>
   <g id="patch_34">
    <path d="M 596.35558 1829.562624 
Q 753.061128 1795.07108 909.548297 1760.627602 
" clip-path="url(#p87c5212a72)" style="fill: none; stroke: #000000; stroke-width: 0.2; stroke-linecap: round"/>
    <path d="M 905.211886 1759.534191 
L 909.548297 1760.627602 
L 906.071722 1763.440683 
z
" clip-path="url(#p87c5212a72)" style="stroke: #000000; stroke-width: 0.2; stroke-linecap: round"/>
   </g>
   <g id="patch_35">
    <path d="M 595.504845 1838.248095 
Q 651.654588 1862.700189 707.599321 1887.063004 
" clip-path="url(#p87c5212a72)" style="fill: none; stroke: #000000; stroke-width: 0.2; stroke-linecap: round"/>
    <path d="M 704.730504 1883.632277 
L 707.599321 1887.063004 
L 703.133449 1887.299621 
z
" clip-path="url(#p87c5212a72)" style="stroke: #000000; stroke-width: 0.2; stroke-linecap: round"/>
   </g>
   <g id="patch_36">
    <path d="M 592.739733 1842.404069 
Q 659.097704 1906.180758 725.294456 1969.802499 
" clip-path="url(#p87c5212a72)" style="fill: none; stroke: #000000; stroke-width: 0.2; stroke-linecap: round"/>
    <path d="M 723.796382 1965.588739 
L 725.294456 1969.802499 
L 721.024603 1968.472702 
z
" clip-path="url(#p87c5212a72)" style="stroke: #000000; stroke-width: 0.2; stroke-linecap: round"/>
   </g>
   <g id="patch_37">
    <path d="M 1547.33377 1521.823736 
Q 1528.977762 1361.40966 1510.647174 1201.217741 
" clip-path="url(#p87c5212a72)" style="fill: none; stroke: #000000; stroke-width: 0.2; stroke-linecap: round"/>
    <path d="M 1509.114889 1205.419182 
L 1510.647174 1201.217741 
L 1513.088956 1204.964434 
z
" clip-path="url(#p87c5212a72)" style="stroke: #000000; stroke-width: 0.2; stroke-linecap: round"/>
   </g>
   <g id="patch_38">
    <path d="M 1539.456863 1525.378837 
Q 1271.887925 1229.3625 1004.468929 933.512046 
" clip-path="url(#p87c5212a72)" style="fill: none; stroke: #000000; stroke-width: 0.2; stroke-linecap: round"/>
    <path d="M 1005.667466 937.820585 
L 1004.468929 933.512046 
L 1008.634883 935.13834 
z
" clip-path="url(#p87c5212a72)" style="stroke: #000000; stroke-width: 0.2; stroke-linecap: round"/>
   </g>
   <g id="patch_39">
    <path d="M 1535.613104 1540.595923 
Q 1236.262152 1646.70483 937.121959 1752.739031 
" clip-path="url(#p87c5212a72)" style="fill: none; stroke: #000000; stroke-width: 0.2; stroke-linecap: round"/>
    <path d="M 941.560306 1753.287728 
L 937.121959 1752.739031 
L 940.223924 1749.517571 
z
" clip-path="url(#p87c5212a72)" style="stroke: #000000; stroke-width: 0.2; stroke-linecap: round"/>
   </g>
   <g id="patch_40">
    <path d="M 1560.314807 1544.27636 
Q 1958.151003 1838.267386 2355.807367 2132.125521 
" clip-path="url(#p87c5212a72)" style="fill: none; stroke: #000000; stroke-width: 0.2; stroke-linecap: round"/>
    <path d="M 2353.779044 2128.139808 
L 2355.807367 2132.125521 
L 2351.401803 2131.356751 
z
" clip-path="url(#p87c5212a72)" style="stroke: #000000; stroke-width: 0.2; stroke-linecap: round"/>
   </g>
   <g id="patch_41">
    <path d="M 287.052908 1448.150806 
Q 373.296607 1397.48764 459.347504 1346.937735 
" clip-path="url(#p87c5212a72)" style="fill: none; stroke: #000000; stroke-width: 0.2; stroke-linecap: round"/>
    <path d="M 454.885548 1347.239316 
L 459.347504 1346.937735 
L 456.911596 1350.688248 
z
" clip-path="url(#p87c5212a72)" style="stroke: #000000; stroke-width: 0.2; stroke-linecap: round"/>
   </g>
   <g id="patch_42">
    <path d="M 287.261307 1462.116016 
Q 413.132754 1531.154423 538.808149 1600.085298 
" clip-path="url(#p87c5212a72)" style="fill: none; stroke: #000000; stroke-width: 0.2; stroke-linecap: round"/>
    <path d="M 536.262837 1596.408154 
L 538.808149 1600.085298 
L 534.339246 1599.915261 
z
" clip-path="url(#p87c5212a72)" style="stroke: #000000; stroke-width: 0.2; stroke-linecap: round"/>
   </g>
   <g id="patch_43">
    <path d="M 459.540322 1346.824466 
Q 373.296623 1397.487631 287.245726 1448.037536 
" clip-path="url(#p87c5212a72)" style="fill: none; stroke: #000000; stroke-width: 0.2; stroke-linecap: round"/>
    <path d="M 291.707681 1447.735955 
L 287.245726 1448.037536 
L 289.681634 1444.287023 
z
" clip-path="url(#p87c5212a72)" style="stroke: #000000; stroke-width: 0.2; stroke-linecap: round"/>
   </g>
   <g id="patch_44">
    <path d="M 480.867408 1328.86871 
Q 574.475732 1218.255619 667.939607 1107.813217 
" clip-path="url(#p87c5212a72)" style="fill: none; stroke: #000000; stroke-width: 0.2; stroke-linecap: round"/>
    <path d="M 663.828948 1109.574604 
L 667.939607 1107.813217 
L 666.882321 1112.158576 
z
" clip-path="url(#p87c5212a72)" style="stroke: #000000; stroke-width: 0.2; stroke-linecap: round"/>
   </g>
   <g id="patch_45">
    <path d="M 475.773604 1353.216631 
Q 511.570844 1473.33118 547.30422 1593.231438 
" clip-path="url(#p87c5212a72)" style="fill: none; stroke: #000000; stroke-width: 0.2; stroke-linecap: round"/>
    <path d="M 548.078464 1588.826833 
L 547.30422 1593.231438 
L 544.245082 1589.969279 
z
" clip-path="url(#p87c5212a72)" style="stroke: #000000; stroke-width: 0.2; stroke-linecap: round"/>
   </g>
   <g id="patch_46">
    <path d="M 668.085546 1107.640767 
Q 574.477222 1218.253858 481.013348 1328.69626 
" clip-path="url(#p87c5212a72)" style="fill: none; stroke: #000000; stroke-width: 0.2; stroke-linecap: round"/>
    <path d="M 485.124006 1326.934873 
L 481.013348 1328.69626 
L 482.070633 1324.350901 
z
" clip-path="url(#p87c5212a72)" style="stroke: #000000; stroke-width: 0.2; stroke-linecap: round"/>
   </g>
   <g id="patch_47">
    <path d="M 689.623574 1090.052662 
Q 836.027066 1009.85083 982.234448 929.756428 
" clip-path="url(#p87c5212a72)" style="fill: none; stroke: #000000; stroke-width: 0.2; stroke-linecap: round"/>
    <path d="M 977.765459 929.924163 
L 982.234448 929.756428 
L 979.687243 933.432261 
z
" clip-path="url(#p87c5212a72)" style="stroke: #000000; stroke-width: 0.2; stroke-linecap: round"/>
   </g>
   <g id="patch_48">
    <path d="M 1496.433424 1180.484443 
Q 1251.923656 1054.899497 1007.612792 929.416712 
" clip-path="url(#p87c5212a72)" style="fill: none; stroke: #000000; stroke-width: 0.2; stroke-linecap: round"/>
    <path d="M 1010.257148 933.023286 
L 1007.612792 929.416712 
L 1012.084665 929.465171 
z
" clip-path="url(#p87c5212a72)" style="stroke: #000000; stroke-width: 0.2; stroke-linecap: round"/>
   </g>
   <g id="patch_49">
    <path d="M 1510.621568 1200.993964 
Q 1528.977576 1361.40804 1547.308164 1521.599959 
" clip-path="url(#p87c5212a72)" style="fill: none; stroke: #000000; stroke-width: 0.2; stroke-linecap: round"/>
    <path d="M 1548.840449 1517.398519 
L 1547.308164 1521.599959 
L 1544.866382 1517.853267 
z
" clip-path="url(#p87c5212a72)" style="stroke: #000000; stroke-width: 0.2; stroke-linecap: round"/>
   </g>
   <g id="patch_50">
    <path d="M 1504.444312 1173.563726 
Q 1456.344349 1032.705095 1408.316647 892.058073 
" clip-path="url(#p87c5212a72)" style="fill: none; stroke: #000000; stroke-width: 0.2; stroke-linecap: round"/>
    <path d="M 1407.716576 896.489768 
L 1408.316647 892.058073 
L 1411.501959 895.197147 
z
" clip-path="url(#p87c5212a72)" style="stroke: #000000; stroke-width: 0.2; stroke-linecap: round"/>
   </g>
   <g id="patch_51">
    <path d="M 1497.666828 1178.501403 
Q 879.464567 718.430876 261.441689 258.493847 
" clip-path="url(#p87c5212a72)" style="fill: none; stroke: #000000; stroke-width: 0.2; stroke-linecap: round"/>
    <path d="M 263.456547 262.486384 
L 261.441689 258.493847 
L 265.844633 259.277483 
z
" clip-path="url(#p87c5212a72)" style="stroke: #000000; stroke-width: 0.2; stroke-linecap: round"/>
   </g>
   <g id="patch_52">
    <path d="M 1522.840132 1189.931979 
Q 2069.549148 1307.998919 2616.039596 1426.018657 
" clip-path="url(#p87c5212a72)" style="fill: none; stroke: #000000; stroke-width: 0.2; stroke-linecap: round"/>
    <path d="M 2612.551918 1423.219354 
L 2616.039596 1426.018657 
L 2611.707546 1427.129218 
z
" clip-path="url(#p87c5212a72)" style="stroke: #000000; stroke-width: 0.2; stroke-linecap: round"/>
   </g>
   <g id="patch_53">
    <path d="M 1518.473657 1197.456723 
Q 1938.188751 1663.80575 2357.754259 2129.988571 
" clip-path="url(#p87c5212a72)" style="fill: none; stroke: #000000; stroke-width: 0.2; stroke-linecap: round"/>
    <path d="M 2356.564984 2125.677466 
L 2357.754259 2129.988571 
L 2353.59181 2128.353329 
z
" clip-path="url(#p87c5212a72)" style="stroke: #000000; stroke-width: 0.2; stroke-linecap: round"/>
   </g>
   <g id="patch_54">
    <path d="M 1007.415553 929.315406 
Q 1251.925321 1054.900352 1496.236185 1180.383137 
" clip-path="url(#p87c5212a72)" style="fill: none; stroke: #000000; stroke-width: 0.2; stroke-linecap: round"/>
    <path d="M 1493.591829 1176.776563 
L 1496.236185 1180.383137 
L 1491.764312 1180.334678 
z
" clip-path="url(#p87c5212a72)" style="stroke: #000000; stroke-width: 0.2; stroke-linecap: round"/>
   </g>
   <g id="patch_55">
    <path d="M 982.430447 929.649057 
Q 836.026956 1009.85089 689.819573 1089.945291 
" clip-path="url(#p87c5212a72)" style="fill: none; stroke: #000000; stroke-width: 0.2; stroke-linecap: round"/>
    <path d="M 694.288562 1089.777556 
L 689.819573 1089.945291 
L 692.366779 1086.269459 
z
" clip-path="url(#p87c5212a72)" style="stroke: #000000; stroke-width: 0.2; stroke-linecap: round"/>
   </g>
   <g id="patch_56">
    <path d="M 1004.319277 933.346483 
Q 1271.888215 1229.36282 1539.307211 1525.213274 
" clip-path="url(#p87c5212a72)" style="fill: none; stroke: #000000; stroke-width: 0.2; stroke-linecap: round"/>
    <path d="M 1538.108674 1520.904735 
L 1539.307211 1525.213274 
L 1535.141257 1523.58698 
z
" clip-path="url(#p87c5212a72)" style="stroke: #000000; stroke-width: 0.2; stroke-linecap: round"/>
   </g>
   <g id="patch_57">
    <path d="M 1008.893065 921.327199 
Q 1199.254669 900.656402 1389.393972 880.009744 
" clip-path="url(#p87c5212a72)" style="fill: none; stroke: #000000; stroke-width: 0.2; stroke-linecap: round"/>
    <path d="M 1385.201443 878.453241 
L 1389.393972 880.009744 
L 1385.633253 882.429865 
z
" clip-path="url(#p87c5212a72)" style="stroke: #000000; stroke-width: 0.2; stroke-linecap: round"/>
   </g>
   <g id="patch_58">
    <path d="M 984.340732 913.373624 
Q 622.375045 586.384572 260.575285 259.545413 
" clip-path="url(#p87c5212a72)" style="fill: none; stroke: #000000; stroke-width: 0.2; stroke-linecap: round"/>
    <path d="M 262.202792 263.710893 
L 260.575285 259.545413 
L 264.884173 260.742695 
z
" clip-path="url(#p87c5212a72)" style="stroke: #000000; stroke-width: 0.2; stroke-linecap: round"/>
   </g>
   <g id="patch_59">
    <path d="M 1408.242733 891.84162 
Q 1456.342695 1032.700251 1504.370398 1173.347273 
" clip-path="url(#p87c5212a72)" style="fill: none; stroke: #000000; stroke-width: 0.2; stroke-linecap: round"/>
    <path d="M 1504.970469 1168.915579 
L 1504.370398 1173.347273 
L 1501.185085 1170.2082 
z
" clip-path="url(#p87c5212a72)" style="stroke: #000000; stroke-width: 0.2; stroke-linecap: round"/>
   </g>
   <g id="patch_60">
    <path d="M 1389.614781 879.985767 
Q 1199.253178 900.656564 1009.113874 921.303222 
" clip-path="url(#p87c5212a72)" style="fill: none; stroke: #000000; stroke-width: 0.2; stroke-linecap: round"/>
    <path d="M 1013.306403 922.859725 
L 1009.113874 921.303222 
L 1012.874593 918.8831 
z
" clip-path="url(#p87c5212a72)" style="stroke: #000000; stroke-width: 0.2; stroke-linecap: round"/>
   </g>
   <g id="patch_61">
    <path d="M 1391.254891 871.694129 
Q 826.796901 564.189244 262.535269 256.79133 
" clip-path="url(#p87c5212a72)" style="fill: none; stroke: #000000; stroke-width: 0.2; stroke-linecap: round"/>
    <path d="M 265.091059 260.4612 
L 262.535269 256.79133 
L 267.004638 256.94862 
z
" clip-path="url(#p87c5212a72)" style="stroke: #000000; stroke-width: 0.2; stroke-linecap: round"/>
   </g>
   <g id="patch_62">
    <path d="M 1416.573594 884.250925 
Q 2016.876214 1153.754596 2616.974842 1423.166685 
" clip-path="url(#p87c5212a72)" style="fill: none; stroke: #000000; stroke-width: 0.2; stroke-linecap: round"/>
    <path d="M 2614.144849 1419.703863 
L 2616.974842 1423.166685 
L 2612.506588 1423.352986 
z
" clip-path="url(#p87c5212a72)" style="stroke: #000000; stroke-width: 0.2; stroke-linecap: round"/>
   </g>
   <g id="PathCollection_1">
    <defs>
     <path id="C0_0_6d12a82d68" d="M 0 14.142136 
C 3.750538 14.142136 7.347969 12.652031 10 10 
C 12.652031 7.347969 14.142136 3.750538 14.142136 -0 
C 14.142136 -3.750538 12.652031 -7.347969 10 -10 
C 7.347969 -12.652031 3.750538 -14.142136 0 -14.142136 
C -3.750538 -14.142136 -7.347969 -12.652031 -10 -10 
C -12.652031 -7.347969 -14.142136 -3.750538 -14.142136 0 
C -14.142136 3.750538 -12.652031 7.347969 -10 10 
C -7.347969 12.652031 -3.750538 14.142136 0 14.142136 
z
"/>
    </defs>
    <g clip-path="url(#p87c5212a72)">
     <use xlink:href="#C0_0_6d12a82d68" x="931.42389" y="2220.525889" style="fill: #0000ff; stroke: #0000ff"/>
    </g>
    <g clip-path="url(#p87c5212a72)">
     <use xlink:href="#C0_0_6d12a82d68" x="900.64177" y="2000.413796" style="fill: #0000ff; stroke: #0000ff"/>
    </g>
    <g clip-path="url(#p87c5212a72)">
     <use xlink:href="#C0_0_6d12a82d68" x="720.767111" y="1892.797314" style="fill: #ffff00; stroke: #ffff00"/>
    </g>
    <g clip-path="url(#p87c5212a72)">
     <use xlink:href="#C0_0_6d12a82d68" x="862.055877" y="2149.617311" style="fill: #0000ff; stroke: #0000ff"/>
    </g>
    <g clip-path="url(#p87c5212a72)">
     <use xlink:href="#C0_0_6d12a82d68" x="1199.28114" y="2630.082645" style="fill: #ffff00; stroke: #ffff00"/>
    </g>
    <g clip-path="url(#p87c5212a72)">
     <use xlink:href="#C0_0_6d12a82d68" x="735.650167" y="1979.75538" style="fill: #ffa500; stroke: #ffa500"/>
    </g>
    <g clip-path="url(#p87c5212a72)">
     <use xlink:href="#C0_0_6d12a82d68" x="551.406144" y="1606.99509" style="fill: #0000ff; stroke: #0000ff"/>
    </g>
    <g clip-path="url(#p87c5212a72)">
     <use xlink:href="#C0_0_6d12a82d68" x="923.579942" y="1757.539178" style="fill: #ffff00; stroke: #ffff00"/>
    </g>
    <g clip-path="url(#p87c5212a72)">
     <use xlink:href="#C0_0_6d12a82d68" x="582.542025" y="1832.603045" style="fill: #ffff00; stroke: #ffff00"/>
    </g>
    <g clip-path="url(#p87c5212a72)">
     <use xlink:href="#C0_0_6d12a82d68" x="1548.94125" y="1535.871585" style="fill: #ffa500; stroke: #ffa500"/>
    </g>
    <g clip-path="url(#p87c5212a72)">
     <use xlink:href="#C0_0_6d12a82d68" x="274.859408" y="1455.313779" style="fill: #ffa500; stroke: #ffa500"/>
    </g>
    <g clip-path="url(#p87c5212a72)">
     <use xlink:href="#C0_0_6d12a82d68" x="471.733822" y="1339.661492" style="fill: #ffff00; stroke: #ffff00"/>
    </g>
    <g clip-path="url(#p87c5212a72)">
     <use xlink:href="#C0_0_6d12a82d68" x="677.219132" y="1096.847985" style="fill: #ffa500; stroke: #ffa500"/>
    </g>
    <g clip-path="url(#p87c5212a72)">
     <use xlink:href="#C0_0_6d12a82d68" x="1509.014088" y="1186.946115" style="fill: #ffff00; stroke: #ffff00"/>
    </g>
    <g clip-path="url(#p87c5212a72)">
     <use xlink:href="#C0_0_6d12a82d68" x="994.834889" y="922.853734" style="fill: #0000ff; stroke: #0000ff"/>
    </g>
    <g clip-path="url(#p87c5212a72)">
     <use xlink:href="#C0_0_6d12a82d68" x="2367.362788" y="2140.664689" style="fill: #ffff00; stroke: #ffff00"/>
    </g>
    <g clip-path="url(#p87c5212a72)">
     <use xlink:href="#C0_0_6d12a82d68" x="1403.672957" y="878.459231" style="fill: #0000ff; stroke: #0000ff"/>
    </g>
    <g clip-path="url(#p87c5212a72)">
     <use xlink:href="#C0_0_6d12a82d68" x="249.917355" y="249.917355" style="fill: #ffff00; stroke: #ffff00"/>
    </g>
    <g clip-path="url(#p87c5212a72)">
     <use xlink:href="#C0_0_6d12a82d68" x="2630.082645" y="1429.051386" style="fill: #ffff00; stroke: #ffff00"/>
    </g>
   </g>
   <g id="text_1">
    <g clip-path="url(#p87c5212a72)">
     <!-- VAL 90 -->
     <g transform="translate(917.61639 2222.733389) scale(0.08 -0.08)">
      <defs>
       <path id="DejaVuSans-56" d="M 1831 0 
L 50 4666 
L 709 4666 
L 2188 738 
L 3669 4666 
L 4325 4666 
L 2547 0 
L 1831 0 
z
" transform="scale(0.015625)"/>
       <path id="DejaVuSans-41" d="M 2188 4044 
L 1331 1722 
L 3047 1722 
L 2188 4044 
z
M 1831 4666 
L 2547 4666 
L 4325 0 
L 3669 0 
L 3244 1197 
L 1141 1197 
L 716 0 
L 50 0 
L 1831 4666 
z
" transform="scale(0.015625)"/>
       <path id="DejaVuSans-4c" d="M 628 4666 
L 1259 4666 
L 1259 531 
L 3531 531 
L 3531 0 
L 628 0 
L 628 4666 
z
" transform="scale(0.015625)"/>
       <path id="DejaVuSans-20" transform="scale(0.015625)"/>
       <path id="DejaVuSans-39" d="M 703 97 
L 703 672 
Q 941 559 1184 500 
Q 1428 441 1663 441 
Q 2288 441 2617 861 
Q 2947 1281 2994 2138 
Q 2813 1869 2534 1725 
Q 2256 1581 1919 1581 
Q 1219 1581 811 2004 
Q 403 2428 403 3163 
Q 403 3881 828 4315 
Q 1253 4750 1959 4750 
Q 2769 4750 3195 4129 
Q 3622 3509 3622 2328 
Q 3622 1225 3098 567 
Q 2575 -91 1691 -91 
Q 1453 -91 1209 -44 
Q 966 3 703 97 
z
M 1959 2075 
Q 2384 2075 2632 2365 
Q 2881 2656 2881 3163 
Q 2881 3666 2632 3958 
Q 2384 4250 1959 4250 
Q 1534 4250 1286 3958 
Q 1038 3666 1038 3163 
Q 1038 2656 1286 2365 
Q 1534 2075 1959 2075 
z
" transform="scale(0.015625)"/>
       <path id="DejaVuSans-30" d="M 2034 4250 
Q 1547 4250 1301 3770 
Q 1056 3291 1056 2328 
Q 1056 1369 1301 889 
Q 1547 409 2034 409 
Q 2525 409 2770 889 
Q 3016 1369 3016 2328 
Q 3016 3291 2770 3770 
Q 2525 4250 2034 4250 
z
M 2034 4750 
Q 2819 4750 3233 4129 
Q 3647 3509 3647 2328 
Q 3647 1150 3233 529 
Q 2819 -91 2034 -91 
Q 1250 -91 836 529 
Q 422 1150 422 2328 
Q 422 3509 836 4129 
Q 1250 4750 2034 4750 
z
" transform="scale(0.015625)"/>
      </defs>
      <use xlink:href="#DejaVuSans-56"/>
      <use xlink:href="#DejaVuSans-41" x="62.033203"/>
      <use xlink:href="#DejaVuSans-4c" x="130.441406"/>
      <use xlink:href="#DejaVuSans-20" x="186.154297"/>
      <use xlink:href="#DejaVuSans-39" x="217.941406"/>
      <use xlink:href="#DejaVuSans-30" x="281.564453"/>
     </g>
    </g>
   </g>
   <g id="text_2">
    <g clip-path="url(#p87c5212a72)">
     <!-- VAL 75 -->
     <g transform="translate(886.83427 2002.621296) scale(0.08 -0.08)">
      <defs>
       <path id="DejaVuSans-37" d="M 525 4666 
L 3525 4666 
L 3525 4397 
L 1831 0 
L 1172 0 
L 2766 4134 
L 525 4134 
L 525 4666 
z
" transform="scale(0.015625)"/>
       <path id="DejaVuSans-35" d="M 691 4666 
L 3169 4666 
L 3169 4134 
L 1269 4134 
L 1269 2991 
Q 1406 3038 1543 3061 
Q 1681 3084 1819 3084 
Q 2600 3084 3056 2656 
Q 3513 2228 3513 1497 
Q 3513 744 3044 326 
Q 2575 -91 1722 -91 
Q 1428 -91 1123 -41 
Q 819 9 494 109 
L 494 744 
Q 775 591 1075 516 
Q 1375 441 1709 441 
Q 2250 441 2565 725 
Q 2881 1009 2881 1497 
Q 2881 1984 2565 2268 
Q 2250 2553 1709 2553 
Q 1456 2553 1204 2497 
Q 953 2441 691 2322 
L 691 4666 
z
" transform="scale(0.015625)"/>
      </defs>
      <use xlink:href="#DejaVuSans-56"/>
      <use xlink:href="#DejaVuSans-41" x="62.033203"/>
      <use xlink:href="#DejaVuSans-4c" x="130.441406"/>
      <use xlink:href="#DejaVuSans-20" x="186.154297"/>
      <use xlink:href="#DejaVuSans-37" x="217.941406"/>
      <use xlink:href="#DejaVuSans-35" x="281.564453"/>
     </g>
    </g>
   </g>
   <g id="text_3">
    <g clip-path="url(#p87c5212a72)">
     <!-- LEU 99 -->
     <g transform="translate(706.722111 1895.004814) scale(0.08 -0.08)">
      <defs>
       <path id="DejaVuSans-45" d="M 628 4666 
L 3578 4666 
L 3578 4134 
L 1259 4134 
L 1259 2753 
L 3481 2753 
L 3481 2222 
L 1259 2222 
L 1259 531 
L 3634 531 
L 3634 0 
L 628 0 
L 628 4666 
z
" transform="scale(0.015625)"/>
       <path id="DejaVuSans-55" d="M 556 4666 
L 1191 4666 
L 1191 1831 
Q 1191 1081 1462 751 
Q 1734 422 2344 422 
Q 2950 422 3222 751 
Q 3494 1081 3494 1831 
L 3494 4666 
L 4128 4666 
L 4128 1753 
Q 4128 841 3676 375 
Q 3225 -91 2344 -91 
Q 1459 -91 1007 375 
Q 556 841 556 1753 
L 556 4666 
z
" transform="scale(0.015625)"/>
      </defs>
      <use xlink:href="#DejaVuSans-4c"/>
      <use xlink:href="#DejaVuSans-45" x="55.712891"/>
      <use xlink:href="#DejaVuSans-55" x="118.896484"/>
      <use xlink:href="#DejaVuSans-20" x="192.089844"/>
      <use xlink:href="#DejaVuSans-39" x="223.876953"/>
      <use xlink:href="#DejaVuSans-39" x="287.5"/>
     </g>
    </g>
   </g>
   <g id="text_4">
    <g clip-path="url(#p87c5212a72)">
     <!-- VAL 102 -->
     <g transform="translate(845.703377 2151.824811) scale(0.08 -0.08)">
      <defs>
       <path id="DejaVuSans-31" d="M 794 531 
L 1825 531 
L 1825 4091 
L 703 3866 
L 703 4441 
L 1819 4666 
L 2450 4666 
L 2450 531 
L 3481 531 
L 3481 0 
L 794 0 
L 794 531 
z
" transform="scale(0.015625)"/>
       <path id="DejaVuSans-32" d="M 1228 531 
L 3431 531 
L 3431 0 
L 469 0 
L 469 531 
Q 828 903 1448 1529 
Q 2069 2156 2228 2338 
Q 2531 2678 2651 2914 
Q 2772 3150 2772 3378 
Q 2772 3750 2511 3984 
Q 2250 4219 1831 4219 
Q 1534 4219 1204 4116 
Q 875 4013 500 3803 
L 500 4441 
Q 881 4594 1212 4672 
Q 1544 4750 1819 4750 
Q 2544 4750 2975 4387 
Q 3406 4025 3406 3419 
Q 3406 3131 3298 2873 
Q 3191 2616 2906 2266 
Q 2828 2175 2409 1742 
Q 1991 1309 1228 531 
z
" transform="scale(0.015625)"/>
      </defs>
      <use xlink:href="#DejaVuSans-56"/>
      <use xlink:href="#DejaVuSans-41" x="62.033203"/>
      <use xlink:href="#DejaVuSans-4c" x="130.441406"/>
      <use xlink:href="#DejaVuSans-20" x="186.154297"/>
      <use xlink:href="#DejaVuSans-31" x="217.941406"/>
      <use xlink:href="#DejaVuSans-30" x="281.564453"/>
      <use xlink:href="#DejaVuSans-32" x="345.1875"/>
     </g>
    </g>
   </g>
   <g id="text_5">
    <g clip-path="url(#p87c5212a72)">
     <!-- LEU 112 -->
     <g transform="translate(1182.69114 2632.290145) scale(0.08 -0.08)">
      <use xlink:href="#DejaVuSans-4c"/>
      <use xlink:href="#DejaVuSans-45" x="55.712891"/>
      <use xlink:href="#DejaVuSans-55" x="118.896484"/>
      <use xlink:href="#DejaVuSans-20" x="192.089844"/>
      <use xlink:href="#DejaVuSans-31" x="223.876953"/>
      <use xlink:href="#DejaVuSans-31" x="287.5"/>
      <use xlink:href="#DejaVuSans-32" x="351.123047"/>
     </g>
    </g>
   </g>
   <g id="text_6">
    <g clip-path="url(#p87c5212a72)">
     <!-- ILE 116 -->
     <g transform="translate(720.807667 1981.96288) scale(0.08 -0.08)">
      <defs>
       <path id="DejaVuSans-49" d="M 628 4666 
L 1259 4666 
L 1259 0 
L 628 0 
L 628 4666 
z
" transform="scale(0.015625)"/>
       <path id="DejaVuSans-36" d="M 2113 2584 
Q 1688 2584 1439 2293 
Q 1191 2003 1191 1497 
Q 1191 994 1439 701 
Q 1688 409 2113 409 
Q 2538 409 2786 701 
Q 3034 994 3034 1497 
Q 3034 2003 2786 2293 
Q 2538 2584 2113 2584 
z
M 3366 4563 
L 3366 3988 
Q 3128 4100 2886 4159 
Q 2644 4219 2406 4219 
Q 1781 4219 1451 3797 
Q 1122 3375 1075 2522 
Q 1259 2794 1537 2939 
Q 1816 3084 2150 3084 
Q 2853 3084 3261 2657 
Q 3669 2231 3669 1497 
Q 3669 778 3244 343 
Q 2819 -91 2113 -91 
Q 1303 -91 875 529 
Q 447 1150 447 2328 
Q 447 3434 972 4092 
Q 1497 4750 2381 4750 
Q 2619 4750 2861 4703 
Q 3103 4656 3366 4563 
z
" transform="scale(0.015625)"/>
      </defs>
      <use xlink:href="#DejaVuSans-49"/>
      <use xlink:href="#DejaVuSans-4c" x="29.492188"/>
      <use xlink:href="#DejaVuSans-45" x="85.205078"/>
      <use xlink:href="#DejaVuSans-20" x="148.388672"/>
      <use xlink:href="#DejaVuSans-31" x="180.175781"/>
      <use xlink:href="#DejaVuSans-31" x="243.798828"/>
      <use xlink:href="#DejaVuSans-36" x="307.421875"/>
     </g>
    </g>
   </g>
   <g id="text_7">
    <g clip-path="url(#p87c5212a72)">
     <!-- VAL 46 -->
     <g transform="translate(537.598644 1609.20259) scale(0.08 -0.08)">
      <defs>
       <path id="DejaVuSans-34" d="M 2419 4116 
L 825 1625 
L 2419 1625 
L 2419 4116 
z
M 2253 4666 
L 3047 4666 
L 3047 1625 
L 3713 1625 
L 3713 1100 
L 3047 1100 
L 3047 0 
L 2419 0 
L 2419 1100 
L 313 1100 
L 313 1709 
L 2253 4666 
z
" transform="scale(0.015625)"/>
      </defs>
      <use xlink:href="#DejaVuSans-56"/>
      <use xlink:href="#DejaVuSans-41" x="62.033203"/>
      <use xlink:href="#DejaVuSans-4c" x="130.441406"/>
      <use xlink:href="#DejaVuSans-20" x="186.154297"/>
      <use xlink:href="#DejaVuSans-34" x="217.941406"/>
      <use xlink:href="#DejaVuSans-36" x="281.564453"/>
     </g>
    </g>
   </g>
   <g id="text_8">
    <g clip-path="url(#p87c5212a72)">
     <!-- LEU 51 -->
     <g transform="translate(909.534942 1759.746678) scale(0.08 -0.08)">
      <use xlink:href="#DejaVuSans-4c"/>
      <use xlink:href="#DejaVuSans-45" x="55.712891"/>
      <use xlink:href="#DejaVuSans-55" x="118.896484"/>
      <use xlink:href="#DejaVuSans-20" x="192.089844"/>
      <use xlink:href="#DejaVuSans-35" x="223.876953"/>
      <use xlink:href="#DejaVuSans-31" x="287.5"/>
     </g>
    </g>
   </g>
   <g id="text_9">
    <g clip-path="url(#p87c5212a72)">
     <!-- LEU 121 -->
     <g transform="translate(565.952025 1834.810545) scale(0.08 -0.08)">
      <use xlink:href="#DejaVuSans-4c"/>
      <use xlink:href="#DejaVuSans-45" x="55.712891"/>
      <use xlink:href="#DejaVuSans-55" x="118.896484"/>
      <use xlink:href="#DejaVuSans-20" x="192.089844"/>
      <use xlink:href="#DejaVuSans-31" x="223.876953"/>
      <use xlink:href="#DejaVuSans-32" x="287.5"/>
      <use xlink:href="#DejaVuSans-31" x="351.123047"/>
     </g>
    </g>
   </g>
   <g id="text_10">
    <g clip-path="url(#p87c5212a72)">
     <!-- ILE 71 -->
     <g transform="translate(1536.64375 1538.079085) scale(0.08 -0.08)">
      <use xlink:href="#DejaVuSans-49"/>
      <use xlink:href="#DejaVuSans-4c" x="29.492188"/>
      <use xlink:href="#DejaVuSans-45" x="85.205078"/>
      <use xlink:href="#DejaVuSans-20" x="148.388672"/>
      <use xlink:href="#DejaVuSans-37" x="180.175781"/>
      <use xlink:href="#DejaVuSans-31" x="243.798828"/>
     </g>
    </g>
   </g>
   <g id="text_11">
    <g clip-path="url(#p87c5212a72)">
     <!-- ILE 9 -->
     <g transform="translate(265.106908 1457.521279) scale(0.08 -0.08)">
      <use xlink:href="#DejaVuSans-49"/>
      <use xlink:href="#DejaVuSans-4c" x="29.492188"/>
      <use xlink:href="#DejaVuSans-45" x="85.205078"/>
      <use xlink:href="#DejaVuSans-20" x="148.388672"/>
      <use xlink:href="#DejaVuSans-39" x="180.175781"/>
     </g>
    </g>
   </g>
   <g id="text_12">
    <g clip-path="url(#p87c5212a72)">
     <!-- LEU 12 -->
     <g transform="translate(457.688822 1341.868992) scale(0.08 -0.08)">
      <use xlink:href="#DejaVuSans-4c"/>
      <use xlink:href="#DejaVuSans-45" x="55.712891"/>
      <use xlink:href="#DejaVuSans-55" x="118.896484"/>
      <use xlink:href="#DejaVuSans-20" x="192.089844"/>
      <use xlink:href="#DejaVuSans-31" x="223.876953"/>
      <use xlink:href="#DejaVuSans-32" x="287.5"/>
     </g>
    </g>
   </g>
   <g id="text_13">
    <g clip-path="url(#p87c5212a72)">
     <!-- ILE 45 -->
     <g transform="translate(664.921632 1099.055485) scale(0.08 -0.08)">
      <use xlink:href="#DejaVuSans-49"/>
      <use xlink:href="#DejaVuSans-4c" x="29.492188"/>
      <use xlink:href="#DejaVuSans-45" x="85.205078"/>
      <use xlink:href="#DejaVuSans-20" x="148.388672"/>
      <use xlink:href="#DejaVuSans-34" x="180.175781"/>
      <use xlink:href="#DejaVuSans-35" x="243.798828"/>
     </g>
    </g>
   </g>
   <g id="text_14">
    <g clip-path="url(#p87c5212a72)">
     <!-- LEU 41 -->
     <g transform="translate(1494.969088 1189.153615) scale(0.08 -0.08)">
      <use xlink:href="#DejaVuSans-4c"/>
      <use xlink:href="#DejaVuSans-45" x="55.712891"/>
      <use xlink:href="#DejaVuSans-55" x="118.896484"/>
      <use xlink:href="#DejaVuSans-20" x="192.089844"/>
      <use xlink:href="#DejaVuSans-34" x="223.876953"/>
      <use xlink:href="#DejaVuSans-31" x="287.5"/>
     </g>
    </g>
   </g>
   <g id="text_15">
    <g clip-path="url(#p87c5212a72)">
     <!-- VAL 43 -->
     <g transform="translate(981.027389 925.061234) scale(0.08 -0.08)">
      <defs>
       <path id="DejaVuSans-33" d="M 2597 2516 
Q 3050 2419 3304 2112 
Q 3559 1806 3559 1356 
Q 3559 666 3084 287 
Q 2609 -91 1734 -91 
Q 1441 -91 1130 -33 
Q 819 25 488 141 
L 488 750 
Q 750 597 1062 519 
Q 1375 441 1716 441 
Q 2309 441 2620 675 
Q 2931 909 2931 1356 
Q 2931 1769 2642 2001 
Q 2353 2234 1838 2234 
L 1294 2234 
L 1294 2753 
L 1863 2753 
Q 2328 2753 2575 2939 
Q 2822 3125 2822 3475 
Q 2822 3834 2567 4026 
Q 2313 4219 1838 4219 
Q 1578 4219 1281 4162 
Q 984 4106 628 3988 
L 628 4550 
Q 988 4650 1302 4700 
Q 1616 4750 1894 4750 
Q 2613 4750 3031 4423 
Q 3450 4097 3450 3541 
Q 3450 3153 3228 2886 
Q 3006 2619 2597 2516 
z
" transform="scale(0.015625)"/>
      </defs>
      <use xlink:href="#DejaVuSans-56"/>
      <use xlink:href="#DejaVuSans-41" x="62.033203"/>
      <use xlink:href="#DejaVuSans-4c" x="130.441406"/>
      <use xlink:href="#DejaVuSans-20" x="186.154297"/>
      <use xlink:href="#DejaVuSans-34" x="217.941406"/>
      <use xlink:href="#DejaVuSans-33" x="281.564453"/>
     </g>
    </g>
   </g>
   <g id="text_16">
    <g clip-path="url(#p87c5212a72)">
     <!-- LEU 140 -->
     <g transform="translate(2350.772788 2142.872189) scale(0.08 -0.08)">
      <use xlink:href="#DejaVuSans-4c"/>
      <use xlink:href="#DejaVuSans-45" x="55.712891"/>
      <use xlink:href="#DejaVuSans-55" x="118.896484"/>
      <use xlink:href="#DejaVuSans-20" x="192.089844"/>
      <use xlink:href="#DejaVuSans-31" x="223.876953"/>
      <use xlink:href="#DejaVuSans-34" x="287.5"/>
      <use xlink:href="#DejaVuSans-30" x="351.123047"/>
     </g>
    </g>
   </g>
   <g id="text_17">
    <g clip-path="url(#p87c5212a72)">
     <!-- VAL 124 -->
     <g transform="translate(1387.320457 880.666731) scale(0.08 -0.08)">
      <use xlink:href="#DejaVuSans-56"/>
      <use xlink:href="#DejaVuSans-41" x="62.033203"/>
      <use xlink:href="#DejaVuSans-4c" x="130.441406"/>
      <use xlink:href="#DejaVuSans-20" x="186.154297"/>
      <use xlink:href="#DejaVuSans-31" x="217.941406"/>
      <use xlink:href="#DejaVuSans-32" x="281.564453"/>
      <use xlink:href="#DejaVuSans-34" x="345.1875"/>
     </g>
    </g>
   </g>
   <g id="text_18">
    <g clip-path="url(#p87c5212a72)">
     <!-- LEU 129 -->
     <g transform="translate(233.327355 252.124855) scale(0.08 -0.08)">
      <use xlink:href="#DejaVuSans-4c"/>
      <use xlink:href="#DejaVuSans-45" x="55.712891"/>
      <use xlink:href="#DejaVuSans-55" x="118.896484"/>
      <use xlink:href="#DejaVuSans-20" x="192.089844"/>
      <use xlink:href="#DejaVuSans-31" x="223.876953"/>
      <use xlink:href="#DejaVuSans-32" x="287.5"/>
      <use xlink:href="#DejaVuSans-39" x="351.123047"/>
     </g>
    </g>
   </g>
   <g id="text_19">
    <g clip-path="url(#p87c5212a72)">
     <!-- LEU 138 -->
     <g transform="translate(2613.492645 1431.258886) scale(0.08 -0.08)">
      <defs>
       <path id="DejaVuSans-38" d="M 2034 2216 
Q 1584 2216 1326 1975 
Q 1069 1734 1069 1313 
Q 1069 891 1326 650 
Q 1584 409 2034 409 
Q 2484 409 2743 651 
Q 3003 894 3003 1313 
Q 3003 1734 2745 1975 
Q 2488 2216 2034 2216 
z
M 1403 2484 
Q 997 2584 770 2862 
Q 544 3141 544 3541 
Q 544 4100 942 4425 
Q 1341 4750 2034 4750 
Q 2731 4750 3128 4425 
Q 3525 4100 3525 3541 
Q 3525 3141 3298 2862 
Q 3072 2584 2669 2484 
Q 3125 2378 3379 2068 
Q 3634 1759 3634 1313 
Q 3634 634 3220 271 
Q 2806 -91 2034 -91 
Q 1263 -91 848 271 
Q 434 634 434 1313 
Q 434 1759 690 2068 
Q 947 2378 1403 2484 
z
M 1172 3481 
Q 1172 3119 1398 2916 
Q 1625 2713 2034 2713 
Q 2441 2713 2670 2916 
Q 2900 3119 2900 3481 
Q 2900 3844 2670 4047 
Q 2441 4250 2034 4250 
Q 1625 4250 1398 4047 
Q 1172 3844 1172 3481 
z
" transform="scale(0.015625)"/>
      </defs>
      <use xlink:href="#DejaVuSans-4c"/>
      <use xlink:href="#DejaVuSans-45" x="55.712891"/>
      <use xlink:href="#DejaVuSans-55" x="118.896484"/>
      <use xlink:href="#DejaVuSans-20" x="192.089844"/>
      <use xlink:href="#DejaVuSans-31" x="223.876953"/>
      <use xlink:href="#DejaVuSans-33" x="287.5"/>
      <use xlink:href="#DejaVuSans-38" x="351.123047"/>
     </g>
    </g>
   </g>
  </g>
  <g id="text_20">
   <!-- G_NMR -->
   <g transform="translate(1418.51625 66.50625) scale(0.12 -0.12)">
    <defs>
     <path id="DejaVuSans-47" d="M 3809 666 
L 3809 1919 
L 2778 1919 
L 2778 2438 
L 4434 2438 
L 4434 434 
Q 4069 175 3628 42 
Q 3188 -91 2688 -91 
Q 1594 -91 976 548 
Q 359 1188 359 2328 
Q 359 3472 976 4111 
Q 1594 4750 2688 4750 
Q 3144 4750 3555 4637 
Q 3966 4525 4313 4306 
L 4313 3634 
Q 3963 3931 3569 4081 
Q 3175 4231 2741 4231 
Q 1884 4231 1454 3753 
Q 1025 3275 1025 2328 
Q 1025 1384 1454 906 
Q 1884 428 2741 428 
Q 3075 428 3337 486 
Q 3600 544 3809 666 
z
" transform="scale(0.015625)"/>
     <path id="DejaVuSans-5f" d="M 3263 -1063 
L 3263 -1509 
L -63 -1509 
L -63 -1063 
L 3263 -1063 
z
" transform="scale(0.015625)"/>
     <path id="DejaVuSans-4e" d="M 628 4666 
L 1478 4666 
L 3547 763 
L 3547 4666 
L 4159 4666 
L 4159 0 
L 3309 0 
L 1241 3903 
L 1241 0 
L 628 0 
L 628 4666 
z
" transform="scale(0.015625)"/>
     <path id="DejaVuSans-4d" d="M 628 4666 
L 1569 4666 
L 2759 1491 
L 3956 4666 
L 4897 4666 
L 4897 0 
L 4281 0 
L 4281 4097 
L 3078 897 
L 2444 897 
L 1241 4097 
L 1241 0 
L 628 0 
L 628 4666 
z
" transform="scale(0.015625)"/>
     <path id="DejaVuSans-52" d="M 2841 2188 
Q 3044 2119 3236 1894 
Q 3428 1669 3622 1275 
L 4263 0 
L 3584 0 
L 2988 1197 
Q 2756 1666 2539 1819 
Q 2322 1972 1947 1972 
L 1259 1972 
L 1259 0 
L 628 0 
L 628 4666 
L 2053 4666 
Q 2853 4666 3247 4331 
Q 3641 3997 3641 3322 
Q 3641 2881 3436 2590 
Q 3231 2300 2841 2188 
z
M 1259 4147 
L 1259 2491 
L 2053 2491 
Q 2509 2491 2742 2702 
Q 2975 2913 2975 3322 
Q 2975 3731 2742 3939 
Q 2509 4147 2053 4147 
L 1259 4147 
z
" transform="scale(0.015625)"/>
    </defs>
    <use xlink:href="#DejaVuSans-47"/>
    <use xlink:href="#DejaVuSans-5f" x="77.490234"/>
    <use xlink:href="#DejaVuSans-4e" x="127.490234"/>
    <use xlink:href="#DejaVuSans-4d" x="202.294922"/>
    <use xlink:href="#DejaVuSans-52" x="288.574219"/>
   </g>
  </g>
 </g>
 <defs>
  <clipPath id="p87c5212a72">
   <rect x="0" y="0" width="2880" height="2880"/>
  </clipPath>
 </defs>
</svg>
