<?xml version="1.0" encoding="utf-8" standalone="no"?>
<!DOCTYPE svg PUBLIC "-//W3C//DTD SVG 1.1//EN"
  "http://www.w3.org/Graphics/SVG/1.1/DTD/svg11.dtd">
<svg xmlns:xlink="http://www.w3.org/1999/xlink" width="2880pt" height="2880pt" viewBox="0 0 2880 2880" xmlns="http://www.w3.org/2000/svg" version="1.1">
 <metadata>
  <rdf:RDF xmlns:dc="http://purl.org/dc/elements/1.1/" xmlns:cc="http://creativecommons.org/ns#" xmlns:rdf="http://www.w3.org/1999/02/22-rdf-syntax-ns#">
   <cc:Work>
    <dc:type rdf:resource="http://purl.org/dc/dcmitype/StillImage"/>
    <dc:date>2024-09-24T11:40:33.177580</dc:date>
    <dc:format>image/svg+xml</dc:format>
    <dc:creator>
     <cc:Agent>
      <dc:title>Matplotlib v3.8.2, https://matplotlib.org/</dc:title>
     </cc:Agent>
    </dc:creator>
   </cc:Work>
  </rdf:RDF>
 </metadata>
 <defs>
  <style type="text/css">*{stroke-linejoin: round; stroke-linecap: butt}</style>
 </defs>
 <g id="figure_1">
  <g id="patch_1">
   <path d="M 0 2880 
L 2880 2880 
L 2880 0 
L 0 0 
z
" style="fill: #ffffff"/>
  </g>
  <g id="axes_1">
   <g id="patch_2">
    <path d="M 462.014152 462.22879 
Q 584.390423 508.063628 706.557292 553.820037 
" clip-path="url(#pbd6dc69178)" style="fill: none; stroke: #000000; stroke-width: 0.2; stroke-linecap: round"/>
    <path d="M 703.512901 550.544112 
L 706.557292 553.820037 
L 702.109917 554.289994 
z
" clip-path="url(#pbd6dc69178)" style="stroke: #000000; stroke-width: 0.2; stroke-linecap: round"/>
   </g>
   <g id="patch_3">
    <path d="M 438.994569 467.485663 
Q 349.344746 561.134032 259.849551 654.620877 
" clip-path="url(#pbd6dc69178)" style="fill: none; stroke: #000000; stroke-width: 0.2; stroke-linecap: round"/>
    <path d="M 264.06034 653.114471 
L 259.849551 654.620877 
L 261.170899 650.348402 
z
" clip-path="url(#pbd6dc69178)" style="stroke: #000000; stroke-width: 0.2; stroke-linecap: round"/>
   </g>
   <g id="patch_4">
    <path d="M 459.937918 465.94831 
Q 519.136502 511.967833 578.158546 557.85012 
" clip-path="url(#pbd6dc69178)" style="fill: none; stroke: #000000; stroke-width: 0.2; stroke-linecap: round"/>
    <path d="M 576.228007 553.816137 
L 578.158546 557.85012 
L 573.773036 556.974161 
z
" clip-path="url(#pbd6dc69178)" style="stroke: #000000; stroke-width: 0.2; stroke-linecap: round"/>
   </g>
   <g id="patch_5">
    <path d="M 461.549473 451.205124 
Q 539.092574 414.393489 616.433675 377.677748 
" clip-path="url(#pbd6dc69178)" style="fill: none; stroke: #000000; stroke-width: 0.2; stroke-linecap: round"/>
    <path d="M 611.962472 377.586416 
L 616.433675 377.677748 
L 613.677888 381.199912 
z
" clip-path="url(#pbd6dc69178)" style="stroke: #000000; stroke-width: 0.2; stroke-linecap: round"/>
   </g>
   <g id="patch_6">
    <path d="M 458.634008 447.129426 
Q 549.582628 353.592418 640.375368 260.215725 
" clip-path="url(#pbd6dc69178)" style="fill: none; stroke: #000000; stroke-width: 0.2; stroke-linecap: round"/>
    <path d="M 636.152985 261.689319 
L 640.375368 260.215725 
L 639.020814 264.477788 
z
" clip-path="url(#pbd6dc69178)" style="stroke: #000000; stroke-width: 0.2; stroke-linecap: round"/>
   </g>
   <g id="patch_7">
    <path d="M 706.773914 553.901171 
Q 584.397644 508.066332 462.230775 462.309924 
" clip-path="url(#pbd6dc69178)" style="fill: none; stroke: #000000; stroke-width: 0.2; stroke-linecap: round"/>
    <path d="M 465.275165 465.585849 
L 462.230775 462.309924 
L 466.678149 461.839966 
z
" clip-path="url(#pbd6dc69178)" style="stroke: #000000; stroke-width: 0.2; stroke-linecap: round"/>
   </g>
   <g id="patch_8">
    <path d="M 705.89416 559.704542 
Q 654.756325 562.762954 603.841698 565.808016 
" clip-path="url(#pbd6dc69178)" style="fill: none; stroke: #000000; stroke-width: 0.2; stroke-linecap: round"/>
    <path d="M 607.953964 567.565647 
L 603.841698 565.808016 
L 607.715162 563.572782 
z
" clip-path="url(#pbd6dc69178)" style="stroke: #000000; stroke-width: 0.2; stroke-linecap: round"/>
   </g>
   <g id="patch_9">
    <path d="M 732.957497 564.553288 
Q 812.11724 599.37151 891.072302 634.099703 
" clip-path="url(#pbd6dc69178)" style="fill: none; stroke: #000000; stroke-width: 0.2; stroke-linecap: round"/>
    <path d="M 888.216079 630.658483 
L 891.072302 634.099703 
L 886.605592 634.319949 
z
" clip-path="url(#pbd6dc69178)" style="stroke: #000000; stroke-width: 0.2; stroke-linecap: round"/>
   </g>
   <g id="patch_10">
    <path d="M 731.824459 551.07581 
Q 818.264139 494.103916 904.517118 437.255076 
" clip-path="url(#pbd6dc69178)" style="fill: none; stroke: #000000; stroke-width: 0.2; stroke-linecap: round"/>
    <path d="M 900.076659 437.786424 
L 904.517118 437.255076 
L 902.277921 441.126251 
z
" clip-path="url(#pbd6dc69178)" style="stroke: #000000; stroke-width: 0.2; stroke-linecap: round"/>
   </g>
   <g id="patch_11">
    <path d="M 263.500927 661.062767 
Q 419.708697 615.830777 575.701682 570.66098 
" clip-path="url(#pbd6dc69178)" style="fill: none; stroke: #000000; stroke-width: 0.2; stroke-linecap: round"/>
    <path d="M 571.303242 569.852446 
L 575.701682 570.66098 
L 572.415791 573.694611 
z
" clip-path="url(#pbd6dc69178)" style="stroke: #000000; stroke-width: 0.2; stroke-linecap: round"/>
   </g>
   <g id="patch_12">
    <path d="M 603.618628 565.821358 
Q 654.756463 562.762946 705.67109 559.717883 
" clip-path="url(#pbd6dc69178)" style="fill: none; stroke: #000000; stroke-width: 0.2; stroke-linecap: round"/>
    <path d="M 701.558824 557.960253 
L 705.67109 559.717883 
L 701.797626 561.953118 
z
" clip-path="url(#pbd6dc69178)" style="stroke: #000000; stroke-width: 0.2; stroke-linecap: round"/>
   </g>
   <g id="patch_13">
    <path d="M 578.33513 557.987392 
Q 519.136547 511.967868 460.114502 466.085582 
" clip-path="url(#pbd6dc69178)" style="fill: none; stroke: #000000; stroke-width: 0.2; stroke-linecap: round"/>
    <path d="M 462.045041 470.119564 
L 460.114502 466.085582 
L 464.500012 466.96154 
z
" clip-path="url(#pbd6dc69178)" style="stroke: #000000; stroke-width: 0.2; stroke-linecap: round"/>
   </g>
   <g id="patch_14">
    <path d="M 575.915313 570.59912 
Q 419.707544 615.83111 263.714558 661.000907 
" clip-path="url(#pbd6dc69178)" style="fill: none; stroke: #000000; stroke-width: 0.2; stroke-linecap: round"/>
    <path d="M 268.112998 661.809441 
L 263.714558 661.000907 
L 267.000449 657.967276 
z
" clip-path="url(#pbd6dc69178)" style="stroke: #000000; stroke-width: 0.2; stroke-linecap: round"/>
   </g>
   <g id="patch_15">
    <path d="M 603.276599 569.871079 
Q 746.862781 603.275081 890.231173 636.628416 
" clip-path="url(#pbd6dc69178)" style="fill: none; stroke: #000000; stroke-width: 0.2; stroke-linecap: round"/>
    <path d="M 886.788391 633.774076 
L 890.231173 636.628416 
L 885.882032 637.670037 
z
" clip-path="url(#pbd6dc69178)" style="stroke: #000000; stroke-width: 0.2; stroke-linecap: round"/>
   </g>
   <g id="patch_16">
    <path d="M 602.539897 561.189726 
Q 753.008107 498.00613 903.270149 434.909106 
" clip-path="url(#pbd6dc69178)" style="fill: none; stroke: #000000; stroke-width: 0.2; stroke-linecap: round"/>
    <path d="M 898.807777 434.613743 
L 903.270149 434.909106 
L 900.356435 438.301785 
z
" clip-path="url(#pbd6dc69178)" style="stroke: #000000; stroke-width: 0.2; stroke-linecap: round"/>
   </g>
   <g id="patch_17">
    <path d="M 592.332472 552.810493 
Q 609.453855 469.092462 626.530435 385.593504 
" clip-path="url(#pbd6dc69178)" style="fill: none; stroke: #000000; stroke-width: 0.2; stroke-linecap: round"/>
    <path d="M 623.769531 389.111659 
L 626.530435 385.593504 
L 627.688416 389.91312 
z
" clip-path="url(#pbd6dc69178)" style="stroke: #000000; stroke-width: 0.2; stroke-linecap: round"/>
   </g>
   <g id="patch_18">
    <path d="M 616.633738 377.582773 
Q 539.090637 414.394409 461.749536 451.11015 
" clip-path="url(#pbd6dc69178)" style="fill: none; stroke: #000000; stroke-width: 0.2; stroke-linecap: round"/>
    <path d="M 466.220739 451.201481 
L 461.749536 451.11015 
L 464.505323 447.587986 
z
" clip-path="url(#pbd6dc69178)" style="stroke: #000000; stroke-width: 0.2; stroke-linecap: round"/>
   </g>
   <g id="patch_19">
    <path d="M 626.57546 385.373344 
Q 609.454078 469.091375 592.377498 552.590333 
" clip-path="url(#pbd6dc69178)" style="fill: none; stroke: #000000; stroke-width: 0.2; stroke-linecap: round"/>
    <path d="M 595.138401 549.072178 
L 592.377498 552.590333 
L 591.219516 548.270717 
z
" clip-path="url(#pbd6dc69178)" style="stroke: #000000; stroke-width: 0.2; stroke-linecap: round"/>
   </g>
   <g id="patch_20">
    <path d="M 643.274547 374.31084 
Q 772.963131 400.433038 902.432511 426.511084 
" clip-path="url(#pbd6dc69178)" style="fill: none; stroke: #000000; stroke-width: 0.2; stroke-linecap: round"/>
    <path d="M 898.906178 423.760634 
L 902.432511 426.511084 
L 898.116351 427.68188 
z
" clip-path="url(#pbd6dc69178)" style="stroke: #000000; stroke-width: 0.2; stroke-linecap: round"/>
   </g>
   <g id="patch_21">
    <path d="M 631.813186 357.583371 
Q 639.8989 310.717703 647.946597 264.072386 
" clip-path="url(#pbd6dc69178)" style="fill: none; stroke: #000000; stroke-width: 0.2; stroke-linecap: round"/>
    <path d="M 645.295644 267.674115 
L 647.946597 264.072386 
L 649.237408 268.354185 
z
" clip-path="url(#pbd6dc69178)" style="stroke: #000000; stroke-width: 0.2; stroke-linecap: round"/>
   </g>
   <g id="patch_22">
    <path d="M 640.528913 260.05781 
Q 549.580293 353.594819 458.787553 446.971511 
" clip-path="url(#pbd6dc69178)" style="fill: none; stroke: #000000; stroke-width: 0.2; stroke-linecap: round"/>
    <path d="M 463.009936 445.497917 
L 458.787553 446.971511 
L 460.142108 442.709448 
z
" clip-path="url(#pbd6dc69178)" style="stroke: #000000; stroke-width: 0.2; stroke-linecap: round"/>
   </g>
   <g id="patch_23">
    <path d="M 662.11217 257.821637 
Q 783.449856 339.631195 904.602138 421.31575 
" clip-path="url(#pbd6dc69178)" style="fill: none; stroke: #000000; stroke-width: 0.2; stroke-linecap: round"/>
    <path d="M 902.40363 417.421324 
L 904.602138 421.31575 
L 900.167492 420.737902 
z
" clip-path="url(#pbd6dc69178)" style="stroke: #000000; stroke-width: 0.2; stroke-linecap: round"/>
   </g>
   <g id="patch_24">
    <path d="M 647.98462 263.852001 
Q 639.898906 310.717669 631.851209 357.362986 
" clip-path="url(#pbd6dc69178)" style="fill: none; stroke: #000000; stroke-width: 0.2; stroke-linecap: round"/>
    <path d="M 634.502162 353.761258 
L 631.851209 357.362986 
L 630.560398 353.081187 
z
" clip-path="url(#pbd6dc69178)" style="stroke: #000000; stroke-width: 0.2; stroke-linecap: round"/>
   </g>
   <g id="patch_25">
    <path d="M 891.276896 634.189693 
Q 812.117153 599.371471 733.162091 564.643278 
" clip-path="url(#pbd6dc69178)" style="fill: none; stroke: #000000; stroke-width: 0.2; stroke-linecap: round"/>
    <path d="M 736.018314 568.084498 
L 733.162091 564.643278 
L 737.628801 564.423032 
z
" clip-path="url(#pbd6dc69178)" style="stroke: #000000; stroke-width: 0.2; stroke-linecap: round"/>
   </g>
   <g id="patch_26">
    <path d="M 890.442775 636.677643 
Q 746.856593 603.273641 603.488202 569.920306 
" clip-path="url(#pbd6dc69178)" style="fill: none; stroke: #000000; stroke-width: 0.2; stroke-linecap: round"/>
    <path d="M 606.930983 572.774646 
L 603.488202 569.920306 
L 607.837343 568.878685 
z
" clip-path="url(#pbd6dc69178)" style="stroke: #000000; stroke-width: 0.2; stroke-linecap: round"/>
   </g>
   <g id="patch_27">
    <path d="M 917.418306 634.796646 
Q 1059.646038 579.98405 1201.665122 525.251864 
" clip-path="url(#pbd6dc69178)" style="fill: none; stroke: #000000; stroke-width: 0.2; stroke-linecap: round"/>
    <path d="M 1197.213493 524.824077 
L 1201.665122 525.251864 
L 1198.651915 528.556495 
z
" clip-path="url(#pbd6dc69178)" style="stroke: #000000; stroke-width: 0.2; stroke-linecap: round"/>
   </g>
   <g id="patch_28">
    <path d="M 904.704127 437.131819 
Q 818.264447 494.103713 732.011469 550.952553 
" clip-path="url(#pbd6dc69178)" style="fill: none; stroke: #000000; stroke-width: 0.2; stroke-linecap: round"/>
    <path d="M 736.451927 550.421206 
L 732.011469 550.952553 
L 734.250666 547.081378 
z
" clip-path="url(#pbd6dc69178)" style="stroke: #000000; stroke-width: 0.2; stroke-linecap: round"/>
   </g>
   <g id="patch_29">
    <path d="M 903.473671 434.823644 
Q 753.005461 498.007241 602.743419 561.104265 
" clip-path="url(#pbd6dc69178)" style="fill: none; stroke: #000000; stroke-width: 0.2; stroke-linecap: round"/>
    <path d="M 607.205791 561.399628 
L 602.743419 561.104265 
L 605.657133 557.711585 
z
" clip-path="url(#pbd6dc69178)" style="stroke: #000000; stroke-width: 0.2; stroke-linecap: round"/>
   </g>
   <g id="patch_30">
    <path d="M 930.593169 430.672652 
Q 1138.999428 450.288353 1347.183065 469.8831 
" clip-path="url(#pbd6dc69178)" style="fill: none; stroke: #000000; stroke-width: 0.2; stroke-linecap: round"/>
    <path d="M 1343.388082 467.517067 
L 1347.183065 469.8831 
L 1343.013249 471.499466 
z
" clip-path="url(#pbd6dc69178)" style="stroke: #000000; stroke-width: 0.2; stroke-linecap: round"/>
   </g>
   <g id="patch_31">
    <path d="M 902.649184 426.554727 
Q 772.9606 400.432529 643.49122 374.354483 
" clip-path="url(#pbd6dc69178)" style="fill: none; stroke: #000000; stroke-width: 0.2; stroke-linecap: round"/>
    <path d="M 647.017553 377.104933 
L 643.49122 374.354483 
L 647.80738 373.183687 
z
" clip-path="url(#pbd6dc69178)" style="stroke: #000000; stroke-width: 0.2; stroke-linecap: round"/>
   </g>
   <g id="patch_32">
    <path d="M 904.791271 421.443269 
Q 783.453586 339.63371 662.301303 257.949155 
" clip-path="url(#pbd6dc69178)" style="fill: none; stroke: #000000; stroke-width: 0.2; stroke-linecap: round"/>
    <path d="M 664.499812 261.843582 
L 662.301303 257.949155 
L 666.735949 258.527004 
z
" clip-path="url(#pbd6dc69178)" style="stroke: #000000; stroke-width: 0.2; stroke-linecap: round"/>
   </g>
   <g id="patch_33">
    <path d="M 930.04924 433.461108 
Q 1065.793499 474.717857 1201.323814 515.909582 
" clip-path="url(#pbd6dc69178)" style="fill: none; stroke: #000000; stroke-width: 0.2; stroke-linecap: round"/>
    <path d="M 1198.078265 512.832829 
L 1201.323814 515.909582 
L 1196.915082 516.65997 
z
" clip-path="url(#pbd6dc69178)" style="stroke: #000000; stroke-width: 0.2; stroke-linecap: round"/>
   </g>
   <g id="patch_34">
    <path d="M 1347.40735 469.90421 
Q 1139.001091 450.288509 930.817455 430.693762 
" clip-path="url(#pbd6dc69178)" style="fill: none; stroke: #000000; stroke-width: 0.2; stroke-linecap: round"/>
    <path d="M 934.612437 433.059794 
L 930.817455 430.693762 
L 934.98727 429.077395 
z
" clip-path="url(#pbd6dc69178)" style="stroke: #000000; stroke-width: 0.2; stroke-linecap: round"/>
   </g>
   <g id="patch_35">
    <path d="M 1374.872729 475.793175 
Q 1508.051007 521.196361 1641.017639 566.527393 
" clip-path="url(#pbd6dc69178)" style="fill: none; stroke: #000000; stroke-width: 0.2; stroke-linecap: round"/>
    <path d="M 1637.876978 563.343645 
L 1641.017639 566.527393 
L 1636.586244 567.129673 
z
" clip-path="url(#pbd6dc69178)" style="stroke: #000000; stroke-width: 0.2; stroke-linecap: round"/>
   </g>
   <g id="patch_36">
    <path d="M 1348.067442 475.706815 
Q 1288.274745 495.658681 1228.694159 515.53977 
" clip-path="url(#pbd6dc69178)" style="fill: none; stroke: #000000; stroke-width: 0.2; stroke-linecap: round"/>
    <path d="M 1233.121547 516.170829 
L 1228.694159 515.53977 
L 1231.855438 512.376495 
z
" clip-path="url(#pbd6dc69178)" style="stroke: #000000; stroke-width: 0.2; stroke-linecap: round"/>
   </g>
   <g id="patch_37">
    <path d="M 1375.423757 468.846356 
Q 1477.491768 451.395868 1579.33937 433.983063 
" clip-path="url(#pbd6dc69178)" style="fill: none; stroke: #000000; stroke-width: 0.2; stroke-linecap: round"/>
    <path d="M 1575.059532 432.685763 
L 1579.33937 433.983063 
L 1575.733628 436.628553 
z
" clip-path="url(#pbd6dc69178)" style="stroke: #000000; stroke-width: 0.2; stroke-linecap: round"/>
   </g>
   <g id="patch_38">
    <path d="M 1201.86979 525.172988 
Q 1059.642058 579.985584 917.622974 634.71777 
" clip-path="url(#pbd6dc69178)" style="fill: none; stroke: #000000; stroke-width: 0.2; stroke-linecap: round"/>
    <path d="M 922.074603 635.145557 
L 917.622974 634.71777 
L 920.636181 631.413139 
z
" clip-path="url(#pbd6dc69178)" style="stroke: #000000; stroke-width: 0.2; stroke-linecap: round"/>
   </g>
   <g id="patch_39">
    <path d="M 1228.486001 515.609229 
Q 1288.278697 495.657363 1347.859284 475.776274 
" clip-path="url(#pbd6dc69178)" style="fill: none; stroke: #000000; stroke-width: 0.2; stroke-linecap: round"/>
    <path d="M 1343.431896 475.145215 
L 1347.859284 475.776274 
L 1344.698004 478.939549 
z
" clip-path="url(#pbd6dc69178)" style="stroke: #000000; stroke-width: 0.2; stroke-linecap: round"/>
   </g>
   <g id="patch_40">
    <path d="M 1201.533049 515.973175 
Q 1065.78879 474.716426 930.258475 433.524701 
" clip-path="url(#pbd6dc69178)" style="fill: none; stroke: #000000; stroke-width: 0.2; stroke-linecap: round"/>
    <path d="M 933.504024 436.601454 
L 930.258475 433.524701 
L 934.667207 432.774313 
z
" clip-path="url(#pbd6dc69178)" style="stroke: #000000; stroke-width: 0.2; stroke-linecap: round"/>
   </g>
   <g id="patch_41">
    <path d="M 1228.836672 516.865805 
Q 1404.283371 475.82445 1579.51234 434.834026 
" clip-path="url(#pbd6dc69178)" style="fill: none; stroke: #000000; stroke-width: 0.2; stroke-linecap: round"/>
    <path d="M 1575.161934 433.797703 
L 1579.51234 434.834026 
L 1576.073038 437.692557 
z
" clip-path="url(#pbd6dc69178)" style="stroke: #000000; stroke-width: 0.2; stroke-linecap: round"/>
   </g>
   <g id="patch_42">
    <path d="M 1579.56102 433.945167 
Q 1477.493009 451.395655 1375.645407 468.80846 
" clip-path="url(#pbd6dc69178)" style="fill: none; stroke: #000000; stroke-width: 0.2; stroke-linecap: round"/>
    <path d="M 1379.925246 470.10576 
L 1375.645407 468.80846 
L 1379.25115 466.162969 
z
" clip-path="url(#pbd6dc69178)" style="stroke: #000000; stroke-width: 0.2; stroke-linecap: round"/>
   </g>
   <g id="patch_43">
    <path d="M 1599.170375 444.517589 
Q 1624.054161 501.360152 1648.848275 557.997876 
" clip-path="url(#pbd6dc69178)" style="fill: none; stroke: #000000; stroke-width: 0.2; stroke-linecap: round"/>
    <path d="M 1649.076314 553.531558 
L 1648.848275 557.997876 
L 1645.412044 555.135654 
z
" clip-path="url(#pbd6dc69178)" style="stroke: #000000; stroke-width: 0.2; stroke-linecap: round"/>
   </g>
   <g id="patch_44">
    <path d="M 1579.729875 434.78314 
Q 1404.283177 475.824495 1229.054207 516.814918 
" clip-path="url(#pbd6dc69178)" style="fill: none; stroke: #000000; stroke-width: 0.2; stroke-linecap: round"/>
    <path d="M 1233.404613 517.851242 
L 1229.054207 516.814918 
L 1232.49351 513.956387 
z
" clip-path="url(#pbd6dc69178)" style="stroke: #000000; stroke-width: 0.2; stroke-linecap: round"/>
   </g>
   <g id="patch_45">
    <path d="M 1606.986476 427.31662 
Q 1751.991251 381.672178 1896.782736 336.094874 
" clip-path="url(#pbd6dc69178)" style="fill: none; stroke: #000000; stroke-width: 0.2; stroke-linecap: round"/>
    <path d="M 1892.36679 335.388175 
L 1896.782736 336.094874 
L 1893.567809 339.203611 
z
" clip-path="url(#pbd6dc69178)" style="stroke: #000000; stroke-width: 0.2; stroke-linecap: round"/>
   </g>
   <g id="patch_46">
    <path d="M 1641.224033 566.597757 
Q 1508.045755 521.194571 1375.079123 475.863539 
" clip-path="url(#pbd6dc69178)" style="fill: none; stroke: #000000; stroke-width: 0.2; stroke-linecap: round"/>
    <path d="M 1378.219784 479.047287 
L 1375.079123 475.863539 
L 1379.510518 475.261259 
z
" clip-path="url(#pbd6dc69178)" style="stroke: #000000; stroke-width: 0.2; stroke-linecap: round"/>
   </g>
   <g id="patch_47">
    <path d="M 1648.939492 558.206244 
Q 1624.055706 501.363681 1599.261592 444.725957 
" clip-path="url(#pbd6dc69178)" style="fill: none; stroke: #000000; stroke-width: 0.2; stroke-linecap: round"/>
    <path d="M 1599.033552 449.192275 
L 1599.261592 444.725957 
L 1602.697822 447.588179 
z
" clip-path="url(#pbd6dc69178)" style="stroke: #000000; stroke-width: 0.2; stroke-linecap: round"/>
   </g>
   <g id="patch_48">
    <path d="M 1896.998707 336.026891 
Q 1751.993932 381.671334 1607.202447 427.248637 
" clip-path="url(#pbd6dc69178)" style="fill: none; stroke: #000000; stroke-width: 0.2; stroke-linecap: round"/>
    <path d="M 1611.618392 427.955337 
L 1607.202447 427.248637 
L 1610.417374 424.1399 
z
" clip-path="url(#pbd6dc69178)" style="stroke: #000000; stroke-width: 0.2; stroke-linecap: round"/>
   </g>
   <g id="patch_49">
    <path d="M 2588.370047 2453.540724 
Q 2607.600448 2534.930332 2626.779432 2616.102324 
" clip-path="url(#pbd6dc69178)" style="fill: none; stroke: #000000; stroke-width: 0.2; stroke-linecap: round"/>
    <path d="M 2627.806061 2611.74962 
L 2626.779432 2616.102324 
L 2623.913246 2612.669398 
z
" clip-path="url(#pbd6dc69178)" style="stroke: #000000; stroke-width: 0.2; stroke-linecap: round"/>
   </g>
   <g id="patch_50">
    <path d="M 2580.842714 2426.299065 
Q 2554.784389 2344.145702 2528.79367 2262.205481 
" clip-path="url(#pbd6dc69178)" style="fill: none; stroke: #000000; stroke-width: 0.2; stroke-linecap: round"/>
    <path d="M 2528.096658 2266.622966 
L 2528.79367 2262.205481 
L 2531.909451 2265.413582 
z
" clip-path="url(#pbd6dc69178)" style="stroke: #000000; stroke-width: 0.2; stroke-linecap: round"/>
   </g>
   <g id="patch_51">
    <path d="M 2626.831234 2616.321568 
Q 2607.600833 2534.931961 2588.421849 2453.759968 
" clip-path="url(#pbd6dc69178)" style="fill: none; stroke: #000000; stroke-width: 0.2; stroke-linecap: round"/>
    <path d="M 2587.39522 2458.112672 
L 2588.421849 2453.759968 
L 2591.288035 2457.192894 
z
" clip-path="url(#pbd6dc69178)" style="stroke: #000000; stroke-width: 0.2; stroke-linecap: round"/>
   </g>
   <g id="patch_52">
    <path d="M 2528.726264 2261.992973 
Q 2554.784589 2344.146335 2580.775308 2426.086556 
" clip-path="url(#pbd6dc69178)" style="fill: none; stroke: #000000; stroke-width: 0.2; stroke-linecap: round"/>
    <path d="M 2581.47232 2421.669071 
L 2580.775308 2426.086556 
L 2577.659527 2422.878456 
z
" clip-path="url(#pbd6dc69178)" style="stroke: #000000; stroke-width: 0.2; stroke-linecap: round"/>
   </g>
   <g id="patch_53">
    <path d="M 384.67175 2215.069088 
Q 330.597901 2297.722722 276.646471 2380.189235 
" clip-path="url(#pbd6dc69178)" style="fill: none; stroke: #000000; stroke-width: 0.2; stroke-linecap: round"/>
    <path d="M 280.510001 2377.936873 
L 276.646471 2380.189235 
L 277.162699 2375.746994 
z
" clip-path="url(#pbd6dc69178)" style="stroke: #000000; stroke-width: 0.2; stroke-linecap: round"/>
   </g>
   <g id="patch_54">
    <path d="M 276.524598 2380.375522 
Q 330.598446 2297.721889 384.549877 2215.255375 
" clip-path="url(#pbd6dc69178)" style="fill: none; stroke: #000000; stroke-width: 0.2; stroke-linecap: round"/>
    <path d="M 380.686347 2217.507737 
L 384.549877 2215.255375 
L 384.033649 2219.697616 
z
" clip-path="url(#pbd6dc69178)" style="stroke: #000000; stroke-width: 0.2; stroke-linecap: round"/>
   </g>
   <g id="PathCollection_1">
    <defs>
     <path id="C0_0_9636bc67cd" d="M 0 14.142136 
C 3.750538 14.142136 7.347969 12.652031 10 10 
C 12.652031 7.347969 14.142136 3.750538 14.142136 -0 
C 14.142136 -3.750538 12.652031 -7.347969 10 -10 
C 7.347969 -12.652031 3.750538 -14.142136 0 -14.142136 
C -3.750538 -14.142136 -7.347969 -12.652031 -10 -10 
C -12.652031 -7.347969 -14.142136 -3.750538 -14.142136 0 
C -14.142136 3.750538 -12.652031 7.347969 -10 10 
C -7.347969 12.652031 -3.750538 14.142136 0 14.142136 
z
"/>
    </defs>
    <g clip-path="url(#pbd6dc69178)">
     <use xlink:href="#C0_0_9636bc67cd" x="448.774163" y="457.269881" style="fill: #0000ff; stroke: #0000ff"/>
    </g>
    <g clip-path="url(#pbd6dc69178)">
     <use xlink:href="#C0_0_9636bc67cd" x="720.013903" y="558.860079" style="fill: #ffa500; stroke: #ffa500"/>
    </g>
    <g clip-path="url(#pbd6dc69178)">
     <use xlink:href="#C0_0_9636bc67cd" x="249.917355" y="664.996067" style="fill: #ffa500; stroke: #ffa500"/>
    </g>
    <g clip-path="url(#pbd6dc69178)">
     <use xlink:href="#C0_0_9636bc67cd" x="589.498885" y="566.66582" style="fill: #ffff00; stroke: #ffff00"/>
    </g>
    <g clip-path="url(#pbd6dc69178)">
     <use xlink:href="#C0_0_9636bc67cd" x="629.409048" y="371.518017" style="fill: #ffa500; stroke: #ffa500"/>
    </g>
    <g clip-path="url(#pbd6dc69178)">
     <use xlink:href="#C0_0_9636bc67cd" x="650.388758" y="249.917355" style="fill: #ffff00; stroke: #ffff00"/>
    </g>
    <g clip-path="url(#pbd6dc69178)">
     <use xlink:href="#C0_0_9636bc67cd" x="904.22049" y="639.882902" style="fill: #0000ff; stroke: #0000ff"/>
    </g>
    <g clip-path="url(#pbd6dc69178)">
     <use xlink:href="#C0_0_9636bc67cd" x="916.514683" y="429.34755" style="fill: #0000ff; stroke: #0000ff"/>
    </g>
    <g clip-path="url(#pbd6dc69178)">
     <use xlink:href="#C0_0_9636bc67cd" x="1361.485836" y="471.229311" style="fill: #ffa500; stroke: #ffa500"/>
    </g>
    <g clip-path="url(#pbd6dc69178)">
     <use xlink:href="#C0_0_9636bc67cd" x="1215.067606" y="520.086733" style="fill: #ffff00; stroke: #ffff00"/>
    </g>
    <g clip-path="url(#pbd6dc69178)">
     <use xlink:href="#C0_0_9636bc67cd" x="1593.498941" y="431.562212" style="fill: #ffa500; stroke: #ffa500"/>
    </g>
    <g clip-path="url(#pbd6dc69178)">
     <use xlink:href="#C0_0_9636bc67cd" x="1654.610926" y="571.161621" style="fill: #ffff00; stroke: #ffff00"/>
    </g>
    <g clip-path="url(#pbd6dc69178)">
     <use xlink:href="#C0_0_9636bc67cd" x="1910.486242" y="331.7813" style="fill: #ffff00; stroke: #ffff00"/>
    </g>
    <g clip-path="url(#pbd6dc69178)">
     <use xlink:href="#C0_0_9636bc67cd" x="2585.118637" y="2439.779648" style="fill: #ffa500; stroke: #ffa500"/>
    </g>
    <g clip-path="url(#pbd6dc69178)">
     <use xlink:href="#C0_0_9636bc67cd" x="2630.082645" y="2630.082645" style="fill: #ffff00; stroke: #ffff00"/>
    </g>
    <g clip-path="url(#pbd6dc69178)">
     <use xlink:href="#C0_0_9636bc67cd" x="2524.450341" y="2248.51239" style="fill: #ffff00; stroke: #ffff00"/>
    </g>
    <g clip-path="url(#pbd6dc69178)">
     <use xlink:href="#C0_0_9636bc67cd" x="392.415951" y="2203.231825" style="fill: #0000ff; stroke: #0000ff"/>
    </g>
    <g clip-path="url(#pbd6dc69178)">
     <use xlink:href="#C0_0_9636bc67cd" x="268.780397" y="2392.212785" style="fill: #ffa500; stroke: #ffa500"/>
    </g>
   </g>
   <g id="text_1">
    <g clip-path="url(#pbd6dc69178)">
     <!-- VAL 5 -->
     <g transform="translate(437.511663 459.477381) scale(0.08 -0.08)">
      <defs>
       <path id="DejaVuSans-56" d="M 1831 0 
L 50 4666 
L 709 4666 
L 2188 738 
L 3669 4666 
L 4325 4666 
L 2547 0 
L 1831 0 
z
" transform="scale(0.015625)"/>
       <path id="DejaVuSans-41" d="M 2188 4044 
L 1331 1722 
L 3047 1722 
L 2188 4044 
z
M 1831 4666 
L 2547 4666 
L 4325 0 
L 3669 0 
L 3244 1197 
L 1141 1197 
L 716 0 
L 50 0 
L 1831 4666 
z
" transform="scale(0.015625)"/>
       <path id="DejaVuSans-4c" d="M 628 4666 
L 1259 4666 
L 1259 531 
L 3531 531 
L 3531 0 
L 628 0 
L 628 4666 
z
" transform="scale(0.015625)"/>
       <path id="DejaVuSans-20" transform="scale(0.015625)"/>
       <path id="DejaVuSans-35" d="M 691 4666 
L 3169 4666 
L 3169 4134 
L 1269 4134 
L 1269 2991 
Q 1406 3038 1543 3061 
Q 1681 3084 1819 3084 
Q 2600 3084 3056 2656 
Q 3513 2228 3513 1497 
Q 3513 744 3044 326 
Q 2575 -91 1722 -91 
Q 1428 -91 1123 -41 
Q 819 9 494 109 
L 494 744 
Q 775 591 1075 516 
Q 1375 441 1709 441 
Q 2250 441 2565 725 
Q 2881 1009 2881 1497 
Q 2881 1984 2565 2268 
Q 2250 2553 1709 2553 
Q 1456 2553 1204 2497 
Q 953 2441 691 2322 
L 691 4666 
z
" transform="scale(0.015625)"/>
      </defs>
      <use xlink:href="#DejaVuSans-56"/>
      <use xlink:href="#DejaVuSans-41" x="62.033203"/>
      <use xlink:href="#DejaVuSans-4c" x="130.441406"/>
      <use xlink:href="#DejaVuSans-20" x="186.154297"/>
      <use xlink:href="#DejaVuSans-35" x="217.941406"/>
     </g>
    </g>
   </g>
   <g id="text_2">
    <g clip-path="url(#pbd6dc69178)">
     <!-- ILE 3 -->
     <g transform="translate(710.261403 561.067579) scale(0.08 -0.08)">
      <defs>
       <path id="DejaVuSans-49" d="M 628 4666 
L 1259 4666 
L 1259 0 
L 628 0 
L 628 4666 
z
" transform="scale(0.015625)"/>
       <path id="DejaVuSans-45" d="M 628 4666 
L 3578 4666 
L 3578 4134 
L 1259 4134 
L 1259 2753 
L 3481 2753 
L 3481 2222 
L 1259 2222 
L 1259 531 
L 3634 531 
L 3634 0 
L 628 0 
L 628 4666 
z
" transform="scale(0.015625)"/>
       <path id="DejaVuSans-33" d="M 2597 2516 
Q 3050 2419 3304 2112 
Q 3559 1806 3559 1356 
Q 3559 666 3084 287 
Q 2609 -91 1734 -91 
Q 1441 -91 1130 -33 
Q 819 25 488 141 
L 488 750 
Q 750 597 1062 519 
Q 1375 441 1716 441 
Q 2309 441 2620 675 
Q 2931 909 2931 1356 
Q 2931 1769 2642 2001 
Q 2353 2234 1838 2234 
L 1294 2234 
L 1294 2753 
L 1863 2753 
Q 2328 2753 2575 2939 
Q 2822 3125 2822 3475 
Q 2822 3834 2567 4026 
Q 2313 4219 1838 4219 
Q 1578 4219 1281 4162 
Q 984 4106 628 3988 
L 628 4550 
Q 988 4650 1302 4700 
Q 1616 4750 1894 4750 
Q 2613 4750 3031 4423 
Q 3450 4097 3450 3541 
Q 3450 3153 3228 2886 
Q 3006 2619 2597 2516 
z
" transform="scale(0.015625)"/>
      </defs>
      <use xlink:href="#DejaVuSans-49"/>
      <use xlink:href="#DejaVuSans-4c" x="29.492188"/>
      <use xlink:href="#DejaVuSans-45" x="85.205078"/>
      <use xlink:href="#DejaVuSans-20" x="148.388672"/>
      <use xlink:href="#DejaVuSans-33" x="180.175781"/>
     </g>
    </g>
   </g>
   <g id="text_3">
    <g clip-path="url(#pbd6dc69178)">
     <!-- ILE 13 -->
     <g transform="translate(237.619855 667.203567) scale(0.08 -0.08)">
      <defs>
       <path id="DejaVuSans-31" d="M 794 531 
L 1825 531 
L 1825 4091 
L 703 3866 
L 703 4441 
L 1819 4666 
L 2450 4666 
L 2450 531 
L 3481 531 
L 3481 0 
L 794 0 
L 794 531 
z
" transform="scale(0.015625)"/>
      </defs>
      <use xlink:href="#DejaVuSans-49"/>
      <use xlink:href="#DejaVuSans-4c" x="29.492188"/>
      <use xlink:href="#DejaVuSans-45" x="85.205078"/>
      <use xlink:href="#DejaVuSans-20" x="148.388672"/>
      <use xlink:href="#DejaVuSans-31" x="180.175781"/>
      <use xlink:href="#DejaVuSans-33" x="243.798828"/>
     </g>
    </g>
   </g>
   <g id="text_4">
    <g clip-path="url(#pbd6dc69178)">
     <!-- LEU 15 -->
     <g transform="translate(575.453885 568.87332) scale(0.08 -0.08)">
      <defs>
       <path id="DejaVuSans-55" d="M 556 4666 
L 1191 4666 
L 1191 1831 
Q 1191 1081 1462 751 
Q 1734 422 2344 422 
Q 2950 422 3222 751 
Q 3494 1081 3494 1831 
L 3494 4666 
L 4128 4666 
L 4128 1753 
Q 4128 841 3676 375 
Q 3225 -91 2344 -91 
Q 1459 -91 1007 375 
Q 556 841 556 1753 
L 556 4666 
z
" transform="scale(0.015625)"/>
      </defs>
      <use xlink:href="#DejaVuSans-4c"/>
      <use xlink:href="#DejaVuSans-45" x="55.712891"/>
      <use xlink:href="#DejaVuSans-55" x="118.896484"/>
      <use xlink:href="#DejaVuSans-20" x="192.089844"/>
      <use xlink:href="#DejaVuSans-31" x="223.876953"/>
      <use xlink:href="#DejaVuSans-35" x="287.5"/>
     </g>
    </g>
   </g>
   <g id="text_5">
    <g clip-path="url(#pbd6dc69178)">
     <!-- ILE 30 -->
     <g transform="translate(617.111548 373.725517) scale(0.08 -0.08)">
      <defs>
       <path id="DejaVuSans-30" d="M 2034 4250 
Q 1547 4250 1301 3770 
Q 1056 3291 1056 2328 
Q 1056 1369 1301 889 
Q 1547 409 2034 409 
Q 2525 409 2770 889 
Q 3016 1369 3016 2328 
Q 3016 3291 2770 3770 
Q 2525 4250 2034 4250 
z
M 2034 4750 
Q 2819 4750 3233 4129 
Q 3647 3509 3647 2328 
Q 3647 1150 3233 529 
Q 2819 -91 2034 -91 
Q 1250 -91 836 529 
Q 422 1150 422 2328 
Q 422 3509 836 4129 
Q 1250 4750 2034 4750 
z
" transform="scale(0.015625)"/>
      </defs>
      <use xlink:href="#DejaVuSans-49"/>
      <use xlink:href="#DejaVuSans-4c" x="29.492188"/>
      <use xlink:href="#DejaVuSans-45" x="85.205078"/>
      <use xlink:href="#DejaVuSans-20" x="148.388672"/>
      <use xlink:href="#DejaVuSans-33" x="180.175781"/>
      <use xlink:href="#DejaVuSans-30" x="243.798828"/>
     </g>
    </g>
   </g>
   <g id="text_6">
    <g clip-path="url(#pbd6dc69178)">
     <!-- LEU 43 -->
     <g transform="translate(636.343758 252.124855) scale(0.08 -0.08)">
      <defs>
       <path id="DejaVuSans-34" d="M 2419 4116 
L 825 1625 
L 2419 1625 
L 2419 4116 
z
M 2253 4666 
L 3047 4666 
L 3047 1625 
L 3713 1625 
L 3713 1100 
L 3047 1100 
L 3047 0 
L 2419 0 
L 2419 1100 
L 313 1100 
L 313 1709 
L 2253 4666 
z
" transform="scale(0.015625)"/>
      </defs>
      <use xlink:href="#DejaVuSans-4c"/>
      <use xlink:href="#DejaVuSans-45" x="55.712891"/>
      <use xlink:href="#DejaVuSans-55" x="118.896484"/>
      <use xlink:href="#DejaVuSans-20" x="192.089844"/>
      <use xlink:href="#DejaVuSans-34" x="223.876953"/>
      <use xlink:href="#DejaVuSans-33" x="287.5"/>
     </g>
    </g>
   </g>
   <g id="text_7">
    <g clip-path="url(#pbd6dc69178)">
     <!-- VAL 17 -->
     <g transform="translate(890.41299 642.090402) scale(0.08 -0.08)">
      <defs>
       <path id="DejaVuSans-37" d="M 525 4666 
L 3525 4666 
L 3525 4397 
L 1831 0 
L 1172 0 
L 2766 4134 
L 525 4134 
L 525 4666 
z
" transform="scale(0.015625)"/>
      </defs>
      <use xlink:href="#DejaVuSans-56"/>
      <use xlink:href="#DejaVuSans-41" x="62.033203"/>
      <use xlink:href="#DejaVuSans-4c" x="130.441406"/>
      <use xlink:href="#DejaVuSans-20" x="186.154297"/>
      <use xlink:href="#DejaVuSans-31" x="217.941406"/>
      <use xlink:href="#DejaVuSans-37" x="281.564453"/>
     </g>
    </g>
   </g>
   <g id="text_8">
    <g clip-path="url(#pbd6dc69178)">
     <!-- VAL 26 -->
     <g transform="translate(902.707183 431.55505) scale(0.08 -0.08)">
      <defs>
       <path id="DejaVuSans-32" d="M 1228 531 
L 3431 531 
L 3431 0 
L 469 0 
L 469 531 
Q 828 903 1448 1529 
Q 2069 2156 2228 2338 
Q 2531 2678 2651 2914 
Q 2772 3150 2772 3378 
Q 2772 3750 2511 3984 
Q 2250 4219 1831 4219 
Q 1534 4219 1204 4116 
Q 875 4013 500 3803 
L 500 4441 
Q 881 4594 1212 4672 
Q 1544 4750 1819 4750 
Q 2544 4750 2975 4387 
Q 3406 4025 3406 3419 
Q 3406 3131 3298 2873 
Q 3191 2616 2906 2266 
Q 2828 2175 2409 1742 
Q 1991 1309 1228 531 
z
" transform="scale(0.015625)"/>
       <path id="DejaVuSans-36" d="M 2113 2584 
Q 1688 2584 1439 2293 
Q 1191 2003 1191 1497 
Q 1191 994 1439 701 
Q 1688 409 2113 409 
Q 2538 409 2786 701 
Q 3034 994 3034 1497 
Q 3034 2003 2786 2293 
Q 2538 2584 2113 2584 
z
M 3366 4563 
L 3366 3988 
Q 3128 4100 2886 4159 
Q 2644 4219 2406 4219 
Q 1781 4219 1451 3797 
Q 1122 3375 1075 2522 
Q 1259 2794 1537 2939 
Q 1816 3084 2150 3084 
Q 2853 3084 3261 2657 
Q 3669 2231 3669 1497 
Q 3669 778 3244 343 
Q 2819 -91 2113 -91 
Q 1303 -91 875 529 
Q 447 1150 447 2328 
Q 447 3434 972 4092 
Q 1497 4750 2381 4750 
Q 2619 4750 2861 4703 
Q 3103 4656 3366 4563 
z
" transform="scale(0.015625)"/>
      </defs>
      <use xlink:href="#DejaVuSans-56"/>
      <use xlink:href="#DejaVuSans-41" x="62.033203"/>
      <use xlink:href="#DejaVuSans-4c" x="130.441406"/>
      <use xlink:href="#DejaVuSans-20" x="186.154297"/>
      <use xlink:href="#DejaVuSans-32" x="217.941406"/>
      <use xlink:href="#DejaVuSans-36" x="281.564453"/>
     </g>
    </g>
   </g>
   <g id="text_9">
    <g clip-path="url(#pbd6dc69178)">
     <!-- ILE 23 -->
     <g transform="translate(1349.188336 473.436811) scale(0.08 -0.08)">
      <use xlink:href="#DejaVuSans-49"/>
      <use xlink:href="#DejaVuSans-4c" x="29.492188"/>
      <use xlink:href="#DejaVuSans-45" x="85.205078"/>
      <use xlink:href="#DejaVuSans-20" x="148.388672"/>
      <use xlink:href="#DejaVuSans-32" x="180.175781"/>
      <use xlink:href="#DejaVuSans-33" x="243.798828"/>
     </g>
    </g>
   </g>
   <g id="text_10">
    <g clip-path="url(#pbd6dc69178)">
     <!-- LEU 56 -->
     <g transform="translate(1201.022606 522.294233) scale(0.08 -0.08)">
      <use xlink:href="#DejaVuSans-4c"/>
      <use xlink:href="#DejaVuSans-45" x="55.712891"/>
      <use xlink:href="#DejaVuSans-55" x="118.896484"/>
      <use xlink:href="#DejaVuSans-20" x="192.089844"/>
      <use xlink:href="#DejaVuSans-35" x="223.876953"/>
      <use xlink:href="#DejaVuSans-36" x="287.5"/>
     </g>
    </g>
   </g>
   <g id="text_11">
    <g clip-path="url(#pbd6dc69178)">
     <!-- ILE 61 -->
     <g transform="translate(1581.201441 433.769712) scale(0.08 -0.08)">
      <use xlink:href="#DejaVuSans-49"/>
      <use xlink:href="#DejaVuSans-4c" x="29.492188"/>
      <use xlink:href="#DejaVuSans-45" x="85.205078"/>
      <use xlink:href="#DejaVuSans-20" x="148.388672"/>
      <use xlink:href="#DejaVuSans-36" x="180.175781"/>
      <use xlink:href="#DejaVuSans-31" x="243.798828"/>
     </g>
    </g>
   </g>
   <g id="text_12">
    <g clip-path="url(#pbd6dc69178)">
     <!-- LEU 50 -->
     <g transform="translate(1640.565926 573.369121) scale(0.08 -0.08)">
      <use xlink:href="#DejaVuSans-4c"/>
      <use xlink:href="#DejaVuSans-45" x="55.712891"/>
      <use xlink:href="#DejaVuSans-55" x="118.896484"/>
      <use xlink:href="#DejaVuSans-20" x="192.089844"/>
      <use xlink:href="#DejaVuSans-35" x="223.876953"/>
      <use xlink:href="#DejaVuSans-30" x="287.5"/>
     </g>
    </g>
   </g>
   <g id="text_13">
    <g clip-path="url(#pbd6dc69178)">
     <!-- LEU 67 -->
     <g transform="translate(1896.441242 333.9888) scale(0.08 -0.08)">
      <use xlink:href="#DejaVuSans-4c"/>
      <use xlink:href="#DejaVuSans-45" x="55.712891"/>
      <use xlink:href="#DejaVuSans-55" x="118.896484"/>
      <use xlink:href="#DejaVuSans-20" x="192.089844"/>
      <use xlink:href="#DejaVuSans-36" x="223.876953"/>
      <use xlink:href="#DejaVuSans-37" x="287.5"/>
     </g>
    </g>
   </g>
   <g id="text_14">
    <g clip-path="url(#pbd6dc69178)">
     <!-- ILE 36 -->
     <g transform="translate(2572.821137 2441.987148) scale(0.08 -0.08)">
      <use xlink:href="#DejaVuSans-49"/>
      <use xlink:href="#DejaVuSans-4c" x="29.492188"/>
      <use xlink:href="#DejaVuSans-45" x="85.205078"/>
      <use xlink:href="#DejaVuSans-20" x="148.388672"/>
      <use xlink:href="#DejaVuSans-33" x="180.175781"/>
      <use xlink:href="#DejaVuSans-36" x="243.798828"/>
     </g>
    </g>
   </g>
   <g id="text_15">
    <g clip-path="url(#pbd6dc69178)">
     <!-- LEU 69 -->
     <g transform="translate(2616.037645 2632.290145) scale(0.08 -0.08)">
      <defs>
       <path id="DejaVuSans-39" d="M 703 97 
L 703 672 
Q 941 559 1184 500 
Q 1428 441 1663 441 
Q 2288 441 2617 861 
Q 2947 1281 2994 2138 
Q 2813 1869 2534 1725 
Q 2256 1581 1919 1581 
Q 1219 1581 811 2004 
Q 403 2428 403 3163 
Q 403 3881 828 4315 
Q 1253 4750 1959 4750 
Q 2769 4750 3195 4129 
Q 3622 3509 3622 2328 
Q 3622 1225 3098 567 
Q 2575 -91 1691 -91 
Q 1453 -91 1209 -44 
Q 966 3 703 97 
z
M 1959 2075 
Q 2384 2075 2632 2365 
Q 2881 2656 2881 3163 
Q 2881 3666 2632 3958 
Q 2384 4250 1959 4250 
Q 1534 4250 1286 3958 
Q 1038 3666 1038 3163 
Q 1038 2656 1286 2365 
Q 1534 2075 1959 2075 
z
" transform="scale(0.015625)"/>
      </defs>
      <use xlink:href="#DejaVuSans-4c"/>
      <use xlink:href="#DejaVuSans-45" x="55.712891"/>
      <use xlink:href="#DejaVuSans-55" x="118.896484"/>
      <use xlink:href="#DejaVuSans-20" x="192.089844"/>
      <use xlink:href="#DejaVuSans-36" x="223.876953"/>
      <use xlink:href="#DejaVuSans-39" x="287.5"/>
     </g>
    </g>
   </g>
   <g id="text_16">
    <g clip-path="url(#pbd6dc69178)">
     <!-- LEU 71 -->
     <g transform="translate(2510.405341 2250.71989) scale(0.08 -0.08)">
      <use xlink:href="#DejaVuSans-4c"/>
      <use xlink:href="#DejaVuSans-45" x="55.712891"/>
      <use xlink:href="#DejaVuSans-55" x="118.896484"/>
      <use xlink:href="#DejaVuSans-20" x="192.089844"/>
      <use xlink:href="#DejaVuSans-37" x="223.876953"/>
      <use xlink:href="#DejaVuSans-31" x="287.5"/>
     </g>
    </g>
   </g>
   <g id="text_17">
    <g clip-path="url(#pbd6dc69178)">
     <!-- VAL 70 -->
     <g transform="translate(378.608451 2205.439325) scale(0.08 -0.08)">
      <use xlink:href="#DejaVuSans-56"/>
      <use xlink:href="#DejaVuSans-41" x="62.033203"/>
      <use xlink:href="#DejaVuSans-4c" x="130.441406"/>
      <use xlink:href="#DejaVuSans-20" x="186.154297"/>
      <use xlink:href="#DejaVuSans-37" x="217.941406"/>
      <use xlink:href="#DejaVuSans-30" x="281.564453"/>
     </g>
    </g>
   </g>
   <g id="text_18">
    <g clip-path="url(#pbd6dc69178)">
     <!-- ILE 44 -->
     <g transform="translate(256.482897 2394.420285) scale(0.08 -0.08)">
      <use xlink:href="#DejaVuSans-49"/>
      <use xlink:href="#DejaVuSans-4c" x="29.492188"/>
      <use xlink:href="#DejaVuSans-45" x="85.205078"/>
      <use xlink:href="#DejaVuSans-20" x="148.388672"/>
      <use xlink:href="#DejaVuSans-34" x="180.175781"/>
      <use xlink:href="#DejaVuSans-34" x="243.798828"/>
     </g>
    </g>
   </g>
  </g>
  <g id="text_19">
   <!-- G_NMR -->
   <g transform="translate(1418.51625 66.50625) scale(0.12 -0.12)">
    <defs>
     <path id="DejaVuSans-47" d="M 3809 666 
L 3809 1919 
L 2778 1919 
L 2778 2438 
L 4434 2438 
L 4434 434 
Q 4069 175 3628 42 
Q 3188 -91 2688 -91 
Q 1594 -91 976 548 
Q 359 1188 359 2328 
Q 359 3472 976 4111 
Q 1594 4750 2688 4750 
Q 3144 4750 3555 4637 
Q 3966 4525 4313 4306 
L 4313 3634 
Q 3963 3931 3569 4081 
Q 3175 4231 2741 4231 
Q 1884 4231 1454 3753 
Q 1025 3275 1025 2328 
Q 1025 1384 1454 906 
Q 1884 428 2741 428 
Q 3075 428 3337 486 
Q 3600 544 3809 666 
z
" transform="scale(0.015625)"/>
     <path id="DejaVuSans-5f" d="M 3263 -1063 
L 3263 -1509 
L -63 -1509 
L -63 -1063 
L 3263 -1063 
z
" transform="scale(0.015625)"/>
     <path id="DejaVuSans-4e" d="M 628 4666 
L 1478 4666 
L 3547 763 
L 3547 4666 
L 4159 4666 
L 4159 0 
L 3309 0 
L 1241 3903 
L 1241 0 
L 628 0 
L 628 4666 
z
" transform="scale(0.015625)"/>
     <path id="DejaVuSans-4d" d="M 628 4666 
L 1569 4666 
L 2759 1491 
L 3956 4666 
L 4897 4666 
L 4897 0 
L 4281 0 
L 4281 4097 
L 3078 897 
L 2444 897 
L 1241 4097 
L 1241 0 
L 628 0 
L 628 4666 
z
" transform="scale(0.015625)"/>
     <path id="DejaVuSans-52" d="M 2841 2188 
Q 3044 2119 3236 1894 
Q 3428 1669 3622 1275 
L 4263 0 
L 3584 0 
L 2988 1197 
Q 2756 1666 2539 1819 
Q 2322 1972 1947 1972 
L 1259 1972 
L 1259 0 
L 628 0 
L 628 4666 
L 2053 4666 
Q 2853 4666 3247 4331 
Q 3641 3997 3641 3322 
Q 3641 2881 3436 2590 
Q 3231 2300 2841 2188 
z
M 1259 4147 
L 1259 2491 
L 2053 2491 
Q 2509 2491 2742 2702 
Q 2975 2913 2975 3322 
Q 2975 3731 2742 3939 
Q 2509 4147 2053 4147 
L 1259 4147 
z
" transform="scale(0.015625)"/>
    </defs>
    <use xlink:href="#DejaVuSans-47"/>
    <use xlink:href="#DejaVuSans-5f" x="77.490234"/>
    <use xlink:href="#DejaVuSans-4e" x="127.490234"/>
    <use xlink:href="#DejaVuSans-4d" x="202.294922"/>
    <use xlink:href="#DejaVuSans-52" x="288.574219"/>
   </g>
  </g>
 </g>
 <defs>
  <clipPath id="pbd6dc69178">
   <rect x="0" y="0" width="2880" height="2880"/>
  </clipPath>
 </defs>
</svg>
