<?xml version="1.0" encoding="utf-8" standalone="no"?>
<!DOCTYPE svg PUBLIC "-//W3C//DTD SVG 1.1//EN"
  "http://www.w3.org/Graphics/SVG/1.1/DTD/svg11.dtd">
<svg xmlns:xlink="http://www.w3.org/1999/xlink" width="2880pt" height="2880pt" viewBox="0 0 2880 2880" xmlns="http://www.w3.org/2000/svg" version="1.1">
 <metadata>
  <rdf:RDF xmlns:dc="http://purl.org/dc/elements/1.1/" xmlns:cc="http://creativecommons.org/ns#" xmlns:rdf="http://www.w3.org/1999/02/22-rdf-syntax-ns#">
   <cc:Work>
    <dc:type rdf:resource="http://purl.org/dc/dcmitype/StillImage"/>
    <dc:date>2024-04-11T22:05:15.642009</dc:date>
    <dc:format>image/svg+xml</dc:format>
    <dc:creator>
     <cc:Agent>
      <dc:title>Matplotlib v3.8.2, https://matplotlib.org/</dc:title>
     </cc:Agent>
    </dc:creator>
   </cc:Work>
  </rdf:RDF>
 </metadata>
 <defs>
  <style type="text/css">*{stroke-linejoin: round; stroke-linecap: butt}</style>
 </defs>
 <g id="figure_1">
  <g id="patch_1">
   <path d="M 0 2880 
L 2880 2880 
L 2880 0 
L 0 0 
z
" style="fill: #ffffff"/>
  </g>
  <g id="axes_1">
   <g id="patch_2">
    <path d="M 1781.005451 567.255718 
Q 1856.046731 599.34349 1930.882411 631.343346 
" clip-path="url(#p23597ba91f)" style="fill: none; stroke: #000000; stroke-width: 0.2; stroke-linecap: round"/>
    <path d="M 1927.990872 627.931748 
L 1930.882411 631.343346 
L 1926.418209 631.609618 
z
" clip-path="url(#p23597ba91f)" style="stroke: #000000; stroke-width: 0.2; stroke-linecap: round"/>
   </g>
   <g id="patch_3">
    <path d="M 1765.053785 575.525229 
Q 1729.531478 742.05269 1694.055819 908.361464 
" clip-path="url(#p23597ba91f)" style="fill: none; stroke: #000000; stroke-width: 0.2; stroke-linecap: round"/>
    <path d="M 1696.846287 904.866712 
L 1694.055819 908.361464 
L 1692.934299 904.032238 
z
" clip-path="url(#p23597ba91f)" style="stroke: #000000; stroke-width: 0.2; stroke-linecap: round"/>
   </g>
   <g id="patch_4">
    <path d="M 1776.323541 573.135044 
Q 1817.206945 629.345348 1857.958823 685.374818 
" clip-path="url(#p23597ba91f)" style="fill: none; stroke: #000000; stroke-width: 0.2; stroke-linecap: round"/>
    <path d="M 1857.223445 680.963558 
L 1857.958823 685.374818 
L 1853.988588 683.316364 
z
" clip-path="url(#p23597ba91f)" style="stroke: #000000; stroke-width: 0.2; stroke-linecap: round"/>
   </g>
   <g id="patch_5">
    <path d="M 1775.914136 549.973105 
Q 1817.745816 487.979784 1859.452423 426.171818 
" clip-path="url(#p23597ba91f)" style="fill: none; stroke: #000000; stroke-width: 0.2; stroke-linecap: round"/>
    <path d="M 1855.557171 428.368863 
L 1859.452423 426.171818 
L 1858.872908 430.606247 
z
" clip-path="url(#p23597ba91f)" style="stroke: #000000; stroke-width: 0.2; stroke-linecap: round"/>
   </g>
   <g id="patch_6">
    <path d="M 1772.503184 548.287508 
Q 1820.315065 405.806381 1868.05581 263.537244 
" clip-path="url(#p23597ba91f)" style="fill: none; stroke: #000000; stroke-width: 0.2; stroke-linecap: round"/>
    <path d="M 1864.887187 266.693165 
L 1868.05581 263.537244 
L 1868.679372 267.965694 
z
" clip-path="url(#p23597ba91f)" style="stroke: #000000; stroke-width: 0.2; stroke-linecap: round"/>
   </g>
   <g id="patch_7">
    <path d="M 1931.088548 631.431491 
Q 1856.047269 599.34372 1781.211588 567.343863 
" clip-path="url(#p23597ba91f)" style="fill: none; stroke: #000000; stroke-width: 0.2; stroke-linecap: round"/>
    <path d="M 1784.103127 570.755461 
L 1781.211588 567.343863 
L 1785.67579 567.077591 
z
" clip-path="url(#p23597ba91f)" style="stroke: #000000; stroke-width: 0.2; stroke-linecap: round"/>
   </g>
   <g id="patch_8">
    <path d="M 1932.898115 645.635225 
Q 1905.247687 666.990722 1877.774229 688.209538 
" clip-path="url(#p23597ba91f)" style="fill: none; stroke: #000000; stroke-width: 0.2; stroke-linecap: round"/>
    <path d="M 1882.162474 687.347386 
L 1877.774229 688.209538 
L 1879.717454 684.181651 
z
" clip-path="url(#p23597ba91f)" style="stroke: #000000; stroke-width: 0.2; stroke-linecap: round"/>
   </g>
   <g id="patch_9">
    <path d="M 1952.235786 648.555381 
Q 1999.044812 715.011181 2045.725074 781.284171 
" clip-path="url(#p23597ba91f)" style="fill: none; stroke: #000000; stroke-width: 0.2; stroke-linecap: round"/>
    <path d="M 2045.056763 776.862253 
L 2045.725074 781.284171 
L 2041.786552 779.165669 
z
" clip-path="url(#p23597ba91f)" style="stroke: #000000; stroke-width: 0.2; stroke-linecap: round"/>
   </g>
   <g id="patch_10">
    <path d="M 1951.732123 625.093936 
Q 1998.349394 552.518071 2044.845819 480.130344 
" clip-path="url(#p23597ba91f)" style="fill: none; stroke: #000000; stroke-width: 0.2; stroke-linecap: round"/>
    <path d="M 2041.001292 482.414991 
L 2044.845819 480.130344 
L 2044.366821 484.576754 
z
" clip-path="url(#p23597ba91f)" style="stroke: #000000; stroke-width: 0.2; stroke-linecap: round"/>
   </g>
   <g id="patch_11">
    <path d="M 1699.740637 911.251827 
Q 1778.73115 809.703063 1857.584372 708.330796 
" clip-path="url(#p23597ba91f)" style="fill: none; stroke: #000000; stroke-width: 0.2; stroke-linecap: round"/>
    <path d="M 1853.549809 710.260122 
L 1857.584372 708.330796 
L 1856.707095 712.716043 
z
" clip-path="url(#p23597ba91f)" style="stroke: #000000; stroke-width: 0.2; stroke-linecap: round"/>
   </g>
   <g id="patch_12">
    <path d="M 1877.598599 688.345184 
Q 1905.249027 666.989687 1932.722485 645.77087 
" clip-path="url(#p23597ba91f)" style="fill: none; stroke: #000000; stroke-width: 0.2; stroke-linecap: round"/>
    <path d="M 1928.33424 646.633023 
L 1932.722485 645.77087 
L 1930.77926 649.798758 
z
" clip-path="url(#p23597ba91f)" style="stroke: #000000; stroke-width: 0.2; stroke-linecap: round"/>
   </g>
   <g id="patch_13">
    <path d="M 1858.086564 685.550447 
Q 1817.20316 629.340143 1776.451281 573.310674 
" clip-path="url(#p23597ba91f)" style="fill: none; stroke: #000000; stroke-width: 0.2; stroke-linecap: round"/>
    <path d="M 1777.186659 577.721934 
L 1776.451281 573.310674 
L 1780.421517 575.369127 
z
" clip-path="url(#p23597ba91f)" style="stroke: #000000; stroke-width: 0.2; stroke-linecap: round"/>
   </g>
   <g id="patch_14">
    <path d="M 1857.724089 708.151179 
Q 1778.733577 809.699943 1699.880354 911.072209 
" clip-path="url(#p23597ba91f)" style="fill: none; stroke: #000000; stroke-width: 0.2; stroke-linecap: round"/>
    <path d="M 1703.914918 909.142883 
L 1699.880354 911.072209 
L 1700.757631 906.686963 
z
" clip-path="url(#p23597ba91f)" style="stroke: #000000; stroke-width: 0.2; stroke-linecap: round"/>
   </g>
   <g id="patch_15">
    <path d="M 1878.992481 703.432964 
Q 1960.199892 745.008255 2041.208265 786.481645 
" clip-path="url(#p23597ba91f)" style="fill: none; stroke: #000000; stroke-width: 0.2; stroke-linecap: round"/>
    <path d="M 2038.559184 782.878539 
L 2041.208265 786.481645 
L 2036.736332 786.439046 
z
" clip-path="url(#p23597ba91f)" style="stroke: #000000; stroke-width: 0.2; stroke-linecap: round"/>
   </g>
   <g id="patch_16">
    <path d="M 1875.330705 686.016492 
Q 1959.507913 582.516538 2043.544032 479.19006 
" clip-path="url(#p23597ba91f)" style="fill: none; stroke: #000000; stroke-width: 0.2; stroke-linecap: round"/>
    <path d="M 2039.468539 481.031352 
L 2043.544032 479.19006 
L 2042.571769 483.55523 
z
" clip-path="url(#p23597ba91f)" style="stroke: #000000; stroke-width: 0.2; stroke-linecap: round"/>
   </g>
   <g id="patch_17">
    <path d="M 1866.460583 682.843469 
Q 1866.947782 555.624054 1867.434126 428.628244 
" clip-path="url(#p23597ba91f)" style="fill: none; stroke: #000000; stroke-width: 0.2; stroke-linecap: round"/>
    <path d="M 1865.418822 432.620555 
L 1867.434126 428.628244 
L 1869.418793 432.635874 
z
" clip-path="url(#p23597ba91f)" style="stroke: #000000; stroke-width: 0.2; stroke-linecap: round"/>
   </g>
   <g id="patch_18">
    <path d="M 1859.578703 425.984676 
Q 1817.747022 487.977997 1776.040415 549.785963 
" clip-path="url(#p23597ba91f)" style="fill: none; stroke: #000000; stroke-width: 0.2; stroke-linecap: round"/>
    <path d="M 1779.935668 547.588917 
L 1776.040415 549.785963 
L 1776.619931 545.351533 
z
" clip-path="url(#p23597ba91f)" style="stroke: #000000; stroke-width: 0.2; stroke-linecap: round"/>
   </g>
   <g id="patch_19">
    <path d="M 1867.434971 428.407511 
Q 1866.947771 555.626926 1866.461428 682.622736 
" clip-path="url(#p23597ba91f)" style="fill: none; stroke: #000000; stroke-width: 0.2; stroke-linecap: round"/>
    <path d="M 1868.476732 678.630425 
L 1866.461428 682.622736 
L 1864.476761 678.615106 
z
" clip-path="url(#p23597ba91f)" style="stroke: #000000; stroke-width: 0.2; stroke-linecap: round"/>
   </g>
   <g id="patch_20">
    <path d="M 1881.067507 418.206527 
Q 1960.047152 441.152311 2038.81207 464.03571 
" clip-path="url(#p23597ba91f)" style="fill: none; stroke: #000000; stroke-width: 0.2; stroke-linecap: round"/>
    <path d="M 2035.52888 460.999155 
L 2038.81207 464.03571 
L 2034.412912 464.840329 
z
" clip-path="url(#p23597ba91f)" style="stroke: #000000; stroke-width: 0.2; stroke-linecap: round"/>
   </g>
   <g id="patch_21">
    <path d="M 1867.931 400.12576 
Q 1870.057719 332.087788 1872.177451 264.273315 
" clip-path="url(#p23597ba91f)" style="fill: none; stroke: #000000; stroke-width: 0.2; stroke-linecap: round"/>
    <path d="M 1870.053457 268.208877 
L 1872.177451 264.273315 
L 1874.051505 268.333847 
z
" clip-path="url(#p23597ba91f)" style="stroke: #000000; stroke-width: 0.2; stroke-linecap: round"/>
   </g>
   <g id="patch_22">
    <path d="M 1868.126698 263.325994 
Q 1820.314817 405.80712 1772.574072 548.076257 
" clip-path="url(#p23597ba91f)" style="fill: none; stroke: #000000; stroke-width: 0.2; stroke-linecap: round"/>
    <path d="M 1775.742695 544.920337 
L 1772.574072 548.076257 
L 1771.95051 543.647807 
z
" clip-path="url(#p23597ba91f)" style="stroke: #000000; stroke-width: 0.2; stroke-linecap: round"/>
   </g>
   <g id="patch_23">
    <path d="M 1881.625882 260.82436 
Q 1962.618272 358.981509 2043.46835 456.966184 
" clip-path="url(#p23597ba91f)" style="fill: none; stroke: #000000; stroke-width: 0.2; stroke-linecap: round"/>
    <path d="M 2042.465228 452.608003 
L 2043.46835 456.966184 
L 2039.379932 455.153773 
z
" clip-path="url(#p23597ba91f)" style="stroke: #000000; stroke-width: 0.2; stroke-linecap: round"/>
   </g>
   <g id="patch_24">
    <path d="M 1872.184331 264.05323 
Q 1870.057612 332.091202 1867.93788 399.905675 
" clip-path="url(#p23597ba91f)" style="fill: none; stroke: #000000; stroke-width: 0.2; stroke-linecap: round"/>
    <path d="M 1870.061874 395.970113 
L 1867.93788 399.905675 
L 1866.063826 395.845143 
z
" clip-path="url(#p23597ba91f)" style="stroke: #000000; stroke-width: 0.2; stroke-linecap: round"/>
   </g>
   <g id="patch_25">
    <path d="M 2045.852636 781.465274 
Q 1999.043609 715.009474 1952.363348 648.736484 
" clip-path="url(#p23597ba91f)" style="fill: none; stroke: #000000; stroke-width: 0.2; stroke-linecap: round"/>
    <path d="M 1953.031659 653.158402 
L 1952.363348 648.736484 
L 1956.301869 650.854986 
z
" clip-path="url(#p23597ba91f)" style="stroke: #000000; stroke-width: 0.2; stroke-linecap: round"/>
   </g>
   <g id="patch_26">
    <path d="M 2041.412046 786.585974 
Q 1960.204635 745.010683 1879.196262 703.537292 
" clip-path="url(#p23597ba91f)" style="fill: none; stroke: #000000; stroke-width: 0.2; stroke-linecap: round"/>
    <path d="M 1881.845343 707.140398 
L 1879.196262 703.537292 
L 1883.668195 703.579891 
z
" clip-path="url(#p23597ba91f)" style="stroke: #000000; stroke-width: 0.2; stroke-linecap: round"/>
   </g>
   <g id="patch_27">
    <path d="M 2065.023431 784.177482 
Q 2145.391025 719.651181 2225.584258 655.264873 
" clip-path="url(#p23597ba91f)" style="fill: none; stroke: #000000; stroke-width: 0.2; stroke-linecap: round"/>
    <path d="M 2221.213048 656.209608 
L 2225.584258 655.264873 
L 2223.71732 659.328682 
z
" clip-path="url(#p23597ba91f)" style="stroke: #000000; stroke-width: 0.2; stroke-linecap: round"/>
   </g>
   <g id="patch_28">
    <path d="M 2044.967274 479.941256 
Q 1998.350003 552.517122 1951.853579 624.904848 
" clip-path="url(#p23597ba91f)" style="fill: none; stroke: #000000; stroke-width: 0.2; stroke-linecap: round"/>
    <path d="M 1955.698105 622.620201 
L 1951.853579 624.904848 
L 1952.332576 620.458438 
z
" clip-path="url(#p23597ba91f)" style="stroke: #000000; stroke-width: 0.2; stroke-linecap: round"/>
   </g>
   <g id="patch_29">
    <path d="M 2043.684797 479.016983 
Q 1959.507589 582.516936 1875.471471 685.843414 
" clip-path="url(#p23597ba91f)" style="fill: none; stroke: #000000; stroke-width: 0.2; stroke-linecap: round"/>
    <path d="M 1879.546964 684.002123 
L 1875.471471 685.843414 
L 1876.443734 681.478245 
z
" clip-path="url(#p23597ba91f)" style="stroke: #000000; stroke-width: 0.2; stroke-linecap: round"/>
   </g>
   <g id="patch_30">
    <path d="M 2066.751047 468.333195 
Q 2188.068414 470.812955 2309.16222 473.288145 
" clip-path="url(#p23597ba91f)" style="fill: none; stroke: #000000; stroke-width: 0.2; stroke-linecap: round"/>
    <path d="M 2305.203927 471.206819 
L 2309.16222 473.288145 
L 2305.122183 475.205983 
z
" clip-path="url(#p23597ba91f)" style="stroke: #000000; stroke-width: 0.2; stroke-linecap: round"/>
   </g>
   <g id="patch_31">
    <path d="M 2039.03073 464.099237 
Q 1960.051084 441.153453 1881.286167 418.270054 
" clip-path="url(#p23597ba91f)" style="fill: none; stroke: #000000; stroke-width: 0.2; stroke-linecap: round"/>
    <path d="M 1884.569357 421.306608 
L 1881.286167 418.270054 
L 1885.685325 417.465435 
z
" clip-path="url(#p23597ba91f)" style="stroke: #000000; stroke-width: 0.2; stroke-linecap: round"/>
   </g>
   <g id="patch_32">
    <path d="M 2043.609398 457.137125 
Q 1962.617008 358.979976 1881.76693 260.9953 
" clip-path="url(#p23597ba91f)" style="fill: none; stroke: #000000; stroke-width: 0.2; stroke-linecap: round"/>
    <path d="M 1882.770052 265.353482 
L 1881.76693 260.9953 
L 1885.855348 262.807712 
z
" clip-path="url(#p23597ba91f)" style="stroke: #000000; stroke-width: 0.2; stroke-linecap: round"/>
   </g>
   <g id="patch_33">
    <path d="M 2062.773931 477.880723 
Q 2144.69856 557.159832 2226.462502 636.283443 
" clip-path="url(#p23597ba91f)" style="fill: none; stroke: #000000; stroke-width: 0.2; stroke-linecap: round"/>
    <path d="M 2224.978862 632.064579 
L 2226.462502 636.283443 
L 2222.197227 634.939036 
z
" clip-path="url(#p23597ba91f)" style="stroke: #000000; stroke-width: 0.2; stroke-linecap: round"/>
   </g>
   <g id="patch_34">
    <path d="M 2309.384164 473.292682 
Q 2188.066797 470.812922 2066.972991 468.337731 
" clip-path="url(#p23597ba91f)" style="fill: none; stroke: #000000; stroke-width: 0.2; stroke-linecap: round"/>
    <path d="M 2070.931284 470.419058 
L 2066.972991 468.337731 
L 2071.013028 466.419893 
z
" clip-path="url(#p23597ba91f)" style="stroke: #000000; stroke-width: 0.2; stroke-linecap: round"/>
   </g>
   <g id="patch_35">
    <path d="M 2337.140713 469.747112 
Q 2418.507383 446.829683 2499.65882 423.972876 
" clip-path="url(#p23597ba91f)" style="fill: none; stroke: #000000; stroke-width: 0.2; stroke-linecap: round"/>
    <path d="M 2495.266409 423.13221 
L 2499.65882 423.972876 
L 2496.35084 426.982406 
z
" clip-path="url(#p23597ba91f)" style="stroke: #000000; stroke-width: 0.2; stroke-linecap: round"/>
   </g>
   <g id="patch_36">
    <path d="M 2317.179598 486.2168 
Q 2280.156268 559.925187 2243.233305 633.433757 
" clip-path="url(#p23597ba91f)" style="fill: none; stroke: #000000; stroke-width: 0.2; stroke-linecap: round"/>
    <path d="M 2246.815929 630.757042 
L 2243.233305 633.433757 
L 2243.241507 628.961629 
z
" clip-path="url(#p23597ba91f)" style="stroke: #000000; stroke-width: 0.2; stroke-linecap: round"/>
   </g>
   <g id="patch_37">
    <path d="M 2331.582986 485.208662 
Q 2391.413106 571.549877 2451.115867 657.707299 
" clip-path="url(#p23597ba91f)" style="fill: none; stroke: #000000; stroke-width: 0.2; stroke-linecap: round"/>
    <path d="M 2450.48149 653.280386 
L 2451.115867 657.707299 
L 2447.19371 655.558652 
z
" clip-path="url(#p23597ba91f)" style="stroke: #000000; stroke-width: 0.2; stroke-linecap: round"/>
   </g>
   <g id="patch_38">
    <path d="M 2225.759295 655.124337 
Q 2145.391701 719.650639 2065.198468 784.036947 
" clip-path="url(#p23597ba91f)" style="fill: none; stroke: #000000; stroke-width: 0.2; stroke-linecap: round"/>
    <path d="M 2069.569678 783.092212 
L 2065.198468 784.036947 
L 2067.065406 779.973138 
z
" clip-path="url(#p23597ba91f)" style="stroke: #000000; stroke-width: 0.2; stroke-linecap: round"/>
   </g>
   <g id="patch_39">
    <path d="M 2243.13113 633.637174 
Q 2280.15446 559.928788 2317.077423 486.420217 
" clip-path="url(#p23597ba91f)" style="fill: none; stroke: #000000; stroke-width: 0.2; stroke-linecap: round"/>
    <path d="M 2313.494799 489.096933 
L 2317.077423 486.420217 
L 2317.069221 490.892346 
z
" clip-path="url(#p23597ba91f)" style="stroke: #000000; stroke-width: 0.2; stroke-linecap: round"/>
   </g>
   <g id="patch_40">
    <path d="M 2226.619771 636.435633 
Q 2144.695142 557.156525 2062.9312 478.032914 
" clip-path="url(#p23597ba91f)" style="fill: none; stroke: #000000; stroke-width: 0.2; stroke-linecap: round"/>
    <path d="M 2064.41484 482.251778 
L 2062.9312 478.032914 
L 2067.196476 479.377321 
z
" clip-path="url(#p23597ba91f)" style="stroke: #000000; stroke-width: 0.2; stroke-linecap: round"/>
   </g>
   <g id="patch_41">
    <path d="M 2250.851243 647.741522 
Q 2348.040385 657.893167 2445.007131 668.021583 
" clip-path="url(#p23597ba91f)" style="fill: none; stroke: #000000; stroke-width: 0.2; stroke-linecap: round"/>
    <path d="M 2441.236549 665.616855 
L 2445.007131 668.021583 
L 2440.821 669.595212 
z
" clip-path="url(#p23597ba91f)" style="stroke: #000000; stroke-width: 0.2; stroke-linecap: round"/>
   </g>
   <g id="patch_42">
    <path d="M 2451.240619 657.887331 
Q 2391.410499 571.546115 2331.707738 485.388693 
" clip-path="url(#p23597ba91f)" style="fill: none; stroke: #000000; stroke-width: 0.2; stroke-linecap: round"/>
    <path d="M 2332.342114 489.815607 
L 2331.707738 485.388693 
L 2335.629895 487.53734 
z
" clip-path="url(#p23597ba91f)" style="stroke: #000000; stroke-width: 0.2; stroke-linecap: round"/>
   </g>
   <g id="patch_43">
    <path d="M 2462.299836 655.694319 
Q 2486.392605 544.794419 2510.437903 434.113028 
" clip-path="url(#p23597ba91f)" style="fill: none; stroke: #000000; stroke-width: 0.2; stroke-linecap: round"/>
    <path d="M 2507.634309 437.597258 
L 2510.437903 434.113028 
L 2511.543131 438.446441 
z
" clip-path="url(#p23597ba91f)" style="stroke: #000000; stroke-width: 0.2; stroke-linecap: round"/>
   </g>
   <g id="patch_44">
    <path d="M 2445.230854 668.044951 
Q 2348.041711 657.893306 2251.074965 647.76489 
" clip-path="url(#p23597ba91f)" style="fill: none; stroke: #000000; stroke-width: 0.2; stroke-linecap: round"/>
    <path d="M 2254.845547 650.169618 
L 2251.074965 647.76489 
L 2255.261096 646.191261 
z
" clip-path="url(#p23597ba91f)" style="stroke: #000000; stroke-width: 0.2; stroke-linecap: round"/>
   </g>
   <g id="patch_45">
    <path d="M 2468.22295 680.483934 
Q 2544.691134 774.465851 2621.018194 868.274322 
" clip-path="url(#p23597ba91f)" style="fill: none; stroke: #000000; stroke-width: 0.2; stroke-linecap: round"/>
    <path d="M 2620.045035 863.909352 
L 2621.018194 868.274322 
L 2616.942323 866.433867 
z
" clip-path="url(#p23597ba91f)" style="stroke: #000000; stroke-width: 0.2; stroke-linecap: round"/>
   </g>
   <g id="patch_46">
    <path d="M 2499.872368 423.912729 
Q 2418.505698 446.830158 2337.354261 469.686965 
" clip-path="url(#p23597ba91f)" style="fill: none; stroke: #000000; stroke-width: 0.2; stroke-linecap: round"/>
    <path d="M 2341.746673 470.527631 
L 2337.354261 469.686965 
L 2340.662241 466.677435 
z
" clip-path="url(#p23597ba91f)" style="stroke: #000000; stroke-width: 0.2; stroke-linecap: round"/>
   </g>
   <g id="patch_47">
    <path d="M 2510.484613 433.89802 
Q 2486.391844 544.797921 2462.346546 655.479312 
" clip-path="url(#p23597ba91f)" style="fill: none; stroke: #000000; stroke-width: 0.2; stroke-linecap: round"/>
    <path d="M 2465.15014 651.995082 
L 2462.346546 655.479312 
L 2461.241319 651.145898 
z
" clip-path="url(#p23597ba91f)" style="stroke: #000000; stroke-width: 0.2; stroke-linecap: round"/>
   </g>
   <g id="patch_48">
    <path d="M 2621.157181 868.445141 
Q 2544.688997 774.463224 2468.361937 680.654753 
" clip-path="url(#p23597ba91f)" style="fill: none; stroke: #000000; stroke-width: 0.2; stroke-linecap: round"/>
    <path d="M 2469.335096 685.019723 
L 2468.361937 680.654753 
L 2472.437808 682.495208 
z
" clip-path="url(#p23597ba91f)" style="stroke: #000000; stroke-width: 0.2; stroke-linecap: round"/>
   </g>
   <g id="patch_49">
    <path d="M 342.482109 568.699735 
Q 346.553549 453.426395 350.617096 338.376523 
" clip-path="url(#p23597ba91f)" style="fill: none; stroke: #000000; stroke-width: 0.2; stroke-linecap: round"/>
    <path d="M 348.477151 342.303435 
L 350.617096 338.376523 
L 352.474658 342.444626 
z
" clip-path="url(#p23597ba91f)" style="stroke: #000000; stroke-width: 0.2; stroke-linecap: round"/>
   </g>
   <g id="patch_50">
    <path d="M 336.221776 595.747869 
Q 295.950287 686.020254 255.769896 776.088431 
" clip-path="url(#p23597ba91f)" style="fill: none; stroke: #000000; stroke-width: 0.2; stroke-linecap: round"/>
    <path d="M 259.226024 773.250266 
L 255.769896 776.088431 
L 255.57304 771.62063 
z
" clip-path="url(#p23597ba91f)" style="stroke: #000000; stroke-width: 0.2; stroke-linecap: round"/>
   </g>
   <g id="patch_51">
    <path d="M 350.624891 338.155833 
Q 346.553451 453.429173 342.489904 568.479045 
" clip-path="url(#p23597ba91f)" style="fill: none; stroke: #000000; stroke-width: 0.2; stroke-linecap: round"/>
    <path d="M 344.629849 564.552134 
L 342.489904 568.479045 
L 340.632342 564.410942 
z
" clip-path="url(#p23597ba91f)" style="stroke: #000000; stroke-width: 0.2; stroke-linecap: round"/>
   </g>
   <g id="patch_52">
    <path d="M 255.678476 776.29336 
Q 295.949965 686.020975 336.130356 595.952798 
" clip-path="url(#p23597ba91f)" style="fill: none; stroke: #000000; stroke-width: 0.2; stroke-linecap: round"/>
    <path d="M 332.674228 598.790963 
L 336.130356 595.952798 
L 336.327212 600.420599 
z
" clip-path="url(#p23597ba91f)" style="stroke: #000000; stroke-width: 0.2; stroke-linecap: round"/>
   </g>
   <g id="patch_53">
    <path d="M 1069.584989 2616.131133 
Q 1054.004401 2522.183481 1038.460396 2428.456423 
" clip-path="url(#p23597ba91f)" style="fill: none; stroke: #000000; stroke-width: 0.2; stroke-linecap: round"/>
    <path d="M 1037.14178 2432.729741 
L 1038.460396 2428.456423 
L 1041.087881 2432.075307 
z
" clip-path="url(#p23597ba91f)" style="stroke: #000000; stroke-width: 0.2; stroke-linecap: round"/>
   </g>
   <g id="patch_54">
    <path d="M 1038.424253 2428.238485 
Q 1054.004841 2522.186137 1069.548846 2615.913195 
" clip-path="url(#p23597ba91f)" style="fill: none; stroke: #000000; stroke-width: 0.2; stroke-linecap: round"/>
    <path d="M 1070.867462 2611.639877 
L 1069.548846 2615.913195 
L 1066.92136 2612.294311 
z
" clip-path="url(#p23597ba91f)" style="stroke: #000000; stroke-width: 0.2; stroke-linecap: round"/>
   </g>
   <g id="PathCollection_1">
    <defs>
     <path id="C0_0_77db93ac75" d="M 0 14.142136 
C 3.750538 14.142136 7.347969 12.652031 10 10 
C 12.652031 7.347969 14.142136 3.750538 14.142136 -0 
C 14.142136 -3.750538 12.652031 -7.347969 10 -10 
C 7.347969 -12.652031 3.750538 -14.142136 0 -14.142136 
C -3.750538 -14.142136 -7.347969 -12.652031 -10 -10 
C -12.652031 -7.347969 -14.142136 -3.750538 -14.142136 0 
C -14.142136 3.750538 -12.652031 7.347969 -10 10 
C -7.347969 12.652031 -3.750538 14.142136 0 14.142136 
z
"/>
    </defs>
    <g clip-path="url(#p23597ba91f)">
     <use xlink:href="#C0_0_77db93ac75" x="1768.003695" y="561.696146" style="fill: #0000ff; stroke: #0000ff"/>
    </g>
    <g clip-path="url(#p23597ba91f)">
     <use xlink:href="#C0_0_77db93ac75" x="1944.090304" y="636.991063" style="fill: #ffa500; stroke: #ffa500"/>
    </g>
    <g clip-path="url(#p23597ba91f)">
     <use xlink:href="#C0_0_77db93ac75" x="1691.058317" y="922.41366" style="fill: #ffa500; stroke: #ffa500"/>
    </g>
    <g clip-path="url(#p23597ba91f)">
     <use xlink:href="#C0_0_77db93ac75" x="1866.40641" y="696.989345" style="fill: #ffff00; stroke: #ffff00"/>
    </g>
    <g clip-path="url(#p23597ba91f)">
     <use xlink:href="#C0_0_77db93ac75" x="1867.489144" y="414.261635" style="fill: #ffa500; stroke: #ffa500"/>
    </g>
    <g clip-path="url(#p23597ba91f)">
     <use xlink:href="#C0_0_77db93ac75" x="1872.626187" y="249.917355" style="fill: #ffff00; stroke: #ffff00"/>
    </g>
    <g clip-path="url(#p23597ba91f)">
     <use xlink:href="#C0_0_77db93ac75" x="2053.998117" y="793.029592" style="fill: #0000ff; stroke: #0000ff"/>
    </g>
    <g clip-path="url(#p23597ba91f)">
     <use xlink:href="#C0_0_77db93ac75" x="2052.609093" y="468.044129" style="fill: #0000ff; stroke: #0000ff"/>
    </g>
    <g clip-path="url(#p23597ba91f)">
     <use xlink:href="#C0_0_77db93ac75" x="2323.526118" y="473.581747" style="fill: #ffa500; stroke: #ffa500"/>
    </g>
    <g clip-path="url(#p23597ba91f)">
     <use xlink:href="#C0_0_77db93ac75" x="2236.78461" y="646.272228" style="fill: #ffff00; stroke: #ffff00"/>
    </g>
    <g clip-path="url(#p23597ba91f)">
     <use xlink:href="#C0_0_77db93ac75" x="2459.297486" y="669.514245" style="fill: #ffa500; stroke: #ffa500"/>
    </g>
    <g clip-path="url(#p23597ba91f)">
     <use xlink:href="#C0_0_77db93ac75" x="2513.486963" y="420.078094" style="fill: #ffff00; stroke: #ffff00"/>
    </g>
    <g clip-path="url(#p23597ba91f)">
     <use xlink:href="#C0_0_77db93ac75" x="2630.082645" y="879.41483" style="fill: #ffff00; stroke: #ffff00"/>
    </g>
    <g clip-path="url(#p23597ba91f)">
     <use xlink:href="#C0_0_77db93ac75" x="341.982897" y="582.833769" style="fill: #ffa500; stroke: #ffa500"/>
    </g>
    <g clip-path="url(#p23597ba91f)">
     <use xlink:href="#C0_0_77db93ac75" x="351.124103" y="324.0218" style="fill: #ffff00; stroke: #ffff00"/>
    </g>
    <g clip-path="url(#p23597ba91f)">
     <use xlink:href="#C0_0_77db93ac75" x="249.917355" y="789.20746" style="fill: #ffff00; stroke: #ffff00"/>
    </g>
    <g clip-path="url(#p23597ba91f)">
     <use xlink:href="#C0_0_77db93ac75" x="1071.898754" y="2630.082645" style="fill: #0000ff; stroke: #0000ff"/>
    </g>
    <g clip-path="url(#p23597ba91f)">
     <use xlink:href="#C0_0_77db93ac75" x="1036.110488" y="2414.286973" style="fill: #ffa500; stroke: #ffa500"/>
    </g>
   </g>
   <g id="text_1">
    <g clip-path="url(#p23597ba91f)">
     <!-- VAL 5 -->
     <g transform="translate(1756.741195 563.903646) scale(0.08 -0.08)">
      <defs>
       <path id="DejaVuSans-56" d="M 1831 0 
L 50 4666 
L 709 4666 
L 2188 738 
L 3669 4666 
L 4325 4666 
L 2547 0 
L 1831 0 
z
" transform="scale(0.015625)"/>
       <path id="DejaVuSans-41" d="M 2188 4044 
L 1331 1722 
L 3047 1722 
L 2188 4044 
z
M 1831 4666 
L 2547 4666 
L 4325 0 
L 3669 0 
L 3244 1197 
L 1141 1197 
L 716 0 
L 50 0 
L 1831 4666 
z
" transform="scale(0.015625)"/>
       <path id="DejaVuSans-4c" d="M 628 4666 
L 1259 4666 
L 1259 531 
L 3531 531 
L 3531 0 
L 628 0 
L 628 4666 
z
" transform="scale(0.015625)"/>
       <path id="DejaVuSans-20" transform="scale(0.015625)"/>
       <path id="DejaVuSans-35" d="M 691 4666 
L 3169 4666 
L 3169 4134 
L 1269 4134 
L 1269 2991 
Q 1406 3038 1543 3061 
Q 1681 3084 1819 3084 
Q 2600 3084 3056 2656 
Q 3513 2228 3513 1497 
Q 3513 744 3044 326 
Q 2575 -91 1722 -91 
Q 1428 -91 1123 -41 
Q 819 9 494 109 
L 494 744 
Q 775 591 1075 516 
Q 1375 441 1709 441 
Q 2250 441 2565 725 
Q 2881 1009 2881 1497 
Q 2881 1984 2565 2268 
Q 2250 2553 1709 2553 
Q 1456 2553 1204 2497 
Q 953 2441 691 2322 
L 691 4666 
z
" transform="scale(0.015625)"/>
      </defs>
      <use xlink:href="#DejaVuSans-56"/>
      <use xlink:href="#DejaVuSans-41" x="62.033203"/>
      <use xlink:href="#DejaVuSans-4c" x="130.441406"/>
      <use xlink:href="#DejaVuSans-20" x="186.154297"/>
      <use xlink:href="#DejaVuSans-35" x="217.941406"/>
     </g>
    </g>
   </g>
   <g id="text_2">
    <g clip-path="url(#p23597ba91f)">
     <!-- ILE 3 -->
     <g transform="translate(1934.337804 639.198563) scale(0.08 -0.08)">
      <defs>
       <path id="DejaVuSans-49" d="M 628 4666 
L 1259 4666 
L 1259 0 
L 628 0 
L 628 4666 
z
" transform="scale(0.015625)"/>
       <path id="DejaVuSans-45" d="M 628 4666 
L 3578 4666 
L 3578 4134 
L 1259 4134 
L 1259 2753 
L 3481 2753 
L 3481 2222 
L 1259 2222 
L 1259 531 
L 3634 531 
L 3634 0 
L 628 0 
L 628 4666 
z
" transform="scale(0.015625)"/>
       <path id="DejaVuSans-33" d="M 2597 2516 
Q 3050 2419 3304 2112 
Q 3559 1806 3559 1356 
Q 3559 666 3084 287 
Q 2609 -91 1734 -91 
Q 1441 -91 1130 -33 
Q 819 25 488 141 
L 488 750 
Q 750 597 1062 519 
Q 1375 441 1716 441 
Q 2309 441 2620 675 
Q 2931 909 2931 1356 
Q 2931 1769 2642 2001 
Q 2353 2234 1838 2234 
L 1294 2234 
L 1294 2753 
L 1863 2753 
Q 2328 2753 2575 2939 
Q 2822 3125 2822 3475 
Q 2822 3834 2567 4026 
Q 2313 4219 1838 4219 
Q 1578 4219 1281 4162 
Q 984 4106 628 3988 
L 628 4550 
Q 988 4650 1302 4700 
Q 1616 4750 1894 4750 
Q 2613 4750 3031 4423 
Q 3450 4097 3450 3541 
Q 3450 3153 3228 2886 
Q 3006 2619 2597 2516 
z
" transform="scale(0.015625)"/>
      </defs>
      <use xlink:href="#DejaVuSans-49"/>
      <use xlink:href="#DejaVuSans-4c" x="29.492188"/>
      <use xlink:href="#DejaVuSans-45" x="85.205078"/>
      <use xlink:href="#DejaVuSans-20" x="148.388672"/>
      <use xlink:href="#DejaVuSans-33" x="180.175781"/>
     </g>
    </g>
   </g>
   <g id="text_3">
    <g clip-path="url(#p23597ba91f)">
     <!-- ILE 13 -->
     <g transform="translate(1678.760817 924.62116) scale(0.08 -0.08)">
      <defs>
       <path id="DejaVuSans-31" d="M 794 531 
L 1825 531 
L 1825 4091 
L 703 3866 
L 703 4441 
L 1819 4666 
L 2450 4666 
L 2450 531 
L 3481 531 
L 3481 0 
L 794 0 
L 794 531 
z
" transform="scale(0.015625)"/>
      </defs>
      <use xlink:href="#DejaVuSans-49"/>
      <use xlink:href="#DejaVuSans-4c" x="29.492188"/>
      <use xlink:href="#DejaVuSans-45" x="85.205078"/>
      <use xlink:href="#DejaVuSans-20" x="148.388672"/>
      <use xlink:href="#DejaVuSans-31" x="180.175781"/>
      <use xlink:href="#DejaVuSans-33" x="243.798828"/>
     </g>
    </g>
   </g>
   <g id="text_4">
    <g clip-path="url(#p23597ba91f)">
     <!-- LEU 15 -->
     <g transform="translate(1852.36141 699.196845) scale(0.08 -0.08)">
      <defs>
       <path id="DejaVuSans-55" d="M 556 4666 
L 1191 4666 
L 1191 1831 
Q 1191 1081 1462 751 
Q 1734 422 2344 422 
Q 2950 422 3222 751 
Q 3494 1081 3494 1831 
L 3494 4666 
L 4128 4666 
L 4128 1753 
Q 4128 841 3676 375 
Q 3225 -91 2344 -91 
Q 1459 -91 1007 375 
Q 556 841 556 1753 
L 556 4666 
z
" transform="scale(0.015625)"/>
      </defs>
      <use xlink:href="#DejaVuSans-4c"/>
      <use xlink:href="#DejaVuSans-45" x="55.712891"/>
      <use xlink:href="#DejaVuSans-55" x="118.896484"/>
      <use xlink:href="#DejaVuSans-20" x="192.089844"/>
      <use xlink:href="#DejaVuSans-31" x="223.876953"/>
      <use xlink:href="#DejaVuSans-35" x="287.5"/>
     </g>
    </g>
   </g>
   <g id="text_5">
    <g clip-path="url(#p23597ba91f)">
     <!-- ILE 30 -->
     <g transform="translate(1855.191644 416.469135) scale(0.08 -0.08)">
      <defs>
       <path id="DejaVuSans-30" d="M 2034 4250 
Q 1547 4250 1301 3770 
Q 1056 3291 1056 2328 
Q 1056 1369 1301 889 
Q 1547 409 2034 409 
Q 2525 409 2770 889 
Q 3016 1369 3016 2328 
Q 3016 3291 2770 3770 
Q 2525 4250 2034 4250 
z
M 2034 4750 
Q 2819 4750 3233 4129 
Q 3647 3509 3647 2328 
Q 3647 1150 3233 529 
Q 2819 -91 2034 -91 
Q 1250 -91 836 529 
Q 422 1150 422 2328 
Q 422 3509 836 4129 
Q 1250 4750 2034 4750 
z
" transform="scale(0.015625)"/>
      </defs>
      <use xlink:href="#DejaVuSans-49"/>
      <use xlink:href="#DejaVuSans-4c" x="29.492188"/>
      <use xlink:href="#DejaVuSans-45" x="85.205078"/>
      <use xlink:href="#DejaVuSans-20" x="148.388672"/>
      <use xlink:href="#DejaVuSans-33" x="180.175781"/>
      <use xlink:href="#DejaVuSans-30" x="243.798828"/>
     </g>
    </g>
   </g>
   <g id="text_6">
    <g clip-path="url(#p23597ba91f)">
     <!-- LEU 43 -->
     <g transform="translate(1858.581187 252.124855) scale(0.08 -0.08)">
      <defs>
       <path id="DejaVuSans-34" d="M 2419 4116 
L 825 1625 
L 2419 1625 
L 2419 4116 
z
M 2253 4666 
L 3047 4666 
L 3047 1625 
L 3713 1625 
L 3713 1100 
L 3047 1100 
L 3047 0 
L 2419 0 
L 2419 1100 
L 313 1100 
L 313 1709 
L 2253 4666 
z
" transform="scale(0.015625)"/>
      </defs>
      <use xlink:href="#DejaVuSans-4c"/>
      <use xlink:href="#DejaVuSans-45" x="55.712891"/>
      <use xlink:href="#DejaVuSans-55" x="118.896484"/>
      <use xlink:href="#DejaVuSans-20" x="192.089844"/>
      <use xlink:href="#DejaVuSans-34" x="223.876953"/>
      <use xlink:href="#DejaVuSans-33" x="287.5"/>
     </g>
    </g>
   </g>
   <g id="text_7">
    <g clip-path="url(#p23597ba91f)">
     <!-- VAL 17 -->
     <g transform="translate(2040.190617 795.237092) scale(0.08 -0.08)">
      <defs>
       <path id="DejaVuSans-37" d="M 525 4666 
L 3525 4666 
L 3525 4397 
L 1831 0 
L 1172 0 
L 2766 4134 
L 525 4134 
L 525 4666 
z
" transform="scale(0.015625)"/>
      </defs>
      <use xlink:href="#DejaVuSans-56"/>
      <use xlink:href="#DejaVuSans-41" x="62.033203"/>
      <use xlink:href="#DejaVuSans-4c" x="130.441406"/>
      <use xlink:href="#DejaVuSans-20" x="186.154297"/>
      <use xlink:href="#DejaVuSans-31" x="217.941406"/>
      <use xlink:href="#DejaVuSans-37" x="281.564453"/>
     </g>
    </g>
   </g>
   <g id="text_8">
    <g clip-path="url(#p23597ba91f)">
     <!-- VAL 26 -->
     <g transform="translate(2038.801593 470.251629) scale(0.08 -0.08)">
      <defs>
       <path id="DejaVuSans-32" d="M 1228 531 
L 3431 531 
L 3431 0 
L 469 0 
L 469 531 
Q 828 903 1448 1529 
Q 2069 2156 2228 2338 
Q 2531 2678 2651 2914 
Q 2772 3150 2772 3378 
Q 2772 3750 2511 3984 
Q 2250 4219 1831 4219 
Q 1534 4219 1204 4116 
Q 875 4013 500 3803 
L 500 4441 
Q 881 4594 1212 4672 
Q 1544 4750 1819 4750 
Q 2544 4750 2975 4387 
Q 3406 4025 3406 3419 
Q 3406 3131 3298 2873 
Q 3191 2616 2906 2266 
Q 2828 2175 2409 1742 
Q 1991 1309 1228 531 
z
" transform="scale(0.015625)"/>
       <path id="DejaVuSans-36" d="M 2113 2584 
Q 1688 2584 1439 2293 
Q 1191 2003 1191 1497 
Q 1191 994 1439 701 
Q 1688 409 2113 409 
Q 2538 409 2786 701 
Q 3034 994 3034 1497 
Q 3034 2003 2786 2293 
Q 2538 2584 2113 2584 
z
M 3366 4563 
L 3366 3988 
Q 3128 4100 2886 4159 
Q 2644 4219 2406 4219 
Q 1781 4219 1451 3797 
Q 1122 3375 1075 2522 
Q 1259 2794 1537 2939 
Q 1816 3084 2150 3084 
Q 2853 3084 3261 2657 
Q 3669 2231 3669 1497 
Q 3669 778 3244 343 
Q 2819 -91 2113 -91 
Q 1303 -91 875 529 
Q 447 1150 447 2328 
Q 447 3434 972 4092 
Q 1497 4750 2381 4750 
Q 2619 4750 2861 4703 
Q 3103 4656 3366 4563 
z
" transform="scale(0.015625)"/>
      </defs>
      <use xlink:href="#DejaVuSans-56"/>
      <use xlink:href="#DejaVuSans-41" x="62.033203"/>
      <use xlink:href="#DejaVuSans-4c" x="130.441406"/>
      <use xlink:href="#DejaVuSans-20" x="186.154297"/>
      <use xlink:href="#DejaVuSans-32" x="217.941406"/>
      <use xlink:href="#DejaVuSans-36" x="281.564453"/>
     </g>
    </g>
   </g>
   <g id="text_9">
    <g clip-path="url(#p23597ba91f)">
     <!-- ILE 23 -->
     <g transform="translate(2311.228618 475.789247) scale(0.08 -0.08)">
      <use xlink:href="#DejaVuSans-49"/>
      <use xlink:href="#DejaVuSans-4c" x="29.492188"/>
      <use xlink:href="#DejaVuSans-45" x="85.205078"/>
      <use xlink:href="#DejaVuSans-20" x="148.388672"/>
      <use xlink:href="#DejaVuSans-32" x="180.175781"/>
      <use xlink:href="#DejaVuSans-33" x="243.798828"/>
     </g>
    </g>
   </g>
   <g id="text_10">
    <g clip-path="url(#p23597ba91f)">
     <!-- LEU 56 -->
     <g transform="translate(2222.73961 648.479728) scale(0.08 -0.08)">
      <use xlink:href="#DejaVuSans-4c"/>
      <use xlink:href="#DejaVuSans-45" x="55.712891"/>
      <use xlink:href="#DejaVuSans-55" x="118.896484"/>
      <use xlink:href="#DejaVuSans-20" x="192.089844"/>
      <use xlink:href="#DejaVuSans-35" x="223.876953"/>
      <use xlink:href="#DejaVuSans-36" x="287.5"/>
     </g>
    </g>
   </g>
   <g id="text_11">
    <g clip-path="url(#p23597ba91f)">
     <!-- ILE 61 -->
     <g transform="translate(2446.999986 671.721745) scale(0.08 -0.08)">
      <use xlink:href="#DejaVuSans-49"/>
      <use xlink:href="#DejaVuSans-4c" x="29.492188"/>
      <use xlink:href="#DejaVuSans-45" x="85.205078"/>
      <use xlink:href="#DejaVuSans-20" x="148.388672"/>
      <use xlink:href="#DejaVuSans-36" x="180.175781"/>
      <use xlink:href="#DejaVuSans-31" x="243.798828"/>
     </g>
    </g>
   </g>
   <g id="text_12">
    <g clip-path="url(#p23597ba91f)">
     <!-- LEU 50 -->
     <g transform="translate(2499.441963 422.285594) scale(0.08 -0.08)">
      <use xlink:href="#DejaVuSans-4c"/>
      <use xlink:href="#DejaVuSans-45" x="55.712891"/>
      <use xlink:href="#DejaVuSans-55" x="118.896484"/>
      <use xlink:href="#DejaVuSans-20" x="192.089844"/>
      <use xlink:href="#DejaVuSans-35" x="223.876953"/>
      <use xlink:href="#DejaVuSans-30" x="287.5"/>
     </g>
    </g>
   </g>
   <g id="text_13">
    <g clip-path="url(#p23597ba91f)">
     <!-- LEU 67 -->
     <g transform="translate(2616.037645 881.62233) scale(0.08 -0.08)">
      <use xlink:href="#DejaVuSans-4c"/>
      <use xlink:href="#DejaVuSans-45" x="55.712891"/>
      <use xlink:href="#DejaVuSans-55" x="118.896484"/>
      <use xlink:href="#DejaVuSans-20" x="192.089844"/>
      <use xlink:href="#DejaVuSans-36" x="223.876953"/>
      <use xlink:href="#DejaVuSans-37" x="287.5"/>
     </g>
    </g>
   </g>
   <g id="text_14">
    <g clip-path="url(#p23597ba91f)">
     <!-- ILE 36 -->
     <g transform="translate(329.685397 585.041269) scale(0.08 -0.08)">
      <use xlink:href="#DejaVuSans-49"/>
      <use xlink:href="#DejaVuSans-4c" x="29.492188"/>
      <use xlink:href="#DejaVuSans-45" x="85.205078"/>
      <use xlink:href="#DejaVuSans-20" x="148.388672"/>
      <use xlink:href="#DejaVuSans-33" x="180.175781"/>
      <use xlink:href="#DejaVuSans-36" x="243.798828"/>
     </g>
    </g>
   </g>
   <g id="text_15">
    <g clip-path="url(#p23597ba91f)">
     <!-- LEU 69 -->
     <g transform="translate(337.079103 326.2293) scale(0.08 -0.08)">
      <defs>
       <path id="DejaVuSans-39" d="M 703 97 
L 703 672 
Q 941 559 1184 500 
Q 1428 441 1663 441 
Q 2288 441 2617 861 
Q 2947 1281 2994 2138 
Q 2813 1869 2534 1725 
Q 2256 1581 1919 1581 
Q 1219 1581 811 2004 
Q 403 2428 403 3163 
Q 403 3881 828 4315 
Q 1253 4750 1959 4750 
Q 2769 4750 3195 4129 
Q 3622 3509 3622 2328 
Q 3622 1225 3098 567 
Q 2575 -91 1691 -91 
Q 1453 -91 1209 -44 
Q 966 3 703 97 
z
M 1959 2075 
Q 2384 2075 2632 2365 
Q 2881 2656 2881 3163 
Q 2881 3666 2632 3958 
Q 2384 4250 1959 4250 
Q 1534 4250 1286 3958 
Q 1038 3666 1038 3163 
Q 1038 2656 1286 2365 
Q 1534 2075 1959 2075 
z
" transform="scale(0.015625)"/>
      </defs>
      <use xlink:href="#DejaVuSans-4c"/>
      <use xlink:href="#DejaVuSans-45" x="55.712891"/>
      <use xlink:href="#DejaVuSans-55" x="118.896484"/>
      <use xlink:href="#DejaVuSans-20" x="192.089844"/>
      <use xlink:href="#DejaVuSans-36" x="223.876953"/>
      <use xlink:href="#DejaVuSans-39" x="287.5"/>
     </g>
    </g>
   </g>
   <g id="text_16">
    <g clip-path="url(#p23597ba91f)">
     <!-- LEU 71 -->
     <g transform="translate(235.872355 791.41496) scale(0.08 -0.08)">
      <use xlink:href="#DejaVuSans-4c"/>
      <use xlink:href="#DejaVuSans-45" x="55.712891"/>
      <use xlink:href="#DejaVuSans-55" x="118.896484"/>
      <use xlink:href="#DejaVuSans-20" x="192.089844"/>
      <use xlink:href="#DejaVuSans-37" x="223.876953"/>
      <use xlink:href="#DejaVuSans-31" x="287.5"/>
     </g>
    </g>
   </g>
   <g id="text_17">
    <g clip-path="url(#p23597ba91f)">
     <!-- VAL 70 -->
     <g transform="translate(1058.091254 2632.290145) scale(0.08 -0.08)">
      <use xlink:href="#DejaVuSans-56"/>
      <use xlink:href="#DejaVuSans-41" x="62.033203"/>
      <use xlink:href="#DejaVuSans-4c" x="130.441406"/>
      <use xlink:href="#DejaVuSans-20" x="186.154297"/>
      <use xlink:href="#DejaVuSans-37" x="217.941406"/>
      <use xlink:href="#DejaVuSans-30" x="281.564453"/>
     </g>
    </g>
   </g>
   <g id="text_18">
    <g clip-path="url(#p23597ba91f)">
     <!-- ILE 44 -->
     <g transform="translate(1023.812988 2416.494473) scale(0.08 -0.08)">
      <use xlink:href="#DejaVuSans-49"/>
      <use xlink:href="#DejaVuSans-4c" x="29.492188"/>
      <use xlink:href="#DejaVuSans-45" x="85.205078"/>
      <use xlink:href="#DejaVuSans-20" x="148.388672"/>
      <use xlink:href="#DejaVuSans-34" x="180.175781"/>
      <use xlink:href="#DejaVuSans-34" x="243.798828"/>
     </g>
    </g>
   </g>
  </g>
  <g id="text_19">
   <!-- G_NMR -->
   <g transform="translate(1418.51625 66.50625) scale(0.12 -0.12)">
    <defs>
     <path id="DejaVuSans-47" d="M 3809 666 
L 3809 1919 
L 2778 1919 
L 2778 2438 
L 4434 2438 
L 4434 434 
Q 4069 175 3628 42 
Q 3188 -91 2688 -91 
Q 1594 -91 976 548 
Q 359 1188 359 2328 
Q 359 3472 976 4111 
Q 1594 4750 2688 4750 
Q 3144 4750 3555 4637 
Q 3966 4525 4313 4306 
L 4313 3634 
Q 3963 3931 3569 4081 
Q 3175 4231 2741 4231 
Q 1884 4231 1454 3753 
Q 1025 3275 1025 2328 
Q 1025 1384 1454 906 
Q 1884 428 2741 428 
Q 3075 428 3337 486 
Q 3600 544 3809 666 
z
" transform="scale(0.015625)"/>
     <path id="DejaVuSans-5f" d="M 3263 -1063 
L 3263 -1509 
L -63 -1509 
L -63 -1063 
L 3263 -1063 
z
" transform="scale(0.015625)"/>
     <path id="DejaVuSans-4e" d="M 628 4666 
L 1478 4666 
L 3547 763 
L 3547 4666 
L 4159 4666 
L 4159 0 
L 3309 0 
L 1241 3903 
L 1241 0 
L 628 0 
L 628 4666 
z
" transform="scale(0.015625)"/>
     <path id="DejaVuSans-4d" d="M 628 4666 
L 1569 4666 
L 2759 1491 
L 3956 4666 
L 4897 4666 
L 4897 0 
L 4281 0 
L 4281 4097 
L 3078 897 
L 2444 897 
L 1241 4097 
L 1241 0 
L 628 0 
L 628 4666 
z
" transform="scale(0.015625)"/>
     <path id="DejaVuSans-52" d="M 2841 2188 
Q 3044 2119 3236 1894 
Q 3428 1669 3622 1275 
L 4263 0 
L 3584 0 
L 2988 1197 
Q 2756 1666 2539 1819 
Q 2322 1972 1947 1972 
L 1259 1972 
L 1259 0 
L 628 0 
L 628 4666 
L 2053 4666 
Q 2853 4666 3247 4331 
Q 3641 3997 3641 3322 
Q 3641 2881 3436 2590 
Q 3231 2300 2841 2188 
z
M 1259 4147 
L 1259 2491 
L 2053 2491 
Q 2509 2491 2742 2702 
Q 2975 2913 2975 3322 
Q 2975 3731 2742 3939 
Q 2509 4147 2053 4147 
L 1259 4147 
z
" transform="scale(0.015625)"/>
    </defs>
    <use xlink:href="#DejaVuSans-47"/>
    <use xlink:href="#DejaVuSans-5f" x="77.490234"/>
    <use xlink:href="#DejaVuSans-4e" x="127.490234"/>
    <use xlink:href="#DejaVuSans-4d" x="202.294922"/>
    <use xlink:href="#DejaVuSans-52" x="288.574219"/>
   </g>
  </g>
 </g>
 <defs>
  <clipPath id="p23597ba91f">
   <rect x="0" y="0" width="2880" height="2880"/>
  </clipPath>
 </defs>
</svg>
