<?xml version="1.0" encoding="utf-8" standalone="no"?>
<!DOCTYPE svg PUBLIC "-//W3C//DTD SVG 1.1//EN"
  "http://www.w3.org/Graphics/SVG/1.1/DTD/svg11.dtd">
<svg xmlns:xlink="http://www.w3.org/1999/xlink" width="2880pt" height="2880pt" viewBox="0 0 2880 2880" xmlns="http://www.w3.org/2000/svg" version="1.1">
 <metadata>
  <rdf:RDF xmlns:dc="http://purl.org/dc/elements/1.1/" xmlns:cc="http://creativecommons.org/ns#" xmlns:rdf="http://www.w3.org/1999/02/22-rdf-syntax-ns#">
   <cc:Work>
    <dc:type rdf:resource="http://purl.org/dc/dcmitype/StillImage"/>
    <dc:date>2024-09-22T07:46:23.299577</dc:date>
    <dc:format>image/svg+xml</dc:format>
    <dc:creator>
     <cc:Agent>
      <dc:title>Matplotlib v3.8.2, https://matplotlib.org/</dc:title>
     </cc:Agent>
    </dc:creator>
   </cc:Work>
  </rdf:RDF>
 </metadata>
 <defs>
  <style type="text/css">*{stroke-linejoin: round; stroke-linecap: butt}</style>
 </defs>
 <g id="figure_1">
  <g id="patch_1">
   <path d="M 0 2880 
L 2880 2880 
L 2880 0 
L 0 0 
z
" style="fill: #ffffff"/>
  </g>
  <g id="axes_1">
   <g id="patch_2">
    <path d="M 1772.317401 2435.256316 
Q 1685.049315 2378.262792 1597.968447 2321.391537 
" clip-path="url(#p8ad3d9f3e5)" style="fill: none; stroke: #000000; stroke-width: 0.2; stroke-linecap: round"/>
    <path d="M 1600.223885 2325.253272 
L 1597.968447 2321.391537 
L 1602.411098 2321.904227 
z
" clip-path="url(#p8ad3d9f3e5)" style="stroke: #000000; stroke-width: 0.2; stroke-linecap: round"/>
   </g>
   <g id="patch_3">
    <path d="M 1793.777614 2432.621873 
Q 1875.176759 2344.888461 1956.423819 2257.31897 
" clip-path="url(#p8ad3d9f3e5)" style="fill: none; stroke: #000000; stroke-width: 0.2; stroke-linecap: round"/>
    <path d="M 1952.237078 2258.890975 
L 1956.423819 2257.31897 
L 1955.169378 2261.611566 
z
" clip-path="url(#p8ad3d9f3e5)" style="stroke: #000000; stroke-width: 0.2; stroke-linecap: round"/>
   </g>
   <g id="patch_4">
    <path d="M 1776.144431 2431.335768 
Q 1737.25648 2374.786077 1698.495231 2318.420632 
" clip-path="url(#p8ad3d9f3e5)" style="fill: none; stroke: #000000; stroke-width: 0.2; stroke-linecap: round"/>
    <path d="M 1699.113796 2322.849783 
L 1698.495231 2318.420632 
L 1702.409691 2320.58327 
z
" clip-path="url(#p8ad3d9f3e5)" style="stroke: #000000; stroke-width: 0.2; stroke-linecap: round"/>
   </g>
   <g id="patch_5">
    <path d="M 1771.231322 2448.714767 
Q 1709.715741 2475.958981 1648.404613 2503.112647 
" clip-path="url(#p8ad3d9f3e5)" style="fill: none; stroke: #000000; stroke-width: 0.2; stroke-linecap: round"/>
    <path d="M 1652.871867 2503.321544 
L 1648.404613 2503.112647 
L 1651.252083 2499.664181 
z
" clip-path="url(#p8ad3d9f3e5)" style="stroke: #000000; stroke-width: 0.2; stroke-linecap: round"/>
   </g>
   <g id="patch_6">
    <path d="M 1774.191802 2453.02422 
Q 1691.244219 2536.537732 1608.454211 2619.892593 
" clip-path="url(#p8ad3d9f3e5)" style="fill: none; stroke: #000000; stroke-width: 0.2; stroke-linecap: round"/>
    <path d="M 1612.692019 2618.463963 
L 1608.454211 2619.892593 
L 1609.853993 2615.645168 
z
" clip-path="url(#p8ad3d9f3e5)" style="stroke: #000000; stroke-width: 0.2; stroke-linecap: round"/>
   </g>
   <g id="patch_7">
    <path d="M 1597.783317 2321.270631 
Q 1685.051402 2378.264155 1772.132271 2435.13541 
" clip-path="url(#p8ad3d9f3e5)" style="fill: none; stroke: #000000; stroke-width: 0.2; stroke-linecap: round"/>
    <path d="M 1769.876832 2431.273675 
L 1772.132271 2435.13541 
L 1767.68962 2434.622719 
z
" clip-path="url(#p8ad3d9f3e5)" style="stroke: #000000; stroke-width: 0.2; stroke-linecap: round"/>
   </g>
   <g id="patch_8">
    <path d="M 1600.054853 2312.597379 
Q 1638.148649 2310.060012 1676.019333 2307.537505 
" clip-path="url(#p8ad3d9f3e5)" style="fill: none; stroke: #000000; stroke-width: 0.2; stroke-linecap: round"/>
    <path d="M 1671.895254 2305.807772 
L 1676.019333 2307.537505 
L 1672.161099 2309.798928 
z
" clip-path="url(#p8ad3d9f3e5)" style="stroke: #000000; stroke-width: 0.2; stroke-linecap: round"/>
   </g>
   <g id="patch_9">
    <path d="M 1577.093567 2302.506927 
Q 1527.684361 2240.915033 1478.415076 2179.49756 
" clip-path="url(#p8ad3d9f3e5)" style="fill: none; stroke: #000000; stroke-width: 0.2; stroke-linecap: round"/>
    <path d="M 1479.357985 2183.869164 
L 1478.415076 2179.49756 
L 1482.478105 2181.366194 
z
" clip-path="url(#p8ad3d9f3e5)" style="stroke: #000000; stroke-width: 0.2; stroke-linecap: round"/>
   </g>
   <g id="patch_10">
    <path d="M 1573.597763 2320.439849 
Q 1501.335408 2360.845551 1429.268222 2401.142124 
" clip-path="url(#p8ad3d9f3e5)" style="fill: none; stroke: #000000; stroke-width: 0.2; stroke-linecap: round"/>
    <path d="M 1433.735587 2400.935604 
L 1429.268222 2401.142124 
L 1431.783426 2397.44432 
z
" clip-path="url(#p8ad3d9f3e5)" style="stroke: #000000; stroke-width: 0.2; stroke-linecap: round"/>
   </g>
   <g id="patch_11">
    <path d="M 1952.378928 2249.780634 
Q 1828.277572 2276.683505 1704.394746 2303.539002 
" clip-path="url(#p8ad3d9f3e5)" style="fill: none; stroke: #000000; stroke-width: 0.2; stroke-linecap: round"/>
    <path d="M 1708.727667 2304.646159 
L 1704.394746 2303.539002 
L 1707.880225 2300.73696 
z
" clip-path="url(#p8ad3d9f3e5)" style="stroke: #000000; stroke-width: 0.2; stroke-linecap: round"/>
   </g>
   <g id="patch_12">
    <path d="M 1676.241915 2307.52268 
Q 1638.148119 2310.060047 1600.277436 2312.582553 
" clip-path="url(#p8ad3d9f3e5)" style="fill: none; stroke: #000000; stroke-width: 0.2; stroke-linecap: round"/>
    <path d="M 1604.401514 2314.312286 
L 1600.277436 2312.582553 
L 1604.135669 2310.32113 
z
" clip-path="url(#p8ad3d9f3e5)" style="stroke: #000000; stroke-width: 0.2; stroke-linecap: round"/>
   </g>
   <g id="patch_13">
    <path d="M 1698.368567 2318.236442 
Q 1737.256518 2374.786133 1776.017767 2431.151578 
" clip-path="url(#p8ad3d9f3e5)" style="fill: none; stroke: #000000; stroke-width: 0.2; stroke-linecap: round"/>
    <path d="M 1775.399202 2426.722427 
L 1776.017767 2431.151578 
L 1772.103308 2428.98894 
z
" clip-path="url(#p8ad3d9f3e5)" style="stroke: #000000; stroke-width: 0.2; stroke-linecap: round"/>
   </g>
   <g id="patch_14">
    <path d="M 1704.172752 2303.587126 
Q 1828.274108 2276.684256 1952.156933 2249.828759 
" clip-path="url(#p8ad3d9f3e5)" style="fill: none; stroke: #000000; stroke-width: 0.2; stroke-linecap: round"/>
    <path d="M 1947.824012 2248.721601 
L 1952.156933 2249.828759 
L 1948.671454 2252.6308 
z
" clip-path="url(#p8ad3d9f3e5)" style="stroke: #000000; stroke-width: 0.2; stroke-linecap: round"/>
   </g>
   <g id="patch_15">
    <path d="M 1678.370197 2299.081014 
Q 1579.889863 2237.436772 1481.599065 2175.911171 
" clip-path="url(#p8ad3d9f3e5)" style="fill: none; stroke: #000000; stroke-width: 0.2; stroke-linecap: round"/>
    <path d="M 1483.928441 2179.728763 
L 1481.599065 2175.911171 
L 1486.050764 2176.338226 
z
" clip-path="url(#p8ad3d9f3e5)" style="stroke: #000000; stroke-width: 0.2; stroke-linecap: round"/>
   </g>
   <g id="patch_16">
    <path d="M 1677.098289 2311.503423 
Q 1553.542522 2357.367769 1430.196385 2403.1543 
" clip-path="url(#p8ad3d9f3e5)" style="fill: none; stroke: #000000; stroke-width: 0.2; stroke-linecap: round"/>
    <path d="M 1434.642364 2403.637284 
L 1430.196385 2403.1543 
L 1433.250359 2399.887307 
z
" clip-path="url(#p8ad3d9f3e5)" style="stroke: #000000; stroke-width: 0.2; stroke-linecap: round"/>
   </g>
   <g id="patch_17">
    <path d="M 1686.640034 2320.226736 
Q 1662.810836 2407.756216 1639.040374 2495.069941 
" clip-path="url(#p8ad3d9f3e5)" style="fill: none; stroke: #000000; stroke-width: 0.2; stroke-linecap: round"/>
    <path d="M 1642.020866 2491.735774 
L 1639.040374 2495.069941 
L 1638.161335 2490.685048 
z
" clip-path="url(#p8ad3d9f3e5)" style="stroke: #000000; stroke-width: 0.2; stroke-linecap: round"/>
   </g>
   <g id="patch_18">
    <path d="M 1648.193916 2503.205961 
Q 1709.709497 2475.961746 1771.020625 2448.808081 
" clip-path="url(#p8ad3d9f3e5)" style="fill: none; stroke: #000000; stroke-width: 0.2; stroke-linecap: round"/>
    <path d="M 1766.55337 2448.599184 
L 1771.020625 2448.808081 
L 1768.173155 2452.256546 
z
" clip-path="url(#p8ad3d9f3e5)" style="stroke: #000000; stroke-width: 0.2; stroke-linecap: round"/>
   </g>
   <g id="patch_19">
    <path d="M 1638.981254 2495.287103 
Q 1662.810452 2407.757624 1686.580914 2320.443898 
" clip-path="url(#p8ad3d9f3e5)" style="fill: none; stroke: #000000; stroke-width: 0.2; stroke-linecap: round"/>
    <path d="M 1683.600422 2323.778065 
L 1686.580914 2320.443898 
L 1687.459953 2324.828792 
z
" clip-path="url(#p8ad3d9f3e5)" style="stroke: #000000; stroke-width: 0.2; stroke-linecap: round"/>
   </g>
   <g id="patch_20">
    <path d="M 1622.425143 2503.009315 
Q 1525.997289 2458.541984 1429.772491 2414.168291 
" clip-path="url(#p8ad3d9f3e5)" style="fill: none; stroke: #000000; stroke-width: 0.2; stroke-linecap: round"/>
    <path d="M 1432.567342 2417.659539 
L 1429.772491 2414.168291 
L 1434.2424 2414.027159 
z
" clip-path="url(#p8ad3d9f3e5)" style="stroke: #000000; stroke-width: 0.2; stroke-linecap: round"/>
   </g>
   <g id="patch_21">
    <path d="M 1631.142622 2522.459414 
Q 1616.80002 2569.506807 1602.522622 2616.340311 
" clip-path="url(#p8ad3d9f3e5)" style="fill: none; stroke: #000000; stroke-width: 0.2; stroke-linecap: round"/>
    <path d="M 1605.60212 2613.097366 
L 1602.522622 2616.340311 
L 1601.775964 2611.930946 
z
" clip-path="url(#p8ad3d9f3e5)" style="stroke: #000000; stroke-width: 0.2; stroke-linecap: round"/>
   </g>
   <g id="patch_22">
    <path d="M 1608.299883 2620.047973 
Q 1691.247467 2536.534462 1774.037475 2453.179601 
" clip-path="url(#p8ad3d9f3e5)" style="fill: none; stroke: #000000; stroke-width: 0.2; stroke-linecap: round"/>
    <path d="M 1769.799666 2454.60823 
L 1774.037475 2453.179601 
L 1772.637693 2457.427025 
z
" clip-path="url(#p8ad3d9f3e5)" style="stroke: #000000; stroke-width: 0.2; stroke-linecap: round"/>
   </g>
   <g id="patch_23">
    <path d="M 1589.37438 2619.134505 
Q 1507.528844 2519.115178 1425.824917 2419.268903 
" clip-path="url(#p8ad3d9f3e5)" style="fill: none; stroke: #000000; stroke-width: 0.2; stroke-linecap: round"/>
    <path d="M 1426.810255 2423.63114 
L 1425.824917 2419.268903 
L 1429.905909 2421.097975 
z
" clip-path="url(#p8ad3d9f3e5)" style="stroke: #000000; stroke-width: 0.2; stroke-linecap: round"/>
   </g>
   <g id="patch_24">
    <path d="M 1602.457353 2616.554409 
Q 1616.799956 2569.507016 1631.077353 2522.673512 
" clip-path="url(#p8ad3d9f3e5)" style="fill: none; stroke: #000000; stroke-width: 0.2; stroke-linecap: round"/>
    <path d="M 1627.997856 2525.916457 
L 1631.077353 2522.673512 
L 1631.824011 2527.082877 
z
" clip-path="url(#p8ad3d9f3e5)" style="stroke: #000000; stroke-width: 0.2; stroke-linecap: round"/>
   </g>
   <g id="patch_25">
    <path d="M 1478.273564 2179.321156 
Q 1527.68277 2240.91305 1576.952055 2302.330524 
" clip-path="url(#p8ad3d9f3e5)" style="fill: none; stroke: #000000; stroke-width: 0.2; stroke-linecap: round"/>
    <path d="M 1576.009146 2297.95892 
L 1576.952055 2302.330524 
L 1572.889026 2300.461889 
z
" clip-path="url(#p8ad3d9f3e5)" style="stroke: #000000; stroke-width: 0.2; stroke-linecap: round"/>
   </g>
   <g id="patch_26">
    <path d="M 1481.409214 2175.792333 
Q 1579.889549 2237.436575 1678.180347 2298.962176 
" clip-path="url(#p8ad3d9f3e5)" style="fill: none; stroke: #000000; stroke-width: 0.2; stroke-linecap: round"/>
    <path d="M 1675.850971 2295.144584 
L 1678.180347 2298.962176 
L 1673.728648 2298.535121 
z
" clip-path="url(#p8ad3d9f3e5)" style="stroke: #000000; stroke-width: 0.2; stroke-linecap: round"/>
   </g>
   <g id="patch_27">
    <path d="M 1455.551098 2171.017882 
Q 1340.96588 2193.542106 1226.600069 2216.023201 
" clip-path="url(#p8ad3d9f3e5)" style="fill: none; stroke: #000000; stroke-width: 0.2; stroke-linecap: round"/>
    <path d="M 1230.910719 2217.214123 
L 1226.600069 2216.023201 
L 1230.139196 2213.289234 
z
" clip-path="url(#p8ad3d9f3e5)" style="stroke: #000000; stroke-width: 0.2; stroke-linecap: round"/>
   </g>
   <g id="patch_28">
    <path d="M 1429.073608 2401.250943 
Q 1501.335963 2360.845241 1573.403149 2320.548668 
" clip-path="url(#p8ad3d9f3e5)" style="fill: none; stroke: #000000; stroke-width: 0.2; stroke-linecap: round"/>
    <path d="M 1568.935784 2320.755188 
L 1573.403149 2320.548668 
L 1570.887945 2324.246472 
z
" clip-path="url(#p8ad3d9f3e5)" style="stroke: #000000; stroke-width: 0.2; stroke-linecap: round"/>
   </g>
   <g id="patch_29">
    <path d="M 1429.985363 2403.232632 
Q 1553.54113 2357.368286 1676.887266 2311.581756 
" clip-path="url(#p8ad3d9f3e5)" style="fill: none; stroke: #000000; stroke-width: 0.2; stroke-linecap: round"/>
    <path d="M 1672.441288 2311.098772 
L 1676.887266 2311.581756 
L 1673.833292 2314.848749 
z
" clip-path="url(#p8ad3d9f3e5)" style="stroke: #000000; stroke-width: 0.2; stroke-linecap: round"/>
   </g>
   <g id="patch_30">
    <path d="M 1402.955638 2404.946309 
Q 1251.132076 2369.594973 1099.526296 2334.294347 
" clip-path="url(#p8ad3d9f3e5)" style="fill: none; stroke: #000000; stroke-width: 0.2; stroke-linecap: round"/>
    <path d="M 1102.968525 2337.149353 
L 1099.526296 2334.294347 
L 1103.875638 2333.253568 
z
" clip-path="url(#p8ad3d9f3e5)" style="stroke: #000000; stroke-width: 0.2; stroke-linecap: round"/>
   </g>
   <g id="patch_31">
    <path d="M 1429.570748 2414.075258 
Q 1525.998602 2458.542589 1622.2234 2502.916282 
" clip-path="url(#p8ad3d9f3e5)" style="fill: none; stroke: #000000; stroke-width: 0.2; stroke-linecap: round"/>
    <path d="M 1619.428549 2499.425034 
L 1622.2234 2502.916282 
L 1617.753491 2503.057414 
z
" clip-path="url(#p8ad3d9f3e5)" style="stroke: #000000; stroke-width: 0.2; stroke-linecap: round"/>
   </g>
   <g id="patch_32">
    <path d="M 1425.687959 2419.101534 
Q 1507.533495 2519.120861 1589.237422 2618.967136 
" clip-path="url(#p8ad3d9f3e5)" style="fill: none; stroke: #000000; stroke-width: 0.2; stroke-linecap: round"/>
    <path d="M 1588.252084 2614.6049 
L 1589.237422 2618.967136 
L 1585.15643 2617.138065 
z
" clip-path="url(#p8ad3d9f3e5)" style="stroke: #000000; stroke-width: 0.2; stroke-linecap: round"/>
   </g>
   <g id="patch_33">
    <path d="M 1406.361586 2398.540353 
Q 1314.618135 2313.473548 1223.038652 2228.558778 
" clip-path="url(#p8ad3d9f3e5)" style="fill: none; stroke: #000000; stroke-width: 0.2; stroke-linecap: round"/>
    <path d="M 1224.611953 2232.745032 
L 1223.038652 2228.558778 
L 1227.331636 2229.81189 
z
" clip-path="url(#p8ad3d9f3e5)" style="stroke: #000000; stroke-width: 0.2; stroke-linecap: round"/>
   </g>
   <g id="patch_34">
    <path d="M 1099.312225 2334.244502 
Q 1251.135787 2369.595837 1402.741567 2404.896463 
" clip-path="url(#p8ad3d9f3e5)" style="fill: none; stroke: #000000; stroke-width: 0.2; stroke-linecap: round"/>
    <path d="M 1399.299338 2402.041457 
L 1402.741567 2404.896463 
L 1398.392225 2405.937242 
z
" clip-path="url(#p8ad3d9f3e5)" style="stroke: #000000; stroke-width: 0.2; stroke-linecap: round"/>
   </g>
   <g id="patch_35">
    <path d="M 1071.409752 2330.512466 
Q 966.552391 2326.616583 861.918483 2322.729002 
" clip-path="url(#p8ad3d9f3e5)" style="fill: none; stroke: #000000; stroke-width: 0.2; stroke-linecap: round"/>
    <path d="M 865.841468 2324.876137 
L 861.918483 2322.729002 
L 865.989982 2320.878895 
z
" clip-path="url(#p8ad3d9f3e5)" style="stroke: #000000; stroke-width: 0.2; stroke-linecap: round"/>
   </g>
   <g id="patch_36">
    <path d="M 1096.134272 2321.670626 
Q 1149.023675 2274.914724 1201.745548 2228.306922 
" clip-path="url(#p8ad3d9f3e5)" style="fill: none; stroke: #000000; stroke-width: 0.2; stroke-linecap: round"/>
    <path d="M 1197.424037 2229.457809 
L 1201.745548 2228.306922 
L 1200.073351 2232.454664 
z
" clip-path="url(#p8ad3d9f3e5)" style="stroke: #000000; stroke-width: 0.2; stroke-linecap: round"/>
   </g>
   <g id="patch_37">
    <path d="M 1076.496031 2320.15967 
Q 1009.541285 2239.617756 942.729482 2159.247794 
" clip-path="url(#p8ad3d9f3e5)" style="fill: none; stroke: #000000; stroke-width: 0.2; stroke-linecap: round"/>
    <path d="M 943.748555 2163.602273 
L 942.729482 2159.247794 
L 946.824509 2161.045223 
z
" clip-path="url(#p8ad3d9f3e5)" style="stroke: #000000; stroke-width: 0.2; stroke-linecap: round"/>
   </g>
   <g id="patch_38">
    <path d="M 1226.380728 2216.066317 
Q 1340.965947 2193.542093 1455.331758 2171.060998 
" clip-path="url(#p8ad3d9f3e5)" style="fill: none; stroke: #000000; stroke-width: 0.2; stroke-linecap: round"/>
    <path d="M 1451.021108 2169.870076 
L 1455.331758 2171.060998 
L 1451.79263 2173.794965 
z
" clip-path="url(#p8ad3d9f3e5)" style="stroke: #000000; stroke-width: 0.2; stroke-linecap: round"/>
   </g>
   <g id="patch_39">
    <path d="M 1201.911402 2228.160302 
Q 1149.022 2274.916205 1096.300127 2321.524006 
" clip-path="url(#p8ad3d9f3e5)" style="fill: none; stroke: #000000; stroke-width: 0.2; stroke-linecap: round"/>
    <path d="M 1100.621638 2320.373119 
L 1096.300127 2321.524006 
L 1097.972324 2317.376265 
z
" clip-path="url(#p8ad3d9f3e5)" style="stroke: #000000; stroke-width: 0.2; stroke-linecap: round"/>
   </g>
   <g id="patch_40">
    <path d="M 1222.874481 2228.406555 
Q 1314.617932 2313.47336 1406.197415 2398.388129 
" clip-path="url(#p8ad3d9f3e5)" style="fill: none; stroke: #000000; stroke-width: 0.2; stroke-linecap: round"/>
    <path d="M 1404.624113 2394.201875 
L 1406.197415 2398.388129 
L 1401.904431 2397.135018 
z
" clip-path="url(#p8ad3d9f3e5)" style="stroke: #000000; stroke-width: 0.2; stroke-linecap: round"/>
   </g>
   <g id="patch_41">
    <path d="M 1198.796373 2215.323932 
Q 1073.025093 2183.496395 947.470587 2151.723713 
" clip-path="url(#p8ad3d9f3e5)" style="fill: none; stroke: #000000; stroke-width: 0.2; stroke-linecap: round"/>
    <path d="M 950.857699 2154.643897 
L 947.470587 2151.723713 
L 951.839001 2150.766134 
z
" clip-path="url(#p8ad3d9f3e5)" style="stroke: #000000; stroke-width: 0.2; stroke-linecap: round"/>
   </g>
   <g id="patch_42">
    <path d="M 942.587936 2159.077524 
Q 1009.542682 2239.619438 1076.354486 2319.9894 
" clip-path="url(#p8ad3d9f3e5)" style="fill: none; stroke: #000000; stroke-width: 0.2; stroke-linecap: round"/>
    <path d="M 1075.335412 2315.634921 
L 1076.354486 2319.9894 
L 1072.259458 2318.191971 
z
" clip-path="url(#p8ad3d9f3e5)" style="stroke: #000000; stroke-width: 0.2; stroke-linecap: round"/>
   </g>
   <g id="patch_43">
    <path d="M 927.280626 2160.877246 
Q 890.555408 2235.196817 853.92925 2309.315921 
" clip-path="url(#p8ad3d9f3e5)" style="fill: none; stroke: #000000; stroke-width: 0.2; stroke-linecap: round"/>
    <path d="M 857.494338 2306.615894 
L 853.92925 2309.315921 
L 853.908282 2304.843834 
z
" clip-path="url(#p8ad3d9f3e5)" style="stroke: #000000; stroke-width: 0.2; stroke-linecap: round"/>
   </g>
   <g id="patch_44">
    <path d="M 947.255798 2151.669359 
Q 1073.027078 2183.496897 1198.581584 2215.269578 
" clip-path="url(#p8ad3d9f3e5)" style="fill: none; stroke: #000000; stroke-width: 0.2; stroke-linecap: round"/>
    <path d="M 1195.194472 2212.349394 
L 1198.581584 2215.269578 
L 1194.21317 2216.227157 
z
" clip-path="url(#p8ad3d9f3e5)" style="stroke: #000000; stroke-width: 0.2; stroke-linecap: round"/>
   </g>
   <g id="patch_45">
    <path d="M 923.191476 2138.570247 
Q 831.81629 2053.58657 740.604841 1968.755177 
" clip-path="url(#p8ad3d9f3e5)" style="fill: none; stroke: #000000; stroke-width: 0.2; stroke-linecap: round"/>
    <path d="M 742.171786 1972.943815 
L 740.604841 1968.755177 
L 744.895918 1970.014804 
z
" clip-path="url(#p8ad3d9f3e5)" style="stroke: #000000; stroke-width: 0.2; stroke-linecap: round"/>
   </g>
   <g id="patch_46">
    <path d="M 861.693656 2322.720649 
Q 966.551017 2326.616532 1071.184926 2330.504112 
" clip-path="url(#p8ad3d9f3e5)" style="fill: none; stroke: #000000; stroke-width: 0.2; stroke-linecap: round"/>
    <path d="M 1067.261941 2328.356977 
L 1071.184926 2330.504112 
L 1067.113427 2332.354219 
z
" clip-path="url(#p8ad3d9f3e5)" style="stroke: #000000; stroke-width: 0.2; stroke-linecap: round"/>
   </g>
   <g id="patch_47">
    <path d="M 853.829278 2309.518231 
Q 890.554497 2235.198661 927.180654 2161.079556 
" clip-path="url(#p8ad3d9f3e5)" style="fill: none; stroke: #000000; stroke-width: 0.2; stroke-linecap: round"/>
    <path d="M 923.615566 2163.779583 
L 927.180654 2161.079556 
L 927.201623 2165.551643 
z
" clip-path="url(#p8ad3d9f3e5)" style="stroke: #000000; stroke-width: 0.2; stroke-linecap: round"/>
   </g>
   <g id="patch_48">
    <path d="M 740.437601 1968.599636 
Q 831.812787 2053.583312 923.024236 2138.414705 
" clip-path="url(#p8ad3d9f3e5)" style="fill: none; stroke: #000000; stroke-width: 0.2; stroke-linecap: round"/>
    <path d="M 921.457291 2134.226067 
L 923.024236 2138.414705 
L 918.733159 2137.155078 
z
" clip-path="url(#p8ad3d9f3e5)" style="stroke: #000000; stroke-width: 0.2; stroke-linecap: round"/>
   </g>
   <g id="patch_49">
    <path d="M 367.469799 457.992609 
Q 405.42481 536.258507 443.282251 614.323209 
" clip-path="url(#p8ad3d9f3e5)" style="fill: none; stroke: #000000; stroke-width: 0.2; stroke-linecap: round"/>
    <path d="M 443.336419 609.851401 
L 443.282251 614.323209 
L 439.737306 611.596789 
z
" clip-path="url(#p8ad3d9f3e5)" style="stroke: #000000; stroke-width: 0.2; stroke-linecap: round"/>
   </g>
   <g id="patch_50">
    <path d="M 354.294422 432.982535 
Q 305.608961 347.593925 257.034255 262.399566 
" clip-path="url(#p8ad3d9f3e5)" style="fill: none; stroke: #000000; stroke-width: 0.2; stroke-linecap: round"/>
    <path d="M 257.278063 266.865051 
L 257.034255 262.399566 
L 260.752928 264.88381 
z
" clip-path="url(#p8ad3d9f3e5)" style="stroke: #000000; stroke-width: 0.2; stroke-linecap: round"/>
   </g>
   <g id="patch_51">
    <path d="M 443.37908 614.522877 
Q 405.424069 536.25698 367.566628 458.192278 
" clip-path="url(#p8ad3d9f3e5)" style="fill: none; stroke: #000000; stroke-width: 0.2; stroke-linecap: round"/>
    <path d="M 367.51246 462.664086 
L 367.566628 458.192278 
L 371.111573 460.918698 
z
" clip-path="url(#p8ad3d9f3e5)" style="stroke: #000000; stroke-width: 0.2; stroke-linecap: round"/>
   </g>
   <g id="patch_52">
    <path d="M 256.921147 262.201188 
Q 305.606608 347.589798 354.181314 432.784158 
" clip-path="url(#p8ad3d9f3e5)" style="fill: none; stroke: #000000; stroke-width: 0.2; stroke-linecap: round"/>
    <path d="M 353.937506 428.318673 
L 354.181314 432.784158 
L 350.462641 430.299913 
z
" clip-path="url(#p8ad3d9f3e5)" style="stroke: #000000; stroke-width: 0.2; stroke-linecap: round"/>
   </g>
   <g id="patch_53">
    <path d="M 2619.670295 870.86288 
Q 2552.485885 932.601993 2485.466119 994.189806 
" clip-path="url(#p8ad3d9f3e5)" style="fill: none; stroke: #000000; stroke-width: 0.2; stroke-linecap: round"/>
    <path d="M 2489.764659 992.955887 
L 2485.466119 994.189806 
L 2487.058108 990.010623 
z
" clip-path="url(#p8ad3d9f3e5)" style="stroke: #000000; stroke-width: 0.2; stroke-linecap: round"/>
   </g>
   <g id="patch_54">
    <path d="M 2485.301968 994.340652 
Q 2552.486379 932.601539 2619.506144 871.013726 
" clip-path="url(#p8ad3d9f3e5)" style="fill: none; stroke: #000000; stroke-width: 0.2; stroke-linecap: round"/>
    <path d="M 2615.207604 872.247645 
L 2619.506144 871.013726 
L 2617.914155 875.192909 
z
" clip-path="url(#p8ad3d9f3e5)" style="stroke: #000000; stroke-width: 0.2; stroke-linecap: round"/>
   </g>
   <g id="PathCollection_1">
    <defs>
     <path id="C0_0_a52e806c2e" d="M 0 14.142136 
C 3.750538 14.142136 7.347969 12.652031 10 10 
C 12.652031 7.347969 14.142136 3.750538 14.142136 -0 
C 14.142136 -3.750538 12.652031 -7.347969 10 -10 
C 7.347969 -12.652031 3.750538 -14.142136 0 -14.142136 
C -3.750538 -14.142136 -7.347969 -12.652031 -10 -10 
C -12.652031 -7.347969 -14.142136 -3.750538 -14.142136 0 
C -14.142136 3.750538 -12.652031 7.347969 -10 10 
C -7.347969 12.652031 -3.750538 14.142136 0 14.142136 
z
"/>
    </defs>
    <g clip-path="url(#p8ad3d9f3e5)">
     <use xlink:href="#C0_0_a52e806c2e" x="1784.158474" y="2442.989549" style="fill: #0000ff; stroke: #0000ff"/>
    </g>
    <g clip-path="url(#p8ad3d9f3e5)">
     <use xlink:href="#C0_0_a52e806c2e" x="1585.942244" y="2313.537397" style="fill: #ffa500; stroke: #ffa500"/>
    </g>
    <g clip-path="url(#p8ad3d9f3e5)">
     <use xlink:href="#C0_0_a52e806c2e" x="1966.197155" y="2246.785099" style="fill: #ffa500; stroke: #ffa500"/>
    </g>
    <g clip-path="url(#p8ad3d9f3e5)">
     <use xlink:href="#C0_0_a52e806c2e" x="1690.354524" y="2306.582661" style="fill: #ffff00; stroke: #ffff00"/>
    </g>
    <g clip-path="url(#p8ad3d9f3e5)">
     <use xlink:href="#C0_0_a52e806c2e" x="1635.266764" y="2508.931178" style="fill: #ffa500; stroke: #ffa500"/>
    </g>
    <g clip-path="url(#p8ad3d9f3e5)">
     <use xlink:href="#C0_0_a52e806c2e" x="1598.333212" y="2630.082645" style="fill: #ffff00; stroke: #ffff00"/>
    </g>
    <g clip-path="url(#p8ad3d9f3e5)">
     <use xlink:href="#C0_0_a52e806c2e" x="1469.424887" y="2168.290686" style="fill: #0000ff; stroke: #0000ff"/>
    </g>
    <g clip-path="url(#p8ad3d9f3e5)">
     <use xlink:href="#C0_0_a52e806c2e" x="1416.729127" y="2408.153395" style="fill: #0000ff; stroke: #0000ff"/>
    </g>
    <g clip-path="url(#p8ad3d9f3e5)">
     <use xlink:href="#C0_0_a52e806c2e" x="1085.538736" y="2331.037416" style="fill: #ffa500; stroke: #ffa500"/>
    </g>
    <g clip-path="url(#p8ad3d9f3e5)">
     <use xlink:href="#C0_0_a52e806c2e" x="1212.506939" y="2218.793513" style="fill: #ffff00; stroke: #ffff00"/>
    </g>
    <g clip-path="url(#p8ad3d9f3e5)">
     <use xlink:href="#C0_0_a52e806c2e" x="933.545232" y="2148.199778" style="fill: #ffa500; stroke: #ffa500"/>
    </g>
    <g clip-path="url(#p8ad3d9f3e5)">
     <use xlink:href="#C0_0_a52e806c2e" x="847.564673" y="2322.195699" style="fill: #ffff00; stroke: #ffff00"/>
    </g>
    <g clip-path="url(#p8ad3d9f3e5)">
     <use xlink:href="#C0_0_a52e806c2e" x="730.083845" y="1958.970104" style="fill: #ffff00; stroke: #ffff00"/>
    </g>
    <g clip-path="url(#p8ad3d9f3e5)">
     <use xlink:href="#C0_0_a52e806c2e" x="361.298214" y="445.266368" style="fill: #ffa500; stroke: #ffa500"/>
    </g>
    <g clip-path="url(#p8ad3d9f3e5)">
     <use xlink:href="#C0_0_a52e806c2e" x="449.550665" y="627.249119" style="fill: #ffff00; stroke: #ffff00"/>
    </g>
    <g clip-path="url(#p8ad3d9f3e5)">
     <use xlink:href="#C0_0_a52e806c2e" x="249.917355" y="249.917355" style="fill: #ffff00; stroke: #ffff00"/>
    </g>
    <g clip-path="url(#p8ad3d9f3e5)">
     <use xlink:href="#C0_0_a52e806c2e" x="2630.082645" y="861.294451" style="fill: #0000ff; stroke: #0000ff"/>
    </g>
    <g clip-path="url(#p8ad3d9f3e5)">
     <use xlink:href="#C0_0_a52e806c2e" x="2474.889619" y="1003.909081" style="fill: #ffa500; stroke: #ffa500"/>
    </g>
   </g>
   <g id="text_1">
    <g clip-path="url(#p8ad3d9f3e5)">
     <!-- VAL 5 -->
     <g transform="translate(1772.895974 2445.197049) scale(0.08 -0.08)">
      <defs>
       <path id="DejaVuSans-56" d="M 1831 0 
L 50 4666 
L 709 4666 
L 2188 738 
L 3669 4666 
L 4325 4666 
L 2547 0 
L 1831 0 
z
" transform="scale(0.015625)"/>
       <path id="DejaVuSans-41" d="M 2188 4044 
L 1331 1722 
L 3047 1722 
L 2188 4044 
z
M 1831 4666 
L 2547 4666 
L 4325 0 
L 3669 0 
L 3244 1197 
L 1141 1197 
L 716 0 
L 50 0 
L 1831 4666 
z
" transform="scale(0.015625)"/>
       <path id="DejaVuSans-4c" d="M 628 4666 
L 1259 4666 
L 1259 531 
L 3531 531 
L 3531 0 
L 628 0 
L 628 4666 
z
" transform="scale(0.015625)"/>
       <path id="DejaVuSans-20" transform="scale(0.015625)"/>
       <path id="DejaVuSans-35" d="M 691 4666 
L 3169 4666 
L 3169 4134 
L 1269 4134 
L 1269 2991 
Q 1406 3038 1543 3061 
Q 1681 3084 1819 3084 
Q 2600 3084 3056 2656 
Q 3513 2228 3513 1497 
Q 3513 744 3044 326 
Q 2575 -91 1722 -91 
Q 1428 -91 1123 -41 
Q 819 9 494 109 
L 494 744 
Q 775 591 1075 516 
Q 1375 441 1709 441 
Q 2250 441 2565 725 
Q 2881 1009 2881 1497 
Q 2881 1984 2565 2268 
Q 2250 2553 1709 2553 
Q 1456 2553 1204 2497 
Q 953 2441 691 2322 
L 691 4666 
z
" transform="scale(0.015625)"/>
      </defs>
      <use xlink:href="#DejaVuSans-56"/>
      <use xlink:href="#DejaVuSans-41" x="62.033203"/>
      <use xlink:href="#DejaVuSans-4c" x="130.441406"/>
      <use xlink:href="#DejaVuSans-20" x="186.154297"/>
      <use xlink:href="#DejaVuSans-35" x="217.941406"/>
     </g>
    </g>
   </g>
   <g id="text_2">
    <g clip-path="url(#p8ad3d9f3e5)">
     <!-- ILE 3 -->
     <g transform="translate(1576.189744 2315.744897) scale(0.08 -0.08)">
      <defs>
       <path id="DejaVuSans-49" d="M 628 4666 
L 1259 4666 
L 1259 0 
L 628 0 
L 628 4666 
z
" transform="scale(0.015625)"/>
       <path id="DejaVuSans-45" d="M 628 4666 
L 3578 4666 
L 3578 4134 
L 1259 4134 
L 1259 2753 
L 3481 2753 
L 3481 2222 
L 1259 2222 
L 1259 531 
L 3634 531 
L 3634 0 
L 628 0 
L 628 4666 
z
" transform="scale(0.015625)"/>
       <path id="DejaVuSans-33" d="M 2597 2516 
Q 3050 2419 3304 2112 
Q 3559 1806 3559 1356 
Q 3559 666 3084 287 
Q 2609 -91 1734 -91 
Q 1441 -91 1130 -33 
Q 819 25 488 141 
L 488 750 
Q 750 597 1062 519 
Q 1375 441 1716 441 
Q 2309 441 2620 675 
Q 2931 909 2931 1356 
Q 2931 1769 2642 2001 
Q 2353 2234 1838 2234 
L 1294 2234 
L 1294 2753 
L 1863 2753 
Q 2328 2753 2575 2939 
Q 2822 3125 2822 3475 
Q 2822 3834 2567 4026 
Q 2313 4219 1838 4219 
Q 1578 4219 1281 4162 
Q 984 4106 628 3988 
L 628 4550 
Q 988 4650 1302 4700 
Q 1616 4750 1894 4750 
Q 2613 4750 3031 4423 
Q 3450 4097 3450 3541 
Q 3450 3153 3228 2886 
Q 3006 2619 2597 2516 
z
" transform="scale(0.015625)"/>
      </defs>
      <use xlink:href="#DejaVuSans-49"/>
      <use xlink:href="#DejaVuSans-4c" x="29.492188"/>
      <use xlink:href="#DejaVuSans-45" x="85.205078"/>
      <use xlink:href="#DejaVuSans-20" x="148.388672"/>
      <use xlink:href="#DejaVuSans-33" x="180.175781"/>
     </g>
    </g>
   </g>
   <g id="text_3">
    <g clip-path="url(#p8ad3d9f3e5)">
     <!-- ILE 13 -->
     <g transform="translate(1953.899655 2248.992599) scale(0.08 -0.08)">
      <defs>
       <path id="DejaVuSans-31" d="M 794 531 
L 1825 531 
L 1825 4091 
L 703 3866 
L 703 4441 
L 1819 4666 
L 2450 4666 
L 2450 531 
L 3481 531 
L 3481 0 
L 794 0 
L 794 531 
z
" transform="scale(0.015625)"/>
      </defs>
      <use xlink:href="#DejaVuSans-49"/>
      <use xlink:href="#DejaVuSans-4c" x="29.492188"/>
      <use xlink:href="#DejaVuSans-45" x="85.205078"/>
      <use xlink:href="#DejaVuSans-20" x="148.388672"/>
      <use xlink:href="#DejaVuSans-31" x="180.175781"/>
      <use xlink:href="#DejaVuSans-33" x="243.798828"/>
     </g>
    </g>
   </g>
   <g id="text_4">
    <g clip-path="url(#p8ad3d9f3e5)">
     <!-- LEU 15 -->
     <g transform="translate(1676.309524 2308.790161) scale(0.08 -0.08)">
      <defs>
       <path id="DejaVuSans-55" d="M 556 4666 
L 1191 4666 
L 1191 1831 
Q 1191 1081 1462 751 
Q 1734 422 2344 422 
Q 2950 422 3222 751 
Q 3494 1081 3494 1831 
L 3494 4666 
L 4128 4666 
L 4128 1753 
Q 4128 841 3676 375 
Q 3225 -91 2344 -91 
Q 1459 -91 1007 375 
Q 556 841 556 1753 
L 556 4666 
z
" transform="scale(0.015625)"/>
      </defs>
      <use xlink:href="#DejaVuSans-4c"/>
      <use xlink:href="#DejaVuSans-45" x="55.712891"/>
      <use xlink:href="#DejaVuSans-55" x="118.896484"/>
      <use xlink:href="#DejaVuSans-20" x="192.089844"/>
      <use xlink:href="#DejaVuSans-31" x="223.876953"/>
      <use xlink:href="#DejaVuSans-35" x="287.5"/>
     </g>
    </g>
   </g>
   <g id="text_5">
    <g clip-path="url(#p8ad3d9f3e5)">
     <!-- ILE 30 -->
     <g transform="translate(1622.969264 2511.138678) scale(0.08 -0.08)">
      <defs>
       <path id="DejaVuSans-30" d="M 2034 4250 
Q 1547 4250 1301 3770 
Q 1056 3291 1056 2328 
Q 1056 1369 1301 889 
Q 1547 409 2034 409 
Q 2525 409 2770 889 
Q 3016 1369 3016 2328 
Q 3016 3291 2770 3770 
Q 2525 4250 2034 4250 
z
M 2034 4750 
Q 2819 4750 3233 4129 
Q 3647 3509 3647 2328 
Q 3647 1150 3233 529 
Q 2819 -91 2034 -91 
Q 1250 -91 836 529 
Q 422 1150 422 2328 
Q 422 3509 836 4129 
Q 1250 4750 2034 4750 
z
" transform="scale(0.015625)"/>
      </defs>
      <use xlink:href="#DejaVuSans-49"/>
      <use xlink:href="#DejaVuSans-4c" x="29.492188"/>
      <use xlink:href="#DejaVuSans-45" x="85.205078"/>
      <use xlink:href="#DejaVuSans-20" x="148.388672"/>
      <use xlink:href="#DejaVuSans-33" x="180.175781"/>
      <use xlink:href="#DejaVuSans-30" x="243.798828"/>
     </g>
    </g>
   </g>
   <g id="text_6">
    <g clip-path="url(#p8ad3d9f3e5)">
     <!-- LEU 43 -->
     <g transform="translate(1584.288212 2632.290145) scale(0.08 -0.08)">
      <defs>
       <path id="DejaVuSans-34" d="M 2419 4116 
L 825 1625 
L 2419 1625 
L 2419 4116 
z
M 2253 4666 
L 3047 4666 
L 3047 1625 
L 3713 1625 
L 3713 1100 
L 3047 1100 
L 3047 0 
L 2419 0 
L 2419 1100 
L 313 1100 
L 313 1709 
L 2253 4666 
z
" transform="scale(0.015625)"/>
      </defs>
      <use xlink:href="#DejaVuSans-4c"/>
      <use xlink:href="#DejaVuSans-45" x="55.712891"/>
      <use xlink:href="#DejaVuSans-55" x="118.896484"/>
      <use xlink:href="#DejaVuSans-20" x="192.089844"/>
      <use xlink:href="#DejaVuSans-34" x="223.876953"/>
      <use xlink:href="#DejaVuSans-33" x="287.5"/>
     </g>
    </g>
   </g>
   <g id="text_7">
    <g clip-path="url(#p8ad3d9f3e5)">
     <!-- VAL 17 -->
     <g transform="translate(1455.617387 2170.498186) scale(0.08 -0.08)">
      <defs>
       <path id="DejaVuSans-37" d="M 525 4666 
L 3525 4666 
L 3525 4397 
L 1831 0 
L 1172 0 
L 2766 4134 
L 525 4134 
L 525 4666 
z
" transform="scale(0.015625)"/>
      </defs>
      <use xlink:href="#DejaVuSans-56"/>
      <use xlink:href="#DejaVuSans-41" x="62.033203"/>
      <use xlink:href="#DejaVuSans-4c" x="130.441406"/>
      <use xlink:href="#DejaVuSans-20" x="186.154297"/>
      <use xlink:href="#DejaVuSans-31" x="217.941406"/>
      <use xlink:href="#DejaVuSans-37" x="281.564453"/>
     </g>
    </g>
   </g>
   <g id="text_8">
    <g clip-path="url(#p8ad3d9f3e5)">
     <!-- VAL 26 -->
     <g transform="translate(1402.921627 2410.360895) scale(0.08 -0.08)">
      <defs>
       <path id="DejaVuSans-32" d="M 1228 531 
L 3431 531 
L 3431 0 
L 469 0 
L 469 531 
Q 828 903 1448 1529 
Q 2069 2156 2228 2338 
Q 2531 2678 2651 2914 
Q 2772 3150 2772 3378 
Q 2772 3750 2511 3984 
Q 2250 4219 1831 4219 
Q 1534 4219 1204 4116 
Q 875 4013 500 3803 
L 500 4441 
Q 881 4594 1212 4672 
Q 1544 4750 1819 4750 
Q 2544 4750 2975 4387 
Q 3406 4025 3406 3419 
Q 3406 3131 3298 2873 
Q 3191 2616 2906 2266 
Q 2828 2175 2409 1742 
Q 1991 1309 1228 531 
z
" transform="scale(0.015625)"/>
       <path id="DejaVuSans-36" d="M 2113 2584 
Q 1688 2584 1439 2293 
Q 1191 2003 1191 1497 
Q 1191 994 1439 701 
Q 1688 409 2113 409 
Q 2538 409 2786 701 
Q 3034 994 3034 1497 
Q 3034 2003 2786 2293 
Q 2538 2584 2113 2584 
z
M 3366 4563 
L 3366 3988 
Q 3128 4100 2886 4159 
Q 2644 4219 2406 4219 
Q 1781 4219 1451 3797 
Q 1122 3375 1075 2522 
Q 1259 2794 1537 2939 
Q 1816 3084 2150 3084 
Q 2853 3084 3261 2657 
Q 3669 2231 3669 1497 
Q 3669 778 3244 343 
Q 2819 -91 2113 -91 
Q 1303 -91 875 529 
Q 447 1150 447 2328 
Q 447 3434 972 4092 
Q 1497 4750 2381 4750 
Q 2619 4750 2861 4703 
Q 3103 4656 3366 4563 
z
" transform="scale(0.015625)"/>
      </defs>
      <use xlink:href="#DejaVuSans-56"/>
      <use xlink:href="#DejaVuSans-41" x="62.033203"/>
      <use xlink:href="#DejaVuSans-4c" x="130.441406"/>
      <use xlink:href="#DejaVuSans-20" x="186.154297"/>
      <use xlink:href="#DejaVuSans-32" x="217.941406"/>
      <use xlink:href="#DejaVuSans-36" x="281.564453"/>
     </g>
    </g>
   </g>
   <g id="text_9">
    <g clip-path="url(#p8ad3d9f3e5)">
     <!-- ILE 23 -->
     <g transform="translate(1073.241236 2333.244916) scale(0.08 -0.08)">
      <use xlink:href="#DejaVuSans-49"/>
      <use xlink:href="#DejaVuSans-4c" x="29.492188"/>
      <use xlink:href="#DejaVuSans-45" x="85.205078"/>
      <use xlink:href="#DejaVuSans-20" x="148.388672"/>
      <use xlink:href="#DejaVuSans-32" x="180.175781"/>
      <use xlink:href="#DejaVuSans-33" x="243.798828"/>
     </g>
    </g>
   </g>
   <g id="text_10">
    <g clip-path="url(#p8ad3d9f3e5)">
     <!-- LEU 56 -->
     <g transform="translate(1198.461939 2221.001013) scale(0.08 -0.08)">
      <use xlink:href="#DejaVuSans-4c"/>
      <use xlink:href="#DejaVuSans-45" x="55.712891"/>
      <use xlink:href="#DejaVuSans-55" x="118.896484"/>
      <use xlink:href="#DejaVuSans-20" x="192.089844"/>
      <use xlink:href="#DejaVuSans-35" x="223.876953"/>
      <use xlink:href="#DejaVuSans-36" x="287.5"/>
     </g>
    </g>
   </g>
   <g id="text_11">
    <g clip-path="url(#p8ad3d9f3e5)">
     <!-- ILE 61 -->
     <g transform="translate(921.247732 2150.407278) scale(0.08 -0.08)">
      <use xlink:href="#DejaVuSans-49"/>
      <use xlink:href="#DejaVuSans-4c" x="29.492188"/>
      <use xlink:href="#DejaVuSans-45" x="85.205078"/>
      <use xlink:href="#DejaVuSans-20" x="148.388672"/>
      <use xlink:href="#DejaVuSans-36" x="180.175781"/>
      <use xlink:href="#DejaVuSans-31" x="243.798828"/>
     </g>
    </g>
   </g>
   <g id="text_12">
    <g clip-path="url(#p8ad3d9f3e5)">
     <!-- LEU 50 -->
     <g transform="translate(833.519673 2324.403199) scale(0.08 -0.08)">
      <use xlink:href="#DejaVuSans-4c"/>
      <use xlink:href="#DejaVuSans-45" x="55.712891"/>
      <use xlink:href="#DejaVuSans-55" x="118.896484"/>
      <use xlink:href="#DejaVuSans-20" x="192.089844"/>
      <use xlink:href="#DejaVuSans-35" x="223.876953"/>
      <use xlink:href="#DejaVuSans-30" x="287.5"/>
     </g>
    </g>
   </g>
   <g id="text_13">
    <g clip-path="url(#p8ad3d9f3e5)">
     <!-- LEU 67 -->
     <g transform="translate(716.038845 1961.177604) scale(0.08 -0.08)">
      <use xlink:href="#DejaVuSans-4c"/>
      <use xlink:href="#DejaVuSans-45" x="55.712891"/>
      <use xlink:href="#DejaVuSans-55" x="118.896484"/>
      <use xlink:href="#DejaVuSans-20" x="192.089844"/>
      <use xlink:href="#DejaVuSans-36" x="223.876953"/>
      <use xlink:href="#DejaVuSans-37" x="287.5"/>
     </g>
    </g>
   </g>
   <g id="text_14">
    <g clip-path="url(#p8ad3d9f3e5)">
     <!-- ILE 36 -->
     <g transform="translate(349.000714 447.473868) scale(0.08 -0.08)">
      <use xlink:href="#DejaVuSans-49"/>
      <use xlink:href="#DejaVuSans-4c" x="29.492188"/>
      <use xlink:href="#DejaVuSans-45" x="85.205078"/>
      <use xlink:href="#DejaVuSans-20" x="148.388672"/>
      <use xlink:href="#DejaVuSans-33" x="180.175781"/>
      <use xlink:href="#DejaVuSans-36" x="243.798828"/>
     </g>
    </g>
   </g>
   <g id="text_15">
    <g clip-path="url(#p8ad3d9f3e5)">
     <!-- LEU 69 -->
     <g transform="translate(435.505665 629.456619) scale(0.08 -0.08)">
      <defs>
       <path id="DejaVuSans-39" d="M 703 97 
L 703 672 
Q 941 559 1184 500 
Q 1428 441 1663 441 
Q 2288 441 2617 861 
Q 2947 1281 2994 2138 
Q 2813 1869 2534 1725 
Q 2256 1581 1919 1581 
Q 1219 1581 811 2004 
Q 403 2428 403 3163 
Q 403 3881 828 4315 
Q 1253 4750 1959 4750 
Q 2769 4750 3195 4129 
Q 3622 3509 3622 2328 
Q 3622 1225 3098 567 
Q 2575 -91 1691 -91 
Q 1453 -91 1209 -44 
Q 966 3 703 97 
z
M 1959 2075 
Q 2384 2075 2632 2365 
Q 2881 2656 2881 3163 
Q 2881 3666 2632 3958 
Q 2384 4250 1959 4250 
Q 1534 4250 1286 3958 
Q 1038 3666 1038 3163 
Q 1038 2656 1286 2365 
Q 1534 2075 1959 2075 
z
" transform="scale(0.015625)"/>
      </defs>
      <use xlink:href="#DejaVuSans-4c"/>
      <use xlink:href="#DejaVuSans-45" x="55.712891"/>
      <use xlink:href="#DejaVuSans-55" x="118.896484"/>
      <use xlink:href="#DejaVuSans-20" x="192.089844"/>
      <use xlink:href="#DejaVuSans-36" x="223.876953"/>
      <use xlink:href="#DejaVuSans-39" x="287.5"/>
     </g>
    </g>
   </g>
   <g id="text_16">
    <g clip-path="url(#p8ad3d9f3e5)">
     <!-- LEU 71 -->
     <g transform="translate(235.872355 252.124855) scale(0.08 -0.08)">
      <use xlink:href="#DejaVuSans-4c"/>
      <use xlink:href="#DejaVuSans-45" x="55.712891"/>
      <use xlink:href="#DejaVuSans-55" x="118.896484"/>
      <use xlink:href="#DejaVuSans-20" x="192.089844"/>
      <use xlink:href="#DejaVuSans-37" x="223.876953"/>
      <use xlink:href="#DejaVuSans-31" x="287.5"/>
     </g>
    </g>
   </g>
   <g id="text_17">
    <g clip-path="url(#p8ad3d9f3e5)">
     <!-- VAL 70 -->
     <g transform="translate(2616.275145 863.501951) scale(0.08 -0.08)">
      <use xlink:href="#DejaVuSans-56"/>
      <use xlink:href="#DejaVuSans-41" x="62.033203"/>
      <use xlink:href="#DejaVuSans-4c" x="130.441406"/>
      <use xlink:href="#DejaVuSans-20" x="186.154297"/>
      <use xlink:href="#DejaVuSans-37" x="217.941406"/>
      <use xlink:href="#DejaVuSans-30" x="281.564453"/>
     </g>
    </g>
   </g>
   <g id="text_18">
    <g clip-path="url(#p8ad3d9f3e5)">
     <!-- ILE 44 -->
     <g transform="translate(2462.592119 1006.116581) scale(0.08 -0.08)">
      <use xlink:href="#DejaVuSans-49"/>
      <use xlink:href="#DejaVuSans-4c" x="29.492188"/>
      <use xlink:href="#DejaVuSans-45" x="85.205078"/>
      <use xlink:href="#DejaVuSans-20" x="148.388672"/>
      <use xlink:href="#DejaVuSans-34" x="180.175781"/>
      <use xlink:href="#DejaVuSans-34" x="243.798828"/>
     </g>
    </g>
   </g>
  </g>
  <g id="text_19">
   <!-- G_NMR -->
   <g transform="translate(1418.51625 66.50625) scale(0.12 -0.12)">
    <defs>
     <path id="DejaVuSans-47" d="M 3809 666 
L 3809 1919 
L 2778 1919 
L 2778 2438 
L 4434 2438 
L 4434 434 
Q 4069 175 3628 42 
Q 3188 -91 2688 -91 
Q 1594 -91 976 548 
Q 359 1188 359 2328 
Q 359 3472 976 4111 
Q 1594 4750 2688 4750 
Q 3144 4750 3555 4637 
Q 3966 4525 4313 4306 
L 4313 3634 
Q 3963 3931 3569 4081 
Q 3175 4231 2741 4231 
Q 1884 4231 1454 3753 
Q 1025 3275 1025 2328 
Q 1025 1384 1454 906 
Q 1884 428 2741 428 
Q 3075 428 3337 486 
Q 3600 544 3809 666 
z
" transform="scale(0.015625)"/>
     <path id="DejaVuSans-5f" d="M 3263 -1063 
L 3263 -1509 
L -63 -1509 
L -63 -1063 
L 3263 -1063 
z
" transform="scale(0.015625)"/>
     <path id="DejaVuSans-4e" d="M 628 4666 
L 1478 4666 
L 3547 763 
L 3547 4666 
L 4159 4666 
L 4159 0 
L 3309 0 
L 1241 3903 
L 1241 0 
L 628 0 
L 628 4666 
z
" transform="scale(0.015625)"/>
     <path id="DejaVuSans-4d" d="M 628 4666 
L 1569 4666 
L 2759 1491 
L 3956 4666 
L 4897 4666 
L 4897 0 
L 4281 0 
L 4281 4097 
L 3078 897 
L 2444 897 
L 1241 4097 
L 1241 0 
L 628 0 
L 628 4666 
z
" transform="scale(0.015625)"/>
     <path id="DejaVuSans-52" d="M 2841 2188 
Q 3044 2119 3236 1894 
Q 3428 1669 3622 1275 
L 4263 0 
L 3584 0 
L 2988 1197 
Q 2756 1666 2539 1819 
Q 2322 1972 1947 1972 
L 1259 1972 
L 1259 0 
L 628 0 
L 628 4666 
L 2053 4666 
Q 2853 4666 3247 4331 
Q 3641 3997 3641 3322 
Q 3641 2881 3436 2590 
Q 3231 2300 2841 2188 
z
M 1259 4147 
L 1259 2491 
L 2053 2491 
Q 2509 2491 2742 2702 
Q 2975 2913 2975 3322 
Q 2975 3731 2742 3939 
Q 2509 4147 2053 4147 
L 1259 4147 
z
" transform="scale(0.015625)"/>
    </defs>
    <use xlink:href="#DejaVuSans-47"/>
    <use xlink:href="#DejaVuSans-5f" x="77.490234"/>
    <use xlink:href="#DejaVuSans-4e" x="127.490234"/>
    <use xlink:href="#DejaVuSans-4d" x="202.294922"/>
    <use xlink:href="#DejaVuSans-52" x="288.574219"/>
   </g>
  </g>
 </g>
 <defs>
  <clipPath id="p8ad3d9f3e5">
   <rect x="0" y="0" width="2880" height="2880"/>
  </clipPath>
 </defs>
</svg>
