<?xml version="1.0" encoding="utf-8" standalone="no"?>
<!DOCTYPE svg PUBLIC "-//W3C//DTD SVG 1.1//EN"
  "http://www.w3.org/Graphics/SVG/1.1/DTD/svg11.dtd">
<svg xmlns:xlink="http://www.w3.org/1999/xlink" width="2880pt" height="2880pt" viewBox="0 0 2880 2880" xmlns="http://www.w3.org/2000/svg" version="1.1">
 <metadata>
  <rdf:RDF xmlns:dc="http://purl.org/dc/elements/1.1/" xmlns:cc="http://creativecommons.org/ns#" xmlns:rdf="http://www.w3.org/1999/02/22-rdf-syntax-ns#">
   <cc:Work>
    <dc:type rdf:resource="http://purl.org/dc/dcmitype/StillImage"/>
    <dc:date>2024-02-24T15:22:46.800920</dc:date>
    <dc:format>image/svg+xml</dc:format>
    <dc:creator>
     <cc:Agent>
      <dc:title>Matplotlib v3.8.2, https://matplotlib.org/</dc:title>
     </cc:Agent>
    </dc:creator>
   </cc:Work>
  </rdf:RDF>
 </metadata>
 <defs>
  <style type="text/css">*{stroke-linejoin: round; stroke-linecap: butt}</style>
 </defs>
 <g id="figure_1">
  <g id="patch_1">
   <path d="M 0 2880 
L 2880 2880 
L 2880 0 
L 0 0 
z
" style="fill: #ffffff"/>
  </g>
  <g id="axes_1">
   <g id="patch_2">
    <path d="M 949.53969 961.014281 
Q 845.118552 1052.775135 740.865383 1144.388386 
" clip-path="url(#p40396f862c)" style="fill: none; stroke: #000000; stroke-width: 0.2; stroke-linecap: round"/>
    <path d="M 745.190292 1143.250332 
L 740.865383 1144.388386 
L 742.549885 1140.245627 
z
" clip-path="url(#p40396f862c)" style="stroke: #000000; stroke-width: 0.2; stroke-linecap: round"/>
   </g>
   <g id="patch_3">
    <path d="M 953.666958 964.242365 
Q 797.1518 1267.018321 640.739325 1569.59564 
" clip-path="url(#p40396f862c)" style="fill: none; stroke: #000000; stroke-width: 0.2; stroke-linecap: round"/>
    <path d="M 644.352813 1566.960739 
L 640.739325 1569.59564 
L 640.799497 1565.123909 
z
" clip-path="url(#p40396f862c)" style="stroke: #000000; stroke-width: 0.2; stroke-linecap: round"/>
   </g>
   <g id="patch_4">
    <path d="M 971.368083 943.05752 
Q 1233.371768 741.458398 1495.198236 539.995635 
" clip-path="url(#p40396f862c)" style="fill: none; stroke: #000000; stroke-width: 0.2; stroke-linecap: round"/>
    <path d="M 1490.808436 540.849839 
L 1495.198236 539.995635 
L 1493.247719 544.019997 
z
" clip-path="url(#p40396f862c)" style="stroke: #000000; stroke-width: 0.2; stroke-linecap: round"/>
   </g>
   <g id="patch_5">
    <path d="M 947.530697 958.04024 
Q 777.57259 1043.611584 607.814205 1129.082371 
" clip-path="url(#p40396f862c)" style="fill: none; stroke: #000000; stroke-width: 0.2; stroke-linecap: round"/>
    <path d="M 612.286323 1129.069921 
L 607.814205 1129.082371 
L 610.487515 1125.497206 
z
" clip-path="url(#p40396f862c)" style="stroke: #000000; stroke-width: 0.2; stroke-linecap: round"/>
   </g>
   <g id="patch_6">
    <path d="M 946.413467 955.003318 
Q 722.770855 1009.045118 499.345593 1063.034396 
" clip-path="url(#p40396f862c)" style="fill: none; stroke: #000000; stroke-width: 0.2; stroke-linecap: round"/>
    <path d="M 503.703454 1064.038911 
L 499.345593 1063.034396 
L 502.763921 1060.150816 
z
" clip-path="url(#p40396f862c)" style="stroke: #000000; stroke-width: 0.2; stroke-linecap: round"/>
   </g>
   <g id="patch_7">
    <path d="M 971.818369 943.670219 
Q 1154.327305 818.254152 1336.651952 692.964725 
" clip-path="url(#p40396f862c)" style="fill: none; stroke: #000000; stroke-width: 0.2; stroke-linecap: round"/>
    <path d="M 1332.222592 693.581787 
L 1336.651952 692.964725 
L 1334.487986 696.87845 
z
" clip-path="url(#p40396f862c)" style="stroke: #000000; stroke-width: 0.2; stroke-linecap: round"/>
   </g>
   <g id="patch_8">
    <path d="M 723.479565 1166.389738 
Q 585.049474 1429.225221 446.723583 1691.862861 
" clip-path="url(#p40396f862c)" style="fill: none; stroke: #000000; stroke-width: 0.2; stroke-linecap: round"/>
    <path d="M 450.357148 1689.255716 
L 446.723583 1691.862861 
L 446.818006 1687.391722 
z
" clip-path="url(#p40396f862c)" style="stroke: #000000; stroke-width: 0.2; stroke-linecap: round"/>
   </g>
   <g id="patch_9">
    <path d="M 726.982386 1167.672162 
Q 682.108179 1368.111737 637.282824 1568.333106 
" clip-path="url(#p40396f862c)" style="fill: none; stroke: #000000; stroke-width: 0.2; stroke-linecap: round"/>
    <path d="M 640.108394 1564.866674 
L 637.282824 1568.333106 
L 636.20502 1563.99279 
z
" clip-path="url(#p40396f862c)" style="stroke: #000000; stroke-width: 0.2; stroke-linecap: round"/>
   </g>
   <g id="patch_10">
    <path d="M 735.817617 1140.953114 
Q 811.281437 971.266202 886.654393 801.783604 
" clip-path="url(#p40396f862c)" style="fill: none; stroke: #000000; stroke-width: 0.2; stroke-linecap: round"/>
    <path d="M 883.201553 804.625768 
L 886.654393 801.783604 
L 886.85642 806.251174 
z
" clip-path="url(#p40396f862c)" style="stroke: #000000; stroke-width: 0.2; stroke-linecap: round"/>
   </g>
   <g id="patch_11">
    <path d="M 740.692004 1144.540744 
Q 845.113142 1052.77989 949.366311 961.166639 
" clip-path="url(#p40396f862c)" style="fill: none; stroke: #000000; stroke-width: 0.2; stroke-linecap: round"/>
    <path d="M 945.041402 962.304694 
L 949.366311 961.166639 
L 947.681809 965.309399 
z
" clip-path="url(#p40396f862c)" style="stroke: #000000; stroke-width: 0.2; stroke-linecap: round"/>
   </g>
   <g id="patch_12">
    <path d="M 637.232878 1568.556199 
Q 682.107084 1368.116625 726.93244 1167.895256 
" clip-path="url(#p40396f862c)" style="fill: none; stroke: #000000; stroke-width: 0.2; stroke-linecap: round"/>
    <path d="M 724.106869 1171.361688 
L 726.93244 1167.895256 
L 728.010243 1172.235572 
z
" clip-path="url(#p40396f862c)" style="stroke: #000000; stroke-width: 0.2; stroke-linecap: round"/>
   </g>
   <g id="patch_13">
    <path d="M 622.174454 1589.890857 
Q 537.084725 1643.464636 452.184221 1696.919276 
" clip-path="url(#p40396f862c)" style="fill: none; stroke: #000000; stroke-width: 0.2; stroke-linecap: round"/>
    <path d="M 456.634783 1696.480535 
L 452.184221 1696.919276 
L 454.503565 1693.095582 
z
" clip-path="url(#p40396f862c)" style="stroke: #000000; stroke-width: 0.2; stroke-linecap: round"/>
   </g>
   <g id="patch_14">
    <path d="M 629.2731 1595.636122 
Q 442.03002 2106.22007 254.863927 2616.594082 
" clip-path="url(#p40396f862c)" style="fill: none; stroke: #000000; stroke-width: 0.2; stroke-linecap: round"/>
    <path d="M 258.118852 2613.527249 
L 254.863927 2616.594082 
L 254.363415 2612.150042 
z
" clip-path="url(#p40396f862c)" style="stroke: #000000; stroke-width: 0.2; stroke-linecap: round"/>
   </g>
   <g id="patch_15">
    <path d="M 638.520328 1568.908818 
Q 763.316701 1185.509164 888.043864 802.322136 
" clip-path="url(#p40396f862c)" style="fill: none; stroke: #000000; stroke-width: 0.2; stroke-linecap: round"/>
    <path d="M 884.904013 805.506682 
L 888.043864 802.322136 
L 888.707591 806.744745 
z
" clip-path="url(#p40396f862c)" style="stroke: #000000; stroke-width: 0.2; stroke-linecap: round"/>
   </g>
   <g id="patch_16">
    <path d="M 640.636762 1569.794047 
Q 797.151919 1267.018092 953.564394 964.440772 
" clip-path="url(#p40396f862c)" style="fill: none; stroke: #000000; stroke-width: 0.2; stroke-linecap: round"/>
    <path d="M 949.950907 967.075674 
L 953.564394 964.440772 
L 953.504223 968.912504 
z
" clip-path="url(#p40396f862c)" style="stroke: #000000; stroke-width: 0.2; stroke-linecap: round"/>
   </g>
   <g id="patch_17">
    <path d="M 632.908749 1568.2659 
Q 614.562122 1358.948411 596.235019 1149.853674 
" clip-path="url(#p40396f862c)" style="fill: none; stroke: #000000; stroke-width: 0.2; stroke-linecap: round"/>
    <path d="M 594.591917 1154.013027 
L 596.235019 1149.853674 
L 598.57664 1153.663767 
z
" clip-path="url(#p40396f862c)" style="stroke: #000000; stroke-width: 0.2; stroke-linecap: round"/>
   </g>
   <g id="patch_18">
    <path d="M 1495.374226 539.860219 
Q 1233.370541 741.459341 971.544074 942.922104 
" clip-path="url(#p40396f862c)" style="fill: none; stroke: #000000; stroke-width: 0.2; stroke-linecap: round"/>
    <path d="M 975.933873 942.0679 
L 971.544074 942.922104 
L 973.49459 938.897742 
z
" clip-path="url(#p40396f862c)" style="stroke: #000000; stroke-width: 0.2; stroke-linecap: round"/>
   </g>
   <g id="patch_19">
    <path d="M 1516.995063 521.665882 
Q 1659.625596 390.575705 1802.091495 259.636841 
" clip-path="url(#p40396f862c)" style="fill: none; stroke: #000000; stroke-width: 0.2; stroke-linecap: round"/>
    <path d="M 1797.793048 260.871084 
L 1802.091495 259.636841 
L 1800.499821 263.816144 
z
" clip-path="url(#p40396f862c)" style="stroke: #000000; stroke-width: 0.2; stroke-linecap: round"/>
   </g>
   <g id="patch_20">
    <path d="M 1496.43849 541.091291 
Q 1427.535466 608.033587 1358.792822 674.820067 
" clip-path="url(#p40396f862c)" style="fill: none; stroke: #000000; stroke-width: 0.2; stroke-linecap: round"/>
    <path d="M 1363.05543 673.467231 
L 1358.792822 674.820067 
L 1360.268118 670.598278 
z
" clip-path="url(#p40396f862c)" style="stroke: #000000; stroke-width: 0.2; stroke-linecap: round"/>
   </g>
   <g id="patch_21">
    <path d="M 1519.076233 537.857076 
Q 1724.986325 646.973873 1930.698838 755.985968 
" clip-path="url(#p40396f862c)" style="fill: none; stroke: #000000; stroke-width: 0.2; stroke-linecap: round"/>
    <path d="M 1928.10092 752.345801 
L 1930.698838 755.985968 
L 1926.227953 755.880203 
z
" clip-path="url(#p40396f862c)" style="stroke: #000000; stroke-width: 0.2; stroke-linecap: round"/>
   </g>
   <g id="patch_22">
    <path d="M 591.265172 1149.188642 
Q 517.505882 1420.056099 443.805343 1690.707805 
" clip-path="url(#p40396f862c)" style="fill: none; stroke: #000000; stroke-width: 0.2; stroke-linecap: round"/>
    <path d="M 446.786038 1687.37382 
L 443.805343 1690.707805 
L 442.926572 1686.322858 
z
" clip-path="url(#p40396f862c)" style="stroke: #000000; stroke-width: 0.2; stroke-linecap: round"/>
   </g>
   <g id="patch_23">
    <path d="M 596.215658 1149.632791 
Q 614.562286 1358.95028 632.889389 1568.045016 
" clip-path="url(#p40396f862c)" style="fill: none; stroke: #000000; stroke-width: 0.2; stroke-linecap: round"/>
    <path d="M 634.53249 1563.885663 
L 632.889389 1568.045016 
L 630.547767 1564.234923 
z
" clip-path="url(#p40396f862c)" style="stroke: #000000; stroke-width: 0.2; stroke-linecap: round"/>
   </g>
   <g id="patch_24">
    <path d="M 607.610141 1129.185114 
Q 777.568248 1043.61377 947.326634 958.142983 
" clip-path="url(#p40396f862c)" style="fill: none; stroke: #000000; stroke-width: 0.2; stroke-linecap: round"/>
    <path d="M 942.854515 958.155433 
L 947.326634 958.142983 
L 944.653323 961.728148 
z
" clip-path="url(#p40396f862c)" style="stroke: #000000; stroke-width: 0.2; stroke-linecap: round"/>
   </g>
   <g id="patch_25">
    <path d="M 583.016447 1127.997009 
Q 540.179239 1100.976317 497.531157 1074.074921 
" clip-path="url(#p40396f862c)" style="fill: none; stroke: #000000; stroke-width: 0.2; stroke-linecap: round"/>
    <path d="M 499.847323 1077.900542 
L 497.531157 1074.074921 
L 501.981353 1074.517361 
z
" clip-path="url(#p40396f862c)" style="stroke: #000000; stroke-width: 0.2; stroke-linecap: round"/>
   </g>
   <g id="patch_26">
    <path d="M 484.376351 1080.514306 
Q 462.704469 1385.489312 441.048436 1690.241274 
" clip-path="url(#p40396f862c)" style="fill: none; stroke: #000000; stroke-width: 0.2; stroke-linecap: round"/>
    <path d="M 443.326935 1686.3931 
L 441.048436 1690.241274 
L 439.336996 1686.10957 
z
" clip-path="url(#p40396f862c)" style="stroke: #000000; stroke-width: 0.2; stroke-linecap: round"/>
   </g>
   <g id="patch_27">
    <path d="M 499.12527 1063.087636 
Q 722.767882 1009.045836 946.193143 955.056558 
" clip-path="url(#p40396f862c)" style="fill: none; stroke: #000000; stroke-width: 0.2; stroke-linecap: round"/>
    <path d="M 941.835282 954.052043 
L 946.193143 955.056558 
L 942.774815 957.940138 
z
" clip-path="url(#p40396f862c)" style="stroke: #000000; stroke-width: 0.2; stroke-linecap: round"/>
   </g>
   <g id="patch_28">
    <path d="M 497.342978 1073.956222 
Q 540.180185 1100.976914 582.828267 1127.87831 
" clip-path="url(#p40396f862c)" style="fill: none; stroke: #000000; stroke-width: 0.2; stroke-linecap: round"/>
    <path d="M 580.512101 1124.05269 
L 582.828267 1127.87831 
L 578.378071 1127.435871 
z
" clip-path="url(#p40396f862c)" style="stroke: #000000; stroke-width: 0.2; stroke-linecap: round"/>
   </g>
   <g id="patch_29">
    <path d="M 1334.702148 687.969598 
Q 1120.491028 736.744524 906.497935 785.469807 
" clip-path="url(#p40396f862c)" style="fill: none; stroke: #000000; stroke-width: 0.2; stroke-linecap: round"/>
    <path d="M 910.842136 786.531842 
L 906.497935 785.469807 
L 909.954084 782.631667 
z
" clip-path="url(#p40396f862c)" style="stroke: #000000; stroke-width: 0.2; stroke-linecap: round"/>
   </g>
   <g id="patch_30">
    <path d="M 1358.63313 674.975214 
Q 1427.536154 608.032918 1496.278799 541.246438 
" clip-path="url(#p40396f862c)" style="fill: none; stroke: #000000; stroke-width: 0.2; stroke-linecap: round"/>
    <path d="M 1492.01619 542.599274 
L 1496.278799 541.246438 
L 1494.803502 545.468227 
z
" clip-path="url(#p40396f862c)" style="stroke: #000000; stroke-width: 0.2; stroke-linecap: round"/>
   </g>
   <g id="patch_31">
    <path d="M 1336.831093 692.841623 
Q 1154.322156 818.25769 971.997509 943.547118 
" clip-path="url(#p40396f862c)" style="fill: none; stroke: #000000; stroke-width: 0.2; stroke-linecap: round"/>
    <path d="M 976.426869 942.930056 
L 971.997509 943.547118 
L 974.161476 939.633393 
z
" clip-path="url(#p40396f862c)" style="stroke: #000000; stroke-width: 0.2; stroke-linecap: round"/>
   </g>
   <g id="patch_32">
    <path d="M 1362.509661 686.665812 
Q 1645.93931 723.771889 1929.147245 760.848938 
" clip-path="url(#p40396f862c)" style="fill: none; stroke: #000000; stroke-width: 0.2; stroke-linecap: round"/>
    <path d="M 1925.440711 758.346619 
L 1929.147245 760.848938 
L 1924.921469 762.312774 
z
" clip-path="url(#p40396f862c)" style="stroke: #000000; stroke-width: 0.2; stroke-linecap: round"/>
   </g>
   <g id="patch_33">
    <path d="M 446.622153 1692.055444 
Q 585.052245 1429.21996 723.378135 1166.582321 
" clip-path="url(#p40396f862c)" style="fill: none; stroke: #000000; stroke-width: 0.2; stroke-linecap: round"/>
    <path d="M 719.74457 1169.189466 
L 723.378135 1166.582321 
L 723.283712 1171.05346 
z
" clip-path="url(#p40396f862c)" style="stroke: #000000; stroke-width: 0.2; stroke-linecap: round"/>
   </g>
   <g id="patch_34">
    <path d="M 437.185051 1718.422019 
Q 344.97387 2167.326474 252.807682 2616.011895 
" clip-path="url(#p40396f862c)" style="fill: none; stroke: #000000; stroke-width: 0.2; stroke-linecap: round"/>
    <path d="M 255.571628 2612.49613 
L 252.807682 2616.011895 
L 251.653437 2611.691279 
z
" clip-path="url(#p40396f862c)" style="stroke: #000000; stroke-width: 0.2; stroke-linecap: round"/>
   </g>
   <g id="patch_35">
    <path d="M 451.99929 1697.035712 
Q 537.089019 1643.461933 621.989523 1590.007293 
" clip-path="url(#p40396f862c)" style="fill: none; stroke: #000000; stroke-width: 0.2; stroke-linecap: round"/>
    <path d="M 617.538961 1590.446034 
L 621.989523 1590.007293 
L 619.670179 1593.830987 
z
" clip-path="url(#p40396f862c)" style="stroke: #000000; stroke-width: 0.2; stroke-linecap: round"/>
   </g>
   <g id="patch_36">
    <path d="M 443.74569 1690.926868 
Q 517.50498 1420.059411 591.205519 1149.407705 
" clip-path="url(#p40396f862c)" style="fill: none; stroke: #000000; stroke-width: 0.2; stroke-linecap: round"/>
    <path d="M 588.224824 1152.74169 
L 591.205519 1149.407705 
L 592.08429 1153.792652 
z
" clip-path="url(#p40396f862c)" style="stroke: #000000; stroke-width: 0.2; stroke-linecap: round"/>
   </g>
   <g id="patch_37">
    <path d="M 441.03241 1690.466804 
Q 462.704292 1385.491798 484.360325 1080.739837 
" clip-path="url(#p40396f862c)" style="fill: none; stroke: #000000; stroke-width: 0.2; stroke-linecap: round"/>
    <path d="M 482.081826 1084.58801 
L 484.360325 1080.739837 
L 486.071765 1084.87154 
z
" clip-path="url(#p40396f862c)" style="stroke: #000000; stroke-width: 0.2; stroke-linecap: round"/>
   </g>
   <g id="patch_38">
    <path d="M 886.745182 801.579457 
Q 811.281363 971.266368 735.908406 1140.748967 
" clip-path="url(#p40396f862c)" style="fill: none; stroke: #000000; stroke-width: 0.2; stroke-linecap: round"/>
    <path d="M 739.361246 1137.906803 
L 735.908406 1140.748967 
L 735.706379 1136.281396 
z
" clip-path="url(#p40396f862c)" style="stroke: #000000; stroke-width: 0.2; stroke-linecap: round"/>
   </g>
   <g id="patch_39">
    <path d="M 888.114497 802.10514 
Q 763.318124 1185.504794 638.59096 1568.691822 
" clip-path="url(#p40396f862c)" style="fill: none; stroke: #000000; stroke-width: 0.2; stroke-linecap: round"/>
    <path d="M 641.730812 1565.507275 
L 638.59096 1568.691822 
L 637.927234 1564.269213 
z
" clip-path="url(#p40396f862c)" style="stroke: #000000; stroke-width: 0.2; stroke-linecap: round"/>
   </g>
   <g id="patch_40">
    <path d="M 906.278419 785.51979 
Q 1120.489538 736.744864 1334.482631 688.019581 
" clip-path="url(#p40396f862c)" style="fill: none; stroke: #000000; stroke-width: 0.2; stroke-linecap: round"/>
    <path d="M 1330.13843 686.957546 
L 1334.482631 688.019581 
L 1331.026483 690.857721 
z
" clip-path="url(#p40396f862c)" style="stroke: #000000; stroke-width: 0.2; stroke-linecap: round"/>
   </g>
   <g id="patch_41">
    <path d="M 1930.901634 756.093435 
Q 1724.991542 646.976638 1519.279029 537.964543 
" clip-path="url(#p40396f862c)" style="fill: none; stroke: #000000; stroke-width: 0.2; stroke-linecap: round"/>
    <path d="M 1521.876948 541.60471 
L 1519.279029 537.964543 
L 1523.749914 538.070308 
z
" clip-path="url(#p40396f862c)" style="stroke: #000000; stroke-width: 0.2; stroke-linecap: round"/>
   </g>
   <g id="patch_42">
    <path d="M 1939.9018 749.009417 
Q 1878.031035 506.315469 1816.215508 263.838197 
" clip-path="url(#p40396f862c)" style="fill: none; stroke: #000000; stroke-width: 0.2; stroke-linecap: round"/>
    <path d="M 1815.265622 268.208291 
L 1816.215508 263.838197 
L 1819.141652 267.220162 
z
" clip-path="url(#p40396f862c)" style="stroke: #000000; stroke-width: 0.2; stroke-linecap: round"/>
   </g>
   <g id="patch_43">
    <path d="M 1929.375359 760.878802 
Q 1645.945709 723.772726 1362.737774 686.695677 
" clip-path="url(#p40396f862c)" style="fill: none; stroke: #000000; stroke-width: 0.2; stroke-linecap: round"/>
    <path d="M 1366.444309 689.197996 
L 1362.737774 686.695677 
L 1366.96355 685.231841 
z
" clip-path="url(#p40396f862c)" style="stroke: #000000; stroke-width: 0.2; stroke-linecap: round"/>
   </g>
   <g id="patch_44">
    <path d="M 1955.636571 769.798846 
Q 2286.740185 961.42758 2617.650268 1152.944306 
" clip-path="url(#p40396f862c)" style="fill: none; stroke: #000000; stroke-width: 0.2; stroke-linecap: round"/>
    <path d="M 2615.190104 1149.209658 
L 2617.650268 1152.944306 
L 2613.186451 1152.671648 
z
" clip-path="url(#p40396f862c)" style="stroke: #000000; stroke-width: 0.2; stroke-linecap: round"/>
   </g>
   <g id="patch_45">
    <path d="M 1802.253794 259.487673 
Q 1659.623261 390.577851 1517.157362 521.516715 
" clip-path="url(#p40396f862c)" style="fill: none; stroke: #000000; stroke-width: 0.2; stroke-linecap: round"/>
    <path d="M 1521.455809 520.282472 
L 1517.157362 521.516715 
L 1518.749036 517.337412 
z
" clip-path="url(#p40396f862c)" style="stroke: #000000; stroke-width: 0.2; stroke-linecap: round"/>
   </g>
   <g id="patch_46">
    <path d="M 1816.160456 263.622248 
Q 1878.031221 506.316197 1939.846747 748.793469 
" clip-path="url(#p40396f862c)" style="fill: none; stroke: #000000; stroke-width: 0.2; stroke-linecap: round"/>
    <path d="M 1940.796633 744.423375 
L 1939.846747 748.793469 
L 1936.920604 745.411504 
z
" clip-path="url(#p40396f862c)" style="stroke: #000000; stroke-width: 0.2; stroke-linecap: round"/>
   </g>
   <g id="PathCollection_1">
    <defs>
     <path id="C0_0_7b0c6a66f3" d="M 0 14.142136 
C 3.750538 14.142136 7.347969 12.652031 10 10 
C 12.652031 7.347969 14.142136 3.750538 14.142136 -0 
C 14.142136 -3.750538 12.652031 -7.347969 10 -10 
C 7.347969 -12.652031 3.750538 -14.142136 0 -14.142136 
C -3.750538 -14.142136 -7.347969 -12.652031 -10 -10 
C -12.652031 -7.347969 -14.142136 -3.750538 -14.142136 0 
C -14.142136 3.750538 -12.652031 7.347969 -10 10 
C -7.347969 12.652031 -3.750538 14.142136 0 14.142136 
z
"/>
    </defs>
    <g clip-path="url(#p40396f862c)">
     <use xlink:href="#C0_0_7b0c6a66f3" x="960.160075" y="951.681538" style="fill: #0000ff; stroke: #0000ff"/>
    </g>
    <g clip-path="url(#p40396f862c)">
     <use xlink:href="#C0_0_7b0c6a66f3" x="730.071619" y="1153.873487" style="fill: #ffa500; stroke: #ffa500"/>
    </g>
    <g clip-path="url(#p40396f862c)">
     <use xlink:href="#C0_0_7b0c6a66f3" x="634.143644" y="1582.354875" style="fill: #ffff00; stroke: #ffff00"/>
    </g>
    <g clip-path="url(#p40396f862c)">
     <use xlink:href="#C0_0_7b0c6a66f3" x="1506.582234" y="531.236201" style="fill: #ffa500; stroke: #ffa500"/>
    </g>
    <g clip-path="url(#p40396f862c)">
     <use xlink:href="#C0_0_7b0c6a66f3" x="594.980763" y="1135.543816" style="fill: #ffa500; stroke: #ffa500"/>
    </g>
    <g clip-path="url(#p40396f862c)">
     <use xlink:href="#C0_0_7b0c6a66f3" x="485.378662" y="1066.409416" style="fill: #ffff00; stroke: #ffff00"/>
    </g>
    <g clip-path="url(#p40396f862c)">
     <use xlink:href="#C0_0_7b0c6a66f3" x="1348.489386" y="684.830304" style="fill: #ffff00; stroke: #ffff00"/>
    </g>
    <g clip-path="url(#p40396f862c)">
     <use xlink:href="#C0_0_7b0c6a66f3" x="440.0301" y="1704.571694" style="fill: #0000ff; stroke: #0000ff"/>
    </g>
    <g clip-path="url(#p40396f862c)">
     <use xlink:href="#C0_0_7b0c6a66f3" x="249.917355" y="2630.082645" style="fill: #ffa500; stroke: #ffa500"/>
    </g>
    <g clip-path="url(#p40396f862c)">
     <use xlink:href="#C0_0_7b0c6a66f3" x="892.49118" y="788.659083" style="fill: #0000ff; stroke: #0000ff"/>
    </g>
    <g clip-path="url(#p40396f862c)">
     <use xlink:href="#C0_0_7b0c6a66f3" x="1943.395633" y="762.71431" style="fill: #ffa500; stroke: #ffa500"/>
    </g>
    <g clip-path="url(#p40396f862c)">
     <use xlink:href="#C0_0_7b0c6a66f3" x="1812.666622" y="249.917355" style="fill: #ffff00; stroke: #ffff00"/>
    </g>
    <g clip-path="url(#p40396f862c)">
     <use xlink:href="#C0_0_7b0c6a66f3" x="2630.082645" y="1160.139638" style="fill: #ffff00; stroke: #ffff00"/>
    </g>
   </g>
   <g id="text_1">
    <g clip-path="url(#p40396f862c)">
     <!-- VAL 26 -->
     <g transform="translate(946.352575 953.889038) scale(0.08 -0.08)">
      <defs>
       <path id="DejaVuSans-56" d="M 1831 0 
L 50 4666 
L 709 4666 
L 2188 738 
L 3669 4666 
L 4325 4666 
L 2547 0 
L 1831 0 
z
" transform="scale(0.015625)"/>
       <path id="DejaVuSans-41" d="M 2188 4044 
L 1331 1722 
L 3047 1722 
L 2188 4044 
z
M 1831 4666 
L 2547 4666 
L 4325 0 
L 3669 0 
L 3244 1197 
L 1141 1197 
L 716 0 
L 50 0 
L 1831 4666 
z
" transform="scale(0.015625)"/>
       <path id="DejaVuSans-4c" d="M 628 4666 
L 1259 4666 
L 1259 531 
L 3531 531 
L 3531 0 
L 628 0 
L 628 4666 
z
" transform="scale(0.015625)"/>
       <path id="DejaVuSans-20" transform="scale(0.015625)"/>
       <path id="DejaVuSans-32" d="M 1228 531 
L 3431 531 
L 3431 0 
L 469 0 
L 469 531 
Q 828 903 1448 1529 
Q 2069 2156 2228 2338 
Q 2531 2678 2651 2914 
Q 2772 3150 2772 3378 
Q 2772 3750 2511 3984 
Q 2250 4219 1831 4219 
Q 1534 4219 1204 4116 
Q 875 4013 500 3803 
L 500 4441 
Q 881 4594 1212 4672 
Q 1544 4750 1819 4750 
Q 2544 4750 2975 4387 
Q 3406 4025 3406 3419 
Q 3406 3131 3298 2873 
Q 3191 2616 2906 2266 
Q 2828 2175 2409 1742 
Q 1991 1309 1228 531 
z
" transform="scale(0.015625)"/>
       <path id="DejaVuSans-36" d="M 2113 2584 
Q 1688 2584 1439 2293 
Q 1191 2003 1191 1497 
Q 1191 994 1439 701 
Q 1688 409 2113 409 
Q 2538 409 2786 701 
Q 3034 994 3034 1497 
Q 3034 2003 2786 2293 
Q 2538 2584 2113 2584 
z
M 3366 4563 
L 3366 3988 
Q 3128 4100 2886 4159 
Q 2644 4219 2406 4219 
Q 1781 4219 1451 3797 
Q 1122 3375 1075 2522 
Q 1259 2794 1537 2939 
Q 1816 3084 2150 3084 
Q 2853 3084 3261 2657 
Q 3669 2231 3669 1497 
Q 3669 778 3244 343 
Q 2819 -91 2113 -91 
Q 1303 -91 875 529 
Q 447 1150 447 2328 
Q 447 3434 972 4092 
Q 1497 4750 2381 4750 
Q 2619 4750 2861 4703 
Q 3103 4656 3366 4563 
z
" transform="scale(0.015625)"/>
      </defs>
      <use xlink:href="#DejaVuSans-56"/>
      <use xlink:href="#DejaVuSans-41" x="62.033203"/>
      <use xlink:href="#DejaVuSans-4c" x="130.441406"/>
      <use xlink:href="#DejaVuSans-20" x="186.154297"/>
      <use xlink:href="#DejaVuSans-32" x="217.941406"/>
      <use xlink:href="#DejaVuSans-36" x="281.564453"/>
     </g>
    </g>
   </g>
   <g id="text_2">
    <g clip-path="url(#p40396f862c)">
     <!-- ILE 3 -->
     <g transform="translate(720.319119 1156.080987) scale(0.08 -0.08)">
      <defs>
       <path id="DejaVuSans-49" d="M 628 4666 
L 1259 4666 
L 1259 0 
L 628 0 
L 628 4666 
z
" transform="scale(0.015625)"/>
       <path id="DejaVuSans-45" d="M 628 4666 
L 3578 4666 
L 3578 4134 
L 1259 4134 
L 1259 2753 
L 3481 2753 
L 3481 2222 
L 1259 2222 
L 1259 531 
L 3634 531 
L 3634 0 
L 628 0 
L 628 4666 
z
" transform="scale(0.015625)"/>
       <path id="DejaVuSans-33" d="M 2597 2516 
Q 3050 2419 3304 2112 
Q 3559 1806 3559 1356 
Q 3559 666 3084 287 
Q 2609 -91 1734 -91 
Q 1441 -91 1130 -33 
Q 819 25 488 141 
L 488 750 
Q 750 597 1062 519 
Q 1375 441 1716 441 
Q 2309 441 2620 675 
Q 2931 909 2931 1356 
Q 2931 1769 2642 2001 
Q 2353 2234 1838 2234 
L 1294 2234 
L 1294 2753 
L 1863 2753 
Q 2328 2753 2575 2939 
Q 2822 3125 2822 3475 
Q 2822 3834 2567 4026 
Q 2313 4219 1838 4219 
Q 1578 4219 1281 4162 
Q 984 4106 628 3988 
L 628 4550 
Q 988 4650 1302 4700 
Q 1616 4750 1894 4750 
Q 2613 4750 3031 4423 
Q 3450 4097 3450 3541 
Q 3450 3153 3228 2886 
Q 3006 2619 2597 2516 
z
" transform="scale(0.015625)"/>
      </defs>
      <use xlink:href="#DejaVuSans-49"/>
      <use xlink:href="#DejaVuSans-4c" x="29.492188"/>
      <use xlink:href="#DejaVuSans-45" x="85.205078"/>
      <use xlink:href="#DejaVuSans-20" x="148.388672"/>
      <use xlink:href="#DejaVuSans-33" x="180.175781"/>
     </g>
    </g>
   </g>
   <g id="text_3">
    <g clip-path="url(#p40396f862c)">
     <!-- LEU 15 -->
     <g transform="translate(620.098644 1584.562375) scale(0.08 -0.08)">
      <defs>
       <path id="DejaVuSans-55" d="M 556 4666 
L 1191 4666 
L 1191 1831 
Q 1191 1081 1462 751 
Q 1734 422 2344 422 
Q 2950 422 3222 751 
Q 3494 1081 3494 1831 
L 3494 4666 
L 4128 4666 
L 4128 1753 
Q 4128 841 3676 375 
Q 3225 -91 2344 -91 
Q 1459 -91 1007 375 
Q 556 841 556 1753 
L 556 4666 
z
" transform="scale(0.015625)"/>
       <path id="DejaVuSans-31" d="M 794 531 
L 1825 531 
L 1825 4091 
L 703 3866 
L 703 4441 
L 1819 4666 
L 2450 4666 
L 2450 531 
L 3481 531 
L 3481 0 
L 794 0 
L 794 531 
z
" transform="scale(0.015625)"/>
       <path id="DejaVuSans-35" d="M 691 4666 
L 3169 4666 
L 3169 4134 
L 1269 4134 
L 1269 2991 
Q 1406 3038 1543 3061 
Q 1681 3084 1819 3084 
Q 2600 3084 3056 2656 
Q 3513 2228 3513 1497 
Q 3513 744 3044 326 
Q 2575 -91 1722 -91 
Q 1428 -91 1123 -41 
Q 819 9 494 109 
L 494 744 
Q 775 591 1075 516 
Q 1375 441 1709 441 
Q 2250 441 2565 725 
Q 2881 1009 2881 1497 
Q 2881 1984 2565 2268 
Q 2250 2553 1709 2553 
Q 1456 2553 1204 2497 
Q 953 2441 691 2322 
L 691 4666 
z
" transform="scale(0.015625)"/>
      </defs>
      <use xlink:href="#DejaVuSans-4c"/>
      <use xlink:href="#DejaVuSans-45" x="55.712891"/>
      <use xlink:href="#DejaVuSans-55" x="118.896484"/>
      <use xlink:href="#DejaVuSans-20" x="192.089844"/>
      <use xlink:href="#DejaVuSans-31" x="223.876953"/>
      <use xlink:href="#DejaVuSans-35" x="287.5"/>
     </g>
    </g>
   </g>
   <g id="text_4">
    <g clip-path="url(#p40396f862c)">
     <!-- ILE 23 -->
     <g transform="translate(1494.284734 533.443701) scale(0.08 -0.08)">
      <use xlink:href="#DejaVuSans-49"/>
      <use xlink:href="#DejaVuSans-4c" x="29.492188"/>
      <use xlink:href="#DejaVuSans-45" x="85.205078"/>
      <use xlink:href="#DejaVuSans-20" x="148.388672"/>
      <use xlink:href="#DejaVuSans-32" x="180.175781"/>
      <use xlink:href="#DejaVuSans-33" x="243.798828"/>
     </g>
    </g>
   </g>
   <g id="text_5">
    <g clip-path="url(#p40396f862c)">
     <!-- ILE 30 -->
     <g transform="translate(582.683263 1137.751316) scale(0.08 -0.08)">
      <defs>
       <path id="DejaVuSans-30" d="M 2034 4250 
Q 1547 4250 1301 3770 
Q 1056 3291 1056 2328 
Q 1056 1369 1301 889 
Q 1547 409 2034 409 
Q 2525 409 2770 889 
Q 3016 1369 3016 2328 
Q 3016 3291 2770 3770 
Q 2525 4250 2034 4250 
z
M 2034 4750 
Q 2819 4750 3233 4129 
Q 3647 3509 3647 2328 
Q 3647 1150 3233 529 
Q 2819 -91 2034 -91 
Q 1250 -91 836 529 
Q 422 1150 422 2328 
Q 422 3509 836 4129 
Q 1250 4750 2034 4750 
z
" transform="scale(0.015625)"/>
      </defs>
      <use xlink:href="#DejaVuSans-49"/>
      <use xlink:href="#DejaVuSans-4c" x="29.492188"/>
      <use xlink:href="#DejaVuSans-45" x="85.205078"/>
      <use xlink:href="#DejaVuSans-20" x="148.388672"/>
      <use xlink:href="#DejaVuSans-33" x="180.175781"/>
      <use xlink:href="#DejaVuSans-30" x="243.798828"/>
     </g>
    </g>
   </g>
   <g id="text_6">
    <g clip-path="url(#p40396f862c)">
     <!-- LEU 43 -->
     <g transform="translate(471.333662 1068.616916) scale(0.08 -0.08)">
      <defs>
       <path id="DejaVuSans-34" d="M 2419 4116 
L 825 1625 
L 2419 1625 
L 2419 4116 
z
M 2253 4666 
L 3047 4666 
L 3047 1625 
L 3713 1625 
L 3713 1100 
L 3047 1100 
L 3047 0 
L 2419 0 
L 2419 1100 
L 313 1100 
L 313 1709 
L 2253 4666 
z
" transform="scale(0.015625)"/>
      </defs>
      <use xlink:href="#DejaVuSans-4c"/>
      <use xlink:href="#DejaVuSans-45" x="55.712891"/>
      <use xlink:href="#DejaVuSans-55" x="118.896484"/>
      <use xlink:href="#DejaVuSans-20" x="192.089844"/>
      <use xlink:href="#DejaVuSans-34" x="223.876953"/>
      <use xlink:href="#DejaVuSans-33" x="287.5"/>
     </g>
    </g>
   </g>
   <g id="text_7">
    <g clip-path="url(#p40396f862c)">
     <!-- LEU 56 -->
     <g transform="translate(1334.444386 687.037804) scale(0.08 -0.08)">
      <use xlink:href="#DejaVuSans-4c"/>
      <use xlink:href="#DejaVuSans-45" x="55.712891"/>
      <use xlink:href="#DejaVuSans-55" x="118.896484"/>
      <use xlink:href="#DejaVuSans-20" x="192.089844"/>
      <use xlink:href="#DejaVuSans-35" x="223.876953"/>
      <use xlink:href="#DejaVuSans-36" x="287.5"/>
     </g>
    </g>
   </g>
   <g id="text_8">
    <g clip-path="url(#p40396f862c)">
     <!-- VAL 5 -->
     <g transform="translate(428.7676 1706.779194) scale(0.08 -0.08)">
      <use xlink:href="#DejaVuSans-56"/>
      <use xlink:href="#DejaVuSans-41" x="62.033203"/>
      <use xlink:href="#DejaVuSans-4c" x="130.441406"/>
      <use xlink:href="#DejaVuSans-20" x="186.154297"/>
      <use xlink:href="#DejaVuSans-35" x="217.941406"/>
     </g>
    </g>
   </g>
   <g id="text_9">
    <g clip-path="url(#p40396f862c)">
     <!-- ILE 13 -->
     <g transform="translate(237.619855 2632.290145) scale(0.08 -0.08)">
      <use xlink:href="#DejaVuSans-49"/>
      <use xlink:href="#DejaVuSans-4c" x="29.492188"/>
      <use xlink:href="#DejaVuSans-45" x="85.205078"/>
      <use xlink:href="#DejaVuSans-20" x="148.388672"/>
      <use xlink:href="#DejaVuSans-31" x="180.175781"/>
      <use xlink:href="#DejaVuSans-33" x="243.798828"/>
     </g>
    </g>
   </g>
   <g id="text_10">
    <g clip-path="url(#p40396f862c)">
     <!-- VAL 17 -->
     <g transform="translate(878.68368 790.866583) scale(0.08 -0.08)">
      <defs>
       <path id="DejaVuSans-37" d="M 525 4666 
L 3525 4666 
L 3525 4397 
L 1831 0 
L 1172 0 
L 2766 4134 
L 525 4134 
L 525 4666 
z
" transform="scale(0.015625)"/>
      </defs>
      <use xlink:href="#DejaVuSans-56"/>
      <use xlink:href="#DejaVuSans-41" x="62.033203"/>
      <use xlink:href="#DejaVuSans-4c" x="130.441406"/>
      <use xlink:href="#DejaVuSans-20" x="186.154297"/>
      <use xlink:href="#DejaVuSans-31" x="217.941406"/>
      <use xlink:href="#DejaVuSans-37" x="281.564453"/>
     </g>
    </g>
   </g>
   <g id="text_11">
    <g clip-path="url(#p40396f862c)">
     <!-- ILE 61 -->
     <g transform="translate(1931.098133 764.92181) scale(0.08 -0.08)">
      <use xlink:href="#DejaVuSans-49"/>
      <use xlink:href="#DejaVuSans-4c" x="29.492188"/>
      <use xlink:href="#DejaVuSans-45" x="85.205078"/>
      <use xlink:href="#DejaVuSans-20" x="148.388672"/>
      <use xlink:href="#DejaVuSans-36" x="180.175781"/>
      <use xlink:href="#DejaVuSans-31" x="243.798828"/>
     </g>
    </g>
   </g>
   <g id="text_12">
    <g clip-path="url(#p40396f862c)">
     <!-- LEU 50 -->
     <g transform="translate(1798.621622 252.124855) scale(0.08 -0.08)">
      <use xlink:href="#DejaVuSans-4c"/>
      <use xlink:href="#DejaVuSans-45" x="55.712891"/>
      <use xlink:href="#DejaVuSans-55" x="118.896484"/>
      <use xlink:href="#DejaVuSans-20" x="192.089844"/>
      <use xlink:href="#DejaVuSans-35" x="223.876953"/>
      <use xlink:href="#DejaVuSans-30" x="287.5"/>
     </g>
    </g>
   </g>
   <g id="text_13">
    <g clip-path="url(#p40396f862c)">
     <!-- LEU 67 -->
     <g transform="translate(2616.037645 1162.347138) scale(0.08 -0.08)">
      <use xlink:href="#DejaVuSans-4c"/>
      <use xlink:href="#DejaVuSans-45" x="55.712891"/>
      <use xlink:href="#DejaVuSans-55" x="118.896484"/>
      <use xlink:href="#DejaVuSans-20" x="192.089844"/>
      <use xlink:href="#DejaVuSans-36" x="223.876953"/>
      <use xlink:href="#DejaVuSans-37" x="287.5"/>
     </g>
    </g>
   </g>
  </g>
  <g id="text_14">
   <!-- G_NMR -->
   <g transform="translate(1418.51625 66.50625) scale(0.12 -0.12)">
    <defs>
     <path id="DejaVuSans-47" d="M 3809 666 
L 3809 1919 
L 2778 1919 
L 2778 2438 
L 4434 2438 
L 4434 434 
Q 4069 175 3628 42 
Q 3188 -91 2688 -91 
Q 1594 -91 976 548 
Q 359 1188 359 2328 
Q 359 3472 976 4111 
Q 1594 4750 2688 4750 
Q 3144 4750 3555 4637 
Q 3966 4525 4313 4306 
L 4313 3634 
Q 3963 3931 3569 4081 
Q 3175 4231 2741 4231 
Q 1884 4231 1454 3753 
Q 1025 3275 1025 2328 
Q 1025 1384 1454 906 
Q 1884 428 2741 428 
Q 3075 428 3337 486 
Q 3600 544 3809 666 
z
" transform="scale(0.015625)"/>
     <path id="DejaVuSans-5f" d="M 3263 -1063 
L 3263 -1509 
L -63 -1509 
L -63 -1063 
L 3263 -1063 
z
" transform="scale(0.015625)"/>
     <path id="DejaVuSans-4e" d="M 628 4666 
L 1478 4666 
L 3547 763 
L 3547 4666 
L 4159 4666 
L 4159 0 
L 3309 0 
L 1241 3903 
L 1241 0 
L 628 0 
L 628 4666 
z
" transform="scale(0.015625)"/>
     <path id="DejaVuSans-4d" d="M 628 4666 
L 1569 4666 
L 2759 1491 
L 3956 4666 
L 4897 4666 
L 4897 0 
L 4281 0 
L 4281 4097 
L 3078 897 
L 2444 897 
L 1241 4097 
L 1241 0 
L 628 0 
L 628 4666 
z
" transform="scale(0.015625)"/>
     <path id="DejaVuSans-52" d="M 2841 2188 
Q 3044 2119 3236 1894 
Q 3428 1669 3622 1275 
L 4263 0 
L 3584 0 
L 2988 1197 
Q 2756 1666 2539 1819 
Q 2322 1972 1947 1972 
L 1259 1972 
L 1259 0 
L 628 0 
L 628 4666 
L 2053 4666 
Q 2853 4666 3247 4331 
Q 3641 3997 3641 3322 
Q 3641 2881 3436 2590 
Q 3231 2300 2841 2188 
z
M 1259 4147 
L 1259 2491 
L 2053 2491 
Q 2509 2491 2742 2702 
Q 2975 2913 2975 3322 
Q 2975 3731 2742 3939 
Q 2509 4147 2053 4147 
L 1259 4147 
z
" transform="scale(0.015625)"/>
    </defs>
    <use xlink:href="#DejaVuSans-47"/>
    <use xlink:href="#DejaVuSans-5f" x="77.490234"/>
    <use xlink:href="#DejaVuSans-4e" x="127.490234"/>
    <use xlink:href="#DejaVuSans-4d" x="202.294922"/>
    <use xlink:href="#DejaVuSans-52" x="288.574219"/>
   </g>
  </g>
 </g>
 <defs>
  <clipPath id="p40396f862c">
   <rect x="0" y="0" width="2880" height="2880"/>
  </clipPath>
 </defs>
</svg>
