<?xml version="1.0" encoding="utf-8" standalone="no"?>
<!DOCTYPE svg PUBLIC "-//W3C//DTD SVG 1.1//EN"
  "http://www.w3.org/Graphics/SVG/1.1/DTD/svg11.dtd">
<svg xmlns:xlink="http://www.w3.org/1999/xlink" width="2880pt" height="2880pt" viewBox="0 0 2880 2880" xmlns="http://www.w3.org/2000/svg" version="1.1">
 <metadata>
  <rdf:RDF xmlns:dc="http://purl.org/dc/elements/1.1/" xmlns:cc="http://creativecommons.org/ns#" xmlns:rdf="http://www.w3.org/1999/02/22-rdf-syntax-ns#">
   <cc:Work>
    <dc:type rdf:resource="http://purl.org/dc/dcmitype/StillImage"/>
    <dc:date>2024-02-24T15:26:07.238635</dc:date>
    <dc:format>image/svg+xml</dc:format>
    <dc:creator>
     <cc:Agent>
      <dc:title>Matplotlib v3.8.2, https://matplotlib.org/</dc:title>
     </cc:Agent>
    </dc:creator>
   </cc:Work>
  </rdf:RDF>
 </metadata>
 <defs>
  <style type="text/css">*{stroke-linejoin: round; stroke-linecap: butt}</style>
 </defs>
 <g id="figure_1">
  <g id="patch_1">
   <path d="M 0 2880 
L 2880 2880 
L 2880 0 
L 0 0 
z
" style="fill: #ffffff"/>
  </g>
  <g id="axes_1">
   <g id="patch_2">
    <path d="M 1737.963775 1263.485916 
Q 1608.04846 1326.957739 1478.334056 1390.331404 
" clip-path="url(#p58637f67db)" style="fill: none; stroke: #000000; stroke-width: 0.2; stroke-linecap: round"/>
    <path d="M 1482.806003 1390.372508 
L 1478.334056 1390.331404 
L 1481.050108 1386.778509 
z
" clip-path="url(#p58637f67db)" style="stroke: #000000; stroke-width: 0.2; stroke-linecap: round"/>
   </g>
   <g id="patch_3">
    <path d="M 1737.419774 1252.334662 
Q 1393.577747 1124.018055 1049.945214 995.779627 
" clip-path="url(#p58637f67db)" style="fill: none; stroke: #000000; stroke-width: 0.2; stroke-linecap: round"/>
    <path d="M 1052.993498 999.05193 
L 1049.945214 995.779627 
L 1054.392026 995.304381 
z
" clip-path="url(#p58637f67db)" style="stroke: #000000; stroke-width: 0.2; stroke-linecap: round"/>
   </g>
   <g id="patch_4">
    <path d="M 1736.962248 1253.782394 
Q 1629.576893 1226.388213 1522.408205 1199.049306 
" clip-path="url(#p58637f67db)" style="fill: none; stroke: #000000; stroke-width: 0.2; stroke-linecap: round"/>
    <path d="M 1525.789707 1201.975983 
L 1522.408205 1199.049306 
L 1526.778449 1198.100111 
z
" clip-path="url(#p58637f67db)" style="stroke: #000000; stroke-width: 0.2; stroke-linecap: round"/>
   </g>
   <g id="patch_5">
    <path d="M 1738.58551 1264.623209 
Q 1606.404952 1344.965993 1474.415473 1425.192635 
" clip-path="url(#p58637f67db)" style="fill: none; stroke: #000000; stroke-width: 0.2; stroke-linecap: round"/>
    <path d="M 1478.872396 1424.824073 
L 1474.415473 1425.192635 
L 1476.794778 1421.40596 
z
" clip-path="url(#p58637f67db)" style="stroke: #000000; stroke-width: 0.2; stroke-linecap: round"/>
   </g>
   <g id="patch_6">
    <path d="M 1764.647498 1259.418832 
Q 2190.374414 1324.590625 2615.880298 1389.728581 
" clip-path="url(#p58637f67db)" style="fill: none; stroke: #000000; stroke-width: 0.2; stroke-linecap: round"/>
    <path d="M 2612.229 1387.146328 
L 2615.880298 1389.728581 
L 2611.623717 1391.100267 
z
" clip-path="url(#p58637f67db)" style="stroke: #000000; stroke-width: 0.2; stroke-linecap: round"/>
   </g>
   <g id="patch_7">
    <path d="M 1478.133454 1390.42941 
Q 1608.048769 1326.957588 1737.763173 1263.583923 
" clip-path="url(#p58637f67db)" style="fill: none; stroke: #000000; stroke-width: 0.2; stroke-linecap: round"/>
    <path d="M 1733.291226 1263.542818 
L 1737.763173 1263.583923 
L 1735.047122 1267.136818 
z
" clip-path="url(#p58637f67db)" style="stroke: #000000; stroke-width: 0.2; stroke-linecap: round"/>
   </g>
   <g id="patch_8">
    <path d="M 1468.388627 1382.810026 
Q 1486.957469 1296.069319 1505.479503 1209.547265 
" clip-path="url(#p58637f67db)" style="fill: none; stroke: #000000; stroke-width: 0.2; stroke-linecap: round"/>
    <path d="M 1502.686492 1213.039984 
L 1505.479503 1209.547265 
L 1506.597872 1213.877305 
z
" clip-path="url(#p58637f67db)" style="stroke: #000000; stroke-width: 0.2; stroke-linecap: round"/>
   </g>
   <g id="patch_9">
    <path d="M 1464.142551 1410.719195 
Q 1463.78391 1414.645969 1463.445606 1418.350064 
" clip-path="url(#p58637f67db)" style="fill: none; stroke: #000000; stroke-width: 0.2; stroke-linecap: round"/>
    <path d="M 1465.801131 1414.548551 
L 1463.445606 1418.350064 
L 1461.817711 1414.184735 
z
" clip-path="url(#p58637f67db)" style="stroke: #000000; stroke-width: 0.2; stroke-linecap: round"/>
   </g>
   <g id="patch_10">
    <path d="M 1479.570201 1396.578976 
Q 2047.75378 1394.269598 2615.713755 1391.961129 
" clip-path="url(#p58637f67db)" style="fill: none; stroke: #000000; stroke-width: 0.2; stroke-linecap: round"/>
    <path d="M 2611.705659 1389.977403 
L 2615.713755 1391.961129 
L 2611.721917 1393.97737 
z
" clip-path="url(#p58637f67db)" style="stroke: #000000; stroke-width: 0.2; stroke-linecap: round"/>
   </g>
   <g id="patch_11">
    <path d="M 1451.328229 1397.750341 
Q 857.673766 1444.646728 264.242216 1491.525505 
" clip-path="url(#p58637f67db)" style="fill: none; stroke: #000000; stroke-width: 0.2; stroke-linecap: round"/>
    <path d="M 268.387295 1493.204291 
L 264.242216 1491.525505 
L 268.072292 1489.216714 
z
" clip-path="url(#p58637f67db)" style="stroke: #000000; stroke-width: 0.2; stroke-linecap: round"/>
   </g>
   <g id="patch_12">
    <path d="M 1475.266379 1386.473003 
Q 1511.892506 1348.633777 1548.363115 1310.95522 
" clip-path="url(#p58637f67db)" style="fill: none; stroke: #000000; stroke-width: 0.2; stroke-linecap: round"/>
    <path d="M 1544.144073 1312.438353 
L 1548.363115 1310.95522 
L 1547.018196 1315.220333 
z
" clip-path="url(#p58637f67db)" style="stroke: #000000; stroke-width: 0.2; stroke-linecap: round"/>
   </g>
   <g id="patch_13">
    <path d="M 1023.225171 985.841168 
Q 683.11628 859.765404 343.217053 733.767361 
" clip-path="url(#p58637f67db)" style="fill: none; stroke: #000000; stroke-width: 0.2; stroke-linecap: round"/>
    <path d="M 346.272495 737.032981 
L 343.217053 733.767361 
L 347.662814 733.28238 
z
" clip-path="url(#p58637f67db)" style="stroke: #000000; stroke-width: 0.2; stroke-linecap: round"/>
   </g>
   <g id="patch_14">
    <path d="M 1049.735501 995.701366 
Q 1393.577528 1124.017973 1737.210061 1252.2564 
" clip-path="url(#p58637f67db)" style="fill: none; stroke: #000000; stroke-width: 0.2; stroke-linecap: round"/>
    <path d="M 1734.161776 1248.984098 
L 1737.210061 1252.2564 
L 1732.763248 1252.731647 
z
" clip-path="url(#p58637f67db)" style="stroke: #000000; stroke-width: 0.2; stroke-linecap: round"/>
   </g>
   <g id="patch_15">
    <path d="M 1505.527206 1209.324428 
Q 1486.958364 1296.065136 1468.43633 1382.58719 
" clip-path="url(#p58637f67db)" style="fill: none; stroke: #000000; stroke-width: 0.2; stroke-linecap: round"/>
    <path d="M 1471.229341 1379.094471 
L 1468.43633 1382.58719 
L 1467.317961 1378.25715 
z
" clip-path="url(#p58637f67db)" style="stroke: #000000; stroke-width: 0.2; stroke-linecap: round"/>
   </g>
   <g id="patch_16">
    <path d="M 1522.19329 1198.99448 
Q 1629.578646 1226.388661 1736.747333 1253.727569 
" clip-path="url(#p58637f67db)" style="fill: none; stroke: #000000; stroke-width: 0.2; stroke-linecap: round"/>
    <path d="M 1733.365831 1250.800891 
L 1736.747333 1253.727569 
L 1732.377089 1254.676763 
z
" clip-path="url(#p58637f67db)" style="stroke: #000000; stroke-width: 0.2; stroke-linecap: round"/>
   </g>
   <g id="patch_17">
    <path d="M 1497.776453 1186.268689 
Q 1398.295897 1100.546552 1298.984735 1014.970381 
" clip-path="url(#p58637f67db)" style="fill: none; stroke: #000000; stroke-width: 0.2; stroke-linecap: round"/>
    <path d="M 1300.709375 1019.096592 
L 1298.984735 1014.970381 
L 1303.320488 1016.066395 
z
" clip-path="url(#p58637f67db)" style="stroke: #000000; stroke-width: 0.2; stroke-linecap: round"/>
   </g>
   <g id="patch_18">
    <path d="M 1514.54852 1208.277321 
Q 1533.421491 1248.0671 1552.198634 1287.654846 
" clip-path="url(#p58637f67db)" style="fill: none; stroke: #000000; stroke-width: 0.2; stroke-linecap: round"/>
    <path d="M 1552.291454 1283.183673 
L 1552.198634 1287.654846 
L 1548.677388 1284.897887 
z
" clip-path="url(#p58637f67db)" style="stroke: #000000; stroke-width: 0.2; stroke-linecap: round"/>
   </g>
   <g id="patch_19">
    <path d="M 1463.425357 1418.571764 
Q 1463.783999 1414.64499 1464.122303 1410.940896 
" clip-path="url(#p58637f67db)" style="fill: none; stroke: #000000; stroke-width: 0.2; stroke-linecap: round"/>
    <path d="M 1461.766777 1414.742409 
L 1464.122303 1410.940896 
L 1465.750198 1415.106224 
z
" clip-path="url(#p58637f67db)" style="stroke: #000000; stroke-width: 0.2; stroke-linecap: round"/>
   </g>
   <g id="patch_20">
    <path d="M 1474.222104 1425.31017 
Q 1606.402662 1344.967385 1738.392141 1264.740744 
" clip-path="url(#p58637f67db)" style="fill: none; stroke: #000000; stroke-width: 0.2; stroke-linecap: round"/>
    <path d="M 1733.935218 1265.109305 
L 1738.392141 1264.740744 
L 1736.012836 1268.527419 
z
" clip-path="url(#p58637f67db)" style="stroke: #000000; stroke-width: 0.2; stroke-linecap: round"/>
   </g>
   <g id="patch_21">
    <path d="M 1476.275975 1432.161245 
Q 2046.112825 1412.278549 2615.726204 1392.40365 
" clip-path="url(#p58637f67db)" style="fill: none; stroke: #000000; stroke-width: 0.2; stroke-linecap: round"/>
    <path d="M 2611.658895 1390.544349 
L 2615.726204 1392.40365 
L 2611.798378 1394.541917 
z
" clip-path="url(#p58637f67db)" style="stroke: #000000; stroke-width: 0.2; stroke-linecap: round"/>
   </g>
   <g id="patch_22">
    <path d="M 1448.012035 1433.35377 
Q 856.0282 1462.655812 264.267698 1491.9468 
" clip-path="url(#p58637f67db)" style="fill: none; stroke: #000000; stroke-width: 0.2; stroke-linecap: round"/>
    <path d="M 268.361682 1493.746604 
L 264.267698 1491.9468 
L 268.163932 1489.751495 
z
" clip-path="url(#p58637f67db)" style="stroke: #000000; stroke-width: 0.2; stroke-linecap: round"/>
   </g>
   <g id="patch_23">
    <path d="M 1548.516783 1310.796462 
Q 1511.890656 1348.635688 1475.420047 1386.314246 
" clip-path="url(#p58637f67db)" style="fill: none; stroke: #000000; stroke-width: 0.2; stroke-linecap: round"/>
    <path d="M 1479.639089 1384.831113 
L 1475.420047 1386.314246 
L 1476.764966 1382.049132 
z
" clip-path="url(#p58637f67db)" style="stroke: #000000; stroke-width: 0.2; stroke-linecap: round"/>
   </g>
   <g id="patch_24">
    <path d="M 1552.292951 1287.853692 
Q 1533.41998 1248.063914 1514.642836 1208.476167 
" clip-path="url(#p58637f67db)" style="fill: none; stroke: #000000; stroke-width: 0.2; stroke-linecap: round"/>
    <path d="M 1514.550016 1212.94734 
L 1514.642836 1208.476167 
L 1518.164082 1211.233127 
z
" clip-path="url(#p58637f67db)" style="stroke: #000000; stroke-width: 0.2; stroke-linecap: round"/>
   </g>
   <g id="patch_25">
    <path d="M 1288.344402 1019.733641 
Q 1291.575493 1207.119519 1294.802729 1394.281824 
" clip-path="url(#p58637f67db)" style="fill: none; stroke: #000000; stroke-width: 0.2; stroke-linecap: round"/>
    <path d="M 1296.73347 1390.247937 
L 1294.802729 1394.281824 
L 1292.734064 1390.316899 
z
" clip-path="url(#p58637f67db)" style="stroke: #000000; stroke-width: 0.2; stroke-linecap: round"/>
   </g>
   <g id="patch_26">
    <path d="M 1298.811168 1014.820819 
Q 1398.291723 1100.542956 1497.602886 1186.119127 
" clip-path="url(#p58637f67db)" style="fill: none; stroke: #000000; stroke-width: 0.2; stroke-linecap: round"/>
    <path d="M 1495.878245 1181.992916 
L 1497.602886 1186.119127 
L 1493.267133 1185.023113 
z
" clip-path="url(#p58637f67db)" style="stroke: #000000; stroke-width: 0.2; stroke-linecap: round"/>
   </g>
   <g id="patch_27">
    <path d="M 1286.150894 1019.599545 
Q 1240.908411 1344.661329 1195.696753 1669.50164 
" clip-path="url(#p58637f67db)" style="fill: none; stroke: #000000; stroke-width: 0.2; stroke-linecap: round"/>
    <path d="M 1198.229068 1665.815534 
L 1195.696753 1669.50164 
L 1194.267257 1665.264124 
z
" clip-path="url(#p58637f67db)" style="stroke: #000000; stroke-width: 0.2; stroke-linecap: round"/>
   </g>
   <g id="patch_28">
    <path d="M 1276.73863 1014.015839 
Q 1264.25245 1023.273758 1251.94589 1032.398497 
" clip-path="url(#p58637f67db)" style="fill: none; stroke: #000000; stroke-width: 0.2; stroke-linecap: round"/>
    <path d="M 1256.350218 1031.622675 
L 1251.94589 1032.398497 
L 1253.96783 1028.409542 
z
" clip-path="url(#p58637f67db)" style="stroke: #000000; stroke-width: 0.2; stroke-linecap: round"/>
   </g>
   <g id="patch_29">
    <path d="M 1287.996196 991.45202 
Q 1285.311993 627.755099 1282.62944 264.281779 
" clip-path="url(#p58637f67db)" style="fill: none; stroke: #000000; stroke-width: 0.2; stroke-linecap: round"/>
    <path d="M 1280.659015 268.29643 
L 1282.62944 264.281779 
L 1284.658906 268.266909 
z
" clip-path="url(#p58637f67db)" style="stroke: #000000; stroke-width: 0.2; stroke-linecap: round"/>
   </g>
   <g id="patch_30">
    <path d="M 1287.321757 991.472957 
Q 1279.596886 851.430645 1271.884332 711.611601 
" clip-path="url(#p58637f67db)" style="fill: none; stroke: #000000; stroke-width: 0.2; stroke-linecap: round"/>
    <path d="M 1270.107676 715.715684 
L 1271.884332 711.611601 
L 1274.101605 715.495375 
z
" clip-path="url(#p58637f67db)" style="stroke: #000000; stroke-width: 0.2; stroke-linecap: round"/>
   </g>
   <g id="patch_31">
    <path d="M 1305.33023 1418.355737 
Q 1755.698685 1843.84038 2205.9046 2269.171464 
" clip-path="url(#p58637f67db)" style="fill: none; stroke: #000000; stroke-width: 0.2; stroke-linecap: round"/>
    <path d="M 2204.370468 2264.970697 
L 2205.9046 2269.171464 
L 2201.623508 2267.878309 
z
" clip-path="url(#p58637f67db)" style="stroke: #000000; stroke-width: 0.2; stroke-linecap: round"/>
   </g>
   <g id="patch_32">
    <path d="M 1283.491495 1400.502872 
Q 812.398074 1068.708737 341.487468 737.04336 
" clip-path="url(#p58637f67db)" style="fill: none; stroke: #000000; stroke-width: 0.2; stroke-linecap: round"/>
    <path d="M 343.60612 740.9818 
L 341.487468 737.04336 
L 345.909412 737.711502 
z
" clip-path="url(#p58637f67db)" style="stroke: #000000; stroke-width: 0.2; stroke-linecap: round"/>
   </g>
   <g id="patch_33">
    <path d="M 1294.806521 1394.501731 
Q 1291.57543 1207.115852 1288.348194 1019.953548 
" clip-path="url(#p58637f67db)" style="fill: none; stroke: #000000; stroke-width: 0.2; stroke-linecap: round"/>
    <path d="M 1286.417453 1023.987434 
L 1288.348194 1019.953548 
L 1290.416859 1023.918472 
z
" clip-path="url(#p58637f67db)" style="stroke: #000000; stroke-width: 0.2; stroke-linecap: round"/>
   </g>
   <g id="patch_34">
    <path d="M 1292.971257 1394.654121 
Q 1267.727697 1224.797817 1242.517007 1055.162691 
" clip-path="url(#p58637f67db)" style="fill: none; stroke: #000000; stroke-width: 0.2; stroke-linecap: round"/>
    <path d="M 1241.126745 1059.41324 
L 1242.517007 1055.162691 
L 1245.08329 1058.82523 
z
" clip-path="url(#p58637f67db)" style="stroke: #000000; stroke-width: 0.2; stroke-linecap: round"/>
   </g>
   <g id="patch_35">
    <path d="M 1195.666004 1669.722568 
Q 1240.908487 1344.660785 1286.120145 1019.820473 
" clip-path="url(#p58637f67db)" style="fill: none; stroke: #000000; stroke-width: 0.2; stroke-linecap: round"/>
    <path d="M 1283.58783 1023.50658 
L 1286.120145 1019.820473 
L 1287.549641 1024.057989 
z
" clip-path="url(#p58637f67db)" style="stroke: #000000; stroke-width: 0.2; stroke-linecap: round"/>
   </g>
   <g id="patch_36">
    <path d="M 1193.371851 1669.593941 
Q 1191.23592 1581.944682 1189.105437 1494.518964 
" clip-path="url(#p58637f67db)" style="fill: none; stroke: #000000; stroke-width: 0.2; stroke-linecap: round"/>
    <path d="M 1187.203478 1498.5665 
L 1189.105437 1494.518964 
L 1191.202291 1498.469053 
z
" clip-path="url(#p58637f67db)" style="stroke: #000000; stroke-width: 0.2; stroke-linecap: round"/>
   </g>
   <g id="patch_37">
    <path d="M 1194.741165 1669.621834 
Q 1217.061034 1362.341515 1239.364703 1055.284214 
" clip-path="url(#p58637f67db)" style="fill: none; stroke: #000000; stroke-width: 0.2; stroke-linecap: round"/>
    <path d="M 1237.080175 1059.128812 
L 1239.364703 1055.284214 
L 1241.069664 1059.418596 
z
" clip-path="url(#p58637f67db)" style="stroke: #000000; stroke-width: 0.2; stroke-linecap: round"/>
   </g>
   <g id="patch_38">
    <path d="M 1192.383163 1697.806178 
Q 1148.899072 2156.904611 1105.436066 2615.780435 
" clip-path="url(#p58637f67db)" style="fill: none; stroke: #000000; stroke-width: 0.2; stroke-linecap: round"/>
    <path d="M 1107.804331 2611.986846 
L 1105.436066 2615.780435 
L 1103.822154 2611.609669 
z
" clip-path="url(#p58637f67db)" style="stroke: #000000; stroke-width: 0.2; stroke-linecap: round"/>
   </g>
   <g id="patch_39">
    <path d="M 1242.484637 1054.944884 
Q 1267.728198 1224.801188 1292.938887 1394.436315 
" clip-path="url(#p58637f67db)" style="fill: none; stroke: #000000; stroke-width: 0.2; stroke-linecap: round"/>
    <path d="M 1294.329149 1390.185765 
L 1292.938887 1394.436315 
L 1290.372605 1390.773775 
z
" clip-path="url(#p58637f67db)" style="stroke: #000000; stroke-width: 0.2; stroke-linecap: round"/>
   </g>
   <g id="patch_40">
    <path d="M 1251.767441 1032.530808 
Q 1264.253621 1023.27289 1276.560181 1014.148151 
" clip-path="url(#p58637f67db)" style="fill: none; stroke: #000000; stroke-width: 0.2; stroke-linecap: round"/>
    <path d="M 1272.155853 1014.923972 
L 1276.560181 1014.148151 
L 1274.538242 1018.137106 
z
" clip-path="url(#p58637f67db)" style="stroke: #000000; stroke-width: 0.2; stroke-linecap: round"/>
   </g>
   <g id="patch_41">
    <path d="M 1239.380705 1055.063913 
Q 1217.060836 1362.344233 1194.757167 1669.401533 
" clip-path="url(#p58637f67db)" style="fill: none; stroke: #000000; stroke-width: 0.2; stroke-linecap: round"/>
    <path d="M 1197.041696 1665.556935 
L 1194.757167 1669.401533 
L 1193.052206 1665.267152 
z
" clip-path="url(#p58637f67db)" style="stroke: #000000; stroke-width: 0.2; stroke-linecap: round"/>
   </g>
   <g id="patch_42">
    <path d="M 1238.754022 1054.99855 
Q 1214.580792 1260.553855 1190.433679 1465.887084 
" clip-path="url(#p58637f67db)" style="fill: none; stroke: #000000; stroke-width: 0.2; stroke-linecap: round"/>
    <path d="M 1192.88717 1462.14805 
L 1190.433679 1465.887084 
L 1188.914546 1461.68087 
z
" clip-path="url(#p58637f67db)" style="stroke: #000000; stroke-width: 0.2; stroke-linecap: round"/>
   </g>
   <g id="patch_43">
    <path d="M 1241.157283 1026.835932 
Q 1261.464397 645.437681 1281.759623 264.26272 
" clip-path="url(#p58637f67db)" style="fill: none; stroke: #000000; stroke-width: 0.2; stroke-linecap: round"/>
    <path d="M 1279.549778 268.150725 
L 1281.759623 264.26272 
L 1283.54412 268.363399 
z
" clip-path="url(#p58637f67db)" style="stroke: #000000; stroke-width: 0.2; stroke-linecap: round"/>
   </g>
   <g id="patch_44">
    <path d="M 1241.663495 1026.86654 
Q 1255.749561 869.110399 1269.815742 711.576978 
" clip-path="url(#p58637f67db)" style="fill: none; stroke: #000000; stroke-width: 0.2; stroke-linecap: round"/>
    <path d="M 1267.467922 715.383255 
L 1269.815742 711.576978 
L 1271.452071 715.739 
z
" clip-path="url(#p58637f67db)" style="stroke: #000000; stroke-width: 0.2; stroke-linecap: round"/>
   </g>
   <g id="patch_45">
    <path d="M 1271.87202 711.388403 
Q 1279.59689 851.430714 1287.309445 991.249758 
" clip-path="url(#p58637f67db)" style="fill: none; stroke: #000000; stroke-width: 0.2; stroke-linecap: round"/>
    <path d="M 1289.0861 987.145676 
L 1287.309445 991.249758 
L 1285.092172 987.365985 
z
" clip-path="url(#p58637f67db)" style="stroke: #000000; stroke-width: 0.2; stroke-linecap: round"/>
   </g>
   <g id="patch_46">
    <path d="M 1269.835254 711.358453 
Q 1255.749187 869.114595 1241.683007 1026.648016 
" clip-path="url(#p58637f67db)" style="fill: none; stroke: #000000; stroke-width: 0.2; stroke-linecap: round"/>
    <path d="M 1244.030826 1022.841739 
L 1241.683007 1026.648016 
L 1240.046677 1022.485994 
z
" clip-path="url(#p58637f67db)" style="stroke: #000000; stroke-width: 0.2; stroke-linecap: round"/>
   </g>
   <g id="patch_47">
    <path d="M 1271.454519 683.129675 
Q 1276.808378 473.591574 1282.156525 264.277006 
" clip-path="url(#p58637f67db)" style="fill: none; stroke: #000000; stroke-width: 0.2; stroke-linecap: round"/>
    <path d="M 1280.055008 268.224616 
L 1282.156525 264.277006 
L 1284.053703 268.326786 
z
" clip-path="url(#p58637f67db)" style="stroke: #000000; stroke-width: 0.2; stroke-linecap: round"/>
   </g>
   <g id="patch_48">
    <path d="M 1189.099962 1494.294319 
Q 1191.235893 1581.943578 1193.366377 1669.369296 
" clip-path="url(#p58637f67db)" style="fill: none; stroke: #000000; stroke-width: 0.2; stroke-linecap: round"/>
    <path d="M 1195.268336 1665.32176 
L 1193.366377 1669.369296 
L 1191.269523 1665.419207 
z
" clip-path="url(#p58637f67db)" style="stroke: #000000; stroke-width: 0.2; stroke-linecap: round"/>
   </g>
   <g id="patch_49">
    <path d="M 1190.406965 1466.114244 
Q 1214.580194 1260.558939 1238.727308 1055.22571 
" clip-path="url(#p58637f67db)" style="fill: none; stroke: #000000; stroke-width: 0.2; stroke-linecap: round"/>
    <path d="M 1236.273816 1058.964745 
L 1238.727308 1055.22571 
L 1240.246441 1059.431924 
z
" clip-path="url(#p58637f67db)" style="stroke: #000000; stroke-width: 0.2; stroke-linecap: round"/>
   </g>
   <g id="patch_50">
    <path d="M 1187.717001 1494.260623 
Q 1146.418452 2055.119974 1105.136324 2615.756322 
" clip-path="url(#p58637f67db)" style="fill: none; stroke: #000000; stroke-width: 0.2; stroke-linecap: round"/>
    <path d="M 1107.424666 2611.913993 
L 1105.136324 2615.756322 
L 1103.435467 2611.620251 
z
" clip-path="url(#p58637f67db)" style="stroke: #000000; stroke-width: 0.2; stroke-linecap: round"/>
   </g>
   <g id="patch_51">
    <path d="M 1187.667122 1494.260364 
Q 1166.346946 1770.526372 1145.043975 2046.569436 
" clip-path="url(#p58637f67db)" style="fill: none; stroke: #000000; stroke-width: 0.2; stroke-linecap: round"/>
    <path d="M 1147.345822 2042.735182 
L 1145.043975 2046.569436 
L 1143.35768 2042.427407 
z
" clip-path="url(#p58637f67db)" style="stroke: #000000; stroke-width: 0.2; stroke-linecap: round"/>
   </g>
   <g id="patch_52">
    <path d="M 1189.830343 1466.055206 
Q 1235.639595 865.035542 1281.431853 264.238837 
" clip-path="url(#p58637f67db)" style="fill: none; stroke: #000000; stroke-width: 0.2; stroke-linecap: round"/>
    <path d="M 1279.133642 268.075271 
L 1281.431853 264.238837 
L 1283.122074 268.379267 
z
" clip-path="url(#p58637f67db)" style="stroke: #000000; stroke-width: 0.2; stroke-linecap: round"/>
   </g>
   <g id="patch_53">
    <path d="M 1145.027177 2046.787102 
Q 1166.347353 1770.521094 1187.650324 1494.47803 
" clip-path="url(#p58637f67db)" style="fill: none; stroke: #000000; stroke-width: 0.2; stroke-linecap: round"/>
    <path d="M 1185.348478 1498.312284 
L 1187.650324 1494.47803 
L 1189.336619 1498.620059 
z
" clip-path="url(#p58637f67db)" style="stroke: #000000; stroke-width: 0.2; stroke-linecap: round"/>
   </g>
   <g id="patch_54">
    <path d="M 1142.950852 2074.998909 
Q 1124.010038 2345.487463 1105.084842 2615.752956 
" clip-path="url(#p58637f67db)" style="fill: none; stroke: #000000; stroke-width: 0.2; stroke-linecap: round"/>
    <path d="M 1107.359371 2611.902434 
L 1105.084842 2615.752956 
L 1103.369142 2611.62302 
z
" clip-path="url(#p58637f67db)" style="stroke: #000000; stroke-width: 0.2; stroke-linecap: round"/>
   </g>
   <g id="PathCollection_1">
    <defs>
     <path id="C0_0_c91d9da11e" d="M 0 14.142136 
C 3.750538 14.142136 7.347969 12.652031 10 10 
C 12.652031 7.347969 14.142136 3.750538 14.142136 -0 
C 14.142136 -3.750538 12.652031 -7.347969 10 -10 
C 7.347969 -12.652031 3.750538 -14.142136 0 -14.142136 
C -3.750538 -14.142136 -7.347969 -12.652031 -10 -10 
C -12.652031 -7.347969 -14.142136 -3.750538 -14.142136 0 
C -14.142136 3.750538 -12.652031 7.347969 -10 10 
C -7.347969 12.652031 -3.750538 14.142136 0 14.142136 
z
"/>
    </defs>
    <g clip-path="url(#p58637f67db)">
     <use xlink:href="#C0_0_c91d9da11e" x="1750.668467" y="1257.278873" style="fill: #0000ff; stroke: #0000ff"/>
    </g>
    <g clip-path="url(#p58637f67db)">
     <use xlink:href="#C0_0_c91d9da11e" x="1465.428762" y="1396.636454" style="fill: #ffff00; stroke: #ffff00"/>
    </g>
    <g clip-path="url(#p58637f67db)">
     <use xlink:href="#C0_0_c91d9da11e" x="1036.486807" y="990.757155" style="fill: #ffa500; stroke: #ffa500"/>
    </g>
    <g clip-path="url(#p58637f67db)">
     <use xlink:href="#C0_0_c91d9da11e" x="1508.487071" y="1195.498001" style="fill: #ffa500; stroke: #ffa500"/>
    </g>
    <g clip-path="url(#p58637f67db)">
     <use xlink:href="#C0_0_c91d9da11e" x="1462.139147" y="1432.654506" style="fill: #0000ff; stroke: #0000ff"/>
    </g>
    <g clip-path="url(#p58637f67db)">
     <use xlink:href="#C0_0_c91d9da11e" x="2630.082645" y="1391.902727" style="fill: #ffff00; stroke: #ffff00"/>
    </g>
    <g clip-path="url(#p58637f67db)">
     <use xlink:href="#C0_0_c91d9da11e" x="249.917355" y="1492.657113" style="fill: #ffff00; stroke: #ffff00"/>
    </g>
    <g clip-path="url(#p58637f67db)">
     <use xlink:href="#C0_0_c91d9da11e" x="1558.3544" y="1300.633012" style="fill: #ffff00; stroke: #ffff00"/>
    </g>
    <g clip-path="url(#p58637f67db)">
     <use xlink:href="#C0_0_c91d9da11e" x="1288.10055" y="1005.591507" style="fill: #ffff00; stroke: #ffff00"/>
    </g>
    <g clip-path="url(#p58637f67db)">
     <use xlink:href="#C0_0_c91d9da11e" x="329.745931" y="728.773719" style="fill: #ffff00; stroke: #ffff00"/>
    </g>
    <g clip-path="url(#p58637f67db)">
     <use xlink:href="#C0_0_c91d9da11e" x="1295.050373" y="1408.643865" style="fill: #0000ff; stroke: #0000ff"/>
    </g>
    <g clip-path="url(#p58637f67db)">
     <use xlink:href="#C0_0_c91d9da11e" x="1193.716349" y="1683.730606" style="fill: #0000ff; stroke: #0000ff"/>
    </g>
    <g clip-path="url(#p58637f67db)">
     <use xlink:href="#C0_0_c91d9da11e" x="1240.405522" y="1040.955141" style="fill: #ffff00; stroke: #ffff00"/>
    </g>
    <g clip-path="url(#p58637f67db)">
     <use xlink:href="#C0_0_c91d9da11e" x="1282.523425" y="249.917355" style="fill: #ffa500; stroke: #ffa500"/>
    </g>
    <g clip-path="url(#p58637f67db)">
     <use xlink:href="#C0_0_c91d9da11e" x="1271.093227" y="697.269853" style="fill: #ffff00; stroke: #ffff00"/>
    </g>
    <g clip-path="url(#p58637f67db)">
     <use xlink:href="#C0_0_c91d9da11e" x="2216.350454" y="2279.040162" style="fill: #ffa500; stroke: #ffa500"/>
    </g>
    <g clip-path="url(#p58637f67db)">
     <use xlink:href="#C0_0_c91d9da11e" x="1188.755465" y="1480.157654" style="fill: #0000ff; stroke: #0000ff"/>
    </g>
    <g clip-path="url(#p58637f67db)">
     <use xlink:href="#C0_0_c91d9da11e" x="1104.081414" y="2630.082645" style="fill: #0000ff; stroke: #0000ff"/>
    </g>
    <g clip-path="url(#p58637f67db)">
     <use xlink:href="#C0_0_c91d9da11e" x="1143.938834" y="2060.889812" style="fill: #ffff00; stroke: #ffff00"/>
    </g>
   </g>
   <g id="text_1">
    <g clip-path="url(#p58637f67db)">
     <!-- VAL 43 -->
     <g transform="translate(1736.860967 1259.486373) scale(0.08 -0.08)">
      <defs>
       <path id="DejaVuSans-56" d="M 1831 0 
L 50 4666 
L 709 4666 
L 2188 738 
L 3669 4666 
L 4325 4666 
L 2547 0 
L 1831 0 
z
" transform="scale(0.015625)"/>
       <path id="DejaVuSans-41" d="M 2188 4044 
L 1331 1722 
L 3047 1722 
L 2188 4044 
z
M 1831 4666 
L 2547 4666 
L 4325 0 
L 3669 0 
L 3244 1197 
L 1141 1197 
L 716 0 
L 50 0 
L 1831 4666 
z
" transform="scale(0.015625)"/>
       <path id="DejaVuSans-4c" d="M 628 4666 
L 1259 4666 
L 1259 531 
L 3531 531 
L 3531 0 
L 628 0 
L 628 4666 
z
" transform="scale(0.015625)"/>
       <path id="DejaVuSans-20" transform="scale(0.015625)"/>
       <path id="DejaVuSans-34" d="M 2419 4116 
L 825 1625 
L 2419 1625 
L 2419 4116 
z
M 2253 4666 
L 3047 4666 
L 3047 1625 
L 3713 1625 
L 3713 1100 
L 3047 1100 
L 3047 0 
L 2419 0 
L 2419 1100 
L 313 1100 
L 313 1709 
L 2253 4666 
z
" transform="scale(0.015625)"/>
       <path id="DejaVuSans-33" d="M 2597 2516 
Q 3050 2419 3304 2112 
Q 3559 1806 3559 1356 
Q 3559 666 3084 287 
Q 2609 -91 1734 -91 
Q 1441 -91 1130 -33 
Q 819 25 488 141 
L 488 750 
Q 750 597 1062 519 
Q 1375 441 1716 441 
Q 2309 441 2620 675 
Q 2931 909 2931 1356 
Q 2931 1769 2642 2001 
Q 2353 2234 1838 2234 
L 1294 2234 
L 1294 2753 
L 1863 2753 
Q 2328 2753 2575 2939 
Q 2822 3125 2822 3475 
Q 2822 3834 2567 4026 
Q 2313 4219 1838 4219 
Q 1578 4219 1281 4162 
Q 984 4106 628 3988 
L 628 4550 
Q 988 4650 1302 4700 
Q 1616 4750 1894 4750 
Q 2613 4750 3031 4423 
Q 3450 4097 3450 3541 
Q 3450 3153 3228 2886 
Q 3006 2619 2597 2516 
z
" transform="scale(0.015625)"/>
      </defs>
      <use xlink:href="#DejaVuSans-56"/>
      <use xlink:href="#DejaVuSans-41" x="62.033203"/>
      <use xlink:href="#DejaVuSans-4c" x="130.441406"/>
      <use xlink:href="#DejaVuSans-20" x="186.154297"/>
      <use xlink:href="#DejaVuSans-34" x="217.941406"/>
      <use xlink:href="#DejaVuSans-33" x="281.564453"/>
     </g>
    </g>
   </g>
   <g id="text_2">
    <g clip-path="url(#p58637f67db)">
     <!-- LEU 41 -->
     <g transform="translate(1451.383762 1398.843954) scale(0.08 -0.08)">
      <defs>
       <path id="DejaVuSans-45" d="M 628 4666 
L 3578 4666 
L 3578 4134 
L 1259 4134 
L 1259 2753 
L 3481 2753 
L 3481 2222 
L 1259 2222 
L 1259 531 
L 3634 531 
L 3634 0 
L 628 0 
L 628 4666 
z
" transform="scale(0.015625)"/>
       <path id="DejaVuSans-55" d="M 556 4666 
L 1191 4666 
L 1191 1831 
Q 1191 1081 1462 751 
Q 1734 422 2344 422 
Q 2950 422 3222 751 
Q 3494 1081 3494 1831 
L 3494 4666 
L 4128 4666 
L 4128 1753 
Q 4128 841 3676 375 
Q 3225 -91 2344 -91 
Q 1459 -91 1007 375 
Q 556 841 556 1753 
L 556 4666 
z
" transform="scale(0.015625)"/>
       <path id="DejaVuSans-31" d="M 794 531 
L 1825 531 
L 1825 4091 
L 703 3866 
L 703 4441 
L 1819 4666 
L 2450 4666 
L 2450 531 
L 3481 531 
L 3481 0 
L 794 0 
L 794 531 
z
" transform="scale(0.015625)"/>
      </defs>
      <use xlink:href="#DejaVuSans-4c"/>
      <use xlink:href="#DejaVuSans-45" x="55.712891"/>
      <use xlink:href="#DejaVuSans-55" x="118.896484"/>
      <use xlink:href="#DejaVuSans-20" x="192.089844"/>
      <use xlink:href="#DejaVuSans-34" x="223.876953"/>
      <use xlink:href="#DejaVuSans-31" x="287.5"/>
     </g>
    </g>
   </g>
   <g id="text_3">
    <g clip-path="url(#p58637f67db)">
     <!-- ILE 45 -->
     <g transform="translate(1024.189307 992.964655) scale(0.08 -0.08)">
      <defs>
       <path id="DejaVuSans-49" d="M 628 4666 
L 1259 4666 
L 1259 0 
L 628 0 
L 628 4666 
z
" transform="scale(0.015625)"/>
       <path id="DejaVuSans-35" d="M 691 4666 
L 3169 4666 
L 3169 4134 
L 1269 4134 
L 1269 2991 
Q 1406 3038 1543 3061 
Q 1681 3084 1819 3084 
Q 2600 3084 3056 2656 
Q 3513 2228 3513 1497 
Q 3513 744 3044 326 
Q 2575 -91 1722 -91 
Q 1428 -91 1123 -41 
Q 819 9 494 109 
L 494 744 
Q 775 591 1075 516 
Q 1375 441 1709 441 
Q 2250 441 2565 725 
Q 2881 1009 2881 1497 
Q 2881 1984 2565 2268 
Q 2250 2553 1709 2553 
Q 1456 2553 1204 2497 
Q 953 2441 691 2322 
L 691 4666 
z
" transform="scale(0.015625)"/>
      </defs>
      <use xlink:href="#DejaVuSans-49"/>
      <use xlink:href="#DejaVuSans-4c" x="29.492188"/>
      <use xlink:href="#DejaVuSans-45" x="85.205078"/>
      <use xlink:href="#DejaVuSans-20" x="148.388672"/>
      <use xlink:href="#DejaVuSans-34" x="180.175781"/>
      <use xlink:href="#DejaVuSans-35" x="243.798828"/>
     </g>
    </g>
   </g>
   <g id="text_4">
    <g clip-path="url(#p58637f67db)">
     <!-- ILE 71 -->
     <g transform="translate(1496.189571 1197.705501) scale(0.08 -0.08)">
      <defs>
       <path id="DejaVuSans-37" d="M 525 4666 
L 3525 4666 
L 3525 4397 
L 1831 0 
L 1172 0 
L 2766 4134 
L 525 4134 
L 525 4666 
z
" transform="scale(0.015625)"/>
      </defs>
      <use xlink:href="#DejaVuSans-49"/>
      <use xlink:href="#DejaVuSans-4c" x="29.492188"/>
      <use xlink:href="#DejaVuSans-45" x="85.205078"/>
      <use xlink:href="#DejaVuSans-20" x="148.388672"/>
      <use xlink:href="#DejaVuSans-37" x="180.175781"/>
      <use xlink:href="#DejaVuSans-31" x="243.798828"/>
     </g>
    </g>
   </g>
   <g id="text_5">
    <g clip-path="url(#p58637f67db)">
     <!-- VAL 124 -->
     <g transform="translate(1445.786647 1434.862006) scale(0.08 -0.08)">
      <defs>
       <path id="DejaVuSans-32" d="M 1228 531 
L 3431 531 
L 3431 0 
L 469 0 
L 469 531 
Q 828 903 1448 1529 
Q 2069 2156 2228 2338 
Q 2531 2678 2651 2914 
Q 2772 3150 2772 3378 
Q 2772 3750 2511 3984 
Q 2250 4219 1831 4219 
Q 1534 4219 1204 4116 
Q 875 4013 500 3803 
L 500 4441 
Q 881 4594 1212 4672 
Q 1544 4750 1819 4750 
Q 2544 4750 2975 4387 
Q 3406 4025 3406 3419 
Q 3406 3131 3298 2873 
Q 3191 2616 2906 2266 
Q 2828 2175 2409 1742 
Q 1991 1309 1228 531 
z
" transform="scale(0.015625)"/>
      </defs>
      <use xlink:href="#DejaVuSans-56"/>
      <use xlink:href="#DejaVuSans-41" x="62.033203"/>
      <use xlink:href="#DejaVuSans-4c" x="130.441406"/>
      <use xlink:href="#DejaVuSans-20" x="186.154297"/>
      <use xlink:href="#DejaVuSans-31" x="217.941406"/>
      <use xlink:href="#DejaVuSans-32" x="281.564453"/>
      <use xlink:href="#DejaVuSans-34" x="345.1875"/>
     </g>
    </g>
   </g>
   <g id="text_6">
    <g clip-path="url(#p58637f67db)">
     <!-- LEU 129 -->
     <g transform="translate(2613.492645 1394.110227) scale(0.08 -0.08)">
      <defs>
       <path id="DejaVuSans-39" d="M 703 97 
L 703 672 
Q 941 559 1184 500 
Q 1428 441 1663 441 
Q 2288 441 2617 861 
Q 2947 1281 2994 2138 
Q 2813 1869 2534 1725 
Q 2256 1581 1919 1581 
Q 1219 1581 811 2004 
Q 403 2428 403 3163 
Q 403 3881 828 4315 
Q 1253 4750 1959 4750 
Q 2769 4750 3195 4129 
Q 3622 3509 3622 2328 
Q 3622 1225 3098 567 
Q 2575 -91 1691 -91 
Q 1453 -91 1209 -44 
Q 966 3 703 97 
z
M 1959 2075 
Q 2384 2075 2632 2365 
Q 2881 2656 2881 3163 
Q 2881 3666 2632 3958 
Q 2384 4250 1959 4250 
Q 1534 4250 1286 3958 
Q 1038 3666 1038 3163 
Q 1038 2656 1286 2365 
Q 1534 2075 1959 2075 
z
" transform="scale(0.015625)"/>
      </defs>
      <use xlink:href="#DejaVuSans-4c"/>
      <use xlink:href="#DejaVuSans-45" x="55.712891"/>
      <use xlink:href="#DejaVuSans-55" x="118.896484"/>
      <use xlink:href="#DejaVuSans-20" x="192.089844"/>
      <use xlink:href="#DejaVuSans-31" x="223.876953"/>
      <use xlink:href="#DejaVuSans-32" x="287.5"/>
      <use xlink:href="#DejaVuSans-39" x="351.123047"/>
     </g>
    </g>
   </g>
   <g id="text_7">
    <g clip-path="url(#p58637f67db)">
     <!-- LEU 138 -->
     <g transform="translate(233.327355 1494.864613) scale(0.08 -0.08)">
      <defs>
       <path id="DejaVuSans-38" d="M 2034 2216 
Q 1584 2216 1326 1975 
Q 1069 1734 1069 1313 
Q 1069 891 1326 650 
Q 1584 409 2034 409 
Q 2484 409 2743 651 
Q 3003 894 3003 1313 
Q 3003 1734 2745 1975 
Q 2488 2216 2034 2216 
z
M 1403 2484 
Q 997 2584 770 2862 
Q 544 3141 544 3541 
Q 544 4100 942 4425 
Q 1341 4750 2034 4750 
Q 2731 4750 3128 4425 
Q 3525 4100 3525 3541 
Q 3525 3141 3298 2862 
Q 3072 2584 2669 2484 
Q 3125 2378 3379 2068 
Q 3634 1759 3634 1313 
Q 3634 634 3220 271 
Q 2806 -91 2034 -91 
Q 1263 -91 848 271 
Q 434 634 434 1313 
Q 434 1759 690 2068 
Q 947 2378 1403 2484 
z
M 1172 3481 
Q 1172 3119 1398 2916 
Q 1625 2713 2034 2713 
Q 2441 2713 2670 2916 
Q 2900 3119 2900 3481 
Q 2900 3844 2670 4047 
Q 2441 4250 2034 4250 
Q 1625 4250 1398 4047 
Q 1172 3844 1172 3481 
z
" transform="scale(0.015625)"/>
      </defs>
      <use xlink:href="#DejaVuSans-4c"/>
      <use xlink:href="#DejaVuSans-45" x="55.712891"/>
      <use xlink:href="#DejaVuSans-55" x="118.896484"/>
      <use xlink:href="#DejaVuSans-20" x="192.089844"/>
      <use xlink:href="#DejaVuSans-31" x="223.876953"/>
      <use xlink:href="#DejaVuSans-33" x="287.5"/>
      <use xlink:href="#DejaVuSans-38" x="351.123047"/>
     </g>
    </g>
   </g>
   <g id="text_8">
    <g clip-path="url(#p58637f67db)">
     <!-- LEU 140 -->
     <g transform="translate(1541.7644 1302.840512) scale(0.08 -0.08)">
      <defs>
       <path id="DejaVuSans-30" d="M 2034 4250 
Q 1547 4250 1301 3770 
Q 1056 3291 1056 2328 
Q 1056 1369 1301 889 
Q 1547 409 2034 409 
Q 2525 409 2770 889 
Q 3016 1369 3016 2328 
Q 3016 3291 2770 3770 
Q 2525 4250 2034 4250 
z
M 2034 4750 
Q 2819 4750 3233 4129 
Q 3647 3509 3647 2328 
Q 3647 1150 3233 529 
Q 2819 -91 2034 -91 
Q 1250 -91 836 529 
Q 422 1150 422 2328 
Q 422 3509 836 4129 
Q 1250 4750 2034 4750 
z
" transform="scale(0.015625)"/>
      </defs>
      <use xlink:href="#DejaVuSans-4c"/>
      <use xlink:href="#DejaVuSans-45" x="55.712891"/>
      <use xlink:href="#DejaVuSans-55" x="118.896484"/>
      <use xlink:href="#DejaVuSans-20" x="192.089844"/>
      <use xlink:href="#DejaVuSans-31" x="223.876953"/>
      <use xlink:href="#DejaVuSans-34" x="287.5"/>
      <use xlink:href="#DejaVuSans-30" x="351.123047"/>
     </g>
    </g>
   </g>
   <g id="text_9">
    <g clip-path="url(#p58637f67db)">
     <!-- LEU 51 -->
     <g transform="translate(1274.05555 1007.799007) scale(0.08 -0.08)">
      <use xlink:href="#DejaVuSans-4c"/>
      <use xlink:href="#DejaVuSans-45" x="55.712891"/>
      <use xlink:href="#DejaVuSans-55" x="118.896484"/>
      <use xlink:href="#DejaVuSans-20" x="192.089844"/>
      <use xlink:href="#DejaVuSans-35" x="223.876953"/>
      <use xlink:href="#DejaVuSans-31" x="287.5"/>
     </g>
    </g>
   </g>
   <g id="text_10">
    <g clip-path="url(#p58637f67db)">
     <!-- LEU 12 -->
     <g transform="translate(315.700931 730.981219) scale(0.08 -0.08)">
      <use xlink:href="#DejaVuSans-4c"/>
      <use xlink:href="#DejaVuSans-45" x="55.712891"/>
      <use xlink:href="#DejaVuSans-55" x="118.896484"/>
      <use xlink:href="#DejaVuSans-20" x="192.089844"/>
      <use xlink:href="#DejaVuSans-31" x="223.876953"/>
      <use xlink:href="#DejaVuSans-32" x="287.5"/>
     </g>
    </g>
   </g>
   <g id="text_11">
    <g clip-path="url(#p58637f67db)">
     <!-- VAL 46 -->
     <g transform="translate(1281.242873 1410.851365) scale(0.08 -0.08)">
      <defs>
       <path id="DejaVuSans-36" d="M 2113 2584 
Q 1688 2584 1439 2293 
Q 1191 2003 1191 1497 
Q 1191 994 1439 701 
Q 1688 409 2113 409 
Q 2538 409 2786 701 
Q 3034 994 3034 1497 
Q 3034 2003 2786 2293 
Q 2538 2584 2113 2584 
z
M 3366 4563 
L 3366 3988 
Q 3128 4100 2886 4159 
Q 2644 4219 2406 4219 
Q 1781 4219 1451 3797 
Q 1122 3375 1075 2522 
Q 1259 2794 1537 2939 
Q 1816 3084 2150 3084 
Q 2853 3084 3261 2657 
Q 3669 2231 3669 1497 
Q 3669 778 3244 343 
Q 2819 -91 2113 -91 
Q 1303 -91 875 529 
Q 447 1150 447 2328 
Q 447 3434 972 4092 
Q 1497 4750 2381 4750 
Q 2619 4750 2861 4703 
Q 3103 4656 3366 4563 
z
" transform="scale(0.015625)"/>
      </defs>
      <use xlink:href="#DejaVuSans-56"/>
      <use xlink:href="#DejaVuSans-41" x="62.033203"/>
      <use xlink:href="#DejaVuSans-4c" x="130.441406"/>
      <use xlink:href="#DejaVuSans-20" x="186.154297"/>
      <use xlink:href="#DejaVuSans-34" x="217.941406"/>
      <use xlink:href="#DejaVuSans-36" x="281.564453"/>
     </g>
    </g>
   </g>
   <g id="text_12">
    <g clip-path="url(#p58637f67db)">
     <!-- VAL 75 -->
     <g transform="translate(1179.908849 1685.938106) scale(0.08 -0.08)">
      <use xlink:href="#DejaVuSans-56"/>
      <use xlink:href="#DejaVuSans-41" x="62.033203"/>
      <use xlink:href="#DejaVuSans-4c" x="130.441406"/>
      <use xlink:href="#DejaVuSans-20" x="186.154297"/>
      <use xlink:href="#DejaVuSans-37" x="217.941406"/>
      <use xlink:href="#DejaVuSans-35" x="281.564453"/>
     </g>
    </g>
   </g>
   <g id="text_13">
    <g clip-path="url(#p58637f67db)">
     <!-- LEU 99 -->
     <g transform="translate(1226.360522 1043.162641) scale(0.08 -0.08)">
      <use xlink:href="#DejaVuSans-4c"/>
      <use xlink:href="#DejaVuSans-45" x="55.712891"/>
      <use xlink:href="#DejaVuSans-55" x="118.896484"/>
      <use xlink:href="#DejaVuSans-20" x="192.089844"/>
      <use xlink:href="#DejaVuSans-39" x="223.876953"/>
      <use xlink:href="#DejaVuSans-39" x="287.5"/>
     </g>
    </g>
   </g>
   <g id="text_14">
    <g clip-path="url(#p58637f67db)">
     <!-- ILE 116 -->
     <g transform="translate(1267.680925 252.124855) scale(0.08 -0.08)">
      <use xlink:href="#DejaVuSans-49"/>
      <use xlink:href="#DejaVuSans-4c" x="29.492188"/>
      <use xlink:href="#DejaVuSans-45" x="85.205078"/>
      <use xlink:href="#DejaVuSans-20" x="148.388672"/>
      <use xlink:href="#DejaVuSans-31" x="180.175781"/>
      <use xlink:href="#DejaVuSans-31" x="243.798828"/>
      <use xlink:href="#DejaVuSans-36" x="307.421875"/>
     </g>
    </g>
   </g>
   <g id="text_15">
    <g clip-path="url(#p58637f67db)">
     <!-- LEU 121 -->
     <g transform="translate(1254.503227 699.477353) scale(0.08 -0.08)">
      <use xlink:href="#DejaVuSans-4c"/>
      <use xlink:href="#DejaVuSans-45" x="55.712891"/>
      <use xlink:href="#DejaVuSans-55" x="118.896484"/>
      <use xlink:href="#DejaVuSans-20" x="192.089844"/>
      <use xlink:href="#DejaVuSans-31" x="223.876953"/>
      <use xlink:href="#DejaVuSans-32" x="287.5"/>
      <use xlink:href="#DejaVuSans-31" x="351.123047"/>
     </g>
    </g>
   </g>
   <g id="text_16">
    <g clip-path="url(#p58637f67db)">
     <!-- ILE 9 -->
     <g transform="translate(2206.597954 2281.247662) scale(0.08 -0.08)">
      <use xlink:href="#DejaVuSans-49"/>
      <use xlink:href="#DejaVuSans-4c" x="29.492188"/>
      <use xlink:href="#DejaVuSans-45" x="85.205078"/>
      <use xlink:href="#DejaVuSans-20" x="148.388672"/>
      <use xlink:href="#DejaVuSans-39" x="180.175781"/>
     </g>
    </g>
   </g>
   <g id="text_17">
    <g clip-path="url(#p58637f67db)">
     <!-- VAL 90 -->
     <g transform="translate(1174.947965 1482.365154) scale(0.08 -0.08)">
      <use xlink:href="#DejaVuSans-56"/>
      <use xlink:href="#DejaVuSans-41" x="62.033203"/>
      <use xlink:href="#DejaVuSans-4c" x="130.441406"/>
      <use xlink:href="#DejaVuSans-20" x="186.154297"/>
      <use xlink:href="#DejaVuSans-39" x="217.941406"/>
      <use xlink:href="#DejaVuSans-30" x="281.564453"/>
     </g>
    </g>
   </g>
   <g id="text_18">
    <g clip-path="url(#p58637f67db)">
     <!-- VAL 102 -->
     <g transform="translate(1087.728914 2632.290145) scale(0.08 -0.08)">
      <use xlink:href="#DejaVuSans-56"/>
      <use xlink:href="#DejaVuSans-41" x="62.033203"/>
      <use xlink:href="#DejaVuSans-4c" x="130.441406"/>
      <use xlink:href="#DejaVuSans-20" x="186.154297"/>
      <use xlink:href="#DejaVuSans-31" x="217.941406"/>
      <use xlink:href="#DejaVuSans-30" x="281.564453"/>
      <use xlink:href="#DejaVuSans-32" x="345.1875"/>
     </g>
    </g>
   </g>
   <g id="text_19">
    <g clip-path="url(#p58637f67db)">
     <!-- LEU 112 -->
     <g transform="translate(1127.348834 2063.097312) scale(0.08 -0.08)">
      <use xlink:href="#DejaVuSans-4c"/>
      <use xlink:href="#DejaVuSans-45" x="55.712891"/>
      <use xlink:href="#DejaVuSans-55" x="118.896484"/>
      <use xlink:href="#DejaVuSans-20" x="192.089844"/>
      <use xlink:href="#DejaVuSans-31" x="223.876953"/>
      <use xlink:href="#DejaVuSans-31" x="287.5"/>
      <use xlink:href="#DejaVuSans-32" x="351.123047"/>
     </g>
    </g>
   </g>
  </g>
  <g id="text_20">
   <!-- G_NMR -->
   <g transform="translate(1418.51625 66.50625) scale(0.12 -0.12)">
    <defs>
     <path id="DejaVuSans-47" d="M 3809 666 
L 3809 1919 
L 2778 1919 
L 2778 2438 
L 4434 2438 
L 4434 434 
Q 4069 175 3628 42 
Q 3188 -91 2688 -91 
Q 1594 -91 976 548 
Q 359 1188 359 2328 
Q 359 3472 976 4111 
Q 1594 4750 2688 4750 
Q 3144 4750 3555 4637 
Q 3966 4525 4313 4306 
L 4313 3634 
Q 3963 3931 3569 4081 
Q 3175 4231 2741 4231 
Q 1884 4231 1454 3753 
Q 1025 3275 1025 2328 
Q 1025 1384 1454 906 
Q 1884 428 2741 428 
Q 3075 428 3337 486 
Q 3600 544 3809 666 
z
" transform="scale(0.015625)"/>
     <path id="DejaVuSans-5f" d="M 3263 -1063 
L 3263 -1509 
L -63 -1509 
L -63 -1063 
L 3263 -1063 
z
" transform="scale(0.015625)"/>
     <path id="DejaVuSans-4e" d="M 628 4666 
L 1478 4666 
L 3547 763 
L 3547 4666 
L 4159 4666 
L 4159 0 
L 3309 0 
L 1241 3903 
L 1241 0 
L 628 0 
L 628 4666 
z
" transform="scale(0.015625)"/>
     <path id="DejaVuSans-4d" d="M 628 4666 
L 1569 4666 
L 2759 1491 
L 3956 4666 
L 4897 4666 
L 4897 0 
L 4281 0 
L 4281 4097 
L 3078 897 
L 2444 897 
L 1241 4097 
L 1241 0 
L 628 0 
L 628 4666 
z
" transform="scale(0.015625)"/>
     <path id="DejaVuSans-52" d="M 2841 2188 
Q 3044 2119 3236 1894 
Q 3428 1669 3622 1275 
L 4263 0 
L 3584 0 
L 2988 1197 
Q 2756 1666 2539 1819 
Q 2322 1972 1947 1972 
L 1259 1972 
L 1259 0 
L 628 0 
L 628 4666 
L 2053 4666 
Q 2853 4666 3247 4331 
Q 3641 3997 3641 3322 
Q 3641 2881 3436 2590 
Q 3231 2300 2841 2188 
z
M 1259 4147 
L 1259 2491 
L 2053 2491 
Q 2509 2491 2742 2702 
Q 2975 2913 2975 3322 
Q 2975 3731 2742 3939 
Q 2509 4147 2053 4147 
L 1259 4147 
z
" transform="scale(0.015625)"/>
    </defs>
    <use xlink:href="#DejaVuSans-47"/>
    <use xlink:href="#DejaVuSans-5f" x="77.490234"/>
    <use xlink:href="#DejaVuSans-4e" x="127.490234"/>
    <use xlink:href="#DejaVuSans-4d" x="202.294922"/>
    <use xlink:href="#DejaVuSans-52" x="288.574219"/>
   </g>
  </g>
 </g>
 <defs>
  <clipPath id="p58637f67db">
   <rect x="0" y="0" width="2880" height="2880"/>
  </clipPath>
 </defs>
</svg>
